<?xml version="1.0" encoding="UTF-8"?>
<!--Generator: Apple Native CoreSVG 175-->
<!DOCTYPE svg
PUBLIC "-//W3C//DTD SVG 1.1//EN"
       "http://www.w3.org/Graphics/SVG/1.1/DTD/svg11.dtd">
<svg version="1.1" xmlns="http://www.w3.org/2000/svg" xmlns:xlink="http://www.w3.org/1999/xlink" width="3300" height="2200">
 <!--glyph: "uni100183.medium", point size: 100.0, font version: "17.1d1e1", template writer version: "65.1"-->
 <g id="Notes">
  <rect height="2200" id="artboard" style="fill:white;opacity:1" width="3300" x="0" y="0"/>
  <line style="fill:none;stroke:black;opacity:1;stroke-width:0.5;" x1="263" x2="3036" y1="292" y2="292"/>
  <text style="stroke:none;fill:black;font-family:sans-serif;font-size:13;font-weight:bold;" transform="matrix(1 0 0 1 263 322)">Weight/Scale Variations</text>
  <text style="stroke:none;fill:black;font-family:sans-serif;font-size:13;text-anchor:middle;" transform="matrix(1 0 0 1 559.711 322)">Ultralight</text>
  <text style="stroke:none;fill:black;font-family:sans-serif;font-size:13;text-anchor:middle;" transform="matrix(1 0 0 1 856.422 322)">Thin</text>
  <text style="stroke:none;fill:black;font-family:sans-serif;font-size:13;text-anchor:middle;" transform="matrix(1 0 0 1 1153.13 322)">Light</text>
  <text style="stroke:none;fill:black;font-family:sans-serif;font-size:13;text-anchor:middle;" transform="matrix(1 0 0 1 1449.84 322)">Regular</text>
  <text style="stroke:none;fill:black;font-family:sans-serif;font-size:13;text-anchor:middle;" transform="matrix(1 0 0 1 1746.56 322)">Medium</text>
  <text style="stroke:none;fill:black;font-family:sans-serif;font-size:13;text-anchor:middle;" transform="matrix(1 0 0 1 2043.27 322)">Semibold</text>
  <text style="stroke:none;fill:black;font-family:sans-serif;font-size:13;text-anchor:middle;" transform="matrix(1 0 0 1 2339.98 322)">Bold</text>
  <text style="stroke:none;fill:black;font-family:sans-serif;font-size:13;text-anchor:middle;" transform="matrix(1 0 0 1 2636.69 322)">Heavy</text>
  <text style="stroke:none;fill:black;font-family:sans-serif;font-size:13;text-anchor:middle;" transform="matrix(1 0 0 1 2933.4 322)">Black</text>
  <line style="fill:none;stroke:black;opacity:1;stroke-width:0.5;" x1="263" x2="3036" y1="1903" y2="1903"/>
  <g transform="matrix(1 0 0 1 263 1933)">
   <path d="M9.24805 0.830078Q10.8691 0.830078 12.2949 0.214844Q13.7207-0.400391 14.8096-1.49414Q15.8984-2.58789 16.5186-4.01367Q17.1387-5.43945 17.1387-7.05078Q17.1387-8.66211 16.5186-10.0879Q15.8984-11.5137 14.8047-12.6074Q13.7109-13.7012 12.2852-14.3164Q10.8594-14.9316 9.23828-14.9316Q7.62695-14.9316 6.20117-14.3164Q4.77539-13.7012 3.69141-12.6074Q2.60742-11.5137 1.9873-10.0879Q1.36719-8.66211 1.36719-7.05078Q1.36719-5.43945 1.9873-4.01367Q2.60742-2.58789 3.69629-1.49414Q4.78516-0.400391 6.21094 0.214844Q7.63672 0.830078 9.24805 0.830078ZM9.24805-0.654297Q7.91992-0.654297 6.7627-1.14746Q5.60547-1.64062 4.73145-2.51953Q3.85742-3.39844 3.36426-4.56055Q2.87109-5.72266 2.87109-7.05078Q2.87109-8.37891 3.35938-9.54102Q3.84766-10.7031 4.72168-11.582Q5.5957-12.4609 6.75293-12.9541Q7.91016-13.4473 9.23828-13.4473Q10.5762-13.4473 11.7334-12.9541Q12.8906-12.4609 13.7695-11.582Q14.6484-10.7031 15.1465-9.54102Q15.6445-8.37891 15.6445-7.05078Q15.6445-5.72266 15.1514-4.56055Q14.6582-3.39844 13.7842-2.51953Q12.9102-1.64062 11.748-1.14746Q10.5859-0.654297 9.24805-0.654297ZM5.6543-7.05078Q5.6543-6.72852 5.85938-6.52832Q6.06445-6.32812 6.40625-6.32812L8.51562-6.32812L8.51562-4.20898Q8.51562-3.88672 8.71094-3.67676Q8.90625-3.4668 9.23828-3.4668Q9.56055-3.4668 9.77051-3.67676Q9.98047-3.88672 9.98047-4.20898L9.98047-6.32812L12.0898-6.32812Q12.4219-6.32812 12.627-6.52832Q12.832-6.72852 12.832-7.05078Q12.832-7.38281 12.627-7.58789Q12.4219-7.79297 12.0898-7.79297L9.98047-7.79297L9.98047-9.90234Q9.98047-10.2344 9.77051-10.4443Q9.56055-10.6543 9.23828-10.6543Q8.90625-10.6543 8.71094-10.4443Q8.51562-10.2344 8.51562-9.90234L8.51562-7.79297L6.40625-7.79297Q6.06445-7.79297 5.85938-7.58789Q5.6543-7.38281 5.6543-7.05078Z"/>
  </g>
  <g transform="matrix(1 0 0 1 281.867 1933)">
   <path d="M11.709 2.91016Q13.75 2.91016 15.5518 2.12891Q17.3535 1.34766 18.7305-0.0292969Q20.1074-1.40625 20.8887-3.20801Q21.6699-5.00977 21.6699-7.05078Q21.6699-9.0918 20.8887-10.8936Q20.1074-12.6953 18.7305-14.0723Q17.3535-15.4492 15.5469-16.2305Q13.7402-17.0117 11.6992-17.0117Q9.6582-17.0117 7.85645-16.2305Q6.05469-15.4492 4.68262-14.0723Q3.31055-12.6953 2.5293-10.8936Q1.74805-9.0918 1.74805-7.05078Q1.74805-5.00977 2.5293-3.20801Q3.31055-1.40625 4.6875-0.0292969Q6.06445 1.34766 7.86621 2.12891Q9.66797 2.91016 11.709 2.91016ZM11.709 1.25Q9.98047 1.25 8.47656 0.605469Q6.97266-0.0390625 5.83496-1.17676Q4.69727-2.31445 4.05762-3.81836Q3.41797-5.32227 3.41797-7.05078Q3.41797-8.7793 4.05762-10.2832Q4.69727-11.7871 5.83008-12.9297Q6.96289-14.0723 8.4668-14.7119Q9.9707-15.3516 11.6992-15.3516Q13.4277-15.3516 14.9316-14.7119Q16.4355-14.0723 17.5781-12.9297Q18.7207-11.7871 19.3652-10.2832Q20.0098-8.7793 20.0098-7.05078Q20.0098-5.32227 19.3701-3.81836Q18.7305-2.31445 17.5928-1.17676Q16.4551-0.0390625 14.9463 0.605469Q13.4375 1.25 11.709 1.25ZM7.17773-7.05078Q7.17773-6.69922 7.41211-6.47461Q7.64648-6.25 8.01758-6.25L10.8887-6.25L10.8887-3.36914Q10.8887-2.99805 11.1133-2.76855Q11.3379-2.53906 11.6895-2.53906Q12.0605-2.53906 12.29-2.76855Q12.5195-2.99805 12.5195-3.36914L12.5195-6.25L15.4004-6.25Q15.7715-6.25 16.001-6.47461Q16.2305-6.69922 16.2305-7.05078Q16.2305-7.42188 16.001-7.65137Q15.7715-7.88086 15.4004-7.88086L12.5195-7.88086L12.5195-10.752Q12.5195-11.1328 12.29-11.3623Q12.0605-11.5918 11.6895-11.5918Q11.3379-11.5918 11.1133-11.3574Q10.8887-11.123 10.8887-10.752L10.8887-7.88086L8.01758-7.88086Q7.63672-7.88086 7.40723-7.65137Q7.17773-7.42188 7.17773-7.05078Z"/>
  </g>
  <g transform="matrix(1 0 0 1 305.646 1933)">
   <path d="M14.9707 5.66406Q17.0605 5.66406 18.96 5.01465Q20.8594 4.36523 22.4512 3.19336Q24.043 2.02148 25.2197 0.429688Q26.3965-1.16211 27.0459-3.06641Q27.6953-4.9707 27.6953-7.05078Q27.6953-9.14062 27.0459-11.04Q26.3965-12.9395 25.2197-14.5312Q24.043-16.123 22.4512-17.2998Q20.8594-18.4766 18.9551-19.126Q17.0508-19.7754 14.9609-19.7754Q12.8711-19.7754 10.9717-19.126Q9.07227-18.4766 7.48535-17.2998Q5.89844-16.123 4.72168-14.5312Q3.54492-12.9395 2.90039-11.04Q2.25586-9.14062 2.25586-7.05078Q2.25586-4.9707 2.90527-3.06641Q3.55469-1.16211 4.72656 0.429688Q5.89844 2.02148 7.49023 3.19336Q9.08203 4.36523 10.9814 5.01465Q12.8809 5.66406 14.9707 5.66406ZM14.9707 3.84766Q13.1641 3.84766 11.5283 3.2959Q9.89258 2.74414 8.53516 1.74805Q7.17773 0.751953 6.17676-0.610352Q5.17578-1.97266 4.62891-3.6084Q4.08203-5.24414 4.08203-7.05078Q4.08203-8.86719 4.62891-10.5029Q5.17578-12.1387 6.17188-13.501Q7.16797-14.8633 8.52539-15.8594Q9.88281-16.8555 11.5186-17.4023Q13.1543-17.9492 14.9609-17.9492Q16.7773-17.9492 18.4131-17.4023Q20.0488-16.8555 21.4111-15.8594Q22.7734-14.8633 23.7695-13.501Q24.7656-12.1387 25.3174-10.5029Q25.8691-8.86719 25.8691-7.05078Q25.8789-5.24414 25.332-3.6084Q24.7852-1.97266 23.7842-0.610352Q22.7832 0.751953 21.4209 1.74805Q20.0586 2.74414 18.4229 3.2959Q16.7871 3.84766 14.9707 3.84766ZM9.19922-7.05078Q9.19922-6.66992 9.45801-6.4209Q9.7168-6.17188 10.1172-6.17188L14.0625-6.17188L14.0625-2.2168Q14.0625-1.81641 14.3115-1.55762Q14.5605-1.29883 14.9512-1.29883Q15.3516-1.29883 15.6104-1.55273Q15.8691-1.80664 15.8691-2.2168L15.8691-6.17188L19.8242-6.17188Q20.2246-6.17188 20.4785-6.4209Q20.7324-6.66992 20.7324-7.05078Q20.7324-7.46094 20.4785-7.71484Q20.2246-7.96875 19.8242-7.96875L15.8691-7.96875L15.8691-11.9141Q15.8691-12.3242 15.6104-12.583Q15.3516-12.8418 14.9512-12.8418Q14.5605-12.8418 14.3115-12.583Q14.0625-12.3242 14.0625-11.9141L14.0625-7.96875L10.1172-7.96875Q9.70703-7.96875 9.45312-7.71484Q9.19922-7.46094 9.19922-7.05078Z"/>
  </g>
  <text style="stroke:none;fill:black;font-family:sans-serif;font-size:13;font-weight:bold;" transform="matrix(1 0 0 1 263 1953)">Design Variations</text>
  <text style="stroke:none;fill:black;font-family:sans-serif;font-size:13;" transform="matrix(1 0 0 1 263 1971)">Symbols are supported in up to nine weights and three scales.</text>
  <text style="stroke:none;fill:black;font-family:sans-serif;font-size:13;" transform="matrix(1 0 0 1 263 1989)">For optimal layout with text and other symbols, vertically align</text>
  <text style="stroke:none;fill:black;font-family:sans-serif;font-size:13;" transform="matrix(1 0 0 1 263 2007)">symbols with the adjacent text.</text>
  <line style="fill:none;stroke:#00AEEF;stroke-width:0.5;opacity:1.0;" x1="776" x2="776" y1="1919" y2="1933"/>
  <g transform="matrix(1 0 0 1 776 1933)">
   <path d="M3.31055 0.15625Q3.70117 0.15625 3.91602-0.00976562Q4.13086-0.175781 4.26758-0.585938L5.52734-4.0332L11.2891-4.0332L12.5488-0.585938Q12.6855-0.175781 12.9004-0.00976562Q13.1152 0.15625 13.4961 0.15625Q13.8867 0.15625 14.1162-0.0585938Q14.3457-0.273438 14.3457-0.644531Q14.3457-0.869141 14.2383-1.17188L9.6582-13.3691Q9.48242-13.8184 9.17969-14.043Q8.87695-14.2676 8.4082-14.2676Q7.5-14.2676 7.17773-13.3789L2.59766-1.16211Q2.49023-0.859375 2.49023-0.634766Q2.49023-0.263672 2.70996-0.0537109Q2.92969 0.15625 3.31055 0.15625ZM6.00586-5.51758L8.37891-12.0898L8.42773-12.0898L10.8008-5.51758Z"/>
  </g>
  <line style="fill:none;stroke:#00AEEF;stroke-width:0.5;opacity:1.0;" x1="793.197" x2="793.197" y1="1919" y2="1933"/>
  <text style="stroke:none;fill:black;font-family:sans-serif;font-size:13;font-weight:bold;" transform="matrix(1 0 0 1 776 1953)">Margins</text>
  <text style="stroke:none;fill:black;font-family:sans-serif;font-size:13;" transform="matrix(1 0 0 1 776 1971)">Leading and trailing margins on the left and right side of each symbol</text>
  <text style="stroke:none;fill:black;font-family:sans-serif;font-size:13;" transform="matrix(1 0 0 1 776 1989)">can be adjusted by modifying the x-location of the margin guidelines.</text>
  <text style="stroke:none;fill:black;font-family:sans-serif;font-size:13;" transform="matrix(1 0 0 1 776 2007)">Modifications are automatically applied proportionally to all</text>
  <text style="stroke:none;fill:black;font-family:sans-serif;font-size:13;" transform="matrix(1 0 0 1 776 2025)">scales and weights.</text>
  <g transform="matrix(1 0 0 1 1289 1933)">
   <path d="M2.8418 1.86523L4.54102 3.57422Q5.18555 4.22852 5.90332 4.17969Q6.62109 4.13086 7.31445 3.35938L18.0078-8.42773L17.041-9.4043L6.42578 2.27539Q6.16211 2.57812 5.89355 2.61719Q5.625 2.65625 5.27344 2.30469L4.10156 1.14258Q3.75 0.791016 3.79395 0.522461Q3.83789 0.253906 4.14062-0.0195312L15.6152-10.8203L14.6387-11.7871L3.04688-0.898438Q2.30469-0.214844 2.25098 0.498047Q2.19727 1.21094 2.8418 1.86523ZM9.25781-16.3281Q8.94531-16.0254 8.90625-15.6348Q8.86719-15.2441 9.04297-14.9512Q9.21875-14.6777 9.55566-14.541Q9.89258-14.4043 10.3809-14.5215Q11.4746-14.7754 12.5977-14.7314Q13.7207-14.6875 14.7949-13.9844L14.209-12.5293Q13.9551-11.9043 14.0674-11.4404Q14.1797-10.9766 14.5801-10.5664L16.875-8.25195Q17.2363-7.88086 17.5781-7.82227Q17.9199-7.76367 18.3398-7.8418L19.4043-8.03711L20.0684-7.36328L20.0293-6.80664Q20-6.43555 20.1221-6.12305Q20.2441-5.81055 20.6055-5.44922L21.3672-4.70703Q21.7285-4.3457 22.1533-4.33105Q22.5781-4.31641 22.9297-4.66797L25.8398-7.58789Q26.1914-7.93945 26.1816-8.35449Q26.1719-8.76953 25.8105-9.13086L25.0391-9.89258Q24.6875-10.2539 24.3799-10.3857Q24.0723-10.5176 23.7109-10.4883L23.1348-10.4395L22.4902-11.0742L22.7344-12.1973Q22.832-12.6172 22.6953-12.9834Q22.5586-13.3496 22.1191-13.7891L19.9219-15.9766Q18.6719-17.2168 17.2607-17.8369Q15.8496-18.457 14.4189-18.4814Q12.9883-18.5059 11.665-17.959Q10.3418-17.4121 9.25781-16.3281ZM10.752-15.957Q11.6602-16.6211 12.7002-16.9043Q13.7402-17.1875 14.8047-17.085Q15.8691-16.9824 16.8701-16.5137Q17.8711-16.0449 18.7012-15.2051L21.1328-12.793Q21.3086-12.6172 21.3525-12.4512Q21.3965-12.2852 21.3379-12.0312L21.0156-10.5469L22.5195-9.0625L23.5059-9.12109Q23.6914-9.13086 23.7891-9.09668Q23.8867-9.0625 24.0332-8.91602L24.6094-8.33984L22.168-5.89844L21.5918-6.47461Q21.4453-6.62109 21.4062-6.71875Q21.3672-6.81641 21.377-7.01172L21.4453-7.98828L19.9512-9.47266L18.4277-9.21875Q18.1836-9.16992 18.042-9.2041Q17.9004-9.23828 17.7148-9.41406L15.7129-11.416Q15.5176-11.5918 15.4932-11.7529Q15.4688-11.9141 15.5859-12.1875L16.4648-14.2773Q15.293-15.3711 13.8281-15.791Q12.3633-16.2109 10.8398-15.7617Q10.7227-15.7324 10.6885-15.8057Q10.6543-15.8789 10.752-15.957Z"/>
  </g>
  <text style="stroke:none;fill:black;font-family:sans-serif;font-size:13;font-weight:bold;" transform="matrix(1 0 0 1 1289 1953)">Exporting</text>
  <text style="stroke:none;fill:black;font-family:sans-serif;font-size:13;" transform="matrix(1 0 0 1 1289 1971)">Symbols should be outlined when exporting to ensure the</text>
  <text style="stroke:none;fill:black;font-family:sans-serif;font-size:13;" transform="matrix(1 0 0 1 1289 1989)">design is preserved when submitting to Xcode.</text>
  <text id="template-version" style="stroke:none;fill:black;font-family:sans-serif;font-size:13;text-anchor:end;" transform="matrix(1 0 0 1 3036 1933)">Template v.2.0</text>
  <text style="stroke:none;fill:black;font-family:sans-serif;font-size:13;text-anchor:end;" transform="matrix(1 0 0 1 3036 1951)">Requires Xcode 12 or greater</text>
  <text id="descriptive-name" style="stroke:none;fill:black;font-family:sans-serif;font-size:13;text-anchor:end;" transform="matrix(1 0 0 1 3036 1969)">Generated from number</text>
  <text style="stroke:none;fill:black;font-family:sans-serif;font-size:13;text-anchor:end;" transform="matrix(1 0 0 1 3036 1987)">Typeset at 100 points</text>
  <text style="stroke:none;fill:black;font-family:sans-serif;font-size:13;" transform="matrix(1 0 0 1 263 726)">Small</text>
  <text style="stroke:none;fill:black;font-family:sans-serif;font-size:13;" transform="matrix(1 0 0 1 263 1156)">Medium</text>
  <text style="stroke:none;fill:black;font-family:sans-serif;font-size:13;" transform="matrix(1 0 0 1 263 1586)">Large</text>
 </g>
 <g id="Guides">
  <g id="H-reference" style="fill:#27AAE1;stroke:none;" transform="matrix(1 0 0 1 339 696)">
   <path d="M0.993347 0L3.6377 0L29.3282-67.1326L30.0301-67.1326L30.0301-70.459L28.1227-70.459ZM11.6882-24.4797L46.9818-24.4797L46.2311-26.7288L12.4382-26.7288ZM55.1193 0L57.7637 0L30.6381-70.459L29.4327-70.459L29.4327-67.1326Z"/>
  </g>
  <line id="Baseline-S" style="fill:none;stroke:#27AAE1;opacity:1;stroke-width:0.5;" x1="263" x2="3036" y1="696" y2="696"/>
  <line id="Capline-S" style="fill:none;stroke:#27AAE1;opacity:1;stroke-width:0.5;" x1="263" x2="3036" y1="625.541" y2="625.541"/>
  <g id="H-reference" style="fill:#27AAE1;stroke:none;" transform="matrix(1 0 0 1 339 1126)">
   <path d="M0.993347 0L3.6377 0L29.3282-67.1326L30.0301-67.1326L30.0301-70.459L28.1227-70.459ZM11.6882-24.4797L46.9818-24.4797L46.2311-26.7288L12.4382-26.7288ZM55.1193 0L57.7637 0L30.6381-70.459L29.4327-70.459L29.4327-67.1326Z"/>
  </g>
  <line id="Baseline-M" style="fill:none;stroke:#27AAE1;opacity:1;stroke-width:0.5;" x1="263" x2="3036" y1="1126" y2="1126"/>
  <line id="Capline-M" style="fill:none;stroke:#27AAE1;opacity:1;stroke-width:0.5;" x1="263" x2="3036" y1="1055.54" y2="1055.54"/>
  <g id="H-reference" style="fill:#27AAE1;stroke:none;" transform="matrix(1 0 0 1 339 1556)">
   <path d="M0.993347 0L3.6377 0L29.3282-67.1326L30.0301-67.1326L30.0301-70.459L28.1227-70.459ZM11.6882-24.4797L46.9818-24.4797L46.2311-26.7288L12.4382-26.7288ZM55.1193 0L57.7637 0L30.6381-70.459L29.4327-70.459L29.4327-67.1326Z"/>
  </g>
  <line id="Baseline-L" style="fill:none;stroke:#27AAE1;opacity:1;stroke-width:0.5;" x1="263" x2="3036" y1="1556" y2="1556"/>
  <line id="Capline-L" style="fill:none;stroke:#27AAE1;opacity:1;stroke-width:0.5;" x1="263" x2="3036" y1="1485.54" y2="1485.54"/>
  <line id="left-margin" style="fill:none;stroke:#00AEEF;stroke-width:0.5;opacity:1.0;" x1="1393.62" x2="1393.62" y1="1030.79" y2="1150.12"/>
  <line id="right-margin" style="fill:none;stroke:#00AEEF;stroke-width:0.5;opacity:1.0;" x1="1506.07" x2="1506.07" y1="1030.79" y2="1150.12"/>
 </g>
 <g id="Symbols">
  <g id="Black-L" transform="matrix(1 0 0 1 2859.62 1556)">
   <path d="M41.2145 27.0855Q51.1597 27.0855 53.1289 16.9095L73.3333-85.2991Q73.4721-86.0284 73.5811-87.0947Q73.6901-88.1609 73.6901-88.9943Q73.6901-93.1172 71.134-95.5427Q68.5778-97.9682 63.9292-97.9682Q58.9233-97.9682 55.9811-95.4355Q53.0389-92.9027 52.0355-87.7285L31.852 14.4384Q31.4952 16.1628 31.4952 18.1324Q31.4952 22.1981 34.0591 24.6418Q36.6231 27.0855 41.2145 27.0855ZM82.5455 27.0855Q92.5504 27.0855 94.5404 16.9095L114.666-85.2991Q114.803-86.0284 114.913-87.0947Q115.022-88.1609 115.022-88.9943Q115.022-93.1172 112.466-95.5427Q109.91-97.9682 105.32-97.9682Q100.254-97.9682 97.3518-95.4063Q94.4492-92.8443 93.4471-87.7285L73.2415 14.4384Q72.8846 16.1628 72.8846 18.1324Q72.8846 22.1981 75.42 24.6418Q77.9554 27.0855 82.5455 27.0855ZM34.0253-46.1767L119.125-46.1767Q124.929-46.1767 128.199-49.4086Q131.468-52.6405 131.468-57.8979Q131.468-62.0948 128.799-64.5724Q126.13-67.0499 121.347-67.0499L36.3066-67.0499Q30.5222-67.0499 27.2235-63.8758Q23.9248-60.7018 23.9248-55.4038Q23.9248-51.2057 26.6236-48.6912Q29.3223-46.1767 34.0253-46.1767ZM26.1844-5.80054L111.169-5.80054Q116.973-5.80054 120.272-8.91563Q123.572-12.0307 123.572-17.2882Q123.572-21.4851 120.873-23.9918Q118.174-26.4986 113.45-26.4986L28.4281-26.4986Q22.6814-26.4986 19.3827-23.3537Q16.084-20.2088 16.084-14.9109Q16.084-10.7128 18.7827-8.25668Q21.4815-5.80054 26.1844-5.80054Z"/>
  </g>
  <g id="Heavy-L" transform="matrix(1 0 0 1 2563.22 1556)">
   <path d="M40.7126 26.9257Q49.3856 26.9257 51.0945 18.1145L71.8813-86.395Q72.0063-87.0235 72.1062-87.9639Q72.2061-88.9044 72.2061-89.6838Q72.2061-93.3329 69.9227-95.4689Q67.6392-97.6049 63.5885-97.6049Q59.1838-97.6049 56.6411-95.3774Q54.0984-93.1499 53.2368-88.6975L32.4802 15.7517Q32.1554 17.2969 32.1554 19.0348Q32.1554 22.6449 34.4281 24.7853Q36.7009 26.9257 40.7126 26.9257ZM81.9316 26.9257Q90.6549 26.9257 92.394 18.1145L113.106-86.395Q113.225-87.0235 113.328-87.9639Q113.431-88.9044 113.431-89.6838Q113.431-93.3329 111.147-95.4689Q108.864-97.6049 104.858-97.6049Q100.403-97.6049 97.8975-95.3551Q95.3923-93.1053 94.5363-88.6975L73.7439 15.7517Q73.419 17.2969 73.419 19.0348Q73.419 22.6449 75.6722 24.7853Q77.9255 26.9257 81.9316 26.9257ZM32.8396-47.9132L120.143-47.9132Q125.148-47.9132 128.005-50.7557Q130.862-53.5982 130.862-58.1713Q130.862-61.8438 128.535-64.0552Q126.208-66.2666 122.078-66.2666L34.8252-66.2666Q29.845-66.2666 26.9657-63.4659Q24.0864-60.6652 24.0864-56.0374Q24.0864-52.3593 26.4382-50.1363Q28.7901-47.9132 32.8396-47.9132ZM24.8372-6.62737L112.057-6.62737Q117.062-6.62737 119.944-9.38062Q122.826-12.1339 122.826-16.707Q122.826-20.3794 120.474-22.6132Q118.122-24.8469 114.043-24.8469L26.8084-24.8469Q21.8426-24.8469 18.9633-22.0685Q16.084-19.2901 16.084-14.6623Q16.084-10.9842 18.4358-8.80577Q20.7877-6.62737 24.8372-6.62737Z"/>
  </g>
  <g id="Bold-L" transform="matrix(1 0 0 1 2266.88 1556)">
   <path d="M40.0978 26.8005Q47.203 26.8005 48.5966 19.65L70.1206-87.7922Q70.2302-88.3052 70.3185-89.0956Q70.4069-89.8861 70.4069-90.5889Q70.4069-93.6465 68.4727-95.4251Q66.5385-97.2038 63.218-97.2038Q59.5662-97.2038 57.5079-95.3566Q55.4496-93.5094 54.7571-89.9261L33.2712 17.4403Q32.9849 18.785 32.9849 20.2237Q32.9849 23.2652 34.889 25.0328Q36.7932 26.8005 40.0978 26.8005ZM81.1485 26.8005Q88.2963 26.8005 89.728 19.65L111.185-87.7922Q111.281-88.3052 111.376-89.0956Q111.471-89.8861 111.471-90.5889Q111.471-93.6465 109.537-95.4251Q107.603-97.2038 104.311-97.2038Q100.617-97.2038 98.5923-95.342Q96.5677-93.4802 95.8886-89.9261L74.3514 17.4403Q74.0649 18.785 74.0649 20.2237Q74.0649 23.2652 75.9611 25.0328Q77.8573 26.8005 81.1485 26.8005ZM31.3793-49.9977L121.388-49.9977Q125.424-49.9977 127.77-52.3524Q130.116-54.7071 130.116-58.4423Q130.116-61.4693 128.208-63.3428Q126.301-65.2164 122.955-65.2164L32.9888-65.2164Q28.9776-65.2164 26.617-62.8842Q24.2564-60.5521 24.2564-56.7542Q24.2564-53.7139 26.1854-51.8558Q28.1144-49.9977 31.3793-49.9977ZM23.207-7.69417L113.171-7.69417Q117.207-7.69417 119.574-9.99045Q121.941-12.2867 121.941-16.022Q121.941-19.0489 120.012-20.9371Q118.083-22.8252 114.78-22.8252L24.8253-22.8252Q20.8052-22.8252 18.4446-20.5077Q16.084-18.1901 16.084-14.3922Q16.084-11.352 18.013-9.52307Q19.942-7.69417 23.207-7.69417Z"/>
  </g>
  <g id="Semibold-L" transform="matrix(1 0 0 1 1970.42 1556)">
   <path d="M39.6739 26.7141Q45.6983 26.7141 46.8745 20.7085L68.9067-88.7554Q69.0057-89.1888 69.0861-89.8758Q69.1665-90.5628 69.1665-91.2129Q69.1665-93.8627 67.4731-95.395Q65.7797-96.9273 62.9627-96.9273Q59.8298-96.9273 58.1054-95.3422Q56.381-93.7572 55.8053-90.773L33.8166 18.6044Q33.5568 19.8109 33.5568 21.0432Q33.5568 23.6928 35.2068 25.2035Q36.8568 26.7141 39.6739 26.7141ZM80.6087 26.7141Q86.6703 26.7141 87.89 20.7085L109.86-88.7554Q109.941-89.1888 110.03-89.8758Q110.12-90.5628 110.12-91.2129Q110.12-93.8627 108.427-95.395Q106.733-96.9273 103.935-96.9273Q100.765-96.9273 99.0713-95.3329Q97.378-93.7386 96.8208-90.773L74.7703 18.6044Q74.5102 19.8109 74.5102 21.0432Q74.5102 23.6928 76.1602 25.2035Q77.8103 26.7141 80.6087 26.7141ZM30.3727-51.4347L122.247-51.4347Q125.615-51.4347 127.608-53.4531Q129.602-55.4715 129.602-58.6292Q129.602-61.2111 127.983-62.8517Q126.364-64.4923 123.56-64.4923L31.7228-64.4923Q28.3796-64.4923 26.3766-62.4832Q24.3736-60.4741 24.3736-57.2483Q24.3736-54.6478 26.011-53.0413Q27.6485-51.4347 30.3727-51.4347ZM22.0831-8.42962L113.938-8.42962Q117.307-8.42962 119.319-10.4109Q121.331-12.3921 121.331-15.5498Q121.331-18.1317 119.694-19.7816Q118.056-21.4315 115.289-21.4315L23.4581-21.4315Q20.0901-21.4315 18.087-19.4317Q16.084-17.4318 16.084-14.2061Q16.084-11.6055 17.7215-10.0176Q19.3589-8.42962 22.0831-8.42962Z"/>
  </g>
  <g id="Medium-L" transform="matrix(1 0 0 1 1673.91 1556)">
   <path d="M39.3525 26.6486Q44.5574 26.6486 45.5687 21.5111L67.9863-89.4858Q68.0773-89.8588 68.1516-90.4674Q68.226-91.0759 68.226-91.686Q68.226-94.0266 66.7151-95.3721Q65.2043-96.7176 62.769-96.7176Q60.0297-96.7176 58.5585-95.3314Q57.0873-93.9451 56.6-91.4152L34.2301 19.4871Q33.9904 20.5888 33.9904 21.6647Q33.9904 24.017 35.4478 25.3328Q36.9051 26.6486 39.3525 26.6486ZM80.1993 26.6486Q85.4374 26.6486 86.4964 21.5111L108.856-89.4858Q108.924-89.8588 109.01-90.4674Q109.095-91.0759 109.095-91.686Q109.095-94.0266 107.585-95.3721Q106.074-96.7176 103.649-96.7176Q100.877-96.7176 99.4344-95.3261Q97.9924-93.9346 97.5277-91.4152L75.0878 19.4871Q74.8478 20.5888 74.8478 21.6647Q74.8478 24.017 76.3112 25.3328Q77.7746 26.6486 80.1993 26.6486ZM29.6094-52.5243L122.898-52.5243Q125.759-52.5243 127.486-54.2878Q129.213-56.0512 129.213-58.7708Q129.213-61.0153 127.813-62.4793Q126.412-63.9434 124.018-63.9434L30.7628-63.9434Q27.9263-63.9434 26.1943-62.1791Q24.4624-60.4149 24.4624-57.623Q24.4624-55.3559 25.8789-53.9401Q27.2953-52.5243 29.6094-52.5243ZM21.231-8.98726L114.52-8.98726Q117.382-8.98726 119.125-10.7296Q120.869-12.472 120.869-15.1917Q120.869-17.4362 119.452-18.9055Q118.036-20.3747 115.674-20.3747L22.4215-20.3747Q19.5478-20.3747 17.8159-18.6158Q16.084-16.8568 16.084-14.0649Q16.084-11.7978 17.5004-10.3925Q18.9168-8.98726 21.231-8.98726Z"/>
  </g>
  <g id="Regular-L" transform="matrix(1 0 0 1 1377.45 1556)">
   <path d="M38.9332 26.5632Q43.0692 26.5632 43.8656 22.5579L66.7858-90.4384Q66.8663-90.7327 66.9327-91.239Q66.9992-91.7452 66.9992-92.3031Q66.9992-94.2404 65.7265-95.3423Q64.4538-96.4441 62.5164-96.4441Q60.2904-96.4441 59.1495-95.3172Q58.0086-94.1902 57.6366-92.2529L34.7694 20.6384Q34.556 21.6035 34.556 22.4752Q34.556 24.44 35.762 25.5016Q36.968 26.5632 38.9332 26.5632ZM79.6654 26.5632Q83.8292 26.5632 84.6786 22.5579L107.546-90.4384Q107.598-90.7327 107.679-91.239Q107.759-91.7452 107.759-92.3031Q107.759-94.2404 106.487-95.3423Q105.214-96.4441 103.277-96.4441Q101.023-96.4441 99.9081-95.3172Q98.7937-94.1902 98.4497-92.2529L75.502 20.6384Q75.2882 21.6035 75.2882 22.4752Q75.2882 24.44 76.5081 25.5016Q77.7281 26.5632 79.6654 26.5632ZM28.6138-53.9456L123.747-53.9456Q125.948-53.9456 127.326-55.3764Q128.704-56.8072 128.704-58.9556Q128.704-60.76 127.59-61.9936Q126.475-63.2273 124.616-63.2273L29.5107-63.2273Q27.3349-63.2273 25.9566-61.7825Q24.5783-60.3378 24.5783-58.1117Q24.5783-56.2795 25.7064-55.1125Q26.8346-53.9456 28.6138-53.9456ZM20.1194-9.71463L115.28-9.71463Q117.481-9.71463 118.873-11.1454Q120.265-12.5763 120.265-14.7247Q120.265-16.529 119.137-17.7627Q118.009-18.9963 116.177-18.9963L21.0693-18.9963Q18.8405-18.9963 17.4623-17.5516Q16.084-16.1068 16.084-13.8808Q16.084-12.0485 17.2121-10.8816Q18.3402-9.71463 20.1194-9.71463Z"/>
  </g>
  <g id="Light-L" transform="matrix(1 0 0 1 1080.98 1556)">
   <path d="M38.5516 26.9448Q41.657 26.9448 42.2815 23.8938L65.8126-91.6598Q65.8931-91.9352 65.9499-92.3746Q66.0068-92.814 66.0068-93.2574Q66.0068-94.7557 65.0489-95.619Q64.0911-96.4823 62.5928-96.4823Q60.9394-96.4823 60.0656-95.632Q59.1918-94.7818 58.8962-93.2835L35.3992 22.2035Q35.205 23.1686 35.205 23.754Q35.205 25.2987 36.1056 26.1217Q37.0062 26.9448 38.5516 26.9448ZM78.9782 26.9448Q82.1307 26.9448 82.7893 23.8938L106.286-91.6598Q106.32-91.9352 106.4-92.3746Q106.48-92.814 106.48-93.2574Q106.48-94.7557 105.523-95.619Q104.565-96.4823 103.066-96.4823Q101.366-96.4823 100.509-95.632Q99.6525-94.7818 99.404-93.2835L75.8265 22.2035Q75.6316 23.1686 75.6316 23.754Q75.6316 25.2987 76.5558 26.1217Q77.4799 26.9448 78.9782 26.9448ZM27.6595-54.9573L124.51-54.9573Q126.177-54.9573 127.202-56.0158Q128.227-57.0743 128.227-58.7074Q128.227-60.092 127.37-61.0393Q126.514-61.9867 125.036-61.9867L28.2319-61.9867Q26.5525-61.9867 25.5272-60.9046Q24.502-59.8225 24.502-58.1691Q24.502-56.7374 25.3819-55.8473Q26.2619-54.9573 27.6595-54.9573ZM19.2415-10.7263L116.139-10.7263Q117.806-10.7263 118.854-11.7848Q119.903-12.8434 119.903-14.4765Q119.903-15.8611 119.023-16.8084Q118.143-17.7557 116.712-17.7557L19.848-17.7557Q18.1344-17.7557 17.1092-16.6736Q16.084-15.5915 16.084-13.9382Q16.084-12.5064 16.9639-11.6164Q17.8438-10.7263 19.2415-10.7263Z"/>
  </g>
  <g id="Thin-L" transform="matrix(1 0 0 1 784.582 1556)">
   <path d="M38.047 27.4495Q39.7893 27.4495 40.1865 25.6606L64.5255-93.2752Q64.6059-93.5255 64.6501-93.8765Q64.6942-94.2275 64.6942-94.5195Q64.6942-95.4373 64.1528-95.985Q63.6114-96.5328 62.6937-96.5328Q61.7978-96.5328 61.2772-96.0485Q60.7567-95.5643 60.562-94.6465L36.2321 24.2735Q36.0634 25.2386 36.0634 25.4453Q36.0634 26.4344 36.56 26.9419Q37.0567 27.4495 38.047 27.4495ZM78.0694 27.4495Q79.8843 27.4495 80.2906 25.6606L104.621-93.2752Q104.628-93.5255 104.709-93.8765Q104.789-94.2275 104.789-94.5195Q104.789-95.4373 104.248-95.985Q103.706-96.5328 102.789-96.5328Q101.82-96.5328 101.304-96.0485Q100.788-95.5643 100.666-94.6465L76.2557 24.2735Q76.0858 25.2386 76.0858 25.4453Q76.0858 26.4344 76.6187 26.9419Q77.1517 27.4495 78.0694 27.4495ZM26.3974-56.2953L125.52-56.2953Q126.479-56.2953 127.038-56.8614Q127.596-57.4276 127.596-58.3792Q127.596-59.2086 127.08-59.7772Q126.564-60.3458 125.591-60.3458L26.5406-60.3458Q25.5177-60.3458 24.9594-59.7434Q24.4011-59.141 24.4011-58.245Q24.4011-57.343 24.9528-56.8191Q25.5044-56.2953 26.3974-56.2953ZM18.0803-12.0643L117.274-12.0643Q118.235-12.0643 118.829-12.6305Q119.423-13.1966 119.423-14.1482Q119.423-14.9777 118.871-15.5463Q118.32-16.1149 117.419-16.1149L18.2326-16.1149Q17.2006-16.1149 16.6423-15.5125Q16.084-14.91 16.084-14.0141Q16.084-13.112 16.6357-12.5882Q17.1873-12.0643 18.0803-12.0643Z"/>
  </g>
  <g id="Ultralight-L" transform="matrix(1 0 0 1 488.033 1556)">
   <path d="M37.7885 27.708Q38.8327 27.708 39.1135 26.5655L63.8663-94.1026Q63.9467-94.3401 63.9843-94.6458Q64.0219-94.9515 64.0219-95.1659Q64.0219-95.7863 63.6939-96.1725Q63.3658-96.5586 62.7454-96.5586Q62.2374-96.5586 61.8978-96.2618Q61.5582-95.965 61.4152-95.3446L36.6587 25.3338Q36.503 26.2988 36.503 26.3116Q36.503 27.0161 36.7928 27.362Q37.0825 27.708 37.7885 27.708ZM77.6039 27.708Q78.7337 27.708 79.0107 26.5655L103.767-94.1026Q103.762-94.3401 103.843-94.6458Q103.923-94.9515 103.923-95.1659Q103.923-95.7863 103.595-96.1725Q103.267-96.5586 102.646-96.5586Q102.053-96.5586 101.711-96.2618Q101.37-95.965 101.313-95.3446L76.4755 25.3338Q76.3185 26.2988 76.3185 26.3116Q76.3185 27.0161 76.651 27.362Q76.9835 27.708 77.6039 27.708ZM25.751-56.9806L126.037-56.9806Q126.635-56.9806 126.954-57.2946Q127.273-57.6085 127.273-58.211Q127.273-58.7562 126.931-59.1308Q126.59-59.5054 125.875-59.5054L25.6744-59.5054Q24.9877-59.5054 24.6685-59.1487Q24.3494-58.7919 24.3494-58.2839Q24.3494-57.6532 24.7329-57.3169Q25.1165-56.9806 25.751-56.9806ZM17.4856-12.7496L117.856-12.7496Q118.455-12.7496 118.816-13.0636Q119.177-13.3776 119.177-13.9801Q119.177-14.5252 118.794-14.8998Q118.41-15.2745 117.781-15.2745L17.4052-15.2745Q16.7223-15.2745 16.4031-14.9177Q16.084-14.5609 16.084-14.053Q16.084-13.4222 16.4675-13.0859Q16.8511-12.7496 17.4856-12.7496Z"/>
  </g>
  <g id="Black-M" transform="matrix(1 0 0 1 2876.01 1126)">
   <path d="M32.3102 13.2376Q40.969 13.2376 42.695 4.31004L57.9304-73.2442Q58.0498-73.8933 58.1408-74.8184Q58.2318-75.7434 58.2318-76.4201Q58.2318-79.9619 56.0597-82.0576Q53.8875-84.1532 49.8318-84.1532Q45.5145-84.1532 42.9279-81.9662Q40.3412-79.7791 39.4524-75.2095L24.2226 2.33372Q23.9212 3.82363 23.9212 5.50991Q23.9212 8.99439 26.1165 11.116Q28.3118 13.2376 32.3102 13.2376ZM64.386 13.2376Q73.1016 13.2376 74.8332 4.31004L90.0059-73.2442Q90.1256-73.8933 90.2165-74.8184Q90.3073-75.7434 90.3073-76.4201Q90.3073-79.9619 88.1352-82.0576Q85.9631-84.1532 81.9644-84.1532Q77.5903-84.1532 75.035-81.9376Q72.4796-79.722 71.5905-75.2095L56.3555 2.33372Q56.0541 3.82363 56.0541 5.50991Q56.0541 8.99439 58.2207 11.116Q60.3873 13.2376 64.386 13.2376ZM27.2505-42.3553L91.5204-42.3553Q96.6314-42.3553 99.4711-45.1434Q102.311-47.9316 102.311-52.5231Q102.311-56.1685 99.9839-58.2779Q97.6569-60.3872 93.4412-60.3872L29.2281-60.3872Q24.1229-60.3872 21.2547-57.6564Q18.3864-54.9255 18.3864-50.3227Q18.3864-46.6776 20.7418-44.5165Q23.0971-42.3553 27.2505-42.3553ZM21.3251-11.8561L85.4805-11.8561Q90.5914-11.8561 93.4595-14.53Q96.3276-17.2039 96.3276-21.7955Q96.3276-25.4409 93.9723-27.5788Q91.617-29.7167 87.458-29.7167L23.251-29.7167Q18.1975-29.7167 15.3292-27.0144Q12.4609-24.3121 12.4609-19.7093Q12.4609-16.0642 14.8163-13.9602Q17.1716-11.8561 21.3251-11.8561Z"/>
  </g>
  <g id="Heavy-M" transform="matrix(1 0 0 1 2579.58 1126)">
   <path d="M31.8548 13.0462Q39.365 13.0462 40.8524 5.36486L56.6008-74.2028Q56.7067-74.7551 56.7897-75.5634Q56.8726-76.3717 56.8726-77.006Q56.8726-80.1253 54.9381-81.9599Q53.0035-83.7945 49.4917-83.7945Q45.7092-83.7945 43.4885-81.8803Q41.2678-79.9661 40.5105-76.0617L24.7785 3.47316Q24.5067 4.78789 24.5067 6.27411Q24.5067 9.35198 26.4455 11.1991Q28.3843 13.0462 31.8548 13.0462ZM63.8492 13.0462Q71.4053 13.0462 72.9092 5.36486L88.5975-74.2028Q88.7011-74.7551 88.7853-75.5634Q88.8694-76.3717 88.8694-77.006Q88.8694-80.1253 86.9348-81.9599Q85.0003-83.7945 81.5321-83.7945Q77.7037-83.7945 75.513-81.8585Q73.3223-79.9225 72.5673-76.0617L56.8167 3.47316Q56.5448 4.78789 56.5448 6.27411Q56.5448 9.35198 58.4629 11.1991Q60.381 13.0462 63.8492 13.0462ZM26.1795-43.9596L92.4447-43.9596Q96.8237-43.9596 99.2928-46.4014Q101.762-48.8432 101.762-52.8133Q101.762-55.9847 99.7456-57.8603Q97.7294-59.736 94.1172-59.736L27.8979-59.736Q23.533-59.736 21.0422-57.3366Q18.5514-54.9373 18.5514-50.9367Q18.5514-47.763 20.5905-45.8613Q22.6296-43.9596 26.1795-43.9596ZM20.089-12.5711L86.2693-12.5711Q90.6484-12.5711 93.1403-14.9256Q95.6323-17.2802 95.6323-21.2502Q95.6323-24.4216 93.5931-26.3191Q91.554-28.2165 87.9878-28.2165L21.7803-28.2165Q17.4426-28.2165 14.9518-25.839Q12.4609-23.4615 12.4609-19.4609Q12.4609-16.2872 14.5001-14.4292Q16.5392-12.5711 20.089-12.5711Z"/>
  </g>
  <g id="Bold-M" transform="matrix(1 0 0 1 2283.17 1126)">
   <path d="M31.3454 12.832Q37.5706 12.832 38.7911 6.54483L55.1134-75.2752Q55.2042-75.7191 55.2782-76.3968Q55.3522-77.0745 55.3522-77.6616Q55.3522-80.308 53.6834-81.8506Q52.0146-83.3933 49.1112-83.3933Q45.9271-83.3933 44.1157-81.7843Q42.3043-80.1754 41.6941-77.0151L25.4005 4.74778Q25.1617 5.86656 25.1617 7.12899Q25.1617 9.75199 26.8135 11.292Q28.4654 12.832 31.3454 12.832ZM63.2488 12.832Q69.5078 12.832 70.7569 6.54483L87.022-75.2752Q87.1077-75.7191 87.1842-76.3968Q87.2608-77.0745 87.2608-77.6616Q87.2608-80.308 85.592-81.8506Q83.9232-83.3933 81.0484-83.3933Q77.8305-83.3933 76.0477-81.7701Q74.265-80.1468 73.6599-77.0151L57.3326 4.74778Q57.0937 5.86656 57.0937 7.12899Q57.0937 9.75199 58.7338 11.292Q60.374 12.832 63.2488 12.832ZM24.9813-45.7542L93.4786-45.7542Q97.0389-45.7542 99.0933-47.8086Q101.148-49.863 101.148-53.1378Q101.148-55.7791 99.4791-57.3932Q97.8105-59.0074 94.8735-59.0074L26.41-59.0074Q22.8731-59.0074 20.8045-56.979Q18.7359-54.9505 18.7359-51.6236Q18.7359-48.9772 20.4213-47.3657Q22.1067-45.7542 24.9813-45.7542ZM18.7064-13.3708L87.1516-13.3708Q90.7121-13.3708 92.7832-15.3681Q94.8544-17.3654 94.8544-20.6402Q94.8544-23.2815 93.169-24.9099Q91.4836-26.5383 88.5804-26.5383L20.1352-26.5383Q16.5982-26.5383 14.5296-24.5242Q12.4609-22.5101 12.4609-19.1831Q12.4609-16.5367 14.1463-14.9538Q15.8317-13.3708 18.7064-13.3708Z"/>
  </g>
  <g id="Semibold-M" transform="matrix(1 0 0 1 1986.67 1126)">
   <path d="M30.9942 12.6844Q36.3336 12.6844 37.3701 7.35829L54.088-76.0145Q54.1684-76.3837 54.2362-76.9714Q54.304-77.559 54.304-78.1135Q54.304-80.434 52.8185-81.7753Q51.3329-83.1166 48.8489-83.1166Q46.0772-83.1166 44.5481-81.7181Q43.0189-80.3196 42.5101-77.6723L25.8293 5.6265Q25.6132 6.61019 25.6132 7.71833Q25.6132 10.0278 27.0672 11.3561Q28.5213 12.6844 30.9942 12.6844ZM62.8349 12.6844Q68.1996 12.6844 69.2732 7.35829L85.9358-76.0145Q86.0091-76.3837 86.0805-76.9714Q86.1519-77.559 86.1519-78.1135Q86.1519-80.434 84.6663-81.7753Q83.1807-83.1166 80.7149-83.1166Q77.9179-83.1166 76.4164-81.7091Q74.9148-80.3015 74.4132-77.6723L57.6882 5.6265Q57.4721 6.61019 57.4721 7.71833Q57.4721 10.0278 58.9206 11.3561Q60.3691 12.6844 62.8349 12.6844ZM24.1553-46.9914L94.1914-46.9914Q97.1873-46.9914 98.9558-48.7787Q100.724-50.566 100.724-53.3616Q100.724-55.6373 99.2953-57.0712Q97.8664-58.5051 95.3949-58.5051L25.3842-58.5051Q22.4182-58.5051 20.6406-56.7324Q18.8631-54.9597 18.8631-52.0972Q18.8631-49.8143 20.3046-48.4029Q21.7461-46.9914 24.1553-46.9914ZM17.7532-13.9222L87.7599-13.9222Q90.756-13.9222 92.5371-15.6732Q94.3181-17.4242 94.3181-20.2197Q94.3181-22.4954 92.8766-23.9384Q91.4351-25.3814 88.9889-25.3814L19.001-25.3814Q16.016-25.3814 14.2385-23.6178Q12.4609-21.8541 12.4609-18.9916Q12.4609-16.7088 13.9025-15.3155Q15.344-13.9222 17.7532-13.9222Z"/>
  </g>
  <g id="Medium-M" transform="matrix(1 0 0 1 1690.12 1126)">
   <path d="M30.728 12.5725Q35.3956 12.5725 36.2926 7.9751L53.3105-76.575Q53.3831-76.8876 53.4462-77.407Q53.5093-77.9264 53.5093-78.4561Q53.5093-80.5295 52.1626-81.7182Q50.8159-82.9069 48.65-82.9069Q46.1911-82.9069 44.8759-81.668Q43.5607-80.429 43.1288-78.1706L26.1544 6.29278Q25.9556 7.17404 25.9556 8.1652Q25.9556 10.2369 27.2596 11.4047Q28.5637 12.5725 30.728 12.5725ZM62.5211 12.5725Q67.2077 12.5725 68.1482 7.9751L85.1123-76.575Q85.1762-76.8876 85.2436-77.407Q85.3111-77.9264 85.3111-78.4561Q85.3111-80.5295 83.9644-81.7182Q82.6177-82.9069 80.4621-82.9069Q77.9842-82.9069 76.6959-81.6628Q75.4076-80.4187 74.9843-78.1706L57.9579 6.29278Q57.759 7.17404 57.759 8.1652Q57.759 10.2369 59.0622 11.4047Q60.3654 12.5725 62.5211 12.5725ZM23.529-47.9295L94.7318-47.9295Q97.2998-47.9295 98.8515-49.5143Q100.403-51.0991 100.403-53.5312Q100.403-55.5298 99.156-56.827Q97.9088-58.1243 95.7902-58.1243L24.6064-58.1243Q22.0733-58.1243 20.5164-56.5454Q18.9595-54.9666 18.9595-52.4563Q18.9595-50.449 20.2162-49.1893Q21.4728-47.9295 23.529-47.9295ZM17.0304-14.3403L88.2212-14.3403Q90.7893-14.3403 92.3504-15.9045Q93.9115-17.4687 93.9115-19.9009Q93.9115-21.8994 92.6549-23.2018Q91.3983-24.5042 89.2987-24.5042L18.141-24.5042Q15.5746-24.5042 14.0178-22.9305Q12.4609-21.3567 12.4609-18.8464Q12.4609-16.8392 13.7176-15.5897Q14.9742-14.3403 17.0304-14.3403Z"/>
  </g>
  <g id="Regular-M" transform="matrix(1 0 0 1 1393.62 1126)">
   <path d="M30.3807 12.4265Q34.1722 12.4265 34.8872 8.77962L52.2964-77.3062Q52.3587-77.5449 52.4157-77.9753Q52.4726-78.4056 52.4726-78.903Q52.4726-80.6541 51.3072-81.6437Q50.1417-82.6333 48.3906-82.6333Q46.3397-82.6333 45.3035-81.6025Q44.2674-80.5717 43.9358-78.8206L26.5784 7.16184Q26.4022 7.90949 26.4022 8.74807Q26.4022 10.5096 27.5106 11.468Q28.6189 12.4265 30.3807 12.4265ZM62.1117 12.4265Q65.9139 12.4265 66.6807 8.77962L84.0381-77.3062Q84.0897-77.5449 84.152-77.9753Q84.2143-78.4056 84.2143-78.903Q84.2143-80.6541 83.0489-81.6437Q81.8834-82.6333 80.1323-82.6333Q78.0707-82.6333 77.0605-81.6025Q76.0503-80.5717 75.7293-78.8206L58.3097 7.16184Q58.1332 7.90949 58.1332 8.74807Q58.1332 10.5096 59.2469 11.468Q60.3606 12.4265 62.1117 12.4265ZM22.7121-49.1531L95.4367-49.1531Q97.4465-49.1531 98.7155-50.4738Q99.9845-51.7944 99.9845-53.7525Q99.9845-55.3896 98.9743-56.5086Q97.9641-57.6275 96.3059-57.6275L23.5919-57.6275Q21.6233-57.6275 20.3543-56.3015Q19.0853-54.9756 19.0853-52.9246Q19.0853-51.2769 20.1008-50.215Q21.1162-49.1531 22.7121-49.1531ZM16.0877-14.8856L88.8228-14.8856Q90.8327-14.8856 92.1069-16.2062Q93.3811-17.5269 93.3811-19.485Q93.3811-21.1221 92.3657-22.241Q91.3503-23.3599 89.7027-23.3599L17.0193-23.3599Q14.9989-23.3599 13.7299-22.034Q12.4609-20.708 12.4609-18.657Q12.4609-17.0093 13.4764-15.9474Q14.4918-14.8856 16.0877-14.8856Z"/>
  </g>
  <g id="Light-M" transform="matrix(1 0 0 1 1097.12 1126)">
   <path d="M30.0385 12.7686Q32.9062 12.7686 33.467 9.97728L51.4238-78.4012Q51.4861-78.623 51.5345-78.9934Q51.5829-79.3638 51.5829-79.7586Q51.5829-81.1161 50.6997-81.8918Q49.8166-82.6675 48.459-82.6675Q46.9215-82.6675 46.1249-81.8848Q45.3282-81.1021 45.065-79.7446L27.1431 8.56505Q26.984 9.31271 26.984 9.89455Q26.984 11.2795 27.8186 12.024Q28.6532 12.7686 30.0385 12.7686ZM61.4956 12.7686Q64.3911 12.7686 64.9869 9.97728L82.9088-78.4012Q82.9432-78.623 83.0055-78.9934Q83.0678-79.3638 83.0678-79.7586Q83.0678-81.1161 82.1847-81.8918Q81.3015-82.6675 79.944-82.6675Q78.3786-82.6675 77.5994-81.8848Q76.8202-81.1021 76.5849-79.7446L58.6006 8.56505Q58.4411 9.31271 58.4411 9.89455Q58.4411 11.2795 59.2896 12.024Q60.1381 12.7686 61.4956 12.7686ZM21.8565-50.0601L96.1212-50.0601Q97.6518-50.0601 98.6042-51.047Q99.5567-52.0339 99.5567-53.53Q99.5567-54.7908 98.7775-55.653Q97.9983-56.5152 96.6822-56.5152L22.4454-56.5152Q20.9219-56.5152 19.9694-55.5144Q19.0169-54.5136 19.0169-52.9761Q19.0169-51.6874 19.8098-50.8738Q20.6028-50.0601 21.8565-50.0601ZM15.3005-15.7926L89.5927-15.7926Q91.1237-15.7926 92.0898-16.7795Q93.056-17.7663 93.056-19.2624Q93.056-20.5232 92.2631-21.3854Q91.4702-22.2477 90.182-22.2477L15.9243-22.2477Q14.3659-22.2477 13.4134-21.2468Q12.4609-20.246 12.4609-18.7085Q12.4609-17.4198 13.2539-16.6062Q14.0468-15.7926 15.3005-15.7926Z"/>
  </g>
  <g id="Thin-M" transform="matrix(1 0 0 1 800.696 1126)">
   <path d="M29.5861 13.221Q31.2317 13.221 31.5887 11.5613L50.2699-79.8495Q50.3322-80.0488 50.3691-80.3399Q50.4061-80.6311 50.4061-80.8901Q50.4061-81.7271 49.8963-82.2199Q49.3865-82.7128 48.5495-82.7128Q47.6911-82.7128 47.2112-82.2582Q46.7312-81.8036 46.5585-80.9666L27.8898 10.4209Q27.7536 11.1686 27.7536 11.4109Q27.7536 12.2977 28.226 12.7594Q28.6984 13.221 29.5861 13.221ZM60.6808 13.221Q62.3771 13.221 62.7466 11.5613L81.4153-79.8495Q81.4269-80.0488 81.4892-80.3399Q81.5515-80.6311 81.5515-80.8901Q81.5515-81.7271 81.0417-82.2199Q80.532-82.7128 79.695-82.7128Q78.7858-82.7128 78.3121-82.2582Q77.8384-81.8036 77.7164-80.9666L58.9854 10.4209Q58.8483 11.1686 58.8483 11.4109Q58.8483 12.2977 59.3461 12.7594Q59.8438 13.221 60.6808 13.221ZM20.725-51.2597L97.0265-51.2597Q97.9232-51.2597 98.4571-51.8052Q98.9909-52.3506 98.9909-53.2357Q98.9909-53.9988 98.5172-54.5215Q98.0435-55.0442 97.1799-55.0442L20.9291-55.0442Q19.9941-55.0442 19.4603-54.4734Q18.9264-53.9026 18.9264-53.0441Q18.9264-52.2304 19.4251-51.7451Q19.9237-51.2597 20.725-51.2597ZM14.2595-16.9922L90.6109-16.9922Q91.5084-16.9922 92.0672-17.5376Q92.626-18.0831 92.626-18.9682Q92.626-19.7312 92.1273-20.2539Q91.6287-20.7766 90.8158-20.7766L14.476-20.7766Q13.5286-20.7766 12.9948-20.2058Q12.4609-19.635 12.4609-18.7765Q12.4609-17.9628 12.9596-17.4775Q13.4582-16.9922 14.2595-16.9922Z"/>
  </g>
  <g id="Ultralight-M" transform="matrix(1 0 0 1 504.13 1126)">
   <path d="M29.3543 13.4528Q30.374 13.4528 30.6267 12.3726L49.6788-80.5913Q49.7411-80.7791 49.7722-81.0296Q49.8033-81.2801 49.8033-81.4697Q49.8033-82.0401 49.4848-82.388Q49.1663-82.7359 48.5959-82.7359Q48.0853-82.7359 47.7676-82.4494Q47.4499-82.1629 47.3235-81.5926L28.2723 11.3715Q28.1478 12.1191 28.1478 12.1875Q28.1478 12.8192 28.4347 13.136Q28.7216 13.4528 29.3543 13.4528ZM60.2635 13.4528Q61.3455 13.4528 61.5991 12.3726L80.6503-80.5913Q80.6503-80.7791 80.7126-81.0296Q80.7749-81.2801 80.7749-81.4697Q80.7749-82.0401 80.4563-82.388Q80.1378-82.7359 79.5674-82.7359Q78.9944-82.7359 78.6772-82.4494Q78.36-82.1629 78.296-81.5926L59.1825 11.3715Q59.0569 12.1191 59.0569 12.1875Q59.0569 12.8192 59.375 13.136Q59.6931 13.4528 60.2635 13.4528ZM20.1454-51.8742L97.4902-51.8742Q98.0623-51.8742 98.3817-52.1935Q98.7011-52.5129 98.7011-53.085Q98.7011-53.5931 98.3839-53.9419Q98.0667-54.2907 97.4348-54.2907L20.1524-54.2907Q19.5189-54.2907 19.1995-53.9402Q18.8801-53.5896 18.8801-53.079Q18.8801-52.5085 19.228-52.1913Q19.5759-51.8742 20.1454-51.8742ZM13.7263-17.6066L91.1324-17.6066Q91.7055-17.6066 92.0556-17.9259Q92.4057-18.2453 92.4057-18.8174Q92.4057-19.3256 92.0578-19.6743Q91.7099-20.0231 91.1404-20.0231L13.7342-20.0231Q13.0998-20.0231 12.7804-19.6726Q12.4609-19.322 12.4609-18.8114Q12.4609-18.2409 12.8088-17.9237Q13.1567-17.6066 13.7263-17.6066Z"/>
  </g>
  <g id="Black-S" transform="matrix(1 0 0 1 2888.36 696)">
   <path d="M25.4395 2.83203Q32.5195 2.83203 33.9355-4.49219L45.752-64.7949Q45.8496-65.332 45.9229-66.0889Q45.9961-66.8457 45.9961-67.3828Q45.9961-70.2637 44.2383-71.9727Q42.4805-73.6816 39.1602-73.6816Q35.6445-73.6816 33.5205-71.8994Q31.3965-70.1172 30.6641-66.3574L18.8477-6.05469Q18.6035-4.83398 18.6035-3.4668Q18.6035-0.634766 20.3857 1.09863Q22.168 2.83203 25.4395 2.83203ZM50.5859 2.83203Q57.7148 2.83203 59.1309-4.49219L70.8984-64.7949Q70.9961-65.332 71.0693-66.0889Q71.1426-66.8457 71.1426-67.3828Q71.1426-70.2637 69.3848-71.9727Q67.627-73.6816 64.3555-73.6816Q60.791-73.6816 58.6914-71.875Q56.5918-70.0684 55.8594-66.3574L44.043-6.05469Q43.7988-4.83398 43.7988-3.4668Q43.7988-0.634766 45.5566 1.09863Q47.3145 2.83203 50.5859 2.83203ZM21.6309-40.3809L71.4844-40.3809Q75.6836-40.3809 78.0029-42.6514Q80.3223-44.9219 80.3223-48.6816Q80.3223-51.6602 78.418-53.3691Q76.5137-55.0781 73.0469-55.0781L23.2422-55.0781Q19.043-55.0781 16.6992-52.8564Q14.3555-50.6348 14.3555-46.875Q14.3555-43.8965 16.2842-42.1387Q18.2129-40.3809 21.6309-40.3809ZM17.041-16.748L66.7969-16.748Q70.9961-16.748 73.3398-18.9209Q75.6836-21.0938 75.6836-24.8535Q75.6836-27.832 73.7549-29.5654Q71.8262-31.2988 68.4082-31.2988L18.6035-31.2988Q14.4531-31.2988 12.1094-29.1016Q9.76562-26.9043 9.76562-23.1445Q9.76562-20.166 11.6943-18.457Q13.623-16.748 17.041-16.748Z"/>
  </g>
  <g id="Heavy-S" transform="matrix(1 0 0 1 2591.85 696)">
   <path d="M25.0937 2.62459Q31.3095 2.62459 32.5411-3.7431L44.7263-65.4749Q44.8124-65.9313 44.8799-66.5959Q44.9474-67.2606 44.9474-67.7746Q44.9474-70.3443 43.3567-71.8574Q41.766-73.3705 38.8605-73.3705Q35.7367-73.3705 33.8951-71.7899Q32.0534-70.2094 31.4247-66.9682L19.251-5.2595Q19.0299-4.18861 19.0299-2.95972Q19.0299-0.427325 20.6278 1.09863Q22.2256 2.62459 25.0937 2.62459ZM50.2056 2.62459Q56.4587 2.62459 57.7018-3.7431L69.8382-65.4749Q69.9243-65.9313 69.9918-66.5959Q70.0593-67.2606 70.0593-67.7746Q70.0593-70.3443 68.4686-71.8574Q66.8779-73.3705 64.0097-73.3705Q60.8486-73.3705 59.0314-71.7713Q57.2141-70.1721 56.5854-66.9682L44.4002-5.2595Q44.1791-4.18861 44.1791-2.95972Q44.1791-0.427325 45.7583 1.09863Q47.3375 2.62459 50.2056 2.62459ZM20.8241-41.637L72.1874-41.637Q75.8219-41.637 77.8646-43.654Q79.9074-45.671 79.9074-48.9582Q79.9074-51.5795 78.2393-53.1214Q76.5713-54.6632 73.577-54.6632L22.2511-54.6632Q18.6281-54.6632 16.5667-52.6836Q14.5053-50.7039 14.5053-47.3936Q14.5053-44.7723 16.192-43.2047Q17.8787-41.637 20.8241-41.637ZM16.0845-17.2436L67.3731-17.2436Q71.0076-17.2436 73.069-19.186Q75.1304-21.1283 75.1304-24.4156Q75.1304-27.0368 73.4437-28.5974Q71.757-30.1579 68.8-30.1579L17.4856-30.1579Q13.8884-30.1579 11.827-28.1969Q9.76562-26.2359 9.76562-22.9256Q9.76562-20.3043 11.4523-18.774Q13.139-17.2436 16.0845-17.2436Z"/>
  </g>
  <g id="Bold-S" transform="matrix(1 0 0 1 2295.37 696)">
   <path d="M24.707 2.39258Q29.9561 2.39258 30.9814-2.90527L43.5791-66.2354Q43.6523-66.6016 43.7134-67.1631Q43.7744-67.7246 43.7744-68.2129Q43.7744-70.4346 42.3706-71.7285Q40.9668-73.0225 38.5254-73.0225Q35.8398-73.0225 34.314-71.6675Q32.7881-70.3125 32.2754-67.6514L19.7021-4.37012Q19.5068-3.4668 19.5068-2.39258Q19.5068-0.195312 20.8984 1.09863Q22.29 2.39258 24.707 2.39258ZM49.7803 2.39258Q55.0537 2.39258 56.1035-2.90527L68.6523-66.2354Q68.7256-66.6016 68.7866-67.1631Q68.8477-67.7246 68.8477-68.2129Q68.8477-70.4346 67.4438-71.7285Q66.04-73.0225 63.623-73.0225Q60.9131-73.0225 59.4116-71.6553Q57.9102-70.2881 57.3975-67.6514L44.7998-4.37012Q44.6045-3.4668 44.6045-2.39258Q44.6045-0.195312 45.9839 1.09863Q47.3633 2.39258 49.7803 2.39258ZM19.9219-43.042L72.9736-43.042Q75.9766-43.042 77.71-44.7754Q79.4434-46.5088 79.4434-49.2676Q79.4434-51.4893 78.0396-52.8442Q76.6357-54.1992 74.1699-54.1992L21.1426-54.1992Q18.1641-54.1992 16.4185-52.4902Q14.6729-50.7812 14.6729-47.9736Q14.6729-45.752 16.0889-44.397Q17.5049-43.042 19.9219-43.042ZM15.0146-17.7979L68.0176-17.7979Q71.0205-17.7979 72.7661-19.4824Q74.5117-21.167 74.5117-23.9258Q74.5117-26.1475 73.0957-27.5146Q71.6797-28.8818 69.2383-28.8818L16.2354-28.8818Q13.2568-28.8818 11.5112-27.1851Q9.76562-25.4883 9.76562-22.6807Q9.76562-20.459 11.1816-19.1284Q12.5977-17.7979 15.0146-17.7979Z"/>
  </g>
  <g id="Semibold-S" transform="matrix(1 0 0 1 1998.82 696)">
   <path d="M24.4404 2.23262Q29.0229 2.23262 29.9062-2.32764L42.7882-66.7597Q42.8525-67.0637 42.9091-67.5541Q42.9657-68.0445 42.9657-68.515Q42.9657-70.4968 41.6908-71.6396Q40.4158-72.7825 38.2943-72.7825Q35.9109-72.7825 34.6028-71.5831Q33.2946-70.3836 32.8619-68.1224L20.0132-3.75693Q19.8356-2.96914 19.8356-2.00156Q19.8356-0.0353516 21.0851 1.09863Q22.3345 2.23262 24.4404 2.23262ZM49.487 2.23262Q54.0851 2.23262 55.0016-2.32764L67.8348-66.7597Q67.8991-67.0637 67.9557-67.5541Q68.0123-68.0445 68.0123-68.515Q68.0123-70.4968 66.7374-71.6396Q65.4624-72.7825 63.3564-72.7825Q60.9575-72.7825 59.6738-71.5753Q58.39-70.3681 57.9573-68.1224L45.0753-3.75693Q44.8978-2.96914 44.8978-2.00156Q44.8978-0.0353516 46.1394 1.09863Q47.3811 2.23262 49.487 2.23262ZM19.2998-44.0106L73.5157-44.0106Q76.0832-44.0106 77.6033-45.5485Q79.1234-47.0864 79.1234-49.4809Q79.1234-51.4271 77.9018-52.6532Q76.6802-53.8793 74.5787-53.8793L20.3783-53.8793Q17.8441-53.8793 16.3163-52.3569Q14.7884-50.8346 14.7884-48.3735Q14.7884-46.4273 16.0178-45.219Q17.2472-44.0106 19.2998-44.0106ZM14.2771-18.18L68.4619-18.18Q71.0294-18.18 72.5573-19.6868Q74.0852-21.1937 74.0852-23.5881Q74.0852-25.5343 72.8558-26.7682Q71.6264-28.0021 69.5404-28.0021L15.3733-28.0021Q12.8214-28.0021 11.2935-26.4875Q9.76562-24.9729 9.76562-22.5118Q9.76562-20.5656 10.995-19.3728Q12.2244-18.18 14.2771-18.18Z"/>
  </g>
  <g id="Medium-S" transform="matrix(1 0 0 1 1702.23 696)">
   <path d="M24.2383 2.11133Q28.3154 2.11133 29.0908-1.88965L42.1885-67.1572Q42.2461-67.4141 42.2993-67.8506Q42.3525-68.2871 42.3525-68.7441Q42.3525-70.5439 41.1753-71.5723Q39.998-72.6006 38.1191-72.6006Q35.9648-72.6006 34.8218-71.519Q33.6787-70.4375 33.3066-68.4795L20.249-3.29199Q20.085-2.5918 20.085-1.70508Q20.085 0.0859375 21.2266 1.09863Q22.3682 2.11133 24.2383 2.11133ZM49.2646 2.11133Q53.3506 2.11133 54.166-1.88965L67.2148-67.1572Q67.2725-67.4141 67.3257-67.8506Q67.3789-68.2871 67.3789-68.7441Q67.3789-70.5439 66.2017-71.5723Q65.0244-72.6006 63.1543-72.6006Q60.9912-72.6006 59.8726-71.5146Q58.7539-70.4287 58.3818-68.4795L45.2842-3.29199Q45.1201-2.5918 45.1201-1.70508Q45.1201 0.0859375 46.2573 1.09863Q47.3945 2.11133 49.2646 2.11133ZM18.8281-44.7451L73.9268-44.7451Q76.1641-44.7451 77.5225-46.1348Q78.8809-47.5244 78.8809-49.6426Q78.8809-51.3799 77.7974-52.5083Q76.7139-53.6367 74.8887-53.6367L19.7988-53.6367Q17.6016-53.6367 16.2388-52.2559Q14.876-50.875 14.876-48.6768Q14.876-46.9395 15.9639-45.8423Q17.0518-44.7451 18.8281-44.7451ZM13.7178-18.4697L68.7988-18.4697Q71.0361-18.4697 72.3989-19.8418Q73.7617-21.2139 73.7617-23.332Q73.7617-25.0693 72.6738-26.2021Q71.5859-27.335 69.7695-27.335L14.7197-27.335Q12.4912-27.335 11.1284-25.9585Q9.76562-24.582 9.76562-22.3838Q9.76562-20.6465 10.8535-19.5581Q11.9414-18.4697 13.7178-18.4697Z"/>
  </g>
  <g id="Regular-S" transform="matrix(1 0 0 1 1405.68 696)">
   <path d="M23.9746 1.95312Q27.3926 1.95312 28.0273-1.31836L41.4062-67.6758Q41.4551-67.8711 41.5039-68.2373Q41.5527-68.6035 41.5527-69.043Q41.5527-70.6055 40.5029-71.4844Q39.4531-72.3633 37.8906-72.3633Q36.0352-72.3633 35.1074-71.4355Q34.1797-70.5078 33.8867-68.9453L20.5566-2.68555Q20.4102-2.09961 20.4102-1.31836Q20.4102 0.244141 21.4111 1.09863Q22.4121 1.95312 23.9746 1.95312ZM48.9746 1.95312Q52.3926 1.95312 53.0762-1.31836L66.4062-67.6758Q66.4551-67.8711 66.5039-68.2373Q66.5527-68.6035 66.5527-69.043Q66.5527-70.6055 65.5029-71.4844Q64.4531-72.3633 62.8906-72.3633Q61.0352-72.3633 60.1318-71.4355Q59.2285-70.5078 58.9355-68.9453L45.5566-2.68555Q45.4102-2.09961 45.4102-1.31836Q45.4102 0.244141 46.4111 1.09863Q47.4121 1.95312 48.9746 1.95312ZM18.2129-45.7031L74.4629-45.7031Q76.2695-45.7031 77.417-46.8994Q78.5645-48.0957 78.5645-49.8535Q78.5645-51.3184 77.6611-52.3193Q76.7578-53.3203 75.293-53.3203L19.043-53.3203Q17.2852-53.3203 16.1377-52.124Q14.9902-50.9277 14.9902-49.0723Q14.9902-47.6074 15.8936-46.6553Q16.7969-45.7031 18.2129-45.7031ZM12.9883-18.8477L69.2383-18.8477Q71.0449-18.8477 72.1924-20.0439Q73.3398-21.2402 73.3398-22.998Q73.3398-24.4629 72.4365-25.4639Q71.5332-26.4648 70.0684-26.4648L13.8672-26.4648Q12.0605-26.4648 10.9131-25.2686Q9.76562-24.0723 9.76562-22.2168Q9.76562-20.752 10.6689-19.7998Q11.5723-18.8477 12.9883-18.8477Z"/>
  </g>
  <g id="Light-S" transform="matrix(1 0 0 1 1109.16 696)">
   <path d="M23.672 2.25576Q26.2726 2.25576 26.771-0.258891L40.6344-68.6445Q40.6832-68.8248 40.7244-69.138Q40.7656-69.4511 40.7656-69.7998Q40.7656-71.0141 39.9656-71.7038Q39.1655-72.3935 37.9512-72.3935Q36.5499-72.3935 35.834-71.6853Q35.1181-70.977 34.8857-69.7627L21.0561-1.44424Q20.9249-0.858307 20.9249-0.304159Q20.9249 0.925191 21.6836 1.59047Q22.4424 2.25576 23.672 2.25576ZM48.4296 2.25576Q51.0455 2.25576 51.5778-0.258891L65.4073-68.6445Q65.4409-68.8248 65.4897-69.138Q65.5385-69.4511 65.5385-69.7998Q65.5385-71.0141 64.7385-71.7038Q63.9384-72.3935 62.724-72.3935Q61.3075-72.3935 60.6085-71.6853Q59.9096-70.977 59.6924-69.7627L45.814-1.44424Q45.6825-0.858307 45.6825-0.304159Q45.6825 0.925191 46.4489 1.59047Q47.2153 2.25576 48.4296 2.25576ZM17.4561-46.5055L75.0684-46.5055Q76.4511-46.5055 77.3186-47.4065Q78.186-48.3075 78.186-49.6567Q78.186-50.7886 77.4871-51.5625Q76.7881-52.3364 75.6259-52.3364L18.0288-52.3364Q16.6646-52.3364 15.7972-51.4277Q14.9297-50.5191 14.9297-49.1178Q14.9297-47.9706 15.6362-47.238Q16.3427-46.5055 17.4561-46.5055ZM12.292-19.65L69.9193-19.65Q71.3023-19.65 72.1773-20.551Q73.0522-21.4521 73.0522-22.8012Q73.0522-23.9332 72.3457-24.707Q71.6393-25.4809 70.4923-25.4809L12.8985-25.4809Q11.5005-25.4809 10.6331-24.5722Q9.76562-23.6636 9.76562-22.2623Q9.76562-21.1151 10.4721-20.3826Q11.1786-19.65 12.292-19.65Z"/>
  </g>
  <g id="Thin-S" transform="matrix(1 0 0 1 812.697 696)">
   <path d="M23.2717 2.65601Q24.7913 2.65601 25.1095 1.14234L39.6136-69.9256Q39.6624-70.0861 39.6935-70.3291Q39.7246-70.5722 39.7246-70.8008Q39.7246-71.5547 39.2549-71.9941Q38.7851-72.4336 38.0312-72.4336Q37.2307-72.4336 36.7949-72.0156Q36.3592-71.5976 36.2068-70.8437L21.7167 0.197478Q21.6057 0.783416 21.6057 1.0372Q21.6057 1.82594 22.044 2.24097Q22.4824 2.65601 23.2717 2.65601ZM47.7088 2.65601Q49.2638 2.65601 49.596 1.14234L64.0861-69.9256Q64.0995-70.0861 64.1483-70.3291Q64.1972-70.5722 64.1972-70.8008Q64.1972-71.5547 63.7274-71.9941Q63.2576-72.4336 62.5037-72.4336Q61.6678-72.4336 61.239-72.0156Q60.8103-71.5976 60.6934-70.8437L46.1544 0.197478Q46.0428 0.783416 46.0428 1.0372Q46.0428 1.82594 46.4988 2.24097Q46.9549 2.65601 47.7088 2.65601ZM16.4551-47.5667L75.8693-47.5667Q76.6913-47.5667 77.1884-48.0772Q77.6855-48.5877 77.6855-49.3963Q77.6855-50.088 77.2568-50.5615Q76.8281-51.035 76.0661-51.035L16.6874-51.035Q15.8439-51.035 15.3468-50.5068Q14.8497-49.9785 14.8497-49.178Q14.8497-48.4509 15.2958-48.0088Q15.742-47.5667 16.4551-47.5667ZM11.371-20.7112L70.8201-20.7112Q71.6427-20.7112 72.1572-21.2217Q72.6718-21.7323 72.6718-22.5409Q72.6718-23.2325 72.2257-23.7061Q71.7795-24.1796 71.053-24.1796L11.6174-24.1796Q10.7599-24.1796 10.2628-23.6513Q9.76562-23.1231 9.76562-22.3225Q9.76562-21.5954 10.2118-21.1533Q10.6579-20.7112 11.371-20.7112Z"/>
  </g>
  <g id="Ultralight-S" transform="matrix(1 0 0 1 516.114 696)">
   <path d="M23.0667 2.86102Q24.0326 2.86102 24.2584 1.86005L39.0907-70.5818Q39.1396-70.7321 39.1655-70.9393Q39.1914-71.1464 39.1914-71.3135Q39.1914-71.8315 38.8908-72.1428Q38.5902-72.4541 38.0722-72.4541Q37.5793-72.4541 37.2871-72.1848Q36.9949-71.9154 36.8835-71.3974L22.0551 1.03836Q21.9543 1.6243 21.9543 1.72424Q21.9543 2.28729 22.2286 2.57416Q22.5029 2.86102 23.0667 2.86102ZM47.3396 2.86102Q48.3513 2.86102 48.5809 1.86005L63.4094-70.5818Q63.4125-70.7321 63.4613-70.9393Q63.5101-71.1464 63.5101-71.3135Q63.5101-71.8315 63.2095-72.1428Q62.9089-72.4541 62.3909-72.4541Q61.8523-72.4541 61.562-72.1848Q61.2717-71.9154 61.2061-71.3974L46.3287 1.03836Q46.2273 1.6243 46.2273 1.72424Q46.2273 2.28729 46.5244 2.57416Q46.8216 2.86102 47.3396 2.86102ZM15.9424-48.1102L76.2794-48.1102Q76.8143-48.1102 77.1217-48.4207Q77.4292-48.7312 77.4292-49.263Q77.4292-49.7292 77.1389-50.0488Q76.8486-50.3685 76.2917-50.3685L16.0004-50.3685Q15.4236-50.3685 15.1161-50.0351Q14.8087-49.7017 14.8087-49.2088Q14.8087-48.6969 15.1215-48.4035Q15.4343-48.1102 15.9424-48.1102ZM10.8994-21.2547L71.2814-21.2547Q71.817-21.2547 72.147-21.5652Q72.477-21.8758 72.477-22.4075Q72.477-22.8737 72.1642-23.1934Q71.8513-23.513 71.3402-23.513L10.9612-23.513Q10.3806-23.513 10.0731-23.1796Q9.76562-22.8462 9.76562-22.3534Q9.76562-21.8414 10.0784-21.5481Q10.3912-21.2547 10.8994-21.2547Z"/>
  </g>
 </g>
</svg>
