<?xml version="1.0" encoding="UTF-8"?>
<!--Generator: Apple Native CoreSVG 175-->
<!DOCTYPE svg
PUBLIC "-//W3C//DTD SVG 1.1//EN"
       "http://www.w3.org/Graphics/SVG/1.1/DTD/svg11.dtd">
<svg version="1.1" xmlns="http://www.w3.org/2000/svg" xmlns:xlink="http://www.w3.org/1999/xlink" width="3300" height="2200">
 <!--glyph: "uni10022C.medium", point size: 100.0, font version: "17.0d11e1", template writer version: "65.1"-->
 <g id="Notes">
  <rect height="2200" id="artboard" style="fill:white;opacity:1" width="3300" x="0" y="0"/>
  <line style="fill:none;stroke:black;opacity:1;stroke-width:0.5;" x1="263" x2="3036" y1="292" y2="292"/>
  <text style="stroke:none;fill:black;font-family:sans-serif;font-size:13;font-weight:bold;" transform="matrix(1 0 0 1 263 322)">Weight/Scale Variations</text>
  <text style="stroke:none;fill:black;font-family:sans-serif;font-size:13;text-anchor:middle;" transform="matrix(1 0 0 1 559.711 322)">Ultralight</text>
  <text style="stroke:none;fill:black;font-family:sans-serif;font-size:13;text-anchor:middle;" transform="matrix(1 0 0 1 856.422 322)">Thin</text>
  <text style="stroke:none;fill:black;font-family:sans-serif;font-size:13;text-anchor:middle;" transform="matrix(1 0 0 1 1153.13 322)">Light</text>
  <text style="stroke:none;fill:black;font-family:sans-serif;font-size:13;text-anchor:middle;" transform="matrix(1 0 0 1 1449.84 322)">Regular</text>
  <text style="stroke:none;fill:black;font-family:sans-serif;font-size:13;text-anchor:middle;" transform="matrix(1 0 0 1 1746.56 322)">Medium</text>
  <text style="stroke:none;fill:black;font-family:sans-serif;font-size:13;text-anchor:middle;" transform="matrix(1 0 0 1 2043.27 322)">Semibold</text>
  <text style="stroke:none;fill:black;font-family:sans-serif;font-size:13;text-anchor:middle;" transform="matrix(1 0 0 1 2339.98 322)">Bold</text>
  <text style="stroke:none;fill:black;font-family:sans-serif;font-size:13;text-anchor:middle;" transform="matrix(1 0 0 1 2636.69 322)">Heavy</text>
  <text style="stroke:none;fill:black;font-family:sans-serif;font-size:13;text-anchor:middle;" transform="matrix(1 0 0 1 2933.4 322)">Black</text>
  <line style="fill:none;stroke:black;opacity:1;stroke-width:0.5;" x1="263" x2="3036" y1="1903" y2="1903"/>
  <g transform="matrix(1 0 0 1 263 1933)">
   <path d="M9.24805 0.830078Q10.8691 0.830078 12.2949 0.214844Q13.7207-0.400391 14.8096-1.49414Q15.8984-2.58789 16.5186-4.01367Q17.1387-5.43945 17.1387-7.05078Q17.1387-8.66211 16.5186-10.0879Q15.8984-11.5137 14.8047-12.6074Q13.7109-13.7012 12.2852-14.3164Q10.8594-14.9316 9.23828-14.9316Q7.62695-14.9316 6.20117-14.3164Q4.77539-13.7012 3.69141-12.6074Q2.60742-11.5137 1.9873-10.0879Q1.36719-8.66211 1.36719-7.05078Q1.36719-5.43945 1.9873-4.01367Q2.60742-2.58789 3.69629-1.49414Q4.78516-0.400391 6.21094 0.214844Q7.63672 0.830078 9.24805 0.830078ZM9.24805-0.654297Q7.91992-0.654297 6.7627-1.14746Q5.60547-1.64062 4.73145-2.51953Q3.85742-3.39844 3.36426-4.56055Q2.87109-5.72266 2.87109-7.05078Q2.87109-8.37891 3.35938-9.54102Q3.84766-10.7031 4.72168-11.582Q5.5957-12.4609 6.75293-12.9541Q7.91016-13.4473 9.23828-13.4473Q10.5762-13.4473 11.7334-12.9541Q12.8906-12.4609 13.7695-11.582Q14.6484-10.7031 15.1465-9.54102Q15.6445-8.37891 15.6445-7.05078Q15.6445-5.72266 15.1514-4.56055Q14.6582-3.39844 13.7842-2.51953Q12.9102-1.64062 11.748-1.14746Q10.5859-0.654297 9.24805-0.654297ZM5.6543-7.05078Q5.6543-6.72852 5.85938-6.52832Q6.06445-6.32812 6.40625-6.32812L8.51562-6.32812L8.51562-4.20898Q8.51562-3.88672 8.71094-3.67676Q8.90625-3.4668 9.23828-3.4668Q9.56055-3.4668 9.77051-3.67676Q9.98047-3.88672 9.98047-4.20898L9.98047-6.32812L12.0898-6.32812Q12.4219-6.32812 12.627-6.52832Q12.832-6.72852 12.832-7.05078Q12.832-7.38281 12.627-7.58789Q12.4219-7.79297 12.0898-7.79297L9.98047-7.79297L9.98047-9.90234Q9.98047-10.2344 9.77051-10.4443Q9.56055-10.6543 9.23828-10.6543Q8.90625-10.6543 8.71094-10.4443Q8.51562-10.2344 8.51562-9.90234L8.51562-7.79297L6.40625-7.79297Q6.06445-7.79297 5.85938-7.58789Q5.6543-7.38281 5.6543-7.05078Z"/>
  </g>
  <g transform="matrix(1 0 0 1 281.867 1933)">
   <path d="M11.709 2.91016Q13.75 2.91016 15.5518 2.12891Q17.3535 1.34766 18.7305-0.0292969Q20.1074-1.40625 20.8887-3.20801Q21.6699-5.00977 21.6699-7.05078Q21.6699-9.0918 20.8887-10.8936Q20.1074-12.6953 18.7305-14.0723Q17.3535-15.4492 15.5469-16.2305Q13.7402-17.0117 11.6992-17.0117Q9.6582-17.0117 7.85645-16.2305Q6.05469-15.4492 4.68262-14.0723Q3.31055-12.6953 2.5293-10.8936Q1.74805-9.0918 1.74805-7.05078Q1.74805-5.00977 2.5293-3.20801Q3.31055-1.40625 4.6875-0.0292969Q6.06445 1.34766 7.86621 2.12891Q9.66797 2.91016 11.709 2.91016ZM11.709 1.25Q9.98047 1.25 8.47656 0.605469Q6.97266-0.0390625 5.83496-1.17676Q4.69727-2.31445 4.05762-3.81836Q3.41797-5.32227 3.41797-7.05078Q3.41797-8.7793 4.05762-10.2832Q4.69727-11.7871 5.83008-12.9297Q6.96289-14.0723 8.4668-14.7119Q9.9707-15.3516 11.6992-15.3516Q13.4277-15.3516 14.9316-14.7119Q16.4355-14.0723 17.5781-12.9297Q18.7207-11.7871 19.3652-10.2832Q20.0098-8.7793 20.0098-7.05078Q20.0098-5.32227 19.3701-3.81836Q18.7305-2.31445 17.5928-1.17676Q16.4551-0.0390625 14.9463 0.605469Q13.4375 1.25 11.709 1.25ZM7.17773-7.05078Q7.17773-6.69922 7.41211-6.47461Q7.64648-6.25 8.01758-6.25L10.8887-6.25L10.8887-3.36914Q10.8887-2.99805 11.1133-2.76855Q11.3379-2.53906 11.6895-2.53906Q12.0605-2.53906 12.29-2.76855Q12.5195-2.99805 12.5195-3.36914L12.5195-6.25L15.4004-6.25Q15.7715-6.25 16.001-6.47461Q16.2305-6.69922 16.2305-7.05078Q16.2305-7.42188 16.001-7.65137Q15.7715-7.88086 15.4004-7.88086L12.5195-7.88086L12.5195-10.752Q12.5195-11.1328 12.29-11.3623Q12.0605-11.5918 11.6895-11.5918Q11.3379-11.5918 11.1133-11.3574Q10.8887-11.123 10.8887-10.752L10.8887-7.88086L8.01758-7.88086Q7.63672-7.88086 7.40723-7.65137Q7.17773-7.42188 7.17773-7.05078Z"/>
  </g>
  <g transform="matrix(1 0 0 1 305.646 1933)">
   <path d="M14.9707 5.66406Q17.0605 5.66406 18.96 5.01465Q20.8594 4.36523 22.4512 3.19336Q24.043 2.02148 25.2197 0.429688Q26.3965-1.16211 27.0459-3.06641Q27.6953-4.9707 27.6953-7.05078Q27.6953-9.14062 27.0459-11.04Q26.3965-12.9395 25.2197-14.5312Q24.043-16.123 22.4512-17.2998Q20.8594-18.4766 18.9551-19.126Q17.0508-19.7754 14.9609-19.7754Q12.8711-19.7754 10.9717-19.126Q9.07227-18.4766 7.48535-17.2998Q5.89844-16.123 4.72168-14.5312Q3.54492-12.9395 2.90039-11.04Q2.25586-9.14062 2.25586-7.05078Q2.25586-4.9707 2.90527-3.06641Q3.55469-1.16211 4.72656 0.429688Q5.89844 2.02148 7.49023 3.19336Q9.08203 4.36523 10.9814 5.01465Q12.8809 5.66406 14.9707 5.66406ZM14.9707 3.84766Q13.1641 3.84766 11.5283 3.2959Q9.89258 2.74414 8.53516 1.74805Q7.17773 0.751953 6.17676-0.610352Q5.17578-1.97266 4.62891-3.6084Q4.08203-5.24414 4.08203-7.05078Q4.08203-8.86719 4.62891-10.5029Q5.17578-12.1387 6.17188-13.501Q7.16797-14.8633 8.52539-15.8594Q9.88281-16.8555 11.5186-17.4023Q13.1543-17.9492 14.9609-17.9492Q16.7773-17.9492 18.4131-17.4023Q20.0488-16.8555 21.4111-15.8594Q22.7734-14.8633 23.7695-13.501Q24.7656-12.1387 25.3174-10.5029Q25.8691-8.86719 25.8691-7.05078Q25.8789-5.24414 25.332-3.6084Q24.7852-1.97266 23.7842-0.610352Q22.7832 0.751953 21.4209 1.74805Q20.0586 2.74414 18.4229 3.2959Q16.7871 3.84766 14.9707 3.84766ZM9.19922-7.05078Q9.19922-6.66992 9.45801-6.4209Q9.7168-6.17188 10.1172-6.17188L14.0625-6.17188L14.0625-2.2168Q14.0625-1.81641 14.3115-1.55762Q14.5605-1.29883 14.9512-1.29883Q15.3516-1.29883 15.6104-1.55273Q15.8691-1.80664 15.8691-2.2168L15.8691-6.17188L19.8242-6.17188Q20.2246-6.17188 20.4785-6.4209Q20.7324-6.66992 20.7324-7.05078Q20.7324-7.46094 20.4785-7.71484Q20.2246-7.96875 19.8242-7.96875L15.8691-7.96875L15.8691-11.9141Q15.8691-12.3242 15.6104-12.583Q15.3516-12.8418 14.9512-12.8418Q14.5605-12.8418 14.3115-12.583Q14.0625-12.3242 14.0625-11.9141L14.0625-7.96875L10.1172-7.96875Q9.70703-7.96875 9.45312-7.71484Q9.19922-7.46094 9.19922-7.05078Z"/>
  </g>
  <text style="stroke:none;fill:black;font-family:sans-serif;font-size:13;font-weight:bold;" transform="matrix(1 0 0 1 263 1953)">Design Variations</text>
  <text style="stroke:none;fill:black;font-family:sans-serif;font-size:13;" transform="matrix(1 0 0 1 263 1971)">Symbols are supported in up to nine weights and three scales.</text>
  <text style="stroke:none;fill:black;font-family:sans-serif;font-size:13;" transform="matrix(1 0 0 1 263 1989)">For optimal layout with text and other symbols, vertically align</text>
  <text style="stroke:none;fill:black;font-family:sans-serif;font-size:13;" transform="matrix(1 0 0 1 263 2007)">symbols with the adjacent text.</text>
  <line style="fill:none;stroke:#00AEEF;stroke-width:0.5;opacity:1.0;" x1="776" x2="776" y1="1919" y2="1933"/>
  <g transform="matrix(1 0 0 1 776 1933)">
   <path d="M3.31055 0.15625Q3.70117 0.15625 3.91602-0.00976562Q4.13086-0.175781 4.26758-0.585938L5.52734-4.0332L11.2891-4.0332L12.5488-0.585938Q12.6855-0.175781 12.9004-0.00976562Q13.1152 0.15625 13.4961 0.15625Q13.8867 0.15625 14.1162-0.0585938Q14.3457-0.273438 14.3457-0.644531Q14.3457-0.869141 14.2383-1.17188L9.6582-13.3691Q9.48242-13.8184 9.17969-14.043Q8.87695-14.2676 8.4082-14.2676Q7.5-14.2676 7.17773-13.3789L2.59766-1.16211Q2.49023-0.859375 2.49023-0.634766Q2.49023-0.263672 2.70996-0.0537109Q2.92969 0.15625 3.31055 0.15625ZM6.00586-5.51758L8.37891-12.0898L8.42773-12.0898L10.8008-5.51758Z"/>
  </g>
  <line style="fill:none;stroke:#00AEEF;stroke-width:0.5;opacity:1.0;" x1="793.197" x2="793.197" y1="1919" y2="1933"/>
  <text style="stroke:none;fill:black;font-family:sans-serif;font-size:13;font-weight:bold;" transform="matrix(1 0 0 1 776 1953)">Margins</text>
  <text style="stroke:none;fill:black;font-family:sans-serif;font-size:13;" transform="matrix(1 0 0 1 776 1971)">Leading and trailing margins on the left and right side of each symbol</text>
  <text style="stroke:none;fill:black;font-family:sans-serif;font-size:13;" transform="matrix(1 0 0 1 776 1989)">can be adjusted by modifying the x-location of the margin guidelines.</text>
  <text style="stroke:none;fill:black;font-family:sans-serif;font-size:13;" transform="matrix(1 0 0 1 776 2007)">Modifications are automatically applied proportionally to all</text>
  <text style="stroke:none;fill:black;font-family:sans-serif;font-size:13;" transform="matrix(1 0 0 1 776 2025)">scales and weights.</text>
  <g transform="matrix(1 0 0 1 1289 1933)">
   <path d="M2.8418 1.86523L4.54102 3.57422Q5.18555 4.22852 5.90332 4.17969Q6.62109 4.13086 7.31445 3.35938L18.0078-8.42773L17.041-9.4043L6.42578 2.27539Q6.16211 2.57812 5.89355 2.61719Q5.625 2.65625 5.27344 2.30469L4.10156 1.14258Q3.75 0.791016 3.79395 0.522461Q3.83789 0.253906 4.14062-0.0195312L15.6152-10.8203L14.6387-11.7871L3.04688-0.898438Q2.30469-0.214844 2.25098 0.498047Q2.19727 1.21094 2.8418 1.86523ZM9.25781-16.3281Q8.94531-16.0254 8.90625-15.6348Q8.86719-15.2441 9.04297-14.9512Q9.21875-14.6777 9.55566-14.541Q9.89258-14.4043 10.3809-14.5215Q11.4746-14.7754 12.5977-14.7314Q13.7207-14.6875 14.7949-13.9844L14.209-12.5293Q13.9551-11.9043 14.0674-11.4404Q14.1797-10.9766 14.5801-10.5664L16.875-8.25195Q17.2363-7.88086 17.5781-7.82227Q17.9199-7.76367 18.3398-7.8418L19.4043-8.03711L20.0684-7.36328L20.0293-6.80664Q20-6.43555 20.1221-6.12305Q20.2441-5.81055 20.6055-5.44922L21.3672-4.70703Q21.7285-4.3457 22.1533-4.33105Q22.5781-4.31641 22.9297-4.66797L25.8398-7.58789Q26.1914-7.93945 26.1816-8.35449Q26.1719-8.76953 25.8105-9.13086L25.0391-9.89258Q24.6875-10.2539 24.3799-10.3857Q24.0723-10.5176 23.7109-10.4883L23.1348-10.4395L22.4902-11.0742L22.7344-12.1973Q22.832-12.6172 22.6953-12.9834Q22.5586-13.3496 22.1191-13.7891L19.9219-15.9766Q18.6719-17.2168 17.2607-17.8369Q15.8496-18.457 14.4189-18.4814Q12.9883-18.5059 11.665-17.959Q10.3418-17.4121 9.25781-16.3281ZM10.752-15.957Q11.6602-16.6211 12.7002-16.9043Q13.7402-17.1875 14.8047-17.085Q15.8691-16.9824 16.8701-16.5137Q17.8711-16.0449 18.7012-15.2051L21.1328-12.793Q21.3086-12.6172 21.3525-12.4512Q21.3965-12.2852 21.3379-12.0312L21.0156-10.5469L22.5195-9.0625L23.5059-9.12109Q23.6914-9.13086 23.7891-9.09668Q23.8867-9.0625 24.0332-8.91602L24.6094-8.33984L22.168-5.89844L21.5918-6.47461Q21.4453-6.62109 21.4062-6.71875Q21.3672-6.81641 21.377-7.01172L21.4453-7.98828L19.9512-9.47266L18.4277-9.21875Q18.1836-9.16992 18.042-9.2041Q17.9004-9.23828 17.7148-9.41406L15.7129-11.416Q15.5176-11.5918 15.4932-11.7529Q15.4688-11.9141 15.5859-12.1875L16.4648-14.2773Q15.293-15.3711 13.8281-15.791Q12.3633-16.2109 10.8398-15.7617Q10.7227-15.7324 10.6885-15.8057Q10.6543-15.8789 10.752-15.957Z"/>
  </g>
  <text style="stroke:none;fill:black;font-family:sans-serif;font-size:13;font-weight:bold;" transform="matrix(1 0 0 1 1289 1953)">Exporting</text>
  <text style="stroke:none;fill:black;font-family:sans-serif;font-size:13;" transform="matrix(1 0 0 1 1289 1971)">Symbols should be outlined when exporting to ensure the</text>
  <text style="stroke:none;fill:black;font-family:sans-serif;font-size:13;" transform="matrix(1 0 0 1 1289 1989)">design is preserved when submitting to Xcode.</text>
  <text id="template-version" style="stroke:none;fill:black;font-family:sans-serif;font-size:13;text-anchor:end;" transform="matrix(1 0 0 1 3036 1933)">Template v.2.0</text>
  <text style="stroke:none;fill:black;font-family:sans-serif;font-size:13;text-anchor:end;" transform="matrix(1 0 0 1 3036 1951)">Requires Xcode 13 or greater</text>
  <text id="descriptive-name" style="stroke:none;fill:black;font-family:sans-serif;font-size:13;text-anchor:end;" transform="matrix(1 0 0 1 3036 1969)">Generated from tray.full.fill</text>
  <text style="stroke:none;fill:black;font-family:sans-serif;font-size:13;text-anchor:end;" transform="matrix(1 0 0 1 3036 1987)">Typeset at 100 points</text>
  <text style="stroke:none;fill:black;font-family:sans-serif;font-size:13;" transform="matrix(1 0 0 1 263 726)">Small</text>
  <text style="stroke:none;fill:black;font-family:sans-serif;font-size:13;" transform="matrix(1 0 0 1 263 1156)">Medium</text>
  <text style="stroke:none;fill:black;font-family:sans-serif;font-size:13;" transform="matrix(1 0 0 1 263 1586)">Large</text>
 </g>
 <g id="Guides">
  <g id="H-reference" style="fill:#27AAE1;stroke:none;" transform="matrix(1 0 0 1 339 696)">
   <path d="M0.976562 0L3.66211 0L29.3457-67.1387L30.0293-67.1387L30.0293-70.459L28.125-70.459ZM11.6699-24.4629L46.9727-24.4629L46.2402-26.709L12.4512-26.709ZM55.127 0L57.7637 0L30.6152-70.459L29.4434-70.459L29.4434-67.1387Z"/>
  </g>
  <line id="Baseline-S" style="fill:none;stroke:#27AAE1;opacity:1;stroke-width:0.5;" x1="263" x2="3036" y1="696" y2="696"/>
  <line id="Capline-S" style="fill:none;stroke:#27AAE1;opacity:1;stroke-width:0.5;" x1="263" x2="3036" y1="625.541" y2="625.541"/>
  <g id="H-reference" style="fill:#27AAE1;stroke:none;" transform="matrix(1 0 0 1 339 1126)">
   <path d="M0.976562 0L3.66211 0L29.3457-67.1387L30.0293-67.1387L30.0293-70.459L28.125-70.459ZM11.6699-24.4629L46.9727-24.4629L46.2402-26.709L12.4512-26.709ZM55.127 0L57.7637 0L30.6152-70.459L29.4434-70.459L29.4434-67.1387Z"/>
  </g>
  <line id="Baseline-M" style="fill:none;stroke:#27AAE1;opacity:1;stroke-width:0.5;" x1="263" x2="3036" y1="1126" y2="1126"/>
  <line id="Capline-M" style="fill:none;stroke:#27AAE1;opacity:1;stroke-width:0.5;" x1="263" x2="3036" y1="1055.54" y2="1055.54"/>
  <g id="H-reference" style="fill:#27AAE1;stroke:none;" transform="matrix(1 0 0 1 339 1556)">
   <path d="M0.976562 0L3.66211 0L29.3457-67.1387L30.0293-67.1387L30.0293-70.459L28.125-70.459ZM11.6699-24.4629L46.9727-24.4629L46.2402-26.709L12.4512-26.709ZM55.127 0L57.7637 0L30.6152-70.459L29.4434-70.459L29.4434-67.1387Z"/>
  </g>
  <line id="Baseline-L" style="fill:none;stroke:#27AAE1;opacity:1;stroke-width:0.5;" x1="263" x2="3036" y1="1556" y2="1556"/>
  <line id="Capline-L" style="fill:none;stroke:#27AAE1;opacity:1;stroke-width:0.5;" x1="263" x2="3036" y1="1485.54" y2="1485.54"/>
  <line id="left-margin" style="fill:none;stroke:#00AEEF;stroke-width:0.5;opacity:1.0;" x1="1379.82" x2="1379.82" y1="1030.79" y2="1150.12"/>
  <line id="right-margin" style="fill:none;stroke:#00AEEF;stroke-width:0.5;opacity:1.0;" x1="1519.86" x2="1519.86" y1="1030.79" y2="1150.12"/>
 </g>
 <g id="Symbols">
  <g id="Black-L" transform="matrix(1 0 0 1 2841.51 1556)">
   <path d="M39.9902 24.0723L143.799 24.0723Q155.225 24.0723 161.475 17.8467Q167.725 11.6211 167.725 0.244141L167.725-36.6211Q167.725-42.1387 167.188-45.8008Q166.65-49.4629 165.283-52.3438Q163.916-55.2246 161.426-58.3008L144.434-79.7852Q141.064-83.9844 138.379-86.792Q135.693-89.5996 133.008-91.2842Q130.322-92.9688 127.002-93.7012Q123.682-94.4336 119.043-94.4336L64.6973-94.4336Q60.1074-94.4336 56.7871-93.7012Q53.4668-92.9688 50.7812-91.2842Q48.0957-89.5996 45.4102-86.792Q42.7246-83.9844 39.3555-79.7852L22.3633-58.3008Q19.873-55.1758 18.5059-52.3193Q17.1387-49.4629 16.6016-45.8008Q16.0645-42.1387 16.0645-36.6211L16.0645 0.244141Q16.0645 11.6211 22.3145 17.8467Q28.5645 24.0723 39.9902 24.0723ZM91.8945-21.6797Q87.0117-21.6797 83.5449-23.5107Q80.0781-25.3418 78.2471-28.5156Q76.416-31.6895 76.416-35.791L76.416-37.1094Q76.416-39.4531 74.9512-41.4307Q73.4863-43.4082 70.459-43.4082L39.5508-43.4082Q37.3047-43.4082 36.9141-44.873Q36.5234-46.3379 37.6465-47.8516L59.1309-74.9023Q60.5957-76.8066 62.3535-77.7588Q64.1113-78.7109 66.5039-78.7109L117.285-78.7109Q119.629-78.7109 121.387-77.7588Q123.145-76.8066 124.609-74.9023L146.094-47.8516Q147.266-46.3379 146.851-44.873Q146.436-43.4082 144.189-43.4082L113.281-43.4082Q110.303-43.4082 108.813-41.4307Q107.324-39.4531 107.324-37.1094L107.324-35.791Q107.324-31.6895 105.493-28.5156Q103.662-25.3418 100.22-23.5107Q96.7773-21.6797 91.8945-21.6797ZM117.041-71.4355L66.748-71.4355Q65.332-71.4355 64.4043-70.459Q63.4766-69.4824 63.4766-68.1152Q63.4766-66.6992 64.4043-65.7227Q65.332-64.7461 66.748-64.7461L117.041-64.7461Q118.408-64.7461 119.336-65.7227Q120.264-66.6992 120.264-68.1152Q120.264-69.4824 119.336-70.459Q118.408-71.4355 117.041-71.4355ZM124.512-59.1797L59.2773-59.1797Q57.8125-59.1797 56.7871-58.0811Q55.7617-56.9824 55.7617-55.5176Q55.7617-54.1504 56.7871-53.125Q57.8125-52.0996 59.2773-52.0996L124.512-52.0996Q125.977-52.0996 126.978-53.125Q127.979-54.1504 127.979-55.5176Q127.979-56.9824 126.978-58.0811Q125.977-59.1797 124.512-59.1797Z"/>
  </g>
  <g id="Heavy-L" transform="matrix(1 0 0 1 2545.23 1556)">
   <path d="M38.8184 22.6074L144.092 22.6074Q155.029 22.6074 160.938 16.7236Q166.846 10.8398 166.846-0.0488281L166.846-36.377Q166.846-41.2109 166.357-44.4336Q165.869-47.6562 164.673-50.1953Q163.477-52.7344 161.279-55.5176L142.871-79.1504Q139.746-83.1543 137.207-85.791Q134.668-88.4277 132.08-89.9902Q129.492-91.5527 126.294-92.2363Q123.096-92.9199 118.652-92.9199L64.2578-92.9199Q59.8145-92.9199 56.6162-92.2363Q53.418-91.5527 50.8301-89.9902Q48.2422-88.4277 45.7031-85.791Q43.1641-83.1543 40.0391-79.1504L21.6309-55.5176Q19.4824-52.7344 18.2617-50.1953Q17.041-47.6562 16.5527-44.4336Q16.0645-41.2109 16.0645-36.377L16.0645-0.0488281Q16.0645 10.8398 21.9727 16.7236Q27.8809 22.6074 38.8184 22.6074ZM91.4551-20.752Q86.5723-20.752 83.0811-22.7051Q79.5898-24.6582 77.71-27.9785Q75.8301-31.2988 75.8301-35.4004L75.8301-36.4746Q75.8301-38.7207 74.4629-40.5762Q73.0957-42.4316 70.2148-42.4316L36.7188-42.4316Q34.7168-42.4316 34.3506-43.7744Q33.9844-45.1172 34.9609-46.4844L57.1289-74.9023Q58.7891-77.0996 60.791-78.1006Q62.793-79.1016 65.4785-79.1016L117.48-79.1016Q120.068-79.1016 122.07-78.1006Q124.072-77.0996 125.732-74.9023L147.9-46.4844Q148.926-45.1172 148.535-43.7744Q148.145-42.4316 146.143-42.4316L112.646-42.4316Q109.814-42.4316 108.423-40.5762Q107.031-38.7207 107.031-36.4746L107.031-35.4004Q107.031-31.2988 105.151-27.9785Q103.271-24.6582 99.8047-22.7051Q96.3379-20.752 91.4551-20.752ZM117.041-71.2402L65.918-71.2402Q64.5508-71.2402 63.6475-70.3125Q62.7441-69.3848 62.7441-68.0664Q62.7441-66.6992 63.6475-65.7715Q64.5508-64.8438 65.918-64.8438L117.041-64.8438Q118.359-64.8438 119.238-65.7715Q120.117-66.6992 120.117-68.0664Q120.117-69.3848 119.238-70.3125Q118.359-71.2402 117.041-71.2402ZM124.805-58.4473L58.1055-58.4473Q56.6895-58.4473 55.7129-57.3975Q54.7363-56.3477 54.7363-54.9316Q54.7363-53.6133 55.7129-52.6611Q56.6895-51.709 58.1055-51.709L124.805-51.709Q126.221-51.709 127.173-52.6611Q128.125-53.6133 128.125-54.9316Q128.125-56.3477 127.173-57.3975Q126.221-58.4473 124.805-58.4473Z"/>
  </g>
  <g id="Bold-L" transform="matrix(1 0 0 1 2249.01 1556)">
   <path d="M37.5488 20.9473L144.385 20.9473Q154.834 20.9473 160.352 15.4541Q165.869 9.96094 165.869-0.439453L165.869-36.1328Q165.869-40.1855 165.454-42.9199Q165.039-45.6543 163.989-47.8271Q162.939-50 161.084-52.3926L141.113-78.4668Q138.232-82.1777 135.864-84.6436Q133.496-87.1094 131.055-88.5742Q128.613-90.0391 125.537-90.6494Q122.461-91.2598 118.164-91.2598L63.7695-91.2598Q59.4727-91.2598 56.4209-90.6494Q53.3691-90.0391 50.9033-88.5742Q48.4375-87.1094 46.0693-84.6436Q43.7012-82.1777 40.8203-78.4668L20.8496-52.3926Q18.9941-50 17.9688-47.8271Q16.9434-45.6543 16.5039-42.9199Q16.0645-40.1855 16.0645-36.1328L16.0645-0.439453Q16.0645 9.96094 21.582 15.4541Q27.0996 20.9473 37.5488 20.9473ZM90.9668-19.7266Q86.1328-19.7266 82.5928-21.8262Q79.0527-23.9258 77.1484-27.3926Q75.2441-30.8594 75.2441-34.9609L75.2441-35.791Q75.2441-37.8906 73.9258-39.624Q72.6074-41.3574 69.9707-41.3574L33.5938-41.3574Q31.8359-41.3574 31.4697-42.5537Q31.1035-43.75 31.9824-44.9707L54.9316-74.9512Q56.7871-77.4414 59.0576-78.5156Q61.3281-79.5898 64.3066-79.5898L117.676-79.5898Q120.605-79.5898 122.876-78.5156Q125.146-77.4414 127.002-74.9512L149.902-44.9707Q150.83-43.75 150.464-42.5537Q150.098-41.3574 148.291-41.3574L111.963-41.3574Q109.326-41.3574 108.008-39.624Q106.689-37.8906 106.689-35.791L106.689-34.9609Q106.689-30.8594 104.785-27.3926Q102.881-23.9258 99.3408-21.8262Q95.8008-19.7266 90.9668-19.7266ZM116.992-71.0449L64.9414-71.0449Q63.6719-71.0449 62.8174-70.166Q61.9629-69.2871 61.9629-68.0664Q61.9629-66.748 62.8174-65.8691Q63.6719-64.9902 64.9414-64.9902L116.992-64.9902Q118.262-64.9902 119.116-65.8691Q119.971-66.748 119.971-68.0664Q119.971-69.2871 119.116-70.166Q118.262-71.0449 116.992-71.0449ZM125.195-57.6172L56.7871-57.6172Q55.4199-57.6172 54.5166-56.6406Q53.6133-55.6641 53.6133-54.3457Q53.6133-53.0762 54.5166-52.1484Q55.4199-51.2207 56.7871-51.2207L125.195-51.2207Q126.514-51.2207 127.417-52.1484Q128.32-53.0762 128.32-54.3457Q128.32-55.6641 127.417-56.6406Q126.514-57.6172 125.195-57.6172Z"/>
  </g>
  <g id="Semibold-L" transform="matrix(1 0 0 1 1952.64 1556)">
   <path d="M36.6211 19.7754L144.58 19.7754Q154.688 19.7754 159.937 14.5508Q165.186 9.32617 165.186-0.634766L165.186-35.9375Q165.186-39.4531 164.795-41.8457Q164.404-44.2383 163.501-46.167Q162.598-48.0957 160.938-50.1953L139.893-77.9785Q137.207-81.543 134.961-83.8623Q132.715-86.1816 130.347-87.5488Q127.979-88.916 124.976-89.502Q121.973-90.0879 117.822-90.0879L63.3789-90.0879Q59.2285-90.0879 56.2744-89.502Q53.3203-88.916 50.9521-87.5488Q48.584-86.1816 46.3135-83.8623Q44.043-81.543 41.3574-77.9785L20.2637-50.1953Q18.6523-48.0957 17.749-46.167Q16.8457-44.2383 16.4551-41.8457Q16.0645-39.4531 16.0645-35.9375L16.0645-0.634766Q16.0645 9.375 21.3135 14.5752Q26.5625 19.7754 36.6211 19.7754ZM90.625-18.9941Q85.791-18.9941 82.2266-21.1914Q78.6621-23.3887 76.7334-26.9531Q74.8047-30.5176 74.8047-34.668L74.8047-35.2539Q74.8047-37.3047 73.5352-38.9404Q72.2656-40.5762 69.7754-40.5762L31.4453-40.5762Q29.834-40.5762 29.4922-41.6748Q29.1504-42.7734 29.9316-43.8965L53.418-74.9512Q55.3711-77.6367 57.8369-78.7842Q60.3027-79.9316 63.4766-79.9316L117.773-79.9316Q120.947-79.9316 123.413-78.7842Q125.879-77.6367 127.832-74.9512L151.27-43.8965Q152.1-42.7734 151.758-41.6748Q151.416-40.5762 149.805-40.5762L111.475-40.5762Q108.936-40.5762 107.69-38.9404Q106.445-37.3047 106.445-35.2539L106.445-34.668Q106.445-30.5176 104.492-26.9531Q102.539-23.3887 98.999-21.1914Q95.459-18.9941 90.625-18.9941ZM116.992-70.8984L64.3066-70.8984Q63.0371-70.8984 62.207-70.0684Q61.377-69.2383 61.377-68.0176Q61.377-66.748 62.207-65.8936Q63.0371-65.0391 64.3066-65.0391L116.992-65.0391Q118.213-65.0391 119.019-65.8936Q119.824-66.748 119.824-68.0176Q119.824-69.2383 119.019-70.0684Q118.213-70.8984 116.992-70.8984ZM125.391-57.0312L55.8594-57.0312Q54.541-57.0312 53.6621-56.0791Q52.7832-55.127 52.7832-53.9062Q52.7832-52.6367 53.6621-51.7578Q54.541-50.8789 55.8594-50.8789L125.391-50.8789Q126.66-50.8789 127.539-51.7578Q128.418-52.6367 128.418-53.9062Q128.418-55.127 127.539-56.0791Q126.66-57.0312 125.391-57.0312Z"/>
  </g>
  <g id="Medium-L" transform="matrix(1 0 0 1 1656.17 1556)">
   <path d="M35.9375 18.8965L144.775 18.8965Q154.59 18.8965 159.644 13.8672Q164.697 8.83789 164.697-0.830078L164.697-35.8398Q164.697-38.916 164.331-41.04Q163.965-43.1641 163.135-44.9219Q162.305-46.6797 160.889-48.584L138.965-77.6367Q136.426-81.0059 134.253-83.252Q132.08-85.498 129.785-86.8164Q127.49-88.1348 124.561-88.6719Q121.631-89.209 117.578-89.209L63.1348-89.209Q59.082-89.209 56.1768-88.6719Q53.2715-88.1348 50.9521-86.8164Q48.6328-85.498 46.4844-83.252Q44.3359-81.0059 41.748-77.6367L19.8242-48.584Q18.4082-46.6309 17.6025-44.8975Q16.7969-43.1641 16.4307-41.04Q16.0645-38.916 16.0645-35.8398L16.0645-0.830078Q16.0645 8.88672 21.1182 13.8916Q26.1719 18.8965 35.9375 18.8965ZM90.3809-18.457Q85.5469-18.457 81.9824-20.7275Q78.418-22.998 76.4404-26.6357Q74.4629-30.2734 74.4629-34.4238L74.4629-34.9121Q74.4629-36.9141 73.2422-38.4521Q72.0215-39.9902 69.6289-39.9902L29.7852-39.9902Q28.2715-39.9902 27.9541-41.0156Q27.6367-42.041 28.3691-43.0664L52.2461-75Q54.2969-77.832 56.9092-79.0039Q59.5215-80.1758 62.8418-80.1758L117.871-80.1758Q121.24-80.1758 123.828-79.0039Q126.416-77.832 128.516-75L152.344-43.0664Q153.076-42.041 152.759-41.0156Q152.441-39.9902 150.928-39.9902L111.133-39.9902Q108.643-39.9902 107.471-38.4521Q106.299-36.9141 106.299-34.9121L106.299-34.4238Q106.299-30.2734 104.321-26.6357Q102.344-22.998 98.7549-20.7275Q95.166-18.457 90.3809-18.457ZM116.943-70.8008L63.7695-70.8008Q62.5488-70.8008 61.7432-69.9707Q60.9375-69.1406 60.9375-68.0176Q60.9375-66.7969 61.7432-65.9424Q62.5488-65.0879 63.7695-65.0879L116.943-65.0879Q118.164-65.0879 118.945-65.9424Q119.727-66.7969 119.727-68.0176Q119.727-69.1406 118.945-69.9707Q118.164-70.8008 116.943-70.8008ZM125.586-56.6406L55.1758-56.6406Q53.9062-56.6406 53.0518-55.7129Q52.1973-54.7852 52.1973-53.5645Q52.1973-52.3438 53.0518-51.4893Q53.9062-50.6348 55.1758-50.6348L125.586-50.6348Q126.807-50.6348 127.661-51.4893Q128.516-52.3438 128.516-53.5645Q128.516-54.7852 127.661-55.7129Q126.807-56.6406 125.586-56.6406Z"/>
  </g>
  <g id="Regular-L" transform="matrix(1 0 0 1 1359.81 1556)">
   <path d="M35.0586 17.7734L144.971 17.7734Q154.443 17.7734 159.229 13.0127Q164.014 8.25195 164.014-1.07422L164.014-35.6445Q164.014-38.2324 163.696-40.0146Q163.379-41.7969 162.671-43.2861Q161.963-44.7754 160.742-46.4355L137.793-77.1484Q135.4-80.3711 133.35-82.4951Q131.299-84.6191 129.077-85.8398Q126.855-87.0605 124.023-87.5732Q121.191-88.0859 117.285-88.0859L62.793-88.0859Q58.8379-88.0859 56.0303-87.5732Q53.2227-87.0605 51.001-85.8398Q48.7793-84.6191 46.7285-82.4951Q44.6777-80.3711 42.2852-77.1484L19.2871-46.4355Q18.1152-44.7754 17.4072-43.2861Q16.6992-41.7969 16.3818-40.0146Q16.0645-38.2324 16.0645-35.6445L16.0645-1.07422Q16.0645 8.30078 20.8496 13.0371Q25.6348 17.7734 35.0586 17.7734ZM90.0391-17.7734Q85.2051-17.7734 81.6162-20.1172Q78.0273-22.4609 76.0254-26.2207Q74.0234-29.9805 74.0234-34.1309L74.0234-34.4238Q74.0234-36.3281 72.876-37.793Q71.7285-39.2578 69.4336-39.2578L27.6367-39.2578Q26.3184-39.2578 26.001-40.1855Q25.6836-41.1133 26.3184-42.041L50.7324-75Q52.9297-78.0273 55.7129-79.248Q58.4961-80.4688 62.0605-80.4688L118.018-80.4688Q121.582-80.4688 124.365-79.248Q127.148-78.0273 129.346-75L153.711-42.041Q154.346-41.1133 154.053-40.1855Q153.76-39.2578 152.393-39.2578L110.645-39.2578Q108.301-39.2578 107.178-37.793Q106.055-36.3281 106.055-34.4238L106.055-34.1309Q106.055-29.9805 104.053-26.2207Q102.051-22.4609 98.4375-20.1172Q94.8242-17.7734 90.0391-17.7734ZM116.943-70.6543L63.1348-70.6543Q61.9629-70.6543 61.1816-69.873Q60.4004-69.0918 60.4004-67.9688Q60.4004-66.7969 61.1816-65.9912Q61.9629-65.1855 63.1348-65.1855L116.943-65.1855Q118.115-65.1855 118.872-65.9912Q119.629-66.7969 119.629-67.9688Q119.629-69.0918 118.872-69.873Q118.115-70.6543 116.943-70.6543ZM125.83-56.0547L54.248-56.0547Q53.0273-56.0547 52.2217-55.1758Q51.416-54.2969 51.416-53.125Q51.416-51.9531 52.2217-51.1475Q53.0273-50.3418 54.248-50.3418L125.83-50.3418Q127.002-50.3418 127.808-51.1475Q128.613-51.9531 128.613-53.125Q128.613-54.2969 127.808-55.1758Q127.002-56.0547 125.83-56.0547Z"/>
  </g>
  <g id="Light-L" transform="matrix(1 0 0 1 1063.53 1556)">
   <path d="M34.0332 16.6016L145.117 16.6016Q154.053 16.6016 158.594 12.0361Q163.135 7.4707 163.135-1.26953L163.135-35.5469Q163.135-37.793 162.866-39.3066Q162.598-40.8203 161.987-42.0898Q161.377-43.3594 160.303-44.7754L135.742-77.1973Q133.594-80.0293 131.738-81.9092Q129.883-83.7891 127.832-84.8633Q125.781-85.9375 123.193-86.4014Q120.605-86.8652 117.041-86.8652L62.1582-86.8652Q58.5449-86.8652 55.9814-86.4014Q53.418-85.9375 51.3672-84.8633Q49.3164-83.7891 47.4609-81.9092Q45.6055-80.0293 43.4082-77.1973L18.8477-44.7754Q17.8223-43.3594 17.2119-42.0898Q16.6016-40.8203 16.333-39.3066Q16.0645-37.793 16.0645-35.5469L16.0645-1.26953Q16.0645 7.56836 20.6055 12.085Q25.1465 16.6016 34.0332 16.6016ZM89.5996-17.5781Q84.668-17.5781 80.9082-19.9219Q77.1484-22.2656 75.0244-26.1719Q72.9004-30.0781 72.9004-34.6191L72.9004-34.9609Q72.9004-36.6211 71.9482-37.793Q70.9961-38.9648 69.0918-38.9648L25.1465-38.9648Q24.0723-38.9648 23.8281-39.7217Q23.584-40.4785 24.1211-41.2109L49.9512-75.4883Q52.1973-78.4668 54.9316-79.7119Q57.666-80.957 61.4258-80.957L117.773-80.957Q121.533-80.957 124.268-79.7119Q127.002-78.4668 129.248-75.4883L155.078-41.2109Q155.615-40.4785 155.371-39.7217Q155.127-38.9648 154.053-38.9648L110.059-38.9648Q108.154-38.9648 107.227-37.793Q106.299-36.6211 106.299-34.9609L106.299-34.6191Q106.299-30.0781 104.15-26.1719Q102.002-22.2656 98.2422-19.9219Q94.4824-17.5781 89.5996-17.5781ZM117.09-70.3613L62.0605-70.3613Q61.084-70.3613 60.4004-69.7021Q59.7168-69.043 59.7168-68.0664Q59.7168-67.0898 60.4004-66.4062Q61.084-65.7227 62.0605-65.7227L117.09-65.7227Q118.115-65.7227 118.75-66.4062Q119.385-67.0898 119.385-68.0664Q119.385-69.043 118.75-69.7021Q118.115-70.3613 117.09-70.3613ZM126.66-55.2734L52.4902-55.2734Q51.4648-55.2734 50.7812-54.5654Q50.0977-53.8574 50.0977-52.832Q50.0977-51.8555 50.7812-51.1719Q51.4648-50.4883 52.4902-50.4883L126.66-50.4883Q127.637-50.4883 128.32-51.1719Q129.004-51.8555 129.004-52.832Q129.004-53.8574 128.32-54.5654Q127.637-55.2734 126.66-55.2734Z"/>
  </g>
  <g id="Thin-L" transform="matrix(1 0 0 1 767.409 1556)">
   <path d="M32.666 14.9902L145.312 14.9902Q153.516 14.9902 157.739 10.7178Q161.963 6.44531 161.963-1.5625L161.963-35.4492Q161.963-37.1582 161.768-38.3301Q161.572-39.502 161.084-40.4785Q160.596-41.4551 159.766-42.5293L133.105-77.1973Q131.201-79.6387 129.59-81.1768Q127.979-82.7148 126.172-83.5938Q124.365-84.4727 122.07-84.8633Q119.775-85.2539 116.699-85.2539L61.3281-85.2539Q58.2031-85.2539 55.9326-84.8633Q53.6621-84.4727 51.8555-83.5938Q50.0488-82.7148 48.4131-81.1768Q46.7773-79.6387 44.9219-77.1973L18.2129-42.5293Q17.4316-41.4551 16.9678-40.4785Q16.5039-39.502 16.2842-38.3301Q16.0645-37.1582 16.0645-35.4492L16.0645-1.5625Q16.0645 6.5918 20.2881 10.791Q24.5117 14.9902 32.666 14.9902ZM89.0137-17.334Q84.0332-17.334 80.0293-19.6777Q76.0254-22.0215 73.7061-26.0986Q71.3867-30.1758 71.3867-35.2539L71.3867-35.7422Q71.3867-37.0117 70.7031-37.793Q70.0195-38.5742 68.7012-38.5742L21.8262-38.5742Q21.1426-38.5742 20.9717-39.0869Q20.8008-39.5996 21.1914-40.1367L48.9258-76.123Q51.1719-79.0527 53.8574-80.3223Q56.543-81.5918 60.5957-81.5918L117.432-81.5918Q121.436-81.5918 124.146-80.3223Q126.855-79.0527 129.102-76.123L156.885-40.1367Q157.275-39.5996 157.104-39.0869Q156.934-38.5742 156.201-38.5742L109.326-38.5742Q107.959-38.5742 107.3-37.793Q106.641-37.0117 106.641-35.7422L106.641-35.2539Q106.641-30.1758 104.321-26.0986Q102.002-22.0215 97.998-19.6777Q93.9941-17.334 89.0137-17.334ZM117.334-70.0195L60.6934-70.0195Q59.9121-70.0195 59.375-69.5312Q58.8379-69.043 58.8379-68.2129Q58.8379-67.4316 59.375-66.9434Q59.9121-66.4551 60.6934-66.4551L117.334-66.4551Q118.066-66.4551 118.555-66.9434Q119.043-67.4316 119.043-68.2129Q119.043-69.043 118.555-69.5312Q118.066-70.0195 117.334-70.0195ZM127.783-54.248L50.1953-54.248Q49.4141-54.248 48.877-53.7598Q48.3398-53.2715 48.3398-52.4902Q48.3398-51.709 48.877-51.2207Q49.4141-50.7324 50.1953-50.7324L127.783-50.7324Q128.516-50.7324 129.028-51.2207Q129.541-51.709 129.541-52.4902Q129.541-53.2715 129.028-53.7598Q128.516-54.248 127.783-54.248Z"/>
  </g>
  <g id="Ultralight-L" transform="matrix(1 0 0 1 471.015 1556)">
   <path d="M31.9824 14.209L145.41 14.209Q153.223 14.209 157.275 10.083Q161.328 5.95703 161.328-1.70898L161.328-35.4004Q161.328-36.8652 161.182-37.8662Q161.035-38.8672 160.62-39.6729Q160.205-40.4785 159.473-41.4062L131.689-77.2461Q129.98-79.3945 128.491-80.7861Q127.002-82.1777 125.317-82.959Q123.633-83.7402 121.509-84.082Q119.385-84.4238 116.504-84.4238L60.8887-84.4238Q58.0078-84.4238 55.8838-84.082Q53.7598-83.7402 52.0752-82.959Q50.3906-82.1777 48.9014-80.7861Q47.4121-79.3945 45.7031-77.2461L17.9199-41.4062Q17.1875-40.4785 16.7969-39.6729Q16.4062-38.8672 16.2354-37.8662Q16.0645-36.8652 16.0645-35.4004L16.0645-1.70898Q16.0645 6.05469 20.1172 10.1318Q24.1699 14.209 31.9824 14.209ZM88.7207-17.1875Q83.6426-17.1875 79.541-19.5557Q75.4395-21.9238 73.0225-26.0986Q70.6055-30.2734 70.6055-35.5957L70.6055-36.084Q70.6055-37.2559 70.0684-37.8174Q69.5312-38.3789 68.457-38.3789L20.166-38.3789Q19.6289-38.3789 19.5068-38.7695Q19.3848-39.1602 19.6777-39.5996L48.3887-76.4648Q50.6836-79.3457 53.3447-80.6396Q56.0059-81.9336 60.1562-81.9336L117.236-81.9336Q121.387-81.9336 124.072-80.6396Q126.758-79.3457 129.004-76.4648L157.812-39.5996Q158.105-39.1602 157.983-38.7695Q157.861-38.3789 157.324-38.3789L108.936-38.3789Q107.861-38.3789 107.324-37.8174Q106.787-37.2559 106.787-36.084L106.787-35.5957Q106.787-30.2734 104.37-26.0986Q101.953-21.9238 97.8516-19.5557Q93.75-17.1875 88.7207-17.1875ZM117.432-69.8242L59.9609-69.8242Q59.2773-69.8242 58.8379-69.4092Q58.3984-68.9941 58.3984-68.3105Q58.3984-67.627 58.8379-67.2119Q59.2773-66.7969 59.9609-66.7969L117.432-66.7969Q118.066-66.7969 118.481-67.2119Q118.896-67.627 118.896-68.3105Q118.896-68.9941 118.481-69.4092Q118.066-69.8242 117.432-69.8242ZM128.369-53.7598L49.0234-53.7598Q48.3398-53.7598 47.9004-53.3691Q47.4609-52.9785 47.4609-52.2949Q47.4609-51.6113 47.9004-51.2207Q48.3398-50.8301 49.0234-50.8301L128.369-50.8301Q128.955-50.8301 129.395-51.2207Q129.834-51.6113 129.834-52.2949Q129.834-52.9785 129.395-53.3691Q128.955-53.7598 128.369-53.7598Z"/>
  </g>
  <g id="Black-M" transform="matrix(1 0 0 1 2861.96 1126)">
   <path d="M31.5918 11.5723L111.279 11.5723Q120.312 11.5723 125.366 6.54297Q130.42 1.51367 130.42-7.56836L130.42-36.4746Q130.42-41.2109 129.98-44.3359Q129.541-47.4609 128.394-49.9023Q127.246-52.3438 125.098-54.9316L112.549-70.3125Q108.936-74.707 106.226-77.2705Q103.516-79.834 100.415-80.9082Q97.3145-81.9824 92.5293-81.9824L50.3418-81.9824Q45.5566-81.9824 42.4561-80.9082Q39.3555-79.834 36.6455-77.2705Q33.9355-74.707 30.3223-70.3125L17.7734-54.9316Q15.6738-52.2949 14.502-49.8779Q13.3301-47.4609 12.8906-44.3359Q12.4512-41.2109 12.4512-36.4746L12.4512-7.56836Q12.4512 1.51367 17.5049 6.54297Q22.5586 11.5723 31.5918 11.5723ZM71.4355-25.4395Q67.627-25.4395 64.917-26.7578Q62.207-28.0762 60.7666-30.4688Q59.3262-32.8613 59.3262-36.1816L59.3262-37.4512Q59.3262-39.2578 58.2031-40.7715Q57.0801-42.2852 54.7363-42.2852L32.1777-42.2852Q30.3711-42.2852 30.0537-43.4814Q29.7363-44.6777 30.7129-45.8984L47.2656-66.1133Q48.291-67.334 49.4141-68.042Q50.5371-68.75 52.1973-68.75L90.625-68.75Q92.334-68.75 93.457-68.042Q94.5801-67.334 95.6055-66.1133L112.158-45.8984Q113.086-44.6777 112.793-43.4814Q112.5-42.2852 110.645-42.2852L88.1348-42.2852Q85.791-42.2852 84.668-40.7715Q83.5449-39.2578 83.5449-37.4512L83.5449-36.1816Q83.5449-32.8613 82.1045-30.4688Q80.6641-28.0762 77.9541-26.7578Q75.2441-25.4395 71.4355-25.4395ZM90.7715-63.3301L52.0996-63.3301Q51.0254-63.3301 50.3174-62.5977Q49.6094-61.8652 49.6094-60.791Q49.6094-59.7168 50.3174-58.96Q51.0254-58.2031 52.0996-58.2031L90.7715-58.2031Q91.8457-58.2031 92.5537-58.96Q93.2617-59.7168 93.2617-60.791Q93.2617-61.8652 92.5537-62.5977Q91.8457-63.3301 90.7715-63.3301ZM96.5332-54.1504L46.3379-54.1504Q45.2148-54.1504 44.4336-53.3203Q43.6523-52.4902 43.6523-51.3672Q43.6523-50.293 44.4336-49.5117Q45.2148-48.7305 46.3379-48.7305L96.5332-48.7305Q97.6562-48.7305 98.4375-49.5117Q99.2188-50.293 99.2188-51.3672Q99.2188-52.4902 98.4375-53.3203Q97.6562-54.1504 96.5332-54.1504Z"/>
  </g>
  <g id="Heavy-M" transform="matrix(1 0 0 1 2565.6 1126)">
   <path d="M30.7129 10.3516L111.523 10.3516Q120.215 10.3516 124.976 5.61523Q129.736 0.878906 129.736-7.8125L129.736-36.2793Q129.736-40.3809 129.346-43.1396Q128.955-45.8984 127.93-48.0713Q126.904-50.2441 125.049-52.5391L111.475-69.6777Q108.057-73.9258 105.469-76.3428Q102.881-78.7598 99.8779-79.7607Q96.875-80.7617 92.1875-80.7617L50.0488-80.7617Q45.3613-80.7617 42.334-79.7607Q39.3066-78.7598 36.7188-76.3428Q34.1309-73.9258 30.7617-69.6777L17.1875-52.5391Q15.332-50.1953 14.2822-48.0469Q13.2324-45.8984 12.8418-43.1396Q12.4512-40.3809 12.4512-36.2793L12.4512-7.8125Q12.4512 0.878906 17.2119 5.61523Q21.9727 10.3516 30.7129 10.3516ZM71.0938-24.5605Q67.334-24.5605 64.624-26.001Q61.9141-27.4414 60.4736-29.9561Q59.0332-32.4707 59.0332-35.6934L59.0332-36.7188Q59.0332-38.4766 57.9346-39.9414Q56.8359-41.4062 54.541-41.4062L29.9805-41.4062Q28.3203-41.4062 28.0029-42.5049Q27.6855-43.6035 28.5645-44.7266L45.5078-66.0156Q46.6797-67.5293 48.0469-68.2861Q49.4141-69.043 51.3184-69.043L90.8691-69.043Q92.7734-69.043 94.1406-68.2861Q95.5078-67.5293 96.7285-66.0156L113.623-44.7266Q114.453-43.6035 114.16-42.5049Q113.867-41.4062 112.207-41.4062L87.6465-41.4062Q85.4004-41.4062 84.3018-39.9414Q83.2031-38.4766 83.2031-36.7188L83.2031-35.6934Q83.2031-32.4707 81.7383-29.9561Q80.2734-27.4414 77.5635-26.001Q74.8535-24.5605 71.0938-24.5605ZM90.7227-63.2324L51.4648-63.2324Q50.4395-63.2324 49.7314-62.5Q49.0234-61.7676 49.0234-60.7422Q49.0234-59.668 49.7314-58.9355Q50.4395-58.2031 51.4648-58.2031L90.7227-58.2031Q91.7969-58.2031 92.4805-58.9355Q93.1641-59.668 93.1641-60.7422Q93.1641-61.7676 92.4805-62.5Q91.7969-63.2324 90.7227-63.2324ZM96.6309-53.6133L45.5566-53.6133Q44.4336-53.6133 43.6768-52.7832Q42.9199-51.9531 42.9199-50.8789Q42.9199-49.8047 43.6768-49.0479Q44.4336-48.291 45.5566-48.291L96.6309-48.291Q97.7539-48.291 98.5107-49.0479Q99.2676-49.8047 99.2676-50.8789Q99.2676-51.9531 98.5107-52.7832Q97.7539-53.6133 96.6309-53.6133Z"/>
  </g>
  <g id="Bold-M" transform="matrix(1 0 0 1 2269.25 1126)">
   <path d="M29.6875 9.0332L111.768 9.0332Q120.166 9.0332 124.585 4.63867Q129.004 0.244141 129.004-8.10547L129.004-36.0352Q129.004-39.502 128.662-41.8457Q128.32-44.1895 127.441-46.0449Q126.562-47.9004 124.951-49.9023L110.254-68.9941Q107.129-73.0469 104.663-75.3174Q102.197-77.5879 99.2676-78.5156Q96.3379-79.4434 91.7969-79.4434L49.707-79.4434Q45.1172-79.4434 42.1875-78.5156Q39.2578-77.5879 36.8164-75.3174Q34.375-73.0469 31.25-68.9941L16.5039-49.9023Q14.9414-47.9004 14.0625-46.0449Q13.1836-44.1895 12.8174-41.8457Q12.4512-39.502 12.4512-36.0352L12.4512-8.10547Q12.4512 0.244141 16.8945 4.63867Q21.3379 9.0332 29.6875 9.0332ZM70.752-23.6328Q66.9922-23.6328 64.2822-25.1953Q61.5723-26.7578 60.1318-29.3701Q58.6914-31.9824 58.6914-35.1562L58.6914-35.8887Q58.6914-37.5977 57.6172-39.0137Q56.543-40.4297 54.3457-40.4297L27.5391-40.4297Q26.0254-40.4297 25.7324-41.4307Q25.4395-42.4316 26.2207-43.457L43.5059-65.9668Q44.873-67.7246 46.5332-68.5547Q48.1934-69.3848 50.3418-69.3848L91.1133-69.3848Q93.3105-69.3848 94.9463-68.5547Q96.582-67.7246 97.9492-65.9668L115.283-43.457Q116.016-42.4316 115.723-41.4307Q115.43-40.4297 113.916-40.4297L87.1094-40.4297Q84.9121-40.4297 83.8623-39.0137Q82.8125-37.5977 82.8125-35.8887L82.8125-35.1562Q82.8125-31.9824 81.3477-29.3701Q79.8828-26.7578 77.1729-25.1953Q74.4629-23.6328 70.752-23.6328ZM90.6738-63.0859L50.8301-63.0859Q49.8047-63.0859 49.0967-62.3779Q48.3887-61.6699 48.3887-60.6445Q48.3887-59.6191 49.0967-58.9111Q49.8047-58.2031 50.8301-58.2031L90.6738-58.2031Q91.6992-58.2031 92.3828-58.9111Q93.0664-59.6191 93.0664-60.6445Q93.0664-61.6699 92.3828-62.3779Q91.6992-63.0859 90.6738-63.0859ZM96.7773-52.9785L44.6777-52.9785Q43.6035-52.9785 42.8711-52.1729Q42.1387-51.3672 42.1387-50.3418Q42.1387-49.3164 42.8711-48.5596Q43.6035-47.8027 44.6777-47.8027L96.7773-47.8027Q97.8516-47.8027 98.6084-48.5596Q99.3652-49.3164 99.3652-50.3418Q99.3652-51.3672 98.6084-52.1729Q97.8516-52.9785 96.7773-52.9785Z"/>
  </g>
  <g id="Semibold-M" transform="matrix(1 0 0 1 1972.81 1126)">
   <path d="M29.0039 8.10547L111.963 8.10547Q120.068 8.10547 124.268 3.93066Q128.467-0.244141 128.467-8.30078L128.467-35.8887Q128.467-38.8672 128.149-40.9424Q127.832-43.0176 127.051-44.6533Q126.27-46.2891 124.902-48.0957L109.424-68.5059Q106.445-72.4121 104.077-74.585Q101.709-76.7578 98.8525-77.6123Q95.9961-78.4668 91.5039-78.4668L49.4629-78.4668Q44.9707-78.4668 42.0898-77.6123Q39.209-76.7578 36.8652-74.585Q34.5215-72.4121 31.543-68.5059L16.0645-48.0957Q14.6973-46.2891 13.8916-44.6533Q13.0859-43.0176 12.7686-40.9424Q12.4512-38.8672 12.4512-35.8887L12.4512-8.30078Q12.4512-0.244141 16.6748 3.93066Q20.8984 8.10547 29.0039 8.10547ZM70.459-22.9492Q66.748-22.9492 64.0381-24.6094Q61.3281-26.2695 59.8877-28.9551Q58.4473-31.6406 58.4473-34.7656L58.4473-35.3027Q58.4473-37.0117 57.3975-38.3545Q56.3477-39.6973 54.1992-39.6973L25.8301-39.6973Q24.4141-39.6973 24.1211-40.6494Q23.8281-41.6016 24.5605-42.5293L42.1387-65.8691Q43.6523-67.8711 45.4834-68.75Q47.3145-69.6289 49.6094-69.6289L91.3086-69.6289Q93.6523-69.6289 95.4834-68.75Q97.3145-67.8711 98.7793-65.8691L116.406-42.5293Q117.041-41.6016 116.772-40.6494Q116.504-39.6973 115.088-39.6973L86.7188-39.6973Q84.5703-39.6973 83.5693-38.3545Q82.5684-37.0117 82.5684-35.3027L82.5684-34.7656Q82.5684-31.6406 81.0791-28.9551Q79.5898-26.2695 76.8799-24.6094Q74.1699-22.9492 70.459-22.9492ZM90.625-62.9883L50.3418-62.9883Q49.3164-62.9883 48.6328-62.3047Q47.9492-61.6211 47.9492-60.5957Q47.9492-59.5703 48.6328-58.8623Q49.3164-58.1543 50.3418-58.1543L90.625-58.1543Q91.6504-58.1543 92.334-58.8623Q93.0176-59.5703 93.0176-60.5957Q93.0176-61.6211 92.334-62.3047Q91.6504-62.9883 90.625-62.9883ZM96.875-52.5391L44.0918-52.5391Q43.0176-52.5391 42.2852-51.7578Q41.5527-50.9766 41.5527-49.9512Q41.5527-48.9258 42.2852-48.1689Q43.0176-47.4121 44.0918-47.4121L96.875-47.4121Q97.9004-47.4121 98.6328-48.1689Q99.3652-48.9258 99.3652-49.9512Q99.3652-50.9766 98.6328-51.7578Q97.9004-52.5391 96.875-52.5391Z"/>
  </g>
  <g id="Medium-M" transform="matrix(1 0 0 1 1676.29 1126)">
   <path d="M28.4668 7.42188L112.061 7.42188Q120.02 7.42188 124.048 3.41797Q128.076-0.585938 128.076-8.44727L128.076-35.7422Q128.076-38.4277 127.783-40.2588Q127.49-42.0898 126.782-43.5791Q126.074-45.0684 124.854-46.6797L108.789-68.1641Q105.908-71.9238 103.638-74.0234Q101.367-76.123 98.5352-76.9531Q95.7031-77.7832 91.3086-77.7832L49.2676-77.7832Q44.8242-77.7832 42.0166-76.9531Q39.209-76.123 36.9141-74.0234Q34.6191-71.9238 31.7871-68.1641L15.6738-46.6797Q14.4531-45.0684 13.7451-43.5791Q13.0371-42.0898 12.7441-40.2588Q12.4512-38.4277 12.4512-35.7422L12.4512-8.44727Q12.4512-0.585938 16.5039 3.41797Q20.5566 7.42188 28.4668 7.42188ZM70.2637-22.4121Q66.6016-22.4121 63.8916-24.1699Q61.1816-25.9277 59.7168-28.6621Q58.252-31.3965 58.252-34.5215L58.252-34.8633Q58.252-36.5234 57.2266-37.8662Q56.2012-39.209 54.1016-39.209L24.5117-39.209Q23.1934-39.209 22.9248-40.0879Q22.6562-40.9668 23.291-41.8457L41.1133-65.8203Q42.6758-67.9688 44.6533-68.8721Q46.6309-69.7754 49.1211-69.7754L91.4062-69.7754Q93.9453-69.7754 95.8984-68.8721Q97.8516-67.9688 99.4629-65.8203L117.236-41.8457Q117.871-40.9668 117.578-40.0879Q117.285-39.209 116.016-39.209L86.4746-39.209Q84.3262-39.209 83.3252-37.8662Q82.3242-36.5234 82.3242-34.8633L82.3242-34.5215Q82.3242-31.3965 80.8594-28.6621Q79.3945-25.9277 76.6846-24.1699Q73.9746-22.4121 70.2637-22.4121ZM90.5762-62.9395L50-62.9395Q48.9746-62.9395 48.291-62.2314Q47.6074-61.5234 47.6074-60.5469Q47.6074-59.5703 48.291-58.8623Q48.9746-58.1543 50-58.1543L90.5762-58.1543Q91.6016-58.1543 92.2607-58.8623Q92.9199-59.5703 92.9199-60.5469Q92.9199-61.5234 92.2607-62.2314Q91.6016-62.9395 90.5762-62.9395ZM96.9238-52.2461L43.6035-52.2461Q42.5781-52.2461 41.8457-51.4404Q41.1133-50.6348 41.1133-49.6582Q41.1133-48.6328 41.8457-47.9004Q42.5781-47.168 43.6035-47.168L96.9238-47.168Q97.998-47.168 98.7061-47.9004Q99.4141-48.6328 99.4141-49.6582Q99.4141-50.6348 98.7061-51.4404Q97.998-52.2461 96.9238-52.2461Z"/>
  </g>
  <g id="Regular-M" transform="matrix(1 0 0 1 1379.82 1126)">
   <path d="M27.7832 6.49414L112.256 6.49414Q119.971 6.49414 123.779 2.70996Q127.588-1.07422 127.588-8.64258L127.588-35.5957Q127.588-37.793 127.319-39.3555Q127.051-40.918 126.44-42.1875Q125.83-43.457 124.805-44.873L107.959-67.6758Q105.273-71.3379 103.076-73.3154Q100.879-75.293 98.1201-76.0742Q95.3613-76.8555 91.0156-76.8555L49.0234-76.8555Q44.6777-76.8555 41.9189-76.0742Q39.1602-75.293 36.9629-73.3154Q34.7656-71.3379 32.1289-67.6758L15.2344-44.873Q14.209-43.457 13.5986-42.1875Q12.9883-40.918 12.7197-39.3555Q12.4512-37.793 12.4512-35.5957L12.4512-8.64258Q12.4512-1.07422 16.2842 2.70996Q20.1172 6.49414 27.7832 6.49414ZM70.0195-21.7773Q66.3574-21.7773 63.6475-23.6084Q60.9375-25.4395 59.4727-28.2715Q58.0078-31.1035 58.0078-34.1309L58.0078-34.2773Q58.0078-35.9375 57.0068-37.2314Q56.0059-38.5254 53.9551-38.5254L22.8516-38.5254Q21.6309-38.5254 21.3623-39.3311Q21.0938-40.1367 21.6797-40.9668L39.7461-65.7715Q41.4551-68.1152 43.6279-69.0674Q45.8008-70.0195 48.4375-70.0195L91.6016-70.0195Q94.2871-70.0195 96.4355-69.0674Q98.584-68.1152 100.293-65.7715L118.359-40.9668Q118.896-40.1367 118.628-39.3311Q118.359-38.5254 117.188-38.5254L86.084-38.5254Q84.0332-38.5254 83.0566-37.2314Q82.0801-35.9375 82.0801-34.2773L82.0801-34.1309Q82.0801-31.1035 80.5908-28.2715Q79.1016-25.4395 76.3916-23.6084Q73.6816-21.7773 70.0195-21.7773ZM90.5273-62.8418L49.5117-62.8418Q48.5352-62.8418 47.8516-62.1582Q47.168-61.4746 47.168-60.498Q47.168-59.5215 47.8516-58.8379Q48.5352-58.1543 49.5117-58.1543L90.5273-58.1543Q91.5527-58.1543 92.2119-58.8379Q92.8711-59.5215 92.8711-60.498Q92.8711-61.4746 92.2119-62.1582Q91.5527-62.8418 90.5273-62.8418ZM97.0215-51.8066L43.0176-51.8066Q41.9922-51.8066 41.2842-51.0254Q40.5762-50.2441 40.5762-49.2676Q40.5762-48.291 41.2842-47.5586Q41.9922-46.8262 43.0176-46.8262L97.0215-46.8262Q98.0469-46.8262 98.7549-47.5586Q99.4629-48.291 99.4629-49.2676Q99.4629-50.2441 98.7549-51.0254Q98.0469-51.8066 97.0215-51.8066Z"/>
  </g>
  <g id="Light-M" transform="matrix(1 0 0 1 1083.5 1126)">
   <path d="M26.8555 5.41992L112.402 5.41992Q119.58 5.41992 123.193 1.83105Q126.807-1.75781 126.807-8.83789L126.807-35.498Q126.807-37.4023 126.562-38.7207Q126.318-40.0391 125.806-41.1133Q125.293-42.1875 124.414-43.3594L106.104-67.7246Q103.76-70.9473 101.758-72.6807Q99.7559-74.4141 97.2412-75.0977Q94.7266-75.7812 90.7715-75.7812L48.4863-75.7812Q44.5312-75.7812 42.0166-75.0977Q39.502-74.4141 37.5-72.6807Q35.498-70.9473 33.1543-67.7246L14.8438-43.3594Q13.916-42.1875 13.4033-41.1133Q12.8906-40.0391 12.6709-38.7207Q12.4512-37.4023 12.4512-35.498L12.4512-8.83789Q12.4512-1.75781 16.0645 1.83105Q19.6777 5.41992 26.8555 5.41992ZM69.6289-21.6309Q65.8691-21.6309 63.0371-23.4619Q60.2051-25.293 58.5938-28.2471Q56.9824-31.2012 56.9824-34.5703L56.9824-34.7656Q56.9824-36.1816 56.1768-37.2314Q55.3711-38.2812 53.6621-38.2812L20.6055-38.2812Q19.6289-38.2812 19.4092-38.916Q19.1895-39.5508 19.6777-40.2344L39.0625-66.2109Q40.7715-68.5059 42.9199-69.4824Q45.0684-70.459 47.9004-70.459L91.3574-70.459Q94.2383-70.459 96.3623-69.4824Q98.4863-68.5059 100.195-66.2109L119.58-40.2344Q120.02-39.5508 119.8-38.916Q119.58-38.2812 118.652-38.2812L85.5469-38.2812Q83.8867-38.2812 83.0811-37.2314Q82.2754-36.1816 82.2754-34.7656L82.2754-34.5703Q82.2754-31.2012 80.6641-28.2471Q79.0527-25.293 76.1963-23.4619Q73.3398-21.6309 69.6289-21.6309ZM90.6738-62.5977L48.584-62.5977Q47.7539-62.5977 47.168-62.0361Q46.582-61.4746 46.582-60.5957Q46.582-59.7656 47.168-59.2041Q47.7539-58.6426 48.584-58.6426L90.6738-58.6426Q91.5527-58.6426 92.1143-59.2041Q92.6758-59.7656 92.6758-60.5957Q92.6758-61.4746 92.1143-62.0361Q91.5527-62.5977 90.6738-62.5977ZM97.7539-51.123L41.4551-51.123Q40.5762-51.123 39.9902-50.4883Q39.4043-49.8535 39.4043-49.0234Q39.4043-48.1934 39.9902-47.583Q40.5762-46.9727 41.4551-46.9727L97.7539-46.9727Q98.6328-46.9727 99.2188-47.583Q99.8047-48.1934 99.8047-49.0234Q99.8047-49.8535 99.2188-50.4883Q98.6328-51.123 97.7539-51.123Z"/>
  </g>
  <g id="Thin-M" transform="matrix(1 0 0 1 787.306 1126)">
   <path d="M25.5859 4.05273L112.549 4.05273Q119.092 4.05273 122.437 0.683594Q125.781-2.68555 125.781-9.08203L125.781-35.4004Q125.781-36.8652 125.586-37.8662Q125.391-38.8672 125-39.6729Q124.609-40.4785 123.926-41.3574L103.711-67.7734Q101.709-70.4102 99.9756-71.8262Q98.2422-73.2422 96.0449-73.7793Q93.8477-74.3164 90.4785-74.3164L47.7051-74.3164Q44.3848-74.3164 42.1875-73.7793Q39.9902-73.2422 38.2324-71.8262Q36.4746-70.4102 34.5215-67.7734L14.3066-41.3574Q13.5742-40.4785 13.1836-39.6729Q12.793-38.8672 12.6221-37.8662Q12.4512-36.8652 12.4512-35.4004L12.4512-9.08203Q12.4512-2.63672 15.7959 0.708008Q19.1406 4.05273 25.5859 4.05273ZM69.0918-21.3867Q65.2832-21.3867 62.2314-23.2178Q59.1797-25.0488 57.4219-28.1738Q55.6641-31.2988 55.6641-35.1074L55.6641-35.4492Q55.6641-36.5234 55.0781-37.2314Q54.4922-37.9395 53.3203-37.9395L17.627-37.9395Q17.041-37.9395 16.8701-38.3789Q16.6992-38.8184 17.041-39.2578L38.1348-66.7969Q39.8926-69.043 41.9922-70.0195Q44.0918-70.9961 47.1191-70.9961L91.0645-70.9961Q94.1406-70.9961 96.2158-70.0195Q98.291-69.043 100.098-66.7969L121.191-39.2578Q121.533-38.8184 121.362-38.3789Q121.191-37.9395 120.605-37.9395L84.9121-37.9395Q83.7402-37.9395 83.1543-37.2314Q82.5684-36.5234 82.5684-35.4492L82.5684-35.1074Q82.5684-31.2988 80.8105-28.1738Q79.0527-25.0488 76.001-23.2178Q72.9492-21.3867 69.0918-21.3867ZM90.8691-62.2559L47.3145-62.2559Q46.6797-62.2559 46.2402-61.8408Q45.8008-61.4258 45.8008-60.7422Q45.8008-60.1074 46.2402-59.6924Q46.6797-59.2773 47.3145-59.2773L90.8691-59.2773Q91.5039-59.2773 91.9434-59.6924Q92.3828-60.1074 92.3828-60.7422Q92.3828-61.4258 91.9434-61.8408Q91.5039-62.2559 90.8691-62.2559ZM98.7793-50.2441L39.4043-50.2441Q38.7695-50.2441 38.3301-49.7803Q37.8906-49.3164 37.8906-48.6816Q37.8906-48.0469 38.3301-47.6074Q38.7695-47.168 39.4043-47.168L98.7793-47.168Q99.4141-47.168 99.8535-47.6074Q100.293-48.0469 100.293-48.6816Q100.293-49.3164 99.8535-49.7803Q99.4141-50.2441 98.7793-50.2441Z"/>
  </g>
  <g id="Ultralight-M" transform="matrix(1 0 0 1 490.863 1126)">
   <path d="M24.9512 3.32031L112.646 3.32031Q118.848 3.32031 122.046 0.0732422Q125.244-3.17383 125.244-9.22852L125.244-35.3516Q125.244-36.5723 125.073-37.4023Q124.902-38.2324 124.561-38.916Q124.219-39.5996 123.682-40.332L102.441-67.8223Q100.684-70.1172 99.0723-71.3623Q97.4609-72.6074 95.4346-73.0957Q93.4082-73.584 90.332-73.584L47.3633-73.584Q44.2871-73.584 42.2363-73.0957Q40.1855-72.6074 38.5986-71.3623Q37.0117-70.1172 35.2051-67.8223L14.0137-40.332Q13.3789-39.5996 13.0371-38.916Q12.6953-38.2324 12.5732-37.4023Q12.4512-36.5723 12.4512-35.3516L12.4512-9.22852Q12.4512-3.07617 15.6494 0.12207Q18.8477 3.32031 24.9512 3.32031ZM68.8477-21.2891Q64.9414-21.2891 61.8164-23.1201Q58.6914-24.9512 56.8359-28.1494Q54.9805-31.3477 54.9805-35.4004L54.9805-35.791Q54.9805-36.7188 54.5166-37.2314Q54.0527-37.7441 53.125-37.7441L16.1133-37.7441Q15.6738-37.7441 15.5518-38.0859Q15.4297-38.4277 15.6738-38.7695L37.6465-67.0898Q39.4043-69.2871 41.4795-70.2881Q43.5547-71.2891 46.7773-71.2891L90.918-71.2891Q94.0918-71.2891 96.167-70.2881Q98.2422-69.2871 100-67.0898L122.021-38.7695Q122.314-38.4277 122.168-38.0859Q122.021-37.7441 121.582-37.7441L84.5215-37.7441Q83.6426-37.7441 83.1787-37.2314Q82.7148-36.7188 82.7148-35.791L82.7148-35.4004Q82.7148-31.3477 80.8594-28.1494Q79.0039-24.9512 75.8545-23.1201Q72.7051-21.2891 68.8477-21.2891ZM90.9668-62.1094L46.6797-62.1094Q46.1426-62.1094 45.7764-61.7676Q45.4102-61.4258 45.4102-60.8398Q45.4102-60.2539 45.7764-59.9365Q46.1426-59.6191 46.6797-59.6191L90.9668-59.6191Q91.5039-59.6191 91.8701-59.9365Q92.2363-60.2539 92.2363-60.8398Q92.2363-61.4258 91.8701-61.7676Q91.5039-62.1094 90.9668-62.1094ZM99.2676-49.7559L38.3301-49.7559Q37.793-49.7559 37.4268-49.4141Q37.0605-49.0723 37.0605-48.5352Q37.0605-47.9492 37.4268-47.6074Q37.793-47.2656 38.3301-47.2656L99.2676-47.2656Q99.8047-47.2656 100.171-47.6074Q100.537-47.9492 100.537-48.5352Q100.537-49.0723 100.171-49.4141Q99.8047-49.7559 99.2676-49.7559Z"/>
  </g>
  <g id="Black-S" transform="matrix(1 0 0 1 2877.35 696)">
   <path d="M25 1.75781L87.1094 1.75781Q94.2871 1.75781 98.3154-2.27051Q102.344-6.29883 102.344-13.4766L102.344-36.2793Q102.344-40.1367 102.002-42.7002Q101.66-45.2637 100.708-47.2412Q99.7559-49.2188 97.998-51.3184L88.4277-62.8906Q85.5469-66.4062 83.3984-68.4326Q81.25-70.459 78.8086-71.3135Q76.3672-72.168 72.6074-72.168L39.502-72.168Q35.7422-72.168 33.3008-71.3135Q30.8594-70.459 28.7109-68.4326Q26.5625-66.4062 23.6816-62.8906L14.1113-51.3184Q12.3535-49.1699 11.4258-47.1924Q10.498-45.2148 10.1318-42.6758Q9.76562-40.1367 9.76562-36.2793L9.76562-13.4766Q9.76562-6.29883 13.7939-2.27051Q17.8223 1.75781 25 1.75781ZM56.0547-27.832Q53.0762-27.832 50.9277-28.8086Q48.7793-29.7852 47.6562-31.665Q46.5332-33.5449 46.5332-36.1328L46.5332-37.207Q46.5332-38.623 45.6543-39.8193Q44.7754-41.0156 42.9199-41.0156L25.7812-41.0156Q24.3164-41.0156 24.0723-41.9922Q23.8281-42.9688 24.6094-43.8965L37.5488-59.4727Q38.2812-60.3516 39.1113-60.8887Q39.9414-61.4258 41.1621-61.4258L70.9473-61.4258Q72.2168-61.4258 73.0225-60.8887Q73.8281-60.3516 74.5605-59.4727L87.5-43.8965Q88.2812-42.9688 88.0371-41.9922Q87.793-41.0156 86.3281-41.0156L69.1895-41.0156Q67.3828-41.0156 66.4795-39.8193Q65.5762-38.623 65.5762-37.207L65.5762-36.1328Q65.5762-33.5449 64.4531-31.665Q63.3301-29.7852 61.2061-28.8086Q59.082-27.832 56.0547-27.832ZM71.1426-57.2754L40.9668-57.2754Q40.1367-57.2754 39.5752-56.6895Q39.0137-56.1035 39.0137-55.2734Q39.0137-54.4434 39.5752-53.8574Q40.1367-53.2715 40.9668-53.2715L71.1426-53.2715Q71.9727-53.2715 72.5342-53.8574Q73.0957-54.4434 73.0957-55.2734Q73.0957-56.1035 72.5342-56.6895Q71.9727-57.2754 71.1426-57.2754ZM75.6348-50.1953L36.4746-50.1953Q35.5957-50.1953 34.9854-49.5361Q34.375-48.877 34.375-47.998Q34.375-47.168 34.9854-46.5576Q35.5957-45.9473 36.4746-45.9473L75.6348-45.9473Q76.5137-45.9473 77.124-46.5576Q77.7344-47.168 77.7344-47.998Q77.7344-48.877 77.124-49.5361Q76.5137-50.1953 75.6348-50.1953Z"/>
  </g>
  <g id="Heavy-S" transform="matrix(1 0 0 1 2580.88 696)">
   <path d="M24.3652 0.878906L87.3047 0.878906Q94.2871 0.878906 98.0713-2.92969Q101.855-6.73828 101.855-13.6719L101.855-36.084Q101.855-39.502 101.562-41.7725Q101.27-44.043 100.415-45.8008Q99.5605-47.5586 97.998-49.4629L87.7441-62.3535Q85.0098-65.7715 82.9346-67.7002Q80.8594-69.6289 78.4668-70.459Q76.0742-71.2891 72.3145-71.2891L39.3066-71.2891Q35.5957-71.2891 33.1787-70.459Q30.7617-69.6289 28.7109-67.7002Q26.6602-65.7715 23.9258-62.3535L13.6719-49.4629Q12.1094-47.5586 11.2793-45.7764Q10.4492-43.9941 10.1074-41.748Q9.76562-39.502 9.76562-36.084L9.76562-13.6719Q9.76562-6.73828 13.5742-2.92969Q17.3828 0.878906 24.3652 0.878906ZM55.8105-27.0996Q52.8809-27.0996 50.7568-28.1982Q48.6328-29.2969 47.5098-31.2256Q46.3867-33.1543 46.3867-35.6445L46.3867-36.5234Q46.3867-37.9395 45.5078-39.1113Q44.6289-40.2832 42.8223-40.2832L24.1699-40.2832Q22.8027-40.2832 22.5586-41.2109Q22.3145-42.1387 23.0469-43.0176L36.1328-59.3262Q37.0117-60.4492 38.0371-61.0352Q39.0625-61.6211 40.4785-61.6211L71.1426-61.6211Q72.6074-61.6211 73.6328-61.0352Q74.6582-60.4492 75.5371-59.3262L88.5742-43.0176Q89.3066-42.1387 89.0625-41.2109Q88.8184-40.2832 87.4512-40.2832L68.8477-40.2832Q67.041-40.2832 66.1377-39.1113Q65.2344-37.9395 65.2344-36.5234L65.2344-35.6445Q65.2344-33.1543 64.1357-31.2256Q63.0371-29.2969 60.9131-28.1982Q58.7891-27.0996 55.8105-27.0996ZM71.0938-57.2266L40.5762-57.2266Q39.7461-57.2266 39.1846-56.6406Q38.623-56.0547 38.623-55.2246Q38.623-54.3945 39.1846-53.8086Q39.7461-53.2227 40.5762-53.2227L71.0938-53.2227Q71.9238-53.2227 72.4854-53.8086Q73.0469-54.3945 73.0469-55.2246Q73.0469-56.0547 72.4854-56.6406Q71.9238-57.2266 71.0938-57.2266ZM75.6348-49.8047L35.9863-49.8047Q35.1074-49.8047 34.4971-49.1455Q33.8867-48.4863 33.8867-47.6074Q33.8867-46.7773 34.4971-46.167Q35.1074-45.5566 35.9863-45.5566L75.6348-45.5566Q76.5137-45.5566 77.124-46.167Q77.7344-46.7773 77.7344-47.6074Q77.7344-48.4863 77.124-49.1455Q76.5137-49.8047 75.6348-49.8047Z"/>
  </g>
  <g id="Bold-S" transform="matrix(1 0 0 1 2284.41 696)">
   <path d="M23.6328-0.146484L87.5-0.146484Q94.2383-0.146484 97.8027-3.68652Q101.367-7.22656 101.367-13.916L101.367-35.9375Q101.367-38.8184 101.074-40.7471Q100.781-42.6758 100.049-44.2139Q99.3164-45.752 97.998-47.4121L86.9629-61.7676Q84.4238-65.0879 82.4219-66.9189Q80.4199-68.75 78.0762-69.5312Q75.7324-70.3125 72.0215-70.3125L39.1113-70.3125Q35.4492-70.3125 33.0811-69.5312Q30.7129-68.75 28.7354-66.9189Q26.7578-65.0879 24.1699-61.7676L13.1348-47.4121Q11.8164-45.752 11.084-44.2139Q10.3516-42.6758 10.0586-40.7471Q9.76562-38.8184 9.76562-35.9375L9.76562-13.916Q9.76562-7.22656 13.3545-3.68652Q16.9434-0.146484 23.6328-0.146484ZM55.5664-26.3184Q52.6855-26.3184 50.5859-27.5146Q48.4863-28.7109 47.3633-30.7373Q46.2402-32.7637 46.2402-35.1562L46.2402-35.7422Q46.2402-37.1582 45.3613-38.3301Q44.4824-39.502 42.6758-39.502L22.4121-39.502Q21.1426-39.502 20.8984-40.332Q20.6543-41.1621 21.2891-41.9922L34.5215-59.2285Q35.5469-60.5957 36.8164-61.2305Q38.0859-61.8652 39.6973-61.8652L71.4355-61.8652Q73.0469-61.8652 74.3164-61.2305Q75.5859-60.5957 76.6113-59.2285L89.8438-41.9922Q90.4785-41.1621 90.2344-40.332Q89.9902-39.502 88.7207-39.502L68.457-39.502Q66.6504-39.502 65.7715-38.3301Q64.8926-37.1582 64.8926-35.7422L64.8926-35.1562Q64.8926-32.7637 63.7939-30.7373Q62.6953-28.7109 60.5957-27.5146Q58.4961-26.3184 55.5664-26.3184ZM70.9961-57.1289L40.1367-57.1289Q39.2578-57.1289 38.6963-56.543Q38.1348-55.957 38.1348-55.127Q38.1348-54.2969 38.6963-53.7109Q39.2578-53.125 40.1367-53.125L70.9961-53.125Q71.875-53.125 72.4365-53.7109Q72.998-54.2969 72.998-55.127Q72.998-55.957 72.4365-56.543Q71.875-57.1289 70.9961-57.1289ZM75.6348-49.3652L35.498-49.3652Q34.6191-49.3652 34.0088-48.7061Q33.3984-48.0469 33.3984-47.168Q33.3984-46.3379 34.0088-45.7275Q34.6191-45.1172 35.498-45.1172L75.6348-45.1172Q76.5625-45.1172 77.1484-45.7275Q77.7344-46.3379 77.7344-47.168Q77.7344-48.0469 77.1484-48.7061Q76.5625-49.3652 75.6348-49.3652Z"/>
  </g>
  <g id="Semibold-S" transform="matrix(1 0 0 1 1987.9 696)">
   <path d="M23.0957-0.830078L87.6465-0.830078Q94.2383-0.830078 97.6074-4.19922Q100.977-7.56836 100.977-14.0625L100.977-35.791Q100.977-38.2812 100.708-40.0146Q100.439-41.748 99.8047-43.1152Q99.1699-44.4824 97.998-45.9961L86.377-61.377Q83.9844-64.5508 82.0557-66.333Q80.127-68.1152 77.8076-68.8477Q75.4883-69.5801 71.8262-69.5801L38.916-69.5801Q35.3027-69.5801 32.959-68.8477Q30.6152-68.1152 28.7109-66.333Q26.8066-64.5508 24.3652-61.377L12.793-45.9961Q11.6211-44.4824 10.9619-43.0908Q10.3027-41.6992 10.0342-39.9902Q9.76562-38.2812 9.76562-35.791L9.76562-14.0625Q9.76562-7.56836 13.1836-4.19922Q16.6016-0.830078 23.0957-0.830078ZM55.3711-25.7324Q52.4902-25.7324 50.415-27.0264Q48.3398-28.3203 47.2412-30.3955Q46.1426-32.4707 46.1426-34.7656L46.1426-35.2051Q46.1426-36.5723 45.2637-37.7441Q44.3848-38.916 42.5781-38.916L21.1426-38.916Q19.9707-38.916 19.7266-39.7217Q19.4824-40.5273 20.0684-41.3086L33.3984-59.082Q34.5703-60.6445 35.9863-61.3281Q37.4023-62.0117 39.1602-62.0117L71.582-62.0117Q73.3398-62.0117 74.7803-61.3281Q76.2207-60.6445 77.3438-59.082L90.6738-41.3086Q91.2598-40.5273 91.0156-39.7217Q90.7715-38.916 89.5996-38.916L68.1641-38.916Q66.4062-38.916 65.5273-37.7441Q64.6484-36.5723 64.6484-35.2051L64.6484-34.7656Q64.6484-32.4707 63.5498-30.3955Q62.4512-28.3203 60.376-27.0264Q58.3008-25.7324 55.3711-25.7324ZM70.9473-57.0801L39.7949-57.0801Q38.916-57.0801 38.3545-56.4941Q37.793-55.9082 37.793-55.0781Q37.793-54.248 38.3545-53.6621Q38.916-53.0762 39.7949-53.0762L70.9473-53.0762Q71.8262-53.0762 72.3877-53.6621Q72.9492-54.248 72.9492-55.0781Q72.9492-55.9082 72.3877-56.4941Q71.8262-57.0801 70.9473-57.0801ZM75.6348-49.0723L35.1074-49.0723Q34.2285-49.0723 33.6182-48.4131Q33.0078-47.7539 33.0078-46.875Q33.0078-46.0449 33.6182-45.4102Q34.2285-44.7754 35.1074-44.7754L75.6348-44.7754Q76.5625-44.7754 77.1484-45.4102Q77.7344-46.0449 77.7344-46.875Q77.7344-47.7539 77.1484-48.4131Q76.5625-49.0723 75.6348-49.0723Z"/>
  </g>
  <g id="Medium-S" transform="matrix(1 0 0 1 1691.33 696)">
   <path d="M22.7051-1.31836L87.7441-1.31836Q94.1895-1.31836 97.4365-4.56543Q100.684-7.8125 100.684-14.1602L100.684-35.6934Q100.684-37.9395 100.439-39.4775Q100.195-41.0156 99.6094-42.2852Q99.0234-43.5547 97.998-44.9219L85.9863-61.0352Q83.6426-64.209 81.7627-65.9424Q79.8828-67.6758 77.5879-68.3838Q75.293-69.0918 71.6309-69.0918L38.8184-69.0918Q35.2051-69.0918 32.8857-68.3838Q30.5664-67.6758 28.7109-65.9424Q26.8555-64.209 24.4629-61.0352L12.5-44.9219Q11.4746-43.5059 10.8643-42.2607Q10.2539-41.0156 10.0098-39.4775Q9.76562-37.9395 9.76562-35.6934L9.76562-14.1602Q9.76562-7.8125 13.0615-4.56543Q16.3574-1.31836 22.7051-1.31836ZM55.2734-25.293Q52.3926-25.293 50.3174-26.6602Q48.2422-28.0273 47.1436-30.1514Q46.0449-32.2754 46.0449-34.4727L46.0449-34.8145Q46.0449-36.1816 45.166-37.3291Q44.2871-38.4766 42.5293-38.4766L20.2148-38.4766Q19.0918-38.4766 18.8477-39.2334Q18.6035-39.9902 19.1406-40.7715L32.5684-59.0332Q33.7891-60.6934 35.3516-61.4014Q36.9141-62.1094 38.7695-62.1094L71.7285-62.1094Q73.584-62.1094 75.1465-61.4014Q76.709-60.6934 77.9297-59.0332L91.3086-40.7715Q91.8457-39.9902 91.6016-39.2334Q91.3574-38.4766 90.2344-38.4766L67.9688-38.4766Q66.1621-38.4766 65.3076-37.3291Q64.4531-36.1816 64.4531-34.8145L64.4531-34.4727Q64.4531-32.2754 63.3545-30.1514Q62.2559-28.0273 60.1807-26.6602Q58.1055-25.293 55.2734-25.293ZM70.8984-57.0312L39.5508-57.0312Q38.6719-57.0312 38.1104-56.4453Q37.5488-55.8594 37.5488-55.0293Q37.5488-54.1992 38.1104-53.6133Q38.6719-53.0273 39.5508-53.0273L70.8984-53.0273Q71.7773-53.0273 72.3389-53.6133Q72.9004-54.1992 72.9004-55.0293Q72.9004-55.8594 72.3389-56.4453Q71.7773-57.0312 70.8984-57.0312ZM75.6348-48.8281L34.8145-48.8281Q33.9355-48.8281 33.3252-48.1689Q32.7148-47.5098 32.7148-46.6309Q32.7148-45.8008 33.3252-45.166Q33.9355-44.5312 34.8145-44.5312L75.6348-44.5312Q76.5625-44.5312 77.1484-45.166Q77.7344-45.8008 77.7344-46.6309Q77.7344-47.5098 77.1484-48.1689Q76.5625-48.8281 75.6348-48.8281Z"/>
  </g>
  <g id="Regular-S" transform="matrix(1 0 0 1 1394.79 696)">
   <path d="M22.2168-2.00195L87.8906-2.00195Q94.1895-2.00195 97.2656-5.07812Q100.342-8.1543 100.342-14.3066L100.342-35.5469Q100.342-37.4512 100.122-38.7695Q99.9023-40.0879 99.3896-41.1865Q98.877-42.2852 97.998-43.5059L85.4492-60.6445Q83.252-63.7207 81.4209-65.3809Q79.5898-67.041 77.3193-67.7246Q75.0488-68.4082 71.4355-68.4082L38.6719-68.4082Q35.1074-68.4082 32.8125-67.7246Q30.5176-67.041 28.7109-65.3809Q26.9043-63.7207 24.6582-60.6445L12.1582-43.5059Q11.2793-42.2852 10.7422-41.1865Q10.2051-40.0879 9.98535-38.7695Q9.76562-37.4512 9.76562-35.5469L9.76562-14.3066Q9.76562-8.1543 12.8906-5.07812Q16.0156-2.00195 22.2168-2.00195ZM55.0781-24.7559Q52.2461-24.7559 50.1953-26.1963Q48.1445-27.6367 47.0459-29.8096Q45.9473-31.9824 45.9473-34.1309L45.9473-34.2773Q45.9473-35.6445 45.0684-36.792Q44.1895-37.9395 42.4316-37.9395L18.9941-37.9395Q17.9199-37.9395 17.7002-38.6475Q17.4805-39.3555 17.9688-40.0879L31.4941-58.9355Q32.8125-60.791 34.5215-61.5234Q36.2305-62.2559 38.2324-62.2559L71.875-62.2559Q73.877-62.2559 75.6104-61.5234Q77.3438-60.791 78.6621-58.9355L92.1387-40.0879Q92.627-39.3555 92.3828-38.6475Q92.1387-37.9395 91.1133-37.9395L67.6758-37.9395Q65.918-37.9395 65.0635-36.792Q64.209-35.6445 64.209-34.2773L64.209-34.1309Q64.209-31.9824 63.1104-29.8096Q62.0117-27.6367 59.9609-26.1963Q57.9102-24.7559 55.0781-24.7559ZM70.8496-56.9824L39.2578-56.9824Q38.3789-56.9824 37.8174-56.3965Q37.2559-55.8105 37.2559-54.9805Q37.2559-54.1504 37.8174-53.5645Q38.3789-52.9785 39.2578-52.9785L70.8496-52.9785Q71.7285-52.9785 72.29-53.5645Q72.8516-54.1504 72.8516-54.9805Q72.8516-55.8105 72.29-56.3965Q71.7285-56.9824 70.8496-56.9824ZM75.6348-48.5352L34.4727-48.5352Q33.5938-48.5352 32.9834-47.876Q32.373-47.2168 32.373-46.3379Q32.373-45.5078 32.9834-44.873Q33.5938-44.2383 34.4727-44.2383L75.6348-44.2383Q76.5625-44.2383 77.1484-44.873Q77.7344-45.5078 77.7344-46.3379Q77.7344-47.2168 77.1484-47.876Q76.5625-48.5352 75.6348-48.5352Z"/>
  </g>
  <g id="Light-S" transform="matrix(1 0 0 1 1098.42 696)">
   <path d="M21.3867-2.92969L87.9883-2.92969Q93.8477-2.92969 96.7529-5.83496Q99.6582-8.74023 99.6582-14.4531L99.6582-35.498Q99.6582-37.1094 99.4629-38.208Q99.2676-39.3066 98.8281-40.2344Q98.3887-41.1621 97.6562-42.1875L83.8379-60.6934Q81.8848-63.3789 80.249-64.8193Q78.6133-66.2598 76.5381-66.8457Q74.4629-67.4316 71.2402-67.4316L38.1836-67.4316Q34.9609-67.4316 32.8857-66.8457Q30.8105-66.2598 29.1748-64.8193Q27.5391-63.3789 25.5859-60.6934L11.7676-42.1875Q11.0352-41.1621 10.5713-40.2344Q10.1074-39.3066 9.93652-38.208Q9.76562-37.1094 9.76562-35.498L9.76562-14.4531Q9.76562-8.74023 12.6953-5.83496Q15.625-2.92969 21.3867-2.92969ZM54.7363-24.6094Q51.8066-24.6094 49.6338-26.0498Q47.4609-27.4902 46.2646-29.7607Q45.0684-32.0312 45.0684-34.5215L45.0684-34.7168Q45.0684-35.8887 44.3359-36.792Q43.6035-37.6953 42.1875-37.6953L16.9922-37.6953Q16.1621-37.6953 15.9912-38.2568Q15.8203-38.8184 16.2109-39.4531L30.8594-59.3262Q32.2266-61.1328 33.9111-61.8896Q35.5957-62.6465 37.7441-62.6465L71.6797-62.6465Q73.8281-62.6465 75.5371-61.8896Q77.2461-61.1328 78.5645-59.3262L93.2129-39.4531Q93.6035-38.8184 93.4082-38.2568Q93.2129-37.6953 92.4316-37.6953L67.2363-37.6953Q65.8203-37.6953 65.1123-36.792Q64.4043-35.8887 64.4043-34.7168L64.4043-34.5215Q64.4043-32.0312 63.1836-29.7607Q61.9629-27.4902 59.79-26.0498Q57.6172-24.6094 54.7363-24.6094ZM70.9961-56.7871L38.4277-56.7871Q37.6953-56.7871 37.207-56.2988Q36.7188-55.8105 36.7188-55.0781Q36.7188-54.3457 37.207-53.8818Q37.6953-53.418 38.4277-53.418L70.9961-53.418Q71.7285-53.418 72.1924-53.8818Q72.6562-54.3457 72.6562-55.0781Q72.6562-55.8105 72.1924-56.2988Q71.7285-56.7871 70.9961-56.7871ZM76.3184-47.9492L33.1055-47.9492Q32.373-47.9492 31.8604-47.4121Q31.3477-46.875 31.3477-46.1426Q31.3477-45.4102 31.8604-44.8975Q32.373-44.3848 33.1055-44.3848L76.3184-44.3848Q77.0996-44.3848 77.5879-44.8975Q78.0762-45.4102 78.0762-46.1426Q78.0762-46.875 77.5879-47.4121Q77.0996-47.9492 76.3184-47.9492Z"/>
  </g>
  <g id="Thin-S" transform="matrix(1 0 0 1 802.174 696)">
   <path d="M20.3125-4.19922L88.1836-4.19922Q93.4082-4.19922 96.0693-6.88477Q98.7305-9.57031 98.7305-14.6973L98.7305-35.4004Q98.7305-36.6211 98.584-37.4512Q98.4375-38.2812 98.1201-38.9648Q97.8027-39.6484 97.2168-40.4297L81.7383-60.6934Q80.0781-62.8906 78.6621-64.0625Q77.2461-65.2344 75.4883-65.6982Q73.7305-66.1621 70.9961-66.1621L37.5-66.1621Q34.8145-66.1621 33.0078-65.6982Q31.2012-65.2344 29.8096-64.0625Q28.418-62.8906 26.7578-60.6934L11.2793-40.4297Q10.6934-39.6484 10.3516-38.9648Q10.0098-38.2812 9.8877-37.4512Q9.76562-36.6211 9.76562-35.4004L9.76562-14.6973Q9.76562-9.52148 12.4268-6.86035Q15.0879-4.19922 20.3125-4.19922ZM54.248-24.4629Q51.2695-24.4629 48.9258-25.9033Q46.582-27.3438 45.2393-29.7363Q43.8965-32.1289 43.8965-35.0586L43.8965-35.3027Q43.8965-36.1816 43.3838-36.792Q42.8711-37.4023 41.8457-37.4023L14.4043-37.4023Q13.8184-37.4023 13.6963-37.793Q13.5742-38.1836 13.8672-38.5742L30.0293-59.8633Q31.4453-61.6211 33.0811-62.4023Q34.7168-63.1836 37.0605-63.1836L71.4355-63.1836Q73.7793-63.1836 75.415-62.4023Q77.0508-61.6211 78.4668-59.8633L94.6777-38.5742Q94.9707-38.1836 94.8242-37.793Q94.6777-37.4023 94.1406-37.4023L66.6016-37.4023Q65.625-37.4023 65.1367-36.792Q64.6484-36.1816 64.6484-35.3027L64.6484-35.0586Q64.6484-32.1289 63.3057-29.7363Q61.9629-27.3438 59.5947-25.9033Q57.2266-24.4629 54.248-24.4629ZM71.1426-56.4941L37.3047-56.4941Q36.7676-56.4941 36.4014-56.1279Q36.0352-55.7617 36.0352-55.1758Q36.0352-54.6387 36.4014-54.2969Q36.7676-53.9551 37.3047-53.9551L71.1426-53.9551Q71.6797-53.9551 72.0459-54.2969Q72.4121-54.6387 72.4121-55.1758Q72.4121-55.7617 72.0459-56.1279Q71.6797-56.4941 71.1426-56.4941ZM77.1973-47.1191L31.25-47.1191Q30.7129-47.1191 30.3467-46.7529Q29.9805-46.3867 29.9805-45.8496Q29.9805-45.3125 30.3467-44.9219Q30.7129-44.5312 31.25-44.5312L77.1973-44.5312Q77.7344-44.5312 78.1006-44.9219Q78.4668-45.3125 78.4668-45.8496Q78.4668-46.3867 78.1006-46.7529Q77.7344-47.1191 77.1973-47.1191Z"/>
  </g>
  <g id="Ultralight-S" transform="matrix(1 0 0 1 505.707 696)">
   <path d="M19.7754-4.83398L88.2324-4.83398Q93.2129-4.83398 95.7275-7.39746Q98.2422-9.96094 98.2422-14.7949L98.2422-35.3516Q98.2422-36.377 98.1445-37.0605Q98.0469-37.7441 97.7539-38.3057Q97.4609-38.8672 97.0215-39.502L80.6152-60.7422Q79.1504-62.6465 77.8809-63.6719Q76.6113-64.6973 74.9756-65.0879Q73.3398-65.4785 70.8496-65.4785L37.1582-65.4785Q34.7168-65.4785 33.0811-65.0879Q31.4453-64.6973 30.1514-63.6719Q28.8574-62.6465 27.3926-60.7422L11.0352-39.502Q10.5469-38.8672 10.2539-38.3057Q9.96094-37.7441 9.86328-37.0605Q9.76562-36.377 9.76562-35.3516L9.76562-14.7949Q9.76562-9.91211 12.3047-7.37305Q14.8438-4.83398 19.7754-4.83398ZM54.0039-24.3652Q50.9766-24.3652 48.5352-25.8057Q46.0938-27.2461 44.6777-29.7119Q43.2617-32.1777 43.2617-35.3027L43.2617-35.5957Q43.2617-36.3281 42.8711-36.792Q42.4805-37.2559 41.6992-37.2559L13.0371-37.2559Q12.6465-37.2559 12.5488-37.5244Q12.4512-37.793 12.6465-38.1348L29.6387-60.1074Q31.0547-61.8652 32.666-62.6465Q34.2773-63.4277 36.7188-63.4277L71.2891-63.4277Q73.7305-63.4277 75.3662-62.6465Q77.002-61.8652 78.3691-60.1074L95.4102-38.1348Q95.6055-37.793 95.5078-37.5244Q95.4102-37.2559 95.0195-37.2559L66.3086-37.2559Q65.5762-37.2559 65.1611-36.792Q64.7461-36.3281 64.7461-35.5957L64.7461-35.3027Q64.7461-32.1777 63.3301-29.7119Q61.9141-27.2461 59.4727-25.8057Q57.0312-24.3652 54.0039-24.3652ZM71.2402-56.3477L36.7676-56.3477Q36.2793-56.3477 35.9619-56.0547Q35.6445-55.7617 35.6445-55.2734Q35.6445-54.7852 35.9619-54.5166Q36.2793-54.248 36.7676-54.248L71.2402-54.248Q71.6797-54.248 71.9971-54.5166Q72.3145-54.7852 72.3145-55.2734Q72.3145-55.7617 71.9971-56.0547Q71.6797-56.3477 71.2402-56.3477ZM77.6855-46.7285L30.3223-46.7285Q29.8828-46.7285 29.5898-46.4355Q29.2969-46.1426 29.2969-45.7031Q29.2969-45.2148 29.5898-44.9219Q29.8828-44.6289 30.3223-44.6289L77.6855-44.6289Q78.125-44.6289 78.418-44.9219Q78.7109-45.2148 78.7109-45.7031Q78.7109-46.1426 78.418-46.4355Q78.125-46.7285 77.6855-46.7285Z"/>
  </g>
 </g>
</svg>
