<?xml version="1.0" encoding="UTF-8"?>
<!--Generator: Apple Native CoreSVG 175.5-->
<!DOCTYPE svg
PUBLIC "-//W3C//DTD SVG 1.1//EN"
       "http://www.w3.org/Graphics/SVG/1.1/DTD/svg11.dtd">
<svg version="1.1" xmlns="http://www.w3.org/2000/svg" xmlns:xlink="http://www.w3.org/1999/xlink" width="3300" height="2200">
 <!--glyph: "uni100184.medium", point size: 100.0, font version: "18.0d9e1", template writer version: "84"-->
 <g id="Notes">
  <rect height="2200" id="artboard" style="fill:white;opacity:1" width="3300" x="0" y="0"/>
  <line style="fill:none;stroke:black;opacity:1;stroke-width:0.5;" x1="263" x2="3036" y1="292" y2="292"/>
  <text style="stroke:none;fill:black;font-family:sans-serif;font-size:13;font-weight:bold;" transform="matrix(1 0 0 1 263 322)">Weight/Scale Variations</text>
  <text style="stroke:none;fill:black;font-family:sans-serif;font-size:13;text-anchor:middle;" transform="matrix(1 0 0 1 559.711 322)">Ultralight</text>
  <text style="stroke:none;fill:black;font-family:sans-serif;font-size:13;text-anchor:middle;" transform="matrix(1 0 0 1 856.422 322)">Thin</text>
  <text style="stroke:none;fill:black;font-family:sans-serif;font-size:13;text-anchor:middle;" transform="matrix(1 0 0 1 1153.13 322)">Light</text>
  <text style="stroke:none;fill:black;font-family:sans-serif;font-size:13;text-anchor:middle;" transform="matrix(1 0 0 1 1449.84 322)">Regular</text>
  <text style="stroke:none;fill:black;font-family:sans-serif;font-size:13;text-anchor:middle;" transform="matrix(1 0 0 1 1746.56 322)">Medium</text>
  <text style="stroke:none;fill:black;font-family:sans-serif;font-size:13;text-anchor:middle;" transform="matrix(1 0 0 1 2043.27 322)">Semibold</text>
  <text style="stroke:none;fill:black;font-family:sans-serif;font-size:13;text-anchor:middle;" transform="matrix(1 0 0 1 2339.98 322)">Bold</text>
  <text style="stroke:none;fill:black;font-family:sans-serif;font-size:13;text-anchor:middle;" transform="matrix(1 0 0 1 2636.69 322)">Heavy</text>
  <text style="stroke:none;fill:black;font-family:sans-serif;font-size:13;text-anchor:middle;" transform="matrix(1 0 0 1 2933.4 322)">Black</text>
  <line style="fill:none;stroke:black;opacity:1;stroke-width:0.5;" x1="263" x2="3036" y1="1903" y2="1903"/>
  <g transform="matrix(1 0 0 1 263 1933)">
   <path d="M9.24805 0.830078Q10.8691 0.830078 12.2949 0.214844Q13.7207-0.400391 14.8096-1.49414Q15.8984-2.58789 16.5186-4.01367Q17.1387-5.43945 17.1387-7.05078Q17.1387-8.66211 16.5186-10.0879Q15.8984-11.5137 14.8047-12.6074Q13.7109-13.7012 12.2852-14.3164Q10.8594-14.9316 9.23828-14.9316Q7.62695-14.9316 6.20117-14.3164Q4.77539-13.7012 3.69141-12.6074Q2.60742-11.5137 1.9873-10.0879Q1.36719-8.66211 1.36719-7.05078Q1.36719-5.43945 1.9873-4.01367Q2.60742-2.58789 3.69629-1.49414Q4.78516-0.400391 6.21094 0.214844Q7.63672 0.830078 9.24805 0.830078ZM9.24805-0.654297Q7.91992-0.654297 6.7627-1.14746Q5.60547-1.64062 4.73145-2.51953Q3.85742-3.39844 3.36426-4.56055Q2.87109-5.72266 2.87109-7.05078Q2.87109-8.37891 3.35938-9.54102Q3.84766-10.7031 4.72168-11.582Q5.5957-12.4609 6.75293-12.9541Q7.91016-13.4473 9.23828-13.4473Q10.5762-13.4473 11.7383-12.9541Q12.9004-12.4609 13.7793-11.582Q14.6582-10.7031 15.1514-9.54102Q15.6445-8.37891 15.6445-7.05078Q15.6445-5.72266 15.1514-4.56055Q14.6582-3.39844 13.7793-2.51953Q12.9004-1.64062 11.7432-1.14746Q10.5859-0.654297 9.24805-0.654297ZM5.6543-7.05078Q5.6543-6.72852 5.85938-6.52832Q6.06445-6.32812 6.40625-6.32812L8.51562-6.32812L8.51562-4.20898Q8.51562-3.88672 8.71094-3.67676Q8.90625-3.4668 9.23828-3.4668Q9.56055-3.4668 9.77051-3.67676Q9.98047-3.88672 9.98047-4.20898L9.98047-6.32812L12.0898-6.32812Q12.4219-6.32812 12.627-6.52832Q12.832-6.72852 12.832-7.05078Q12.832-7.38281 12.627-7.58789Q12.4219-7.79297 12.0898-7.79297L9.98047-7.79297L9.98047-9.90234Q9.98047-10.2344 9.77051-10.4443Q9.56055-10.6543 9.23828-10.6543Q8.90625-10.6543 8.71094-10.4443Q8.51562-10.2344 8.51562-9.90234L8.51562-7.79297L6.40625-7.79297Q6.06445-7.79297 5.85938-7.58789Q5.6543-7.38281 5.6543-7.05078Z"/>
  </g>
  <g transform="matrix(1 0 0 1 281.867 1933)">
   <path d="M11.709 2.91016Q13.75 2.91016 15.5518 2.12891Q17.3535 1.34766 18.7305-0.0292969Q20.1074-1.40625 20.8887-3.20801Q21.6699-5.00977 21.6699-7.05078Q21.6699-9.0918 20.8887-10.8936Q20.1074-12.6953 18.7305-14.0723Q17.3535-15.4492 15.5469-16.2305Q13.7402-17.0117 11.6992-17.0117Q9.6582-17.0117 7.85645-16.2305Q6.05469-15.4492 4.68262-14.0723Q3.31055-12.6953 2.5293-10.8936Q1.74805-9.0918 1.74805-7.05078Q1.74805-5.00977 2.5293-3.20801Q3.31055-1.40625 4.6875-0.0292969Q6.06445 1.34766 7.86621 2.12891Q9.66797 2.91016 11.709 2.91016ZM11.709 1.25Q9.98047 1.25 8.47656 0.605469Q6.97266-0.0390625 5.83496-1.17676Q4.69727-2.31445 4.05762-3.81836Q3.41797-5.32227 3.41797-7.05078Q3.41797-8.7793 4.05762-10.2832Q4.69727-11.7871 5.83008-12.9297Q6.96289-14.0723 8.4668-14.7119Q9.9707-15.3516 11.6992-15.3516Q13.4277-15.3516 14.9365-14.7119Q16.4453-14.0723 17.583-12.9297Q18.7207-11.7871 19.3652-10.2832Q20.0098-8.7793 20.0098-7.05078Q20.0098-5.32227 19.3701-3.81836Q18.7305-2.31445 17.5879-1.17676Q16.4453-0.0390625 14.9414 0.605469Q13.4375 1.25 11.709 1.25ZM7.17773-7.05078Q7.17773-6.69922 7.41211-6.47461Q7.64648-6.25 8.01758-6.25L10.8887-6.25L10.8887-3.36914Q10.8887-2.99805 11.1133-2.76855Q11.3379-2.53906 11.6895-2.53906Q12.0605-2.53906 12.29-2.76855Q12.5195-2.99805 12.5195-3.36914L12.5195-6.25L15.4004-6.25Q15.7715-6.25 16.001-6.47461Q16.2305-6.69922 16.2305-7.05078Q16.2305-7.42188 16.001-7.65137Q15.7715-7.88086 15.4004-7.88086L12.5195-7.88086L12.5195-10.752Q12.5195-11.1328 12.29-11.3623Q12.0605-11.5918 11.6895-11.5918Q11.3379-11.5918 11.1133-11.3574Q10.8887-11.123 10.8887-10.752L10.8887-7.88086L8.01758-7.88086Q7.63672-7.88086 7.40723-7.65137Q7.17773-7.42188 7.17773-7.05078Z"/>
  </g>
  <g transform="matrix(1 0 0 1 305.646 1933)">
   <path d="M14.9707 5.66406Q17.0605 5.66406 18.96 5.01465Q20.8594 4.36523 22.4512 3.19336Q24.043 2.02148 25.2197 0.429688Q26.3965-1.16211 27.0459-3.06641Q27.6953-4.9707 27.6953-7.05078Q27.6953-9.14062 27.0459-11.04Q26.3965-12.9395 25.2197-14.5312Q24.043-16.123 22.4512-17.2998Q20.8594-18.4766 18.9551-19.126Q17.0508-19.7754 14.9609-19.7754Q12.8711-19.7754 10.9717-19.126Q9.07227-18.4766 7.48535-17.2998Q5.89844-16.123 4.72168-14.5312Q3.54492-12.9395 2.90039-11.04Q2.25586-9.14062 2.25586-7.05078Q2.25586-4.9707 2.90527-3.06641Q3.55469-1.16211 4.72656 0.429688Q5.89844 2.02148 7.49023 3.19336Q9.08203 4.36523 10.9814 5.01465Q12.8809 5.66406 14.9707 5.66406ZM14.9707 3.84766Q13.1641 3.84766 11.5283 3.2959Q9.89258 2.74414 8.53516 1.74805Q7.17773 0.751953 6.17676-0.610352Q5.17578-1.97266 4.62891-3.6084Q4.08203-5.24414 4.08203-7.05078Q4.08203-8.86719 4.62891-10.5029Q5.17578-12.1387 6.17188-13.501Q7.16797-14.8633 8.52539-15.8594Q9.88281-16.8555 11.5186-17.4023Q13.1543-17.9492 14.9609-17.9492Q16.7773-17.9492 18.4131-17.4023Q20.0488-16.8555 21.4111-15.8594Q22.7734-14.8633 23.7744-13.501Q24.7754-12.1387 25.3223-10.5029Q25.8691-8.86719 25.8691-7.05078Q25.8691-5.24414 25.3223-3.6084Q24.7754-1.97266 23.7793-0.610352Q22.7832 0.751953 21.4209 1.74805Q20.0586 2.74414 18.4229 3.2959Q16.7871 3.84766 14.9707 3.84766ZM9.19922-7.05078Q9.19922-6.66992 9.45801-6.4209Q9.7168-6.17188 10.1172-6.17188L14.0625-6.17188L14.0625-2.2168Q14.0625-1.81641 14.3115-1.55762Q14.5605-1.29883 14.9512-1.29883Q15.3516-1.29883 15.6104-1.55273Q15.8691-1.80664 15.8691-2.2168L15.8691-6.17188L19.8242-6.17188Q20.2246-6.17188 20.4785-6.4209Q20.7324-6.66992 20.7324-7.05078Q20.7324-7.46094 20.4785-7.71484Q20.2246-7.96875 19.8242-7.96875L15.8691-7.96875L15.8691-11.9141Q15.8691-12.3242 15.6104-12.583Q15.3516-12.8418 14.9512-12.8418Q14.5605-12.8418 14.3115-12.583Q14.0625-12.3242 14.0625-11.9141L14.0625-7.96875L10.1172-7.96875Q9.70703-7.96875 9.45312-7.71484Q9.19922-7.46094 9.19922-7.05078Z"/>
  </g>
  <text style="stroke:none;fill:black;font-family:sans-serif;font-size:13;font-weight:bold;" transform="matrix(1 0 0 1 263 1953)">Design Variations</text>
  <text style="stroke:none;fill:black;font-family:sans-serif;font-size:13;" transform="matrix(1 0 0 1 263 1971)">Symbols are supported in up to nine weights and three scales.</text>
  <text style="stroke:none;fill:black;font-family:sans-serif;font-size:13;" transform="matrix(1 0 0 1 263 1989)">For optimal layout with text and other symbols, vertically align</text>
  <text style="stroke:none;fill:black;font-family:sans-serif;font-size:13;" transform="matrix(1 0 0 1 263 2007)">symbols with the adjacent text.</text>
  <line style="fill:none;stroke:#00AEEF;stroke-width:0.5;opacity:1.0;" x1="776" x2="776" y1="1919" y2="1933"/>
  <g transform="matrix(1 0 0 1 776 1933)">
   <path d="M3.31055 0.15625Q3.70117 0.15625 3.91602-0.00976562Q4.13086-0.175781 4.26758-0.585938L5.52734-4.0332L11.2891-4.0332L12.5488-0.585938Q12.6855-0.175781 12.9004-0.00976562Q13.1152 0.15625 13.4961 0.15625Q13.8867 0.15625 14.1162-0.0585938Q14.3457-0.273438 14.3457-0.644531Q14.3457-0.869141 14.2383-1.17188L9.6582-13.3691Q9.48242-13.8184 9.17969-14.043Q8.87695-14.2676 8.4082-14.2676Q7.5-14.2676 7.17773-13.3789L2.59766-1.16211Q2.49023-0.859375 2.49023-0.634766Q2.49023-0.263672 2.70996-0.0537109Q2.92969 0.15625 3.31055 0.15625ZM6.00586-5.51758L8.37891-12.0898L8.42773-12.0898L10.8008-5.51758Z"/>
  </g>
  <line style="fill:none;stroke:#00AEEF;stroke-width:0.5;opacity:1.0;" x1="793.197" x2="793.197" y1="1919" y2="1933"/>
  <text style="stroke:none;fill:black;font-family:sans-serif;font-size:13;font-weight:bold;" transform="matrix(1 0 0 1 776 1953)">Margins</text>
  <text style="stroke:none;fill:black;font-family:sans-serif;font-size:13;" transform="matrix(1 0 0 1 776 1971)">Leading and trailing margins on the left and right side of each symbol</text>
  <text style="stroke:none;fill:black;font-family:sans-serif;font-size:13;" transform="matrix(1 0 0 1 776 1989)">can be adjusted by modifying the x-location of the margin guidelines.</text>
  <text style="stroke:none;fill:black;font-family:sans-serif;font-size:13;" transform="matrix(1 0 0 1 776 2007)">Modifications are automatically applied proportionally to all</text>
  <text style="stroke:none;fill:black;font-family:sans-serif;font-size:13;" transform="matrix(1 0 0 1 776 2025)">scales and weights.</text>
  <g transform="matrix(1 0 0 1 1289 1933)">
   <path d="M2.8418 1.86523L4.54102 3.57422Q5.18555 4.22852 5.90332 4.17969Q6.62109 4.13086 7.31445 3.35938L18.0078-8.42773L17.041-9.4043L6.42578 2.27539Q6.16211 2.57812 5.89355 2.61719Q5.625 2.65625 5.27344 2.30469L4.10156 1.14258Q3.75 0.791016 3.79395 0.522461Q3.83789 0.253906 4.14062-0.0195312L15.6152-10.8203L14.6387-11.7871L3.04688-0.898438Q2.30469-0.214844 2.25098 0.498047Q2.19727 1.21094 2.8418 1.86523ZM9.25781-16.3281Q8.94531-16.0254 8.90625-15.6348Q8.86719-15.2441 9.04297-14.9512Q9.21875-14.6777 9.55566-14.541Q9.89258-14.4043 10.3809-14.5215Q11.4746-14.7754 12.5977-14.7314Q13.7207-14.6875 14.7949-13.9844L14.209-12.5293Q13.9551-11.9043 14.0674-11.4404Q14.1797-10.9766 14.5801-10.5664L16.875-8.25195Q17.2363-7.88086 17.5781-7.82227Q17.9199-7.76367 18.3398-7.8418L19.4043-8.03711L20.0684-7.36328L20.0293-6.80664Q20-6.43555 20.1221-6.12305Q20.2441-5.81055 20.6055-5.44922L21.3672-4.70703Q21.7285-4.3457 22.1533-4.33105Q22.5781-4.31641 22.9297-4.66797L25.8398-7.58789Q26.1914-7.93945 26.1816-8.35449Q26.1719-8.76953 25.8105-9.13086L25.0391-9.89258Q24.6875-10.2539 24.3799-10.3857Q24.0723-10.5176 23.7109-10.4883L23.1348-10.4395L22.4902-11.0742L22.7344-12.1973Q22.832-12.6172 22.6953-12.9834Q22.5586-13.3496 22.1191-13.7891L19.9219-15.9766Q18.6719-17.2168 17.2607-17.8369Q15.8496-18.457 14.4189-18.4814Q12.9883-18.5059 11.665-17.959Q10.3418-17.4121 9.25781-16.3281ZM10.752-15.957Q11.6602-16.6211 12.7002-16.9043Q13.7402-17.1875 14.8047-17.085Q15.8691-16.9824 16.8701-16.5137Q17.8711-16.0449 18.7012-15.2051L21.1328-12.793Q21.3086-12.6172 21.3525-12.4512Q21.3965-12.2852 21.3379-12.0312L21.0156-10.5469L22.5195-9.0625L23.5059-9.12109Q23.6914-9.13086 23.7891-9.09668Q23.8867-9.0625 24.0332-8.91602L24.6094-8.33984L22.168-5.89844L21.5918-6.47461Q21.4453-6.62109 21.4062-6.71875Q21.3672-6.81641 21.377-7.01172L21.4453-7.98828L19.9512-9.47266L18.4277-9.21875Q18.1836-9.16992 18.042-9.2041Q17.9004-9.23828 17.7148-9.41406L15.7129-11.416Q15.5176-11.5918 15.4932-11.7529Q15.4688-11.9141 15.5859-12.1875L16.4648-14.2773Q15.293-15.3711 13.8281-15.791Q12.3633-16.2109 10.8398-15.7617Q10.7227-15.7324 10.6885-15.8057Q10.6543-15.8789 10.752-15.957Z"/>
  </g>
  <text style="stroke:none;fill:black;font-family:sans-serif;font-size:13;font-weight:bold;" transform="matrix(1 0 0 1 1289 1953)">Exporting</text>
  <text style="stroke:none;fill:black;font-family:sans-serif;font-size:13;" transform="matrix(1 0 0 1 1289 1971)">Symbols should be outlined when exporting to ensure the</text>
  <text style="stroke:none;fill:black;font-family:sans-serif;font-size:13;" transform="matrix(1 0 0 1 1289 1989)">design is preserved when submitting to Xcode.</text>
  <text id="template-version" style="stroke:none;fill:black;font-family:sans-serif;font-size:13;text-anchor:end;" transform="matrix(1 0 0 1 3036 1933)">Template v.2.0</text>
  <text style="stroke:none;fill:black;font-family:sans-serif;font-size:13;text-anchor:end;" transform="matrix(1 0 0 1 3036 1951)">Requires Xcode 12 or greater</text>
  <text id="descriptive-name" style="stroke:none;fill:black;font-family:sans-serif;font-size:13;text-anchor:end;" transform="matrix(1 0 0 1 3036 1969)">Generated from xmark</text>
  <text style="stroke:none;fill:black;font-family:sans-serif;font-size:13;text-anchor:end;" transform="matrix(1 0 0 1 3036 1987)">Typeset at 100 points</text>
  <text style="stroke:none;fill:black;font-family:sans-serif;font-size:13;" transform="matrix(1 0 0 1 263 726)">Small</text>
  <text style="stroke:none;fill:black;font-family:sans-serif;font-size:13;" transform="matrix(1 0 0 1 263 1156)">Medium</text>
  <text style="stroke:none;fill:black;font-family:sans-serif;font-size:13;" transform="matrix(1 0 0 1 263 1586)">Large</text>
 </g>
 <g id="Guides">
  <g id="H-reference" style="fill:#27AAE1;stroke:none;" transform="matrix(1 0 0 1 339 696)">
   <path d="M0.993347 0L3.6377 0L29.3282-67.1326L30.0301-67.1326L30.0301-70.459L28.1227-70.459ZM11.6882-24.4797L46.9818-24.4797L46.2311-26.7288L12.4382-26.7288ZM55.1193 0L57.7637 0L30.6381-70.459L29.4327-70.459L29.4327-67.1326Z"/>
  </g>
  <line id="Baseline-S" style="fill:none;stroke:#27AAE1;opacity:1;stroke-width:0.5;" x1="263" x2="3036" y1="696" y2="696"/>
  <line id="Capline-S" style="fill:none;stroke:#27AAE1;opacity:1;stroke-width:0.5;" x1="263" x2="3036" y1="625.541" y2="625.541"/>
  <g id="H-reference" style="fill:#27AAE1;stroke:none;" transform="matrix(1 0 0 1 339 1126)">
   <path d="M0.993347 0L3.6377 0L29.3282-67.1326L30.0301-67.1326L30.0301-70.459L28.1227-70.459ZM11.6882-24.4797L46.9818-24.4797L46.2311-26.7288L12.4382-26.7288ZM55.1193 0L57.7637 0L30.6381-70.459L29.4327-70.459L29.4327-67.1326Z"/>
  </g>
  <line id="Baseline-M" style="fill:none;stroke:#27AAE1;opacity:1;stroke-width:0.5;" x1="263" x2="3036" y1="1126" y2="1126"/>
  <line id="Capline-M" style="fill:none;stroke:#27AAE1;opacity:1;stroke-width:0.5;" x1="263" x2="3036" y1="1055.54" y2="1055.54"/>
  <g id="H-reference" style="fill:#27AAE1;stroke:none;" transform="matrix(1 0 0 1 339 1556)">
   <path d="M0.993347 0L3.6377 0L29.3282-67.1326L30.0301-67.1326L30.0301-70.459L28.1227-70.459ZM11.6882-24.4797L46.9818-24.4797L46.2311-26.7288L12.4382-26.7288ZM55.1193 0L57.7637 0L30.6381-70.459L29.4327-70.459L29.4327-67.1326Z"/>
  </g>
  <line id="Baseline-L" style="fill:none;stroke:#27AAE1;opacity:1;stroke-width:0.5;" x1="263" x2="3036" y1="1556" y2="1556"/>
  <line id="Capline-L" style="fill:none;stroke:#27AAE1;opacity:1;stroke-width:0.5;" x1="263" x2="3036" y1="1485.54" y2="1485.54"/>
  <line id="left-margin" style="fill:none;stroke:#00AEEF;stroke-width:0.5;opacity:1.0;" x1="1398.69" x2="1398.69" y1="1030.79" y2="1150.12"/>
  <line id="right-margin" style="fill:none;stroke:#00AEEF;stroke-width:0.5;opacity:1.0;" x1="1501" x2="1501" y1="1030.79" y2="1150.12"/>
 </g>
 <g id="Symbols">
  <g id="Black-L" transform="matrix(1 0 0 1 2863.85 1556)">
   <path d="M19.4903 14.8986Q22.9162 18.3037 27.9842 18.2745Q33.0523 18.2453 36.225 15.0738L69.5758-18.299L102.832 15.0154Q106.12 18.3621 111.101 18.3141Q116.081 18.2661 119.546 14.8402Q122.951 11.4131 122.98 6.44307Q123.009 1.47305 119.721-1.87484L86.4649-35.1881L119.721-68.4221Q123.009-71.7908 122.99-76.7712Q122.972-81.7517 119.546-85.1568Q116.06-88.5631 111.09-88.6215Q106.12-88.6799 102.832-85.332L69.5758-52.0772L36.225-85.3904Q33.0523-88.5631 27.9738-88.5923Q22.8954-88.6215 19.4903-85.2152Q16.0256-81.7893 16.084-76.7316Q16.1424-71.674 19.3151-68.4805L52.6867-35.1881L19.3151-1.81643Q16.1424 1.35624 16.084 6.42427Q16.0256 11.4923 19.4903 14.8986Z"/>
  </g>
  <g id="Heavy-L" transform="matrix(1 0 0 1 2568.03 1556)">
   <path d="M19.043 14.4569Q22.0266 17.4103 26.4194 17.388Q30.8122 17.3656 33.5927 14.5908L68.678-20.5303L103.71 14.5461Q106.574 17.4549 110.9 17.4254Q115.226 17.3959 118.229 14.4123Q121.183 11.423 121.205 7.11228Q121.227 2.80155 118.363-0.112858L83.3313-35.1836L118.363-70.1796Q121.227-73.1243 121.22-77.4501Q121.213-81.7759 118.229-84.7293Q115.195-87.6884 110.885-87.733Q106.574-87.7776 103.71-84.8632L68.678-49.8371L33.5927-84.9078Q30.8122-87.6884 26.4043-87.7107Q21.9965-87.733 19.043-84.774Q16.0394-81.7903 16.084-77.4127Q16.1286-73.035 18.9091-70.2243L54.0245-35.1836L18.9091-0.0682353Q16.1286 2.71231 16.084 7.10504Q16.0394 11.4978 19.043 14.4569Z"/>
  </g>
  <g id="Bold-L" transform="matrix(1 0 0 1 2272.43 1556)">
   <path d="M18.4972 13.9039Q20.9351 16.3037 24.5016 16.2891Q28.0681 16.2745 30.3645 13.9915L67.5639-23.2591L104.756 13.9623Q107.098 16.3329 110.62 16.3228Q114.143 16.3126 116.585 13.8747Q118.985 11.4234 119 7.91977Q119.014 4.41615 116.673 2.03216L79.4807-35.1759L116.673-72.317Q119.014-74.7391 119.019-78.2616Q119.023-81.7842 116.585-84.1843Q114.105-86.5975 110.601-86.6267Q107.098-86.6559 104.756-84.2719L67.5639-47.093L30.3645-84.3011Q28.0681-86.5975 24.4827-86.6121Q20.8973-86.6267 18.4972-84.2135Q16.0548-81.7755 16.084-78.2281Q16.1132-74.6807 18.4096-72.3462L55.6469-35.1759L18.4096 2.06136Q16.1132 4.35775 16.084 7.92411Q16.0548 11.4905 18.4972 13.9039Z"/>
  </g>
  <g id="Semibold-L" transform="matrix(1 0 0 1 1976.48 1556)">
   <path d="M18.1209 13.5226Q20.1827 15.5409 23.1795 15.5316Q26.1763 15.5223 28.1389 13.5784L66.7959-25.1404L105.477 13.5598Q107.459 15.5595 110.428 15.5627Q113.397 15.5659 115.452 13.5041Q117.47 11.4236 117.48 8.47645Q117.489 5.52925 115.508 3.51092L76.8261-35.1707L115.508-73.7904Q117.489-75.8523 117.501-78.8211Q117.514-81.7899 115.452-83.8085Q113.353-85.8454 110.406-85.864Q107.459-85.8825 105.477-83.8642L66.7959-45.2012L28.1389-83.8828Q26.1763-85.8454 23.1579-85.8547Q20.1395-85.864 18.1209-83.8271Q16.0654-81.7653 16.084-78.7902Q16.1026-75.8151 18.0652-73.809L56.7653-35.1707L18.0652 3.52949Q16.1026 5.4921 16.084 8.48877Q16.0654 11.4854 18.1209 13.5226Z"/>
  </g>
  <g id="Medium-L" transform="matrix(1 0 0 1 1680.35 1556)">
   <path d="M17.8356 13.2336Q19.6121 14.9625 22.177 14.9573Q24.7419 14.952 26.4514 13.2651L66.2135-26.5669L106.024 13.2546Q107.732 14.973 110.281 14.9863Q112.831 14.9996 114.593 13.2231Q116.322 11.4238 116.327 8.89854Q116.332 6.37324 114.624 4.63218L74.8133-35.1666L114.624-74.9077Q116.332-76.6964 116.351-79.2453Q116.369-81.7942 114.593-83.5236Q112.783-85.2751 110.258-85.2856Q107.732-85.2962 106.024-83.5551L66.2135-43.7668L26.4514-83.5656Q24.7419-85.2751 22.1534-85.2804Q19.5649-85.2856 17.8356-83.5341Q16.0735-81.7575 16.084-79.2164Q16.0945-76.6754 17.804-74.9182L57.6134-35.1666L17.804 4.64269Q16.0945 6.35222 16.084 8.91692Q16.0735 11.4816 17.8356 13.2336Z"/>
  </g>
  <g id="Regular-L" transform="matrix(1 0 0 1 1384.39 1556)">
   <path d="M17.4634 12.8565Q18.8679 14.2081 20.8694 14.2081Q22.8709 14.2081 24.2504 12.8565L65.4539-28.4274L106.737 12.8565Q108.089 14.2081 110.091 14.2346Q112.092 14.2611 113.472 12.8565Q114.823 11.4241 114.823 9.4491Q114.823 7.47411 113.472 6.09469L72.1879-35.1614L113.472-76.365Q114.823-77.7974 114.85-79.7986Q114.876-81.7999 113.472-83.1519Q112.039-84.5313 110.064-84.5313Q108.089-84.5313 106.737-83.1519L65.4539-41.8958L24.2504-83.1519Q22.8709-84.5313 20.8432-84.5313Q18.8154-84.5313 17.4634-83.1519Q16.084-81.7474 16.084-79.7724Q16.084-77.7974 17.4634-76.365L58.7195-35.1614L17.4634 6.09469Q16.084 7.47411 16.084 9.47537Q16.084 11.4766 17.4634 12.8565Z"/>
  </g>
  <g id="Light-L" transform="matrix(1 0 0 1 1088.46 1556)">
   <path d="M17.1389 12.4368Q18.1808 13.4446 19.6766 13.4446Q21.1724 13.4446 22.2273 12.4368L64.6715-30.0878L107.195 12.4368Q108.204 13.4446 109.7 13.4616Q111.196 13.4787 112.25 12.4368Q113.258 11.3478 113.258 9.869Q113.258 8.39022 112.25 7.33531L69.7259-35.1422L112.25-77.5863Q113.258-78.6753 113.275-80.1708Q113.292-81.6662 112.25-82.6748Q111.161-83.7297 109.683-83.7297Q108.204-83.7297 107.195-82.6748L64.6715-40.1973L22.2273-82.6748Q21.1724-83.7297 19.66-83.7297Q18.1475-83.7297 17.1389-82.6748Q16.084-81.6329 16.084-80.1541Q16.084-78.6753 17.1389-77.5863L59.6164-35.1422L17.1389 7.33531Q16.084 8.39022 16.084 9.88565Q16.084 11.3811 17.1389 12.4368Z"/>
  </g>
  <g id="Thin-L" transform="matrix(1 0 0 1 792.786 1556)">
   <path d="M16.7097 11.8816Q17.2719 12.4348 18.099 12.4348Q18.926 12.4348 19.5517 11.8816L63.6367-32.2838L107.801 11.8816Q108.355 12.4348 109.182 12.4393Q110.009 12.4439 110.635 11.8816Q111.188 11.2469 111.188 10.4244Q111.188 9.60185 110.635 8.97612L66.4697-35.1167L110.635-79.2017Q111.188-79.8365 111.193-80.6629Q111.197-81.4894 110.635-82.0437Q110-82.6695 109.178-82.6695Q108.355-82.6695 107.801-82.0437L63.6367-37.9509L19.5517-82.0437Q18.926-82.6695 18.095-82.6695Q17.2641-82.6695 16.7097-82.0437Q16.084-81.4815 16.084-80.659Q16.084-79.8365 16.7097-79.2017L60.8026-35.1167L16.7097 8.97612Q16.084 9.60185 16.084 10.4283Q16.084 11.2547 16.7097 11.8816Z"/>
  </g>
  <g id="Ultralight-L" transform="matrix(1 0 0 1 496.605 1556)">
   <path d="M16.4899 11.5973Q16.8064 11.9176 17.2909 11.9176Q17.7754 11.9176 18.1813 11.5973L63.1067-33.4085L108.111 11.5973Q108.433 11.9176 108.917 11.9157Q109.402 11.9139 109.808 11.5973Q110.128 11.1952 110.128 10.7088Q110.128 10.2224 109.808 9.81654L64.8019-35.1037L109.808-80.0291Q110.128-80.4312 110.126-80.915Q110.124-81.3988 109.808-81.7205Q109.406-82.1264 108.919-82.1264Q108.433-82.1264 108.111-81.7205L63.1067-36.8003L18.1813-81.7205Q17.7754-82.1264 17.2935-82.1264Q16.8116-82.1264 16.4899-81.7205Q16.084-81.4039 16.084-80.9176Q16.084-80.4312 16.4899-80.0291L61.4101-35.1037L16.4899 9.81654Q16.084 10.2224 16.084 10.7062Q16.084 11.19 16.4899 11.5973Z"/>
  </g>
  <g id="Black-M" transform="matrix(1 0 0 1 2878.86 1126)">
   <path d="M15.4404 3.92963Q18.4256 6.90934 22.8638 6.88079Q27.3021 6.85224 30.0531 4.10092L54.5689-20.4201L78.9757 4.04382Q81.8412 6.96643 86.1938 6.91208Q90.5464 6.85773 93.583 3.87253Q96.5627 0.887623 96.5912-3.46225Q96.6198-7.81212 93.7542-10.7344L69.3475-35.1986L93.7542-59.6002Q96.6198-62.528 96.594-66.8806Q96.5682-71.2333 93.583-74.213Q90.541-77.1924 86.1911-77.2495Q81.8412-77.3066 78.9757-74.3843L54.5689-49.9772L30.0531-74.4414Q27.3021-77.1924 22.8611-77.2209Q18.4201-77.2495 15.4404-74.2701Q12.4038-71.2849 12.4609-66.8494Q12.518-62.4138 15.2691-59.6573L39.7903-35.1986L15.2691-10.6774Q12.518-7.92632 12.4609-3.48805Q12.4038 0.950213 15.4404 3.92963Z"/>
  </g>
  <g id="Heavy-M" transform="matrix(1 0 0 1 2582.95 1126)">
   <path d="M15.0331 3.53653Q17.6193 6.10637 21.4441 6.08456Q25.2689 6.06275 27.6666 3.66739L53.7634-22.4481L79.7916 3.62377Q82.2743 6.14999 86.0336 6.11458Q89.793 6.07918 92.4087 3.49291Q94.9786 0.904348 95.0004-2.84679Q95.0222-6.59794 92.5396-9.12645L66.5113-35.196L92.5396-61.2056Q95.0222-63.7506 95.0086-67.5099Q94.995-71.2693 92.4087-73.8391Q89.7765-76.4113 86.0254-76.4549Q82.2743-76.4985 79.7916-73.97L53.7634-47.944L27.6666-74.0136Q25.2689-76.4113 21.4359-76.4331Q17.6029-76.4549 15.0331-73.8827Q12.4173-71.2965 12.4609-67.4799Q12.5046-63.6633 14.9022-61.2493L41.0154-35.196L14.9022-9.08282Q12.5046-6.68518 12.4609-2.86041Q12.4173 0.964361 15.0331 3.53653Z"/>
  </g>
  <g id="Bold-M" transform="matrix(1 0 0 1 2287.13 1126)">
   <path d="M14.5775 3.09679Q16.7175 5.20813 19.856 5.19386Q22.9945 5.17958 24.9969 3.18243L52.8623-24.7168L80.7044 3.15389Q82.7587 5.23668 85.8544 5.22246Q88.9501 5.20825 91.0952 3.06824Q93.2065 0.923058 93.2208-2.15832Q93.2351-5.2397 91.1808-7.32766L63.3387-35.1932L91.1808-63.0015Q93.2351-65.1182 93.2351-68.2138Q93.2352-71.3095 91.0952-73.4209Q88.9214-75.5374 85.8401-75.566Q82.7587-75.5945 80.7044-73.5066L52.8623-45.6696L24.9969-73.5351Q22.9945-75.5374 19.8417-75.5517Q16.6889-75.566 14.5775-73.4495Q12.4324-71.3095 12.4609-68.1853Q12.4895-65.0611 14.4918-63.0301L42.3859-35.1932L14.4918-7.29912Q12.4895-5.29679 12.4609-2.1583Q12.4324 0.980187 14.5775 3.09679Z"/>
  </g>
  <g id="Semibold-M" transform="matrix(1 0 0 1 1991.03 1126)">
   <path d="M14.2634 2.79364Q16.0957 4.58889 18.7611 4.57981Q21.4266 4.57073 23.1564 2.84811L52.2411-26.2808L81.3336 2.82995Q83.0927 4.60705 85.7309 4.60744Q88.369 4.60784 90.1896 2.77548Q91.9849 0.935956 91.994-1.68369Q92.003-4.30333 90.2441-6.08759L61.1515-35.1912L90.2441-64.2396Q92.003-66.061 92.0125-68.6991Q92.022-71.3373 90.1896-73.1326Q88.3319-74.9351 85.7123-74.9532Q83.0927-74.9714 81.3336-73.1871L52.2411-44.1017L23.1564-73.2053Q21.4266-74.9351 18.7427-74.9441Q16.0587-74.9532 14.2634-73.1508Q12.4428-71.3184 12.4609-68.6715Q12.4791-66.0247 14.2089-64.2578L43.3306-35.1912L14.2089-6.06944Q12.4791-4.33965 12.4609-1.67427Q12.4428 0.991098 14.2634 2.79364Z"/>
  </g>
  <g id="Medium-M" transform="matrix(1 0 0 1 1694.79 1126)">
   <path d="M14.0252 2.56377Q15.6243 4.11936 17.931 4.11422Q20.2377 4.10908 21.7608 2.5946L51.7701-27.4667L81.8107 2.58433Q83.3459 4.12964 85.6372 4.14111Q87.9285 4.15258 89.503 2.55349Q91.0586 0.945737 91.0637-1.3238Q91.0689-3.59334 89.5338-5.14732L59.4931-35.1897L89.5338-65.1784Q91.0689-66.7759 91.0855-69.0671Q91.1021-71.3583 89.503-72.914Q87.885-74.4783 85.6154-74.4886Q83.3459-74.4988 81.8107-72.9449L51.7701-42.9128L21.7608-72.9551Q20.2377-74.4783 17.9093-74.4834Q15.5809-74.4886 14.0252-72.9243Q12.4507-71.3252 12.4609-69.0403Q12.4712-66.7553 13.9944-65.1887L44.047-35.1897L13.9944-5.13704Q12.4712-3.6139 12.4609-1.30726Q12.4507 0.999371 14.0252 2.56377Z"/>
  </g>
  <g id="Regular-M" transform="matrix(1 0 0 1 1398.69 1126)">
   <path d="M13.7145 2.26395Q15.0094 3.50692 16.8482 3.50692Q18.687 3.50692 19.9406 2.26395L51.1557-29.0135L82.433 2.26395Q83.6762 3.50692 85.515 3.53285Q87.3538 3.55877 88.6074 2.26395Q89.8504 0.958493 89.8504-0.854388Q89.8504-2.66727 88.6074-3.92088L57.3299-35.1877L88.6074-66.4029Q89.8504-67.7083 89.8763-69.547Q89.9022-71.3857 88.6074-72.6289Q87.3019-73.8825 85.4891-73.8825Q83.6762-73.8825 82.433-72.6289L51.1557-41.3621L19.9406-72.6289Q18.687-73.8825 16.8223-73.8825Q14.9577-73.8825 13.7145-72.6289Q12.4609-71.3341 12.4609-69.5212Q12.4609-67.7083 13.7145-66.4029L44.9814-35.1877L13.7145-3.92088Q12.4609-2.66727 12.4609-0.828554Q12.4609 1.01016 13.7145 2.26395Z"/>
  </g>
  <g id="Light-M" transform="matrix(1 0 0 1 1102.68 1126)">
   <path d="M13.4236 1.88763Q14.3933 2.82242 15.7787 2.82242Q17.1642 2.82242 18.1268 1.88763L50.4543-30.5021L82.8436 1.88763Q83.7788 2.82242 85.1642 2.83987Q86.5497 2.85731 87.5124 1.88763Q88.4472 0.890072 88.4472-0.477927Q88.4472-1.84593 87.5124-2.8086L55.1226-35.1705L87.5124-67.4979Q88.4472-68.4954 88.4646-69.8807Q88.482-71.2659 87.5124-72.2011Q86.5148-73.1638 85.1468-73.1638Q83.7788-73.1638 82.8436-72.2011L50.4543-39.8393L18.1268-72.2011Q17.1642-73.1638 15.7615-73.1638Q14.3589-73.1638 13.4236-72.2011Q12.4609-71.2314 12.4609-69.8634Q12.4609-68.4954 13.4236-67.4979L45.7855-35.1705L13.4236-2.8086Q12.4609-1.84593 12.4609-0.460718Q12.4609 0.924491 13.4236 1.88763Z"/>
  </g>
  <g id="Thin-M" transform="matrix(1 0 0 1 806.896 1126)">
   <path d="M13.0388 1.38992Q13.5785 1.91712 14.3643 1.91712Q15.1501 1.91712 15.728 1.38992L49.5265-32.4709L83.3865 1.38992Q83.9145 1.91712 84.7004 1.92334Q85.4862 1.92957 86.0641 1.38992Q86.5913 0.799579 86.5913 0.0199726Q86.5913-0.759634 86.0641-1.33753L52.2033-35.1476L86.0641-68.9462Q86.5913-69.5365 86.5975-70.3219Q86.6037-71.1073 86.0641-71.6354Q85.4738-72.2132 84.6942-72.2132Q83.9145-72.2132 83.3865-71.6354L49.5265-37.8252L15.728-71.6354Q15.1501-72.2132 14.3585-72.2132Q13.5669-72.2132 13.0388-71.6354Q12.4609-71.0957 12.4609-70.3161Q12.4609-69.5365 13.0388-68.9462L46.8489-35.1476L13.0388-1.33753Q12.4609-0.759634 12.4609 0.0257756Q12.4609 0.811185 13.0388 1.38992Z"/>
  </g>
  <g id="Ultralight-M" transform="matrix(1 0 0 1 510.66 1126)">
   <path d="M12.8417 1.135Q13.1611 1.45342 13.6398 1.45342Q14.1186 1.45342 14.4994 1.135L49.0514-33.4793L83.6646 1.135Q83.9841 1.45342 84.4628 1.4539Q84.9415 1.45438 85.3223 1.135Q85.6407 0.753229 85.6407 0.274994Q85.6407-0.203241 85.3223-0.584048L50.708-35.136L85.3223-69.6879Q85.6407-70.0697 85.6412-70.5479Q85.6417-71.0261 85.3223-71.3456Q84.9405-71.7264 84.4623-71.7264Q83.9841-71.7264 83.6646-71.3456L49.0514-36.7937L14.4994-71.3456Q14.1186-71.7264 13.6399-71.7264Q13.1612-71.7264 12.8417-71.3456Q12.4609-71.0262 12.4609-70.5479Q12.4609-70.0697 12.8417-69.6879L47.3937-35.136L12.8417-0.584048Q12.4609-0.203241 12.4609 0.274955Q12.4609 0.753151 12.8417 1.135Z"/>
  </g>
  <g id="Black-S" transform="matrix(1 0 0 1 2890.46 696)">
   <path d="M12.207-4.44336Q14.6484-2.00195 18.2861-2.02637Q21.9238-2.05078 24.1699-4.29688L42.9688-23.0957L61.6699-4.3457Q64.0137-1.95312 67.5781-2.00195Q71.1426-2.05078 73.6328-4.49219Q76.0742-6.93359 76.0986-10.498Q76.123-14.0625 73.7793-16.4551L55.0781-35.2051L73.7793-53.9062Q76.123-56.2988 76.0986-59.8633Q76.0742-63.4277 73.6328-65.8691Q71.1426-68.3105 67.5781-68.3594Q64.0137-68.4082 61.6699-66.0156L42.9688-47.3145L24.1699-66.0645Q21.9238-68.3105 18.2861-68.335Q14.6484-68.3594 12.207-65.918Q9.7168-63.4766 9.76562-59.8389Q9.81445-56.2012 12.0605-53.9551L30.8594-35.2051L12.0605-16.4062Q9.81445-14.1602 9.76562-10.5225Q9.7168-6.88477 12.207-4.44336Z"/>
  </g>
  <g id="Heavy-S" transform="matrix(1 0 0 1 2594.34 696)">
   <path d="M11.8959-4.73147Q14.0376-2.60123 17.2086-2.61988Q20.3795-2.63853 22.3606-4.61956L42.3695-24.64L62.3153-4.65686Q64.3709-2.56392 67.4859-2.59546Q70.6009-2.627 72.7685-4.76877Q74.8987-6.91054 74.9174-10.0198Q74.936-13.129 72.8804-15.222L52.9346-35.2051L72.8804-55.1394Q74.936-57.2438 74.9231-60.3588Q74.9102-63.4738 72.7685-65.6041Q70.5894-67.7343 67.4802-67.7716Q64.3709-67.8089 62.3153-65.716L42.3695-45.7702L22.3606-65.7533Q20.3795-67.7343 17.2028-67.753Q14.0261-67.7716 11.8959-65.6414Q9.72832-63.4996 9.76562-60.3344Q9.80293-57.1692 11.784-55.1767L31.8044-35.2051L11.784-15.1847Q9.80293-13.2036 9.76562-10.0327Q9.72832-6.86172 11.8959-4.73147Z"/>
  </g>
  <g id="Bold-S" transform="matrix(1 0 0 1 2298.29 696)">
   <path d="M11.5479-5.05371Q13.3545-3.27148 16.0034-3.28369Q18.6523-3.2959 20.3369-4.98047L41.6992-26.3672L63.0371-5.00488Q64.7705-3.24707 67.3828-3.25928Q69.9951-3.27148 71.8018-5.07812Q73.584-6.88477 73.5962-9.48486Q73.6084-12.085 71.875-13.8428L50.5371-35.2051L71.875-56.5186Q73.6084-58.3008 73.6084-60.9131Q73.6084-63.5254 71.8018-65.3076Q69.9707-67.0898 67.3706-67.1143Q64.7705-67.1387 63.0371-65.3809L41.6992-44.043L20.3369-65.4053Q18.6523-67.0898 15.9912-67.1021Q13.3301-67.1143 11.5479-65.332Q9.74121-63.5254 9.76562-60.8887Q9.79004-58.252 11.4746-56.543L32.8613-35.2051L11.4746-13.8184Q9.79004-12.1338 9.76562-9.48486Q9.74121-6.83594 11.5479-5.05371Z"/>
  </g>
  <g id="Semibold-S" transform="matrix(1 0 0 1 2002.04 696)">
   <path d="M11.3079-5.27588Q12.8835-3.73359 15.1725-3.74136Q17.4615-3.74912 18.9417-5.2293L41.2371-27.558L63.5348-5.24482Q65.046-3.71807 67.3117-3.71694Q69.5774-3.71582 71.1353-5.29141Q72.6775-6.86699 72.6853-9.11606Q72.6931-11.3651 71.1818-12.8919L48.8842-35.2051L71.1818-57.4694Q72.6931-59.0295 72.702-61.2952Q72.7108-63.5609 71.1353-65.1032Q69.5441-66.6455 67.2951-66.661Q65.046-66.6766 63.5348-65.1498L41.2371-42.8521L18.9417-65.1653Q17.4615-66.6455 15.1559-66.6533Q12.8502-66.661 11.3079-65.1188Q9.7501-63.5432 9.76562-61.2708Q9.78115-58.9984 11.2613-57.485L33.59-35.2051L11.2613-12.8764Q9.78115-11.3962 9.76562-9.10718Q9.7501-6.81816 11.3079-5.27588Z"/>
  </g>
  <g id="Medium-S" transform="matrix(1 0 0 1 1705.67 696)">
   <path d="M11.126-5.44434Q12.5264-4.08398 14.5425-4.08838Q16.5586-4.09277 17.8838-5.41797L40.8867-28.4609L63.9121-5.42676Q65.2549-4.0752 67.2578-4.06396Q69.2607-4.05273 70.6299-5.45312Q71.9902-6.85352 71.9946-8.83643Q71.999-10.8193 70.6562-12.1709L47.6309-35.2051L70.6562-58.1904Q71.999-59.582 72.0146-61.585Q72.0303-63.5879 70.6299-64.9482Q69.2207-66.3086 67.2378-66.3174Q65.2549-66.3262 63.9121-64.9746L40.8867-41.9492L17.8838-64.9834Q16.5586-66.3086 14.5225-66.313Q12.4863-66.3174 11.126-64.957Q9.75684-63.5566 9.76562-61.5605Q9.77441-59.5645 11.0996-58.1992L34.1426-35.2051L11.0996-12.1621Q9.77441-10.8369 9.76562-8.8208Q9.75684-6.80469 11.126-5.44434Z"/>
  </g>
  <g id="Regular-S" transform="matrix(1 0 0 1 1409.41 696)">
   <path d="M10.8887-5.66406Q12.0605-4.54102 13.7207-4.54102Q15.3809-4.54102 16.5039-5.66406L40.4297-29.6387L64.4043-5.66406Q65.5273-4.54102 67.1875-4.5166Q68.8477-4.49219 69.9707-5.66406Q71.0938-6.83594 71.0938-8.47168Q71.0938-10.1074 69.9707-11.2305L45.9961-35.2051L69.9707-59.1309Q71.0938-60.3027 71.1182-61.9629Q71.1426-63.623 69.9707-64.7461Q68.7988-65.8691 67.1631-65.8691Q65.5273-65.8691 64.4043-64.7461L40.4297-40.7715L16.5039-64.7461Q15.3809-65.8691 13.6963-65.8691Q12.0117-65.8691 10.8887-64.7461Q9.76562-63.5742 9.76562-61.9385Q9.76562-60.3027 10.8887-59.1309L34.8633-35.2051L10.8887-11.2305Q9.76562-10.1074 9.76562-8.44727Q9.76562-6.78711 10.8887-5.66406Z"/>
  </g>
  <g id="Light-S" transform="matrix(1 0 0 1 1113.32 696)">
   <path d="M10.6313-5.99696Q11.5156-5.14654 12.7747-5.14654Q14.0338-5.14654 14.8994-5.99696L39.8092-30.9555L64.7675-5.99696Q65.6181-5.14654 66.8772-5.12962Q68.1363-5.11271 69.002-5.99696Q69.8524-6.89646 69.8524-8.13866Q69.8524-9.38085 69.002-10.2465L44.0435-35.1898L69.002-60.0995Q69.8524-60.999 69.8694-62.258Q69.8863-63.517 69.002-64.3677Q68.1025-65.2334 66.8603-65.2334Q65.6181-65.2334 64.7675-64.3677L39.8092-39.4244L14.8994-64.3677Q14.0338-65.2334 12.7579-65.2334Q11.482-65.2334 10.6313-64.3677Q9.76562-63.4834 9.76562-62.2412Q9.76562-60.999 10.6313-60.0995L35.5746-35.1898L10.6313-10.2465Q9.76562-9.38085 9.76562-8.12187Q9.76562-6.86289 10.6313-5.99696Z"/>
  </g>
  <g id="Thin-S" transform="matrix(1 0 0 1 817.434 696)">
   <path d="M10.2909-6.43724Q10.7948-5.94738 11.5234-5.94738Q12.2521-5.94738 12.7774-6.43724L38.9885-32.6971L65.2478-6.43724Q65.7382-5.94738 66.4669-5.94039Q67.1956-5.9334 67.7209-6.43724Q68.2107-6.97652 68.2107-7.69821Q68.2107-8.4199 67.7209-8.94519L41.461-35.1696L67.7209-61.3807Q68.2107-61.92 68.2177-62.6484Q68.2247-63.3767 67.7209-63.8672Q67.1816-64.3925 66.4599-64.3925Q65.7382-64.3925 65.2478-63.8672L38.9885-37.6427L12.7774-63.8672Q12.2521-64.3925 11.5167-64.3925Q10.7814-64.3925 10.2909-63.8672Q9.76562-63.3634 9.76562-62.6417Q9.76562-61.92 10.2909-61.3807L36.5154-35.1696L10.2909-8.94519Q9.76562-8.4199 9.76562-7.69151Q9.76562-6.96313 10.2909-6.43724Z"/>
  </g>
  <g id="Ultralight-S" transform="matrix(1 0 0 1 521.143 696)">
   <path d="M10.1166-6.66275Q10.4256-6.35757 10.8826-6.35757Q11.3396-6.35757 11.6905-6.66275L38.5681-33.5892L65.4938-6.66275Q65.7997-6.35757 66.2567-6.35567Q66.7137-6.35376 67.0647-6.66275Q67.3698-7.01752 67.3698-7.47261Q67.3698-7.9277 67.0647-8.27866L40.1382-35.1593L67.0647-62.0369Q67.3698-62.3917 67.3717-62.8483Q67.3737-63.3049 67.0647-63.6108Q66.7099-63.9618 66.2548-63.9618Q65.7997-63.9618 65.4938-63.6108L38.5681-36.7302L11.6905-63.6108Q11.3396-63.9618 10.881-63.9618Q10.4225-63.9618 10.1166-63.6108Q9.76562-63.3018 9.76562-62.8468Q9.76562-62.3917 10.1166-62.0369L36.9972-35.1593L10.1166-8.27866Q9.76562-7.9277 9.76562-7.47108Q9.76562-7.01447 10.1166-6.66275Z"/>
  </g>
 </g>
</svg>
