<?xml version="1.0" encoding="UTF-8"?>
<!--Generator: Apple Native CoreSVG 175-->
<!DOCTYPE svg
PUBLIC "-//W3C//DTD SVG 1.1//EN"
       "http://www.w3.org/Graphics/SVG/1.1/DTD/svg11.dtd">
<svg version="1.1" xmlns="http://www.w3.org/2000/svg" xmlns:xlink="http://www.w3.org/1999/xlink" width="3300" height="2200">
 <!--glyph: "uni1000F2.medium", point size: 100.0, font version: "17.1d1e1", template writer version: "65.1"-->
 <g id="Notes">
  <rect height="2200" id="artboard" style="fill:white;opacity:1" width="3300" x="0" y="0"/>
  <line style="fill:none;stroke:black;opacity:1;stroke-width:0.5;" x1="263" x2="3036" y1="292" y2="292"/>
  <text style="stroke:none;fill:black;font-family:sans-serif;font-size:13;font-weight:bold;" transform="matrix(1 0 0 1 263 322)">Weight/Scale Variations</text>
  <text style="stroke:none;fill:black;font-family:sans-serif;font-size:13;text-anchor:middle;" transform="matrix(1 0 0 1 559.711 322)">Ultralight</text>
  <text style="stroke:none;fill:black;font-family:sans-serif;font-size:13;text-anchor:middle;" transform="matrix(1 0 0 1 856.422 322)">Thin</text>
  <text style="stroke:none;fill:black;font-family:sans-serif;font-size:13;text-anchor:middle;" transform="matrix(1 0 0 1 1153.13 322)">Light</text>
  <text style="stroke:none;fill:black;font-family:sans-serif;font-size:13;text-anchor:middle;" transform="matrix(1 0 0 1 1449.84 322)">Regular</text>
  <text style="stroke:none;fill:black;font-family:sans-serif;font-size:13;text-anchor:middle;" transform="matrix(1 0 0 1 1746.56 322)">Medium</text>
  <text style="stroke:none;fill:black;font-family:sans-serif;font-size:13;text-anchor:middle;" transform="matrix(1 0 0 1 2043.27 322)">Semibold</text>
  <text style="stroke:none;fill:black;font-family:sans-serif;font-size:13;text-anchor:middle;" transform="matrix(1 0 0 1 2339.98 322)">Bold</text>
  <text style="stroke:none;fill:black;font-family:sans-serif;font-size:13;text-anchor:middle;" transform="matrix(1 0 0 1 2636.69 322)">Heavy</text>
  <text style="stroke:none;fill:black;font-family:sans-serif;font-size:13;text-anchor:middle;" transform="matrix(1 0 0 1 2933.4 322)">Black</text>
  <line style="fill:none;stroke:black;opacity:1;stroke-width:0.5;" x1="263" x2="3036" y1="1903" y2="1903"/>
  <g transform="matrix(1 0 0 1 263 1933)">
   <path d="M9.24805 0.830078Q10.8691 0.830078 12.2949 0.214844Q13.7207-0.400391 14.8096-1.49414Q15.8984-2.58789 16.5186-4.01367Q17.1387-5.43945 17.1387-7.05078Q17.1387-8.66211 16.5186-10.0879Q15.8984-11.5137 14.8047-12.6074Q13.7109-13.7012 12.2852-14.3164Q10.8594-14.9316 9.23828-14.9316Q7.62695-14.9316 6.20117-14.3164Q4.77539-13.7012 3.69141-12.6074Q2.60742-11.5137 1.9873-10.0879Q1.36719-8.66211 1.36719-7.05078Q1.36719-5.43945 1.9873-4.01367Q2.60742-2.58789 3.69629-1.49414Q4.78516-0.400391 6.21094 0.214844Q7.63672 0.830078 9.24805 0.830078ZM9.24805-0.654297Q7.91992-0.654297 6.7627-1.14746Q5.60547-1.64062 4.73145-2.51953Q3.85742-3.39844 3.36426-4.56055Q2.87109-5.72266 2.87109-7.05078Q2.87109-8.37891 3.35938-9.54102Q3.84766-10.7031 4.72168-11.582Q5.5957-12.4609 6.75293-12.9541Q7.91016-13.4473 9.23828-13.4473Q10.5762-13.4473 11.7334-12.9541Q12.8906-12.4609 13.7695-11.582Q14.6484-10.7031 15.1465-9.54102Q15.6445-8.37891 15.6445-7.05078Q15.6445-5.72266 15.1514-4.56055Q14.6582-3.39844 13.7842-2.51953Q12.9102-1.64062 11.748-1.14746Q10.5859-0.654297 9.24805-0.654297ZM5.6543-7.05078Q5.6543-6.72852 5.85938-6.52832Q6.06445-6.32812 6.40625-6.32812L8.51562-6.32812L8.51562-4.20898Q8.51562-3.88672 8.71094-3.67676Q8.90625-3.4668 9.23828-3.4668Q9.56055-3.4668 9.77051-3.67676Q9.98047-3.88672 9.98047-4.20898L9.98047-6.32812L12.0898-6.32812Q12.4219-6.32812 12.627-6.52832Q12.832-6.72852 12.832-7.05078Q12.832-7.38281 12.627-7.58789Q12.4219-7.79297 12.0898-7.79297L9.98047-7.79297L9.98047-9.90234Q9.98047-10.2344 9.77051-10.4443Q9.56055-10.6543 9.23828-10.6543Q8.90625-10.6543 8.71094-10.4443Q8.51562-10.2344 8.51562-9.90234L8.51562-7.79297L6.40625-7.79297Q6.06445-7.79297 5.85938-7.58789Q5.6543-7.38281 5.6543-7.05078Z"/>
  </g>
  <g transform="matrix(1 0 0 1 281.867 1933)">
   <path d="M11.709 2.91016Q13.75 2.91016 15.5518 2.12891Q17.3535 1.34766 18.7305-0.0292969Q20.1074-1.40625 20.8887-3.20801Q21.6699-5.00977 21.6699-7.05078Q21.6699-9.0918 20.8887-10.8936Q20.1074-12.6953 18.7305-14.0723Q17.3535-15.4492 15.5469-16.2305Q13.7402-17.0117 11.6992-17.0117Q9.6582-17.0117 7.85645-16.2305Q6.05469-15.4492 4.68262-14.0723Q3.31055-12.6953 2.5293-10.8936Q1.74805-9.0918 1.74805-7.05078Q1.74805-5.00977 2.5293-3.20801Q3.31055-1.40625 4.6875-0.0292969Q6.06445 1.34766 7.86621 2.12891Q9.66797 2.91016 11.709 2.91016ZM11.709 1.25Q9.98047 1.25 8.47656 0.605469Q6.97266-0.0390625 5.83496-1.17676Q4.69727-2.31445 4.05762-3.81836Q3.41797-5.32227 3.41797-7.05078Q3.41797-8.7793 4.05762-10.2832Q4.69727-11.7871 5.83008-12.9297Q6.96289-14.0723 8.4668-14.7119Q9.9707-15.3516 11.6992-15.3516Q13.4277-15.3516 14.9316-14.7119Q16.4355-14.0723 17.5781-12.9297Q18.7207-11.7871 19.3652-10.2832Q20.0098-8.7793 20.0098-7.05078Q20.0098-5.32227 19.3701-3.81836Q18.7305-2.31445 17.5928-1.17676Q16.4551-0.0390625 14.9463 0.605469Q13.4375 1.25 11.709 1.25ZM7.17773-7.05078Q7.17773-6.69922 7.41211-6.47461Q7.64648-6.25 8.01758-6.25L10.8887-6.25L10.8887-3.36914Q10.8887-2.99805 11.1133-2.76855Q11.3379-2.53906 11.6895-2.53906Q12.0605-2.53906 12.29-2.76855Q12.5195-2.99805 12.5195-3.36914L12.5195-6.25L15.4004-6.25Q15.7715-6.25 16.001-6.47461Q16.2305-6.69922 16.2305-7.05078Q16.2305-7.42188 16.001-7.65137Q15.7715-7.88086 15.4004-7.88086L12.5195-7.88086L12.5195-10.752Q12.5195-11.1328 12.29-11.3623Q12.0605-11.5918 11.6895-11.5918Q11.3379-11.5918 11.1133-11.3574Q10.8887-11.123 10.8887-10.752L10.8887-7.88086L8.01758-7.88086Q7.63672-7.88086 7.40723-7.65137Q7.17773-7.42188 7.17773-7.05078Z"/>
  </g>
  <g transform="matrix(1 0 0 1 305.646 1933)">
   <path d="M14.9707 5.66406Q17.0605 5.66406 18.96 5.01465Q20.8594 4.36523 22.4512 3.19336Q24.043 2.02148 25.2197 0.429688Q26.3965-1.16211 27.0459-3.06641Q27.6953-4.9707 27.6953-7.05078Q27.6953-9.14062 27.0459-11.04Q26.3965-12.9395 25.2197-14.5312Q24.043-16.123 22.4512-17.2998Q20.8594-18.4766 18.9551-19.126Q17.0508-19.7754 14.9609-19.7754Q12.8711-19.7754 10.9717-19.126Q9.07227-18.4766 7.48535-17.2998Q5.89844-16.123 4.72168-14.5312Q3.54492-12.9395 2.90039-11.04Q2.25586-9.14062 2.25586-7.05078Q2.25586-4.9707 2.90527-3.06641Q3.55469-1.16211 4.72656 0.429688Q5.89844 2.02148 7.49023 3.19336Q9.08203 4.36523 10.9814 5.01465Q12.8809 5.66406 14.9707 5.66406ZM14.9707 3.84766Q13.1641 3.84766 11.5283 3.2959Q9.89258 2.74414 8.53516 1.74805Q7.17773 0.751953 6.17676-0.610352Q5.17578-1.97266 4.62891-3.6084Q4.08203-5.24414 4.08203-7.05078Q4.08203-8.86719 4.62891-10.5029Q5.17578-12.1387 6.17188-13.501Q7.16797-14.8633 8.52539-15.8594Q9.88281-16.8555 11.5186-17.4023Q13.1543-17.9492 14.9609-17.9492Q16.7773-17.9492 18.4131-17.4023Q20.0488-16.8555 21.4111-15.8594Q22.7734-14.8633 23.7695-13.501Q24.7656-12.1387 25.3174-10.5029Q25.8691-8.86719 25.8691-7.05078Q25.8789-5.24414 25.332-3.6084Q24.7852-1.97266 23.7842-0.610352Q22.7832 0.751953 21.4209 1.74805Q20.0586 2.74414 18.4229 3.2959Q16.7871 3.84766 14.9707 3.84766ZM9.19922-7.05078Q9.19922-6.66992 9.45801-6.4209Q9.7168-6.17188 10.1172-6.17188L14.0625-6.17188L14.0625-2.2168Q14.0625-1.81641 14.3115-1.55762Q14.5605-1.29883 14.9512-1.29883Q15.3516-1.29883 15.6104-1.55273Q15.8691-1.80664 15.8691-2.2168L15.8691-6.17188L19.8242-6.17188Q20.2246-6.17188 20.4785-6.4209Q20.7324-6.66992 20.7324-7.05078Q20.7324-7.46094 20.4785-7.71484Q20.2246-7.96875 19.8242-7.96875L15.8691-7.96875L15.8691-11.9141Q15.8691-12.3242 15.6104-12.583Q15.3516-12.8418 14.9512-12.8418Q14.5605-12.8418 14.3115-12.583Q14.0625-12.3242 14.0625-11.9141L14.0625-7.96875L10.1172-7.96875Q9.70703-7.96875 9.45312-7.71484Q9.19922-7.46094 9.19922-7.05078Z"/>
  </g>
  <text style="stroke:none;fill:black;font-family:sans-serif;font-size:13;font-weight:bold;" transform="matrix(1 0 0 1 263 1953)">Design Variations</text>
  <text style="stroke:none;fill:black;font-family:sans-serif;font-size:13;" transform="matrix(1 0 0 1 263 1971)">Symbols are supported in up to nine weights and three scales.</text>
  <text style="stroke:none;fill:black;font-family:sans-serif;font-size:13;" transform="matrix(1 0 0 1 263 1989)">For optimal layout with text and other symbols, vertically align</text>
  <text style="stroke:none;fill:black;font-family:sans-serif;font-size:13;" transform="matrix(1 0 0 1 263 2007)">symbols with the adjacent text.</text>
  <line style="fill:none;stroke:#00AEEF;stroke-width:0.5;opacity:1.0;" x1="776" x2="776" y1="1919" y2="1933"/>
  <g transform="matrix(1 0 0 1 776 1933)">
   <path d="M3.31055 0.15625Q3.70117 0.15625 3.91602-0.00976562Q4.13086-0.175781 4.26758-0.585938L5.52734-4.0332L11.2891-4.0332L12.5488-0.585938Q12.6855-0.175781 12.9004-0.00976562Q13.1152 0.15625 13.4961 0.15625Q13.8867 0.15625 14.1162-0.0585938Q14.3457-0.273438 14.3457-0.644531Q14.3457-0.869141 14.2383-1.17188L9.6582-13.3691Q9.48242-13.8184 9.17969-14.043Q8.87695-14.2676 8.4082-14.2676Q7.5-14.2676 7.17773-13.3789L2.59766-1.16211Q2.49023-0.859375 2.49023-0.634766Q2.49023-0.263672 2.70996-0.0537109Q2.92969 0.15625 3.31055 0.15625ZM6.00586-5.51758L8.37891-12.0898L8.42773-12.0898L10.8008-5.51758Z"/>
  </g>
  <line style="fill:none;stroke:#00AEEF;stroke-width:0.5;opacity:1.0;" x1="793.197" x2="793.197" y1="1919" y2="1933"/>
  <text style="stroke:none;fill:black;font-family:sans-serif;font-size:13;font-weight:bold;" transform="matrix(1 0 0 1 776 1953)">Margins</text>
  <text style="stroke:none;fill:black;font-family:sans-serif;font-size:13;" transform="matrix(1 0 0 1 776 1971)">Leading and trailing margins on the left and right side of each symbol</text>
  <text style="stroke:none;fill:black;font-family:sans-serif;font-size:13;" transform="matrix(1 0 0 1 776 1989)">can be adjusted by modifying the x-location of the margin guidelines.</text>
  <text style="stroke:none;fill:black;font-family:sans-serif;font-size:13;" transform="matrix(1 0 0 1 776 2007)">Modifications are automatically applied proportionally to all</text>
  <text style="stroke:none;fill:black;font-family:sans-serif;font-size:13;" transform="matrix(1 0 0 1 776 2025)">scales and weights.</text>
  <g transform="matrix(1 0 0 1 1289 1933)">
   <path d="M2.8418 1.86523L4.54102 3.57422Q5.18555 4.22852 5.90332 4.17969Q6.62109 4.13086 7.31445 3.35938L18.0078-8.42773L17.041-9.4043L6.42578 2.27539Q6.16211 2.57812 5.89355 2.61719Q5.625 2.65625 5.27344 2.30469L4.10156 1.14258Q3.75 0.791016 3.79395 0.522461Q3.83789 0.253906 4.14062-0.0195312L15.6152-10.8203L14.6387-11.7871L3.04688-0.898438Q2.30469-0.214844 2.25098 0.498047Q2.19727 1.21094 2.8418 1.86523ZM9.25781-16.3281Q8.94531-16.0254 8.90625-15.6348Q8.86719-15.2441 9.04297-14.9512Q9.21875-14.6777 9.55566-14.541Q9.89258-14.4043 10.3809-14.5215Q11.4746-14.7754 12.5977-14.7314Q13.7207-14.6875 14.7949-13.9844L14.209-12.5293Q13.9551-11.9043 14.0674-11.4404Q14.1797-10.9766 14.5801-10.5664L16.875-8.25195Q17.2363-7.88086 17.5781-7.82227Q17.9199-7.76367 18.3398-7.8418L19.4043-8.03711L20.0684-7.36328L20.0293-6.80664Q20-6.43555 20.1221-6.12305Q20.2441-5.81055 20.6055-5.44922L21.3672-4.70703Q21.7285-4.3457 22.1533-4.33105Q22.5781-4.31641 22.9297-4.66797L25.8398-7.58789Q26.1914-7.93945 26.1816-8.35449Q26.1719-8.76953 25.8105-9.13086L25.0391-9.89258Q24.6875-10.2539 24.3799-10.3857Q24.0723-10.5176 23.7109-10.4883L23.1348-10.4395L22.4902-11.0742L22.7344-12.1973Q22.832-12.6172 22.6953-12.9834Q22.5586-13.3496 22.1191-13.7891L19.9219-15.9766Q18.6719-17.2168 17.2607-17.8369Q15.8496-18.457 14.4189-18.4814Q12.9883-18.5059 11.665-17.959Q10.3418-17.4121 9.25781-16.3281ZM10.752-15.957Q11.6602-16.6211 12.7002-16.9043Q13.7402-17.1875 14.8047-17.085Q15.8691-16.9824 16.8701-16.5137Q17.8711-16.0449 18.7012-15.2051L21.1328-12.793Q21.3086-12.6172 21.3525-12.4512Q21.3965-12.2852 21.3379-12.0312L21.0156-10.5469L22.5195-9.0625L23.5059-9.12109Q23.6914-9.13086 23.7891-9.09668Q23.8867-9.0625 24.0332-8.91602L24.6094-8.33984L22.168-5.89844L21.5918-6.47461Q21.4453-6.62109 21.4062-6.71875Q21.3672-6.81641 21.377-7.01172L21.4453-7.98828L19.9512-9.47266L18.4277-9.21875Q18.1836-9.16992 18.042-9.2041Q17.9004-9.23828 17.7148-9.41406L15.7129-11.416Q15.5176-11.5918 15.4932-11.7529Q15.4688-11.9141 15.5859-12.1875L16.4648-14.2773Q15.293-15.3711 13.8281-15.791Q12.3633-16.2109 10.8398-15.7617Q10.7227-15.7324 10.6885-15.8057Q10.6543-15.8789 10.752-15.957Z"/>
  </g>
  <text style="stroke:none;fill:black;font-family:sans-serif;font-size:13;font-weight:bold;" transform="matrix(1 0 0 1 1289 1953)">Exporting</text>
  <text style="stroke:none;fill:black;font-family:sans-serif;font-size:13;" transform="matrix(1 0 0 1 1289 1971)">Symbols should be outlined when exporting to ensure the</text>
  <text style="stroke:none;fill:black;font-family:sans-serif;font-size:13;" transform="matrix(1 0 0 1 1289 1989)">design is preserved when submitting to Xcode.</text>
  <text id="template-version" style="stroke:none;fill:black;font-family:sans-serif;font-size:13;text-anchor:end;" transform="matrix(1 0 0 1 3036 1933)">Template v.2.0</text>
  <text style="stroke:none;fill:black;font-family:sans-serif;font-size:13;text-anchor:end;" transform="matrix(1 0 0 1 3036 1951)">Requires Xcode 12 or greater</text>
  <text id="descriptive-name" style="stroke:none;fill:black;font-family:sans-serif;font-size:13;text-anchor:end;" transform="matrix(1 0 0 1 3036 1969)">Generated from checkmark.square</text>
  <text style="stroke:none;fill:black;font-family:sans-serif;font-size:13;text-anchor:end;" transform="matrix(1 0 0 1 3036 1987)">Typeset at 100 points</text>
  <text style="stroke:none;fill:black;font-family:sans-serif;font-size:13;" transform="matrix(1 0 0 1 263 726)">Small</text>
  <text style="stroke:none;fill:black;font-family:sans-serif;font-size:13;" transform="matrix(1 0 0 1 263 1156)">Medium</text>
  <text style="stroke:none;fill:black;font-family:sans-serif;font-size:13;" transform="matrix(1 0 0 1 263 1586)">Large</text>
 </g>
 <g id="Guides">
  <g id="H-reference" style="fill:#27AAE1;stroke:none;" transform="matrix(1 0 0 1 339 696)">
   <path d="M0.993347 0L3.6377 0L29.3282-67.1326L30.0301-67.1326L30.0301-70.459L28.1227-70.459ZM11.6882-24.4797L46.9818-24.4797L46.2311-26.7288L12.4382-26.7288ZM55.1193 0L57.7637 0L30.6381-70.459L29.4327-70.459L29.4327-67.1326Z"/>
  </g>
  <line id="Baseline-S" style="fill:none;stroke:#27AAE1;opacity:1;stroke-width:0.5;" x1="263" x2="3036" y1="696" y2="696"/>
  <line id="Capline-S" style="fill:none;stroke:#27AAE1;opacity:1;stroke-width:0.5;" x1="263" x2="3036" y1="625.541" y2="625.541"/>
  <g id="H-reference" style="fill:#27AAE1;stroke:none;" transform="matrix(1 0 0 1 339 1126)">
   <path d="M0.993347 0L3.6377 0L29.3282-67.1326L30.0301-67.1326L30.0301-70.459L28.1227-70.459ZM11.6882-24.4797L46.9818-24.4797L46.2311-26.7288L12.4382-26.7288ZM55.1193 0L57.7637 0L30.6381-70.459L29.4327-70.459L29.4327-67.1326Z"/>
  </g>
  <line id="Baseline-M" style="fill:none;stroke:#27AAE1;opacity:1;stroke-width:0.5;" x1="263" x2="3036" y1="1126" y2="1126"/>
  <line id="Capline-M" style="fill:none;stroke:#27AAE1;opacity:1;stroke-width:0.5;" x1="263" x2="3036" y1="1055.54" y2="1055.54"/>
  <g id="H-reference" style="fill:#27AAE1;stroke:none;" transform="matrix(1 0 0 1 339 1556)">
   <path d="M0.993347 0L3.6377 0L29.3282-67.1326L30.0301-67.1326L30.0301-70.459L28.1227-70.459ZM11.6882-24.4797L46.9818-24.4797L46.2311-26.7288L12.4382-26.7288ZM55.1193 0L57.7637 0L30.6381-70.459L29.4327-70.459L29.4327-67.1326Z"/>
  </g>
  <line id="Baseline-L" style="fill:none;stroke:#27AAE1;opacity:1;stroke-width:0.5;" x1="263" x2="3036" y1="1556" y2="1556"/>
  <line id="Capline-L" style="fill:none;stroke:#27AAE1;opacity:1;stroke-width:0.5;" x1="263" x2="3036" y1="1485.54" y2="1485.54"/>
  <line id="left-margin" style="fill:none;stroke:#00AEEF;stroke-width:0.5;opacity:1.0;" x1="1392.45" x2="1392.45" y1="1030.79" y2="1150.12"/>
  <line id="right-margin" style="fill:none;stroke:#00AEEF;stroke-width:0.5;opacity:1.0;" x1="1507.24" x2="1507.24" y1="1030.79" y2="1150.12"/>
 </g>
 <g id="Symbols">
  <g id="Black-L" transform="matrix(1 0 0 1 2855.72 1556)">
   <path d="M39.8559 26.4225L115.512 26.4225Q126.881 26.4225 133.083 20.23Q139.284 14.0375 139.284 2.71277L139.284-73.0901Q139.284-84.4148 133.083-90.6066Q126.881-96.7985 115.512-96.7985L39.8559-96.7985Q28.5079-96.7985 22.2959-90.6073Q16.084-84.4161 16.084-73.0901L16.084 2.71277Q16.084 14.0401 22.2959 20.2313Q28.5079 26.4225 39.8559 26.4225ZM42.5866 6.42133Q39.3787 6.42133 37.7216 4.87256Q36.0645 3.3238 36.0645-0.121591L36.0645-70.2544Q36.0645-73.7375 37.7216-75.2674Q39.3787-76.7973 42.5866-76.7973L112.782-76.7973Q116.045-76.7973 117.675-75.2674Q119.304-73.7375 119.304-70.2544L119.304-0.121591Q119.304 3.3238 117.675 4.87256Q116.045 6.42133 112.782 6.42133ZM71.2495-5.17827Q75.8189-5.17827 78.4953-9.21819L104.447-48.7238Q105.316-49.99 105.755-51.2892Q106.194-52.5885 106.194-53.8014Q106.194-57.0034 103.82-59.0397Q101.446-61.076 98.3437-61.076Q94.2335-61.076 91.5621-56.7271L71.1653-23.7531L61.9387-34.7205Q60.6661-36.1564 59.2475-36.8992Q57.829-37.6419 56.0464-37.6419Q52.9223-37.6419 50.6297-35.4461Q48.3371-33.2503 48.3371-30.0664Q48.3371-27.2356 50.5726-24.5799L63.7833-9.04297Q65.3102-7.21519 67.131-6.19673Q68.9519-5.17827 71.2495-5.17827Z"/>
  </g>
  <g id="Heavy-L" transform="matrix(1 0 0 1 2559.92 1556)">
   <path d="M38.8328 25.5158L114.704 25.5158Q125.682 25.5158 131.567 19.6396Q137.452 13.7633 137.452 2.85629L137.452-73.2288Q137.452-84.1358 131.567-90.0091Q125.682-95.8823 114.704-95.8823L38.8328-95.8823Q27.8839-95.8823 21.984-90.0121Q16.084-84.1419 16.084-73.2288L16.084 2.85629Q16.084 13.7754 21.984 19.6456Q27.8839 25.5158 38.8328 25.5158ZM40.957 7.98818Q37.3499 7.98818 35.4659 6.20086Q33.5818 4.41354 33.5818 0.583243L33.5818-70.9497Q33.5818-74.7949 35.4659-76.5748Q37.3499-78.3547 40.957-78.3547L112.579-78.3547Q116.219-78.3547 118.087-76.5748Q119.954-74.7949 119.954-70.9497L119.954 0.583243Q119.954 4.41354 118.087 6.20086Q116.219 7.98818 112.579 7.98818ZM70.242-5.21962Q74.4203-5.21962 76.8967-8.95167L103.637-49.9992Q104.422-51.1628 104.863-52.3801Q105.303-53.5974 105.303-54.7671Q105.303-57.6716 103.138-59.5064Q100.973-61.3412 98.1725-61.3412Q94.4614-61.3412 92.0358-57.401L70.1169-22.1005L59.999-34.3937Q58.7787-35.8135 57.4468-36.498Q56.1149-37.1825 54.472-37.1825Q51.6358-37.1825 49.5704-35.1796Q47.505-33.1767 47.505-30.2899Q47.505-27.6828 49.5318-25.2362L63.3493-8.8178Q64.7778-7.07074 66.4519-6.14518Q68.1259-5.21962 70.242-5.21962Z"/>
  </g>
  <g id="Bold-L" transform="matrix(1 0 0 1 2264.35 1556)">
   <path d="M37.5443 24.3864L113.709 24.3864Q124.174 24.3864 129.672 18.8927Q135.17 13.3991 135.17 3.03698L135.17-73.4013Q135.17-83.7634 129.672-89.2499Q124.174-94.7365 113.709-94.7365L37.5443-94.7365Q27.1168-94.7365 21.6004-89.257Q16.084-83.7776 16.084-73.4013L16.084 3.03698Q16.084 13.4275 21.6004 18.9069Q27.1168 24.3864 37.5443 24.3864ZM38.9901 9.91361Q34.8616 9.91361 32.6907 7.82346Q30.5198 5.73331 30.5198 1.40624L30.5198-71.7564Q30.5198-76.0756 32.6907-78.1697Q34.8616-80.2637 38.9901-80.2637L112.264-80.2637Q116.393-80.2637 118.564-78.1697Q120.734-76.0756 120.734-71.7564L120.734 1.40624Q120.734 5.73331 118.564 7.82346Q116.393 9.91361 112.264 9.91361ZM69.0056-5.26588Q72.6515-5.26588 74.858-8.56718L102.698-51.6476Q103.373-52.6676 103.799-53.7644Q104.226-54.8612 104.226-55.948Q104.226-58.4565 102.338-60.0357Q100.45-61.6149 98.0443-61.6149Q94.8546-61.6149 92.744-58.2124L68.8434-19.9351L57.4723-33.9302Q56.342-35.2888 55.1388-35.8938Q53.9355-36.4988 52.4835-36.4988Q50.027-36.4988 48.2531-34.7535Q46.4792-33.0081 46.4792-30.5082Q46.4792-28.2119 48.2381-26.0423L62.9098-8.47957Q64.1938-6.87175 65.6648-6.06882Q67.1357-5.26588 69.0056-5.26588Z"/>
  </g>
  <g id="Semibold-L" transform="matrix(1 0 0 1 1968.43 1556)">
   <path d="M36.6561 23.6077L113.024 23.6077Q123.134 23.6077 128.365 18.3778Q133.596 13.1479 133.596 3.16154L133.596-73.5202Q133.596-83.5066 128.365-88.7266Q123.134-93.9466 113.024-93.9466L36.6561-93.9466Q26.588-93.9466 21.336-88.7365Q16.084-83.5265 16.084-73.5202L16.084 3.16154Q16.084 13.1877 21.336 18.3977Q26.588 23.6077 36.6561 23.6077ZM37.6342 11.241Q33.1463 11.241 30.7775 8.94207Q28.4088 6.64315 28.4088 1.97361L28.4088-72.3124Q28.4088-76.9586 30.7775-79.2692Q33.1463-81.5798 37.6342-81.5798L112.046-81.5798Q116.513-81.5798 118.892-79.2692Q121.272-76.9586 121.272-72.3124L121.272 1.97361Q121.272 6.64315 118.892 8.94207Q116.513 11.241 112.046 11.241ZM68.1532-5.29777Q71.4321-5.29777 73.4526-8.30211L102.052-52.7839Q102.65-53.7049 103.067-54.7187Q103.483-55.7325 103.483-56.7622Q103.483-58.9976 101.786-60.4006Q100.089-61.8036 97.9559-61.8036Q95.1256-61.8036 93.2323-58.7718L67.9655-18.4423L55.7303-33.6106Q54.6622-34.927 53.5477-35.4773Q52.4331-36.0275 51.1126-36.0275Q48.9178-36.0275 47.3449-34.4597Q45.772-32.8918 45.772-30.6586Q45.772-28.5766 47.3462-26.5981L62.6068-8.24639Q63.7912-6.73457 65.1221-6.01617Q66.4531-5.29777 68.1532-5.29777Z"/>
  </g>
  <g id="Medium-L" transform="matrix(1 0 0 1 1672.31 1556)">
   <path d="M35.9826 23.0174L112.505 23.0174Q122.346 23.0174 127.375 17.9874Q132.403 12.9575 132.403 3.25599L132.403-73.6104Q132.403-83.3119 127.375-88.3298Q122.346-93.3476 112.505-93.3476L35.9826-93.3476Q26.187-93.3476 21.1355-88.3419Q16.084-83.3361 16.084-73.6104L16.084 3.25599Q16.084 13.0058 21.1355 18.0116Q26.187 23.0174 35.9826 23.0174ZM36.606 12.2475Q31.8456 12.2475 29.3269 9.79025Q26.8081 7.33303 26.8081 2.40381L26.8081-72.7341Q26.8081-77.628 29.3269-80.1029Q31.8456-82.5777 36.606-82.5777L111.881-82.5777Q116.604-82.5777 119.141-80.1029Q121.679-77.628 121.679-72.7341L121.679 2.40381Q121.679 7.33303 119.141 9.79025Q116.604 12.2475 111.881 12.2475ZM67.5069-5.32195Q70.5075-5.32195 72.387-8.10112L101.561-53.6456Q102.102-54.4915 102.511-55.4424Q102.92-56.3932 102.92-57.3795Q102.92-59.4079 101.368-60.6773Q99.8153-61.9467 97.8889-61.9467Q95.3311-61.9467 93.6025-59.1959L67.2998-17.3104L54.4096-33.3683Q53.3885-34.6528 52.3412-35.1614Q51.2939-35.6701 50.0731-35.6701Q48.0768-35.6701 46.6563-34.2369Q45.2357-32.8037 45.2357-30.7727Q45.2357-28.8532 46.6699-27.0194L62.3771-8.06958Q63.4859-6.63055 64.7107-5.97625Q65.9355-5.32195 67.5069-5.32195Z"/>
  </g>
  <g id="Regular-L" transform="matrix(1 0 0 1 1376.38 1556)">
   <path d="M35.1041 22.2473L111.827 22.2473Q121.318 22.2473 126.082 17.4782Q130.847 12.7092 130.847 3.37919L130.847-73.728Q130.847-83.058 126.082-87.8122Q121.318-92.5664 111.827-92.5664L35.1041-92.5664Q25.664-92.5664 20.874-87.8271Q16.084-83.0877 16.084-73.728L16.084 3.37919Q16.084 12.7686 20.874 17.508Q25.664 22.2473 35.1041 22.2473ZM35.265 13.5603Q30.1491 13.5603 27.4347 10.8966Q24.7203 8.23287 24.7203 2.96494L24.7203-73.284Q24.7203-78.5013 27.4347-81.1903Q30.1491-83.8794 35.265-83.8794L111.666-83.8794Q116.722-83.8794 119.467-81.1903Q122.211-78.5013 122.211-73.284L122.211 2.96494Q122.211 8.23287 119.467 10.8966Q116.722 13.5603 111.666 13.5603ZM66.6639-5.35349Q69.3015-5.35349 70.997-7.83897L100.922-54.7694Q101.386-55.5175 101.786-56.3862Q102.185-57.2549 102.185-58.1848Q102.185-59.9431 100.822-61.0382Q99.4585-62.1333 97.8015-62.1333Q95.5992-62.1333 94.0854-59.7492L66.4315-15.8341L52.6868-33.0523Q51.7272-34.295 50.7676-34.7495Q49.808-35.2039 48.7173-35.2039Q46.9799-35.2039 45.7581-33.9463Q44.5363-32.6887 44.5363-30.9216Q44.5363-29.2139 45.7878-27.5691L62.0775-7.83897Q63.0878-6.49487 64.1741-5.92418Q65.2603-5.35349 66.6639-5.35349Z"/>
  </g>
  <g id="Light-L" transform="matrix(1 0 0 1 1080.5 1556)">
   <path d="M34.078 21.4264L111.191 21.4264Q120.127 21.4264 124.656 16.8626Q129.185 12.2987 129.185 3.52284L129.185-73.8511Q129.185-82.627 124.656-87.1657Q120.127-91.7045 111.191-91.7045L34.078-91.7045Q25.1715-91.7045 20.6277-87.1909Q16.084-82.6773 16.084-73.8511L16.084 3.52284Q16.084 12.3992 20.6277 16.9128Q25.1715 21.4264 34.078 21.4264ZM34.2389 14.7916Q28.5894 14.7916 25.639 11.8714Q22.6887 8.95114 22.6887 3.21121L22.6887-73.4893Q22.6887-79.199 25.639-82.1343Q28.5894-85.0696 34.2389-85.0696L111.03-85.0696Q116.579-85.0696 119.579-82.1343Q122.58-79.199 122.58-73.4893L122.58 3.21121Q122.58 8.95114 119.579 11.8714Q116.579 14.7916 111.03 14.7916ZM65.8841-5.35349Q67.8444-5.35349 69.2116-7.22331L100.696-56.3496Q101.038-56.8925 101.324-57.556Q101.611-58.2194 101.611-58.903Q101.611-60.2099 100.555-61.0895Q99.4995-61.9691 98.253-61.9691Q96.5842-61.9691 95.3578-60.1596L65.7132-13.5766L50.1421-32.3545Q49.4082-33.2895 48.6744-33.6413Q47.9405-33.9931 47.0961-33.9931Q45.7691-33.9931 44.8141-33.0331Q43.8591-32.0731 43.8591-30.6958Q43.8591-29.4191 44.8643-28.0821L62.4058-7.22331Q63.1698-6.22808 63.9791-5.79079Q64.7883-5.35349 65.8841-5.35349Z"/>
  </g>
  <g id="Thin-L" transform="matrix(1 0 0 1 784.884 1556)">
   <path d="M32.7209 20.3407L110.349 20.3407Q118.553 20.3407 122.77 16.0483Q126.986 11.7559 126.986 3.71284L126.986-74.014Q126.986-82.057 122.77-86.3108Q118.553-90.5645 110.349-90.5645L32.7209-90.5645Q24.5201-90.5645 20.302-86.3495Q16.084-82.1344 16.084-74.014L16.084 3.71284Q16.084 11.9107 20.302 16.1257Q24.5201 20.3407 32.7209 20.3407ZM32.8818 16.4201Q26.5266 16.4201 23.2641 13.1606Q20.0016 9.9011 20.0016 3.53691L20.0016-73.7607Q20.0016-80.1218 23.2641-83.3829Q26.5266-86.6439 32.8818-86.6439L110.188-86.6439Q116.389-86.6439 119.729-83.3829Q123.069-80.1218 123.069-73.7607L123.069 3.53691Q123.069 9.9011 119.729 13.1606Q116.389 16.4201 110.188 16.4201ZM64.8527-5.35349Q65.9173-5.35349 66.8502-6.40905L100.397-58.4396Q100.576-58.711 100.713-59.1031Q100.851-59.4951 100.851-59.853Q100.851-60.5628 100.202-61.1574Q99.5538-61.752 98.8501-61.752Q97.887-61.752 97.0406-60.7025L64.7632-10.591L46.7765-31.4317Q46.3412-31.9595 45.9059-32.1756Q45.4706-32.3918 44.9519-32.3918Q44.1677-32.3918 43.5656-31.8253Q42.9634-31.2588 42.9634-30.3973Q42.9634-29.6906 43.643-28.7607L62.8401-6.40905Q63.2784-5.87524 63.7212-5.61436Q64.1641-5.35349 64.8527-5.35349Z"/>
  </g>
  <g id="Ultralight-L" transform="matrix(1 0 0 1 488.735 1556)">
   <path d="M32.0258 19.7847L109.918 19.7847Q117.747 19.7847 121.803 15.6313Q125.86 11.4778 125.86 3.81015L125.86-74.0974Q125.86-81.7651 121.803-85.8729Q117.747-89.9806 109.918-89.9806L32.0258-89.9806Q24.1864-89.9806 20.1352-85.9185Q16.084-81.8564 16.084-74.0974L16.084 3.81015Q16.084 11.6604 20.1352 15.7226Q24.1864 19.7847 32.0258 19.7847ZM32.1867 17.2542Q25.4701 17.2542 22.0477 13.8209Q18.6253 10.3877 18.6253 3.70373L18.6253-73.8997Q18.6253-80.5945 22.0477-84.0223Q25.4701-87.4502 32.1867-87.4502L109.757-87.4502Q116.291-87.4502 119.805-84.0223Q123.319-80.5945 123.319-73.8997L123.319 3.70373Q123.319 10.3877 119.805 13.8209Q116.291 17.2542 109.757 17.2542ZM64.3244-5.35349Q64.9303-5.35349 65.6407-5.99199L100.244-59.51Q100.34-59.6424 100.401-59.8955Q100.461-60.1485 100.461-60.3396Q100.461-60.7435 100.022-61.1921Q99.5816-61.6408 99.156-61.6408Q98.5543-61.6408 97.9025-60.9805L64.2767-9.0618L45.0526-30.9591Q44.7702-31.2783 44.4879-31.4249Q44.2055-31.5716 43.8536-31.5716Q43.3475-31.5716 42.9261-31.2067Q42.5046-30.8417 42.5046-30.2444Q42.5046-29.8296 43.0174-29.1082L63.0625-5.99199Q63.334-5.69451 63.5892-5.524Q63.8443-5.35349 64.3244-5.35349Z"/>
  </g>
  <g id="Black-M" transform="matrix(1 0 0 1 2872.54 1126)">
   <path d="M31.6183 13.203L90.1012 13.203Q99.1693 13.203 104.214 8.16134Q109.259 3.11973 109.259-5.93791L109.259-64.4591Q109.259-73.5167 104.214-78.5585Q99.1693-83.6003 90.1012-83.6003L31.6183-83.6003Q22.5558-83.6003 17.5084-78.5583Q12.4609-73.5164 12.4609-64.4591L12.4609-5.93791Q12.4609 3.11912 17.5084 8.16104Q22.5558 13.203 31.6183 13.203ZM34.2552-4.14063Q32.0406-4.14063 30.9198-5.17025Q29.799-6.19988 29.799-8.60232L29.799-61.795Q29.799-64.249 30.9198-65.2528Q32.0406-66.2567 34.2552-66.2567L87.4644-66.2567Q89.7367-66.2567 90.8286-65.2528Q91.9206-64.249 91.9206-61.795L91.9206-8.60232Q91.9206-6.19988 90.8286-5.17025Q89.7367-4.14063 87.4644-4.14063ZM55.9602-11.912Q59.7446-11.912 61.9456-15.2231L81.5852-44.8021Q82.3139-45.8434 82.6375-46.8926Q82.9611-47.9418 82.9611-48.8853Q82.9611-51.5605 80.9837-53.2821Q79.0064-55.0036 76.3993-55.0036Q72.9442-55.0036 70.7024-51.361L55.9385-27.4528L49.3088-35.0216Q48.3085-36.1062 47.1656-36.7177Q46.0226-37.3293 44.5549-37.3293Q41.9426-37.3293 40.0074-35.5026Q38.0722-33.6759 38.0722-31.0068Q38.0722-28.6797 39.95-26.4843L49.8331-15.0518Q51.0672-13.6136 52.5665-12.7628Q54.0659-11.912 55.9602-11.912Z"/>
  </g>
  <g id="Heavy-M" transform="matrix(1 0 0 1 2576.65 1126)">
   <path d="M30.7128 12.3923L89.3692 12.3923Q98.107 12.3923 102.864 7.64094Q107.621 2.88957 107.621-5.81086L107.621-64.5834Q107.621-73.2838 102.864-78.0339Q98.107-82.7841 89.3692-82.7841L30.7128-82.7841Q21.9913-82.7841 17.2261-78.0352Q12.4609-73.2862 12.4609-64.5834L12.4609-5.81086Q12.4609 2.89446 17.2261 7.64338Q21.9913 12.3923 30.7128 12.3923ZM32.7568-2.72252Q30.2012-2.72252 28.8804-3.96168Q27.5595-5.20084 27.5595-7.93601L27.5595-62.4558Q27.5595-65.2183 28.8804-66.4438Q30.2012-67.6693 32.7568-67.6693L87.3253-67.6693Q89.9196-67.6693 91.221-66.4438Q92.5225-65.2183 92.5225-62.4558L92.5225-7.93601Q92.5225-5.20084 91.221-3.96168Q89.9196-2.72252 87.3253-2.72252ZM55.0472-11.9524Q58.5118-11.9524 60.5475-15.0193L80.8139-45.9031Q81.4722-46.8631 81.8076-47.8511Q82.143-48.8391 82.143-49.763Q82.143-52.1891 80.3416-53.7336Q78.5402-55.2781 76.1903-55.2781Q73.0761-55.2781 71.048-51.9819L54.9798-26.0454L47.6473-34.7664Q46.6773-35.8636 45.5983-36.4278Q44.5193-36.9919 43.1654-36.9919Q40.7968-36.9919 39.059-35.3263Q37.3212-33.6608 37.3212-31.2461Q37.3212-29.098 39.0178-27.0785L49.3785-14.8885Q50.5392-13.497 51.9206-12.7247Q53.3019-11.9524 55.0472-11.9524Z"/>
  </g>
  <g id="Bold-M" transform="matrix(1 0 0 1 2280.85 1126)">
   <path d="M29.6999 11.4855L88.5504 11.4855Q96.9187 11.4855 101.354 7.05878Q105.789 2.6321 105.789-5.66875L105.789-64.7224Q105.789-73.0233 101.354-77.4472Q96.9187-81.8711 88.5504-81.8711L29.6999-81.8711Q21.3597-81.8711 16.9103-77.4499Q12.4609-73.0288 12.4609-64.7224L12.4609-5.66875Q12.4609 2.64314 16.9103 7.0643Q21.3597 11.4855 29.6999 11.4855ZM31.0806-1.13616Q28.1436-1.13616 26.5989-2.60972Q25.0543-4.08328 25.0543-7.19066L25.0543-63.195Q25.0543-66.3027 26.5989-67.7761Q28.1436-69.2495 31.0806-69.2495L87.1696-69.2495Q90.1241-69.2495 91.66-67.7761Q93.1959-66.3027 93.1959-63.195L93.1959-7.19066Q93.1959-4.08328 91.66-2.60972Q90.1241-1.13616 87.1696-1.13616ZM54.026-11.9977Q57.1328-11.9977 58.9837-14.7914L79.951-47.1347Q80.5305-48.0037 80.8792-48.9233Q81.2279-49.8429 81.2279-50.7449Q81.2279-52.8923 79.6234-54.2387Q78.0188-55.5851 75.9565-55.5851Q73.2238-55.5851 71.4346-52.6765L53.9075-24.4711L45.7888-34.481Q44.8526-35.5924 43.8451-36.1034Q42.8376-36.6145 41.6111-36.6145Q39.515-36.6145 37.998-35.1292Q36.4811-33.6439 36.4811-31.5137Q36.4811-29.5659 37.975-27.7433L48.87-14.7058Q49.9486-13.3666 51.198-12.6821Q52.4474-11.9977 54.026-11.9977Z"/>
  </g>
  <g id="Semibold-M" transform="matrix(1 0 0 1 1984.77 1126)">
   <path d="M29.0015 10.8603L87.9858 10.8603Q96.0995 10.8603 100.313 6.65745Q104.526 2.45461 104.526-5.57077L104.526-64.8183Q104.526-72.8436 100.313-77.0427Q96.0995-81.2417 87.9858-81.2417L29.0015-81.2417Q20.9244-81.2417 16.6926-77.0465Q12.4609-72.8513 12.4609-64.8183L12.4609-5.57077Q12.4609 2.46989 16.6926 6.66509Q20.9244 10.8603 29.0015 10.8603ZM29.925-0.0425279Q26.725-0.0425279 25.0262-1.67768Q23.3273-3.31284 23.3273-6.67681L23.3273-63.7046Q23.3273-67.0502 25.0262-68.6945Q26.725-70.3389 29.925-70.3389L87.0623-70.3389Q90.2652-70.3389 91.9626-68.6945Q93.6601-67.0502 93.6601-63.7046L93.6601-6.67681Q93.6601-3.31284 91.9626-1.67768Q90.2652-0.0425279 87.0623-0.0425279ZM53.3219-12.0288Q56.1821-12.0288 57.9055-14.6343L79.3562-47.9838Q79.8814-48.79 80.2392-49.6624Q80.597-50.5348 80.597-51.4219Q80.597-53.3771 79.1282-54.5869Q77.6594-55.7968 75.7953-55.7968Q73.3255-55.7968 71.7012-53.1554L53.1682-23.3858L44.5075-34.2842Q43.5947-35.4053 42.6364-35.8798Q41.6782-36.3543 40.5395-36.3543Q38.6313-36.3543 37.2666-34.9933Q35.902-33.6322 35.902-31.6982Q35.902-29.8884 37.2561-28.2016L48.5194-14.5798Q49.5414-13.2767 50.6998-12.6528Q51.8583-12.0288 53.3219-12.0288Z"/>
  </g>
  <g id="Medium-M" transform="matrix(1 0 0 1 1688.54 1126)">
   <path d="M28.472 10.3863L87.5578 10.3863Q95.4783 10.3863 99.5236 6.35315Q103.569 2.32003 103.569-5.49648L103.569-64.8909Q103.569-72.7075 99.5236-76.736Q95.4783-80.7644 87.5578-80.7644L28.472-80.7644Q20.5942-80.7644 16.5276-76.7406Q12.4609-72.7167 12.4609-64.8909L12.4609-5.49648Q12.4609 2.33852 16.5276 6.36239Q20.5942 10.3863 28.472 10.3863ZM29.0488 0.786706Q25.6495 0.786706 23.8336-0.970977Q22.0177-2.72866 22.0177-6.28719L22.0177-64.091Q22.0177-67.617 23.8336-69.391Q25.6495-71.1649 29.0488-71.1649L86.981-71.1649Q90.3721-71.1649 92.1921-69.391Q94.0121-67.617 94.0121-64.091L94.0121-6.28719Q94.0121-2.72866 92.1921-0.970977Q90.3721 0.786706 86.981 0.786706ZM52.7881-12.0525Q55.4613-12.0525 57.088-14.5151L78.9051-48.6277Q79.3892-49.3863 79.7539-50.2229Q80.1186-51.0595 80.1186-51.9351Q80.1186-53.7447 78.7527-54.851Q77.3868-55.9572 75.6731-55.9572Q73.4027-55.9572 71.9033-53.5185L52.6077-22.5628L43.536-34.135Q42.6408-35.2635 41.72-35.7103Q40.7992-36.157 39.727-36.157Q37.9612-36.157 36.712-34.8902Q35.4628-33.6234 35.4628-31.8381Q35.4628-30.133 36.711-28.549L48.2536-14.4843Q49.2327-13.2085 50.3221-12.6305Q51.4116-12.0525 52.7881-12.0525Z"/>
  </g>
  <g id="Regular-M" transform="matrix(1 0 0 1 1392.45 1126)">
   <path d="M27.7814 9.76797L86.9995 9.76797Q94.6681 9.76797 98.494 5.95622Q102.32 2.14448 102.32-5.39959L102.32-64.9857Q102.32-72.5298 98.494-76.3359Q94.6681-80.142 86.9995-80.142L27.7814-80.142Q20.1637-80.142 16.3123-76.3416Q12.4609-72.5412 12.4609-64.9857L12.4609-5.39959Q12.4609 2.16717 16.3123 5.96757Q20.1637 9.76797 27.7814 9.76797ZM27.906 1.86832Q24.2465 1.86832 22.2781-0.0491846Q20.3096-1.96668 20.3096-5.77899L20.3096-64.595Q20.3096-68.3563 22.2781-70.2993Q24.2465-72.2423 27.906-72.2423L86.8749-72.2423Q90.5116-72.2423 92.4914-70.2993Q94.4712-68.3563 94.4712-64.595L94.4712-5.77899Q94.4712-1.96668 92.4914-0.0491846Q90.5116 1.86832 86.8749 1.86832ZM52.0917-12.0833Q54.521-12.0833 56.0217-14.3597L78.3168-49.4674Q78.7472-50.1639 79.1209-50.9539Q79.4946-51.7439 79.4946-52.6046Q79.4946-54.2241 78.263-55.1954Q77.0313-56.1666 75.5137-56.1666Q73.5034-56.1666 72.1669-53.992L51.8765-21.4894L42.2688-33.9403Q41.3967-35.0786 40.5246-35.4891Q39.6525-35.8997 38.6672-35.8997Q37.0873-35.8997 35.9887-34.7558Q34.8901-33.6119 34.8901-32.0206Q34.8901-30.452 36-29.0023L47.9069-14.3597Q48.83-13.1196 49.8294-12.6015Q50.8289-12.0833 52.0917-12.0833Z"/>
  </g>
  <g id="Light-M" transform="matrix(1 0 0 1 1096.49 1126)">
   <path d="M26.8614 9.03201L86.4291 9.03201Q93.601 9.03201 97.2153 5.40425Q100.83 1.7765 100.83-5.27079L100.83-65.0961Q100.83-72.1434 97.2153-75.7563Q93.601-79.3692 86.4291-79.3692L26.8614-79.3692Q19.7221-79.3692 16.0915-75.7712Q12.4609-72.1732 12.4609-65.0961L12.4609-5.27079Q12.4609 1.83599 16.0915 5.434Q19.7221 9.03201 26.8614 9.03201ZM26.986 2.97226Q22.8482 2.97226 20.6682 0.824768Q18.4881-1.32272 18.4881-5.55821L18.4881-64.779Q18.4881-68.9819 20.6682-71.1457Q22.8482-73.3094 26.986-73.3094L86.3045-73.3094Q90.3828-73.3094 92.5926-71.1457Q94.8024-68.9819 94.8024-64.779L94.8024-5.55821Q94.8024-1.32272 92.5926 0.824768Q90.3828 2.97226 86.3045 2.97226ZM51.3926-12.0833Q53.2147-12.0833 54.421-13.8078L78.1144-50.8842Q78.4344-51.3967 78.7069-52.0027Q78.9795-52.6086 78.9795-53.2486Q78.9795-54.4633 78.0238-55.2414Q77.0681-56.0194 75.9184-56.0194Q74.3865-56.0194 73.3076-54.36L51.2326-19.4655L39.9873-33.3148Q39.3176-34.177 38.6479-34.4956Q37.9782-34.8141 37.2137-34.8141Q36.0017-34.8141 35.1423-33.937Q34.2829-33.0599 34.2829-31.8182Q34.2829-30.636 35.1721-29.4623L48.2013-13.8078Q48.9035-12.8804 49.6546-12.4819Q50.4057-12.0833 51.3926-12.0833Z"/>
  </g>
  <g id="Thin-M" transform="matrix(1 0 0 1 800.76 1126)">
   <path d="M25.6447 8.05864L85.6747 8.05864Q92.1896 8.05864 95.5241 4.67423Q98.8585 1.28982 98.8585-5.10045L98.8585-65.2421Q98.8585-71.6324 95.5241-74.9898Q92.1896-78.3472 85.6747-78.3472L25.6447-78.3472Q19.1381-78.3472 15.7995-75.0168Q12.4609-71.6865 12.4609-65.2421L12.4609-5.10045Q12.4609 1.39797 15.7995 4.72831Q19.1381 8.05864 25.6447 8.05864ZM25.7693 4.43231Q20.9988 4.43231 18.5389 1.98064Q16.079-0.471023 16.079-5.2662L16.079-65.0223Q16.079-69.8093 18.5389-72.2651Q20.9988-74.7208 25.7693-74.7208L85.5501-74.7208Q90.2125-74.7208 92.7264-72.2651Q95.2404-69.8093 95.2404-65.0223L95.2404-5.2662Q95.2404-0.471023 92.7264 1.98064Q90.2125 4.43231 85.5501 4.43231ZM50.4679-12.0833Q51.487-12.0833 52.304-13.0777L77.8467-52.7579Q78.0207-53.0271 78.1594-53.3897Q78.2981-53.7523 78.2981-54.1003Q78.2981-54.7797 77.7074-55.3022Q77.1168-55.8247 76.4538-55.8247Q75.5546-55.8247 74.8163-54.8467L50.3809-16.7888L36.9699-32.4874Q36.5678-32.9846 36.1658-33.1815Q35.7638-33.3784 35.2913-33.3784Q34.566-33.3784 34.0229-32.8542Q33.4799-32.3299 33.4799-31.5505Q33.4799-30.8794 34.077-30.0706L48.5906-13.0777Q49.0009-12.5641 49.4235-12.3237Q49.846-12.0833 50.4679-12.0833Z"/>
  </g>
  <g id="Ultralight-M" transform="matrix(1 0 0 1 504.553 1126)">
   <path d="M25.0215 7.56009L85.2884 7.56009Q91.4667 7.56009 94.6578 4.30031Q97.8489 1.04054 97.8489-5.01321L97.8489-65.3169Q97.8489-71.3707 94.6578-74.5972Q91.4667-77.8237 85.2884-77.8237L25.0215-77.8237Q18.8389-77.8237 15.6499-74.6305Q12.4609-71.4372 12.4609-65.3169L12.4609-5.01321Q12.4609 1.17363 15.6499 4.36686Q18.8389 7.56009 25.0215 7.56009ZM25.1461 5.18014Q20.0516 5.18014 17.4483 2.57267Q14.8451-0.034789 14.8451-5.11663L14.8451-65.147Q14.8451-70.233 17.4483-72.8384Q20.0516-75.4437 25.1461-75.4437L85.1638-75.4437Q90.1252-75.4437 92.795-72.8384Q95.4648-70.233 95.4648-65.147L95.4648-5.11663Q95.4648-0.034789 92.795 2.57267Q90.1252 5.18014 85.1638 5.18014ZM49.9942-12.0833Q50.6021-12.0833 51.2196-12.7038L77.7096-53.7176Q77.8088-53.8621 77.879-54.1001Q77.9491-54.3381 77.9491-54.5365Q77.9491-54.9417 77.5454-55.3333Q77.1417-55.725 76.728-55.725Q76.1528-55.725 75.5891-55.096L49.9447-15.4177L35.4243-32.0636Q35.1594-32.3739 34.8945-32.5085Q34.6296-32.643 34.3066-32.643Q33.8306-32.643 33.4496-32.2995Q33.0686-31.956 33.0686-31.4134Q33.0686-31.004 33.5161-30.3822L48.7901-12.7038Q49.0507-12.402 49.3051-12.2427Q49.5594-12.0833 49.9942-12.0833Z"/>
  </g>
  <g id="Black-S" transform="matrix(1 0 0 1 2885.5 696)">
   <path d="M25 2.92969L70.8008 2.92969Q77.9785 2.92969 82.0068-1.09863Q86.0352-5.12695 86.0352-12.3047L86.0352-58.1055Q86.0352-65.2832 82.0068-69.3115Q77.9785-73.3398 70.8008-73.3398L25-73.3398Q17.8223-73.3398 13.7939-69.3115Q9.76562-65.2832 9.76562-58.1055L9.76562-12.3047Q9.76562-5.12695 13.7939-1.09863Q17.8223 2.92969 25 2.92969ZM27.2461-11.2305Q25.5859-11.2305 24.7559-11.9873Q23.9258-12.7441 23.9258-14.5508L23.9258-55.8594Q23.9258-57.7148 24.7559-58.4473Q25.5859-59.1797 27.2461-59.1797L68.5547-59.1797Q70.2637-59.1797 71.0693-58.4473Q71.875-57.7148 71.875-55.8594L71.875-14.5508Q71.875-12.7441 71.0693-11.9873Q70.2637-11.2305 68.5547-11.2305ZM44.0918-16.9434Q47.1191-16.9434 48.877-19.5801L64.1602-42.4805Q64.7461-43.3105 64.9902-44.1406Q65.2344-44.9707 65.2344-45.7031Q65.2344-47.8516 63.6475-49.2432Q62.0605-50.6348 59.9609-50.6348Q57.1777-50.6348 55.3711-47.7051L44.0918-29.4434L39.0137-35.1074Q38.2324-35.9375 37.3291-36.4258Q36.4258-36.9141 35.2539-36.9141Q33.1543-36.9141 31.5918-35.4492Q30.0293-33.9844 30.0293-31.8359Q30.0293-29.9805 31.543-28.2227L39.209-19.4336Q40.1855-18.3105 41.3818-17.627Q42.5781-16.9434 44.0918-16.9434Z"/>
  </g>
  <g id="Heavy-S" transform="matrix(1 0 0 1 2589.39 696)">
   <path d="M24.3431 2.33042L70.2476 2.33042Q77.2064 2.33042 81.0157-1.47318Q84.8251-5.27677 84.8251-12.2125L84.8251-58.1977Q84.8251-65.1334 81.0157-68.937Q77.2064-72.7406 70.2476-72.7406L24.3431-72.7406Q17.3959-72.7406 13.5807-68.937Q9.76562-65.1334 9.76562-58.1977L9.76562-12.2125Q9.76562-5.27677 13.5807-1.47318Q17.3959 2.33042 24.3431 2.33042ZM26.0821-10.1587Q24.1915-10.1587 23.2173-11.0653Q22.2432-11.972 22.2432-14.0091L22.2432-56.401Q22.2432-58.4639 23.2173-59.3577Q24.1915-60.2515 26.0821-60.2515L68.5086-60.2515Q70.4365-60.2515 71.392-59.3577Q72.3475-58.4639 72.3475-56.401L72.3475-14.0091Q72.3475-11.972 71.392-11.0653Q70.4365-10.1587 68.5086-10.1587ZM43.4003-16.9779Q46.2318-16.9779 47.8858-19.4764L63.5263-43.2411Q64.0662-44.0251 64.3333-44.8263Q64.6005-45.6276 64.6005-46.3715Q64.6005-48.3586 63.1289-49.6235Q61.6572-50.8883 59.7304-50.8883Q57.1777-50.8883 55.5209-48.1891L43.3542-28.4984L37.8843-34.9691Q37.103-35.8453 36.2285-36.3048Q35.354-36.7642 34.2513-36.7642Q32.313-36.7642 30.8888-35.4031Q29.4646-34.042 29.4646-32.0664Q29.4646-30.3147 30.8515-28.6721L38.7826-19.3644Q39.7246-18.2414 40.8517-17.6097Q41.9789-16.9779 43.4003-16.9779Z"/>
  </g>
  <g id="Bold-S" transform="matrix(1 0 0 1 2293.36 696)">
   <path d="M23.6084 1.66016L69.6289 1.66016Q76.3428 1.66016 79.9072-1.89209Q83.4717-5.44434 83.4717-12.1094L83.4717-58.3008Q83.4717-64.9658 79.9072-68.5181Q76.3428-72.0703 69.6289-72.0703L23.6084-72.0703Q16.9189-72.0703 13.3423-68.5181Q9.76562-64.9658 9.76562-58.3008L9.76562-12.1094Q9.76562-5.44434 13.3423-1.89209Q16.9189 1.66016 23.6084 1.66016ZM24.7803-8.95996Q22.6318-8.95996 21.4966-10.0342Q20.3613-11.1084 20.3613-13.4033L20.3613-57.0068Q20.3613-59.3018 21.4966-60.376Q22.6318-61.4502 24.7803-61.4502L68.457-61.4502Q70.6299-61.4502 71.7529-60.376Q72.876-59.3018 72.876-57.0068L72.876-13.4033Q72.876-11.1084 71.7529-10.0342Q70.6299-8.95996 68.457-8.95996ZM42.627-17.0166Q45.2393-17.0166 46.7773-19.3604L62.8174-44.0918Q63.3057-44.8242 63.5986-45.5933Q63.8916-46.3623 63.8916-47.1191Q63.8916-48.9258 62.5488-50.0488Q61.2061-51.1719 59.4727-51.1719Q57.1777-51.1719 55.6885-48.7305L42.5293-27.4414L36.6211-34.8145Q35.8398-35.7422 34.9976-36.1694Q34.1553-36.5967 33.1299-36.5967Q31.3721-36.5967 30.1025-35.3516Q28.833-34.1064 28.833-32.3242Q28.833-30.6885 30.0781-29.1748L38.3057-19.2871Q39.209-18.1641 40.2588-17.5903Q41.3086-17.0166 42.627-17.0166Z"/>
  </g>
  <g id="Semibold-S" transform="matrix(1 0 0 1 1997.11 696)">
   <path d="M23.1019 1.19805L69.2023 1.19805Q75.7474 1.19805 79.143-2.18091Q82.5386-5.55986 82.5386-12.0383L82.5386-58.3719Q82.5386-64.8503 79.143-68.2292Q75.7474-71.6082 69.2023-71.6082L23.1019-71.6082Q16.5901-71.6082 13.1779-68.2292Q9.76562-64.8503 9.76562-58.3719L9.76562-12.0383Q9.76562-5.55986 13.1779-2.18091Q16.5901 1.19805 23.1019 1.19805ZM23.8827-8.1335Q21.5565-8.1335 20.3102-9.32324Q19.0639-10.513 19.0639-12.9856L19.0639-57.4245Q19.0639-59.8794 20.3102-61.078Q21.5565-62.2767 23.8827-62.2767L68.4215-62.2767Q70.7632-62.2767 72.0018-61.078Q73.2403-59.8794 73.2403-57.4245L73.2403-12.9856Q73.2403-10.513 72.0018-9.32324Q70.7632-8.1335 68.4215-8.1335ZM42.0938-17.0433Q44.555-17.0433 46.0131-19.2804L62.3286-44.6783Q62.7813-45.3752 63.0921-46.122Q63.4028-46.8688 63.4028-47.6346Q63.4028-49.3168 62.1489-50.3421Q60.895-51.3674 59.2949-51.3674Q57.1777-51.3674 55.804-49.1037L41.9605-26.7127L35.7502-34.7078Q34.9689-35.6711 34.1489-36.0761Q33.3288-36.4812 32.3567-36.4812Q30.7233-36.4812 29.5604-35.316Q28.3976-34.1509 28.3976-32.502Q28.3976-30.9462 29.5449-29.5214L37.9769-19.2338Q38.8535-18.1107 39.85-17.577Q40.8465-17.0433 42.0938-17.0433Z"/>
  </g>
  <g id="Medium-S" transform="matrix(1 0 0 1 1700.76 696)">
   <path d="M22.7178 0.847656L68.8789 0.847656Q75.2959 0.847656 78.5635-2.3999Q81.8311-5.64746 81.8311-11.9844L81.8311-58.4258Q81.8311-64.7627 78.5635-68.0103Q75.2959-71.2578 68.8789-71.2578L22.7178-71.2578Q16.3408-71.2578 13.0532-68.0103Q9.76562-64.7627 9.76562-58.4258L9.76562-11.9844Q9.76562-5.64746 13.0532-2.3999Q16.3408 0.847656 22.7178 0.847656ZM23.2021-7.50684Q20.7412-7.50684 19.4106-8.78418Q18.0801-10.0615 18.0801-12.6689L18.0801-57.7412Q18.0801-60.3174 19.4106-61.6104Q20.7412-62.9033 23.2021-62.9033L68.3945-62.9033Q70.8643-62.9033 72.1904-61.6104Q73.5166-60.3174 73.5166-57.7412L73.5166-12.6689Q73.5166-10.0615 72.1904-8.78418Q70.8643-7.50684 68.3945-7.50684ZM41.6895-17.0635Q44.0361-17.0635 45.4336-19.2197L61.958-45.123Q62.3838-45.793 62.708-46.5229Q63.0322-47.2529 63.0322-48.0254Q63.0322-49.6133 61.8457-50.5645Q60.6592-51.5156 59.1602-51.5156Q57.1777-51.5156 55.8916-49.3867L41.5293-26.1602L35.0898-34.627Q34.3086-35.6172 33.5054-36.0054Q32.7021-36.3936 31.7705-36.3936Q30.2314-36.3936 29.1494-35.2891Q28.0674-34.1846 28.0674-32.6367Q28.0674-31.1416 29.1406-29.7842L37.7275-19.1934Q38.584-18.0703 39.54-17.5669Q40.4961-17.0635 41.6895-17.0635Z"/>
  </g>
  <g id="Regular-S" transform="matrix(1 0 0 1 1404.51 696)">
   <path d="M22.2168 0.390625L68.457 0.390625Q74.707 0.390625 77.8076-2.68555Q80.9082-5.76172 80.9082-11.9141L80.9082-58.4961Q80.9082-64.6484 77.8076-67.7246Q74.707-70.8008 68.457-70.8008L22.2168-70.8008Q16.0156-70.8008 12.8906-67.7246Q9.76562-64.6484 9.76562-58.4961L9.76562-11.9141Q9.76562-5.76172 12.8906-2.68555Q16.0156 0.390625 22.2168 0.390625ZM22.3145-6.68945Q19.6777-6.68945 18.2373-8.08105Q16.7969-9.47266 16.7969-12.2559L16.7969-58.1543Q16.7969-60.8887 18.2373-62.3047Q19.6777-63.7207 22.3145-63.7207L68.3594-63.7207Q70.9961-63.7207 72.4365-62.3047Q73.877-60.8887 73.877-58.1543L73.877-12.2559Q73.877-9.47266 72.4365-8.08105Q70.9961-6.68945 68.3594-6.68945ZM41.1621-17.0898Q43.3594-17.0898 44.6777-19.1406L61.4746-45.7031Q61.8652-46.3379 62.207-47.0459Q62.5488-47.7539 62.5488-48.5352Q62.5488-50 61.4502-50.8545Q60.3516-51.709 58.9844-51.709Q57.1777-51.709 56.0059-49.7559L40.9668-25.4395L34.2285-34.5215Q33.4473-35.5469 32.666-35.9131Q31.8848-36.2793 31.0059-36.2793Q29.5898-36.2793 28.6133-35.2539Q27.6367-34.2285 27.6367-32.8125Q27.6367-31.3965 28.6133-30.127L37.4023-19.1406Q38.2324-18.0176 39.1357-17.5537Q40.0391-17.0898 41.1621-17.0898Z"/>
  </g>
  <g id="Light-S" transform="matrix(1 0 0 1 1108.45 696)">
   <path d="M21.403-0.260417L67.9525-0.260417Q73.763-0.260417 76.6764-3.17383Q79.5898-6.08724 79.5898-11.8001L79.5898-58.5938Q79.5898-64.3066 76.6764-67.2119Q73.763-70.1172 67.9525-70.1172L21.403-70.1172Q15.625-70.1172 12.6953-67.2201Q9.76562-64.3229 9.76562-58.5938L9.76562-11.8001Q9.76562-6.05469 12.6953-3.15755Q15.625-0.260417 21.403-0.260417ZM21.5007-5.71289Q18.4408-5.71289 16.8132-7.30794Q15.1855-8.90299 15.1855-12.0605L15.1855-58.3171Q15.1855-61.4421 16.8132-63.0534Q18.4408-64.6647 21.5007-64.6647L67.8548-64.6647Q70.8822-64.6647 72.526-63.0534Q74.1699-61.4421 74.1699-58.3171L74.1699-12.0605Q74.1699-8.90299 72.526-7.30794Q70.8822-5.71289 67.8548-5.71289ZM40.5436-17.0898Q42.2038-17.0898 43.2617-18.6523L61.2956-46.9564Q61.5885-47.4284 61.8408-47.9736Q62.0931-48.5189 62.0931-49.1048Q62.0931-50.2116 61.2386-50.8952Q60.3841-51.5788 59.3424-51.5788Q57.959-51.5788 57.015-50.0814L40.3971-23.6491L32.2103-33.9681Q31.6081-34.7493 31.0059-35.0342Q30.4036-35.319 29.7201-35.319Q28.6296-35.319 27.8646-34.5296Q27.0996-33.7402 27.0996-32.6335Q27.0996-31.5592 27.8809-30.5339L37.6628-18.6523Q38.2975-17.806 38.9811-17.4479Q39.6647-17.0898 40.5436-17.0898Z"/>
  </g>
  <g id="Thin-S" transform="matrix(1 0 0 1 812.615 696)">
   <path d="M20.3267-1.12147L67.2852-1.12147Q72.5145-1.12147 75.1803-3.81962Q77.8462-6.51777 77.8462-11.6494L77.8462-58.7229Q77.8462-63.8546 75.1803-66.5338Q72.5145-69.2131 67.2852-69.2131L20.3267-69.2131Q15.1084-69.2131 12.437-66.5527Q9.76562-63.8924 9.76562-58.7229L9.76562-11.6494Q9.76562-6.44216 12.437-3.78182Q15.1084-1.12147 20.3267-1.12147ZM20.4243-4.42131Q16.8048-4.42131 14.9296-6.28544Q13.0544-8.14957 13.0544-11.8022L13.0544-58.5323Q13.0544-62.174 14.9296-64.0436Q16.8048-65.9132 20.4243-65.9132L67.1875-65.9132Q70.7315-65.9132 72.6444-64.0436Q74.5574-62.174 74.5574-58.5323L74.5574-11.8022Q74.5574-8.14957 72.6444-6.28544Q70.7315-4.42131 67.1875-4.42131ZM39.7256-17.0898Q40.6754-17.0898 41.3889-18.0066L61.0588-48.6139Q61.2226-48.8707 61.3565-49.2006Q61.4904-49.5306 61.4904-49.8582Q61.4904-50.4914 60.9588-50.949Q60.4272-51.4066 59.816-51.4066Q58.9923-51.4066 58.3496-50.5119L39.6437-21.2812L29.541-33.2362Q29.1756-33.6946 28.8102-33.8718Q28.4447-34.049 28.0195-34.049Q27.3595-34.049 26.8744-33.5717Q26.3892-33.0944 26.3892-32.3967Q26.3892-31.7745 26.9122-31.072L38.0072-18.0066Q38.3836-17.5261 38.7766-17.308Q39.1696-17.0898 39.7256-17.0898Z"/>
  </g>
  <g id="Ultralight-S" transform="matrix(1 0 0 1 516.35 696)">
   <path d="M19.7754-1.5625L66.9434-1.5625Q71.875-1.5625 74.4141-4.15039Q76.9531-6.73828 76.9531-11.5723L76.9531-58.7891Q76.9531-63.623 74.4141-66.1865Q71.875-68.75 66.9434-68.75L19.7754-68.75Q14.8438-68.75 12.3047-66.2109Q9.76562-63.6719 9.76562-58.7891L9.76562-11.5723Q9.76562-6.64062 12.3047-4.10156Q14.8438-1.5625 19.7754-1.5625ZM19.873-3.75977Q15.9668-3.75977 13.9648-5.76172Q11.9629-7.76367 11.9629-11.6699L11.9629-58.6426Q11.9629-62.5488 13.9648-64.5508Q15.9668-66.5527 19.873-66.5527L66.8457-66.5527Q70.6543-66.5527 72.7051-64.5508Q74.7559-62.5488 74.7559-58.6426L74.7559-11.6699Q74.7559-7.76367 72.7051-5.76172Q70.6543-3.75977 66.8457-3.75977ZM39.3066-17.0898Q39.8926-17.0898 40.4297-17.6758L60.9375-49.4629Q61.0352-49.6094 61.1084-49.8291Q61.1816-50.0488 61.1816-50.2441Q61.1816-50.6348 60.8154-50.9766Q60.4492-51.3184 60.0586-51.3184Q59.5215-51.3184 59.0332-50.7324L39.2578-20.0684L28.1738-32.8613Q27.9297-33.1543 27.6855-33.2764Q27.4414-33.3984 27.1484-33.3984Q26.709-33.3984 26.3672-33.0811Q26.0254-32.7637 26.0254-32.2754Q26.0254-31.8848 26.416-31.3477L38.1836-17.6758Q38.4277-17.3828 38.6719-17.2363Q38.916-17.0898 39.3066-17.0898Z"/>
  </g>
 </g>
</svg>
