<?xml version="1.0" encoding="UTF-8"?>
<!--Generator: Apple Native CoreSVG 175-->
<!DOCTYPE svg
PUBLIC "-//W3C//DTD SVG 1.1//EN"
       "http://www.w3.org/Graphics/SVG/1.1/DTD/svg11.dtd">
<svg version="1.1" xmlns="http://www.w3.org/2000/svg" xmlns:xlink="http://www.w3.org/1999/xlink" width="3300" height="2200">
 <!--glyph: "uni1000F0.medium", point size: 100.0, font version: "17.1d1e1", template writer version: "65.1"-->
 <g id="Notes">
  <rect height="2200" id="artboard" style="fill:white;opacity:1" width="3300" x="0" y="0"/>
  <line style="fill:none;stroke:black;opacity:1;stroke-width:0.5;" x1="263" x2="3036" y1="292" y2="292"/>
  <text style="stroke:none;fill:black;font-family:sans-serif;font-size:13;font-weight:bold;" transform="matrix(1 0 0 1 263 322)">Weight/Scale Variations</text>
  <text style="stroke:none;fill:black;font-family:sans-serif;font-size:13;text-anchor:middle;" transform="matrix(1 0 0 1 559.711 322)">Ultralight</text>
  <text style="stroke:none;fill:black;font-family:sans-serif;font-size:13;text-anchor:middle;" transform="matrix(1 0 0 1 856.422 322)">Thin</text>
  <text style="stroke:none;fill:black;font-family:sans-serif;font-size:13;text-anchor:middle;" transform="matrix(1 0 0 1 1153.13 322)">Light</text>
  <text style="stroke:none;fill:black;font-family:sans-serif;font-size:13;text-anchor:middle;" transform="matrix(1 0 0 1 1449.84 322)">Regular</text>
  <text style="stroke:none;fill:black;font-family:sans-serif;font-size:13;text-anchor:middle;" transform="matrix(1 0 0 1 1746.56 322)">Medium</text>
  <text style="stroke:none;fill:black;font-family:sans-serif;font-size:13;text-anchor:middle;" transform="matrix(1 0 0 1 2043.27 322)">Semibold</text>
  <text style="stroke:none;fill:black;font-family:sans-serif;font-size:13;text-anchor:middle;" transform="matrix(1 0 0 1 2339.98 322)">Bold</text>
  <text style="stroke:none;fill:black;font-family:sans-serif;font-size:13;text-anchor:middle;" transform="matrix(1 0 0 1 2636.69 322)">Heavy</text>
  <text style="stroke:none;fill:black;font-family:sans-serif;font-size:13;text-anchor:middle;" transform="matrix(1 0 0 1 2933.4 322)">Black</text>
  <line style="fill:none;stroke:black;opacity:1;stroke-width:0.5;" x1="263" x2="3036" y1="1903" y2="1903"/>
  <g transform="matrix(1 0 0 1 263 1933)">
   <path d="M9.24805 0.830078Q10.8691 0.830078 12.2949 0.214844Q13.7207-0.400391 14.8096-1.49414Q15.8984-2.58789 16.5186-4.01367Q17.1387-5.43945 17.1387-7.05078Q17.1387-8.66211 16.5186-10.0879Q15.8984-11.5137 14.8047-12.6074Q13.7109-13.7012 12.2852-14.3164Q10.8594-14.9316 9.23828-14.9316Q7.62695-14.9316 6.20117-14.3164Q4.77539-13.7012 3.69141-12.6074Q2.60742-11.5137 1.9873-10.0879Q1.36719-8.66211 1.36719-7.05078Q1.36719-5.43945 1.9873-4.01367Q2.60742-2.58789 3.69629-1.49414Q4.78516-0.400391 6.21094 0.214844Q7.63672 0.830078 9.24805 0.830078ZM9.24805-0.654297Q7.91992-0.654297 6.7627-1.14746Q5.60547-1.64062 4.73145-2.51953Q3.85742-3.39844 3.36426-4.56055Q2.87109-5.72266 2.87109-7.05078Q2.87109-8.37891 3.35938-9.54102Q3.84766-10.7031 4.72168-11.582Q5.5957-12.4609 6.75293-12.9541Q7.91016-13.4473 9.23828-13.4473Q10.5762-13.4473 11.7334-12.9541Q12.8906-12.4609 13.7695-11.582Q14.6484-10.7031 15.1465-9.54102Q15.6445-8.37891 15.6445-7.05078Q15.6445-5.72266 15.1514-4.56055Q14.6582-3.39844 13.7842-2.51953Q12.9102-1.64062 11.748-1.14746Q10.5859-0.654297 9.24805-0.654297ZM5.6543-7.05078Q5.6543-6.72852 5.85938-6.52832Q6.06445-6.32812 6.40625-6.32812L8.51562-6.32812L8.51562-4.20898Q8.51562-3.88672 8.71094-3.67676Q8.90625-3.4668 9.23828-3.4668Q9.56055-3.4668 9.77051-3.67676Q9.98047-3.88672 9.98047-4.20898L9.98047-6.32812L12.0898-6.32812Q12.4219-6.32812 12.627-6.52832Q12.832-6.72852 12.832-7.05078Q12.832-7.38281 12.627-7.58789Q12.4219-7.79297 12.0898-7.79297L9.98047-7.79297L9.98047-9.90234Q9.98047-10.2344 9.77051-10.4443Q9.56055-10.6543 9.23828-10.6543Q8.90625-10.6543 8.71094-10.4443Q8.51562-10.2344 8.51562-9.90234L8.51562-7.79297L6.40625-7.79297Q6.06445-7.79297 5.85938-7.58789Q5.6543-7.38281 5.6543-7.05078Z"/>
  </g>
  <g transform="matrix(1 0 0 1 281.867 1933)">
   <path d="M11.709 2.91016Q13.75 2.91016 15.5518 2.12891Q17.3535 1.34766 18.7305-0.0292969Q20.1074-1.40625 20.8887-3.20801Q21.6699-5.00977 21.6699-7.05078Q21.6699-9.0918 20.8887-10.8936Q20.1074-12.6953 18.7305-14.0723Q17.3535-15.4492 15.5469-16.2305Q13.7402-17.0117 11.6992-17.0117Q9.6582-17.0117 7.85645-16.2305Q6.05469-15.4492 4.68262-14.0723Q3.31055-12.6953 2.5293-10.8936Q1.74805-9.0918 1.74805-7.05078Q1.74805-5.00977 2.5293-3.20801Q3.31055-1.40625 4.6875-0.0292969Q6.06445 1.34766 7.86621 2.12891Q9.66797 2.91016 11.709 2.91016ZM11.709 1.25Q9.98047 1.25 8.47656 0.605469Q6.97266-0.0390625 5.83496-1.17676Q4.69727-2.31445 4.05762-3.81836Q3.41797-5.32227 3.41797-7.05078Q3.41797-8.7793 4.05762-10.2832Q4.69727-11.7871 5.83008-12.9297Q6.96289-14.0723 8.4668-14.7119Q9.9707-15.3516 11.6992-15.3516Q13.4277-15.3516 14.9316-14.7119Q16.4355-14.0723 17.5781-12.9297Q18.7207-11.7871 19.3652-10.2832Q20.0098-8.7793 20.0098-7.05078Q20.0098-5.32227 19.3701-3.81836Q18.7305-2.31445 17.5928-1.17676Q16.4551-0.0390625 14.9463 0.605469Q13.4375 1.25 11.709 1.25ZM7.17773-7.05078Q7.17773-6.69922 7.41211-6.47461Q7.64648-6.25 8.01758-6.25L10.8887-6.25L10.8887-3.36914Q10.8887-2.99805 11.1133-2.76855Q11.3379-2.53906 11.6895-2.53906Q12.0605-2.53906 12.29-2.76855Q12.5195-2.99805 12.5195-3.36914L12.5195-6.25L15.4004-6.25Q15.7715-6.25 16.001-6.47461Q16.2305-6.69922 16.2305-7.05078Q16.2305-7.42188 16.001-7.65137Q15.7715-7.88086 15.4004-7.88086L12.5195-7.88086L12.5195-10.752Q12.5195-11.1328 12.29-11.3623Q12.0605-11.5918 11.6895-11.5918Q11.3379-11.5918 11.1133-11.3574Q10.8887-11.123 10.8887-10.752L10.8887-7.88086L8.01758-7.88086Q7.63672-7.88086 7.40723-7.65137Q7.17773-7.42188 7.17773-7.05078Z"/>
  </g>
  <g transform="matrix(1 0 0 1 305.646 1933)">
   <path d="M14.9707 5.66406Q17.0605 5.66406 18.96 5.01465Q20.8594 4.36523 22.4512 3.19336Q24.043 2.02148 25.2197 0.429688Q26.3965-1.16211 27.0459-3.06641Q27.6953-4.9707 27.6953-7.05078Q27.6953-9.14062 27.0459-11.04Q26.3965-12.9395 25.2197-14.5312Q24.043-16.123 22.4512-17.2998Q20.8594-18.4766 18.9551-19.126Q17.0508-19.7754 14.9609-19.7754Q12.8711-19.7754 10.9717-19.126Q9.07227-18.4766 7.48535-17.2998Q5.89844-16.123 4.72168-14.5312Q3.54492-12.9395 2.90039-11.04Q2.25586-9.14062 2.25586-7.05078Q2.25586-4.9707 2.90527-3.06641Q3.55469-1.16211 4.72656 0.429688Q5.89844 2.02148 7.49023 3.19336Q9.08203 4.36523 10.9814 5.01465Q12.8809 5.66406 14.9707 5.66406ZM14.9707 3.84766Q13.1641 3.84766 11.5283 3.2959Q9.89258 2.74414 8.53516 1.74805Q7.17773 0.751953 6.17676-0.610352Q5.17578-1.97266 4.62891-3.6084Q4.08203-5.24414 4.08203-7.05078Q4.08203-8.86719 4.62891-10.5029Q5.17578-12.1387 6.17188-13.501Q7.16797-14.8633 8.52539-15.8594Q9.88281-16.8555 11.5186-17.4023Q13.1543-17.9492 14.9609-17.9492Q16.7773-17.9492 18.4131-17.4023Q20.0488-16.8555 21.4111-15.8594Q22.7734-14.8633 23.7695-13.501Q24.7656-12.1387 25.3174-10.5029Q25.8691-8.86719 25.8691-7.05078Q25.8789-5.24414 25.332-3.6084Q24.7852-1.97266 23.7842-0.610352Q22.7832 0.751953 21.4209 1.74805Q20.0586 2.74414 18.4229 3.2959Q16.7871 3.84766 14.9707 3.84766ZM9.19922-7.05078Q9.19922-6.66992 9.45801-6.4209Q9.7168-6.17188 10.1172-6.17188L14.0625-6.17188L14.0625-2.2168Q14.0625-1.81641 14.3115-1.55762Q14.5605-1.29883 14.9512-1.29883Q15.3516-1.29883 15.6104-1.55273Q15.8691-1.80664 15.8691-2.2168L15.8691-6.17188L19.8242-6.17188Q20.2246-6.17188 20.4785-6.4209Q20.7324-6.66992 20.7324-7.05078Q20.7324-7.46094 20.4785-7.71484Q20.2246-7.96875 19.8242-7.96875L15.8691-7.96875L15.8691-11.9141Q15.8691-12.3242 15.6104-12.583Q15.3516-12.8418 14.9512-12.8418Q14.5605-12.8418 14.3115-12.583Q14.0625-12.3242 14.0625-11.9141L14.0625-7.96875L10.1172-7.96875Q9.70703-7.96875 9.45312-7.71484Q9.19922-7.46094 9.19922-7.05078Z"/>
  </g>
  <text style="stroke:none;fill:black;font-family:sans-serif;font-size:13;font-weight:bold;" transform="matrix(1 0 0 1 263 1953)">Design Variations</text>
  <text style="stroke:none;fill:black;font-family:sans-serif;font-size:13;" transform="matrix(1 0 0 1 263 1971)">Symbols are supported in up to nine weights and three scales.</text>
  <text style="stroke:none;fill:black;font-family:sans-serif;font-size:13;" transform="matrix(1 0 0 1 263 1989)">For optimal layout with text and other symbols, vertically align</text>
  <text style="stroke:none;fill:black;font-family:sans-serif;font-size:13;" transform="matrix(1 0 0 1 263 2007)">symbols with the adjacent text.</text>
  <line style="fill:none;stroke:#00AEEF;stroke-width:0.5;opacity:1.0;" x1="776" x2="776" y1="1919" y2="1933"/>
  <g transform="matrix(1 0 0 1 776 1933)">
   <path d="M3.31055 0.15625Q3.70117 0.15625 3.91602-0.00976562Q4.13086-0.175781 4.26758-0.585938L5.52734-4.0332L11.2891-4.0332L12.5488-0.585938Q12.6855-0.175781 12.9004-0.00976562Q13.1152 0.15625 13.4961 0.15625Q13.8867 0.15625 14.1162-0.0585938Q14.3457-0.273438 14.3457-0.644531Q14.3457-0.869141 14.2383-1.17188L9.6582-13.3691Q9.48242-13.8184 9.17969-14.043Q8.87695-14.2676 8.4082-14.2676Q7.5-14.2676 7.17773-13.3789L2.59766-1.16211Q2.49023-0.859375 2.49023-0.634766Q2.49023-0.263672 2.70996-0.0537109Q2.92969 0.15625 3.31055 0.15625ZM6.00586-5.51758L8.37891-12.0898L8.42773-12.0898L10.8008-5.51758Z"/>
  </g>
  <line style="fill:none;stroke:#00AEEF;stroke-width:0.5;opacity:1.0;" x1="793.197" x2="793.197" y1="1919" y2="1933"/>
  <text style="stroke:none;fill:black;font-family:sans-serif;font-size:13;font-weight:bold;" transform="matrix(1 0 0 1 776 1953)">Margins</text>
  <text style="stroke:none;fill:black;font-family:sans-serif;font-size:13;" transform="matrix(1 0 0 1 776 1971)">Leading and trailing margins on the left and right side of each symbol</text>
  <text style="stroke:none;fill:black;font-family:sans-serif;font-size:13;" transform="matrix(1 0 0 1 776 1989)">can be adjusted by modifying the x-location of the margin guidelines.</text>
  <text style="stroke:none;fill:black;font-family:sans-serif;font-size:13;" transform="matrix(1 0 0 1 776 2007)">Modifications are automatically applied proportionally to all</text>
  <text style="stroke:none;fill:black;font-family:sans-serif;font-size:13;" transform="matrix(1 0 0 1 776 2025)">scales and weights.</text>
  <g transform="matrix(1 0 0 1 1289 1933)">
   <path d="M2.8418 1.86523L4.54102 3.57422Q5.18555 4.22852 5.90332 4.17969Q6.62109 4.13086 7.31445 3.35938L18.0078-8.42773L17.041-9.4043L6.42578 2.27539Q6.16211 2.57812 5.89355 2.61719Q5.625 2.65625 5.27344 2.30469L4.10156 1.14258Q3.75 0.791016 3.79395 0.522461Q3.83789 0.253906 4.14062-0.0195312L15.6152-10.8203L14.6387-11.7871L3.04688-0.898438Q2.30469-0.214844 2.25098 0.498047Q2.19727 1.21094 2.8418 1.86523ZM9.25781-16.3281Q8.94531-16.0254 8.90625-15.6348Q8.86719-15.2441 9.04297-14.9512Q9.21875-14.6777 9.55566-14.541Q9.89258-14.4043 10.3809-14.5215Q11.4746-14.7754 12.5977-14.7314Q13.7207-14.6875 14.7949-13.9844L14.209-12.5293Q13.9551-11.9043 14.0674-11.4404Q14.1797-10.9766 14.5801-10.5664L16.875-8.25195Q17.2363-7.88086 17.5781-7.82227Q17.9199-7.76367 18.3398-7.8418L19.4043-8.03711L20.0684-7.36328L20.0293-6.80664Q20-6.43555 20.1221-6.12305Q20.2441-5.81055 20.6055-5.44922L21.3672-4.70703Q21.7285-4.3457 22.1533-4.33105Q22.5781-4.31641 22.9297-4.66797L25.8398-7.58789Q26.1914-7.93945 26.1816-8.35449Q26.1719-8.76953 25.8105-9.13086L25.0391-9.89258Q24.6875-10.2539 24.3799-10.3857Q24.0723-10.5176 23.7109-10.4883L23.1348-10.4395L22.4902-11.0742L22.7344-12.1973Q22.832-12.6172 22.6953-12.9834Q22.5586-13.3496 22.1191-13.7891L19.9219-15.9766Q18.6719-17.2168 17.2607-17.8369Q15.8496-18.457 14.4189-18.4814Q12.9883-18.5059 11.665-17.959Q10.3418-17.4121 9.25781-16.3281ZM10.752-15.957Q11.6602-16.6211 12.7002-16.9043Q13.7402-17.1875 14.8047-17.085Q15.8691-16.9824 16.8701-16.5137Q17.8711-16.0449 18.7012-15.2051L21.1328-12.793Q21.3086-12.6172 21.3525-12.4512Q21.3965-12.2852 21.3379-12.0312L21.0156-10.5469L22.5195-9.0625L23.5059-9.12109Q23.6914-9.13086 23.7891-9.09668Q23.8867-9.0625 24.0332-8.91602L24.6094-8.33984L22.168-5.89844L21.5918-6.47461Q21.4453-6.62109 21.4062-6.71875Q21.3672-6.81641 21.377-7.01172L21.4453-7.98828L19.9512-9.47266L18.4277-9.21875Q18.1836-9.16992 18.042-9.2041Q17.9004-9.23828 17.7148-9.41406L15.7129-11.416Q15.5176-11.5918 15.4932-11.7529Q15.4688-11.9141 15.5859-12.1875L16.4648-14.2773Q15.293-15.3711 13.8281-15.791Q12.3633-16.2109 10.8398-15.7617Q10.7227-15.7324 10.6885-15.8057Q10.6543-15.8789 10.752-15.957Z"/>
  </g>
  <text style="stroke:none;fill:black;font-family:sans-serif;font-size:13;font-weight:bold;" transform="matrix(1 0 0 1 1289 1953)">Exporting</text>
  <text style="stroke:none;fill:black;font-family:sans-serif;font-size:13;" transform="matrix(1 0 0 1 1289 1971)">Symbols should be outlined when exporting to ensure the</text>
  <text style="stroke:none;fill:black;font-family:sans-serif;font-size:13;" transform="matrix(1 0 0 1 1289 1989)">design is preserved when submitting to Xcode.</text>
  <text id="template-version" style="stroke:none;fill:black;font-family:sans-serif;font-size:13;text-anchor:end;" transform="matrix(1 0 0 1 3036 1933)">Template v.2.0</text>
  <text style="stroke:none;fill:black;font-family:sans-serif;font-size:13;text-anchor:end;" transform="matrix(1 0 0 1 3036 1951)">Requires Xcode 12 or greater</text>
  <text id="descriptive-name" style="stroke:none;fill:black;font-family:sans-serif;font-size:13;text-anchor:end;" transform="matrix(1 0 0 1 3036 1969)">Generated from xmark.square</text>
  <text style="stroke:none;fill:black;font-family:sans-serif;font-size:13;text-anchor:end;" transform="matrix(1 0 0 1 3036 1987)">Typeset at 100 points</text>
  <text style="stroke:none;fill:black;font-family:sans-serif;font-size:13;" transform="matrix(1 0 0 1 263 726)">Small</text>
  <text style="stroke:none;fill:black;font-family:sans-serif;font-size:13;" transform="matrix(1 0 0 1 263 1156)">Medium</text>
  <text style="stroke:none;fill:black;font-family:sans-serif;font-size:13;" transform="matrix(1 0 0 1 263 1586)">Large</text>
 </g>
 <g id="Guides">
  <g id="H-reference" style="fill:#27AAE1;stroke:none;" transform="matrix(1 0 0 1 339 696)">
   <path d="M0.993347 0L3.6377 0L29.3282-67.1326L30.0301-67.1326L30.0301-70.459L28.1227-70.459ZM11.6882-24.4797L46.9818-24.4797L46.2311-26.7288L12.4382-26.7288ZM55.1193 0L57.7637 0L30.6381-70.459L29.4327-70.459L29.4327-67.1326Z"/>
  </g>
  <line id="Baseline-S" style="fill:none;stroke:#27AAE1;opacity:1;stroke-width:0.5;" x1="263" x2="3036" y1="696" y2="696"/>
  <line id="Capline-S" style="fill:none;stroke:#27AAE1;opacity:1;stroke-width:0.5;" x1="263" x2="3036" y1="625.541" y2="625.541"/>
  <g id="H-reference" style="fill:#27AAE1;stroke:none;" transform="matrix(1 0 0 1 339 1126)">
   <path d="M0.993347 0L3.6377 0L29.3282-67.1326L30.0301-67.1326L30.0301-70.459L28.1227-70.459ZM11.6882-24.4797L46.9818-24.4797L46.2311-26.7288L12.4382-26.7288ZM55.1193 0L57.7637 0L30.6381-70.459L29.4327-70.459L29.4327-67.1326Z"/>
  </g>
  <line id="Baseline-M" style="fill:none;stroke:#27AAE1;opacity:1;stroke-width:0.5;" x1="263" x2="3036" y1="1126" y2="1126"/>
  <line id="Capline-M" style="fill:none;stroke:#27AAE1;opacity:1;stroke-width:0.5;" x1="263" x2="3036" y1="1055.54" y2="1055.54"/>
  <g id="H-reference" style="fill:#27AAE1;stroke:none;" transform="matrix(1 0 0 1 339 1556)">
   <path d="M0.993347 0L3.6377 0L29.3282-67.1326L30.0301-67.1326L30.0301-70.459L28.1227-70.459ZM11.6882-24.4797L46.9818-24.4797L46.2311-26.7288L12.4382-26.7288ZM55.1193 0L57.7637 0L30.6381-70.459L29.4327-70.459L29.4327-67.1326Z"/>
  </g>
  <line id="Baseline-L" style="fill:none;stroke:#27AAE1;opacity:1;stroke-width:0.5;" x1="263" x2="3036" y1="1556" y2="1556"/>
  <line id="Capline-L" style="fill:none;stroke:#27AAE1;opacity:1;stroke-width:0.5;" x1="263" x2="3036" y1="1485.54" y2="1485.54"/>
  <line id="left-margin" style="fill:none;stroke:#00AEEF;stroke-width:0.5;opacity:1.0;" x1="1392.45" x2="1392.45" y1="1030.79" y2="1150.12"/>
  <line id="right-margin" style="fill:none;stroke:#00AEEF;stroke-width:0.5;opacity:1.0;" x1="1507.24" x2="1507.24" y1="1030.79" y2="1150.12"/>
 </g>
 <g id="Symbols">
  <g id="Black-L" transform="matrix(1 0 0 1 2855.72 1556)">
   <path d="M39.8559 26.4225L115.512 26.4225Q126.881 26.4225 133.083 20.23Q139.284 14.0375 139.284 2.71277L139.284-73.0901Q139.284-84.4148 133.083-90.6066Q126.881-96.7985 115.512-96.7985L39.8559-96.7985Q28.5079-96.7985 22.2959-90.6073Q16.084-84.4161 16.084-73.0901L16.084 2.71277Q16.084 14.0401 22.2959 20.2313Q28.5079 26.4225 39.8559 26.4225ZM42.5866 6.42133Q39.3787 6.42133 37.7216 4.87256Q36.0645 3.3238 36.0645-0.121591L36.0645-70.2544Q36.0645-73.7375 37.7216-75.2674Q39.3787-76.7973 42.5866-76.7973L112.782-76.7973Q116.045-76.7973 117.675-75.2674Q119.304-73.7375 119.304-70.2544L119.304-0.121591Q119.304 3.3238 117.675 4.87256Q116.045 6.42133 112.782 6.42133ZM59.5919-9.33466Q63.1689-9.33466 65.4653-11.6505L77.6945-23.8433L89.9834-11.6505Q92.32-9.33466 95.8555-9.33466Q99.2159-9.33466 101.471-11.6181Q103.727-13.9015 103.727-17.2813Q103.727-20.3496 101.353-22.7239L89.0041-35.1309L101.373-47.5793Q103.748-49.9536 103.748-52.9999Q103.748-56.3809 101.492-58.654Q99.2366-60.9271 95.8763-60.9271Q92.3822-60.9271 90.0456-58.6112L77.6945-46.3406L65.4238-58.5905Q63.1482-60.9064 59.5919-60.9064Q56.2912-60.9064 54.0065-58.6333Q51.7218-56.3602 51.7218-52.9804Q51.7218-49.9121 54.096-47.5586L66.503-35.1309L54.096-22.7032Q51.7218-20.3496 51.7218-17.2813Q51.7218-13.9015 54.0065-11.6181Q56.2912-9.33466 59.5919-9.33466Z"/>
  </g>
  <g id="Heavy-L" transform="matrix(1 0 0 1 2559.92 1556)">
   <path d="M38.8328 25.5158L114.704 25.5158Q125.682 25.5158 131.567 19.6396Q137.452 13.7633 137.452 2.85629L137.452-73.2288Q137.452-84.1358 131.567-90.0091Q125.682-95.8823 114.704-95.8823L38.8328-95.8823Q27.8839-95.8823 21.984-90.0121Q16.084-84.1419 16.084-73.2288L16.084 2.85629Q16.084 13.7754 21.984 19.6456Q27.8839 25.5158 38.8328 25.5158ZM40.957 7.98818Q37.3499 7.98818 35.4659 6.20086Q33.5818 4.41354 33.5818 0.583243L33.5818-70.9497Q33.5818-74.7949 35.4659-76.5748Q37.3499-78.3547 40.957-78.3547L112.579-78.3547Q116.219-78.3547 118.087-76.5748Q119.954-74.7949 119.954-70.9497L119.954 0.583243Q119.954 4.41354 118.087 6.20086Q116.219 7.98818 112.579 7.98818ZM57.8411-9.21477Q61.0612-9.21477 63.1447-11.322L76.783-24.9515L90.472-11.322Q92.609-9.21477 95.7696-9.21477Q98.7963-9.21477 100.85-11.2846Q102.903-13.3545 102.903-16.4049Q102.903-19.2086 100.752-21.3604L87.012-35.1447L100.781-48.9884Q102.933-51.1403 102.933-53.9081Q102.933-56.9646 100.88-59.0196Q98.8261-61.0745 95.7994-61.0745Q92.6983-61.0745 90.5613-58.9673L76.783-45.2695L63.0852-58.9375Q61.0315-61.0448 57.8411-61.0448Q54.865-61.0448 52.7891-58.9898Q50.7132-56.9349 50.7132-53.8844Q50.7132-51.0808 52.8651-48.9587L66.6493-35.1447L52.8651-21.3307Q50.7132-19.2086 50.7132-16.4049Q50.7132-13.3545 52.7891-11.2846Q54.865-9.21477 57.8411-9.21477Z"/>
  </g>
  <g id="Bold-L" transform="matrix(1 0 0 1 2264.35 1556)">
   <path d="M37.5443 24.3864L113.709 24.3864Q124.174 24.3864 129.672 18.8927Q135.17 13.3991 135.17 3.03698L135.17-73.4013Q135.17-83.7634 129.672-89.2499Q124.174-94.7365 113.709-94.7365L37.5443-94.7365Q27.1168-94.7365 21.6004-89.257Q16.084-83.7776 16.084-73.4013L16.084 3.03698Q16.084 13.4275 21.6004 18.9069Q27.1168 24.3864 37.5443 24.3864ZM38.9901 9.91361Q34.8616 9.91361 32.6907 7.82346Q30.5198 5.73331 30.5198 1.40624L30.5198-71.7564Q30.5198-76.0756 32.6907-78.1697Q34.8616-80.2637 38.9901-80.2637L112.264-80.2637Q116.393-80.2637 118.564-78.1697Q120.734-76.0756 120.734-71.7564L120.734 1.40624Q120.734 5.73331 118.564 7.82346Q116.393 9.91361 112.264 9.91361ZM55.707-9.15837Q58.4704-9.15837 60.2869-10.9977L75.6454-26.3782L91.0473-10.9977Q92.9236-9.15837 95.613-9.15837Q98.2148-9.15837 100.004-10.9475Q101.792-12.7367 101.792-15.3613Q101.792-17.817 99.9238-19.6855L84.4785-35.1601L99.9608-50.7086Q101.829-52.5771 101.829-54.9817Q101.829-57.6204 100.041-59.3911Q98.2518-61.1618 95.65-61.1618Q93.0346-61.1618 91.1583-59.3224L75.6454-43.89L60.213-59.2855Q58.4334-61.1248 55.707-61.1248Q53.1487-61.1248 51.3453-59.3541Q49.5419-57.5834 49.5419-54.9589Q49.5419-52.5032 51.4104-50.6716L66.8849-35.1601L51.4104-19.6486Q49.5419-17.817 49.5419-15.3613Q49.5419-12.7367 51.3453-10.9475Q53.1487-9.15837 55.707-9.15837Z"/>
  </g>
  <g id="Semibold-L" transform="matrix(1 0 0 1 1968.43 1556)">
   <path d="M36.6561 23.6077L113.024 23.6077Q123.134 23.6077 128.365 18.3778Q133.596 13.1479 133.596 3.16154L133.596-73.5202Q133.596-83.5066 128.365-88.7266Q123.134-93.9466 113.024-93.9466L36.6561-93.9466Q26.588-93.9466 21.336-88.7365Q16.084-83.5265 16.084-73.5202L16.084 3.16154Q16.084 13.1877 21.336 18.3977Q26.588 23.6077 36.6561 23.6077ZM37.6342 11.241Q33.1463 11.241 30.7775 8.94207Q28.4088 6.64315 28.4088 1.97361L28.4088-72.3124Q28.4088-76.9586 30.7775-79.2692Q33.1463-81.5798 37.6342-81.5798L112.046-81.5798Q116.513-81.5798 118.892-79.2692Q121.272-76.9586 121.272-72.3124L121.272 1.97361Q121.272 6.64315 118.892 8.94207Q116.513 11.241 112.046 11.241ZM54.2358-9.11949Q56.6842-9.11949 58.3168-10.7741L74.8611-27.3618L91.4439-10.7741Q93.1406-9.11949 95.5051-9.11949Q97.8139-9.11949 99.4201-10.7152Q101.026-12.3109 101.026-14.6417Q101.026-16.8577 99.3532-18.5309L82.7319-35.1707L99.3951-51.8945Q101.068-53.5677 101.068-55.7218Q101.068-58.0725 99.4621-59.6472Q97.8558-61.2219 95.547-61.2219Q93.2665-61.2219 91.5699-59.5673L74.8611-42.939L58.2328-59.5253Q56.6423-61.18 54.2358-61.18Q51.9654-61.18 50.3499-59.6053Q48.7343-58.0306 48.7343-55.6997Q48.7343-53.4837 50.4076-51.8525L67.0474-35.1707L50.4076-18.4889Q48.7343-16.8577 48.7343-14.6417Q48.7343-12.3109 50.3499-10.7152Q51.9654-9.11949 54.2358-9.11949Z"/>
  </g>
  <g id="Medium-L" transform="matrix(1 0 0 1 1672.31 1556)">
   <path d="M35.9826 23.0174L112.505 23.0174Q122.346 23.0174 127.375 17.9874Q132.403 12.9575 132.403 3.25599L132.403-73.6104Q132.403-83.3119 127.375-88.3298Q122.346-93.3476 112.505-93.3476L35.9826-93.3476Q26.187-93.3476 21.1355-88.3419Q16.084-83.3361 16.084-73.6104L16.084 3.25599Q16.084 13.0058 21.1355 18.0116Q26.187 23.0174 35.9826 23.0174ZM36.606 12.2475Q31.8456 12.2475 29.3269 9.79025Q26.8081 7.33303 26.8081 2.40381L26.8081-72.7341Q26.8081-77.628 29.3269-80.1029Q31.8456-82.5777 36.606-82.5777L111.881-82.5777Q116.604-82.5777 119.141-80.1029Q121.679-77.628 121.679-72.7341L121.679 2.40381Q121.679 7.33303 119.141 9.79025Q116.604 12.2475 111.881 12.2475ZM53.1202-9.09001Q55.3299-9.09001 56.8229-10.6046L74.2665-28.1075L91.7447-10.6046Q93.305-9.09001 95.4232-9.09001Q97.5099-9.09001 98.9777-10.539Q100.446-11.988 100.446-14.0962Q100.446-16.1303 98.9205-17.6554L81.4076-35.1788L98.9662-52.7936Q100.491-54.3188 100.491-56.2829Q100.491-58.4153 99.0235-59.8414Q97.5556-61.2675 95.469-61.2675Q93.4423-61.2675 91.8819-59.7529L74.2665-42.2179L56.7314-59.7072Q55.2842-61.2218 53.1202-61.2218Q51.0683-61.2218 49.5951-59.7957Q48.122-58.3696 48.122-56.2613Q48.122-54.2273 49.6471-52.7479L67.1705-35.1788L49.6471-17.6096Q48.122-16.1303 48.122-14.0962Q48.122-11.988 49.5951-10.539Q51.0683-9.09001 53.1202-9.09001Z"/>
  </g>
  <g id="Regular-L" transform="matrix(1 0 0 1 1376.38 1556)">
   <path d="M35.1041 22.2473L111.827 22.2473Q121.318 22.2473 126.082 17.4782Q130.847 12.7092 130.847 3.37919L130.847-73.728Q130.847-83.058 126.082-87.8122Q121.318-92.5664 111.827-92.5664L35.1041-92.5664Q25.664-92.5664 20.874-87.8271Q16.084-83.0877 16.084-73.728L16.084 3.37919Q16.084 12.7686 20.874 17.508Q25.664 22.2473 35.1041 22.2473ZM35.265 13.5603Q30.1491 13.5603 27.4347 10.8966Q24.7203 8.23287 24.7203 2.96494L24.7203-73.284Q24.7203-78.5013 27.4347-81.1903Q30.1491-83.8794 35.265-83.8794L111.666-83.8794Q116.722-83.8794 119.467-81.1903Q122.211-78.5013 122.211-73.284L122.211 2.96494Q122.211 8.23287 119.467 10.8966Q116.722 13.5603 111.666 13.5603ZM51.6652-9.05155Q53.5634-9.05155 54.8745-10.3835L73.4908-29.0803L92.1369-10.3835Q93.5196-9.05155 95.3165-9.05155Q97.1133-9.05155 98.4007-10.3092Q99.688-11.5668 99.688-13.3846Q99.688-15.1815 98.3561-16.5134L79.6802-35.1893L98.4068-53.9665Q99.7387-55.2985 99.7387-57.0149Q99.7387-58.8625 98.4514-60.0947Q97.164-61.327 95.3671-61.327Q93.6716-61.327 92.289-59.9951L73.4908-41.2773L54.7731-59.9444Q53.5128-61.2763 51.6652-61.2763Q49.898-61.2763 48.6107-60.0441Q47.3234-58.8118 47.3234-56.994Q47.3234-55.1971 48.6553-53.9158L67.3312-35.1893L48.6553-16.4628Q47.3234-15.1815 47.3234-13.3846Q47.3234-11.5668 48.6107-10.3092Q49.898-9.05155 51.6652-9.05155Z"/>
  </g>
  <g id="Light-L" transform="matrix(1 0 0 1 1080.5 1556)">
   <path d="M34.078 21.4264L111.191 21.4264Q120.127 21.4264 124.656 16.8626Q129.185 12.2987 129.185 3.52284L129.185-73.8511Q129.185-82.627 124.656-87.1657Q120.127-91.7045 111.191-91.7045L34.078-91.7045Q25.1715-91.7045 20.6277-87.1909Q16.084-82.6773 16.084-73.8511L16.084 3.52284Q16.084 12.3992 20.6277 16.9128Q25.1715 21.4264 34.078 21.4264ZM34.2389 14.7916Q28.5894 14.7916 25.639 11.8714Q22.6887 8.95114 22.6887 3.21121L22.6887-73.4893Q22.6887-79.199 25.639-82.1343Q28.5894-85.0696 34.2389-85.0696L111.03-85.0696Q116.579-85.0696 119.579-82.1343Q122.58-79.199 122.58-73.4893L122.58 3.21121Q122.58 8.95114 119.579 11.8714Q116.579 14.7916 111.03 14.7916ZM50.4134-9.60564Q51.9012-9.60564 53.007-10.6913L72.6494-30.4142L92.3422-10.6913Q93.458-9.60564 94.8855-9.60564Q96.313-9.60564 97.3233-10.5657Q98.3336-11.5257 98.3336-12.9331Q98.3336-14.3606 97.2479-15.4463L77.5049-35.1893L97.2781-54.9926Q98.3637-56.0783 98.3637-57.4254Q98.3637-58.883 97.3534-59.828Q96.3431-60.7729 94.9157-60.7729Q93.5485-60.7729 92.4326-59.6872L72.6494-39.9844L52.9466-59.6571Q51.871-60.7428 50.4134-60.7428Q49.0361-60.7428 48.0258-59.7978Q47.0155-58.8528 47.0155-57.4455Q47.0155-56.018 48.1012-54.9624L67.8442-35.1893L48.1012-15.4161Q47.0155-14.3606 47.0155-12.9331Q47.0155-11.5257 48.0258-10.5657Q49.0361-9.60564 50.4134-9.60564Z"/>
  </g>
  <g id="Thin-L" transform="matrix(1 0 0 1 784.884 1556)">
   <path d="M32.7209 20.3407L110.349 20.3407Q118.553 20.3407 122.77 16.0483Q126.986 11.7559 126.986 3.71284L126.986-74.014Q126.986-82.057 122.77-86.3108Q118.553-90.5645 110.349-90.5645L32.7209-90.5645Q24.5201-90.5645 20.302-86.3495Q16.084-82.1344 16.084-74.014L16.084 3.71284Q16.084 11.9107 20.302 16.1257Q24.5201 20.3407 32.7209 20.3407ZM32.8818 16.4201Q26.5266 16.4201 23.2641 13.1606Q20.0016 9.9011 20.0016 3.53691L20.0016-73.7607Q20.0016-80.1218 23.2641-83.3829Q26.5266-86.6439 32.8818-86.6439L110.188-86.6439Q116.389-86.6439 119.729-83.3829Q123.069-80.1218 123.069-73.7607L123.069 3.53691Q123.069 9.9011 119.729 13.1606Q116.389 16.4201 110.188 16.4201ZM48.7577-10.3385Q49.7027-10.3385 50.537-11.0985L71.5366-32.1785L92.6136-11.0985Q93.3766-10.3385 94.3155-10.3385Q95.2544-10.3385 95.8983-10.905Q96.5422-11.4714 96.5422-12.336Q96.5422-13.2749 95.7822-14.0349L74.6279-35.1893L95.7852-56.3497Q96.5452-57.1097 96.5452-57.9682Q96.5452-58.9101 95.9013-59.4751Q95.2575-60.0401 94.3185-60.0401Q93.3856-60.0401 92.6226-59.2801L71.5366-38.2745L50.531-59.2771Q49.6996-60.0371 48.7577-60.0371Q47.8962-60.0371 47.2523-59.4721Q46.6084-58.9071 46.6084-58.0426Q46.6084-57.1036 47.3684-56.3467L68.5228-35.1893L47.3684-14.0319Q46.6084-13.2749 46.6084-12.336Q46.6084-11.4714 47.2523-10.905Q47.8962-10.3385 48.7577-10.3385Z"/>
  </g>
  <g id="Ultralight-L" transform="matrix(1 0 0 1 488.735 1556)">
   <path d="M32.0258 19.7847L109.918 19.7847Q117.747 19.7847 121.803 15.6313Q125.86 11.4778 125.86 3.81015L125.86-74.0974Q125.86-81.7651 121.803-85.8729Q117.747-89.9806 109.918-89.9806L32.0258-89.9806Q24.1864-89.9806 20.1352-85.9185Q16.084-81.8564 16.084-74.0974L16.084 3.81015Q16.084 11.6604 20.1352 15.7226Q24.1864 19.7847 32.0258 19.7847ZM32.1867 17.2542Q25.4701 17.2542 22.0477 13.8209Q18.6253 10.3877 18.6253 3.70373L18.6253-73.8997Q18.6253-80.5945 22.0477-84.0223Q25.4701-87.4502 32.1867-87.4502L109.757-87.4502Q116.291-87.4502 119.805-84.0223Q123.319-80.5945 123.319-73.8997L123.319 3.70373Q123.319 10.3877 119.805 13.8209Q116.291 17.2542 109.757 17.2542ZM47.9097-10.7138Q48.5766-10.7138 49.272-11.307L70.9666-33.0821L92.7526-11.307Q93.3349-10.7138 94.0236-10.7138Q94.7123-10.7138 95.1685-11.0787Q95.6247-11.4436 95.6247-12.0301Q95.6247-12.7188 95.0315-13.312L73.1542-35.1893L95.0206-57.0448Q95.6138-57.638 95.6138-58.2462Q95.6138-58.924 95.1576-59.2944Q94.7014-59.6647 94.0127-59.6647Q93.3022-59.6647 92.7199-59.0716L70.9666-37.3987L49.2937-59.0825Q48.5875-59.6756 47.9097-59.6756Q47.3123-59.6756 46.8561-59.3053Q46.3999-58.9349 46.3999-58.3484Q46.3999-57.6597 46.993-57.0557L68.8703-35.1893L46.993-13.3229Q46.3999-12.7188 46.3999-12.0301Q46.3999-11.4436 46.8561-11.0787Q47.3123-10.7138 47.9097-10.7138Z"/>
  </g>
  <g id="Black-M" transform="matrix(1 0 0 1 2872.54 1126)">
   <path d="M31.6183 13.203L90.1012 13.203Q99.1693 13.203 104.214 8.16134Q109.259 3.11973 109.259-5.93791L109.259-64.4591Q109.259-73.5167 104.214-78.5585Q99.1693-83.6003 90.1012-83.6003L31.6183-83.6003Q22.5558-83.6003 17.5084-78.5583Q12.4609-73.5164 12.4609-64.4591L12.4609-5.93791Q12.4609 3.11912 17.5084 8.16104Q22.5558 13.203 31.6183 13.203ZM34.2552-4.14063Q32.0406-4.14063 30.9198-5.17025Q29.799-6.19988 29.799-8.60232L29.799-61.795Q29.799-64.249 30.9198-65.2528Q32.0406-66.2567 34.2552-66.2567L87.4644-66.2567Q89.7367-66.2567 90.8286-65.2528Q91.9206-64.249 91.9206-61.795L91.9206-8.60232Q91.9206-6.19988 90.8286-5.17025Q89.7367-4.14063 87.4644-4.14063ZM47.5034-15.3458Q50.5258-15.3458 52.4601-17.2859L60.8625-25.6365L69.3218-17.2859Q71.2674-15.3458 74.2788-15.3458Q77.1188-15.3458 79.0023-17.2581Q80.8858-19.1704 80.8858-22.0163Q80.8858-24.5709 78.8886-26.5681L70.3725-35.1412L78.8941-43.7254Q80.8913-45.7226 80.8913-48.272Q80.8913-51.1176 79.0078-53.0271Q77.1243-54.9367 74.2843-54.9367Q71.284-54.9367 69.3384-52.9966L60.8625-44.5831L52.449-52.9911Q50.5202-54.9312 47.5034-54.9312Q44.7201-54.9312 42.8081-53.0216Q40.8961-51.1121 40.8961-48.2662Q40.8961-45.7116 42.8933-43.7199L51.4665-35.1412L42.8933-26.5626Q40.8961-24.5709 40.8961-22.0163Q40.8961-19.1704 42.8081-17.2581Q44.7201-15.3458 47.5034-15.3458Z"/>
  </g>
  <g id="Heavy-M" transform="matrix(1 0 0 1 2576.65 1126)">
   <path d="M30.7128 12.3923L89.3692 12.3923Q98.107 12.3923 102.864 7.64094Q107.621 2.88957 107.621-5.81086L107.621-64.5834Q107.621-73.2838 102.864-78.0339Q98.107-82.7841 89.3692-82.7841L30.7128-82.7841Q21.9913-82.7841 17.2261-78.0352Q12.4609-73.2862 12.4609-64.5834L12.4609-5.81086Q12.4609 2.89446 17.2261 7.64338Q21.9913 12.3923 30.7128 12.3923ZM32.7568-2.72252Q30.2012-2.72252 28.8804-3.96168Q27.5595-5.20084 27.5595-7.93601L27.5595-62.4558Q27.5595-65.2183 28.8804-66.4438Q30.2012-67.6693 32.7568-67.6693L87.3253-67.6693Q89.9196-67.6693 91.221-66.4438Q92.5225-65.2183 92.5225-62.4558L92.5225-7.93601Q92.5225-5.20084 91.221-3.96168Q89.9196-2.72252 87.3253-2.72252ZM45.9074-15.1775Q48.6187-15.1775 50.3638-16.9364L60.0491-26.5967L69.7805-16.9364Q71.5556-15.1775 74.2345-15.1775Q76.7825-15.1775 78.4942-16.9084Q80.2058-18.6394 80.2058-21.2012Q80.2058-23.5311 78.4032-25.3337L68.6258-35.1547L78.4195-45.0083Q80.222-46.8108 80.222-49.122Q80.222-51.6863 78.5104-53.4091Q76.7988-55.132 74.2508-55.132Q71.6044-55.132 69.8292-53.3731L60.0491-43.6553L50.3314-53.3568Q48.6025-55.1157 45.9074-55.1157Q43.4054-55.1157 41.672-53.3929Q39.9386-51.67 39.9386-49.1082Q39.9386-46.7783 41.7411-44.992L51.5622-35.1547L41.7411-25.3174Q39.9386-23.5311 39.9386-21.2012Q39.9386-18.6394 41.672-16.9084Q43.4054-15.1775 45.9074-15.1775Z"/>
  </g>
  <g id="Bold-M" transform="matrix(1 0 0 1 2280.85 1126)">
   <path d="M29.6999 11.4855L88.5504 11.4855Q96.9187 11.4855 101.354 7.05878Q105.789 2.6321 105.789-5.66875L105.789-64.7224Q105.789-73.0233 101.354-77.4472Q96.9187-81.8711 88.5504-81.8711L29.6999-81.8711Q21.3597-81.8711 16.9103-77.4499Q12.4609-73.0288 12.4609-64.7224L12.4609-5.66875Q12.4609 2.64314 16.9103 7.0643Q21.3597 11.4855 29.6999 11.4855ZM31.0806-1.13616Q28.1436-1.13616 26.5989-2.60972Q25.0543-4.08328 25.0543-7.19066L25.0543-63.195Q25.0543-66.3027 26.5989-67.7761Q28.1436-69.2495 31.0806-69.2495L87.1696-69.2495Q90.1241-69.2495 91.66-67.7761Q93.1959-66.3027 93.1959-63.195L93.1959-7.19066Q93.1959-4.08328 91.66-2.60972Q90.1241-1.13616 87.1696-1.13616ZM44.122-14.9892Q46.4854-14.9892 48.0189-16.5454L59.1392-27.6709L70.2936-16.5454Q71.878-14.9892 74.185-14.9892Q76.4063-14.9892 77.9257-16.5173Q79.4451-18.0454 79.4451-20.2895Q79.4451-22.368 77.8603-23.9528L66.6719-35.1698L77.8886-46.4433Q79.4733-48.028 79.4733-50.0728Q79.4733-52.3224 77.9539-53.8364Q76.4346-55.3504 74.2133-55.3504Q71.9627-55.3504 70.3783-53.7942L59.1392-42.6174L47.9624-53.766Q46.4572-55.3222 44.122-55.3222Q41.9347-55.3222 40.4011-53.8082Q38.8675-52.2942 38.8675-50.0501Q38.8675-47.9715 40.4522-46.415L51.6692-35.1698L40.4522-23.9245Q38.8675-22.368 38.8675-20.2895Q38.8675-18.0454 40.4011-16.5173Q41.9347-14.9892 44.122-14.9892Z"/>
  </g>
  <g id="Semibold-M" transform="matrix(1 0 0 1 1984.77 1126)">
   <path d="M29.0015 10.8603L87.9858 10.8603Q96.0995 10.8603 100.313 6.65745Q104.526 2.45461 104.526-5.57077L104.526-64.8183Q104.526-72.8436 100.313-77.0427Q96.0995-81.2417 87.9858-81.2417L29.0015-81.2417Q20.9244-81.2417 16.6926-77.0465Q12.4609-72.8513 12.4609-64.8183L12.4609-5.57077Q12.4609 2.46989 16.6926 6.66509Q20.9244 10.8603 29.0015 10.8603ZM29.925-0.0425279Q26.725-0.0425279 25.0262-1.67768Q23.3273-3.31284 23.3273-6.67681L23.3273-63.7046Q23.3273-67.0502 25.0262-68.6945Q26.725-70.3389 29.925-70.3389L87.0623-70.3389Q90.2652-70.3389 91.9626-68.6945Q93.6601-67.0502 93.6601-63.7046L93.6601-6.67681Q93.6601-3.31284 91.9626-1.67768Q90.2652-0.0425279 87.0623-0.0425279ZM42.8911-14.8594Q45.0147-14.8594 46.4023-16.2758L58.5119-28.4114L70.6473-16.2758Q72.1003-14.8594 74.1509-14.8594Q76.147-14.8594 77.5338-16.2476Q78.9206-17.6359 78.9206-19.6609Q78.9206-21.5662 77.486-23.0008L65.3248-35.1802L77.5226-47.4326Q78.9571-48.8672 78.9571-50.7283Q78.9571-52.761 77.5703-54.131Q76.1835-55.501 74.1874-55.501Q72.2098-55.501 70.7569-54.0845L58.5119-41.9019L46.3293-54.048Q44.9782-55.4645 42.8911-55.4645Q40.9208-55.4645 39.5249-54.0945Q38.129-52.7245 38.129-50.6995Q38.129-48.7941 39.5636-47.3961L51.743-35.1802L39.5636-22.9643Q38.129-21.5662 38.129-19.6609Q38.129-17.6359 39.5249-16.2476Q40.9208-14.8594 42.8911-14.8594Z"/>
  </g>
  <g id="Medium-M" transform="matrix(1 0 0 1 1688.54 1126)">
   <path d="M28.472 10.3863L87.5578 10.3863Q95.4783 10.3863 99.5236 6.35315Q103.569 2.32003 103.569-5.49648L103.569-64.8909Q103.569-72.7075 99.5236-76.736Q95.4783-80.7644 87.5578-80.7644L28.472-80.7644Q20.5942-80.7644 16.5276-76.7406Q12.4609-72.7167 12.4609-64.8909L12.4609-5.49648Q12.4609 2.33852 16.5276 6.36239Q20.5942 10.3863 28.472 10.3863ZM29.0488 0.786706Q25.6495 0.786706 23.8336-0.970977Q22.0177-2.72866 22.0177-6.28719L22.0177-64.091Q22.0177-67.617 23.8336-69.391Q25.6495-71.1649 29.0488-71.1649L86.981-71.1649Q90.3721-71.1649 92.1921-69.391Q94.0121-67.617 94.0121-64.091L94.0121-6.28719Q94.0121-2.72866 92.1921-0.970977Q90.3721 0.786706 86.981 0.786706ZM41.9579-14.761Q43.8996-14.761 45.1766-16.0714L58.0363-28.9729L70.9156-16.0714Q72.2688-14.761 74.125-14.761Q75.9504-14.761 77.2367-16.0432Q78.523-17.3254 78.523-19.1843Q78.523-20.9582 77.2022-22.279L64.3035-35.1881L77.245-48.1827Q78.5658-49.5034 78.5658-51.2254Q78.5658-53.0935 77.2795-54.3543Q75.9931-55.6152 74.1678-55.6152Q72.3971-55.6152 71.0439-54.3047L58.0363-41.3594L45.091-54.2619Q43.8568-55.5724 41.9579-55.5724Q40.152-55.5724 38.8606-54.3116Q37.5691-53.0507 37.5691-51.1919Q37.5691-49.4179 38.8899-48.1399L51.7989-35.1881L38.8899-22.2362Q37.5691-20.9582 37.5691-19.1843Q37.5691-17.3254 38.8606-16.0432Q40.152-14.761 41.9579-14.761Z"/>
  </g>
  <g id="Regular-M" transform="matrix(1 0 0 1 1392.45 1126)">
   <path d="M27.7814 9.76797L86.9995 9.76797Q94.6681 9.76797 98.494 5.95622Q102.32 2.14448 102.32-5.39959L102.32-64.9857Q102.32-72.5298 98.494-76.3359Q94.6681-80.142 86.9995-80.142L27.7814-80.142Q20.1637-80.142 16.3123-76.3416Q12.4609-72.5412 12.4609-64.9857L12.4609-5.39959Q12.4609 2.16717 16.3123 5.96757Q20.1637 9.76797 27.7814 9.76797ZM27.906 1.86832Q24.2465 1.86832 22.2781-0.0491846Q20.3096-1.96668 20.3096-5.77899L20.3096-64.595Q20.3096-68.3563 22.2781-70.2993Q24.2465-72.2423 27.906-72.2423L86.8749-72.2423Q90.5116-72.2423 92.4914-70.2993Q94.4712-68.3563 94.4712-64.595L94.4712-5.77899Q94.4712-1.96668 92.4914-0.0491846Q90.5116 1.86832 86.8749 1.86832ZM40.7406-14.6326Q42.4451-14.6326 43.5777-15.8048L57.4159-29.7053L71.2654-15.8048Q72.4886-14.6326 74.0912-14.6326Q75.6939-14.6326 76.8491-15.7765Q78.0043-16.9204 78.0043-18.5626Q78.0043-20.1652 76.8321-21.3375L62.9712-35.1983L76.883-49.1611Q78.0553-50.3334 78.0553-51.8737Q78.0553-53.5273 76.9001-54.6457Q75.7448-55.7641 74.1422-55.7641Q72.6415-55.7641 71.4183-54.5918L57.4159-40.6518L43.4758-54.5409Q42.3941-55.7131 40.7406-55.7131Q39.1493-55.7131 37.994-54.5947Q36.8388-53.4763 36.8388-51.8341Q36.8388-50.2314 38.0111-49.1102L51.8719-35.1983L38.0111-21.2865Q36.8388-20.1652 36.8388-18.5626Q36.8388-16.9204 37.994-15.7765Q39.1493-14.6326 40.7406-14.6326Z"/>
  </g>
  <g id="Light-M" transform="matrix(1 0 0 1 1096.49 1126)">
   <path d="M26.8614 9.03201L86.4291 9.03201Q93.601 9.03201 97.2153 5.40425Q100.83 1.7765 100.83-5.27079L100.83-65.0961Q100.83-72.1434 97.2153-75.7563Q93.601-79.3692 86.4291-79.3692L26.8614-79.3692Q19.7221-79.3692 16.0915-75.7712Q12.4609-72.1732 12.4609-65.0961L12.4609-5.27079Q12.4609 1.83599 16.0915 5.434Q19.7221 9.03201 26.8614 9.03201ZM26.986 2.97226Q22.8482 2.97226 20.6682 0.824768Q18.4881-1.32272 18.4881-5.55821L18.4881-64.779Q18.4881-68.9819 20.6682-71.1457Q22.8482-73.3094 26.986-73.3094L86.3045-73.3094Q90.3828-73.3094 92.5926-71.1457Q94.8024-68.9819 94.8024-64.779L94.8024-5.55821Q94.8024-1.32272 92.5926 0.824768Q90.3828 2.97226 86.3045 2.97226ZM39.6182-15.1294Q40.9548-15.1294 41.9034-16.0808L56.6615-30.9013L71.4494-16.0808Q72.4334-15.1294 73.7049-15.1294Q74.9763-15.1294 75.8832-16.0065Q76.79-16.8836 76.79-18.1578Q76.79-19.4293 75.8385-20.3807L61.0209-35.1983L75.8711-50.0811Q76.8226-51.0325 76.8226-52.2417Q76.8226-53.5457 75.9157-54.4065Q75.0089-55.2673 73.7374-55.2673Q72.5311-55.2673 71.5471-54.3158L56.6615-39.4926L41.8383-54.2833Q40.9222-55.2348 39.6182-55.2348Q38.3765-55.2348 37.4697-54.3739Q36.5628-53.5131 36.5628-52.2388Q36.5628-50.9674 37.5143-50.0485L52.3319-35.1983L37.5143-20.3482Q36.5628-19.4293 36.5628-18.1578Q36.5628-16.8836 37.4697-16.0065Q38.3765-15.1294 39.6182-15.1294Z"/>
  </g>
  <g id="Thin-M" transform="matrix(1 0 0 1 800.76 1126)">
   <path d="M25.6447 8.05864L85.6747 8.05864Q92.1896 8.05864 95.5241 4.67423Q98.8585 1.28982 98.8585-5.10045L98.8585-65.2421Q98.8585-71.6324 95.5241-74.9898Q92.1896-78.3472 85.6747-78.3472L25.6447-78.3472Q19.1381-78.3472 15.7995-75.0168Q12.4609-71.6865 12.4609-65.2421L12.4609-5.10045Q12.4609 1.39797 15.7995 4.72831Q19.1381 8.05864 25.6447 8.05864ZM25.7693 4.43231Q20.9988 4.43231 18.5389 1.98064Q16.079-0.471023 16.079-5.2662L16.079-65.0223Q16.079-69.8093 18.5389-72.2651Q20.9988-74.7208 25.7693-74.7208L85.5501-74.7208Q90.2125-74.7208 92.7264-72.2651Q95.2404-69.8093 95.2404-65.0223L95.2404-5.2662Q95.2404-0.471023 92.7264 1.98064Q90.2125 4.43231 85.5501 4.43231ZM38.1338-15.7864Q38.9837-15.7864 39.689-16.4458L55.6638-32.483L71.6927-16.4458Q72.3604-15.7864 73.1938-15.7864Q74.0273-15.7864 74.6056-16.3106Q75.1839-16.8349 75.1839-17.6225Q75.1839-18.4559 74.5245-19.1154L58.4415-35.1983L74.5327-51.2978Q75.1922-51.9572 75.1922-52.7283Q75.1922-53.57 74.6138-54.0901Q74.0355-54.6103 73.2021-54.6103Q72.3851-54.6103 71.7174-53.9508L55.6638-37.9596L39.6726-53.9426Q38.9755-54.6021 38.1338-54.6021Q37.3545-54.6021 36.7761-54.0819Q36.1978-53.5618 36.1978-52.7742Q36.1978-51.9408 36.8573-51.2895L52.9402-35.1983L36.8573-19.1071Q36.1978-18.4559 36.1978-17.6225Q36.1978-16.8349 36.7761-16.3106Q37.3545-15.7864 38.1338-15.7864Z"/>
  </g>
  <g id="Ultralight-M" transform="matrix(1 0 0 1 504.553 1126)">
   <path d="M25.0215 7.56009L85.2884 7.56009Q91.4667 7.56009 94.6578 4.30031Q97.8489 1.04054 97.8489-5.01321L97.8489-65.3169Q97.8489-71.3707 94.6578-74.5972Q91.4667-77.8237 85.2884-77.8237L25.0215-77.8237Q18.8389-77.8237 15.6499-74.6305Q12.4609-71.4372 12.4609-65.3169L12.4609-5.01321Q12.4609 1.17363 15.6499 4.36686Q18.8389 7.56009 25.0215 7.56009ZM25.1461 5.18014Q20.0516 5.18014 17.4483 2.57267Q14.8451-0.034789 14.8451-5.11663L14.8451-65.147Q14.8451-70.233 17.4483-72.8384Q20.0516-75.4437 25.1461-75.4437L85.1638-75.4437Q90.1252-75.4437 92.795-72.8384Q95.4648-70.233 95.4648-65.147L95.4648-5.11663Q95.4648-0.034789 92.795 2.57267Q90.1252 5.18014 85.1638 5.18014ZM37.3735-16.1229Q37.9741-16.1229 38.5548-16.6328L55.1528-33.2931L71.8174-16.6328Q72.323-16.1229 72.9321-16.1229Q73.5412-16.1229 73.9513-16.4664Q74.3613-16.81 74.3613-17.3483Q74.3613-17.9574 73.8514-18.4672L57.1203-35.1983L73.8472-51.921Q74.3571-52.4309 74.3571-52.9776Q74.3571-53.5825 73.947-53.9281Q73.5369-54.2738 72.9279-54.2738Q72.3103-54.2738 71.8047-53.7639L55.1528-37.1743L38.5633-53.7681Q37.9784-54.278 37.3735-54.278Q36.831-54.278 36.4209-53.9324Q36.0108-53.5867 36.0108-53.0484Q36.0108-52.4393 36.5207-51.9252L53.2518-35.1983L36.5207-18.4715Q36.0108-17.9574 36.0108-17.3483Q36.0108-16.81 36.4209-16.4664Q36.831-16.1229 37.3735-16.1229Z"/>
  </g>
  <g id="Black-S" transform="matrix(1 0 0 1 2885.5 696)">
   <path d="M25 2.92969L70.8008 2.92969Q77.9785 2.92969 82.0068-1.09863Q86.0352-5.12695 86.0352-12.3047L86.0352-58.1055Q86.0352-65.2832 82.0068-69.3115Q77.9785-73.3398 70.8008-73.3398L25-73.3398Q17.8223-73.3398 13.7939-69.3115Q9.76562-65.2832 9.76562-58.1055L9.76562-12.3047Q9.76562-5.12695 13.7939-1.09863Q17.8223 2.92969 25 2.92969ZM27.2461-11.2305Q25.5859-11.2305 24.7559-11.9873Q23.9258-12.7441 23.9258-14.5508L23.9258-55.8594Q23.9258-57.7148 24.7559-58.4473Q25.5859-59.1797 27.2461-59.1797L68.5547-59.1797Q70.2637-59.1797 71.0693-58.4473Q71.875-57.7148 71.875-55.8594L71.875-14.5508Q71.875-12.7441 71.0693-11.9873Q70.2637-11.2305 68.5547-11.2305ZM37.6465-19.7266Q40.0879-19.7266 41.6504-21.2891L47.9004-27.4902L54.1992-21.2891Q55.7617-19.7266 58.2031-19.7266Q60.498-19.7266 62.0117-21.2646Q63.5254-22.8027 63.5254-25.0977Q63.5254-27.1484 61.9141-28.7598L55.5664-35.1562L61.9141-41.5527Q63.5254-43.1641 63.5254-45.2148Q63.5254-47.5098 62.0117-49.0479Q60.498-50.5859 58.2031-50.5859Q55.7617-50.5859 54.1992-49.0234L47.9004-42.7734L41.6504-49.0234Q40.0879-50.5859 37.6465-50.5859Q35.4004-50.5859 33.8623-49.0479Q32.3242-47.5098 32.3242-45.2148Q32.3242-43.1641 33.9355-41.5527L40.332-35.1562L33.9355-28.7598Q32.3242-27.1484 32.3242-25.0977Q32.3242-22.8027 33.8623-21.2646Q35.4004-19.7266 37.6465-19.7266Z"/>
  </g>
  <g id="Heavy-S" transform="matrix(1 0 0 1 2589.39 696)">
   <path d="M24.3431 2.33042L70.2476 2.33042Q77.2064 2.33042 81.0157-1.47318Q84.8251-5.27677 84.8251-12.2125L84.8251-58.1977Q84.8251-65.1334 81.0157-68.937Q77.2064-72.7406 70.2476-72.7406L24.3431-72.7406Q17.3959-72.7406 13.5807-68.937Q9.76562-65.1334 9.76562-58.1977L9.76562-12.2125Q9.76562-5.27677 13.5807-1.47318Q17.3959 2.33042 24.3431 2.33042ZM26.0821-10.1587Q24.1915-10.1587 23.2173-11.0653Q22.2432-11.972 22.2432-14.0091L22.2432-56.401Q22.2432-58.4639 23.2173-59.3577Q24.1915-60.2515 26.0821-60.2515L68.5086-60.2515Q70.4365-60.2515 71.392-59.3577Q72.3475-58.4639 72.3475-56.401L72.3475-14.0091Q72.3475-11.972 71.392-11.0653Q70.4365-10.1587 68.5086-10.1587ZM36.4249-19.5191Q38.6473-19.5191 40.0715-20.9549L47.3011-28.1587L54.568-20.9549Q56.0153-19.5191 58.2146-19.5191Q60.3021-19.5191 61.7006-20.9362Q63.099-22.3533 63.099-24.4523Q63.099-26.3532 61.626-27.8263L54.3218-35.1678L61.6375-42.5323Q63.1105-44.0053 63.1105-45.8948Q63.1105-47.9938 61.7121-49.4051Q60.3137-50.8164 58.2262-50.8164Q56.0498-50.8164 54.6026-49.3807L47.3011-42.1281L40.0485-49.3692Q38.6358-50.8049 36.4249-50.8049Q34.3747-50.8049 32.9576-49.3936Q31.5406-47.9823 31.5406-45.8833Q31.5406-43.9823 33.0136-42.5208L40.3551-35.1678L33.0136-27.8148Q31.5406-26.3532 31.5406-24.4523Q31.5406-22.3533 32.9576-20.9362Q34.3747-19.5191 36.4249-19.5191Z"/>
  </g>
  <g id="Bold-S" transform="matrix(1 0 0 1 2293.36 696)">
   <path d="M23.6084 1.66016L69.6289 1.66016Q76.3428 1.66016 79.9072-1.89209Q83.4717-5.44434 83.4717-12.1094L83.4717-58.3008Q83.4717-64.9658 79.9072-68.5181Q76.3428-72.0703 69.6289-72.0703L23.6084-72.0703Q16.9189-72.0703 13.3423-68.5181Q9.76562-64.9658 9.76562-58.3008L9.76562-12.1094Q9.76562-5.44434 13.3423-1.89209Q16.9189 1.66016 23.6084 1.66016ZM24.7803-8.95996Q22.6318-8.95996 21.4966-10.0342Q20.3613-11.1084 20.3613-13.4033L20.3613-57.0068Q20.3613-59.3018 21.4966-60.376Q22.6318-61.4502 24.7803-61.4502L68.457-61.4502Q70.6299-61.4502 71.7529-60.376Q72.876-59.3018 72.876-57.0068L72.876-13.4033Q72.876-11.1084 71.7529-10.0342Q70.6299-8.95996 68.457-8.95996ZM35.0586-19.2871Q37.0361-19.2871 38.3057-20.5811L46.6309-28.9062L54.9805-20.5811Q56.2988-19.2871 58.2275-19.2871Q60.083-19.2871 61.3525-20.5688Q62.6221-21.8506 62.6221-23.7305Q62.6221-25.4639 61.3037-26.7822L52.9297-35.1807L61.3281-43.6279Q62.6465-44.9463 62.6465-46.6553Q62.6465-48.5352 61.377-49.8047Q60.1074-51.0742 58.252-51.0742Q56.3721-51.0742 55.0537-49.7803L46.6309-41.4062L38.2568-49.7559Q37.0117-51.0498 35.0586-51.0498Q33.2275-51.0498 31.9458-49.7803Q30.6641-48.5107 30.6641-46.6309Q30.6641-44.8975 31.9824-43.6035L40.3809-35.1807L31.9824-26.7578Q30.6641-25.4639 30.6641-23.7305Q30.6641-21.8506 31.9458-20.5688Q33.2275-19.2871 35.0586-19.2871Z"/>
  </g>
  <g id="Semibold-S" transform="matrix(1 0 0 1 1997.11 696)">
   <path d="M23.1019 1.19805L69.2023 1.19805Q75.7474 1.19805 79.143-2.18091Q82.5386-5.55986 82.5386-12.0383L82.5386-58.3719Q82.5386-64.8503 79.143-68.2292Q75.7474-71.6082 69.2023-71.6082L23.1019-71.6082Q16.5901-71.6082 13.1779-68.2292Q9.76562-64.8503 9.76562-58.3719L9.76562-12.0383Q9.76562-5.55986 13.1779-2.18091Q16.5901 1.19805 23.1019 1.19805ZM23.8827-8.1335Q21.5565-8.1335 20.3102-9.32324Q19.0639-10.513 19.0639-12.9856L19.0639-57.4245Q19.0639-59.8794 20.3102-61.078Q21.5565-62.2767 23.8827-62.2767L68.4215-62.2767Q70.7632-62.2767 72.0018-61.078Q73.2403-59.8794 73.2403-57.4245L73.2403-12.9856Q73.2403-10.513 72.0018-9.32324Q70.7632-8.1335 68.4215-8.1335ZM34.1166-19.1271Q35.9253-19.1271 37.0882-20.3233L46.1688-29.4217L55.2648-20.3233Q56.4943-19.1271 58.2364-19.1271Q59.9319-19.1271 61.1126-20.3156Q62.2933-21.504 62.2933-23.2328Q62.2933-24.8507 61.0815-26.0624L51.9699-35.1896L61.1148-44.3833Q62.3266-45.595 62.3266-47.1796Q62.3266-48.9084 61.1459-50.0802Q59.9652-51.252 58.2697-51.252Q56.5942-51.252 55.3647-50.0558L46.1688-40.9086L37.0216-50.0225Q35.892-51.2187 34.1166-51.2187Q32.4366-51.2187 31.2482-50.0469Q30.0598-48.8751 30.0598-47.1463Q30.0598-45.5284 31.2715-44.35L40.3986-35.1896L31.2715-26.0291Q30.0598-24.8507 30.0598-23.2328Q30.0598-21.504 31.2482-20.3156Q32.4366-19.1271 34.1166-19.1271Z"/>
  </g>
  <g id="Medium-S" transform="matrix(1 0 0 1 1700.76 696)">
   <path d="M22.7178 0.847656L68.8789 0.847656Q75.2959 0.847656 78.5635-2.3999Q81.8311-5.64746 81.8311-11.9844L81.8311-58.4258Q81.8311-64.7627 78.5635-68.0103Q75.2959-71.2578 68.8789-71.2578L22.7178-71.2578Q16.3408-71.2578 13.0532-68.0103Q9.76562-64.7627 9.76562-58.4258L9.76562-11.9844Q9.76562-5.64746 13.0532-2.3999Q16.3408 0.847656 22.7178 0.847656ZM23.2021-7.50684Q20.7412-7.50684 19.4106-8.78418Q18.0801-10.0615 18.0801-12.6689L18.0801-57.7412Q18.0801-60.3174 19.4106-61.6104Q20.7412-62.9033 23.2021-62.9033L68.3945-62.9033Q70.8643-62.9033 72.1904-61.6104Q73.5166-60.3174 73.5166-57.7412L73.5166-12.6689Q73.5166-10.0615 72.1904-8.78418Q70.8643-7.50684 68.3945-7.50684ZM33.4023-19.0059Q35.083-19.0059 36.165-20.1279L45.8184-29.8125L55.4805-20.1279Q56.6426-19.0059 58.2432-19.0059Q59.8174-19.0059 60.9307-20.1235Q62.0439-21.2412 62.0439-22.8555Q62.0439-24.3857 60.9131-25.5166L51.2422-35.1963L60.9531-44.9561Q62.084-46.0869 62.084-47.5771Q62.084-49.1914 60.9707-50.2891Q59.8574-51.3867 58.2832-51.3867Q56.7627-51.3867 55.6006-50.2646L45.8184-40.5312L36.085-50.2246Q35.043-51.3467 33.4023-51.3467Q31.8369-51.3467 30.7192-50.249Q29.6016-49.1514 29.6016-47.5371Q29.6016-46.0068 30.7324-44.916L40.4121-35.1963L30.7324-25.4766Q29.6016-24.3857 29.6016-22.8555Q29.6016-21.2412 30.7192-20.1235Q31.8369-19.0059 33.4023-19.0059Z"/>
  </g>
  <g id="Regular-S" transform="matrix(1 0 0 1 1404.51 696)">
   <path d="M22.2168 0.390625L68.457 0.390625Q74.707 0.390625 77.8076-2.68555Q80.9082-5.76172 80.9082-11.9141L80.9082-58.4961Q80.9082-64.6484 77.8076-67.7246Q74.707-70.8008 68.457-70.8008L22.2168-70.8008Q16.0156-70.8008 12.8906-67.7246Q9.76562-64.6484 9.76562-58.4961L9.76562-11.9141Q9.76562-5.76172 12.8906-2.68555Q16.0156 0.390625 22.2168 0.390625ZM22.3145-6.68945Q19.6777-6.68945 18.2373-8.08105Q16.7969-9.47266 16.7969-12.2559L16.7969-58.1543Q16.7969-60.8887 18.2373-62.3047Q19.6777-63.7207 22.3145-63.7207L68.3594-63.7207Q70.9961-63.7207 72.4365-62.3047Q73.877-60.8887 73.877-58.1543L73.877-12.2559Q73.877-9.47266 72.4365-8.08105Q70.9961-6.68945 68.3594-6.68945ZM32.4707-18.8477Q33.9844-18.8477 34.9609-19.873L45.3613-30.3223L55.7617-19.873Q56.8359-18.8477 58.252-18.8477Q59.668-18.8477 60.6934-19.873Q61.7188-20.8984 61.7188-22.3633Q61.7188-23.7793 60.6934-24.8047L50.293-35.2051L60.7422-45.7031Q61.7676-46.7285 61.7676-48.0957Q61.7676-49.5605 60.7422-50.5615Q59.7168-51.5625 58.3008-51.5625Q56.9824-51.5625 55.9082-50.5371L45.3613-40.0391L34.8633-50.4883Q33.9355-51.5137 32.4707-51.5137Q31.0547-51.5137 30.0293-50.5127Q29.0039-49.5117 29.0039-48.0469Q29.0039-46.6309 30.0293-45.6543L40.4297-35.2051L30.0293-24.7559Q29.0039-23.7793 29.0039-22.3633Q29.0039-20.8984 30.0293-19.873Q31.0547-18.8477 32.4707-18.8477Z"/>
  </g>
  <g id="Light-S" transform="matrix(1 0 0 1 1108.45 696)">
   <path d="M21.403-0.260417L67.9525-0.260417Q73.763-0.260417 76.6764-3.17383Q79.5898-6.08724 79.5898-11.8001L79.5898-58.5938Q79.5898-64.3066 76.6764-67.2119Q73.763-70.1172 67.9525-70.1172L21.403-70.1172Q15.625-70.1172 12.6953-67.2201Q9.76562-64.3229 9.76562-58.5938L9.76562-11.8001Q9.76562-6.05469 12.6953-3.15755Q15.625-0.260417 21.403-0.260417ZM21.5007-5.71289Q18.4408-5.71289 16.8132-7.30794Q15.1855-8.90299 15.1855-12.0605L15.1855-58.3171Q15.1855-61.4421 16.8132-63.0534Q18.4408-64.6647 21.5007-64.6647L67.8548-64.6647Q70.8822-64.6647 72.526-63.0534Q74.1699-61.4421 74.1699-58.3171L74.1699-12.0605Q74.1699-8.90299 72.526-7.30794Q70.8822-5.71289 67.8548-5.71289ZM31.4779-19.2871Q32.666-19.2871 33.4798-20.1172L44.694-31.3802L55.9245-20.1172Q56.7871-19.2871 57.9102-19.2871Q59.0332-19.2871 59.8389-20.0765Q60.6445-20.8659 60.6445-22.0052Q60.6445-23.1283 59.8145-23.9583L48.5677-35.2051L59.847-46.5169Q60.6771-47.347 60.6771-48.4212Q60.6771-49.5768 59.8714-50.3499Q59.0658-51.123 57.9427-51.123Q56.8848-51.123 56.0221-50.293L44.694-39.0137L33.4147-50.2604Q32.6335-51.0905 31.4779-51.0905Q30.3711-51.0905 29.5654-50.3174Q28.7598-49.5443 28.7598-48.4049Q28.7598-47.2819 29.5898-46.4844L40.8366-35.2051L29.5898-23.9258Q28.7598-23.1283 28.7598-22.0052Q28.7598-20.8659 29.5654-20.0765Q30.3711-19.2871 31.4779-19.2871Z"/>
  </g>
  <g id="Thin-S" transform="matrix(1 0 0 1 812.615 696)">
   <path d="M20.3267-1.12147L67.2852-1.12147Q72.5145-1.12147 75.1803-3.81962Q77.8462-6.51777 77.8462-11.6494L77.8462-58.7229Q77.8462-63.8546 75.1803-66.5338Q72.5145-69.2131 67.2852-69.2131L20.3267-69.2131Q15.1084-69.2131 12.437-66.5527Q9.76562-63.8924 9.76562-58.7229L9.76562-11.6494Q9.76562-6.44216 12.437-3.78182Q15.1084-1.12147 20.3267-1.12147ZM20.4243-4.42131Q16.8048-4.42131 14.9296-6.28544Q13.0544-8.14957 13.0544-11.8022L13.0544-58.5323Q13.0544-62.174 14.9296-64.0436Q16.8048-65.9132 20.4243-65.9132L67.1875-65.9132Q70.7315-65.9132 72.6444-64.0436Q74.5574-62.174 74.5574-58.5323L74.5574-11.8022Q74.5574-8.14957 72.6444-6.28544Q70.7315-4.42131 67.1875-4.42131ZM30.1648-19.8683Q30.9224-19.8683 31.5209-20.4401L43.8114-32.7794L56.1397-20.4401Q56.7225-19.8683 57.4581-19.8683Q58.1937-19.8683 58.7087-20.3456Q59.2238-20.8228 59.2238-21.5316Q59.2238-22.2672 58.652-22.839L46.2859-35.2051L58.6631-47.5932Q59.2348-48.165 59.2348-48.8518Q59.2348-49.5983 58.7198-50.0701Q58.2047-50.5418 57.4691-50.5418Q56.7556-50.5418 56.1728-49.9701L43.8114-37.6575L31.4989-49.959Q30.9114-50.5308 30.1648-50.5308Q29.467-50.5308 28.9519-50.0591Q28.4369-49.5873 28.4369-48.8785Q28.4369-48.143 29.0086-47.5822L41.3747-35.2051L29.0086-22.8279Q28.4369-22.2672 28.4369-21.5316Q28.4369-20.8228 28.9519-20.3456Q29.467-19.8683 30.1648-19.8683Z"/>
  </g>
  <g id="Ultralight-S" transform="matrix(1 0 0 1 516.35 696)">
   <path d="M19.7754-1.5625L66.9434-1.5625Q71.875-1.5625 74.4141-4.15039Q76.9531-6.73828 76.9531-11.5723L76.9531-58.7891Q76.9531-63.623 74.4141-66.1865Q71.875-68.75 66.9434-68.75L19.7754-68.75Q14.8438-68.75 12.3047-66.2109Q9.76562-63.6719 9.76562-58.7891L9.76562-11.5723Q9.76562-6.64062 12.3047-4.10156Q14.8438-1.5625 19.7754-1.5625ZM19.873-3.75977Q15.9668-3.75977 13.9648-5.76172Q11.9629-7.76367 11.9629-11.6699L11.9629-58.6426Q11.9629-62.5488 13.9648-64.5508Q15.9668-66.5527 19.873-66.5527L66.8457-66.5527Q70.6543-66.5527 72.7051-64.5508Q74.7559-62.5488 74.7559-58.6426L74.7559-11.6699Q74.7559-7.76367 72.7051-5.76172Q70.6543-3.75977 66.8457-3.75977ZM29.4922-20.166Q30.0293-20.166 30.5176-20.6055L43.3594-33.4961L56.25-20.6055Q56.6895-20.166 57.2266-20.166Q57.7637-20.166 58.1299-20.4834Q58.4961-20.8008 58.4961-21.2891Q58.4961-21.8262 58.0566-22.2656L45.1172-35.2051L58.0566-48.1445Q58.4961-48.584 58.4961-49.0723Q58.4961-49.6094 58.1299-49.9268Q57.7637-50.2441 57.2266-50.2441Q56.6895-50.2441 56.25-49.8047L43.3594-36.9629L30.5176-49.8047Q30.0293-50.2441 29.4922-50.2441Q29.0039-50.2441 28.6377-49.9268Q28.2715-49.6094 28.2715-49.1211Q28.2715-48.584 28.7109-48.1445L41.6504-35.2051L28.7109-22.2656Q28.2715-21.8262 28.2715-21.2891Q28.2715-20.8008 28.6377-20.4834Q29.0039-20.166 29.4922-20.166Z"/>
  </g>
 </g>
</svg>
