<?xml version="1.0" encoding="UTF-8"?>
<!--Generator: Apple Native CoreSVG 175-->
<!DOCTYPE svg
PUBLIC "-//W3C//DTD SVG 1.1//EN"
       "http://www.w3.org/Graphics/SVG/1.1/DTD/svg11.dtd">
<svg version="1.1" xmlns="http://www.w3.org/2000/svg" xmlns:xlink="http://www.w3.org/1999/xlink" width="3300" height="2200">
 <!--glyph: "uni1008BD.medium", point size: 100.0, font version: "17.1d1e1", template writer version: "65.1"-->
 <g id="Notes">
  <rect height="2200" id="artboard" style="fill:white;opacity:1" width="3300" x="0" y="0"/>
  <line style="fill:none;stroke:black;opacity:1;stroke-width:0.5;" x1="263" x2="3036" y1="292" y2="292"/>
  <text style="stroke:none;fill:black;font-family:sans-serif;font-size:13;font-weight:bold;" transform="matrix(1 0 0 1 263 322)">Weight/Scale Variations</text>
  <text style="stroke:none;fill:black;font-family:sans-serif;font-size:13;text-anchor:middle;" transform="matrix(1 0 0 1 559.711 322)">Ultralight</text>
  <text style="stroke:none;fill:black;font-family:sans-serif;font-size:13;text-anchor:middle;" transform="matrix(1 0 0 1 856.422 322)">Thin</text>
  <text style="stroke:none;fill:black;font-family:sans-serif;font-size:13;text-anchor:middle;" transform="matrix(1 0 0 1 1153.13 322)">Light</text>
  <text style="stroke:none;fill:black;font-family:sans-serif;font-size:13;text-anchor:middle;" transform="matrix(1 0 0 1 1449.84 322)">Regular</text>
  <text style="stroke:none;fill:black;font-family:sans-serif;font-size:13;text-anchor:middle;" transform="matrix(1 0 0 1 1746.56 322)">Medium</text>
  <text style="stroke:none;fill:black;font-family:sans-serif;font-size:13;text-anchor:middle;" transform="matrix(1 0 0 1 2043.27 322)">Semibold</text>
  <text style="stroke:none;fill:black;font-family:sans-serif;font-size:13;text-anchor:middle;" transform="matrix(1 0 0 1 2339.98 322)">Bold</text>
  <text style="stroke:none;fill:black;font-family:sans-serif;font-size:13;text-anchor:middle;" transform="matrix(1 0 0 1 2636.69 322)">Heavy</text>
  <text style="stroke:none;fill:black;font-family:sans-serif;font-size:13;text-anchor:middle;" transform="matrix(1 0 0 1 2933.4 322)">Black</text>
  <line style="fill:none;stroke:black;opacity:1;stroke-width:0.5;" x1="263" x2="3036" y1="1903" y2="1903"/>
  <g transform="matrix(1 0 0 1 263 1933)">
   <path d="M9.24805 0.830078Q10.8691 0.830078 12.2949 0.214844Q13.7207-0.400391 14.8096-1.49414Q15.8984-2.58789 16.5186-4.01367Q17.1387-5.43945 17.1387-7.05078Q17.1387-8.66211 16.5186-10.0879Q15.8984-11.5137 14.8047-12.6074Q13.7109-13.7012 12.2852-14.3164Q10.8594-14.9316 9.23828-14.9316Q7.62695-14.9316 6.20117-14.3164Q4.77539-13.7012 3.69141-12.6074Q2.60742-11.5137 1.9873-10.0879Q1.36719-8.66211 1.36719-7.05078Q1.36719-5.43945 1.9873-4.01367Q2.60742-2.58789 3.69629-1.49414Q4.78516-0.400391 6.21094 0.214844Q7.63672 0.830078 9.24805 0.830078ZM9.24805-0.654297Q7.91992-0.654297 6.7627-1.14746Q5.60547-1.64062 4.73145-2.51953Q3.85742-3.39844 3.36426-4.56055Q2.87109-5.72266 2.87109-7.05078Q2.87109-8.37891 3.35938-9.54102Q3.84766-10.7031 4.72168-11.582Q5.5957-12.4609 6.75293-12.9541Q7.91016-13.4473 9.23828-13.4473Q10.5762-13.4473 11.7334-12.9541Q12.8906-12.4609 13.7695-11.582Q14.6484-10.7031 15.1465-9.54102Q15.6445-8.37891 15.6445-7.05078Q15.6445-5.72266 15.1514-4.56055Q14.6582-3.39844 13.7842-2.51953Q12.9102-1.64062 11.748-1.14746Q10.5859-0.654297 9.24805-0.654297ZM5.6543-7.05078Q5.6543-6.72852 5.85938-6.52832Q6.06445-6.32812 6.40625-6.32812L8.51562-6.32812L8.51562-4.20898Q8.51562-3.88672 8.71094-3.67676Q8.90625-3.4668 9.23828-3.4668Q9.56055-3.4668 9.77051-3.67676Q9.98047-3.88672 9.98047-4.20898L9.98047-6.32812L12.0898-6.32812Q12.4219-6.32812 12.627-6.52832Q12.832-6.72852 12.832-7.05078Q12.832-7.38281 12.627-7.58789Q12.4219-7.79297 12.0898-7.79297L9.98047-7.79297L9.98047-9.90234Q9.98047-10.2344 9.77051-10.4443Q9.56055-10.6543 9.23828-10.6543Q8.90625-10.6543 8.71094-10.4443Q8.51562-10.2344 8.51562-9.90234L8.51562-7.79297L6.40625-7.79297Q6.06445-7.79297 5.85938-7.58789Q5.6543-7.38281 5.6543-7.05078Z"/>
  </g>
  <g transform="matrix(1 0 0 1 281.867 1933)">
   <path d="M11.709 2.91016Q13.75 2.91016 15.5518 2.12891Q17.3535 1.34766 18.7305-0.0292969Q20.1074-1.40625 20.8887-3.20801Q21.6699-5.00977 21.6699-7.05078Q21.6699-9.0918 20.8887-10.8936Q20.1074-12.6953 18.7305-14.0723Q17.3535-15.4492 15.5469-16.2305Q13.7402-17.0117 11.6992-17.0117Q9.6582-17.0117 7.85645-16.2305Q6.05469-15.4492 4.68262-14.0723Q3.31055-12.6953 2.5293-10.8936Q1.74805-9.0918 1.74805-7.05078Q1.74805-5.00977 2.5293-3.20801Q3.31055-1.40625 4.6875-0.0292969Q6.06445 1.34766 7.86621 2.12891Q9.66797 2.91016 11.709 2.91016ZM11.709 1.25Q9.98047 1.25 8.47656 0.605469Q6.97266-0.0390625 5.83496-1.17676Q4.69727-2.31445 4.05762-3.81836Q3.41797-5.32227 3.41797-7.05078Q3.41797-8.7793 4.05762-10.2832Q4.69727-11.7871 5.83008-12.9297Q6.96289-14.0723 8.4668-14.7119Q9.9707-15.3516 11.6992-15.3516Q13.4277-15.3516 14.9316-14.7119Q16.4355-14.0723 17.5781-12.9297Q18.7207-11.7871 19.3652-10.2832Q20.0098-8.7793 20.0098-7.05078Q20.0098-5.32227 19.3701-3.81836Q18.7305-2.31445 17.5928-1.17676Q16.4551-0.0390625 14.9463 0.605469Q13.4375 1.25 11.709 1.25ZM7.17773-7.05078Q7.17773-6.69922 7.41211-6.47461Q7.64648-6.25 8.01758-6.25L10.8887-6.25L10.8887-3.36914Q10.8887-2.99805 11.1133-2.76855Q11.3379-2.53906 11.6895-2.53906Q12.0605-2.53906 12.29-2.76855Q12.5195-2.99805 12.5195-3.36914L12.5195-6.25L15.4004-6.25Q15.7715-6.25 16.001-6.47461Q16.2305-6.69922 16.2305-7.05078Q16.2305-7.42188 16.001-7.65137Q15.7715-7.88086 15.4004-7.88086L12.5195-7.88086L12.5195-10.752Q12.5195-11.1328 12.29-11.3623Q12.0605-11.5918 11.6895-11.5918Q11.3379-11.5918 11.1133-11.3574Q10.8887-11.123 10.8887-10.752L10.8887-7.88086L8.01758-7.88086Q7.63672-7.88086 7.40723-7.65137Q7.17773-7.42188 7.17773-7.05078Z"/>
  </g>
  <g transform="matrix(1 0 0 1 305.646 1933)">
   <path d="M14.9707 5.66406Q17.0605 5.66406 18.96 5.01465Q20.8594 4.36523 22.4512 3.19336Q24.043 2.02148 25.2197 0.429688Q26.3965-1.16211 27.0459-3.06641Q27.6953-4.9707 27.6953-7.05078Q27.6953-9.14062 27.0459-11.04Q26.3965-12.9395 25.2197-14.5312Q24.043-16.123 22.4512-17.2998Q20.8594-18.4766 18.9551-19.126Q17.0508-19.7754 14.9609-19.7754Q12.8711-19.7754 10.9717-19.126Q9.07227-18.4766 7.48535-17.2998Q5.89844-16.123 4.72168-14.5312Q3.54492-12.9395 2.90039-11.04Q2.25586-9.14062 2.25586-7.05078Q2.25586-4.9707 2.90527-3.06641Q3.55469-1.16211 4.72656 0.429688Q5.89844 2.02148 7.49023 3.19336Q9.08203 4.36523 10.9814 5.01465Q12.8809 5.66406 14.9707 5.66406ZM14.9707 3.84766Q13.1641 3.84766 11.5283 3.2959Q9.89258 2.74414 8.53516 1.74805Q7.17773 0.751953 6.17676-0.610352Q5.17578-1.97266 4.62891-3.6084Q4.08203-5.24414 4.08203-7.05078Q4.08203-8.86719 4.62891-10.5029Q5.17578-12.1387 6.17188-13.501Q7.16797-14.8633 8.52539-15.8594Q9.88281-16.8555 11.5186-17.4023Q13.1543-17.9492 14.9609-17.9492Q16.7773-17.9492 18.4131-17.4023Q20.0488-16.8555 21.4111-15.8594Q22.7734-14.8633 23.7695-13.501Q24.7656-12.1387 25.3174-10.5029Q25.8691-8.86719 25.8691-7.05078Q25.8789-5.24414 25.332-3.6084Q24.7852-1.97266 23.7842-0.610352Q22.7832 0.751953 21.4209 1.74805Q20.0586 2.74414 18.4229 3.2959Q16.7871 3.84766 14.9707 3.84766ZM9.19922-7.05078Q9.19922-6.66992 9.45801-6.4209Q9.7168-6.17188 10.1172-6.17188L14.0625-6.17188L14.0625-2.2168Q14.0625-1.81641 14.3115-1.55762Q14.5605-1.29883 14.9512-1.29883Q15.3516-1.29883 15.6104-1.55273Q15.8691-1.80664 15.8691-2.2168L15.8691-6.17188L19.8242-6.17188Q20.2246-6.17188 20.4785-6.4209Q20.7324-6.66992 20.7324-7.05078Q20.7324-7.46094 20.4785-7.71484Q20.2246-7.96875 19.8242-7.96875L15.8691-7.96875L15.8691-11.9141Q15.8691-12.3242 15.6104-12.583Q15.3516-12.8418 14.9512-12.8418Q14.5605-12.8418 14.3115-12.583Q14.0625-12.3242 14.0625-11.9141L14.0625-7.96875L10.1172-7.96875Q9.70703-7.96875 9.45312-7.71484Q9.19922-7.46094 9.19922-7.05078Z"/>
  </g>
  <text style="stroke:none;fill:black;font-family:sans-serif;font-size:13;font-weight:bold;" transform="matrix(1 0 0 1 263 1953)">Design Variations</text>
  <text style="stroke:none;fill:black;font-family:sans-serif;font-size:13;" transform="matrix(1 0 0 1 263 1971)">Symbols are supported in up to nine weights and three scales.</text>
  <text style="stroke:none;fill:black;font-family:sans-serif;font-size:13;" transform="matrix(1 0 0 1 263 1989)">For optimal layout with text and other symbols, vertically align</text>
  <text style="stroke:none;fill:black;font-family:sans-serif;font-size:13;" transform="matrix(1 0 0 1 263 2007)">symbols with the adjacent text.</text>
  <line style="fill:none;stroke:#00AEEF;stroke-width:0.5;opacity:1.0;" x1="776" x2="776" y1="1919" y2="1933"/>
  <g transform="matrix(1 0 0 1 776 1933)">
   <path d="M3.31055 0.15625Q3.70117 0.15625 3.91602-0.00976562Q4.13086-0.175781 4.26758-0.585938L5.52734-4.0332L11.2891-4.0332L12.5488-0.585938Q12.6855-0.175781 12.9004-0.00976562Q13.1152 0.15625 13.4961 0.15625Q13.8867 0.15625 14.1162-0.0585938Q14.3457-0.273438 14.3457-0.644531Q14.3457-0.869141 14.2383-1.17188L9.6582-13.3691Q9.48242-13.8184 9.17969-14.043Q8.87695-14.2676 8.4082-14.2676Q7.5-14.2676 7.17773-13.3789L2.59766-1.16211Q2.49023-0.859375 2.49023-0.634766Q2.49023-0.263672 2.70996-0.0537109Q2.92969 0.15625 3.31055 0.15625ZM6.00586-5.51758L8.37891-12.0898L8.42773-12.0898L10.8008-5.51758Z"/>
  </g>
  <line style="fill:none;stroke:#00AEEF;stroke-width:0.5;opacity:1.0;" x1="793.197" x2="793.197" y1="1919" y2="1933"/>
  <text style="stroke:none;fill:black;font-family:sans-serif;font-size:13;font-weight:bold;" transform="matrix(1 0 0 1 776 1953)">Margins</text>
  <text style="stroke:none;fill:black;font-family:sans-serif;font-size:13;" transform="matrix(1 0 0 1 776 1971)">Leading and trailing margins on the left and right side of each symbol</text>
  <text style="stroke:none;fill:black;font-family:sans-serif;font-size:13;" transform="matrix(1 0 0 1 776 1989)">can be adjusted by modifying the x-location of the margin guidelines.</text>
  <text style="stroke:none;fill:black;font-family:sans-serif;font-size:13;" transform="matrix(1 0 0 1 776 2007)">Modifications are automatically applied proportionally to all</text>
  <text style="stroke:none;fill:black;font-family:sans-serif;font-size:13;" transform="matrix(1 0 0 1 776 2025)">scales and weights.</text>
  <g transform="matrix(1 0 0 1 1289 1933)">
   <path d="M2.8418 1.86523L4.54102 3.57422Q5.18555 4.22852 5.90332 4.17969Q6.62109 4.13086 7.31445 3.35938L18.0078-8.42773L17.041-9.4043L6.42578 2.27539Q6.16211 2.57812 5.89355 2.61719Q5.625 2.65625 5.27344 2.30469L4.10156 1.14258Q3.75 0.791016 3.79395 0.522461Q3.83789 0.253906 4.14062-0.0195312L15.6152-10.8203L14.6387-11.7871L3.04688-0.898438Q2.30469-0.214844 2.25098 0.498047Q2.19727 1.21094 2.8418 1.86523ZM9.25781-16.3281Q8.94531-16.0254 8.90625-15.6348Q8.86719-15.2441 9.04297-14.9512Q9.21875-14.6777 9.55566-14.541Q9.89258-14.4043 10.3809-14.5215Q11.4746-14.7754 12.5977-14.7314Q13.7207-14.6875 14.7949-13.9844L14.209-12.5293Q13.9551-11.9043 14.0674-11.4404Q14.1797-10.9766 14.5801-10.5664L16.875-8.25195Q17.2363-7.88086 17.5781-7.82227Q17.9199-7.76367 18.3398-7.8418L19.4043-8.03711L20.0684-7.36328L20.0293-6.80664Q20-6.43555 20.1221-6.12305Q20.2441-5.81055 20.6055-5.44922L21.3672-4.70703Q21.7285-4.3457 22.1533-4.33105Q22.5781-4.31641 22.9297-4.66797L25.8398-7.58789Q26.1914-7.93945 26.1816-8.35449Q26.1719-8.76953 25.8105-9.13086L25.0391-9.89258Q24.6875-10.2539 24.3799-10.3857Q24.0723-10.5176 23.7109-10.4883L23.1348-10.4395L22.4902-11.0742L22.7344-12.1973Q22.832-12.6172 22.6953-12.9834Q22.5586-13.3496 22.1191-13.7891L19.9219-15.9766Q18.6719-17.2168 17.2607-17.8369Q15.8496-18.457 14.4189-18.4814Q12.9883-18.5059 11.665-17.959Q10.3418-17.4121 9.25781-16.3281ZM10.752-15.957Q11.6602-16.6211 12.7002-16.9043Q13.7402-17.1875 14.8047-17.085Q15.8691-16.9824 16.8701-16.5137Q17.8711-16.0449 18.7012-15.2051L21.1328-12.793Q21.3086-12.6172 21.3525-12.4512Q21.3965-12.2852 21.3379-12.0312L21.0156-10.5469L22.5195-9.0625L23.5059-9.12109Q23.6914-9.13086 23.7891-9.09668Q23.8867-9.0625 24.0332-8.91602L24.6094-8.33984L22.168-5.89844L21.5918-6.47461Q21.4453-6.62109 21.4062-6.71875Q21.3672-6.81641 21.377-7.01172L21.4453-7.98828L19.9512-9.47266L18.4277-9.21875Q18.1836-9.16992 18.042-9.2041Q17.9004-9.23828 17.7148-9.41406L15.7129-11.416Q15.5176-11.5918 15.4932-11.7529Q15.4688-11.9141 15.5859-12.1875L16.4648-14.2773Q15.293-15.3711 13.8281-15.791Q12.3633-16.2109 10.8398-15.7617Q10.7227-15.7324 10.6885-15.8057Q10.6543-15.8789 10.752-15.957Z"/>
  </g>
  <text style="stroke:none;fill:black;font-family:sans-serif;font-size:13;font-weight:bold;" transform="matrix(1 0 0 1 1289 1953)">Exporting</text>
  <text style="stroke:none;fill:black;font-family:sans-serif;font-size:13;" transform="matrix(1 0 0 1 1289 1971)">Symbols should be outlined when exporting to ensure the</text>
  <text style="stroke:none;fill:black;font-family:sans-serif;font-size:13;" transform="matrix(1 0 0 1 1289 1989)">design is preserved when submitting to Xcode.</text>
  <text id="template-version" style="stroke:none;fill:black;font-family:sans-serif;font-size:13;text-anchor:end;" transform="matrix(1 0 0 1 3036 1933)">Template v.2.0</text>
  <text style="stroke:none;fill:black;font-family:sans-serif;font-size:13;text-anchor:end;" transform="matrix(1 0 0 1 3036 1951)">Requires Xcode 12 or greater</text>
  <text id="descriptive-name" style="stroke:none;fill:black;font-family:sans-serif;font-size:13;text-anchor:end;" transform="matrix(1 0 0 1 3036 1969)">Generated from list.triangle</text>
  <text style="stroke:none;fill:black;font-family:sans-serif;font-size:13;text-anchor:end;" transform="matrix(1 0 0 1 3036 1987)">Typeset at 100 points</text>
  <text style="stroke:none;fill:black;font-family:sans-serif;font-size:13;" transform="matrix(1 0 0 1 263 726)">Small</text>
  <text style="stroke:none;fill:black;font-family:sans-serif;font-size:13;" transform="matrix(1 0 0 1 263 1156)">Medium</text>
  <text style="stroke:none;fill:black;font-family:sans-serif;font-size:13;" transform="matrix(1 0 0 1 263 1586)">Large</text>
 </g>
 <g id="Guides">
  <g id="H-reference" style="fill:#27AAE1;stroke:none;" transform="matrix(1 0 0 1 339 696)">
   <path d="M0.993347 0L3.6377 0L29.3282-67.1326L30.0301-67.1326L30.0301-70.459L28.1227-70.459ZM11.6882-24.4797L46.9818-24.4797L46.2311-26.7288L12.4382-26.7288ZM55.1193 0L57.7637 0L30.6381-70.459L29.4327-70.459L29.4327-67.1326Z"/>
  </g>
  <line id="Baseline-S" style="fill:none;stroke:#27AAE1;opacity:1;stroke-width:0.5;" x1="263" x2="3036" y1="696" y2="696"/>
  <line id="Capline-S" style="fill:none;stroke:#27AAE1;opacity:1;stroke-width:0.5;" x1="263" x2="3036" y1="625.541" y2="625.541"/>
  <g id="H-reference" style="fill:#27AAE1;stroke:none;" transform="matrix(1 0 0 1 339 1126)">
   <path d="M0.993347 0L3.6377 0L29.3282-67.1326L30.0301-67.1326L30.0301-70.459L28.1227-70.459ZM11.6882-24.4797L46.9818-24.4797L46.2311-26.7288L12.4382-26.7288ZM55.1193 0L57.7637 0L30.6381-70.459L29.4327-70.459L29.4327-67.1326Z"/>
  </g>
  <line id="Baseline-M" style="fill:none;stroke:#27AAE1;opacity:1;stroke-width:0.5;" x1="263" x2="3036" y1="1126" y2="1126"/>
  <line id="Capline-M" style="fill:none;stroke:#27AAE1;opacity:1;stroke-width:0.5;" x1="263" x2="3036" y1="1055.54" y2="1055.54"/>
  <g id="H-reference" style="fill:#27AAE1;stroke:none;" transform="matrix(1 0 0 1 339 1556)">
   <path d="M0.993347 0L3.6377 0L29.3282-67.1326L30.0301-67.1326L30.0301-70.459L28.1227-70.459ZM11.6882-24.4797L46.9818-24.4797L46.2311-26.7288L12.4382-26.7288ZM55.1193 0L57.7637 0L30.6381-70.459L29.4327-70.459L29.4327-67.1326Z"/>
  </g>
  <line id="Baseline-L" style="fill:none;stroke:#27AAE1;opacity:1;stroke-width:0.5;" x1="263" x2="3036" y1="1556" y2="1556"/>
  <line id="Capline-L" style="fill:none;stroke:#27AAE1;opacity:1;stroke-width:0.5;" x1="263" x2="3036" y1="1485.54" y2="1485.54"/>
  <line id="left-margin" style="fill:none;stroke:#00AEEF;stroke-width:0.5;opacity:1.0;" x1="1388.21" x2="1388.21" y1="1030.79" y2="1150.12"/>
  <line id="right-margin" style="fill:none;stroke:#00AEEF;stroke-width:0.5;opacity:1.0;" x1="1511.48" x2="1511.48" y1="1030.79" y2="1150.12"/>
 </g>
 <g id="Symbols">
  <g id="Black-L" transform="matrix(1 0 0 1 2847.25 1556)">
   <path d="M67.1924-66.8071L147.097-66.8071Q150.886-66.8071 153.548-69.4405Q156.211-72.0739 156.211-75.9215Q156.211-79.7096 153.578-82.3721Q150.944-85.0347 147.097-85.0347L67.1924-85.0347Q63.4031-85.0347 60.7405-82.4014Q58.078-79.768 58.078-75.9215Q58.078-72.1323 60.7113-69.4697Q63.3447-66.8071 67.1924-66.8071ZM67.1924-26.0749L147.097-26.0749Q150.886-26.0749 153.548-28.7083Q156.211-31.3416 156.211-35.1893Q156.211-38.9785 153.578-41.6411Q150.944-44.3037 147.097-44.3037L67.1924-44.3037Q63.4031-44.3037 60.7405-41.6703Q58.078-39.0369 58.078-35.1893Q58.078-31.4001 60.7113-28.7375Q63.3447-26.0749 67.1924-26.0749ZM67.1924 14.6562L147.097 14.6562Q150.886 14.6562 153.548 12.0228Q156.211 9.38941 156.211 5.54296Q156.211 1.75373 153.578-0.908858Q150.944-3.57144 147.097-3.57144L67.1924-3.57144Q63.4031-3.57144 60.7405-0.938061Q58.078 1.69532 58.078 5.54296Q58.078 9.331 60.7113 11.9936Q63.3447 14.6562 67.1924 14.6562ZM25.4026-62.1377L40.052-70.6217Q42.9186-72.284 42.9082-75.7029Q42.8978-79.1217 40.1104-80.7841L25.4026-89.4861Q22.0183-91.5053 19.0512-90.1745Q16.084-88.8436 16.084-85.0013L16.084-66.5641Q16.084-62.8398 19.0226-61.5193Q21.9611-60.1989 25.4026-62.1377ZM25.4026-21.5455L40.052-30.0491Q42.9186-31.6906 42.9082-35.1101Q42.8978-38.5295 40.1104-40.1918L25.4026-48.8927Q22.0183-50.9119 19.0512-49.5817Q16.084-48.2514 16.084-44.4079L16.084-25.9719Q16.084-22.2463 19.0226-20.9259Q21.9611-19.6055 25.4026-21.5455ZM25.4026 19.3256L40.052 10.8208Q42.9186 9.17927 42.9082 5.75Q42.8978 2.32073 40.1104 0.679217L25.4026-8.02283Q22.0183-10.042 19.0512-8.7112Q16.084-7.38036 16.084-3.53797L16.084 14.8992Q16.084 18.6039 19.0226 19.9341Q21.9611 21.2644 25.4026 19.3256Z"/>
  </g>
  <g id="Heavy-L" transform="matrix(1 0 0 1 2552.17 1556)">
   <path d="M64.4463-67.1916L144.876-67.1916Q148.242-67.1916 150.599-69.5269Q152.957-71.8622 152.957-75.2725Q152.957-78.6326 150.622-80.9901Q148.286-83.3477 144.876-83.3477L64.4463-83.3477Q61.0807-83.3477 58.7231-81.0124Q56.3655-78.6772 56.3655-75.2725Q56.3655-71.9068 58.7008-69.5492Q61.0361-67.1916 64.4463-67.1916ZM64.4463-27.1085L144.876-27.1085Q148.242-27.1085 150.599-29.4437Q152.957-31.779 152.957-35.1893Q152.957-38.5549 150.622-40.9125Q148.286-43.2701 144.876-43.2701L64.4463-43.2701Q61.0807-43.2701 58.7231-40.9348Q56.3655-38.5996 56.3655-35.1893Q56.3655-31.8236 58.7008-29.466Q61.0361-27.1085 64.4463-27.1085ZM64.4463 12.9691L144.876 12.9691Q148.242 12.9691 150.599 10.6339Q152.957 8.29861 152.957 4.89389Q152.957 1.52823 150.622-0.829348Q148.286-3.18693 144.876-3.18693L64.4463-3.18693Q61.0807-3.18693 58.7231-0.85166Q56.3655 1.48361 56.3655 4.89389Q56.3655 8.25399 58.7008 10.6116Q61.0361 12.9691 64.4463 12.9691ZM24.3809-62.5574L38.1611-70.5681Q40.6929-72.0518 40.6778-75.0698Q40.6628-78.0878 38.2057-79.5714L24.3809-87.7821Q21.3632-89.5906 18.7236-88.4409Q16.084-87.2912 16.084-83.8382L16.084-66.4567Q16.084-63.0984 18.7041-61.9638Q21.3243-60.8292 24.3809-62.5574ZM24.3809-22.6048L38.1611-30.6402Q40.6929-32.0937 40.6778-35.1145Q40.6628-38.1352 38.2057-39.619L24.3809-47.8239Q21.3632-49.6325 18.7236-48.4856Q16.084-47.3387 16.084-43.88L16.084-26.5042Q16.084-23.1403 18.7041-22.0057Q21.3243-20.8711 24.3809-22.6048ZM24.3809 17.6034L38.1611 9.56242Q40.6929 8.10893 40.6778 5.07584Q40.6628 2.04275 38.2057 0.589262L24.3809-7.62138Q21.3632-9.42995 18.7236-8.28024Q16.084-7.13053 16.084-3.67739L16.084 13.7041Q16.084 17.0377 18.7041 18.1846Q21.3243 19.3315 24.3809 17.6034Z"/>
  </g>
  <g id="Bold-L" transform="matrix(1 0 0 1 2257.41 1556)">
   <path d="M61.0051-67.7128L142.274-67.7128Q145.11-67.7128 147.084-69.6717Q149.057-71.6307 149.057-74.4955Q149.057-77.318 147.098-79.2916Q145.139-81.2651 142.274-81.2651L61.0051-81.2651Q58.1695-81.2651 56.196-79.3062Q54.2224-77.3472 54.2224-74.4955Q54.2224-71.6599 56.1813-69.6863Q58.1403-67.7128 61.0051-67.7128ZM61.0051-28.4066L142.274-28.4066Q145.11-28.4066 147.084-30.3655Q149.057-32.3245 149.057-35.1893Q149.057-38.0249 147.098-39.9985Q145.139-41.972 142.274-41.972L61.0051-41.972Q58.1695-41.972 56.196-40.0131Q54.2224-38.0541 54.2224-35.1893Q54.2224-32.3537 56.1813-30.3801Q58.1403-28.4066 61.0051-28.4066ZM61.0051 10.8866L142.274 10.8866Q145.11 10.8866 147.084 8.92761Q149.057 6.96867 149.057 4.11695Q149.057 1.28133 147.098-0.69222Q145.139-2.66577 142.274-2.66577L61.0051-2.66577Q58.1695-2.66577 56.196-0.706821Q54.2224 1.25213 54.2224 4.11695Q54.2224 6.93946 56.1813 8.91301Q58.1403 10.8866 61.0051 10.8866ZM23.1951-63.0724L35.8771-70.4841Q38.0238-71.76 38.0049-74.3121Q37.9859-76.8643 35.9063-78.14L23.1951-85.7286Q20.601-87.2909 18.3425-86.3491Q16.084-85.4074 16.084-82.4086L16.084-66.3632Q16.084-63.4359 18.3345-62.5132Q20.5851-61.5906 23.1951-63.0724ZM23.1951-23.8889L35.8771-31.3256Q38.0238-32.5634 38.0049-35.1221Q37.9859-37.6808 35.9063-38.9567L23.1951-46.532Q20.601-48.0942 18.3425-47.1592Q16.084-46.2241 16.084-43.212L16.084-27.1799Q16.084-24.2393 18.3345-23.3166Q20.5851-22.3939 23.1951-23.8889ZM23.1951 15.527L35.8771 8.07715Q38.0238 6.83934 38.0049 4.26816Q37.9859 1.69699 35.9063 0.459178L23.1951-7.12948Q20.601-8.69172 18.3425-7.74998Q16.084-6.80824 16.084-3.80925L16.084 12.2362Q16.084 15.1384 18.3345 16.0736Q20.5851 17.0088 23.1951 15.527Z"/>
  </g>
  <g id="Semibold-L" transform="matrix(1 0 0 1 1962.04 1556)">
   <path d="M58.6328-68.0721L140.481-68.0721Q142.951-68.0721 144.66-69.7716Q146.369-71.4711 146.369-73.9599Q146.369-76.4118 144.669-78.1206Q142.969-79.8294 140.481-79.8294L58.6328-79.8294Q56.1626-79.8294 54.4538-78.1299Q52.7449-76.4304 52.7449-73.9599Q52.7449-71.4897 54.4445-69.7809Q56.144-68.0721 58.6328-68.0721ZM58.6328-29.3015L140.481-29.3015Q142.951-29.3015 144.66-31.001Q146.369-32.7005 146.369-35.1893Q146.369-37.6595 144.669-39.3683Q142.969-41.0771 140.481-41.0771L58.6328-41.0771Q56.1626-41.0771 54.4538-39.3776Q52.7449-37.6781 52.7449-35.1893Q52.7449-32.7191 54.4445-31.0103Q56.144-29.3015 58.6328-29.3015ZM58.6328 9.45085L140.481 9.45085Q142.951 9.45085 144.66 7.75133Q146.369 6.05181 146.369 3.58134Q146.369 1.11112 144.669-0.597684Q142.969-2.30649 140.481-2.30649L58.6328-2.30649Q56.1626-2.30649 54.4538-0.606971Q52.7449 1.09255 52.7449 3.58134Q52.7449 6.03324 54.4445 7.74204Q56.144 9.45085 58.6328 9.45085ZM22.3777-63.4274L34.3025-70.4262Q36.1838-71.5588 36.1622-73.7898Q36.1406-76.0208 34.3211-77.1531L22.3777-84.313Q20.0755-85.7054 18.0797-84.907Q16.084-84.1087 16.084-81.4231L16.084-66.2988Q16.084-63.6686 18.0798-62.892Q20.0755-62.1154 22.3777-63.4274ZM22.3777-24.7741L34.3025-31.7981Q36.1838-32.8872 36.1622-35.1273Q36.1406-37.3675 34.3211-38.5001L22.3777-45.6413Q20.0755-47.0338 18.0797-46.2447Q16.084-45.4557 16.084-42.7514L16.084-27.6458Q16.084-24.997 18.0798-24.2204Q20.0755-23.4438 22.3777-24.7741ZM22.3777 14.0955L34.3025 7.05321Q36.1838 5.96409 36.1622 3.71135Q36.1406 1.45862 34.3211 0.369499L22.3777-6.79036Q20.0755-8.18279 18.0797-7.38442Q16.084-6.58606 16.084-3.90015L16.084 11.2242Q16.084 13.8291 18.0798 14.6183Q20.0755 15.4075 22.3777 14.0955Z"/>
  </g>
  <g id="Medium-L" transform="matrix(1 0 0 1 1666.35 1556)">
   <path d="M56.834-68.3445L139.121-68.3445Q141.314-68.3445 142.822-69.8473Q144.33-71.3501 144.33-73.5538Q144.33-75.7247 142.827-77.2327Q141.324-78.7408 139.121-78.7408L56.834-78.7408Q54.6408-78.7408 53.1327-77.238Q51.6247-75.7352 51.6247-73.5538Q51.6247-71.3606 53.1275-69.8526Q54.6303-68.3445 56.834-68.3445ZM56.834-29.98L139.121-29.98Q141.314-29.98 142.822-31.4828Q144.33-32.9856 144.33-35.1893Q144.33-37.3824 142.827-38.8905Q141.324-40.3986 139.121-40.3986L56.834-40.3986Q54.6408-40.3986 53.1327-38.8958Q51.6247-37.3929 51.6247-35.1893Q51.6247-32.9961 53.1275-31.4881Q54.6303-29.98 56.834-29.98ZM56.834 8.36222L139.121 8.36222Q141.314 8.36222 142.822 6.85942Q144.33 5.35661 144.33 3.17521Q144.33 0.982058 142.827-0.526003Q141.324-2.03407 139.121-2.03407L56.834-2.03407Q54.6408-2.03407 53.1327-0.53126Q51.6247 0.971545 51.6247 3.17521Q51.6247 5.3461 53.1275 6.85416Q54.6303 8.36222 56.834 8.36222ZM21.7578-63.6966L33.1086-70.3823Q34.7886-71.4063 34.7649-73.3937Q34.7413-75.3812 33.1191-76.4048L21.7578-83.2396Q19.677-84.5032 17.8805-83.8136Q16.084-83.1239 16.084-80.6758L16.084-66.2499Q16.084-63.845 17.8866-63.1792Q19.6891-62.5134 21.7578-63.6966ZM21.7578-25.4453L33.1086-32.1563Q34.7886-33.1327 34.7649-35.1313Q34.7413-37.1299 33.1191-38.1539L21.7578-44.966Q19.677-46.2297 17.8805-45.5513Q16.084-44.873 16.084-42.4022L16.084-27.999Q16.084-25.5715 17.8866-24.9057Q19.6891-24.2398 21.7578-25.4453ZM21.7578 13.0101L33.1086 6.27681Q34.7886 5.30043 34.7649 3.28916Q34.7413 1.27788 33.1191 0.301501L21.7578-6.53323Q19.677-7.79689 17.8805-7.10724Q16.084-6.41759 16.084-3.96907L16.084 10.4568Q16.084 12.8363 17.8866 13.5148Q19.6891 14.1933 21.7578 13.0101Z"/>
  </g>
  <g id="Regular-L" transform="matrix(1 0 0 1 1370.97 1556)">
   <path d="M54.4877-68.6998L137.347-68.6998Q139.178-68.6998 140.425-69.9461Q141.671-71.1923 141.671-73.024Q141.671-74.8284 140.425-76.0746Q139.178-77.3208 137.347-77.3208L54.4877-77.3208Q52.6559-77.3208 51.4097-76.0746Q50.1635-74.8284 50.1635-73.024Q50.1635-71.1923 51.4097-69.9461Q52.6559-68.6998 54.4877-68.6998ZM54.4877-30.8651L137.347-30.8651Q139.178-30.8651 140.425-32.1113Q141.671-33.3575 141.671-35.1893Q141.671-37.021 140.425-38.2673Q139.178-39.5135 137.347-39.5135L54.4877-39.5135Q52.6559-39.5135 51.4097-38.2673Q50.1635-37.021 50.1635-35.1893Q50.1635-33.3575 51.4097-32.1113Q52.6559-30.8651 54.4877-30.8651ZM54.4877 6.94228L137.347 6.94228Q139.178 6.94228 140.425 5.69606Q141.671 4.44983 141.671 2.64548Q141.671 0.813718 140.425-0.432506Q139.178-1.67873 137.347-1.67873L54.4877-1.67873Q52.6559-1.67873 51.4097-0.432506Q50.1635 0.813718 50.1635 2.64548Q50.1635 4.44983 51.4097 5.69606Q52.6559 6.94228 54.4877 6.94228ZM20.9493-64.0478L31.5514-70.325Q32.9687-71.2073 32.9425-72.8771Q32.9162-74.547 31.5514-75.4288L20.9493-81.8395Q19.1573-82.9352 17.6206-82.3874Q16.084-81.8395 16.084-79.7011L16.084-66.1862Q16.084-64.0752 17.6346-63.5538Q19.1851-63.0325 20.9493-64.0478ZM20.9493-26.3208L31.5514-32.6236Q32.9687-33.453 32.9425-35.1365Q32.9162-36.8201 31.5514-37.7024L20.9493-44.0852Q19.1573-45.1809 17.6206-44.6469Q16.084-44.113 16.084-41.9467L16.084-28.4597Q16.084-26.3208 17.6346-25.7995Q19.1851-25.2781 20.9493-26.3208ZM20.9493 11.5944L31.5514 5.26413Q32.9687 4.4348 32.9425 2.73847Q32.9162 1.04213 31.5514 0.212807L20.9493-6.19785Q19.1573-7.29356 17.6206-6.7457Q16.084-6.19785 16.084-4.05897L16.084 9.45595Q16.084 11.5414 17.6346 12.0755Q19.1851 12.6096 20.9493 11.5944Z"/>
  </g>
  <g id="Light-L" transform="matrix(1 0 0 1 1075.18 1556)">
   <path d="M51.8538-69.3488L136.507-69.3488Q137.938-69.3488 138.879-70.2896Q139.82-71.2304 139.82-72.6614Q139.82-74.046 138.879-74.9868Q137.938-75.9276 136.507-75.9276L51.8538-75.9276Q50.4229-75.9276 49.4821-74.9868Q48.5413-74.046 48.5413-72.6614Q48.5413-71.2304 49.4821-70.2896Q50.4229-69.3488 51.8538-69.3488ZM51.8538-31.8767L136.507-31.8767Q137.938-31.8767 138.879-32.8175Q139.82-33.7583 139.82-35.1893Q139.82-36.6202 138.879-37.561Q137.938-38.5018 136.507-38.5018L51.8538-38.5018Q50.4229-38.5018 49.4821-37.561Q48.5413-36.6202 48.5413-35.1893Q48.5413-33.7583 49.4821-32.8175Q50.4229-31.8767 51.8538-31.8767ZM51.8538 5.54903L136.507 5.54903Q137.938 5.54903 138.879 4.60823Q139.82 3.66743 139.82 2.28282Q139.82 0.851876 138.879-0.0889239Q137.938-1.02972 136.507-1.02972L51.8538-1.02972Q50.4229-1.02972 49.4821-0.0889239Q48.5413 0.851876 48.5413 2.28282Q48.5413 3.66743 49.4821 4.60823Q50.4229 5.54903 51.8538 5.54903ZM20.6441-64.3723L30.3489-70.1531Q31.69-70.9784 31.6733-72.5241Q31.6567-74.0698 30.3489-74.8943L20.6441-80.7897Q18.9472-81.8091 17.5156-81.2994Q16.084-80.7897 16.084-78.785L16.084-66.377Q16.084-64.4186 17.5392-63.9259Q18.9944-63.4333 20.6441-64.3723ZM20.6441-27.0269L30.3489-32.7955Q31.69-33.5867 31.6733-35.1556Q31.6567-36.7245 30.3489-37.5497L20.6441-43.398Q18.9472-44.4174 17.5156-43.9312Q16.084-43.4451 16.084-41.3933L16.084-29.0324Q16.084-27.0269 17.5392-26.5343Q18.9944-26.0416 20.6441-27.0269ZM20.6441 10.5256L30.3489 4.71067Q31.69 3.91951 31.6733 2.35673Q31.6567 0.793944 30.3489 0.00277773L20.6441-5.89258Q18.9472-6.91198 17.5156-6.40228Q16.084-5.89258 16.084-3.8871L16.084 8.52092Q16.084 10.4915 17.5392 10.9781Q18.9944 11.4646 20.6441 10.5256Z"/>
  </g>
  <g id="Thin-L" transform="matrix(1 0 0 1 779.695 1556)">
   <path d="M48.3703-70.2072L135.396-70.2072Q136.297-70.2072 136.834-70.7441Q137.372-71.2809 137.372-72.1817Q137.372-73.0112 136.834-73.5481Q136.297-74.0849 135.396-74.0849L48.3703-74.0849Q47.4695-74.0849 46.9326-73.5481Q46.3958-73.0112 46.3958-72.1817Q46.3958-71.2809 46.9326-70.7441Q47.4695-70.2072 48.3703-70.2072ZM48.3703-33.2147L135.396-33.2147Q136.297-33.2147 136.834-33.7516Q137.372-34.2885 137.372-35.1893Q137.372-36.0901 136.834-36.627Q136.297-37.1638 135.396-37.1638L48.3703-37.1638Q47.4695-37.1638 46.9326-36.627Q46.3958-36.0901 46.3958-35.1893Q46.3958-34.2885 46.9326-33.7516Q47.4695-33.2147 48.3703-33.2147ZM48.3703 3.70635L135.396 3.70635Q136.297 3.70635 136.834 3.1695Q137.372 2.63265 137.372 1.80317Q137.372 0.902343 136.834 0.365492Q136.297-0.17136 135.396-0.17136L48.3703-0.17136Q47.4695-0.17136 46.9326 0.365492Q46.3958 0.902343 46.3958 1.80317Q46.3958 2.63265 46.9326 3.1695Q47.4695 3.70635 48.3703 3.70635ZM20.2403-64.8014L28.7585-69.9258Q29.9987-70.6756 29.9948-72.0572Q29.9908-73.4388 28.7585-74.1873L20.2403-79.4012Q18.6695-80.3197 17.3767-79.8604Q16.084-79.4012 16.084-77.5733L16.084-66.6293Q16.084-64.8728 17.413-64.4181Q18.742-63.9634 20.2403-64.8014ZM20.2403-27.9608L28.7585-33.0228Q29.9987-33.7635 29.9948-35.1808Q29.9908-36.5981 28.7585-37.3479L20.2403-42.4892Q18.6695-43.4076 17.3767-42.9847Q16.084-42.5617 16.084-40.6613L16.084-29.7898Q16.084-27.9608 17.413-27.5061Q18.742-27.0514 20.2403-27.9608ZM20.2403 9.11211L28.7585 3.97869Q29.9987 3.23799 29.9948 1.85184Q29.9908 0.465696 28.7585-0.275003L20.2403-5.48885Q18.6695-6.40731 17.3767-5.94808Q16.084-5.48885 16.084-3.65979L16.084 7.28426Q16.084 9.10305 17.413 9.5266Q18.742 9.95015 20.2403 9.11211Z"/>
  </g>
  <g id="Ultralight-L" transform="matrix(1 0 0 1 483.61 1556)">
   <path d="M46.5861-70.6469L134.827-70.6469Q135.456-70.6469 135.787-70.9768Q136.118-71.3068 136.118-71.9361Q136.118-72.4812 135.787-72.8111Q135.456-73.1411 134.827-73.1411L46.5861-73.1411Q45.9568-73.1411 45.6268-72.8111Q45.2969-72.4812 45.2969-71.9361Q45.2969-71.3068 45.6268-70.9768Q45.9568-70.6469 46.5861-70.6469ZM46.5861-33.9001L134.827-33.9001Q135.456-33.9001 135.787-34.23Q136.118-34.56 136.118-35.1893Q136.118-35.8186 135.787-36.1485Q135.456-36.4785 134.827-36.4785L46.5861-36.4785Q45.9568-36.4785 45.6268-36.1485Q45.2969-35.8186 45.2969-35.1893Q45.2969-34.56 45.6268-34.23Q45.9568-33.9001 46.5861-33.9001ZM46.5861 2.76254L134.827 2.76254Q135.456 2.76254 135.787 2.43259Q136.118 2.10263 136.118 1.5575Q136.118 0.928192 135.787 0.598241Q135.456 0.26829 134.827 0.26829L46.5861 0.26829Q45.9568 0.26829 45.6268 0.598241Q45.2969 0.928192 45.2969 1.5575Q45.2969 2.10263 45.6268 2.43259Q45.9568 2.76254 46.5861 2.76254ZM20.0335-65.0213L27.944-69.8094Q29.1324-70.5205 29.135-71.818Q29.1376-73.1156 27.944-73.8252L20.0335-78.69Q18.5272-79.5568 17.3056-79.1234Q16.084-78.69 16.084-76.9527L16.084-66.7585Q16.084-65.1054 17.3484-64.6702Q18.6128-64.2349 20.0335-65.0213ZM20.0335-28.4391L27.944-33.1393Q29.1324-33.8541 29.135-35.1937Q29.1376-36.5334 27.944-37.2445L20.0335-42.0237Q18.5272-42.8904 17.3056-42.4998Q16.084-42.1093 16.084-40.2864L16.084-30.1778Q16.084-28.4391 17.3484-28.0038Q18.6128-27.5686 20.0335-28.4391ZM20.0335 8.38812L27.944 3.60377Q29.1324 2.88892 29.135 1.59324Q29.1376 0.297569 27.944-0.417281L20.0335-5.28206Q18.5272-6.14882 17.3056-5.71544Q16.084-5.28206 16.084-3.54336L16.084 6.65085Q16.084 8.39188 17.3484 8.78317Q18.6128 9.17446 20.0335 8.38812Z"/>
  </g>
  <g id="Black-M" transform="matrix(1 0 0 1 2865.38 1126)">
   <path d="M54.0599-59.4515L115.757-59.4515Q119.002-59.4515 121.286-61.7065Q123.569-63.9615 123.569-67.264Q123.569-70.5097 121.314-72.7932Q119.059-75.0768 115.757-75.0768L54.0599-75.0768Q50.8145-75.0768 48.5309-72.8218Q46.2474-70.5668 46.2474-67.264Q46.2474-64.0186 48.5024-61.735Q50.7574-59.4515 54.0599-59.4515ZM54.0599-27.3858L115.757-27.3858Q119.002-27.3858 121.286-29.6408Q123.569-31.8958 123.569-35.1983Q123.569-38.4437 121.314-40.7273Q119.059-43.0109 115.757-43.0109L54.0599-43.0109Q50.8145-43.0109 48.5309-40.7559Q46.2474-38.5008 46.2474-35.1983Q46.2474-31.9529 48.5024-29.6694Q50.7574-27.3858 54.0599-27.3858ZM54.0599 4.68014L115.757 4.68014Q119.002 4.68014 121.286 2.42512Q123.569 0.1701 123.569-3.13267Q123.569-6.37807 121.314-8.66164Q119.059-10.9452 115.757-10.9452L54.0599-10.9452Q50.8145-10.9452 48.5309-8.69019Q46.2474-6.43517 46.2474-3.13267Q46.2474 0.113004 48.5024 2.39657Q50.7574 4.68014 54.0599 4.68014ZM20.5172-55.7597L32.4922-62.672Q34.9904-64.1057 34.9876-67.0822Q34.9849-70.0586 32.5493-71.4923L20.5172-78.5866Q17.5931-80.3217 15.027-79.1401Q12.4609-77.9586 12.4609-74.6652L12.4609-59.624Q12.4609-56.4445 14.9983-55.2657Q17.5357-54.0869 20.5172-55.7597ZM20.5172-23.8131L32.4922-30.7313Q34.9904-32.1594 34.9876-35.1358Q34.9849-38.1121 32.5493-39.5457L20.5172-46.6404Q17.5931-48.3754 15.027-47.1937Q12.4609-46.012 12.4609-42.719L12.4609-27.6774Q12.4609-24.4983 14.9983-23.3195Q17.5357-22.1407 20.5172-23.8131ZM20.5172 8.37194L32.4922 1.45407Q34.9904 0.0259042 34.9876-2.95329Q34.9849-5.93248 32.5493-7.36065L20.5172-14.455Q17.5931-16.1901 15.027-15.0085Q12.4609-13.827 12.4609-10.5336L12.4609 4.50765Q12.4609 7.68129 14.9983 8.86299Q17.5357 10.0447 20.5172 8.37194Z"/>
  </g>
  <g id="Heavy-M" transform="matrix(1 0 0 1 2570.18 1126)">
   <path d="M51.6185-59.7675L113.663-59.7675Q116.532-59.7675 118.545-61.7593Q120.559-63.751 120.559-66.663Q120.559-69.529 118.567-71.5426Q116.575-73.5562 113.663-73.5562L51.6185-73.5562Q48.7501-73.5562 46.7366-71.5644Q44.723-69.5726 44.723-66.663Q44.723-63.7946 46.7148-61.7811Q48.7065-59.7675 51.6185-59.7675ZM51.6185-28.3029L113.663-28.3029Q116.532-28.3029 118.545-30.2946Q120.559-32.2864 120.559-35.1983Q120.559-38.0666 118.567-40.0802Q116.575-42.0938 113.663-42.0938L51.6185-42.0938Q48.7501-42.0938 46.7366-40.102Q44.723-38.1103 44.723-35.1983Q44.723-32.33 46.7148-30.3165Q48.7065-28.3029 51.6185-28.3029ZM51.6185 3.15948L113.663 3.15948Q116.532 3.15948 118.545 1.16772Q120.559-0.824051 120.559-3.73372Q120.559-6.60203 118.567-8.61561Q116.575-10.6292 113.663-10.6292L51.6185-10.6292Q48.7501-10.6292 46.7366-8.63742Q44.723-6.64565 44.723-3.73372Q44.723-0.867672 46.7148 1.14591Q48.7065 3.15948 51.6185 3.15948ZM19.5466-56.14L30.7546-62.6355Q32.9326-63.8999 32.9244-66.4959Q32.9162-69.0919 30.7982-70.3562L19.5466-77.0177Q16.9721-78.5538 14.7165-77.5458Q12.4609-76.5378 12.4609-73.6128L12.4609-59.5013Q12.4609-56.6657 14.6958-55.6659Q16.9307-54.6661 19.5466-56.14ZM19.5466-24.7836L30.7546-31.2933Q32.9326-32.5412 32.9244-35.1383Q32.9162-37.7354 30.7982-38.9998L19.5466-45.659Q16.9721-47.1952 14.7165-46.1883Q12.4609-45.1814 12.4609-42.2541L12.4609-28.1449Q12.4609-25.307 14.6958-24.3072Q16.9307-23.3074 19.5466-24.7836ZM19.5466 6.78696L30.7546 0.275Q32.9326-0.972887 32.9244-3.57711Q32.9162-6.18133 30.7982-7.42922L19.5466-14.0907Q16.9721-15.6269 14.7165-14.6189Q12.4609-13.6109 12.4609-10.6858L12.4609 3.42568Q12.4609 6.24707 14.6958 7.25396Q16.9307 8.26084 19.5466 6.78696Z"/>
  </g>
  <g id="Bold-M" transform="matrix(1 0 0 1 2275.15 1126)">
   <path d="M48.8873-60.121L111.322-60.121Q113.768-60.121 115.48-61.8183Q117.191-63.5156 117.191-65.9906Q117.191-68.432 115.494-70.1435Q113.797-71.8551 111.322-71.8551L48.8873-71.8551Q46.4409-71.8551 44.7293-70.1578Q43.0178-68.4605 43.0178-65.9906Q43.0178-63.5441 44.715-61.8326Q46.4123-60.121 48.8873-60.121ZM48.8873-29.3287L111.322-29.3287Q113.768-29.3287 115.48-31.026Q117.191-32.7233 117.191-35.1983Q117.191-37.6448 115.494-39.3564Q113.797-41.0679 111.322-41.0679L48.8873-41.0679Q46.4409-41.0679 44.7293-39.3706Q43.0178-37.6734 43.0178-35.1983Q43.0178-32.7519 44.715-31.0403Q46.4123-29.3287 48.8873-29.3287ZM48.8873 1.45842L111.322 1.45842Q113.768 1.45842 115.48-0.238868Q117.191-1.93615 117.191-4.40609Q117.191-6.85256 115.494-8.56412Q113.797-10.2757 111.322-10.2757L48.8873-10.2757Q46.4409-10.2757 44.7293-8.57839Q43.0178-6.88111 43.0178-4.40609Q43.0178-1.9647 44.715-0.253142Q46.4123 1.45842 48.8873 1.45842ZM18.4608-56.5655L28.8108-62.5947Q30.6307-63.6696 30.6164-65.84Q30.6021-68.0105 28.8394-69.0852L18.4608-75.2625Q16.2774-76.5763 14.3691-75.7624Q12.4609-74.9485 12.4609-72.4354L12.4609-59.3641Q12.4609-56.9131 14.3575-56.1136Q16.254-55.3141 18.4608-56.5655ZM18.4608-25.8692L28.8108-31.922Q30.6307-32.9682 30.6164-35.1412Q30.6021-37.3141 28.8394-38.389L18.4608-44.5611Q16.2774-45.8749 14.3691-45.0636Q12.4609-44.2523 12.4609-41.734L12.4609-28.6679Q12.4609-26.2117 14.3575-25.4122Q16.254-24.6127 18.4608-25.8692ZM18.4608 5.01394L28.8108-1.04396Q30.6307-2.09018 30.6164-4.27494Q30.6021-6.4597 28.8394-7.50591L18.4608-13.6832Q16.2774-14.9969 14.3691-14.1831Q12.4609-13.3692 12.4609-10.856L12.4609 2.21534Q12.4609 4.64269 14.3575 5.45402Q16.254 6.26535 18.4608 5.01394Z"/>
  </g>
  <g id="Semibold-M" transform="matrix(1 0 0 1 1979.6 1126)">
   <path d="M47.0045-60.3647L109.707-60.3647Q111.863-60.3647 113.366-61.859Q114.87-63.3532 114.87-65.5271Q114.87-67.6757 113.375-69.179Q111.881-70.6824 109.707-70.6824L47.0045-70.6824Q44.8489-70.6824 43.3455-69.1881Q41.8422-67.6939 41.8422-65.5271Q41.8422-63.3714 43.3364-61.8681Q44.8307-60.3647 47.0045-60.3647ZM47.0045-30.036L109.707-30.036Q111.863-30.036 113.366-31.5302Q114.87-33.0245 114.87-35.1983Q114.87-37.354 113.375-38.8574Q111.881-40.3607 109.707-40.3607L47.0045-40.3607Q44.8489-40.3607 43.3455-38.8664Q41.8422-37.3722 41.8422-35.1983Q41.8422-33.0427 43.3364-31.5393Q44.8307-30.036 47.0045-30.036ZM47.0045 0.285709L109.707 0.285709Q111.863 0.285709 113.366-1.20856Q114.87-2.70283 114.87-4.86961Q114.87-7.02527 113.375-8.52862Q111.881-10.032 109.707-10.032L47.0045-10.032Q44.8489-10.032 43.3455-8.5377Q41.8422-7.04343 41.8422-4.86961Q41.8422-2.72098 43.3364-1.21764Q44.8307 0.285709 47.0045 0.285709ZM17.7122-56.8588L27.4708-62.5666Q29.0437-63.5109 29.0253-65.3879Q29.0068-67.2649 27.4889-68.2091L17.7122-74.0526Q15.7984-75.2129 14.1297-74.5329Q12.4609-73.8529 12.4609-71.6237L12.4609-59.2695Q12.4609-57.0837 14.1242-56.4222Q15.7874-55.7608 17.7122-56.8588ZM17.7122-26.6176L27.4708-32.3554Q29.0437-33.2626 29.0253-35.1431Q29.0068-37.0237 27.4889-37.968L17.7122-43.8043Q15.7984-44.9647 14.1297-44.2882Q12.4609-43.6118 12.4609-41.3755L12.4609-29.0284Q12.4609-26.8354 14.1242-26.174Q15.7874-25.5125 17.7122-26.6176ZM17.7122 3.79162L27.4708-1.95325Q29.0437-2.86043 29.0253-4.75602Q29.0068-6.65161 27.4889-7.55879L17.7122-13.4023Q15.7984-14.5626 14.1297-13.8826Q12.4609-13.2026 12.4609-10.9733L12.4609 1.38093Q12.4609 3.53664 14.1242 4.21315Q15.7874 4.88967 17.7122 3.79162Z"/>
  </g>
  <g id="Medium-M" transform="matrix(1 0 0 1 1683.77 1126)">
   <path d="M45.5769-60.5495L108.483-60.5495Q110.418-60.5495 111.764-61.8898Q113.11-63.2302 113.11-65.1756Q113.11-67.1023 111.769-68.4477Q110.429-69.7932 108.483-69.7932L45.5769-69.7932Q43.6418-69.7932 42.2963-68.4529Q40.9508-67.1125 40.9508-65.1756Q40.9508-63.2404 42.2911-61.895Q43.6315-60.5495 45.5769-60.5495ZM45.5769-30.5722L108.483-30.5722Q110.418-30.5722 111.764-31.9126Q113.11-33.2529 113.11-35.1983Q113.11-37.1335 111.769-38.479Q110.429-39.8244 108.483-39.8244L45.5769-39.8244Q43.6418-39.8244 42.2963-38.4841Q40.9508-37.1438 40.9508-35.1983Q40.9508-33.2632 42.2911-31.9177Q43.6315-30.5722 45.5769-30.5722ZM45.5769-0.603486L108.483-0.603486Q110.418-0.603486 111.764-1.94382Q113.11-3.28415 113.11-5.22107Q113.11-7.15623 111.769-8.50171Q110.429-9.84718 108.483-9.84718L45.5769-9.84718Q43.6418-9.84718 42.2963-8.50684Q40.9508-7.16651 40.9508-5.22107Q40.9508-3.29443 42.2911-1.94896Q43.6315-0.603486 45.5769-0.603486ZM17.1446-57.0812L26.4547-62.5452Q27.8405-63.3905 27.8188-65.0451Q27.7971-66.6996 26.465-67.5447L17.1446-73.1351Q15.4353-74.1792 13.9481-73.6006Q12.4609-73.0221 12.4609-71.0083L12.4609-59.1978Q12.4609-57.2131 13.9473-56.6562Q15.4337-56.0994 17.1446-57.0812ZM17.1446-27.185L26.4547-32.684Q27.8405-33.4858 27.8188-35.1446Q27.7971-36.8035 26.465-37.6487L17.1446-43.2304Q15.4353-44.2745 13.9481-43.7003Q12.4609-43.1261 12.4609-41.1036L12.4609-29.3017Q12.4609-27.3084 13.9473-26.7516Q15.4337-26.1948 17.1446-27.185ZM17.1446 2.86482L26.4547-2.64271Q27.8405-3.44447 27.8188-5.12079Q27.7971-6.79712 26.465-7.59888L17.1446-13.1893Q15.4353-14.2333 13.9481-13.6548Q12.4609-13.0762 12.4609-11.0623L12.4609 0.748255Q12.4609 2.69799 13.9473 3.27228Q15.4337 3.84657 17.1446 2.86482Z"/>
  </g>
  <g id="Regular-M" transform="matrix(1 0 0 1 1388.21 1126)">
   <path d="M43.7148-60.7905L106.887-60.7905Q108.534-60.7905 109.674-61.9301Q110.814-63.0696 110.814-64.7172Q110.814-66.3543 109.674-67.4938Q108.534-68.6334 106.887-68.6334L43.7148-68.6334Q42.0672-68.6334 40.9277-67.4938Q39.7882-66.3543 39.7882-64.7172Q39.7882-63.0696 40.9277-61.9301Q42.0672-60.7905 43.7148-60.7905ZM43.7148-31.2717L106.887-31.2717Q108.534-31.2717 109.674-32.4112Q110.814-33.5508 110.814-35.1983Q110.814-36.8459 109.674-37.9854Q108.534-39.125 106.887-39.125L43.7148-39.125Q42.0672-39.125 40.9277-37.9854Q39.7882-36.8459 39.7882-35.1983Q39.7882-33.5508 40.9277-32.4112Q42.0672-31.2717 43.7148-31.2717ZM43.7148-1.76331L106.887-1.76331Q108.534-1.76331 109.674-2.90285Q110.814-4.0424 110.814-5.6795Q110.814-7.32705 109.674-8.4666Q108.534-9.60615 106.887-9.60615L43.7148-9.60615Q42.0672-9.60615 40.9277-8.4666Q39.7882-7.32705 39.7882-5.6795Q39.7882-4.0424 40.9277-2.90285Q42.0672-1.76331 43.7148-1.76331ZM16.4043-57.3713L25.1294-62.5174Q26.271-63.2335 26.2451-64.5979Q26.2193-65.9623 25.1294-66.6782L16.4043-71.9385Q14.9616-72.8308 13.7113-72.3847Q12.4609-71.9385 12.4609-70.2056L12.4609-59.1042Q12.4609-57.3818 13.7166-56.9615Q14.9723-56.5412 16.4043-57.3713ZM16.4043-27.9252L25.1294-33.1127Q26.271-33.7769 26.2451-35.1466Q26.2193-36.5162 25.1294-37.2323L16.4043-42.4819Q14.9616-43.3743 13.7113-42.9334Q12.4609-42.4926 12.4609-40.749L12.4609-29.6583Q12.4609-27.9252 13.7166-27.5049Q14.9723-27.0847 16.4043-27.9252ZM16.4043 1.65594L25.1294-3.542Q26.271-4.20626 26.2451-5.59659Q26.2193-6.98691 25.1294-7.65117L16.4043-12.9114Q14.9616-13.8038 13.7113-13.3576Q12.4609-12.9114 12.4609-11.1783L12.4609-0.0769784Q12.4609 1.60409 13.7166 2.04505Q14.9723 2.48601 16.4043 1.65594Z"/>
  </g>
  <g id="Light-M" transform="matrix(1 0 0 1 1092.33 1126)">
   <path d="M41.3534-61.3724L106.134-61.3724Q107.422-61.3724 108.288-62.2381Q109.154-63.1038 109.154-64.392Q109.154-65.6528 108.288-66.5185Q107.422-67.3843 106.134-67.3843L41.3534-67.3843Q40.0652-67.3843 39.1995-66.5185Q38.3338-65.6528 38.3338-64.392Q38.3338-63.1038 39.1995-62.2381Q40.0652-61.3724 41.3534-61.3724ZM41.3534-32.1787L106.134-32.1787Q107.422-32.1787 108.288-33.0444Q109.154-33.9101 109.154-35.1983Q109.154-36.4865 108.288-37.3523Q107.422-38.218 106.134-38.218L41.3534-38.218Q40.0652-38.218 39.1995-37.3523Q38.3338-36.4865 38.3338-35.1983Q38.3338-33.9101 39.1995-33.0444Q40.0652-32.1787 41.3534-32.1787ZM41.3534-3.01243L106.134-3.01243Q107.422-3.01243 108.288-3.87814Q109.154-4.74386 109.154-6.00464Q109.154-7.29284 108.288-8.15856Q107.422-9.02428 106.134-9.02428L41.3534-9.02428Q40.0652-9.02428 39.1995-8.15856Q38.3338-7.29284 38.3338-6.00464Q38.3338-4.74386 39.1995-3.87814Q40.0652-3.01243 41.3534-3.01243ZM16.1306-57.6622L24.0513-62.3633Q25.1245-63.0282 25.1073-64.2814Q25.0901-65.5345 24.0513-66.199L16.1306-70.9972Q14.7733-71.8212 13.6171-71.4092Q12.4609-70.9972 12.4609-69.3842L12.4609-59.2753Q12.4609-57.6896 13.6311-57.2951Q14.8012-56.9006 16.1306-57.6622ZM16.1306-28.5583L24.0513-33.2668Q25.1245-33.8968 25.1073-35.1637Q25.0901-36.4305 24.0513-37.0955L16.1306-41.8658Q14.7733-42.6898 13.6171-42.2918Q12.4609-41.8937 12.4609-40.2528L12.4609-30.1718Q12.4609-28.5583 13.6311-28.1637Q14.8012-27.7692 16.1306-28.5583ZM16.1306 0.69775L24.0513-4.0382Q25.1245-4.66825 25.1073-5.93884Q25.0901-7.20943 24.0513-7.83947L16.1306-12.6377Q14.7733-13.4617 13.6171-13.0497Q12.4609-12.6377 12.4609-11.0242L12.4609-0.915283Q12.4609 0.662866 13.6311 1.06114Q14.8012 1.4594 16.1306 0.69775Z"/>
  </g>
  <g id="Thin-M" transform="matrix(1 0 0 1 796.712 1126)">
   <path d="M38.2303-62.142L105.138-62.142Q105.951-62.142 106.455-62.6455Q106.959-63.1491 106.959-63.962Q106.959-64.7251 106.455-65.2286Q105.951-65.7322 105.138-65.7322L38.2303-65.7322Q37.4173-65.7322 36.9138-65.2286Q36.4102-64.7251 36.4102-63.962Q36.4102-63.1491 36.9138-62.6455Q37.4173-62.142 38.2303-62.142ZM38.2303-33.3783L105.138-33.3783Q105.951-33.3783 106.455-33.8819Q106.959-34.3854 106.959-35.1983Q106.959-36.0113 106.455-36.5148Q105.951-37.0184 105.138-37.0184L38.2303-37.0184Q37.4173-37.0184 36.9138-36.5148Q36.4102-36.0113 36.4102-35.1983Q36.4102-34.3854 36.9138-33.8819Q37.4173-33.3783 38.2303-33.3783ZM38.2303-4.66449L105.138-4.66449Q105.951-4.66449 106.455-5.16805Q106.959-5.6716 106.959-6.43467Q106.959-7.24759 106.455-7.75115Q105.951-8.25471 105.138-8.25471L38.2303-8.25471Q37.4173-8.25471 36.9138-7.75115Q36.4102-7.24759 36.4102-6.43467Q36.4102-5.6716 36.9138-5.16805Q37.4173-4.66449 38.2303-4.66449ZM15.7686-58.047L22.6255-62.1595Q23.6082-62.7567 23.6024-63.8627Q23.5966-64.9688 22.6255-65.5652L15.7686-69.7524Q14.5243-70.4859 13.4926-70.1191Q12.4609-69.7524 12.4609-68.2979L12.4609-59.5015Q12.4609-58.0969 13.518-57.7364Q14.575-57.3758 15.7686-58.047ZM15.7686-29.3955L22.6255-33.4706Q23.6082-34.0554 23.6024-35.1863Q23.5966-36.3172 22.6255-36.9145L15.7686-41.051Q14.5243-41.7845 13.4926-41.4431Q12.4609-41.1017 12.4609-39.5966L12.4609-30.8508Q12.4609-29.3955 13.518-29.035Q14.575-28.6745 15.7686-29.3955ZM15.7686-0.569527L22.6255-4.69446Q23.6082-5.27926 23.6024-6.39149Q23.5966-7.50372 22.6255-8.08852L15.7686-12.2758Q14.5243-13.0092 13.4926-12.6425Q12.4609-12.2758 12.4609-10.8204L12.4609-2.02401Q12.4609-0.581979 13.518-0.240172Q14.575 0.101634 15.7686-0.569527Z"/>
  </g>
  <g id="Ultralight-M" transform="matrix(1 0 0 1 500.564 1126)">
   <path d="M36.6306-62.5361L104.628-62.5361Q105.197-62.5361 105.516-62.8542Q105.835-63.1723 105.835-63.7417Q105.835-64.2499 105.516-64.568Q105.197-64.886 104.628-64.886L36.6306-64.886Q36.0611-64.886 35.7431-64.568Q35.425-64.2499 35.425-63.7417Q35.425-63.1723 35.7431-62.8542Q36.0611-62.5361 36.6306-62.5361ZM36.6306-33.9927L104.628-33.9927Q105.197-33.9927 105.516-34.3108Q105.835-34.6289 105.835-35.1983Q105.835-35.7678 105.516-36.0859Q105.197-36.4039 104.628-36.4039L36.6306-36.4039Q36.0611-36.4039 35.7431-36.0859Q35.425-35.7678 35.425-35.1983Q35.425-34.6289 35.7431-34.3108Q36.0611-33.9927 36.6306-33.9927ZM36.6306-5.51066L104.628-5.51066Q105.197-5.51066 105.516-5.82873Q105.835-6.14679 105.835-6.65493Q105.835-7.22442 105.516-7.54248Q105.197-7.86054 104.628-7.86054L36.6306-7.86054Q36.0611-7.86054 35.7431-7.54248Q35.425-7.22442 35.425-6.65493Q35.425-6.14679 35.7431-5.82873Q36.0611-5.51066 36.6306-5.51066ZM15.5832-58.2441L21.8952-62.0551Q22.8315-62.6177 22.8316-63.6483Q22.8316-64.679 21.8952-65.2405L15.5832-69.1148Q14.3967-69.8019 13.4288-69.4584Q12.4609-69.1148 12.4609-67.7415L12.4609-59.6174Q12.4609-58.3054 13.46-57.9624Q14.4591-57.6193 15.5832-58.2441ZM15.5832-29.8243L21.8952-33.575Q22.8315-34.1366 22.8316-35.1979Q22.8316-36.2592 21.8952-36.8218L15.5832-40.6337Q14.3967-41.3208 13.4288-41.0084Q12.4609-40.6961 12.4609-39.2604L12.4609-31.1986Q12.4609-29.8243 13.46-29.4813Q14.4591-29.1382 15.5832-29.8243ZM15.5832-1.21862L21.8952-5.0306Q22.8315-5.59222 22.8316-6.62334Q22.8316-7.65445 21.8952-8.21608L15.5832-12.0904Q14.3967-12.7775 13.4288-12.4339Q12.4609-12.0904 12.4609-10.716L12.4609-2.59189Q12.4609-1.21958 13.46-0.906696Q14.4591-0.59381 15.5832-1.21862Z"/>
  </g>
  <g id="Black-S" transform="matrix(1 0 0 1 2879.69 696)">
   <path d="M42.9688-54.1504L91.3086-54.1504Q93.9453-54.1504 95.8008-55.9814Q97.6562-57.8125 97.6562-60.498Q97.6562-63.1348 95.8252-64.9902Q93.9941-66.8457 91.3086-66.8457L42.9688-66.8457Q40.332-66.8457 38.4766-65.0146Q36.6211-63.1836 36.6211-60.498Q36.6211-57.8613 38.4521-56.0059Q40.2832-54.1504 42.9688-54.1504ZM42.9688-28.8574L91.3086-28.8574Q93.9453-28.8574 95.8008-30.6885Q97.6562-32.5195 97.6562-35.2051Q97.6562-37.8418 95.8252-39.6973Q93.9941-41.5527 91.3086-41.5527L42.9688-41.5527Q40.332-41.5527 38.4766-39.7217Q36.6211-37.8906 36.6211-35.2051Q36.6211-32.5684 38.4521-30.7129Q40.2832-28.8574 42.9688-28.8574ZM42.9688-3.56445L91.3086-3.56445Q93.9453-3.56445 95.8008-5.39551Q97.6562-7.22656 97.6562-9.91211Q97.6562-12.5488 95.8252-14.4043Q93.9941-16.2598 91.3086-16.2598L42.9688-16.2598Q40.332-16.2598 38.4766-14.4287Q36.6211-12.5977 36.6211-9.91211Q36.6211-7.27539 38.4521-5.41992Q40.2832-3.56445 42.9688-3.56445ZM16.3574-51.2207L25.9277-56.7383Q27.9785-57.9102 27.9785-60.3516Q27.9785-62.793 25.9766-63.9648L16.3574-69.6289Q13.9648-71.0449 11.8652-70.0684Q9.76562-69.0918 9.76562-66.4062L9.76562-54.3945Q9.76562-51.8066 11.8408-50.8301Q13.916-49.8535 16.3574-51.2207ZM16.3574-26.0254L25.9277-31.543Q27.9785-32.7148 27.9785-35.1562Q27.9785-37.5977 25.9766-38.7695L16.3574-44.4336Q13.9648-45.8496 11.8652-44.873Q9.76562-43.8965 9.76562-41.2109L9.76562-29.1992Q9.76562-26.6113 11.8408-25.6348Q13.916-24.6582 16.3574-26.0254ZM16.3574-0.634766L25.9277-6.15234Q27.9785-7.32422 27.9785-9.76562Q27.9785-12.207 25.9766-13.3789L16.3574-19.043Q13.9648-20.459 11.8652-19.4824Q9.76562-18.5059 9.76562-15.8203L9.76562-3.80859Q9.76562-1.2207 11.8408-0.244141Q13.916 0.732422 16.3574-0.634766Z"/>
  </g>
  <g id="Heavy-S" transform="matrix(1 0 0 1 2584.16 696)">
   <path d="M41.1825-54.3463L89.6145-54.3463Q91.9746-54.3463 93.6342-55.9872Q95.2937-57.6281 95.2937-60.0255Q95.2937-62.3857 93.6528-64.0452Q92.0119-65.7048 89.6145-65.7048L41.1825-65.7048Q38.8223-65.7048 37.1628-64.0639Q35.5032-62.423 35.5032-60.0255Q35.5032-57.6654 37.1441-56.0059Q38.785-54.3463 41.1825-54.3463ZM41.1825-29.5258L89.6145-29.5258Q91.9746-29.5258 93.6342-31.1667Q95.2937-32.8076 95.2937-35.2051Q95.2937-37.5652 93.6528-39.2248Q92.0119-40.8843 89.6145-40.8843L41.1825-40.8843Q38.8223-40.8843 37.1628-39.2434Q35.5032-37.6025 35.5032-35.2051Q35.5032-32.8449 37.1441-31.1854Q38.785-29.5258 41.1825-29.5258ZM41.1825-4.70538L89.6145-4.70538Q91.9746-4.70538 93.6342-6.34628Q95.2937-7.98718 95.2937-10.3846Q95.2937-12.7447 93.6528-14.4043Q92.0119-16.0638 89.6145-16.0638L41.1825-16.0638Q38.8223-16.0638 37.1628-14.4229Q35.5032-12.782 35.5032-10.3846Q35.5032-8.02448 37.1441-6.36493Q38.785-4.70538 41.1825-4.70538ZM15.5622-51.5088L24.5794-56.7268Q26.3651-57.7603 26.3593-59.8906Q26.3536-62.0208 24.6167-63.0544L15.5622-68.4073Q13.4578-69.662 11.6117-68.8295Q9.76562-67.997 9.76562-65.6111L9.76562-54.2678Q9.76562-51.9565 11.593-51.1297Q13.4205-50.303 15.5622-51.5088ZM15.5622-26.7745L24.5794-32.0039Q26.3651-33.026 26.3593-35.1562Q26.3536-37.2865 24.6167-38.3201L15.5622-43.673Q13.4578-44.9277 11.6117-44.0951Q9.76562-43.2626 9.76562-40.8767L9.76562-29.5334Q9.76562-27.2221 11.593-26.3954Q13.4205-25.5686 15.5622-26.7745ZM15.5622-1.86788L24.5794-7.09735Q26.3651-8.11941 26.3593-10.2554Q26.3536-12.3914 24.6167-13.4135L15.5622-18.7664Q13.4578-20.0211 11.6117-19.1885Q9.76562-18.356 9.76562-15.9701L9.76562-4.62683Q9.76562-2.32705 11.593-1.49455Q13.4205-0.662038 15.5622-1.86788Z"/>
  </g>
  <g id="Bold-S" transform="matrix(1 0 0 1 2288.77 696)">
   <path d="M39.1846-54.5654L87.7197-54.5654Q89.7705-54.5654 91.2109-55.9937Q92.6514-57.4219 92.6514-59.4971Q92.6514-61.5479 91.2231-62.9883Q89.7949-64.4287 87.7197-64.4287L39.1846-64.4287Q37.1338-64.4287 35.6934-63.0005Q34.2529-61.5723 34.2529-59.4971Q34.2529-57.4463 35.6812-56.0059Q37.1094-54.5654 39.1846-54.5654ZM39.1846-30.2734L87.7197-30.2734Q89.7705-30.2734 91.2109-31.7017Q92.6514-33.1299 92.6514-35.2051Q92.6514-37.2559 91.2231-38.6963Q89.7949-40.1367 87.7197-40.1367L39.1846-40.1367Q37.1338-40.1367 35.6934-38.7085Q34.2529-37.2803 34.2529-35.2051Q34.2529-33.1543 35.6812-31.7139Q37.1094-30.2734 39.1846-30.2734ZM39.1846-5.98145L87.7197-5.98145Q89.7705-5.98145 91.2109-7.40967Q92.6514-8.83789 92.6514-10.9131Q92.6514-12.9639 91.2231-14.4043Q89.7949-15.8447 87.7197-15.8447L39.1846-15.8447Q37.1338-15.8447 35.6934-14.4165Q34.2529-12.9883 34.2529-10.9131Q34.2529-8.8623 35.6812-7.42188Q37.1094-5.98145 39.1846-5.98145ZM14.6729-51.8311L23.0713-56.7139Q24.5605-57.5928 24.5483-59.375Q24.5361-61.1572 23.0957-62.0361L14.6729-67.041Q12.8906-68.1152 11.3281-67.4438Q9.76562-66.7725 9.76562-64.7217L9.76562-54.126Q9.76562-52.124 11.3159-51.4648Q12.8662-50.8057 14.6729-51.8311ZM14.6729-27.6123L23.0713-32.5195Q24.5605-33.374 24.5483-35.1562Q24.5361-36.9385 23.0957-37.8174L14.6729-42.8223Q12.8906-43.8965 11.3281-43.2251Q9.76562-42.5537 9.76562-40.5029L9.76562-29.9072Q9.76562-27.9053 11.3159-27.2461Q12.8662-26.5869 14.6729-27.6123ZM14.6729-3.24707L23.0713-8.1543Q24.5605-9.00879 24.5483-10.8032Q24.5361-12.5977 23.0957-13.4521L14.6729-18.457Q12.8906-19.5312 11.3281-18.8599Q9.76562-18.1885 9.76562-16.1377L9.76562-5.54199Q9.76562-3.56445 11.3159-2.89307Q12.8662-2.22168 14.6729-3.24707Z"/>
  </g>
  <g id="Semibold-S" transform="matrix(1 0 0 1 1992.97 696)">
   <path d="M37.8071-54.7165L86.4134-54.7165Q88.2509-54.7165 89.5402-55.9981Q90.8296-57.2797 90.8296-59.1327Q90.8296-60.9702 89.548-62.2596Q88.2664-63.5489 86.4134-63.5489L37.8071-63.5489Q35.9696-63.5489 34.6803-62.2673Q33.3909-60.9857 33.3909-59.1327Q33.3909-57.2952 34.6725-56.0059Q35.9541-54.7165 37.8071-54.7165ZM37.8071-30.7889L86.4134-30.7889Q88.2509-30.7889 89.5402-32.0705Q90.8296-33.3521 90.8296-35.2051Q90.8296-37.0426 89.548-38.3319Q88.2664-39.6213 86.4134-39.6213L37.8071-39.6213Q35.9696-39.6213 34.6803-38.3397Q33.3909-37.0581 33.3909-35.2051Q33.3909-33.3676 34.6725-32.0782Q35.9541-30.7889 37.8071-30.7889ZM37.8071-6.86123L86.4134-6.86123Q88.2509-6.86123 89.5402-8.14282Q90.8296-9.42441 90.8296-11.2774Q90.8296-13.1149 89.548-14.4043Q88.2664-15.6937 86.4134-15.6937L37.8071-15.6937Q35.9696-15.6937 34.6803-14.4121Q33.3909-13.1305 33.3909-11.2774Q33.3909-9.43994 34.6725-8.15059Q35.9541-6.86123 37.8071-6.86123ZM14.0597-52.0532L22.0315-56.705Q23.3164-57.4772 23.2998-59.0195Q23.2831-60.5618 22.0471-61.3341L14.0597-66.099Q12.4996-67.0488 11.1326-66.4885Q9.76562-65.9282 9.76562-64.1085L9.76562-54.0282Q9.76562-52.2396 11.1249-51.6959Q12.4841-51.1522 14.0597-52.0532ZM14.0597-28.1899L22.0315-32.875Q23.3164-33.614 23.2998-35.1562Q23.2831-36.6985 22.0471-37.4708L14.0597-42.2357Q12.4996-43.1855 11.1326-42.6252Q9.76562-42.0649 9.76562-40.2452L9.76562-30.1649Q9.76562-28.3763 11.1249-27.8326Q12.4841-27.289 14.0597-28.1899ZM14.0597-4.19795L22.0315-8.88301Q23.3164-9.62197 23.2998-11.1809Q23.2831-12.7398 22.0471-13.4788L14.0597-18.2437Q12.4996-19.1936 11.1326-18.6333Q9.76562-18.0729 9.76562-16.2532L9.76562-6.17295Q9.76562-4.41758 11.1249-3.85728Q12.4841-3.29697 14.0597-4.19795Z"/>
  </g>
  <g id="Medium-S" transform="matrix(1 0 0 1 1696.95 696)">
   <path d="M36.7627-54.8311L85.4229-54.8311Q87.0986-54.8311 88.2734-56.0015Q89.4482-57.1719 89.4482-58.8564Q89.4482-60.5322 88.2778-61.707Q87.1074-62.8818 85.4229-62.8818L36.7627-62.8818Q35.0869-62.8818 33.9121-61.7114Q32.7373-60.541 32.7373-58.8564Q32.7373-57.1807 33.9077-56.0059Q35.0781-54.8311 36.7627-54.8311ZM36.7627-31.1797L85.4229-31.1797Q87.0986-31.1797 88.2734-32.3501Q89.4482-33.5205 89.4482-35.2051Q89.4482-36.8809 88.2778-38.0557Q87.1074-39.2305 85.4229-39.2305L36.7627-39.2305Q35.0869-39.2305 33.9121-38.0601Q32.7373-36.8896 32.7373-35.2051Q32.7373-33.5293 33.9077-32.3545Q35.0781-31.1797 36.7627-31.1797ZM36.7627-7.52832L85.4229-7.52832Q87.0986-7.52832 88.2734-8.69873Q89.4482-9.86914 89.4482-11.5537Q89.4482-13.2295 88.2778-14.4043Q87.1074-15.5791 85.4229-15.5791L36.7627-15.5791Q35.0869-15.5791 33.9121-14.4087Q32.7373-13.2383 32.7373-11.5537Q32.7373-9.87793 33.9077-8.70312Q35.0781-7.52832 36.7627-7.52832ZM13.5947-52.2217L21.2432-56.6982Q22.373-57.3896 22.353-58.75Q22.333-60.1104 21.252-60.8018L13.5947-65.3848Q12.2031-66.2402 10.9844-65.7642Q9.76562-65.2881 9.76562-63.6436L9.76562-53.9541Q9.76562-52.3271 10.98-51.8711Q12.1943-51.415 13.5947-52.2217ZM13.5947-28.6279L21.2432-33.1445Q22.373-33.7959 22.353-35.1562Q22.333-36.5166 21.252-37.208L13.5947-41.791Q12.2031-42.6465 10.9844-42.1704Q9.76562-41.6943 9.76562-40.0498L9.76562-30.3604Q9.76562-28.7334 10.98-28.2773Q12.1943-27.8213 13.5947-28.6279ZM13.5947-4.91895L21.2432-9.43555Q22.373-10.0869 22.353-11.4673Q22.333-12.8477 21.252-13.499L13.5947-18.082Q12.2031-18.9375 10.9844-18.4614Q9.76562-17.9854 9.76562-16.3408L9.76562-6.65137Q9.76562-5.06445 10.98-4.58838Q12.1943-4.1123 13.5947-4.91895Z"/>
  </g>
  <g id="Regular-S" transform="matrix(1 0 0 1 1401.14 696)">
   <path d="M35.4004-54.9805L84.1309-54.9805Q85.5957-54.9805 86.6211-56.0059Q87.6465-57.0312 87.6465-58.4961Q87.6465-59.9609 86.6211-60.9863Q85.5957-62.0117 84.1309-62.0117L35.4004-62.0117Q33.9355-62.0117 32.9102-60.9863Q31.8848-59.9609 31.8848-58.4961Q31.8848-57.0312 32.9102-56.0059Q33.9355-54.9805 35.4004-54.9805ZM35.4004-31.6895L84.1309-31.6895Q85.5957-31.6895 86.6211-32.7148Q87.6465-33.7402 87.6465-35.2051Q87.6465-36.6699 86.6211-37.6953Q85.5957-38.7207 84.1309-38.7207L35.4004-38.7207Q33.9355-38.7207 32.9102-37.6953Q31.8848-36.6699 31.8848-35.2051Q31.8848-33.7402 32.9102-32.7148Q33.9355-31.6895 35.4004-31.6895ZM35.4004-8.39844L84.1309-8.39844Q85.5957-8.39844 86.6211-9.42383Q87.6465-10.4492 87.6465-11.9141Q87.6465-13.3789 86.6211-14.4043Q85.5957-15.4297 84.1309-15.4297L35.4004-15.4297Q33.9355-15.4297 32.9102-14.4043Q31.8848-13.3789 31.8848-11.9141Q31.8848-10.4492 32.9102-9.42383Q33.9355-8.39844 35.4004-8.39844ZM12.9883-52.4414L20.2148-56.6895Q21.1426-57.2754 21.1182-58.3984Q21.0938-59.5215 20.2148-60.1074L12.9883-64.4531Q11.8164-65.1855 10.791-64.8193Q9.76562-64.4531 9.76562-63.0371L9.76562-53.8574Q9.76562-52.4414 10.791-52.0996Q11.8164-51.7578 12.9883-52.4414ZM12.9883-29.1992L20.2148-33.4961Q21.1426-34.0332 21.1182-35.1562Q21.0938-36.2793 20.2148-36.8652L12.9883-41.2109Q11.8164-41.9434 10.791-41.5771Q9.76562-41.2109 9.76562-39.7949L9.76562-30.6152Q9.76562-29.1992 10.791-28.8574Q11.8164-28.5156 12.9883-29.1992ZM12.9883-5.85938L20.2148-10.1562Q21.1426-10.6934 21.1182-11.8408Q21.0938-12.9883 20.2148-13.5254L12.9883-17.8711Q11.8164-18.6035 10.791-18.2373Q9.76562-17.8711 9.76562-16.4551L9.76562-7.27539Q9.76562-5.9082 10.791-5.54199Q11.8164-5.17578 12.9883-5.85938Z"/>
  </g>
  <g id="Light-S" transform="matrix(1 0 0 1 1105.16 696)">
   <path d="M33.3115-55.4952L83.4648-55.4952Q84.6118-55.4952 85.3951-56.2784Q86.1783-57.0615 86.1783-58.2085Q86.1783-59.3404 85.3951-60.1236Q84.6118-60.9067 83.4648-60.9067L33.3115-60.9067Q32.1645-60.9067 31.3814-60.1236Q30.5982-59.3404 30.5982-58.2085Q30.5982-57.0615 31.3814-56.2784Q32.1645-55.4952 33.3115-55.4952ZM33.3115-32.4918L83.4648-32.4918Q84.6118-32.4918 85.3951-33.275Q86.1783-34.0581 86.1783-35.2051Q86.1783-36.352 85.3951-37.1352Q84.6118-37.9183 83.4648-37.9183L33.3115-37.9183Q32.1645-37.9183 31.3814-37.1352Q30.5982-36.352 30.5982-35.2051Q30.5982-34.0581 31.3814-33.275Q32.1645-32.4918 33.3115-32.4918ZM33.3115-9.50343L83.4648-9.50343Q84.6118-9.50343 85.3951-10.2866Q86.1783-11.0697 86.1783-12.2017Q86.1783-13.3486 85.3951-14.1318Q84.6118-14.915 83.4648-14.915L33.3115-14.915Q32.1645-14.915 31.3814-14.1318Q30.5982-13.3486 30.5982-12.2017Q30.5982-11.0697 31.3814-10.2866Q32.1645-9.50343 33.3115-9.50343ZM12.7462-52.6988L19.2612-56.5531Q20.1284-57.0938 20.1116-58.1184Q20.0948-59.1431 19.2612-59.6835L12.7462-63.6205Q11.6498-64.2924 10.7077-63.9565Q9.76562-63.6205 9.76562-62.3105L9.76562-54.0087Q9.76562-52.7138 10.7154-52.3947Q11.6651-52.0757 12.7462-52.6988ZM12.7462-29.7592L19.2612-33.6324Q20.1284-34.1393 20.1116-35.1714Q20.0948-36.2035 19.2612-36.7442L12.7462-40.6659Q11.6498-41.3378 10.7077-41.0095Q9.76562-40.6812 9.76562-39.356L9.76562-31.0694Q9.76562-29.7592 10.7154-29.4402Q11.6651-29.1211 12.7462-29.7592ZM12.7462-6.707L19.2612-10.5952Q20.1284-11.102 20.1116-12.1436Q20.0948-13.1851 19.2612-13.692L12.7462-17.629Q11.6498-18.3009 10.7077-17.9649Q9.76562-17.629 9.76562-16.3188L9.76562-8.01697Q9.76562-6.74082 10.7154-6.41238Q11.6651-6.08393 12.7462-6.707Z"/>
  </g>
  <g id="Thin-S" transform="matrix(1 0 0 1 809.421 696)">
   <path d="M30.5487-56.176L82.5839-56.176Q83.3104-56.176 83.7735-56.6388Q84.2366-57.1015 84.2366-57.8281Q84.2366-58.5197 83.7735-58.9825Q83.3104-59.4453 82.5839-59.4453L30.5487-59.4453Q29.8222-59.4453 29.3594-58.9825Q28.8966-58.5197 28.8966-57.8281Q28.8966-57.1015 29.3594-56.6388Q29.8222-56.176 30.5487-56.176ZM30.5487-33.553L82.5839-33.553Q83.3104-33.553 83.7735-34.0158Q84.2366-34.4786 84.2366-35.2051Q84.2366-35.9316 83.7735-36.3944Q83.3104-36.8572 82.5839-36.8572L30.5487-36.8572Q29.8222-36.8572 29.3594-36.3944Q28.8966-35.9316 28.8966-35.2051Q28.8966-34.4786 29.3594-34.0158Q29.8222-33.553 30.5487-33.553ZM30.5487-10.9649L82.5839-10.9649Q83.3104-10.9649 83.7735-11.4277Q84.2366-11.8904 84.2366-12.5821Q84.2366-13.3086 83.7735-13.7714Q83.3104-14.2342 82.5839-14.2342L30.5487-14.2342Q29.8222-14.2342 29.3594-13.7714Q28.8966-13.3086 28.8966-12.5821Q28.8966-11.8904 29.3594-11.4277Q29.8222-10.9649 30.5487-10.9649ZM12.426-53.0392L17.9999-56.3729Q18.787-56.8537 18.7803-57.7481Q18.7736-58.6426 17.9999-59.1228L12.426-62.5193Q11.4295-63.1111 10.5976-62.8152Q9.76562-62.5193 9.76562-61.3496L9.76562-54.2089Q9.76562-53.074 10.6153-52.7851Q11.465-52.4961 12.426-53.0392ZM12.426-30.4999L17.9999-33.8127Q18.787-34.2795 18.7803-35.1914Q18.7736-36.1033 17.9999-36.5841L12.426-39.9451Q11.4295-40.537 10.5976-40.2588Q9.76562-39.9806 9.76562-38.7754L9.76562-31.6702Q9.76562-30.4999 10.6153-30.2109Q11.465-29.922 12.426-30.4999ZM12.426-7.82805L17.9999-11.1757Q18.787-11.6426 18.7803-12.544Q18.7736-13.4455 17.9999-13.9123L12.426-17.3088Q11.4295-17.9006 10.5976-17.6047Q9.76562-17.3088 9.76562-16.1385L9.76562-8.99776Q9.76562-7.84203 10.6153-7.56354Q11.465-7.28504 12.426-7.82805Z"/>
  </g>
  <g id="Ultralight-S" transform="matrix(1 0 0 1 513.207 696)">
   <path d="M29.1336-56.5247L82.1327-56.5247Q82.6439-56.5247 82.943-56.8233Q83.242-57.122 83.242-57.6332Q83.242-58.0994 82.943-58.3981Q82.6439-58.6967 82.1327-58.6967L29.1336-58.6967Q28.6224-58.6967 28.3237-58.3981Q28.0251-58.0994 28.0251-57.6332Q28.0251-57.122 28.3237-56.8233Q28.6224-56.5247 29.1336-56.5247ZM29.1336-34.0965L82.1327-34.0965Q82.6439-34.0965 82.943-34.3952Q83.242-34.6939 83.242-35.2051Q83.242-35.7162 82.943-36.0149Q82.6439-36.3136 82.1327-36.3136L29.1336-36.3136Q28.6224-36.3136 28.3237-36.0149Q28.0251-35.7162 28.0251-35.2051Q28.0251-34.6939 28.3237-34.3952Q28.6224-34.0965 29.1336-34.0965ZM29.1336-11.7134L82.1327-11.7134Q82.6439-11.7134 82.943-12.0121Q83.242-12.3108 83.242-12.7769Q83.242-13.2881 82.943-13.5868Q82.6439-13.8855 82.1327-13.8855L29.1336-13.8855Q28.6224-13.8855 28.3237-13.5868Q28.0251-13.2881 28.0251-12.7769Q28.0251-12.3108 28.3237-12.0121Q28.6224-11.7134 29.1336-11.7134ZM12.262-53.2135L17.3538-56.2805Q18.1-56.7307 18.0984-57.5584Q18.0969-58.3862 17.3538-58.8356L12.262-61.9553Q11.3167-62.5061 10.5412-62.2307Q9.76562-61.9553 9.76562-60.8574L9.76562-54.3114Q9.76562-53.2585 10.564-52.985Q11.3625-52.7115 12.262-53.2135ZM12.262-30.8792L17.3538-33.905Q18.1-34.3513 18.0984-35.2016Q18.0969-36.0519 17.3538-36.5021L12.262-39.576Q11.3167-40.1268 10.5412-39.8743Q9.76562-39.6217 9.76562-38.4781L9.76562-31.9778Q9.76562-30.8792 10.564-30.6057Q11.3625-30.3322 12.262-30.8792ZM12.262-8.40225L17.3538-11.4731Q18.1-11.9194 18.0984-12.7491Q18.0969-13.5788 17.3538-14.0251L12.262-17.1448Q11.3167-17.6956 10.5412-17.4202Q9.76562-17.1448 9.76562-16.0461L9.76562-9.50012Q9.76562-8.40607 10.564-8.15315Q11.3625-7.90024 12.262-8.40225Z"/>
  </g>
 </g>
</svg>
