<?xml version="1.0" encoding="UTF-8"?>
<!--Generator: Apple Native CoreSVG 175-->
<!DOCTYPE svg
PUBLIC "-//W3C//DTD SVG 1.1//EN"
       "http://www.w3.org/Graphics/SVG/1.1/DTD/svg11.dtd">
<svg version="1.1" xmlns="http://www.w3.org/2000/svg" xmlns:xlink="http://www.w3.org/1999/xlink" width="3300" height="2200">
 <!--glyph: "uni10095C.medium", point size: 100.0, font version: "17.1d1e1", template writer version: "65.1"-->
 <g id="Notes">
  <rect height="2200" id="artboard" style="fill:white;opacity:1" width="3300" x="0" y="0"/>
  <line style="fill:none;stroke:black;opacity:1;stroke-width:0.5;" x1="263" x2="3036" y1="292" y2="292"/>
  <text style="stroke:none;fill:black;font-family:sans-serif;font-size:13;font-weight:bold;" transform="matrix(1 0 0 1 263 322)">Weight/Scale Variations</text>
  <text style="stroke:none;fill:black;font-family:sans-serif;font-size:13;text-anchor:middle;" transform="matrix(1 0 0 1 559.711 322)">Ultralight</text>
  <text style="stroke:none;fill:black;font-family:sans-serif;font-size:13;text-anchor:middle;" transform="matrix(1 0 0 1 856.422 322)">Thin</text>
  <text style="stroke:none;fill:black;font-family:sans-serif;font-size:13;text-anchor:middle;" transform="matrix(1 0 0 1 1153.13 322)">Light</text>
  <text style="stroke:none;fill:black;font-family:sans-serif;font-size:13;text-anchor:middle;" transform="matrix(1 0 0 1 1449.84 322)">Regular</text>
  <text style="stroke:none;fill:black;font-family:sans-serif;font-size:13;text-anchor:middle;" transform="matrix(1 0 0 1 1746.56 322)">Medium</text>
  <text style="stroke:none;fill:black;font-family:sans-serif;font-size:13;text-anchor:middle;" transform="matrix(1 0 0 1 2043.27 322)">Semibold</text>
  <text style="stroke:none;fill:black;font-family:sans-serif;font-size:13;text-anchor:middle;" transform="matrix(1 0 0 1 2339.98 322)">Bold</text>
  <text style="stroke:none;fill:black;font-family:sans-serif;font-size:13;text-anchor:middle;" transform="matrix(1 0 0 1 2636.69 322)">Heavy</text>
  <text style="stroke:none;fill:black;font-family:sans-serif;font-size:13;text-anchor:middle;" transform="matrix(1 0 0 1 2933.4 322)">Black</text>
  <line style="fill:none;stroke:black;opacity:1;stroke-width:0.5;" x1="263" x2="3036" y1="1903" y2="1903"/>
  <g transform="matrix(1 0 0 1 263 1933)">
   <path d="M9.24805 0.830078Q10.8691 0.830078 12.2949 0.214844Q13.7207-0.400391 14.8096-1.49414Q15.8984-2.58789 16.5186-4.01367Q17.1387-5.43945 17.1387-7.05078Q17.1387-8.66211 16.5186-10.0879Q15.8984-11.5137 14.8047-12.6074Q13.7109-13.7012 12.2852-14.3164Q10.8594-14.9316 9.23828-14.9316Q7.62695-14.9316 6.20117-14.3164Q4.77539-13.7012 3.69141-12.6074Q2.60742-11.5137 1.9873-10.0879Q1.36719-8.66211 1.36719-7.05078Q1.36719-5.43945 1.9873-4.01367Q2.60742-2.58789 3.69629-1.49414Q4.78516-0.400391 6.21094 0.214844Q7.63672 0.830078 9.24805 0.830078ZM9.24805-0.654297Q7.91992-0.654297 6.7627-1.14746Q5.60547-1.64062 4.73145-2.51953Q3.85742-3.39844 3.36426-4.56055Q2.87109-5.72266 2.87109-7.05078Q2.87109-8.37891 3.35938-9.54102Q3.84766-10.7031 4.72168-11.582Q5.5957-12.4609 6.75293-12.9541Q7.91016-13.4473 9.23828-13.4473Q10.5762-13.4473 11.7334-12.9541Q12.8906-12.4609 13.7695-11.582Q14.6484-10.7031 15.1465-9.54102Q15.6445-8.37891 15.6445-7.05078Q15.6445-5.72266 15.1514-4.56055Q14.6582-3.39844 13.7842-2.51953Q12.9102-1.64062 11.748-1.14746Q10.5859-0.654297 9.24805-0.654297ZM5.6543-7.05078Q5.6543-6.72852 5.85938-6.52832Q6.06445-6.32812 6.40625-6.32812L8.51562-6.32812L8.51562-4.20898Q8.51562-3.88672 8.71094-3.67676Q8.90625-3.4668 9.23828-3.4668Q9.56055-3.4668 9.77051-3.67676Q9.98047-3.88672 9.98047-4.20898L9.98047-6.32812L12.0898-6.32812Q12.4219-6.32812 12.627-6.52832Q12.832-6.72852 12.832-7.05078Q12.832-7.38281 12.627-7.58789Q12.4219-7.79297 12.0898-7.79297L9.98047-7.79297L9.98047-9.90234Q9.98047-10.2344 9.77051-10.4443Q9.56055-10.6543 9.23828-10.6543Q8.90625-10.6543 8.71094-10.4443Q8.51562-10.2344 8.51562-9.90234L8.51562-7.79297L6.40625-7.79297Q6.06445-7.79297 5.85938-7.58789Q5.6543-7.38281 5.6543-7.05078Z"/>
  </g>
  <g transform="matrix(1 0 0 1 281.867 1933)">
   <path d="M11.709 2.91016Q13.75 2.91016 15.5518 2.12891Q17.3535 1.34766 18.7305-0.0292969Q20.1074-1.40625 20.8887-3.20801Q21.6699-5.00977 21.6699-7.05078Q21.6699-9.0918 20.8887-10.8936Q20.1074-12.6953 18.7305-14.0723Q17.3535-15.4492 15.5469-16.2305Q13.7402-17.0117 11.6992-17.0117Q9.6582-17.0117 7.85645-16.2305Q6.05469-15.4492 4.68262-14.0723Q3.31055-12.6953 2.5293-10.8936Q1.74805-9.0918 1.74805-7.05078Q1.74805-5.00977 2.5293-3.20801Q3.31055-1.40625 4.6875-0.0292969Q6.06445 1.34766 7.86621 2.12891Q9.66797 2.91016 11.709 2.91016ZM11.709 1.25Q9.98047 1.25 8.47656 0.605469Q6.97266-0.0390625 5.83496-1.17676Q4.69727-2.31445 4.05762-3.81836Q3.41797-5.32227 3.41797-7.05078Q3.41797-8.7793 4.05762-10.2832Q4.69727-11.7871 5.83008-12.9297Q6.96289-14.0723 8.4668-14.7119Q9.9707-15.3516 11.6992-15.3516Q13.4277-15.3516 14.9316-14.7119Q16.4355-14.0723 17.5781-12.9297Q18.7207-11.7871 19.3652-10.2832Q20.0098-8.7793 20.0098-7.05078Q20.0098-5.32227 19.3701-3.81836Q18.7305-2.31445 17.5928-1.17676Q16.4551-0.0390625 14.9463 0.605469Q13.4375 1.25 11.709 1.25ZM7.17773-7.05078Q7.17773-6.69922 7.41211-6.47461Q7.64648-6.25 8.01758-6.25L10.8887-6.25L10.8887-3.36914Q10.8887-2.99805 11.1133-2.76855Q11.3379-2.53906 11.6895-2.53906Q12.0605-2.53906 12.29-2.76855Q12.5195-2.99805 12.5195-3.36914L12.5195-6.25L15.4004-6.25Q15.7715-6.25 16.001-6.47461Q16.2305-6.69922 16.2305-7.05078Q16.2305-7.42188 16.001-7.65137Q15.7715-7.88086 15.4004-7.88086L12.5195-7.88086L12.5195-10.752Q12.5195-11.1328 12.29-11.3623Q12.0605-11.5918 11.6895-11.5918Q11.3379-11.5918 11.1133-11.3574Q10.8887-11.123 10.8887-10.752L10.8887-7.88086L8.01758-7.88086Q7.63672-7.88086 7.40723-7.65137Q7.17773-7.42188 7.17773-7.05078Z"/>
  </g>
  <g transform="matrix(1 0 0 1 305.646 1933)">
   <path d="M14.9707 5.66406Q17.0605 5.66406 18.96 5.01465Q20.8594 4.36523 22.4512 3.19336Q24.043 2.02148 25.2197 0.429688Q26.3965-1.16211 27.0459-3.06641Q27.6953-4.9707 27.6953-7.05078Q27.6953-9.14062 27.0459-11.04Q26.3965-12.9395 25.2197-14.5312Q24.043-16.123 22.4512-17.2998Q20.8594-18.4766 18.9551-19.126Q17.0508-19.7754 14.9609-19.7754Q12.8711-19.7754 10.9717-19.126Q9.07227-18.4766 7.48535-17.2998Q5.89844-16.123 4.72168-14.5312Q3.54492-12.9395 2.90039-11.04Q2.25586-9.14062 2.25586-7.05078Q2.25586-4.9707 2.90527-3.06641Q3.55469-1.16211 4.72656 0.429688Q5.89844 2.02148 7.49023 3.19336Q9.08203 4.36523 10.9814 5.01465Q12.8809 5.66406 14.9707 5.66406ZM14.9707 3.84766Q13.1641 3.84766 11.5283 3.2959Q9.89258 2.74414 8.53516 1.74805Q7.17773 0.751953 6.17676-0.610352Q5.17578-1.97266 4.62891-3.6084Q4.08203-5.24414 4.08203-7.05078Q4.08203-8.86719 4.62891-10.5029Q5.17578-12.1387 6.17188-13.501Q7.16797-14.8633 8.52539-15.8594Q9.88281-16.8555 11.5186-17.4023Q13.1543-17.9492 14.9609-17.9492Q16.7773-17.9492 18.4131-17.4023Q20.0488-16.8555 21.4111-15.8594Q22.7734-14.8633 23.7695-13.501Q24.7656-12.1387 25.3174-10.5029Q25.8691-8.86719 25.8691-7.05078Q25.8789-5.24414 25.332-3.6084Q24.7852-1.97266 23.7842-0.610352Q22.7832 0.751953 21.4209 1.74805Q20.0586 2.74414 18.4229 3.2959Q16.7871 3.84766 14.9707 3.84766ZM9.19922-7.05078Q9.19922-6.66992 9.45801-6.4209Q9.7168-6.17188 10.1172-6.17188L14.0625-6.17188L14.0625-2.2168Q14.0625-1.81641 14.3115-1.55762Q14.5605-1.29883 14.9512-1.29883Q15.3516-1.29883 15.6104-1.55273Q15.8691-1.80664 15.8691-2.2168L15.8691-6.17188L19.8242-6.17188Q20.2246-6.17188 20.4785-6.4209Q20.7324-6.66992 20.7324-7.05078Q20.7324-7.46094 20.4785-7.71484Q20.2246-7.96875 19.8242-7.96875L15.8691-7.96875L15.8691-11.9141Q15.8691-12.3242 15.6104-12.583Q15.3516-12.8418 14.9512-12.8418Q14.5605-12.8418 14.3115-12.583Q14.0625-12.3242 14.0625-11.9141L14.0625-7.96875L10.1172-7.96875Q9.70703-7.96875 9.45312-7.71484Q9.19922-7.46094 9.19922-7.05078Z"/>
  </g>
  <text style="stroke:none;fill:black;font-family:sans-serif;font-size:13;font-weight:bold;" transform="matrix(1 0 0 1 263 1953)">Design Variations</text>
  <text style="stroke:none;fill:black;font-family:sans-serif;font-size:13;" transform="matrix(1 0 0 1 263 1971)">Symbols are supported in up to nine weights and three scales.</text>
  <text style="stroke:none;fill:black;font-family:sans-serif;font-size:13;" transform="matrix(1 0 0 1 263 1989)">For optimal layout with text and other symbols, vertically align</text>
  <text style="stroke:none;fill:black;font-family:sans-serif;font-size:13;" transform="matrix(1 0 0 1 263 2007)">symbols with the adjacent text.</text>
  <line style="fill:none;stroke:#00AEEF;stroke-width:0.5;opacity:1.0;" x1="776" x2="776" y1="1919" y2="1933"/>
  <g transform="matrix(1 0 0 1 776 1933)">
   <path d="M3.31055 0.15625Q3.70117 0.15625 3.91602-0.00976562Q4.13086-0.175781 4.26758-0.585938L5.52734-4.0332L11.2891-4.0332L12.5488-0.585938Q12.6855-0.175781 12.9004-0.00976562Q13.1152 0.15625 13.4961 0.15625Q13.8867 0.15625 14.1162-0.0585938Q14.3457-0.273438 14.3457-0.644531Q14.3457-0.869141 14.2383-1.17188L9.6582-13.3691Q9.48242-13.8184 9.17969-14.043Q8.87695-14.2676 8.4082-14.2676Q7.5-14.2676 7.17773-13.3789L2.59766-1.16211Q2.49023-0.859375 2.49023-0.634766Q2.49023-0.263672 2.70996-0.0537109Q2.92969 0.15625 3.31055 0.15625ZM6.00586-5.51758L8.37891-12.0898L8.42773-12.0898L10.8008-5.51758Z"/>
  </g>
  <line style="fill:none;stroke:#00AEEF;stroke-width:0.5;opacity:1.0;" x1="793.197" x2="793.197" y1="1919" y2="1933"/>
  <text style="stroke:none;fill:black;font-family:sans-serif;font-size:13;font-weight:bold;" transform="matrix(1 0 0 1 776 1953)">Margins</text>
  <text style="stroke:none;fill:black;font-family:sans-serif;font-size:13;" transform="matrix(1 0 0 1 776 1971)">Leading and trailing margins on the left and right side of each symbol</text>
  <text style="stroke:none;fill:black;font-family:sans-serif;font-size:13;" transform="matrix(1 0 0 1 776 1989)">can be adjusted by modifying the x-location of the margin guidelines.</text>
  <text style="stroke:none;fill:black;font-family:sans-serif;font-size:13;" transform="matrix(1 0 0 1 776 2007)">Modifications are automatically applied proportionally to all</text>
  <text style="stroke:none;fill:black;font-family:sans-serif;font-size:13;" transform="matrix(1 0 0 1 776 2025)">scales and weights.</text>
  <g transform="matrix(1 0 0 1 1289 1933)">
   <path d="M2.8418 1.86523L4.54102 3.57422Q5.18555 4.22852 5.90332 4.17969Q6.62109 4.13086 7.31445 3.35938L18.0078-8.42773L17.041-9.4043L6.42578 2.27539Q6.16211 2.57812 5.89355 2.61719Q5.625 2.65625 5.27344 2.30469L4.10156 1.14258Q3.75 0.791016 3.79395 0.522461Q3.83789 0.253906 4.14062-0.0195312L15.6152-10.8203L14.6387-11.7871L3.04688-0.898438Q2.30469-0.214844 2.25098 0.498047Q2.19727 1.21094 2.8418 1.86523ZM9.25781-16.3281Q8.94531-16.0254 8.90625-15.6348Q8.86719-15.2441 9.04297-14.9512Q9.21875-14.6777 9.55566-14.541Q9.89258-14.4043 10.3809-14.5215Q11.4746-14.7754 12.5977-14.7314Q13.7207-14.6875 14.7949-13.9844L14.209-12.5293Q13.9551-11.9043 14.0674-11.4404Q14.1797-10.9766 14.5801-10.5664L16.875-8.25195Q17.2363-7.88086 17.5781-7.82227Q17.9199-7.76367 18.3398-7.8418L19.4043-8.03711L20.0684-7.36328L20.0293-6.80664Q20-6.43555 20.1221-6.12305Q20.2441-5.81055 20.6055-5.44922L21.3672-4.70703Q21.7285-4.3457 22.1533-4.33105Q22.5781-4.31641 22.9297-4.66797L25.8398-7.58789Q26.1914-7.93945 26.1816-8.35449Q26.1719-8.76953 25.8105-9.13086L25.0391-9.89258Q24.6875-10.2539 24.3799-10.3857Q24.0723-10.5176 23.7109-10.4883L23.1348-10.4395L22.4902-11.0742L22.7344-12.1973Q22.832-12.6172 22.6953-12.9834Q22.5586-13.3496 22.1191-13.7891L19.9219-15.9766Q18.6719-17.2168 17.2607-17.8369Q15.8496-18.457 14.4189-18.4814Q12.9883-18.5059 11.665-17.959Q10.3418-17.4121 9.25781-16.3281ZM10.752-15.957Q11.6602-16.6211 12.7002-16.9043Q13.7402-17.1875 14.8047-17.085Q15.8691-16.9824 16.8701-16.5137Q17.8711-16.0449 18.7012-15.2051L21.1328-12.793Q21.3086-12.6172 21.3525-12.4512Q21.3965-12.2852 21.3379-12.0312L21.0156-10.5469L22.5195-9.0625L23.5059-9.12109Q23.6914-9.13086 23.7891-9.09668Q23.8867-9.0625 24.0332-8.91602L24.6094-8.33984L22.168-5.89844L21.5918-6.47461Q21.4453-6.62109 21.4062-6.71875Q21.3672-6.81641 21.377-7.01172L21.4453-7.98828L19.9512-9.47266L18.4277-9.21875Q18.1836-9.16992 18.042-9.2041Q17.9004-9.23828 17.7148-9.41406L15.7129-11.416Q15.5176-11.5918 15.4932-11.7529Q15.4688-11.9141 15.5859-12.1875L16.4648-14.2773Q15.293-15.3711 13.8281-15.791Q12.3633-16.2109 10.8398-15.7617Q10.7227-15.7324 10.6885-15.8057Q10.6543-15.8789 10.752-15.957Z"/>
  </g>
  <text style="stroke:none;fill:black;font-family:sans-serif;font-size:13;font-weight:bold;" transform="matrix(1 0 0 1 1289 1953)">Exporting</text>
  <text style="stroke:none;fill:black;font-family:sans-serif;font-size:13;" transform="matrix(1 0 0 1 1289 1971)">Symbols should be outlined when exporting to ensure the</text>
  <text style="stroke:none;fill:black;font-family:sans-serif;font-size:13;" transform="matrix(1 0 0 1 1289 1989)">design is preserved when submitting to Xcode.</text>
  <text id="template-version" style="stroke:none;fill:black;font-family:sans-serif;font-size:13;text-anchor:end;" transform="matrix(1 0 0 1 3036 1933)">Template v.2.0</text>
  <text style="stroke:none;fill:black;font-family:sans-serif;font-size:13;text-anchor:end;" transform="matrix(1 0 0 1 3036 1951)">Requires Xcode 12 or greater</text>
  <text id="descriptive-name" style="stroke:none;fill:black;font-family:sans-serif;font-size:13;text-anchor:end;" transform="matrix(1 0 0 1 3036 1969)">Generated from chart.bar.doc.horizontal</text>
  <text style="stroke:none;fill:black;font-family:sans-serif;font-size:13;text-anchor:end;" transform="matrix(1 0 0 1 3036 1987)">Typeset at 100 points</text>
  <text style="stroke:none;fill:black;font-family:sans-serif;font-size:13;" transform="matrix(1 0 0 1 263 726)">Small</text>
  <text style="stroke:none;fill:black;font-family:sans-serif;font-size:13;" transform="matrix(1 0 0 1 263 1156)">Medium</text>
  <text style="stroke:none;fill:black;font-family:sans-serif;font-size:13;" transform="matrix(1 0 0 1 263 1586)">Large</text>
 </g>
 <g id="Guides">
  <g id="H-reference" style="fill:#27AAE1;stroke:none;" transform="matrix(1 0 0 1 339 696)">
   <path d="M0.993347 0L3.6377 0L29.3282-67.1326L30.0301-67.1326L30.0301-70.459L28.1227-70.459ZM11.6882-24.4797L46.9818-24.4797L46.2311-26.7288L12.4382-26.7288ZM55.1193 0L57.7637 0L30.6381-70.459L29.4327-70.459L29.4327-67.1326Z"/>
  </g>
  <line id="Baseline-S" style="fill:none;stroke:#27AAE1;opacity:1;stroke-width:0.5;" x1="263" x2="3036" y1="696" y2="696"/>
  <line id="Capline-S" style="fill:none;stroke:#27AAE1;opacity:1;stroke-width:0.5;" x1="263" x2="3036" y1="625.541" y2="625.541"/>
  <g id="H-reference" style="fill:#27AAE1;stroke:none;" transform="matrix(1 0 0 1 339 1126)">
   <path d="M0.993347 0L3.6377 0L29.3282-67.1326L30.0301-67.1326L30.0301-70.459L28.1227-70.459ZM11.6882-24.4797L46.9818-24.4797L46.2311-26.7288L12.4382-26.7288ZM55.1193 0L57.7637 0L30.6381-70.459L29.4327-70.459L29.4327-67.1326Z"/>
  </g>
  <line id="Baseline-M" style="fill:none;stroke:#27AAE1;opacity:1;stroke-width:0.5;" x1="263" x2="3036" y1="1126" y2="1126"/>
  <line id="Capline-M" style="fill:none;stroke:#27AAE1;opacity:1;stroke-width:0.5;" x1="263" x2="3036" y1="1055.54" y2="1055.54"/>
  <g id="H-reference" style="fill:#27AAE1;stroke:none;" transform="matrix(1 0 0 1 339 1556)">
   <path d="M0.993347 0L3.6377 0L29.3282-67.1326L30.0301-67.1326L30.0301-70.459L28.1227-70.459ZM11.6882-24.4797L46.9818-24.4797L46.2311-26.7288L12.4382-26.7288ZM55.1193 0L57.7637 0L30.6381-70.459L29.4327-70.459L29.4327-67.1326Z"/>
  </g>
  <line id="Baseline-L" style="fill:none;stroke:#27AAE1;opacity:1;stroke-width:0.5;" x1="263" x2="3036" y1="1556" y2="1556"/>
  <line id="Capline-L" style="fill:none;stroke:#27AAE1;opacity:1;stroke-width:0.5;" x1="263" x2="3036" y1="1485.54" y2="1485.54"/>
  <line id="left-margin" style="fill:none;stroke:#00AEEF;stroke-width:0.5;opacity:1.0;" x1="1396.32" x2="1396.32" y1="1030.79" y2="1150.12"/>
  <line id="right-margin" style="fill:none;stroke:#00AEEF;stroke-width:0.5;opacity:1.0;" x1="1503.37" x2="1503.37" y1="1030.79" y2="1150.12"/>
 </g>
 <g id="Symbols">
  <g id="Black-L" transform="matrix(1 0 0 1 2859.72 1556)">
   <path d="M48.5884-77.7085Q46.2919-77.7085 44.916-76.3008Q43.5401-74.8931 43.5401-72.6525L43.5401-64.9265Q43.5401-62.6883 44.916-61.28Q46.2919-59.8717 48.5884-59.8717L81.4655-59.8717Q83.7412-59.8717 85.1561-61.28Q86.5711-62.6883 86.5711-64.9265L86.5711-72.6525Q86.5711-74.8931 85.1561-76.3008Q83.7412-77.7085 81.4655-77.7085ZM48.5884-55.5696Q46.2919-55.5696 44.916-54.1723Q43.5401-52.775 43.5401-50.5356L43.5401-42.7876Q43.5401-40.491 44.916-39.1223Q46.2919-37.7536 48.5884-37.7536L98.8193-37.7536Q101.095-37.7536 102.471-39.1223Q103.847-40.491 103.847-42.7888L103.847-50.5356Q103.847-52.775 102.471-54.1723Q101.095-55.5696 98.8193-55.5696ZM48.5884-33.4295Q46.2919-33.4295 44.916-32.101Q43.5401-30.7725 43.5401-28.4759L43.5401-20.6487Q43.5401-18.4093 44.916-17.0218Q46.2919-15.6343 48.5884-15.6343L88.7621-15.6343Q91.0366-15.6343 92.4223-17.0218Q93.808-18.4093 93.808-20.6487L93.808-28.4759Q93.808-30.7725 92.4223-32.101Q91.0366-33.4295 88.7621-33.4295ZM48.5884-11.3126Q46.2919-11.3126 44.916-9.91468Q43.5401-8.51675 43.5401-6.2566L43.5401 1.46945Q43.5401 3.70758 44.916 5.11591Q46.2919 6.52424 48.5884 6.52424L74.2206 6.52424Q76.4951 6.52424 77.9106 5.11591Q79.3262 3.70758 79.3262 1.46945L79.3262-6.2566Q79.3262-8.51675 77.9106-9.91468Q76.4951-11.3126 74.2206-11.3126ZM16.084 11.4202Q16.084 22.7878 22.2652 28.9898Q28.4464 35.1919 39.7724 35.1919L107.573 35.1919Q118.9 35.1919 125.091 28.9898Q131.282 22.7878 131.282 11.4202L131.282-81.838Q131.282-93.1848 125.091-99.3972Q118.9-105.61 107.573-105.61L39.7724-105.61Q28.4464-105.61 22.2652-99.3972Q16.084-93.1848 16.084-81.838ZM36.065 8.68948L36.065-79.1073Q36.065-82.3725 37.6236-84.0006Q39.1823-85.6287 42.628-85.6287L104.738-85.6287Q108.221-85.6287 109.751-84.0006Q111.282-82.3725 111.282-79.1073L111.282 8.68948Q111.282 11.8963 109.751 13.5536Q108.221 15.2108 104.738 15.2108L42.628 15.2108Q39.1823 15.2108 37.6236 13.5536Q36.065 11.8963 36.065 8.68948Z"/>
  </g>
  <g id="Heavy-L" transform="matrix(1 0 0 1 2564.15 1556)">
   <path d="M46.2827-78.7839Q44.0772-78.7839 42.7769-77.4355Q41.4765-76.0871 41.4765-73.9149L41.4765-65.4664Q41.4765-63.3054 42.7769-61.9541Q44.0772-60.6029 46.2827-60.6029L80.5892-60.6029Q82.7646-60.6029 84.0995-61.9541Q85.4345-63.3054 85.4345-65.4664L85.4345-73.9149Q85.4345-76.0871 84.0995-77.4355Q82.7646-78.7839 80.5892-78.7839ZM46.2827-55.9921Q44.0772-55.9921 42.7769-54.6587Q41.4765-53.3254 41.4765-51.1588L41.4765-42.6745Q41.4765-40.4689 42.7769-39.1551Q44.0772-37.8412 46.2827-37.8412L98.8518-37.8412Q101.027-37.8412 102.328-39.1551Q103.628-40.4689 103.628-42.6801L103.628-51.1588Q103.628-53.3254 102.328-54.6587Q101.027-55.9921 98.8518-55.9921ZM46.2827-33.1947Q44.0772-33.1947 42.7769-31.921Q41.4765-30.6473 41.4765-28.4418L41.4765-19.8826Q41.4765-17.7161 42.7769-16.395Q44.0772-15.074 46.2827-15.074L88.6826-15.074Q90.8523-15.074 92.1649-16.395Q93.4776-17.7161 93.4776-19.8826L93.4776-28.4418Q93.4776-30.6473 92.1649-31.921Q90.8523-33.1947 88.6826-33.1947ZM46.2827-10.4386Q44.0772-10.4386 42.7769-9.10243Q41.4765-7.76624 41.4765-5.56956L41.4765 2.87907Q41.4765 5.03996 42.7769 6.39121Q44.0772 7.74247 46.2827 7.74247L72.6302 7.74247Q74.7999 7.74247 76.1377 6.39121Q77.4754 5.03996 77.4754 2.87907L77.4754-5.56956Q77.4754-7.76624 76.1377-9.10243Q74.7999-10.4386 72.6302-10.4386ZM16.084 11.7397Q16.084 22.7128 21.941 28.6Q27.7979 34.4872 38.7107 34.4872L106.333 34.4872Q117.252 34.4872 123.121 28.6Q128.99 22.7128 128.99 11.7397L128.99-82.1674Q128.99-93.1104 123.121-99.0126Q117.252-104.915 106.333-104.915L38.7107-104.915Q27.7979-104.915 21.941-99.0126Q16.084-93.1104 16.084-82.1674ZM33.5844 9.61544L33.5844-80.0432Q33.5844-83.6896 35.3843-85.552Q37.1843-87.4145 41.0161-87.4145L104.058-87.4145Q107.904-87.4145 109.685-85.552Q111.465-83.6896 111.465-80.0432L111.465 9.61544Q111.465 13.2172 109.685 15.102Q107.904 16.9867 104.058 16.9867L41.0161 16.9867Q37.1843 16.9867 35.3843 15.102Q33.5844 13.2172 33.5844 9.61544Z"/>
  </g>
  <g id="Bold-L" transform="matrix(1 0 0 1 2268.83 1556)">
   <path d="M43.4839-80.1208Q41.3936-80.1208 40.1819-78.8454Q38.9701-77.57 38.9701-75.4823L38.9701-66.1051Q38.9701-64.0438 40.1819-62.7617Q41.3936-61.4797 43.4839-61.4797L79.5206-61.4797Q81.573-61.4797 82.8118-62.7617Q84.0506-64.0438 84.0506-66.1051L84.0506-75.4823Q84.0506-77.57 82.8118-78.8454Q81.573-80.1208 79.5206-80.1208ZM43.4839-56.537Q41.3936-56.537 40.1819-55.2805Q38.9701-54.0241 38.9701-51.9497L38.9701-42.5213Q38.9701-40.4308 40.1819-39.1824Q41.3936-37.9339 43.4839-37.9339L98.8829-37.9339Q100.935-37.9339 102.147-39.1824Q103.359-40.4308 103.359-42.5344L103.359-51.9497Q103.359-54.0241 102.147-55.2805Q100.935-56.537 98.8829-56.537ZM43.4839-32.94Q41.3936-32.94 40.1819-31.7317Q38.9701-30.5234 38.9701-28.4331L38.9701-18.9374Q38.9701-16.863 40.1819-15.6189Q41.3936-14.3749 43.4839-14.3749L88.5455-14.3749Q90.5846-14.3749 91.8088-15.6189Q93.0329-16.863 93.0329-18.9374L93.0329-28.4331Q93.0329-30.5234 91.8088-31.7317Q90.5846-32.94 88.5455-32.94ZM43.4839-9.40742Q41.3936-9.40742 40.1819-8.1443Q38.9701-6.88118 38.9701-4.76889L38.9701 4.60853Q38.9701 6.6696 40.1819 7.95166Q41.3936 9.23371 43.4839 9.23371L70.7226 9.23371Q72.7617 9.23371 74.0071 7.95166Q75.2526 6.6696 75.2526 4.60853L75.2526-4.76889Q75.2526-6.88118 74.0071-8.1443Q72.7617-9.40742 70.7226-9.40742ZM16.084 12.1988Q16.084 22.6504 21.5488 28.1532Q27.0136 33.656 37.3893 33.656L104.864 33.656Q115.253 33.656 120.73 28.1532Q126.207 22.6504 126.207 12.1988L126.207-82.6269Q126.207-93.0406 120.73-98.5624Q115.253-104.084 104.864-104.084L37.3893-104.084Q27.0136-104.084 21.5488-98.5624Q16.084-93.0406 16.084-82.6269ZM30.5258 10.753L30.5258-81.1811Q30.5258-85.3261 32.6291-87.4842Q34.7324-89.6424 39.063-89.6424L103.228-89.6424Q107.55-89.6424 109.645-87.4842Q111.741-85.3261 111.741-81.1811L111.741 10.753Q111.741 14.8688 109.645 17.0415Q107.55 19.2143 103.228 19.2143L39.063 19.2143Q34.7324 19.2143 32.6291 17.0415Q30.5258 14.8688 30.5258 10.753Z"/>
  </g>
  <g id="Semibold-L" transform="matrix(1 0 0 1 1973.08 1556)">
   <path d="M41.5545-81.0424Q39.5436-81.0424 38.3929-79.8174Q37.2421-78.5924 37.2421-76.5628L37.2421-66.5454Q37.2421-64.5529 38.3929-63.3185Q39.5436-62.0841 41.5545-62.0841L78.784-62.0841Q80.7516-62.0841 81.9241-63.3185Q83.0965-64.5529 83.0965-66.5454L83.0965-76.5628Q83.0965-78.5924 81.9241-79.8174Q80.7516-81.0424 78.784-81.0424ZM41.5545-56.9126Q39.5436-56.9126 38.3929-55.7092Q37.2421-54.5058 37.2421-52.4949L37.2421-42.4156Q37.2421-40.4045 38.3929-39.2012Q39.5436-37.9979 41.5545-37.9979L98.9043-37.9979Q100.872-37.9979 102.023-39.2012Q103.173-40.4045 103.173-42.4339L103.173-52.4949Q103.173-54.5058 102.023-55.7092Q100.872-56.9126 98.9043-56.9126ZM41.5545-32.7645Q39.5436-32.7645 38.3929-31.6012Q37.2421-30.438 37.2421-28.4272L37.2421-18.2858Q37.2421-16.2749 38.3929-15.0839Q39.5436-13.8929 41.5545-13.8929L88.451-13.8929Q90.4-13.8929 91.5632-15.0839Q92.7264-16.2749 92.7264-18.2858L92.7264-28.4272Q92.7264-30.438 91.5632-31.6012Q90.4-32.7645 88.451-32.7645ZM41.5545-8.69652Q39.5436-8.69652 38.3929-7.48377Q37.2421-6.27103 37.2421-4.21692L37.2421 5.8008Q37.2421 7.79306 38.3929 9.02742Q39.5436 10.2618 41.5545 10.2618L69.4076 10.2618Q71.3565 10.2618 72.5383 9.02742Q73.7201 7.79306 73.7201 5.8008L73.7201-4.21692Q73.7201-6.27103 72.5383-7.48377Q71.3565-8.69652 69.4076-8.69652ZM16.084 12.5153Q16.084 22.6074 21.2785 27.8452Q26.4729 33.0831 36.4783 33.0831L103.85 33.0831Q113.874 33.0831 119.081 27.8452Q124.288 22.6074 124.288 12.5153L124.288-82.9436Q124.288-92.9925 119.081-98.252Q113.874-103.511 103.85-103.511L36.4783-103.511Q26.4729-103.511 21.2785-98.252Q16.084-92.9925 16.084-82.9436ZM28.4171 11.5372L28.4171-81.9656Q28.4171-86.4543 30.7296-88.8163Q33.0421-91.1783 37.7166-91.1783L102.655-91.1783Q107.305-91.1783 109.618-88.8163Q111.93-86.4543 111.93-81.9656L111.93 11.5372Q111.93 16.0074 109.618 18.3787Q107.305 20.7499 102.655 20.7499L37.7166 20.7499Q33.0421 20.7499 30.7296 18.3787Q28.4171 16.0074 28.4171 11.5372Z"/>
  </g>
  <g id="Medium-L" transform="matrix(1 0 0 1 1677.1 1556)">
   <path d="M40.0915-81.7412Q38.1409-81.7412 37.0364-80.5544Q35.9319-79.3675 35.9319-77.3822L35.9319-66.8793Q35.9319-64.9388 37.0364-63.7407Q38.1409-62.5425 40.0915-62.5425L78.2254-62.5425Q80.1287-62.5425 81.2509-63.7407Q82.3732-64.9388 82.3732-66.8793L82.3732-77.3822Q82.3732-79.3675 81.2509-80.5544Q80.1287-81.7412 78.2254-81.7412ZM40.0915-57.1974Q38.1409-57.1974 37.0364-56.0342Q35.9319-54.871 35.9319-52.9083L35.9319-42.3355Q35.9319-40.3845 37.0364-39.2154Q38.1409-38.0463 40.0915-38.0463L98.9205-38.0463Q100.824-38.0463 101.928-39.2154Q103.033-40.3845 103.033-42.3578L103.033-52.9083Q103.033-54.871 101.928-56.0342Q100.824-57.1974 98.9205-57.1974ZM40.0915-32.6314Q38.1409-32.6314 37.0364-31.5023Q35.9319-30.3732 35.9319-28.4226L35.9319-17.7917Q35.9319-15.829 37.0364-14.6782Q38.1409-13.5275 40.0915-13.5275L88.3794-13.5275Q90.2601-13.5275 91.377-14.6782Q92.494-15.829 92.494-17.7917L92.494-28.4226Q92.494-30.3732 91.377-31.5023Q90.2601-32.6314 88.3794-32.6314ZM40.0915-8.15749Q38.1409-8.15749 37.0364-6.98293Q35.9319-5.80838 35.9319-3.79839L35.9319 6.70483Q35.9319 8.64492 37.0364 9.8431Q38.1409 11.0413 40.0915 11.0413L68.4104 11.0413Q70.2911 11.0413 71.4246 9.8431Q72.5582 8.64492 72.5582 6.70483L72.5582-3.79839Q72.5582-5.80838 71.4246-6.98293Q70.2911-8.15749 68.4104-8.15749ZM16.084 12.7553Q16.084 22.5747 21.0735 27.6117Q26.063 32.6486 35.7875 32.6486L103.082 32.6486Q112.829 32.6486 117.831 27.6117Q122.833 22.5747 122.833 12.7553L122.833-83.1838Q122.833-92.956 117.831-98.0166Q112.829-103.077 103.082-103.077L35.7875-103.077Q26.063-103.077 21.0735-98.0166Q16.084-92.956 16.084-83.1838ZM26.8183 12.1318L26.8183-82.5604Q26.8183-87.3098 29.2894-89.8263Q31.7604-92.3428 36.6956-92.3428L102.221-92.3428Q107.12-92.3428 109.597-89.8263Q112.074-87.3098 112.074-82.5604L112.074 12.1318Q112.074 16.8707 109.597 19.3925Q107.12 21.9143 102.221 21.9143L36.6956 21.9143Q31.7604 21.9143 29.2894 19.3925Q26.8183 16.8707 26.8183 12.1318Z"/>
  </g>
  <g id="Regular-L" transform="matrix(1 0 0 1 1381.33 1556)">
   <path d="M38.1832-82.6527Q36.3112-82.6527 35.2671-81.5157Q34.223-80.3786 34.223-78.4508L34.223-67.3148Q34.223-65.4423 35.2671-64.2913Q36.3112-63.1403 38.1832-63.1403L77.4968-63.1403Q79.3163-63.1403 80.373-64.2913Q81.4296-65.4423 81.4296-67.3148L81.4296-78.4508Q81.4296-80.3786 80.373-81.5157Q79.3163-82.6527 77.4968-82.6527ZM38.1832-57.569Q36.3112-57.569 35.2671-56.4582Q34.223-55.3474 34.223-53.4475L34.223-42.231Q34.223-40.3585 35.2671-39.234Q36.3112-38.1095 38.1832-38.1095L98.9416-38.1095Q100.761-38.1095 101.805-39.234Q102.849-40.3585 102.849-42.2584L102.849-53.4475Q102.849-55.3474 101.805-56.4582Q100.761-57.569 98.9416-57.569ZM38.1832-32.4578Q36.3112-32.4578 35.2671-31.3732Q34.223-30.2887 34.223-28.4167L34.223-17.1472Q34.223-15.2473 35.2671-14.1491Q36.3112-13.0509 38.1832-13.0509L88.2859-13.0509Q90.0775-13.0509 91.1342-14.1491Q92.1908-15.2473 92.1908-17.1472L92.1908-28.4167Q92.1908-30.2887 91.1342-31.3732Q90.0775-32.4578 88.2859-32.4578ZM38.1832-7.4544Q36.3112-7.4544 35.2671-6.32966Q34.223-5.20493 34.223-3.25248L34.223 7.88401Q34.223 9.75604 35.2671 10.907Q36.3112 12.058 38.1832 12.058L67.1098 12.058Q68.9014 12.058 69.972 10.907Q71.0426 9.75604 71.0426 7.88401L71.0426-3.25248Q71.0426-5.20493 69.972-6.32966Q68.9014-7.4544 67.1098-7.4544ZM16.084 13.0683Q16.084 22.5321 20.8061 27.307Q25.5282 32.0819 34.8865 32.0819L102.08 32.0819Q111.466 32.0819 116.201 27.307Q120.935 22.5321 120.935 13.0683L120.935-83.4971Q120.935-92.9084 116.201-97.7096Q111.466-102.511 102.08-102.511L34.8865-102.511Q25.5282-102.511 20.8061-97.7096Q16.084-92.9084 16.084-83.4971ZM24.7329 12.9074L24.7329-83.3363Q24.7329-88.4257 27.4108-91.1438Q30.0887-93.8618 35.364-93.8618L101.655-93.8618Q106.878-93.8618 109.57-91.1438Q112.262-88.4257 112.262-83.3363L112.262 12.9074Q112.262 17.9968 109.57 20.7149Q106.878 23.433 101.655 23.433L35.364 23.433Q30.0887 23.433 27.4108 20.7149Q24.7329 17.9968 24.7329 12.9074Z"/>
  </g>
  <g id="Light-L" transform="matrix(1 0 0 1 1085.41 1556)">
   <path d="M36.6181-83.607Q34.8416-83.607 33.8262-82.5177Q32.8108-81.4284 32.8108-79.5577L32.8108-67.563Q32.8108-65.7857 33.8262-64.6729Q34.8416-63.56 36.6181-63.56L76.8671-63.56Q78.6102-63.56 79.6191-64.6729Q80.628-65.7857 80.628-67.563L80.628-79.5577Q80.628-81.4284 79.6191-82.5177Q78.6102-83.607 76.8671-83.607ZM36.6181-58.0843Q34.8416-58.0843 33.8262-57.0116Q32.8108-55.939 32.8108-54.1154L32.8108-42.0402Q32.8108-40.263 33.8262-39.1672Q34.8416-38.0714 36.6181-38.0714L98.9035-38.0714Q100.647-38.0714 101.662-39.1672Q102.677-40.263 102.677-42.0866L102.677-54.1154Q102.677-55.939 101.662-57.0116Q100.647-58.0843 98.9035-58.0843ZM36.6181-32.5152Q34.8416-32.5152 33.8262-31.4592Q32.8108-30.4032 32.8108-28.6267L32.8108-16.5175Q32.8108-14.6939 33.8262-13.6147Q34.8416-12.5356 36.6181-12.5356L87.9425-12.5356Q89.6386-12.5356 90.6474-13.6147Q91.6563-14.6939 91.6563-16.5175L91.6563-28.6267Q91.6563-30.4032 90.6474-31.4592Q89.6386-32.5152 87.9425-32.5152ZM36.6181-7.07282Q34.8416-7.07282 33.8262-5.97662Q32.8108-4.88043 32.8108-3.02353L32.8108 8.97199Q32.8108 10.7485 33.8262 11.8613Q34.8416 12.9742 36.6181 12.9742L66.1937 12.9742Q67.8897 12.9742 68.9222 11.8613Q69.9546 10.7485 69.9546 8.97199L69.9546-3.02353Q69.9546-4.88043 68.9222-5.97662Q67.8897-7.07282 66.1937-7.07282ZM16.084 13.7936Q16.084 22.6848 20.5962 27.2307Q25.1085 31.7767 33.9323 31.7767L101.489 31.7767Q110.359 31.7767 114.865 27.2307Q119.37 22.6848 119.37 13.7936L119.37-84.1461Q119.37-93.004 114.865-97.5666Q110.359-102.129 101.489-102.129L33.9323-102.129Q25.1085-102.129 20.5962-97.5666Q16.084-93.004 16.084-84.1461ZM22.7099 13.6328L22.7099-83.9853Q22.7099-89.59 25.6263-92.5466Q28.5428-95.5033 34.2953-95.5033L101.159-95.5033Q106.878-95.5033 109.818-92.5466Q112.758-89.59 112.758-83.9853L112.758 13.6328Q112.758 19.2375 109.818 22.1941Q106.878 25.1508 101.159 25.1508L34.2953 25.1508Q28.5428 25.1508 25.6263 22.1941Q22.7099 19.2375 22.7099 13.6328Z"/>
  </g>
  <g id="Thin-L" transform="matrix(1 0 0 1 789.73 1556)">
   <path d="M34.5481-84.8691Q32.898-84.8691 31.9206-83.843Q30.9431-82.8169 30.9431-81.0217L30.9431-67.8912Q30.9431-66.2399 31.9206-65.1776Q32.898-64.1152 34.5481-64.1152L76.0341-64.1152Q77.6764-64.1152 78.622-65.1776Q79.5677-66.2399 79.5677-67.8912L79.5677-81.0217Q79.5677-82.8169 78.622-83.843Q77.6764-84.8691 76.0341-84.8691ZM34.5481-58.7658Q32.898-58.7658 31.9206-57.7436Q30.9431-56.7214 30.9431-54.9988L30.9431-41.7879Q30.9431-40.1366 31.9206-39.0787Q32.898-38.0209 34.5481-38.0209L98.853-38.0209Q100.495-38.0209 101.473-39.0787Q102.45-40.1366 102.45-41.8592L102.45-54.9988Q102.45-56.7214 101.473-57.7436Q100.495-58.7658 98.853-58.7658ZM34.5481-32.5911Q32.898-32.5911 31.9206-31.5728Q30.9431-30.5546 30.9431-28.9045L30.9431-15.6845Q30.9431-13.9619 31.9206-12.908Q32.898-11.8541 34.5481-11.8541L87.4883-11.8541Q89.058-11.8541 90.0037-12.908Q90.9493-13.9619 90.9493-15.6845L90.9493-28.9045Q90.9493-30.5546 90.0037-31.5728Q89.058-32.5911 87.4883-32.5911ZM34.5481-6.56815Q32.898-6.56815 31.9206-5.50969Q30.9431-4.45124 30.9431-2.72073L30.9431 10.4109Q30.9431 12.061 31.9206 13.1234Q32.898 14.1858 34.5481 14.1858L64.9821 14.1858Q66.5517 14.1858 67.5337 13.1234Q68.5156 12.061 68.5156 10.4109L68.5156-2.72073Q68.5156-4.45124 67.5337-5.50969Q66.5517-6.56815 64.9821-6.56815ZM16.084 14.7529Q16.084 22.8866 20.3187 27.1298Q24.5534 31.3729 32.6702 31.3729L100.706 31.3729Q108.896 31.3729 113.098 27.1298Q117.3 22.8866 117.3 14.7529L117.3-85.0045Q117.3-93.1304 113.098-97.3774Q108.896-101.624 100.706-101.624L32.6702-101.624Q24.5534-101.624 20.3187-97.3774Q16.084-93.1304 16.084-85.0045ZM20.0343 14.5921L20.0343-84.8436Q20.0343-91.1298 23.2662-94.402Q26.4982-97.6742 32.8818-97.6742L100.502-97.6742Q106.878-97.6742 110.146-94.402Q113.415-91.1298 113.415-84.8436L113.415 14.5921Q113.415 20.8783 110.146 24.1505Q106.878 27.4227 100.502 27.4227L32.8818 27.4227Q26.4982 27.4227 23.2662 24.1505Q20.0343 20.8783 20.0343 14.5921Z"/>
  </g>
  <g id="Ultralight-L" transform="matrix(1 0 0 1 493.549 1556)">
   <path d="M33.4878-85.5156Q31.9025-85.5156 30.9445-84.5218Q29.9865-83.5281 29.9865-81.7715L29.9865-68.0594Q29.9865-66.4726 30.9445-65.436Q31.9025-64.3995 33.4878-64.3995L75.6075-64.3995Q77.1981-64.3995 78.1114-65.436Q79.0247-66.4726 79.0247-68.0594L79.0247-81.7715Q79.0247-83.5281 78.1114-84.5218Q77.1981-85.5156 75.6075-85.5156ZM33.4878-59.1148Q31.9025-59.1148 30.9445-58.1185Q29.9865-57.1222 29.9865-55.4512L29.9865-41.6586Q29.9865-40.0719 30.9445-39.0335Q31.9025-37.9951 33.4878-37.9951L98.8272-37.9951Q100.418-37.9951 101.376-39.0335Q102.334-40.0719 102.334-41.7428L102.334-55.4512Q102.334-57.1222 101.376-58.1185Q100.418-59.1148 98.8272-59.1148ZM33.4878-32.63Q31.9025-32.63 30.9445-31.631Q29.9865-30.6321 29.9865-29.0468L29.9865-15.2579Q29.9865-13.587 30.9445-12.546Q31.9025-11.505 33.4878-11.505L87.2557-11.505Q88.7606-11.505 89.6739-12.546Q90.5872-13.587 90.5872-15.2579L90.5872-29.0468Q90.5872-30.6321 89.6739-31.631Q88.7606-32.63 87.2557-32.63ZM33.4878-6.30966Q31.9025-6.30966 30.9445-5.27054Q29.9865-4.23142 29.9865-2.56564L29.9865 11.148Q29.9865 12.7333 30.9445 13.7699Q31.9025 14.8064 33.4878 14.8064L64.3615 14.8064Q65.8664 14.8064 66.8225 13.7699Q67.7786 12.7333 67.7786 11.148L67.7786-2.56564Q67.7786-4.23142 66.8225-5.27054Q65.8664-6.30966 64.3615-6.30966ZM16.084 15.2443Q16.084 22.99 20.1765 27.0781Q24.269 31.1661 32.0237 31.1661L100.305 31.1661Q108.146 31.1661 112.193 27.0781Q116.24 22.99 116.24 15.2443L116.24-85.4441Q116.24-93.1951 112.193-97.2805Q108.146-101.366 100.305-101.366L32.0237-101.366Q24.269-101.366 20.1765-97.2805Q16.084-93.1951 16.084-85.4441ZM18.6638 15.0834L18.6638-85.2833Q18.6638-91.9186 22.0574-95.3524Q25.451-98.7862 32.1578-98.7862L100.166-98.7862Q106.878-98.7862 110.314-95.3524Q113.751-91.9186 113.751-85.2833L113.751 15.0834Q113.751 21.7187 110.314 25.1525Q106.878 28.5863 100.166 28.5863L32.1578 28.5863Q25.451 28.5863 22.0574 25.1525Q18.6638 21.7187 18.6638 15.0834Z"/>
  </g>
  <g id="Black-M" transform="matrix(1 0 0 1 2875.44 1126)">
   <path d="M39.4131-67.3448Q37.5685-67.3448 36.4415-66.2097Q35.3145-65.0746 35.3145-63.2877L35.3145-57.8066Q35.3145-56.0192 36.4415-54.8842Q37.5685-53.7493 39.4131-53.7493L63.7825-53.7493Q65.6215-53.7493 66.78-54.8842Q67.9385-56.0192 67.9385-57.8066L67.9385-63.2877Q67.9385-65.0746 66.78-66.2097Q65.6215-67.3448 63.7825-67.3448ZM39.4131-50.6945Q37.5685-50.6945 36.4415-49.5622Q35.3145-48.4298 35.3145-46.6427L35.3145-41.1564Q35.3145-39.3119 36.4415-38.2082Q37.5685-37.1045 39.4131-37.1045L76.5263-37.1045Q78.3654-37.1045 79.4924-38.2082Q80.6194-39.3119 80.6194-41.1561L80.6194-46.6427Q80.6194-48.4298 79.4924-49.5622Q78.3654-50.6945 76.5263-50.6945ZM39.4131-34.0446Q37.5685-34.0446 36.4415-32.972Q35.3145-31.8995 35.3145-30.055L35.3145-24.5061Q35.3145-22.719 36.4415-21.5895Q37.5685-20.46 39.4131-20.46L68.7895-20.46Q70.6288-20.46 71.7587-21.5895Q72.8886-22.719 72.8886-24.5061L72.8886-30.055Q72.8886-31.8995 71.7587-32.972Q70.6288-34.0446 68.7895-34.0446ZM39.4131-17.3995Q37.5685-17.3995 36.4415-16.2673Q35.3145-15.1351 35.3145-13.3424L35.3145-7.86135Q35.3145-6.07393 36.4415-4.93896Q37.5685-3.80398 39.4131-3.80398L58.7445-3.80398Q60.5838-3.80398 61.7421-4.93896Q62.9004-6.07393 62.9004-7.86135L62.9004-13.3424Q62.9004-15.1351 61.7421-16.2673Q60.5838-17.3995 58.7445-17.3995ZM12.4609 0.735694Q12.4609 9.80402 17.5 14.8486Q22.5391 19.8932 31.5964 19.8932L84.3265 19.8932Q93.3835 19.8932 98.4255 14.8486Q103.467 9.80402 103.467 0.735694L103.467-71.1439Q103.467-80.2068 98.4255-85.2541Q93.3835-90.3014 84.3265-90.3014L31.5964-90.3014Q22.5391-90.3014 17.5-85.2541Q12.4609-80.2068 12.4609-71.1439ZM29.7989-1.90115L29.7989-68.5071Q29.7989-70.7791 30.8314-71.8713Q31.8639-72.9634 34.2662-72.9634L81.6622-72.9634Q84.1161-72.9634 85.12-71.8713Q86.1238-70.7791 86.1238-68.5071L86.1238-1.90115Q86.1238 0.313729 85.12 1.43447Q84.1161 2.55522 81.6622 2.55522L34.2662 2.55522Q31.8639 2.55522 30.8314 1.43447Q29.7989 0.313729 29.7989-1.90115Z"/>
  </g>
  <g id="Heavy-M" transform="matrix(1 0 0 1 2579.77 1126)">
   <path d="M37.3034-68.3081Q35.5391-68.3081 34.4833-67.2265Q33.4275-66.145 33.4275-64.4197L33.4275-58.3115Q33.4275-56.5907 34.4833-55.508Q35.5391-54.4253 37.3034-54.4253L62.984-54.4253Q64.7319-54.4253 65.8166-55.508Q66.9013-56.5907 66.9013-58.3115L66.9013-64.4197Q66.9013-66.145 65.8166-67.2265Q64.7319-68.3081 62.984-68.3081ZM37.3034-51.06Q35.5391-51.06 34.4833-49.9867Q33.4275-48.9133 33.4275-47.1903L33.4275-41.0634Q33.4275-39.2991 34.4833-38.2464Q35.5391-37.1937 37.3034-37.1937L76.5617-37.1937Q78.3096-37.1937 79.3654-38.2464Q80.4212-39.2991 80.4212-41.0657L80.4212-47.1903Q80.4212-48.9133 79.3654-49.9867Q78.3096-51.06 76.5617-51.06ZM37.3034-33.8097Q35.5391-33.8097 34.4833-32.7882Q33.4275-31.7666 33.4275-30.0023L33.4275-23.8154Q33.4275-22.0924 34.4833-21.0261Q35.5391-19.9598 37.3034-19.9598L68.7435-19.9598Q70.4891-19.9598 71.552-21.0261Q72.6149-22.0924 72.6149-23.8154L72.6149-30.0023Q72.6149-31.7666 71.552-32.7882Q70.4891-33.8097 68.7435-33.8097ZM37.3034-16.5803Q35.5391-16.5803 34.4833-15.5058Q33.4275-14.4313 33.4275-12.6919L33.4275-6.58372Q33.4275-4.863 34.4833-3.7803Q35.5391-2.6976 37.3034-2.6976L57.2743-2.6976Q59.02-2.6976 60.1058-3.7803Q61.1916-4.863 61.1916-6.58372L61.1916-12.6919Q61.1916-14.4313 60.1058-15.5058Q59.02-16.5803 57.2743-16.5803ZM12.4609 0.981088Q12.4609 9.71667 17.2024 14.4746Q21.9439 19.2324 30.6466 19.2324L83.1692 19.2324Q91.8743 19.2324 96.6228 14.4746Q101.371 9.71667 101.371 0.981088L101.371-71.406Q101.371-80.1252 96.6228-84.8913Q91.8743-89.6574 83.1692-89.6574L30.6466-89.6574Q21.9439-89.6574 17.2024-84.8913Q12.4609-80.1252 12.4609-71.406ZM27.5605-1.06287L27.5605-69.3621Q27.5605-71.9591 28.8069-73.2584Q30.0533-74.5578 32.7891-74.5578L81.0432-74.5578Q83.8062-74.5578 85.0319-73.2584Q86.2576-71.9591 86.2576-69.3621L86.2576-1.06287Q86.2576 1.49054 85.0319 2.81168Q83.8062 4.13282 81.0432 4.13282L32.7891 4.13282Q30.0533 4.13282 28.8069 2.81168Q27.5605 1.49054 27.5605-1.06287Z"/>
  </g>
  <g id="Bold-M" transform="matrix(1 0 0 1 2284.23 1126)">
   <path d="M34.9435-69.3856Q33.2689-69.3856 32.2927-68.364Q31.3166-67.3424 31.3166-65.6859L31.3166-58.8763Q31.3166-57.2301 32.2927-56.2059Q33.2689-55.1816 34.9435-55.1816L62.0907-55.1816Q63.7368-55.1816 64.7389-56.2059Q65.7411-57.2301 65.7411-58.8763L65.7411-65.6859Q65.7411-67.3424 64.7389-68.364Q63.7368-69.3856 62.0907-69.3856ZM34.9435-51.4689Q33.2689-51.4689 32.2927-50.4615Q31.3166-49.4542 31.3166-47.8029L31.3166-40.9595Q31.3166-39.2847 32.2927-38.2891Q33.2689-37.2935 34.9435-37.2935L76.6012-37.2935Q78.2472-37.2935 79.2234-38.2891Q80.1995-39.2847 80.1995-40.9646L80.1995-47.8029Q80.1995-49.4542 79.2234-50.4615Q78.2472-51.4689 76.6012-51.4689ZM34.9435-33.547Q33.2689-33.547 32.2927-32.5825Q31.3166-31.618 31.3166-29.9433L31.3166-23.0427Q31.3166-21.3914 32.2927-20.3958Q33.2689-19.4002 34.9435-19.4002L68.692-19.4002Q70.3329-19.4002 71.3208-20.3958Q72.3087-21.3914 72.3087-23.0427L72.3087-29.9433Q72.3087-31.618 71.3208-32.5825Q70.3329-33.547 68.692-33.547ZM34.9435-15.664Q33.2689-15.664 32.2927-14.654Q31.3166-13.6441 31.3166-11.9642L31.3166-5.1545Q31.3166-3.50839 32.2927-2.48417Q33.2689-1.45994 34.9435-1.45994L55.6297-1.45994Q57.2706-1.45994 58.2753-2.48417Q59.2801-3.50839 59.2801-5.1545L59.2801-11.9642Q59.2801-13.6441 58.2753-14.654Q57.2706-15.664 55.6297-15.664ZM12.4609 1.2556Q12.4609 9.61896 16.8695 14.0561Q21.278 18.4933 29.5842 18.4933L81.8747 18.4933Q90.186 18.4933 94.6063 14.0561Q99.0265 9.61896 99.0265 1.2556L99.0265-71.6993Q99.0265-80.034 94.6063-84.4855Q90.186-88.937 81.8747-88.937L29.5842-88.937Q21.278-88.937 16.8695-84.4855Q12.4609-80.034 12.4609-71.6993ZM25.0566-0.125134L25.0566-70.3185Q25.0566-73.2792 26.5423-74.8102Q28.0279-76.3413 31.1366-76.3413L80.3508-76.3413Q83.4595-76.3413 84.9335-74.8102Q86.4074-73.2792 86.4074-70.3185L86.4074-0.125134Q86.4074 2.80697 84.9335 4.35228Q83.4595 5.89759 80.3508 5.89759L31.1366 5.89759Q28.0279 5.89759 26.5423 4.35228Q25.0566 2.80697 25.0566-0.125134Z"/>
  </g>
  <g id="Semibold-M" transform="matrix(1 0 0 1 1988.33 1126)">
   <path d="M33.3166-70.1285Q31.7038-70.1285 30.7826-69.1482Q29.8614-68.1678 29.8614-66.5589L29.8614-59.2656Q29.8614-57.6708 30.7826-56.6869Q31.7038-55.703 33.3166-55.703L61.4749-55.703Q63.0507-55.703 63.996-56.6869Q64.9413-57.6708 64.9413-59.2656L64.9413-66.5589Q64.9413-68.1678 63.996-69.1482Q63.0507-70.1285 61.4749-70.1285ZM33.3166-51.7507Q31.7038-51.7507 30.7826-50.7889Q29.8614-49.827 29.8614-48.2252L29.8614-40.8878Q29.8614-39.2749 30.7826-38.3186Q31.7038-37.3623 33.3166-37.3623L76.6284-37.3623Q78.2042-37.3623 79.1254-38.3186Q80.0467-39.2749 80.0467-40.8949L80.0467-48.2252Q80.0467-49.827 79.1254-50.7889Q78.2042-51.7507 76.6284-51.7507ZM33.3166-33.3659Q31.7038-33.3659 30.7826-32.4407Q29.8614-31.5155 29.8614-29.9027L29.8614-22.51Q29.8614-20.9082 30.7826-19.9613Q31.7038-19.0145 33.3166-19.0145L68.6565-19.0145Q70.2252-19.0145 71.1614-19.9613Q72.0976-20.9082 72.0976-22.51L72.0976-29.9027Q72.0976-31.5155 71.1614-32.4407Q70.2252-33.3659 68.6565-33.3659ZM33.3166-15.0322Q31.7038-15.0322 30.7826-14.0668Q29.8614-13.1014 29.8614-11.4626L29.8614-4.1692Q29.8614-2.57454 30.7826-1.59062Q31.7038-0.606712 33.3166-0.606712L54.4959-0.606712Q56.0645-0.606712 57.0134-1.59062Q57.9622-2.57454 57.9622-4.1692L57.9622-11.4626Q57.9622-13.1014 57.0134-14.0668Q56.0645-15.0322 54.4959-15.0322ZM12.4609 1.44484Q12.4609 9.55159 16.64 13.7677Q20.819 17.9838 28.8517 17.9838L80.9823 17.9838Q89.0221 17.9838 93.216 13.7677Q97.41 9.55159 97.41 1.44484L97.41-71.9014Q97.41-79.9712 93.216-84.2057Q89.0221-88.4403 80.9823-88.4403L28.8517-88.4403Q20.819-88.4403 16.64-84.2057Q12.4609-79.9712 12.4609-71.9014ZM23.3305 0.521338L23.3305-70.9779Q23.3305-74.1892 24.981-75.88Q26.6316-77.5708 29.9974-77.5708L79.8735-77.5708Q83.2205-77.5708 84.8656-75.88Q86.5106-74.1892 86.5106-70.9779L86.5106 0.521338Q86.5106 3.71451 84.8656 5.41437Q83.2205 7.11422 79.8735 7.11422L29.9974 7.11422Q26.6316 7.11422 24.981 5.41437Q23.3305 3.71451 23.3305 0.521338Z"/>
  </g>
  <g id="Medium-M" transform="matrix(1 0 0 1 1692.23 1126)">
   <path d="M32.083-70.6918Q30.5171-70.6918 29.6375-69.7428Q28.758-68.7938 28.758-67.2208L28.758-59.5608Q28.758-58.005 29.6375-57.0517Q30.5171-56.0983 32.083-56.0983L61.008-56.0983Q62.5305-56.0983 63.4327-57.0517Q64.3348-58.005 64.3348-59.5608L64.3348-67.2208Q64.3348-68.7938 63.4327-69.7428Q62.5305-70.6918 61.008-70.6918ZM32.083-51.9644Q30.5171-51.9644 29.6375-51.0371Q28.758-50.1098 28.758-48.5454L28.758-40.8335Q28.758-39.2674 29.6375-38.3409Q30.5171-37.4145 32.083-37.4145L76.649-37.4145Q78.1716-37.4145 79.0512-38.3409Q79.9308-39.2674 79.9308-40.842L79.9308-48.5454Q79.9308-50.1098 79.0512-51.0371Q78.1716-51.9644 76.649-51.9644ZM32.083-33.2285Q30.5171-33.2285 29.6375-32.3332Q28.758-31.4378 28.758-29.8718L28.758-22.1061Q28.758-20.5418 29.6375-19.6319Q30.5171-18.7219 32.083-18.7219L68.6296-18.7219Q70.1435-18.7219 71.0405-19.6319Q71.9375-20.5418 71.9375-22.1061L71.9375-29.8718Q71.9375-31.4378 71.0405-32.3332Q70.1435-33.2285 68.6296-33.2285ZM32.083-14.5532Q30.5171-14.5532 29.6375-13.6215Q28.758-12.6899 28.758-11.0822L28.758-3.42211Q28.758-1.86645 29.6375-0.913102Q30.5171 0.0402429 32.083 0.0402429L53.6362 0.0402429Q55.1501 0.0402429 56.0565-0.913102Q56.963-1.86645 56.963-3.42211L56.963-11.0822Q56.963-12.6899 56.0565-13.6215Q55.1501-14.5532 53.6362-14.5532ZM12.4609 1.58833Q12.4609 9.50052 16.4659 13.549Q20.471 17.5974 28.2963 17.5974L80.3056 17.5974Q88.1396 17.5974 92.1619 13.549Q96.1843 9.50052 96.1843 1.58833L96.1843-72.0547Q96.1843-79.9235 92.1619-83.9936Q88.1396-88.0637 80.3056-88.0637L28.2963-88.0637Q20.471-88.0637 16.4659-83.9936Q12.4609-79.9235 12.4609-72.0547ZM22.0216 1.01152L22.0216-71.4779Q22.0216-74.8793 23.7972-76.6912Q25.5728-78.5031 29.1337-78.5031L79.5115-78.5031Q83.0393-78.5031 84.8141-76.6912Q86.5889-74.8793 86.5889-71.4779L86.5889 1.01152Q86.5889 4.40265 84.8141 6.21968Q83.0393 8.03671 79.5115 8.03671L29.1337 8.03671Q25.5728 8.03671 23.7972 6.21968Q22.0216 4.40265 22.0216 1.01152Z"/>
  </g>
  <g id="Regular-M" transform="matrix(1 0 0 1 1396.32 1126)">
   <path d="M30.474-71.4265Q28.9692-71.4265 28.144-70.5183Q27.3187-69.6102 27.3187-68.0841L27.3187-59.9459Q27.3187-58.4409 28.144-57.5275Q28.9692-56.614 30.474-56.614L60.3989-56.614Q61.852-56.614 62.6979-57.5275Q63.5437-58.4409 63.5437-59.9459L63.5437-68.0841Q63.5437-69.6102 62.6979-70.5183Q61.852-71.4265 60.3989-71.4265ZM30.474-52.2432Q28.9692-52.2432 28.144-51.3609Q27.3187-50.4785 27.3187-48.9631L27.3187-40.7626Q27.3187-39.2576 28.144-38.3701Q28.9692-37.4825 30.474-37.4825L76.676-37.4825Q78.1291-37.4825 78.9543-38.3701Q79.7796-39.2576 79.7796-40.773L79.7796-48.9631Q79.7796-50.4785 78.9543-51.3609Q78.1291-52.2432 76.676-52.2432ZM30.474-33.0494Q28.9692-33.0494 28.144-32.1929Q27.3187-31.3364 27.3187-29.8316L27.3187-21.5793Q27.3187-20.0639 28.144-19.2021Q28.9692-18.3404 30.474-18.3404L68.5945-18.3404Q70.037-18.3404 70.8829-19.2021Q71.7287-20.0639 71.7287-21.5793L71.7287-29.8316Q71.7287-31.3364 70.8829-32.1929Q70.037-33.0494 68.5945-33.0494ZM30.474-13.9284Q28.9692-13.9284 28.144-13.0408Q27.3187-12.1531 27.3187-10.586L27.3187-2.44764Q27.3187-0.942853 28.144-0.0293776Q28.9692 0.884098 30.474 0.884098L52.5148 0.884098Q53.9573 0.884098 54.8085-0.0293776Q55.6597-0.942853 55.6597-2.44764L55.6597-10.586Q55.6597-12.1531 54.8085-13.0408Q53.9573-13.9284 52.5148-13.9284ZM12.4609 1.7755Q12.4609 9.43389 16.239 13.2637Q20.017 17.0934 27.5719 17.0934L79.4229 17.0934Q86.9885 17.0934 90.787 13.2637Q94.5855 9.43389 94.5855 1.7755L94.5855-72.2546Q94.5855-79.8613 90.787-83.7169Q86.9885-87.5725 79.4229-87.5725L27.5719-87.5725Q20.017-87.5725 16.239-83.7169Q12.4609-79.8613 12.4609-72.2546ZM20.3144 1.65089L20.3144-72.13Q20.3144-75.7793 22.2531-77.7492Q24.1919-79.7191 28.007-79.7191L79.0395-79.7191Q82.8029-79.7191 84.747-77.7492Q86.691-75.7793 86.691-72.13L86.691 1.65089Q86.691 5.30021 84.747 7.27009Q82.8029 9.23997 79.0395 9.23997L28.007 9.23997Q24.1919 9.23997 22.2531 7.27009Q20.3144 5.30021 20.3144 1.65089Z"/>
  </g>
  <g id="Light-M" transform="matrix(1 0 0 1 1100.31 1126)">
   <path d="M29.0708-72.282Q27.6517-72.282 26.8522-71.4167Q26.0526-70.5514 26.0526-69.0765L26.0526-60.1684Q26.0526-58.7488 26.8522-57.8696Q27.6517-56.9903 29.0708-56.9903L59.8343-56.9903Q61.219-56.9903 62.022-57.8696Q62.825-58.7488 62.825-60.1684L62.825-69.0765Q62.825-70.5514 62.022-71.4167Q61.219-72.282 59.8343-72.282ZM29.0708-52.7052Q27.6517-52.7052 26.8522-51.857Q26.0526-51.0089 26.0526-49.5619L26.0526-40.5915Q26.0526-39.172 26.8522-38.3101Q27.6517-37.4483 29.0708-37.4483L76.6418-37.4483Q78.0265-37.4483 78.826-38.3101Q79.6255-39.172 79.6255-40.619L79.6255-49.5619Q79.6255-51.0089 78.826-51.857Q78.0265-52.7052 76.6418-52.7052ZM29.0708-33.1009Q27.6517-33.1009 26.8522-32.27Q26.0526-31.4391 26.0526-30.0199L26.0526-21.0147Q26.0526-19.5677 26.8522-18.723Q27.6517-17.8784 29.0708-17.8784L68.2866-17.8784Q69.6434-17.8784 70.4465-18.723Q71.2495-19.5677 71.2495-21.0147L71.2495-30.0199Q71.2495-31.4391 70.4465-32.27Q69.6434-33.1009 68.2866-33.1009ZM29.0708-13.5863Q27.6517-13.5863 26.8522-12.7242Q26.0526-11.8622 26.0526-10.3808L26.0526-1.47221Q26.0526-0.0530884 26.8522 0.826176Q27.6517 1.70544 29.0708 1.70544L51.6935 1.70544Q53.0503 1.70544 53.8673 0.826176Q54.6842-0.0530884 54.6842-1.47221L54.6842-10.3808Q54.6842-11.8622 53.8673-12.7242Q53.0503-13.5863 51.6935-13.5863ZM12.4609 2.42579Q12.4609 9.57073 16.0508 13.1952Q19.6407 16.8198 26.7163 16.8198L78.8925 16.8198Q85.9961 16.8198 89.5892 13.1952Q93.1823 9.57073 93.1823 2.42579L93.1823-72.8365Q93.1823-79.947 89.5892-83.5887Q85.9961-87.2304 78.8925-87.2304L26.7163-87.2304Q19.6407-87.2304 16.0508-83.5887Q12.4609-79.947 12.4609-72.8365ZM18.5007 2.30118L18.5007-72.7119Q18.5007-76.8232 20.6533-79.0069Q22.8059-81.1907 27.0488-81.1907L78.5944-81.1907Q82.8029-81.1907 84.9695-79.0069Q87.136-76.8232 87.136-72.7119L87.136 2.30118Q87.136 6.41249 84.9695 8.59626Q82.8029 10.78 78.5944 10.78L27.0488 10.78Q22.8059 10.78 20.6533 8.59626Q18.5007 6.41249 18.5007 2.30118Z"/>
  </g>
  <g id="Thin-M" transform="matrix(1 0 0 1 804.528 1126)">
   <path d="M27.2149-73.4136Q25.9091-73.4136 25.1436-72.6049Q24.3781-71.7962 24.3781-70.389L24.3781-60.4627Q24.3781-59.156 25.1436-58.322Q25.9091-57.488 27.2149-57.488L59.0875-57.488Q60.3817-57.488 61.1281-58.322Q61.8745-59.156 61.8745-60.4627L61.8745-70.389Q61.8745-71.7962 61.1281-72.6049Q60.3817-73.4136 59.0875-73.4136ZM27.2149-53.3162Q25.9091-53.3162 25.1436-52.5133Q24.3781-51.7104 24.3781-50.3539L24.3781-40.3653Q24.3781-39.0586 25.1436-38.2309Q25.9091-37.4031 27.2149-37.4031L76.5965-37.4031Q77.8907-37.4031 78.6562-38.2309Q79.4217-39.0586 79.4217-40.4152L79.4217-50.3539Q79.4217-51.7104 78.6562-52.5133Q77.8907-53.3162 76.5965-53.3162ZM27.2149-33.1689Q25.9091-33.1689 25.1436-32.3719Q24.3781-31.5748 24.3781-30.269L24.3781-20.2679Q24.3781-18.9114 25.1436-18.0894Q25.9091-17.2674 27.2149-17.2674L67.8794-17.2674Q69.1229-17.2674 69.8693-18.0894Q70.6156-18.9114 70.6156-20.2679L70.6156-30.269Q70.6156-31.5748 69.8693-32.3719Q69.1229-33.1689 67.8794-33.1689ZM27.2149-13.1338Q25.9091-13.1338 25.1436-12.3056Q24.3781-11.4774 24.3781-10.1093L24.3781-0.182118Q24.3781 1.1237 25.1436 1.95771Q25.9091 2.79173 27.2149 2.79173L50.6072 2.79173Q51.8507 2.79173 52.6224 1.95771Q53.3941 1.1237 53.3941-0.182118L53.3941-10.1093Q53.3941-11.4774 52.6224-12.3056Q51.8507-13.1338 50.6072-13.1338ZM12.4609 3.28585Q12.4609 9.75172 15.8019 13.1048Q19.1429 16.4578 25.5848 16.4578L78.191 16.4578Q84.6835 16.4578 88.005 13.1048Q91.3265 9.75172 91.3265 3.28585L91.3265-73.606Q91.3265-80.0603 88.005-83.4191Q84.6835-86.778 78.191-86.778L25.5848-86.778Q19.1429-86.778 15.8019-83.4191Q12.4609-80.0603 12.4609-73.606ZM16.1019 3.16124L16.1019-73.4814Q16.1019-78.2038 18.5374-80.6704Q20.9729-83.1371 25.7815-83.1371L78.0058-83.1371Q82.8029-83.1371 85.2638-80.6704Q87.7246-78.2038 87.7246-73.4814L87.7246 3.16124Q87.7246 7.88357 85.2638 10.3502Q82.8029 12.8169 78.0058 12.8169L25.7815 12.8169Q20.9729 12.8169 18.5374 10.3502Q16.1019 7.88357 16.1019 3.16124Z"/>
  </g>
  <g id="Ultralight-M" transform="matrix(1 0 0 1 508.292 1126)">
   <path d="M26.2644-73.9931Q25.0166-73.9931 24.2685-73.2135Q23.5205-72.4338 23.5205-71.0613L23.5205-60.6134Q23.5205-59.3646 24.2685-58.5538Q25.0166-57.7429 26.2644-57.7429L58.7051-57.7429Q59.9529-57.7429 60.6703-58.5538Q61.3876-59.3646 61.3876-60.6134L61.3876-71.0613Q61.3876-72.4338 60.6703-73.2135Q59.9529-73.9931 58.7051-73.9931ZM26.2644-53.6291Q25.0166-53.6291 24.2685-52.8494Q23.5205-52.0698 23.5205-50.7596L23.5205-40.2494Q23.5205-39.0006 24.2685-38.1902Q25.0166-37.3799 26.2644-37.3799L76.5733-37.3799Q77.8212-37.3799 78.5693-38.1902Q79.3173-39.0006 79.3173-40.3108L79.3173-50.7596Q79.3173-52.0698 78.5693-52.8494Q77.8212-53.6291 76.5733-53.6291ZM26.2644-33.2038Q25.0166-33.2038 24.2685-32.4241Q23.5205-31.6443 23.5205-30.3965L23.5205-19.8854Q23.5205-18.5753 24.2685-17.7649Q25.0166-16.9545 26.2644-16.9545L67.6708-16.9545Q68.8563-16.9545 69.5737-17.7649Q70.291-18.5753 70.291-19.8854L70.291-30.3965Q70.291-31.6443 69.5737-32.4241Q68.8563-33.2038 67.6708-33.2038ZM26.2644-12.9021Q25.0166-12.9021 24.2685-12.0912Q23.5205-11.2803 23.5205-9.97024L23.5205 0.478661Q23.5205 1.72644 24.2685 2.53728Q25.0166 3.34813 26.2644 3.34813L50.0508 3.34813Q51.2363 3.34813 51.9848 2.53728Q52.7334 1.72644 52.7334 0.478661L52.7334-9.97024Q52.7334-11.2803 51.9848-12.0912Q51.2363-12.9021 50.0508-12.9021ZM12.4609 3.72637Q12.4609 9.84442 15.6745 13.0584Q18.888 16.2724 25.0052 16.2724L77.8317 16.2724Q84.0113 16.2724 87.1936 13.0584Q90.3759 9.84442 90.3759 3.72637L90.3759-74.0002Q90.3759-80.1183 87.1936-83.3323Q84.0113-86.5462 77.8317-86.5462L25.0052-86.5462Q18.888-86.5462 15.6745-83.3323Q12.4609-80.1183 12.4609-74.0002ZM14.8732 3.60176L14.8732-73.8756Q14.8732-78.9109 17.4536-81.5224Q20.034-84.134 25.1325-84.134L77.7044-84.134Q82.8029-84.134 85.4145-81.5224Q88.0261-78.9109 88.0261-73.8756L88.0261 3.60176Q88.0261 8.63705 85.4145 11.2486Q82.8029 13.8601 77.7044 13.8601L25.1325 13.8601Q20.034 13.8601 17.4536 11.2486Q14.8732 8.63705 14.8732 3.60176Z"/>
  </g>
  <g id="Black-S" transform="matrix(1 0 0 1 2887.7 696)">
   <path d="M31.4453-60.1562Q29.9805-60.1562 29.0771-59.2529Q28.1738-58.3496 28.1738-56.9336L28.1738-52.7832Q28.1738-51.3672 29.0771-50.4639Q29.9805-49.5605 31.4453-49.5605L50.1953-49.5605Q51.6602-49.5605 52.5879-50.4639Q53.5156-51.3672 53.5156-52.7832L53.5156-56.9336Q53.5156-58.3496 52.5879-59.2529Q51.6602-60.1562 50.1953-60.1562ZM31.4453-47.2656Q29.9805-47.2656 29.0771-46.3623Q28.1738-45.459 28.1738-44.043L28.1738-39.8926Q28.1738-38.4277 29.0771-37.5488Q29.9805-36.6699 31.4453-36.6699L59.9609-36.6699Q61.4258-36.6699 62.3291-37.5488Q63.2324-38.4277 63.2324-39.8926L63.2324-44.043Q63.2324-45.459 62.3291-46.3623Q61.4258-47.2656 59.9609-47.2656ZM31.4453-34.375Q29.9805-34.375 29.0771-33.5205Q28.1738-32.666 28.1738-31.2012L28.1738-27.002Q28.1738-25.5859 29.0771-24.6826Q29.9805-23.7793 31.4453-23.7793L53.9062-23.7793Q55.3711-23.7793 56.2744-24.6826Q57.1777-25.5859 57.1777-27.002L57.1777-31.2012Q57.1777-32.666 56.2744-33.5205Q55.3711-34.375 53.9062-34.375ZM31.4453-21.4844Q29.9805-21.4844 29.0771-20.5811Q28.1738-19.6777 28.1738-18.2617L28.1738-14.1113Q28.1738-12.6953 29.0771-11.792Q29.9805-10.8887 31.4453-10.8887L46.4355-10.8887Q47.9004-10.8887 48.8281-11.792Q49.7559-12.6953 49.7559-14.1113L49.7559-18.2617Q49.7559-19.6777 48.8281-20.5811Q47.9004-21.4844 46.4355-21.4844ZM9.76562-7.08008Q9.76562 0.0976562 13.7939 4.12598Q17.8223 8.1543 25 8.1543L66.4062 8.1543Q73.584 8.1543 77.6123 4.12598Q81.6406 0.0976562 81.6406-7.08008L81.6406-63.3301Q81.6406-70.5078 77.6123-74.5361Q73.584-78.5645 66.4062-78.5645L25-78.5645Q17.8223-78.5645 13.7939-74.5361Q9.76562-70.5078 9.76562-63.3301ZM23.9258-9.32617L23.9258-61.084Q23.9258-62.793 24.6826-63.5986Q25.4395-64.4043 27.2461-64.4043L64.1602-64.4043Q66.0156-64.4043 66.748-63.5986Q67.4805-62.793 67.4805-61.084L67.4805-9.32617Q67.4805-7.66602 66.748-6.83594Q66.0156-6.00586 64.1602-6.00586L27.2461-6.00586Q25.4395-6.00586 24.6826-6.83594Q23.9258-7.66602 23.9258-9.32617Z"/>
  </g>
  <g id="Heavy-S" transform="matrix(1 0 0 1 2591.79 696)">
   <path d="M29.8204-60.8708Q28.4131-60.8708 27.5674-60.0078Q26.7217-59.1448 26.7217-57.7749L26.7217-53.1866Q26.7217-51.8166 27.5674-50.9537Q28.4131-50.0907 29.8204-50.0907L49.5845-50.0907Q50.9802-50.0907 51.8503-50.9537Q52.7204-51.8166 52.7204-53.1866L52.7204-57.7749Q52.7204-59.1448 51.8503-60.0078Q50.9802-60.8708 49.5845-60.8708ZM29.8204-47.5192Q28.4131-47.5192 27.5674-46.6619Q26.7217-45.8047 26.7217-44.4348L26.7217-39.835Q26.7217-38.4277 27.5674-37.5892Q28.4131-36.7506 29.8204-36.7506L59.9955-36.7506Q61.3912-36.7506 62.2369-37.5892Q63.0826-38.4277 63.0826-39.835L63.0826-44.4348Q63.0826-45.8047 62.2369-46.6619Q61.3912-47.5192 59.9955-47.5192ZM29.8204-34.1676Q28.4131-34.1676 27.5674-33.3534Q26.7217-32.5392 26.7217-31.132L26.7217-26.4834Q26.7217-25.1134 27.5674-24.262Q28.4131-23.4105 29.8204-23.4105L53.9062-23.4105Q55.3019-23.4105 56.1534-24.262Q57.0049-25.1134 57.0049-26.4834L57.0049-31.132Q57.0049-32.5392 56.1534-33.3534Q55.3019-34.1676 53.9062-34.1676ZM29.8204-20.8275Q28.4131-20.8275 27.5674-19.9703Q26.7217-19.113 26.7217-17.7316L26.7217-13.1433Q26.7217-11.7734 27.5674-10.9104Q28.4131-10.0474 29.8204-10.0474L45.2831-10.0474Q46.6788-10.0474 47.5489-10.9104Q48.419-11.7734 48.419-13.1433L48.419-17.7316Q48.419-19.113 47.5489-19.9703Q46.6788-20.8275 45.2831-20.8275ZM9.76562-6.95331Q9.76562 0.00546053 13.5635 3.81482Q17.3613 7.62417 24.297 7.62417L65.4843 7.62417Q72.42 7.62417 76.2236 3.81482Q80.0272 0.00546053 80.0272-6.95331L80.0272-63.4799Q80.0272-70.4271 76.2236-74.2423Q72.42-78.0574 65.4843-78.0574L24.297-78.0574Q17.3613-78.0574 13.5635-74.2423Q9.76562-70.4271 9.76562-63.4799ZM22.2432-8.69233L22.2432-61.7409Q22.2432-63.6688 23.1556-64.6243Q24.068-65.5798 26.1052-65.5798L63.6877-65.5798Q65.7506-65.5798 66.6443-64.6243Q67.5381-63.6688 67.5381-61.7409L67.5381-8.69233Q67.5381-6.80168 66.6443-5.82755Q65.7506-4.85341 63.6877-4.85341L26.1052-4.85341Q24.068-4.85341 23.1556-5.82755Q22.2432-6.80168 22.2432-8.69233Z"/>
  </g>
  <g id="Bold-S" transform="matrix(1 0 0 1 2295.98 696)">
   <path d="M28.0029-61.6699Q26.6602-61.6699 25.8789-60.8521Q25.0977-60.0342 25.0977-58.7158L25.0977-53.6377Q25.0977-52.3193 25.8789-51.5015Q26.6602-50.6836 28.0029-50.6836L48.9014-50.6836Q50.2197-50.6836 51.0254-51.5015Q51.8311-52.3193 51.8311-53.6377L51.8311-58.7158Q51.8311-60.0342 51.0254-60.8521Q50.2197-61.6699 48.9014-61.6699ZM28.0029-47.8027Q26.6602-47.8027 25.8789-46.9971Q25.0977-46.1914 25.0977-44.873L25.0977-39.7705Q25.0977-38.4277 25.8789-37.6343Q26.6602-36.8408 28.0029-36.8408L60.0342-36.8408Q61.3525-36.8408 62.1338-37.6343Q62.915-38.4277 62.915-39.7705L62.915-44.873Q62.915-46.1914 62.1338-46.9971Q61.3525-47.8027 60.0342-47.8027ZM28.0029-33.9355Q26.6602-33.9355 25.8789-33.1665Q25.0977-32.3975 25.0977-31.0547L25.0977-25.9033Q25.0977-24.585 25.8789-23.7915Q26.6602-22.998 28.0029-22.998L53.9062-22.998Q55.2246-22.998 56.0181-23.7915Q56.8115-24.585 56.8115-25.9033L56.8115-31.0547Q56.8115-32.3975 56.0181-33.1665Q55.2246-33.9355 53.9062-33.9355ZM28.0029-20.0928Q26.6602-20.0928 25.8789-19.2871Q25.0977-18.4814 25.0977-17.1387L25.0977-12.0605Q25.0977-10.7422 25.8789-9.92432Q26.6602-9.10645 28.0029-9.10645L43.9941-9.10645Q45.3125-9.10645 46.1182-9.92432Q46.9238-10.7422 46.9238-12.0605L46.9238-17.1387Q46.9238-18.4814 46.1182-19.2871Q45.3125-20.0928 43.9941-20.0928ZM9.76562-6.81152Q9.76562-0.0976562 13.3057 3.4668Q16.8457 7.03125 23.5107 7.03125L64.4531 7.03125Q71.1182 7.03125 74.6704 3.4668Q78.2227-0.0976562 78.2227-6.81152L78.2227-63.6475Q78.2227-70.3369 74.6704-73.9136Q71.1182-77.4902 64.4531-77.4902L23.5107-77.4902Q16.8457-77.4902 13.3057-73.9136Q9.76562-70.3369 9.76562-63.6475ZM20.3613-7.9834L20.3613-62.4756Q20.3613-64.6484 21.4478-65.7715Q22.5342-66.8945 24.8291-66.8945L63.1592-66.8945Q65.4541-66.8945 66.5283-65.7715Q67.6025-64.6484 67.6025-62.4756L67.6025-7.9834Q67.6025-5.83496 66.5283-4.69971Q65.4541-3.56445 63.1592-3.56445L24.8291-3.56445Q22.5342-3.56445 21.4478-4.69971Q20.3613-5.83496 20.3613-7.9834Z"/>
  </g>
  <g id="Semibold-S" transform="matrix(1 0 0 1 1999.89 696)">
   <path d="M26.7499-62.2209Q25.4516-62.2209 24.7147-61.4341Q23.9779-60.6474 23.9779-59.3646L23.9779-53.9487Q23.9779-52.6659 24.7147-51.8792Q25.4516-51.0924 26.7499-51.0924L48.4304-51.0924Q49.6954-51.0924 50.4566-51.8792Q51.2179-52.6659 51.2179-53.9487L51.2179-59.3646Q51.2179-60.6474 50.4566-61.4341Q49.6954-62.2209 48.4304-62.2209ZM26.7499-47.9982Q25.4516-47.9982 24.7147-47.2281Q23.9779-46.458 23.9779-45.1752L23.9779-39.7261Q23.9779-38.4277 24.7147-37.6654Q25.4516-36.903 26.7499-36.903L60.0608-36.903Q61.3259-36.903 62.0627-37.6654Q62.7995-38.4277 62.7995-39.7261L62.7995-45.1752Q62.7995-46.458 62.0627-47.2281Q61.3259-47.9982 60.0608-47.9982ZM26.7499-33.7756Q25.4516-33.7756 24.7147-33.0376Q23.9779-32.2997 23.9779-31.0014L23.9779-25.5034Q23.9779-24.2206 24.7147-23.4671Q25.4516-22.7137 26.7499-22.7137L53.9062-22.7137Q55.1713-22.7137 55.9248-23.4671Q56.6782-24.2206 56.6782-25.5034L56.6782-31.0014Q56.6782-32.2997 55.9248-33.0376Q55.1713-33.7756 53.9062-33.7756ZM26.7499-19.5862Q25.4516-19.5862 24.7147-18.8161Q23.9779-18.046 23.9779-16.7299L23.9779-11.3141Q23.9779-10.0312 24.7147-9.24448Q25.4516-8.45771 26.7499-8.45771L43.1055-8.45771Q44.3705-8.45771 45.1317-9.24448Q45.893-10.0312 45.893-11.3141L45.893-16.7299Q45.893-18.046 45.1317-18.8161Q44.3705-19.5862 43.1055-19.5862ZM9.76562-6.71377Q9.76562-0.16875 13.1279 3.22686Q16.4902 6.62246 22.9687 6.62246L63.7422 6.62246Q70.2206 6.62246 73.5996 3.22686Q76.9785-0.16875 76.9785-6.71377L76.9785-63.763Q76.9785-70.2747 73.5996-73.687Q70.2206-77.0992 63.7422-77.0992L22.9687-77.0992Q16.4902-77.0992 13.1279-73.687Q9.76562-70.2747 9.76562-63.763ZM19.0639-7.49463L19.0639-62.9821Q19.0639-65.3238 20.2703-66.5624Q21.4767-67.801 23.9493-67.801L62.7948-67.801Q65.2497-67.801 66.4483-66.5624Q67.647-65.3238 67.647-62.9821L67.647-7.49463Q67.647-5.16846 66.4483-3.92212Q65.2497-2.67578 62.7948-2.67578L23.9493-2.67578Q21.4767-2.67578 20.2703-3.92212Q19.0639-5.16846 19.0639-7.49463Z"/>
  </g>
  <g id="Medium-S" transform="matrix(1 0 0 1 1703.66 696)">
   <path d="M25.7998-62.6387Q24.5352-62.6387 23.832-61.8755Q23.1289-61.1123 23.1289-59.8564L23.1289-54.1846Q23.1289-52.9287 23.832-52.1655Q24.5352-51.4023 25.7998-51.4023L48.0732-51.4023Q49.2979-51.4023 50.0254-52.1655Q50.7529-52.9287 50.7529-54.1846L50.7529-59.8564Q50.7529-61.1123 50.0254-61.8755Q49.2979-62.6387 48.0732-62.6387ZM25.7998-48.1465Q24.5352-48.1465 23.832-47.4033Q23.1289-46.6602 23.1289-45.4043L23.1289-39.6924Q23.1289-38.4277 23.832-37.689Q24.5352-36.9502 25.7998-36.9502L60.0811-36.9502Q61.3057-36.9502 62.0088-37.689Q62.7119-38.4277 62.7119-39.6924L62.7119-45.4043Q62.7119-46.6602 62.0088-47.4033Q61.3057-48.1465 60.0811-48.1465ZM25.7998-33.6543Q24.5352-33.6543 23.832-32.9399Q23.1289-32.2256 23.1289-30.9609L23.1289-25.2002Q23.1289-23.9443 23.832-23.2212Q24.5352-22.498 25.7998-22.498L53.9062-22.498Q55.1309-22.498 55.854-23.2212Q56.5771-23.9443 56.5771-25.2002L56.5771-30.9609Q56.5771-32.2256 55.854-32.9399Q55.1309-33.6543 53.9062-33.6543ZM25.7998-19.2021Q24.5352-19.2021 23.832-18.459Q23.1289-17.7158 23.1289-16.4199L23.1289-10.748Q23.1289-9.49219 23.832-8.729Q24.5352-7.96582 25.7998-7.96582L42.4316-7.96582Q43.6562-7.96582 44.3838-8.729Q45.1113-9.49219 45.1113-10.748L45.1113-16.4199Q45.1113-17.7158 44.3838-18.459Q43.6562-19.2021 42.4316-19.2021ZM9.76562-6.63965Q9.76562-0.222656 12.9932 3.04492Q16.2207 6.3125 22.5576 6.3125L63.2031 6.3125Q69.54 6.3125 72.7876 3.04492Q76.0352-0.222656 76.0352-6.63965L76.0352-63.8506Q76.0352-70.2275 72.7876-73.5151Q69.54-76.8027 63.2031-76.8027L22.5576-76.8027Q16.2207-76.8027 12.9932-73.5151Q9.76562-70.2275 9.76562-63.8506ZM18.0801-7.12402L18.0801-63.3662Q18.0801-65.8359 19.3774-67.1621Q20.6748-68.4883 23.2822-68.4883L62.5186-68.4883Q65.0947-68.4883 66.3877-67.1621Q67.6807-65.8359 67.6807-63.3662L67.6807-7.12402Q67.6807-4.66309 66.3877-3.33252Q65.0947-2.00195 62.5186-2.00195L23.2822-2.00195Q20.6748-2.00195 19.3774-3.33252Q18.0801-4.66309 18.0801-7.12402Z"/>
  </g>
  <g id="Regular-S" transform="matrix(1 0 0 1 1407.56 696)">
   <path d="M24.5605-63.1836Q23.3398-63.1836 22.6807-62.4512Q22.0215-61.7188 22.0215-60.498L22.0215-54.4922Q22.0215-53.2715 22.6807-52.5391Q23.3398-51.8066 24.5605-51.8066L47.6074-51.8066Q48.7793-51.8066 49.4629-52.5391Q50.1465-53.2715 50.1465-54.4922L50.1465-60.498Q50.1465-61.7188 49.4629-62.4512Q48.7793-63.1836 47.6074-63.1836ZM24.5605-48.3398Q23.3398-48.3398 22.6807-47.6318Q22.0215-46.9238 22.0215-45.7031L22.0215-39.6484Q22.0215-38.4277 22.6807-37.7197Q23.3398-37.0117 24.5605-37.0117L60.1074-37.0117Q61.2793-37.0117 61.9385-37.7197Q62.5977-38.4277 62.5977-39.6484L62.5977-45.7031Q62.5977-46.9238 61.9385-47.6318Q61.2793-48.3398 60.1074-48.3398ZM24.5605-33.4961Q23.3398-33.4961 22.6807-32.8125Q22.0215-32.1289 22.0215-30.9082L22.0215-24.8047Q22.0215-23.584 22.6807-22.9004Q23.3398-22.2168 24.5605-22.2168L53.9062-22.2168Q55.0781-22.2168 55.7617-22.9004Q56.4453-23.584 56.4453-24.8047L56.4453-30.9082Q56.4453-32.1289 55.7617-32.8125Q55.0781-33.4961 53.9062-33.4961ZM24.5605-18.7012Q23.3398-18.7012 22.6807-17.9932Q22.0215-17.2852 22.0215-16.0156L22.0215-10.0098Q22.0215-8.78906 22.6807-8.05664Q23.3398-7.32422 24.5605-7.32422L41.5527-7.32422Q42.7246-7.32422 43.4082-8.05664Q44.0918-8.78906 44.0918-10.0098L44.0918-16.0156Q44.0918-17.2852 43.4082-17.9932Q42.7246-18.7012 41.5527-18.7012ZM9.76562-6.54297Q9.76562-0.292969 12.8174 2.80762Q15.8691 5.9082 22.0215 5.9082L62.5 5.9082Q68.6523 5.9082 71.7285 2.80762Q74.8047-0.292969 74.8047-6.54297L74.8047-63.9648Q74.8047-70.166 71.7285-73.291Q68.6523-76.416 62.5-76.416L22.0215-76.416Q15.8691-76.416 12.8174-73.291Q9.76562-70.166 9.76562-63.9648ZM16.7969-6.64062L16.7969-63.8672Q16.7969-66.5039 18.2129-67.9443Q19.6289-69.3848 22.4121-69.3848L62.1582-69.3848Q64.8926-69.3848 66.3086-67.9443Q67.7246-66.5039 67.7246-63.8672L67.7246-6.64062Q67.7246-4.00391 66.3086-2.56348Q64.8926-1.12305 62.1582-1.12305L22.4121-1.12305Q19.6289-1.12305 18.2129-2.56348Q16.7969-4.00391 16.7969-6.64062Z"/>
  </g>
  <g id="Light-S" transform="matrix(1 0 0 1 1111.47 696)">
   <path d="M23.3192-63.9404Q22.1743-63.9404 21.5379-63.2459Q20.9015-62.5514 20.9015-61.3759L20.9015-54.689Q20.9015-53.5439 21.5379-52.8417Q22.1743-52.1395 23.3192-52.1395L47.108-52.1395Q48.2193-52.1395 48.865-52.8417Q49.5107-53.5439 49.5107-54.689L49.5107-61.3759Q49.5107-62.5514 48.865-63.2459Q48.2193-63.9404 47.108-63.9404ZM23.3192-48.7485Q22.1743-48.7485 21.5379-48.0708Q20.9015-47.393 20.9015-46.2329L20.9015-39.4971Q20.9015-38.3519 21.5379-37.6667Q22.1743-36.9815 23.3192-36.9815L60.0772-36.9815Q61.1885-36.9815 61.8249-37.6667Q62.4613-38.3519 62.4613-39.5121L62.4613-46.2329Q62.4613-47.393 61.8249-48.0708Q61.1885-48.7485 60.0772-48.7485ZM23.3192-33.5416Q22.1743-33.5416 21.5379-32.8807Q20.9015-32.2197 20.9015-31.0748L20.9015-24.3052Q20.9015-23.145 21.5379-22.4766Q22.1743-21.8081 23.3192-21.8081L53.6339-21.8081Q54.73-21.8081 55.3757-22.4766Q56.0214-23.145 56.0214-24.3052L56.0214-31.0748Q56.0214-32.2197 55.3757-32.8807Q54.73-33.5416 53.6339-33.5416ZM23.3192-18.3985Q22.1743-18.3985 21.5379-17.7132Q20.9015-17.0278 20.9015-15.834L20.9015-9.14688Q20.9015-8.00196 21.5379-7.2998Q22.1743-6.59765 23.3192-6.59765L40.8262-6.59765Q41.9223-6.59765 42.5756-7.2998Q43.2289-8.00196 43.2289-9.14688L43.2289-15.834Q43.2289-17.0278 42.5756-17.7132Q41.9223-18.3985 40.8262-18.3985ZM9.76562-5.96771Q9.76562-0.171916 12.6509 2.74709Q15.5362 5.6661 21.2646 5.6661L62.0308 5.6661Q67.7745 5.6661 70.6689 2.74709Q73.5634-0.171916 73.5634-5.96771L73.5634-64.4796Q73.5634-70.2418 70.6689-73.1776Q67.7745-76.1134 62.0308-76.1134L21.2646-76.1134Q15.5362-76.1134 12.6509-73.1776Q9.76562-70.2418 9.76562-64.4796ZM15.1924-6.06537L15.1924-64.3819Q15.1924-67.4273 16.7976-69.057Q18.4029-70.6866 21.5645-70.6866L61.7645-70.6866Q64.8926-70.6866 66.5054-69.057Q68.1183-67.4273 68.1183-64.3819L68.1183-6.06537Q68.1183-3.01997 66.5054-1.39033Q64.8926 0.239309 61.7645 0.239309L21.5645 0.239309Q18.4029 0.239309 16.7976-1.39033Q15.1924-3.01997 15.1924-6.06537Z"/>
  </g>
  <g id="Thin-S" transform="matrix(1 0 0 1 815.578 696)">
   <path d="M21.6775-64.9414Q20.6328-64.9414 20.0265-64.297Q19.4202-63.6526 19.4202-62.537L19.4202-54.9494Q19.4202-53.9041 20.0265-53.242Q20.6328-52.5798 21.6775-52.5798L46.4474-52.5798Q47.4787-52.5798 48.0742-53.242Q48.6698-53.9041 48.6698-54.9494L48.6698-62.537Q48.6698-63.6526 48.0742-64.297Q47.4787-64.9414 46.4474-64.9414ZM21.6775-49.289Q20.6328-49.289 20.0265-48.6513Q19.4202-48.0136 19.4202-46.9335L19.4202-39.297Q19.4202-38.2517 20.0265-37.5966Q20.6328-36.9414 21.6775-36.9414L60.0371-36.9414Q61.0684-36.9414 61.6747-37.5966Q62.2811-38.2517 62.2811-39.3318L62.2811-46.9335Q62.2811-48.0136 61.6747-48.6513Q61.0684-49.289 60.0371-49.289ZM21.6775-33.6018Q20.6328-33.6018 20.0265-32.9708Q19.4202-32.3398 19.4202-31.2951L19.4202-23.6446Q19.4202-22.5645 20.0265-21.9161Q20.6328-21.2676 21.6775-21.2676L53.2737-21.2676Q54.2695-21.2676 54.8651-21.9161Q55.4607-22.5645 55.4607-23.6446L55.4607-31.2951Q55.4607-32.3398 54.8651-32.9708Q54.2695-33.6018 53.2737-33.6018ZM21.6775-17.9983Q20.6328-17.9983 20.0265-17.3428Q19.4202-16.6874 19.4202-15.5939L19.4202-8.00565Q19.4202-6.96096 20.0265-6.29883Q20.6328-5.6367 21.6775-5.6367L39.8652-5.6367Q40.8611-5.6367 41.4744-6.29883Q42.0877-6.96096 42.0877-8.00565L42.0877-15.5939Q42.0877-16.6874 41.4744-17.3428Q40.8611-17.9983 39.8652-17.9983ZM9.76562-5.20689Q9.76562-0.0118133 12.4308 2.66704Q15.096 5.34589 20.2637 5.34589L61.4102 5.34589Q66.6134 5.34589 69.2675 2.66704Q71.9217-0.0118133 71.9217-5.20689L71.9217-65.1603Q71.9217-70.342 69.2675-73.0276Q66.6134-75.7131 61.4102-75.7131L20.2637-75.7131Q15.096-75.7131 12.4308-73.0276Q9.76562-70.342 9.76562-65.1603ZM13.0704-5.30455L13.0704-65.0627Q13.0704-68.6486 14.9259-70.5285Q16.7813-72.4084 20.4434-72.4084L61.2439-72.4084Q64.8926-72.4084 66.7658-70.5285Q68.639-68.6486 68.639-65.0627L68.639-5.30455Q68.639-1.71863 66.7658 0.161251Q64.8926 2.04113 61.2439 2.04113L20.4434 2.04113Q16.7813 2.04113 14.9259 0.161251Q13.0704-1.71863 13.0704-5.30455Z"/>
  </g>
  <g id="Ultralight-S" transform="matrix(1 0 0 1 519.288 696)">
   <path d="M20.8366-65.4541Q19.8433-65.4541 19.2524-64.8354Q18.6615-64.2166 18.6615-63.1317L18.6615-55.0827Q18.6615-54.0886 19.2524-53.447Q19.8433-52.8053 20.8366-52.8053L46.109-52.8053Q47.0993-52.8053 47.6692-53.447Q48.2391-54.0886 48.2391-55.0827L48.2391-63.1317Q48.2391-64.2166 47.6692-64.8354Q47.0993-65.4541 46.109-65.4541ZM20.8366-49.5659Q19.8433-49.5659 19.2524-48.9487Q18.6615-48.3315 18.6615-47.2923L18.6615-39.1945Q18.6615-38.2004 19.2524-37.5607Q19.8433-36.9209 20.8366-36.9209L60.0166-36.9209Q61.0069-36.9209 61.5978-37.5607Q62.1887-38.2004 62.1887-39.2395L62.1887-47.2923Q62.1887-48.3315 61.5978-48.9487Q61.0069-49.5659 60.0166-49.5659ZM20.8366-33.6327Q19.8433-33.6327 19.2524-33.017Q18.6615-32.4013 18.6615-31.4079L18.6615-23.3063Q18.6615-22.2672 19.2524-21.629Q19.8433-20.9908 20.8366-20.9908L53.0891-20.9908Q54.0337-20.9908 54.6036-21.629Q55.1735-22.2672 55.1735-23.3063L55.1735-31.4079Q55.1735-32.4013 54.6036-33.017Q54.0337-33.6327 53.0891-33.6327ZM20.8366-17.7933Q19.8433-17.7933 19.2524-17.1532Q18.6615-16.5131 18.6615-15.4709L18.6615-7.42111Q18.6615-6.42776 19.2524-5.78613Q19.8433-5.1445 20.8366-5.1445L39.373-5.1445Q40.3175-5.1445 40.9103-5.78613Q41.5031-6.42776 41.5031-7.42111L41.5031-15.4709Q41.5031-16.5131 40.9103-17.1532Q40.3175-17.7933 39.373-17.7933ZM9.76562-4.8172Q9.76562 0.0701904 12.318 2.62604Q14.8705 5.18188 19.751 5.18188L61.0924 5.18188Q66.0187 5.18188 68.5497 2.62604Q71.0808 0.0701904 71.0808-4.8172L71.0808-65.509Q71.0808-70.3934 68.5497-72.9507Q66.0187-75.5081 61.0924-75.5081L19.751-75.5081Q14.8705-75.5081 12.318-72.9507Q9.76562-70.3934 9.76562-65.509ZM11.9835-4.91486L11.9835-65.4114Q11.9835-69.2741 13.9671-71.2822Q15.9508-73.2903 19.8692-73.2903L60.9772-73.2903Q64.8926-73.2903 66.8991-71.2822Q68.9056-69.2741 68.9056-65.4114L68.9056-4.91486Q68.9056-1.05209 66.8991 0.955963Q64.8926 2.96402 60.9772 2.96402L19.8692 2.96402Q15.9508 2.96402 13.9671 0.955963Q11.9835-1.05209 11.9835-4.91486Z"/>
  </g>
 </g>
</svg>
