<?xml version="1.0" encoding="UTF-8"?>
<!--Generator: Apple Native CoreSVG 175-->
<!DOCTYPE svg
PUBLIC "-//W3C//DTD SVG 1.1//EN"
       "http://www.w3.org/Graphics/SVG/1.1/DTD/svg11.dtd">
<svg version="1.1" xmlns="http://www.w3.org/2000/svg" xmlns:xlink="http://www.w3.org/1999/xlink" width="3300" height="2200">
 <!--glyph: "uni1006ED.medium", point size: 100.0, font version: "17.1d1e1", template writer version: "65.1"-->
 <g id="Notes">
  <rect height="2200" id="artboard" style="fill:white;opacity:1" width="3300" x="0" y="0"/>
  <line style="fill:none;stroke:black;opacity:1;stroke-width:0.5;" x1="263" x2="3036" y1="292" y2="292"/>
  <text style="stroke:none;fill:black;font-family:sans-serif;font-size:13;font-weight:bold;" transform="matrix(1 0 0 1 263 322)">Weight/Scale Variations</text>
  <text style="stroke:none;fill:black;font-family:sans-serif;font-size:13;text-anchor:middle;" transform="matrix(1 0 0 1 559.711 322)">Ultralight</text>
  <text style="stroke:none;fill:black;font-family:sans-serif;font-size:13;text-anchor:middle;" transform="matrix(1 0 0 1 856.422 322)">Thin</text>
  <text style="stroke:none;fill:black;font-family:sans-serif;font-size:13;text-anchor:middle;" transform="matrix(1 0 0 1 1153.13 322)">Light</text>
  <text style="stroke:none;fill:black;font-family:sans-serif;font-size:13;text-anchor:middle;" transform="matrix(1 0 0 1 1449.84 322)">Regular</text>
  <text style="stroke:none;fill:black;font-family:sans-serif;font-size:13;text-anchor:middle;" transform="matrix(1 0 0 1 1746.56 322)">Medium</text>
  <text style="stroke:none;fill:black;font-family:sans-serif;font-size:13;text-anchor:middle;" transform="matrix(1 0 0 1 2043.27 322)">Semibold</text>
  <text style="stroke:none;fill:black;font-family:sans-serif;font-size:13;text-anchor:middle;" transform="matrix(1 0 0 1 2339.98 322)">Bold</text>
  <text style="stroke:none;fill:black;font-family:sans-serif;font-size:13;text-anchor:middle;" transform="matrix(1 0 0 1 2636.69 322)">Heavy</text>
  <text style="stroke:none;fill:black;font-family:sans-serif;font-size:13;text-anchor:middle;" transform="matrix(1 0 0 1 2933.4 322)">Black</text>
  <line style="fill:none;stroke:black;opacity:1;stroke-width:0.5;" x1="263" x2="3036" y1="1903" y2="1903"/>
  <g transform="matrix(1 0 0 1 263 1933)">
   <path d="M9.24805 0.830078Q10.8691 0.830078 12.2949 0.214844Q13.7207-0.400391 14.8096-1.49414Q15.8984-2.58789 16.5186-4.01367Q17.1387-5.43945 17.1387-7.05078Q17.1387-8.66211 16.5186-10.0879Q15.8984-11.5137 14.8047-12.6074Q13.7109-13.7012 12.2852-14.3164Q10.8594-14.9316 9.23828-14.9316Q7.62695-14.9316 6.20117-14.3164Q4.77539-13.7012 3.69141-12.6074Q2.60742-11.5137 1.9873-10.0879Q1.36719-8.66211 1.36719-7.05078Q1.36719-5.43945 1.9873-4.01367Q2.60742-2.58789 3.69629-1.49414Q4.78516-0.400391 6.21094 0.214844Q7.63672 0.830078 9.24805 0.830078ZM9.24805-0.654297Q7.91992-0.654297 6.7627-1.14746Q5.60547-1.64062 4.73145-2.51953Q3.85742-3.39844 3.36426-4.56055Q2.87109-5.72266 2.87109-7.05078Q2.87109-8.37891 3.35938-9.54102Q3.84766-10.7031 4.72168-11.582Q5.5957-12.4609 6.75293-12.9541Q7.91016-13.4473 9.23828-13.4473Q10.5762-13.4473 11.7334-12.9541Q12.8906-12.4609 13.7695-11.582Q14.6484-10.7031 15.1465-9.54102Q15.6445-8.37891 15.6445-7.05078Q15.6445-5.72266 15.1514-4.56055Q14.6582-3.39844 13.7842-2.51953Q12.9102-1.64062 11.748-1.14746Q10.5859-0.654297 9.24805-0.654297ZM5.6543-7.05078Q5.6543-6.72852 5.85938-6.52832Q6.06445-6.32812 6.40625-6.32812L8.51562-6.32812L8.51562-4.20898Q8.51562-3.88672 8.71094-3.67676Q8.90625-3.4668 9.23828-3.4668Q9.56055-3.4668 9.77051-3.67676Q9.98047-3.88672 9.98047-4.20898L9.98047-6.32812L12.0898-6.32812Q12.4219-6.32812 12.627-6.52832Q12.832-6.72852 12.832-7.05078Q12.832-7.38281 12.627-7.58789Q12.4219-7.79297 12.0898-7.79297L9.98047-7.79297L9.98047-9.90234Q9.98047-10.2344 9.77051-10.4443Q9.56055-10.6543 9.23828-10.6543Q8.90625-10.6543 8.71094-10.4443Q8.51562-10.2344 8.51562-9.90234L8.51562-7.79297L6.40625-7.79297Q6.06445-7.79297 5.85938-7.58789Q5.6543-7.38281 5.6543-7.05078Z"/>
  </g>
  <g transform="matrix(1 0 0 1 281.867 1933)">
   <path d="M11.709 2.91016Q13.75 2.91016 15.5518 2.12891Q17.3535 1.34766 18.7305-0.0292969Q20.1074-1.40625 20.8887-3.20801Q21.6699-5.00977 21.6699-7.05078Q21.6699-9.0918 20.8887-10.8936Q20.1074-12.6953 18.7305-14.0723Q17.3535-15.4492 15.5469-16.2305Q13.7402-17.0117 11.6992-17.0117Q9.6582-17.0117 7.85645-16.2305Q6.05469-15.4492 4.68262-14.0723Q3.31055-12.6953 2.5293-10.8936Q1.74805-9.0918 1.74805-7.05078Q1.74805-5.00977 2.5293-3.20801Q3.31055-1.40625 4.6875-0.0292969Q6.06445 1.34766 7.86621 2.12891Q9.66797 2.91016 11.709 2.91016ZM11.709 1.25Q9.98047 1.25 8.47656 0.605469Q6.97266-0.0390625 5.83496-1.17676Q4.69727-2.31445 4.05762-3.81836Q3.41797-5.32227 3.41797-7.05078Q3.41797-8.7793 4.05762-10.2832Q4.69727-11.7871 5.83008-12.9297Q6.96289-14.0723 8.4668-14.7119Q9.9707-15.3516 11.6992-15.3516Q13.4277-15.3516 14.9316-14.7119Q16.4355-14.0723 17.5781-12.9297Q18.7207-11.7871 19.3652-10.2832Q20.0098-8.7793 20.0098-7.05078Q20.0098-5.32227 19.3701-3.81836Q18.7305-2.31445 17.5928-1.17676Q16.4551-0.0390625 14.9463 0.605469Q13.4375 1.25 11.709 1.25ZM7.17773-7.05078Q7.17773-6.69922 7.41211-6.47461Q7.64648-6.25 8.01758-6.25L10.8887-6.25L10.8887-3.36914Q10.8887-2.99805 11.1133-2.76855Q11.3379-2.53906 11.6895-2.53906Q12.0605-2.53906 12.29-2.76855Q12.5195-2.99805 12.5195-3.36914L12.5195-6.25L15.4004-6.25Q15.7715-6.25 16.001-6.47461Q16.2305-6.69922 16.2305-7.05078Q16.2305-7.42188 16.001-7.65137Q15.7715-7.88086 15.4004-7.88086L12.5195-7.88086L12.5195-10.752Q12.5195-11.1328 12.29-11.3623Q12.0605-11.5918 11.6895-11.5918Q11.3379-11.5918 11.1133-11.3574Q10.8887-11.123 10.8887-10.752L10.8887-7.88086L8.01758-7.88086Q7.63672-7.88086 7.40723-7.65137Q7.17773-7.42188 7.17773-7.05078Z"/>
  </g>
  <g transform="matrix(1 0 0 1 305.646 1933)">
   <path d="M14.9707 5.66406Q17.0605 5.66406 18.96 5.01465Q20.8594 4.36523 22.4512 3.19336Q24.043 2.02148 25.2197 0.429688Q26.3965-1.16211 27.0459-3.06641Q27.6953-4.9707 27.6953-7.05078Q27.6953-9.14062 27.0459-11.04Q26.3965-12.9395 25.2197-14.5312Q24.043-16.123 22.4512-17.2998Q20.8594-18.4766 18.9551-19.126Q17.0508-19.7754 14.9609-19.7754Q12.8711-19.7754 10.9717-19.126Q9.07227-18.4766 7.48535-17.2998Q5.89844-16.123 4.72168-14.5312Q3.54492-12.9395 2.90039-11.04Q2.25586-9.14062 2.25586-7.05078Q2.25586-4.9707 2.90527-3.06641Q3.55469-1.16211 4.72656 0.429688Q5.89844 2.02148 7.49023 3.19336Q9.08203 4.36523 10.9814 5.01465Q12.8809 5.66406 14.9707 5.66406ZM14.9707 3.84766Q13.1641 3.84766 11.5283 3.2959Q9.89258 2.74414 8.53516 1.74805Q7.17773 0.751953 6.17676-0.610352Q5.17578-1.97266 4.62891-3.6084Q4.08203-5.24414 4.08203-7.05078Q4.08203-8.86719 4.62891-10.5029Q5.17578-12.1387 6.17188-13.501Q7.16797-14.8633 8.52539-15.8594Q9.88281-16.8555 11.5186-17.4023Q13.1543-17.9492 14.9609-17.9492Q16.7773-17.9492 18.4131-17.4023Q20.0488-16.8555 21.4111-15.8594Q22.7734-14.8633 23.7695-13.501Q24.7656-12.1387 25.3174-10.5029Q25.8691-8.86719 25.8691-7.05078Q25.8789-5.24414 25.332-3.6084Q24.7852-1.97266 23.7842-0.610352Q22.7832 0.751953 21.4209 1.74805Q20.0586 2.74414 18.4229 3.2959Q16.7871 3.84766 14.9707 3.84766ZM9.19922-7.05078Q9.19922-6.66992 9.45801-6.4209Q9.7168-6.17188 10.1172-6.17188L14.0625-6.17188L14.0625-2.2168Q14.0625-1.81641 14.3115-1.55762Q14.5605-1.29883 14.9512-1.29883Q15.3516-1.29883 15.6104-1.55273Q15.8691-1.80664 15.8691-2.2168L15.8691-6.17188L19.8242-6.17188Q20.2246-6.17188 20.4785-6.4209Q20.7324-6.66992 20.7324-7.05078Q20.7324-7.46094 20.4785-7.71484Q20.2246-7.96875 19.8242-7.96875L15.8691-7.96875L15.8691-11.9141Q15.8691-12.3242 15.6104-12.583Q15.3516-12.8418 14.9512-12.8418Q14.5605-12.8418 14.3115-12.583Q14.0625-12.3242 14.0625-11.9141L14.0625-7.96875L10.1172-7.96875Q9.70703-7.96875 9.45312-7.71484Q9.19922-7.46094 9.19922-7.05078Z"/>
  </g>
  <text style="stroke:none;fill:black;font-family:sans-serif;font-size:13;font-weight:bold;" transform="matrix(1 0 0 1 263 1953)">Design Variations</text>
  <text style="stroke:none;fill:black;font-family:sans-serif;font-size:13;" transform="matrix(1 0 0 1 263 1971)">Symbols are supported in up to nine weights and three scales.</text>
  <text style="stroke:none;fill:black;font-family:sans-serif;font-size:13;" transform="matrix(1 0 0 1 263 1989)">For optimal layout with text and other symbols, vertically align</text>
  <text style="stroke:none;fill:black;font-family:sans-serif;font-size:13;" transform="matrix(1 0 0 1 263 2007)">symbols with the adjacent text.</text>
  <line style="fill:none;stroke:#00AEEF;stroke-width:0.5;opacity:1.0;" x1="776" x2="776" y1="1919" y2="1933"/>
  <g transform="matrix(1 0 0 1 776 1933)">
   <path d="M3.31055 0.15625Q3.70117 0.15625 3.91602-0.00976562Q4.13086-0.175781 4.26758-0.585938L5.52734-4.0332L11.2891-4.0332L12.5488-0.585938Q12.6855-0.175781 12.9004-0.00976562Q13.1152 0.15625 13.4961 0.15625Q13.8867 0.15625 14.1162-0.0585938Q14.3457-0.273438 14.3457-0.644531Q14.3457-0.869141 14.2383-1.17188L9.6582-13.3691Q9.48242-13.8184 9.17969-14.043Q8.87695-14.2676 8.4082-14.2676Q7.5-14.2676 7.17773-13.3789L2.59766-1.16211Q2.49023-0.859375 2.49023-0.634766Q2.49023-0.263672 2.70996-0.0537109Q2.92969 0.15625 3.31055 0.15625ZM6.00586-5.51758L8.37891-12.0898L8.42773-12.0898L10.8008-5.51758Z"/>
  </g>
  <line style="fill:none;stroke:#00AEEF;stroke-width:0.5;opacity:1.0;" x1="793.197" x2="793.197" y1="1919" y2="1933"/>
  <text style="stroke:none;fill:black;font-family:sans-serif;font-size:13;font-weight:bold;" transform="matrix(1 0 0 1 776 1953)">Margins</text>
  <text style="stroke:none;fill:black;font-family:sans-serif;font-size:13;" transform="matrix(1 0 0 1 776 1971)">Leading and trailing margins on the left and right side of each symbol</text>
  <text style="stroke:none;fill:black;font-family:sans-serif;font-size:13;" transform="matrix(1 0 0 1 776 1989)">can be adjusted by modifying the x-location of the margin guidelines.</text>
  <text style="stroke:none;fill:black;font-family:sans-serif;font-size:13;" transform="matrix(1 0 0 1 776 2007)">Modifications are automatically applied proportionally to all</text>
  <text style="stroke:none;fill:black;font-family:sans-serif;font-size:13;" transform="matrix(1 0 0 1 776 2025)">scales and weights.</text>
  <g transform="matrix(1 0 0 1 1289 1933)">
   <path d="M2.8418 1.86523L4.54102 3.57422Q5.18555 4.22852 5.90332 4.17969Q6.62109 4.13086 7.31445 3.35938L18.0078-8.42773L17.041-9.4043L6.42578 2.27539Q6.16211 2.57812 5.89355 2.61719Q5.625 2.65625 5.27344 2.30469L4.10156 1.14258Q3.75 0.791016 3.79395 0.522461Q3.83789 0.253906 4.14062-0.0195312L15.6152-10.8203L14.6387-11.7871L3.04688-0.898438Q2.30469-0.214844 2.25098 0.498047Q2.19727 1.21094 2.8418 1.86523ZM9.25781-16.3281Q8.94531-16.0254 8.90625-15.6348Q8.86719-15.2441 9.04297-14.9512Q9.21875-14.6777 9.55566-14.541Q9.89258-14.4043 10.3809-14.5215Q11.4746-14.7754 12.5977-14.7314Q13.7207-14.6875 14.7949-13.9844L14.209-12.5293Q13.9551-11.9043 14.0674-11.4404Q14.1797-10.9766 14.5801-10.5664L16.875-8.25195Q17.2363-7.88086 17.5781-7.82227Q17.9199-7.76367 18.3398-7.8418L19.4043-8.03711L20.0684-7.36328L20.0293-6.80664Q20-6.43555 20.1221-6.12305Q20.2441-5.81055 20.6055-5.44922L21.3672-4.70703Q21.7285-4.3457 22.1533-4.33105Q22.5781-4.31641 22.9297-4.66797L25.8398-7.58789Q26.1914-7.93945 26.1816-8.35449Q26.1719-8.76953 25.8105-9.13086L25.0391-9.89258Q24.6875-10.2539 24.3799-10.3857Q24.0723-10.5176 23.7109-10.4883L23.1348-10.4395L22.4902-11.0742L22.7344-12.1973Q22.832-12.6172 22.6953-12.9834Q22.5586-13.3496 22.1191-13.7891L19.9219-15.9766Q18.6719-17.2168 17.2607-17.8369Q15.8496-18.457 14.4189-18.4814Q12.9883-18.5059 11.665-17.959Q10.3418-17.4121 9.25781-16.3281ZM10.752-15.957Q11.6602-16.6211 12.7002-16.9043Q13.7402-17.1875 14.8047-17.085Q15.8691-16.9824 16.8701-16.5137Q17.8711-16.0449 18.7012-15.2051L21.1328-12.793Q21.3086-12.6172 21.3525-12.4512Q21.3965-12.2852 21.3379-12.0312L21.0156-10.5469L22.5195-9.0625L23.5059-9.12109Q23.6914-9.13086 23.7891-9.09668Q23.8867-9.0625 24.0332-8.91602L24.6094-8.33984L22.168-5.89844L21.5918-6.47461Q21.4453-6.62109 21.4062-6.71875Q21.3672-6.81641 21.377-7.01172L21.4453-7.98828L19.9512-9.47266L18.4277-9.21875Q18.1836-9.16992 18.042-9.2041Q17.9004-9.23828 17.7148-9.41406L15.7129-11.416Q15.5176-11.5918 15.4932-11.7529Q15.4688-11.9141 15.5859-12.1875L16.4648-14.2773Q15.293-15.3711 13.8281-15.791Q12.3633-16.2109 10.8398-15.7617Q10.7227-15.7324 10.6885-15.8057Q10.6543-15.8789 10.752-15.957Z"/>
  </g>
  <text style="stroke:none;fill:black;font-family:sans-serif;font-size:13;font-weight:bold;" transform="matrix(1 0 0 1 1289 1953)">Exporting</text>
  <text style="stroke:none;fill:black;font-family:sans-serif;font-size:13;" transform="matrix(1 0 0 1 1289 1971)">Symbols should be outlined when exporting to ensure the</text>
  <text style="stroke:none;fill:black;font-family:sans-serif;font-size:13;" transform="matrix(1 0 0 1 1289 1989)">design is preserved when submitting to Xcode.</text>
  <text id="template-version" style="stroke:none;fill:black;font-family:sans-serif;font-size:13;text-anchor:end;" transform="matrix(1 0 0 1 3036 1933)">Template v.2.0</text>
  <text style="stroke:none;fill:black;font-family:sans-serif;font-size:13;text-anchor:end;" transform="matrix(1 0 0 1 3036 1951)">Requires Xcode 12 or greater</text>
  <text id="descriptive-name" style="stroke:none;fill:black;font-family:sans-serif;font-size:13;text-anchor:end;" transform="matrix(1 0 0 1 3036 1969)">Generated from lightbulb</text>
  <text style="stroke:none;fill:black;font-family:sans-serif;font-size:13;text-anchor:end;" transform="matrix(1 0 0 1 3036 1987)">Typeset at 100 points</text>
  <text style="stroke:none;fill:black;font-family:sans-serif;font-size:13;" transform="matrix(1 0 0 1 263 726)">Small</text>
  <text style="stroke:none;fill:black;font-family:sans-serif;font-size:13;" transform="matrix(1 0 0 1 263 1156)">Medium</text>
  <text style="stroke:none;fill:black;font-family:sans-serif;font-size:13;" transform="matrix(1 0 0 1 263 1586)">Large</text>
 </g>
 <g id="Guides">
  <g id="H-reference" style="fill:#27AAE1;stroke:none;" transform="matrix(1 0 0 1 339 696)">
   <path d="M0.993347 0L3.6377 0L29.3282-67.1326L30.0301-67.1326L30.0301-70.459L28.1227-70.459ZM11.6882-24.4797L46.9818-24.4797L46.2311-26.7288L12.4382-26.7288ZM55.1193 0L57.7637 0L30.6381-70.459L29.4327-70.459L29.4327-67.1326Z"/>
  </g>
  <line id="Baseline-S" style="fill:none;stroke:#27AAE1;opacity:1;stroke-width:0.5;" x1="263" x2="3036" y1="696" y2="696"/>
  <line id="Capline-S" style="fill:none;stroke:#27AAE1;opacity:1;stroke-width:0.5;" x1="263" x2="3036" y1="625.541" y2="625.541"/>
  <g id="H-reference" style="fill:#27AAE1;stroke:none;" transform="matrix(1 0 0 1 339 1126)">
   <path d="M0.993347 0L3.6377 0L29.3282-67.1326L30.0301-67.1326L30.0301-70.459L28.1227-70.459ZM11.6882-24.4797L46.9818-24.4797L46.2311-26.7288L12.4382-26.7288ZM55.1193 0L57.7637 0L30.6381-70.459L29.4327-70.459L29.4327-67.1326Z"/>
  </g>
  <line id="Baseline-M" style="fill:none;stroke:#27AAE1;opacity:1;stroke-width:0.5;" x1="263" x2="3036" y1="1126" y2="1126"/>
  <line id="Capline-M" style="fill:none;stroke:#27AAE1;opacity:1;stroke-width:0.5;" x1="263" x2="3036" y1="1055.54" y2="1055.54"/>
  <g id="H-reference" style="fill:#27AAE1;stroke:none;" transform="matrix(1 0 0 1 339 1556)">
   <path d="M0.993347 0L3.6377 0L29.3282-67.1326L30.0301-67.1326L30.0301-70.459L28.1227-70.459ZM11.6882-24.4797L46.9818-24.4797L46.2311-26.7288L12.4382-26.7288ZM55.1193 0L57.7637 0L30.6381-70.459L29.4327-70.459L29.4327-67.1326Z"/>
  </g>
  <line id="Baseline-L" style="fill:none;stroke:#27AAE1;opacity:1;stroke-width:0.5;" x1="263" x2="3036" y1="1556" y2="1556"/>
  <line id="Capline-L" style="fill:none;stroke:#27AAE1;opacity:1;stroke-width:0.5;" x1="263" x2="3036" y1="1485.54" y2="1485.54"/>
  <line id="left-margin" style="fill:none;stroke:#00AEEF;stroke-width:0.5;opacity:1.0;" x1="1393.87" x2="1393.87" y1="1030.79" y2="1150.12"/>
  <line id="right-margin" style="fill:none;stroke:#00AEEF;stroke-width:0.5;opacity:1.0;" x1="1505.82" x2="1505.82" y1="1030.79" y2="1150.12"/>
 </g>
 <g id="Symbols">
  <g id="Black-L" transform="matrix(1 0 0 1 2856.18 1556)">
   <path d="M52.4228 6.43979L102.026 6.43979Q104.966 6.43979 106.819 4.60577Q108.671 2.77175 108.671-0.0917802L108.671-8.48299Q108.671-13.0383 110.973-17.0774Q113.276-21.1165 116.703-25.382Q120.13-29.6474 123.539-34.8125Q126.947-39.9777 129.239-46.6151Q131.531-53.2526 131.531-62.1835Q131.531-78.1064 124.667-90.1612Q117.803-102.216 105.589-109.002Q93.3758-115.787 77.2349-115.787Q61.1318-115.787 48.8896-109.002Q36.6474-102.216 29.7826-90.1612Q22.9178-78.1064 22.9178-62.1835Q22.9178-53.2526 25.2105-46.6151Q27.5031-39.9777 30.9113-34.8125Q34.3195-29.6474 37.7465-25.382Q41.1735-21.1165 43.4765-17.0774Q45.7795-13.0383 45.7795-8.48299L45.7795-0.0917802Q45.7795 2.77175 47.6317 4.60577Q49.484 6.43979 52.4228 6.43979ZM61.7927 3.18342Q61.7927-0.836119 61.7927-3.3176Q61.7927-5.79908 61.7927-9.62267Q61.7927-15.9322 59.4903-20.9904Q57.1879-26.0487 53.8297-30.5762Q50.4715-35.1037 47.073-39.7406Q43.6746-44.3776 41.3826-49.8025Q39.0905-55.2274 39.0905-62.1822Q39.0905-73.4629 43.854-81.8647Q48.6175-90.2664 57.1964-94.9112Q65.7753-99.556 77.2349-99.556Q88.7323-99.556 97.293-94.9112Q105.854-90.2664 110.606-81.8647Q115.359-73.4629 115.359-62.1822Q115.359-55.2274 113.067-49.8025Q110.775-44.3776 107.406-39.7406Q104.037-35.1037 100.649-30.5762Q97.2612-26.0487 94.9692-20.9904Q92.6772-15.9322 92.6772-9.62267Q92.6772-5.62386 92.6772-2.85035Q92.6772-0.0768339 92.6772 3.18342L103.469-8.91524L50.9803-8.91524ZM77.2337 43.5906Q85.4558 43.5906 90.8336 40.0783Q96.2114 36.5659 96.7511 30.8787L57.7188 30.8787Q58.2948 36.5659 63.6143 40.0783Q68.9337 43.5906 77.2337 43.5906ZM52.6367 25.9499L101.811 25.9499Q104.897 25.9499 107.028 23.7309Q109.159 21.5118 109.159 18.6592Q109.159 15.7275 107.028 13.5377Q104.897 11.3479 101.811 11.3479L52.6367 11.3479Q49.6296 11.3479 47.4703 13.5377Q45.311 15.7275 45.311 18.6592Q45.311 21.5118 47.4703 23.7309Q49.6296 25.9499 52.6367 25.9499Z"/>
  </g>
  <g id="Heavy-L" transform="matrix(1 0 0 1 2560.73 1556)">
   <path d="M51.6942 5.45823L100.229 5.45823Q102.836 5.45823 104.455 3.84377Q106.074 2.22931 106.074-0.315337L106.074-9.0508Q106.074-13.6356 108.367-17.7077Q110.661-21.7797 114.061-26.0571Q117.461-30.3344 120.857-35.4724Q124.253-40.6105 126.531-47.1707Q128.81-53.7308 128.81-62.5025Q128.81-78.0333 122.151-89.7744Q115.492-101.515 103.6-108.103Q91.7068-114.69 75.9766-114.69Q60.2612-114.69 48.349-108.103Q36.4369-101.515 29.7751-89.7744Q23.1132-78.0333 23.1132-62.5025Q23.1132-53.7308 25.3949-47.1707Q27.6766-40.6105 31.0694-35.4724Q34.4621-30.3344 37.8622-26.0571Q41.2623-21.7797 43.5589-17.7077Q45.8555-13.6356 45.8555-9.0508L45.8555-0.315337Q45.8555 2.22931 47.4744 3.84377Q49.0933 5.45823 51.6942 5.45823ZM60.1641 2.00205Q60.1641-1.59401 60.1641-4.01943Q60.1641-6.44485 60.1641-9.87727Q60.1641-16.0124 57.8705-20.9998Q55.577-25.9872 52.2363-30.5222Q48.8957-35.0573 45.5149-39.7551Q42.134-44.4529 39.8553-49.9595Q37.5766-55.4661 37.5766-62.4965Q37.5766-73.8579 42.3755-82.3328Q47.1744-90.8077 55.8055-95.495Q64.4366-100.182 75.9766-100.182Q87.5313-100.182 96.158-95.495Q104.785-90.8077 109.566-82.3328Q114.347-73.8579 114.347-62.4965Q114.347-55.4661 112.068-49.9595Q109.789-44.4529 106.434-39.7551Q103.078-35.0573 99.7123-30.5222Q96.3464-25.9872 94.0677-20.9998Q91.789-16.0124 91.789-9.87727Q91.789-6.31098 91.789-3.66245Q91.789-1.01391 91.789 2.00205L101.154-8.38046L50.7693-8.38046ZM75.9705 41.3161Q83.7782 41.3161 88.882 37.981Q93.9859 34.6459 94.507 29.2443L57.4461 29.2443Q57.9761 34.6459 63.0353 37.981Q68.0945 41.3161 75.9705 41.3161ZM52.4143 24.2703L99.503 24.2703Q102.418 24.2703 104.439 22.1789Q106.461 20.0875 106.461 17.3513Q106.461 14.5407 104.439 12.4716Q102.418 10.4025 99.503 10.4025L52.4143 10.4025Q49.574 10.4025 47.5333 12.4716Q45.4925 14.5407 45.4925 17.3513Q45.4925 20.0875 47.5333 22.1789Q49.574 24.2703 52.4143 24.2703Z"/>
  </g>
  <g id="Bold-L" transform="matrix(1 0 0 1 2265.59 1556)">
   <path d="M50.8302 4.39188L97.9482 4.39188Q100.139 4.39188 101.473 3.04749Q102.806 1.7031 102.806-0.450293L102.806-9.47875Q102.806-14.131 105.097-18.2558Q107.388-22.3807 110.771-26.6785Q114.154-30.9763 117.548-36.0926Q120.942-41.2089 123.214-47.6986Q125.487-54.1882 125.487-62.8105Q125.487-77.8739 119.074-89.241Q112.66-100.608 101.154-106.962Q89.6469-113.317 74.4077-113.317Q59.1607-113.317 47.6465-106.962Q36.1324-100.608 29.712-89.241Q23.2915-77.8739 23.2915-62.8105Q23.2915-54.1882 25.5711-47.6986Q27.8506-41.2089 31.2375-36.0926Q34.6244-30.9763 38.0075-26.6785Q41.3905-22.3807 43.6885-18.2558Q45.9866-14.131 45.9866-9.47875L45.9866-0.450293Q45.9866 1.7031 47.3199 3.04749Q48.6533 4.39188 50.8302 4.39188ZM58.1322 0.841692Q58.1322-2.26625 58.1322-4.61169Q58.1322-6.95713 58.1322-9.94047Q58.1322-15.8833 55.8413-20.7987Q53.5504-25.714 50.215-30.2705Q46.8797-34.8271 43.5042-39.613Q40.1286-44.399 37.8562-50.0215Q35.5838-55.644 35.5838-62.7962Q35.5838-74.2969 40.4395-82.8896Q45.2953-91.4823 54.0165-96.2387Q62.7377-100.995 74.4077-100.995Q86.0699-100.995 94.8021-96.2387Q103.534-91.4823 108.364-82.8896Q113.195-74.2969 113.195-62.7962Q113.195-55.644 110.922-50.0215Q108.65-44.399 105.296-39.613Q101.942-34.8271 98.5851-30.2705Q95.228-25.714 92.9556-20.7987Q90.6832-15.8833 90.6832-9.94047Q90.6832-6.86952 90.6832-4.37806Q90.6832-1.88661 90.6832 0.841692L98.3227-7.49153L50.4557-7.49153ZM74.3935 38.5961Q81.7202 38.5961 86.5061 35.4665Q91.2919 32.3369 91.7894 27.2692L57.026 27.2692Q57.5015 32.3369 62.2581 35.4665Q67.0147 38.5961 74.3935 38.5961ZM52.131 22.2591L96.6332 22.2591Q99.3272 22.2591 101.202 20.3334Q103.077 18.4078 103.077 15.8306Q103.077 13.1872 101.202 11.2761Q99.3272 9.36503 96.6332 9.36503L52.131 9.36503Q49.5032 9.36503 47.6209 11.2761Q45.7387 13.1872 45.7387 15.8306Q45.7387 18.4078 47.6209 20.3334Q49.5032 22.2591 52.131 22.2591Z"/>
  </g>
  <g id="Semibold-L" transform="matrix(1 0 0 1 1969.96 1556)">
   <path d="M50.2346 3.65674L96.3756 3.65674Q98.2801 3.65674 99.4167 2.49853Q100.553 1.34033 100.553-0.543331L100.553-9.77378Q100.553-14.4725 102.842-18.6337Q105.131-22.7949 108.503-27.1069Q111.874-31.4188 115.267-36.5202Q118.66-41.6215 120.928-48.0625Q123.196-54.5034 123.196-63.0227Q123.196-77.7639 116.952-88.8733Q110.708-99.9827 99.4673-106.176Q88.2269-112.37 73.3261-112.37Q58.402-112.37 47.1622-106.176Q35.9225-99.9827 29.6685-88.8733Q23.4144-77.7639 23.4144-63.0227Q23.4144-54.5034 25.6925-48.0625Q27.9705-41.6215 31.3535-36.5202Q34.7364-31.4188 38.1076-27.1069Q41.4788-22.7949 43.7779-18.6337Q46.0769-14.4725 46.0769-9.77378L46.0769-0.543331Q46.0769 1.34033 47.2135 2.49853Q48.35 3.65674 50.2346 3.65674ZM56.7314 0.0417495Q56.7314-2.72969 56.7314-5.01999Q56.7314-7.31029 56.7314-9.98403Q56.7314-15.7943 54.4423-20.66Q52.1532-25.5257 48.8216-30.097Q45.4899-34.6683 42.118-39.5151Q38.7461-44.3618 36.478-50.0642Q34.2099-55.7666 34.2099-63.0029Q34.2099-74.5995 39.1049-83.2734Q43.9998-91.9473 52.7831-96.7515Q61.5664-101.556 73.3261-101.556Q85.0624-101.556 93.8674-96.7515Q102.672-91.9473 107.536-83.2734Q112.4-74.5995 112.4-63.0029Q112.4-55.7666 110.132-50.0642Q107.864-44.3618 104.511-39.5151Q101.159-34.6683 97.8079-30.097Q94.457-25.5257 92.1889-20.66Q89.9208-15.7943 89.9208-9.98403Q89.9208-7.25457 89.9208-4.8714Q89.9208-2.48824 89.9208 0.0417495L96.3708-6.87871L50.2394-6.87871ZM73.3062 36.7209Q80.3015 36.7209 84.8681 33.733Q89.4347 30.7451 89.9159 25.9076L56.7364 25.9076Q57.1743 30.7451 61.7223 33.733Q66.2703 36.7209 73.3062 36.7209ZM51.9357 20.8726L94.6547 20.8726Q97.1966 20.8726 98.9702 19.0612Q100.744 17.2498 100.744 14.7822Q100.744 12.2541 98.9702 10.4519Q97.1966 8.64983 94.6547 8.64983L51.9357 8.64983Q49.4544 8.64983 47.6814 10.4519Q45.9084 12.2541 45.9084 14.7822Q45.9084 17.2498 47.6814 19.0612Q49.4544 20.8726 51.9357 20.8726Z"/>
  </g>
  <g id="Medium-L" transform="matrix(1 0 0 1 1674.07 1556)">
   <path d="M49.783 3.09933L95.1833 3.09933Q96.8704 3.09933 97.8577 2.08229Q98.8451 1.06526 98.8451-0.613876L98.8451-9.99748Q98.8451-14.7315 101.133-18.9202Q103.42-23.109 106.783-27.4317Q110.145-31.7543 113.537-36.8444Q116.929-41.9344 119.194-48.3384Q121.459-54.7425 121.459-63.1837Q121.459-77.6806 115.343-88.5945Q109.227-99.5084 98.1886-105.58Q87.1501-111.652 72.506-111.652Q57.8267-111.652 46.795-105.58Q35.7633-99.5084 29.6355-88.5945Q23.5076-77.6806 23.5076-63.1837Q23.5076-54.7425 25.7846-48.3384Q28.0615-41.9344 31.4414-36.8444Q34.8213-31.7543 38.1836-27.4317Q41.5458-23.109 43.8456-18.9202Q46.1454-14.7315 46.1454-9.99748L46.1454-0.613876Q46.1454 1.06526 47.1327 2.08229Q48.1201 3.09933 49.783 3.09933ZM55.6693-0.5648Q55.6693-3.08109 55.6693-5.32958Q55.6693-7.57807 55.6693-10.0171Q55.6693-15.7269 53.3816-20.5549Q51.0939-25.3829 47.765-29.9654Q44.4361-34.548 41.067-39.4408Q37.6978-44.3336 35.433-50.0966Q33.1682-55.8595 33.1682-63.1595Q33.1682-74.8289 38.0929-83.5645Q43.0175-92.3 51.8479-97.1402Q60.6783-101.98 72.506-101.98Q84.2985-101.98 93.1586-97.1402Q102.019-92.3 106.908-83.5645Q111.798-74.8289 111.798-63.1595Q111.798-55.8595 109.533-50.0966Q107.268-44.3336 103.917-39.4408Q100.565-34.548 97.2187-29.9654Q93.8724-25.3829 91.6076-20.5549Q89.3428-15.7269 89.3428-10.0171Q89.3428-7.54653 89.3428-5.24547Q89.3428-2.94442 89.3428-0.5648L94.8908-6.41404L50.0755-6.41404ZM72.4819 35.2991Q79.2258 35.2991 83.6261 32.4186Q88.0264 29.5381 88.4953 24.8752L56.5167 24.8752Q56.9262 29.5381 61.3161 32.4186Q65.7059 35.2991 72.4819 35.2991ZM51.7876 19.8213L93.1546 19.8213Q95.5811 19.8213 97.278 18.0965Q98.9749 16.3717 98.9749 13.9873Q98.9749 11.5465 97.278 9.82704Q95.5811 8.10753 93.1546 8.10753L51.7876 8.10753Q49.4173 8.10753 47.7272 9.82704Q46.0371 11.5465 46.0371 13.9873Q46.0371 16.3717 47.7272 18.0965Q49.4173 19.8213 51.7876 19.8213Z"/>
  </g>
  <g id="Regular-L" transform="matrix(1 0 0 1 1378.43 1556)">
   <path d="M49.194 2.37227L93.6281 2.37227Q95.0316 2.37227 95.8243 1.53938Q96.617 0.706484 96.617-0.705891L96.617-10.2893Q96.617-15.0692 98.9029-19.294Q101.189-23.5188 104.539-27.8554Q107.89-32.192 111.281-37.2672Q114.672-42.3425 116.932-48.6984Q119.193-55.0543 119.193-63.3936Q119.193-77.5718 113.244-88.2308Q107.296-98.8898 96.5209-104.802Q85.7456-110.715 71.4363-110.715Q57.0764-110.715 46.316-104.802Q35.5557-98.8898 29.5924-88.2308Q23.6292-77.5718 23.6292-63.3936Q23.6292-55.0543 25.9046-48.6984Q28.1801-42.3425 31.556-37.2672Q34.932-32.192 38.2826-27.8554Q41.6332-23.5188 43.934-19.294Q46.2348-15.0692 46.2348-10.2893L46.2348-0.705891Q46.2348 0.706484 47.0274 1.53938Q47.8201 2.37227 49.194 2.37227ZM54.2839-1.35595Q54.2839-3.53944 54.2839-5.73339Q54.2839-7.92735 54.2839-10.0602Q54.2839-15.6389 51.998-20.4178Q49.7121-25.1967 46.3868-29.7938Q43.0615-34.3909 39.696-39.3439Q36.3305-44.2968 34.07-50.1388Q31.8094-55.9808 31.8094-63.3639Q31.8094-75.1282 36.7728-83.9441Q41.7363-92.7599 50.6281-97.6473Q59.52-102.535 71.4363-102.535Q83.3021-102.535 92.2341-97.6473Q101.166-92.7599 106.089-83.9441Q111.013-75.1282 111.013-63.3639Q111.013-55.9808 108.752-50.1388Q106.491-44.2968 103.141-39.3439Q99.7902-34.3909 96.4501-29.7938Q93.1099-25.1967 90.8494-20.4178Q88.5888-15.6389 88.5888-10.0602Q88.5888-7.92735 88.5888-5.73339Q88.5888-3.53944 88.5888-1.35595L92.9604-5.80795L49.8616-5.80795ZM71.4066 33.4445Q77.8226 33.4445 82.0061 30.7042Q86.1896 27.9638 86.6424 23.5286L56.2303 23.5286Q56.6026 27.9638 60.7862 30.7042Q64.9697 33.4445 71.4066 33.4445ZM51.5944 18.45L91.1979 18.45Q93.4739 18.45 95.0708 16.8382Q96.6677 15.2265 96.6677 12.9504Q96.6677 10.6237 95.0708 9.01194Q93.4739 7.40019 91.1979 7.40019L51.5944 7.40019Q49.369 7.40019 47.787 9.01194Q46.205 10.6237 46.205 12.9504Q46.205 15.2265 47.787 16.8382Q49.369 18.45 51.5944 18.45Z"/>
  </g>
  <g id="Light-L" transform="matrix(1 0 0 1 1082.85 1556)">
   <path d="M48.8451 2.59801L91.699 2.59801Q92.7947 2.59801 93.413 1.93955Q94.0312 1.2811 94.0312 0.114988L94.0312-8.81168Q94.0312-13.8379 96.3684-18.1755Q98.7056-22.5132 102.149-26.9011Q105.592-31.289 109.075-36.4258Q112.558-41.5626 114.88-48.0314Q117.202-54.5002 117.202-63.0448Q117.202-77.0177 111.367-87.5126Q105.531-98.0074 94.9509-103.838Q84.3707-109.668 70.2871-109.668Q56.1734-109.668 45.6183-103.838Q35.0631-98.0074 29.2025-87.5126Q23.3419-77.0177 23.3419-63.0448Q23.3419-54.5002 25.6892-48.0314Q28.0364-41.5626 31.4945-36.4258Q34.9525-31.289 38.3955-26.9011Q41.8384-22.5132 44.2008-18.1755Q46.5631-13.8379 46.5631-8.81168L46.5631 0.114988Q46.5631 1.2811 47.1813 1.93955Q47.7996 2.59801 48.8451 2.59801ZM52.7858-0.206722Q52.7858-2.2876 52.7858-4.35842Q52.7858-6.42925 52.7858-8.47996Q52.7858-14.0792 50.4486-18.9094Q48.1114-23.7396 44.6835-28.4291Q41.2556-33.1186 37.7875-38.2152Q34.3194-43.3118 31.9973-49.3282Q29.6751-55.3446 29.6751-62.9945Q29.6751-75.1077 34.7617-84.1801Q39.8482-93.2524 48.9658-98.2937Q58.0834-103.335 70.2871-103.335Q82.4607-103.335 91.6185-98.2937Q100.776-93.2524 105.823-84.1801Q110.869-75.1077 110.869-62.9945Q110.869-55.3446 108.547-49.3282Q106.225-43.3118 102.782-38.2152Q99.3388-33.1186 95.8857-28.4291Q92.4327-23.7396 90.1106-18.9094Q87.7885-14.0792 87.7885-8.47996Q87.7885-6.42925 87.7885-4.35842Q87.7885-2.2876 87.7885-0.206722L91.2366-3.73523L49.3075-3.73523ZM70.2369 32.1927Q76.5297 32.1927 80.6312 29.5036Q84.7326 26.8146 85.1648 22.482L55.4094 22.482Q55.7612 26.8146 59.8627 29.5036Q63.9641 32.1927 70.2369 32.1927ZM51.3481 17.506L89.1457 17.506Q91.2165 17.506 92.6389 16.0584Q94.0614 14.6108 94.0614 12.54Q94.0614 10.439 92.6389 8.99141Q91.2165 7.54384 89.1457 7.54384L51.3481 7.54384Q49.3075 7.54384 47.9102 8.99141Q46.5128 10.439 46.5128 12.54Q46.5128 14.6108 47.9102 16.0584Q49.3075 17.506 51.3481 17.506Z"/>
  </g>
  <g id="Thin-L" transform="matrix(1 0 0 1 787.644 1556)">
   <path d="M48.3837 2.89657L89.1477 2.89657Q89.8363 2.89657 90.2238 2.46882Q90.6113 2.04107 90.6113 1.20067L90.6113-6.85746Q90.6113-12.2094 93.0164-16.6963Q95.4215-21.1832 98.9866-25.639Q102.552-30.0948 106.157-35.313Q109.762-40.5312 112.166-47.1493Q114.569-53.7673 114.569-62.5834Q114.569-76.2849 108.883-86.5626Q103.197-96.8403 92.8746-102.562Q82.5522-108.284 68.7672-108.284Q54.9792-108.284 44.6954-102.562Q34.4117-96.8403 28.6868-86.5626Q22.9619-76.2849 22.9619-62.5834Q22.9619-53.7673 25.4042-47.1493Q27.8464-40.5312 31.413-35.313Q34.9796-30.0948 38.5448-25.639Q42.1099-21.1832 44.5536-16.6963Q46.9974-12.2094 46.9974-6.85746L46.9974 1.20067Q46.9974 2.04107 47.3849 2.46882Q47.7725 2.89657 48.3837 2.89657ZM50.8044 1.31323Q50.8044-0.631938 50.8044-2.53991Q50.8044-4.44788 50.8044-6.39003Q50.8044-12.0164 48.3993-16.9145Q45.9943-21.8126 42.4307-26.6242Q38.8671-31.4358 35.2633-36.7224Q31.6595-42.009 29.2559-48.2561Q26.8524-54.5032 26.8524-62.5059Q26.8524-75.0806 32.1018-84.4922Q37.3512-93.9038 46.7673-99.1487Q56.1835-104.394 68.7672-104.394Q81.3478-104.394 90.8042-99.1487Q100.261-93.9038 105.47-84.4922Q110.679-75.0806 110.679-62.5059Q110.679-54.5032 108.275-48.2561Q105.872-42.009 102.307-36.7224Q98.7416-31.4358 95.1393-26.6242Q91.537-21.8126 89.1335-16.9145Q86.7299-12.0164 86.7299-6.39003Q86.7299-4.44788 86.7299-2.53991Q86.7299-0.631938 86.7299 1.31323L88.9566-0.993895L48.5747-0.993895ZM68.6898 30.537Q74.8198 30.537 78.8126 27.9158Q82.8055 25.2946 83.2106 21.0977L54.3237 21.0977Q54.6484 25.2946 58.6413 27.9158Q62.6341 30.537 68.6898 30.537ZM51.0224 16.2574L86.4315 16.2574Q88.2309 16.2574 89.4226 15.027Q90.6144 13.7966 90.6144 11.9971Q90.6144 10.1947 89.4226 8.96427Q88.2309 7.73383 86.4315 7.73383L51.0224 7.73383Q49.226 7.73383 48.073 8.96427Q46.92 10.1947 46.92 11.9971Q46.92 13.7966 48.073 15.027Q49.226 16.2574 51.0224 16.2574Z"/>
  </g>
  <g id="Ultralight-L" transform="matrix(1 0 0 1 491.702 1556)">
   <path d="M48.1473 3.04949L87.8409 3.04949Q88.321 3.04949 88.5903 2.73991Q88.8597 2.43033 88.8597 1.75674L88.8597-5.85652Q88.8597-11.3753 91.2995-15.9387Q93.7393-20.502 97.367-24.9925Q100.995-29.4831 104.663-34.743Q108.33-40.003 110.776-46.6975Q113.221-53.392 113.221-62.347Q113.221-75.9096 107.611-86.076Q102.001-96.2425 91.8111-101.909Q81.6207-107.575 67.9887-107.575Q54.3675-107.575 44.2228-101.909Q34.0781-96.2425 28.4227-86.076Q22.7673-75.9096 22.7673-62.347Q22.7673-53.392 25.2582-46.6975Q27.7491-40.003 31.3713-34.743Q34.9936-29.4831 38.6212-24.9925Q42.2489-20.502 44.7343-15.9387Q47.2198-11.3753 47.2198-5.85652L47.2198 1.75674Q47.2198 2.43033 47.4892 2.73991Q47.7585 3.04949 48.1473 3.04949ZM49.7896 2.09174Q49.7896 0.216082 49.7896-1.60848Q49.7896-3.43304 49.7896-5.31958Q49.7896-10.9599 47.3497-15.8927Q44.9099-20.8255 41.2768-25.6997Q37.6437-30.5739 33.9704-35.9578Q30.2971-41.3417 27.8518-47.7069Q25.4066-54.0722 25.4066-62.2557Q25.4066-75.0667 30.7394-84.6521Q36.0722-94.2375 45.6413-99.5866Q55.2103-104.936 67.9887-104.936Q80.7779-104.936 90.3871-99.5866Q99.9964-94.2375 105.289-84.6521Q110.582-75.0667 110.582-62.2557Q110.582-54.0722 108.136-47.7069Q105.691-41.3417 102.063-35.9578Q98.4358-30.5739 94.757-25.6997Q91.0783-20.8255 88.633-15.8927Q86.1878-10.9599 86.1878-5.31958Q86.1878-3.43304 86.1878-1.60848Q86.1878 0.216082 86.1878 2.09174L87.7889 0.410205L48.1993 0.410205ZM67.8974 29.689Q73.944 29.689 77.8812 27.1026Q81.8185 24.5161 82.2097 20.3887L53.7676 20.3887Q54.0784 24.5161 58.0157 27.1026Q61.9529 29.689 67.8974 29.689ZM50.8556 15.6179L85.0413 15.6179Q86.7017 15.6179 87.7752 14.4987Q88.8488 13.3795 88.8488 11.7191Q88.8488 10.0696 87.7752 8.95037Q86.7017 7.83115 85.0413 7.83115L50.8556 7.83115Q49.1843 7.83115 48.1564 8.95037Q47.1285 10.0696 47.1285 11.7191Q47.1285 13.3795 48.1564 14.4987Q49.1843 15.6179 50.8556 15.6179Z"/>
  </g>
  <g id="Black-M" transform="matrix(1 0 0 1 2872.64 1126)">
   <path d="M41.193-2.07239L80.3274-2.07239Q82.8498-2.07239 84.4617-3.65834Q86.0736-5.2443 86.0736-7.70348L86.0736-13.8197Q86.0736-17.357 87.8718-20.4731Q89.6701-23.5893 92.3608-26.8907Q95.0514-30.1921 97.7161-34.2253Q100.381-38.2586 102.176-43.4826Q103.972-48.7066 103.972-55.7905Q103.972-68.4358 98.4928-78.0224Q93.0137-87.6091 83.302-93.0254Q73.5902-98.4417 60.7629-98.4417Q47.9872-98.4417 38.2468-93.0254Q28.5064-87.6091 23.0275-78.0224Q17.5485-68.4358 17.5485-55.7905Q17.5485-48.7066 19.3439-43.4826Q21.1392-38.2586 23.8041-34.2253Q26.469-30.1921 29.1596-26.8907Q31.8503-23.5893 33.6484-20.4731Q35.4465-17.357 35.4465-13.8197L35.4465-7.70348Q35.4465-5.2443 37.0584-3.65834Q38.6703-2.07239 41.193-2.07239ZM49.0701-4.29839Q49.0701-7.76254 49.0701-9.71655Q49.0701-11.6706 49.0701-14.9579Q49.0701-19.9989 47.2718-23.9855Q45.4735-27.9722 42.8427-31.4858Q40.2119-34.9994 37.55-38.5591Q34.888-42.1187 33.0925-46.275Q31.297-50.4313 31.297-55.7908Q31.297-64.5083 34.9738-70.9894Q38.6505-77.4705 45.2826-81.0533Q51.9147-84.6361 60.7629-84.6361Q69.6627-84.6361 76.2689-81.0533Q82.8751-77.4705 86.5492-70.9894Q90.2234-64.5083 90.2234-55.7908Q90.2234-50.4313 88.4278-46.275Q86.6323-42.1187 83.9988-38.5591Q81.3652-34.9994 78.706-31.4858Q76.0468-27.9722 74.2513-23.9855Q72.4558-19.9989 72.4558-14.9579Q72.4558-11.4993 72.4558-9.25978Q72.4558-7.02029 72.4558-4.29839L81.9176-15.0215L39.6027-15.0215ZM60.7632 27.621Q67.4728 27.621 71.8636 24.7544Q76.2544 21.8878 76.6856 17.2501L44.8403 17.2501Q45.3234 21.8878 49.6571 24.7544Q53.9908 27.621 60.7632 27.621ZM40.9376 13.4843L80.583 13.4843Q83.0937 13.4843 84.8148 11.6777Q86.5359 9.87114 86.5359 7.58887Q86.5359 5.24398 84.8148 3.46596Q83.0937 1.68794 80.583 1.68794L40.9376 1.68794Q38.4896 1.68794 36.7398 3.46596Q34.99 5.24398 34.99 7.58887Q34.99 9.87114 36.7398 11.6777Q38.4896 13.4843 40.9376 13.4843Z"/>
  </g>
  <g id="Heavy-M" transform="matrix(1 0 0 1 2577.06 1126)">
   <path d="M40.5129-3.05275L78.7484-3.05275Q80.9736-3.05275 82.3734-4.44017Q83.7733-5.82758 83.7733-7.99775L83.7733-14.5111Q83.7733-18.0544 85.5582-21.1924Q87.3432-24.3304 89.999-27.6387Q92.6549-30.947 95.2983-34.948Q97.9417-38.9491 99.7185-44.0872Q101.495-49.2253 101.495-56.1345Q101.495-68.4155 96.2065-77.7106Q90.9177-87.0058 81.5016-92.2359Q72.0855-97.4661 59.6388-97.4661Q47.2195-97.4661 37.7828-92.2359Q28.3461-87.0058 23.0561-77.7106Q17.7661-68.4155 17.7661-56.1345Q17.7661-49.2253 19.5441-44.0872Q21.3221-38.9491 23.9643-34.948Q26.6065-30.947 29.2623-27.6387Q31.9182-24.3304 33.7043-21.1924Q35.4905-18.0544 35.4905-14.5111L35.4905-7.99775Q35.4905-5.82758 36.8904-4.44017Q38.2902-3.05275 40.5129-3.05275ZM47.6162-5.55928Q47.6162-8.61892 47.6162-10.5295Q47.6162-12.44 47.6162-15.3526Q47.6162-20.2211 45.8313-24.1338Q44.0464-28.0465 41.4422-31.559Q38.8381-35.0715 36.2028-38.6774Q33.5676-42.2832 31.7908-46.5033Q30.014-50.7234 30.014-56.1321Q30.014-64.8963 33.7139-71.4252Q37.4139-77.9542 44.0763-81.5644Q50.7386-85.1746 59.6388-85.1746Q68.5664-85.1746 75.2162-81.5644Q81.8661-77.9542 85.5568-71.4252Q89.2474-64.8963 89.2474-56.1321Q89.2474-50.7234 87.4706-46.5033Q85.6938-42.2832 83.0815-38.6774Q80.4693-35.0715 77.8421-31.559Q75.215-28.0465 73.4382-24.1338Q71.6614-20.2211 71.6614-15.3526Q71.6614-12.3092 71.6614-10.1805Q71.6614-8.05184 71.6614-5.55928L79.8137-14.6899L39.4477-14.6899ZM59.6364 25.5129Q65.9521 25.5129 70.0826 22.8149Q74.2131 20.1169 74.6281 15.749L44.6495 15.749Q45.0894 20.1169 49.1763 22.8149Q53.2632 25.5129 59.6364 25.5129ZM40.7429 11.9295L78.516 11.9295Q80.8779 11.9295 82.5082 10.2325Q84.1385 8.53551 84.1385 6.3481Q84.1385 4.10084 82.5082 2.42566Q80.8779 0.75048 78.516 0.75048L40.7429 0.75048Q38.4409 0.75048 36.79 2.42566Q35.1391 4.10084 35.1391 6.3481Q35.1391 8.53551 36.79 10.2325Q38.4409 11.9295 40.7429 11.9295Z"/>
  </g>
  <g id="Bold-M" transform="matrix(1 0 0 1 2281.61 1126)">
   <path d="M39.7522-4.14943L76.9821-4.14943Q78.8747-4.14943 80.0374-5.31475Q81.2002-6.48006 81.2002-8.32694L81.2002-15.2845Q81.2002-18.8346 82.9702-21.997Q84.7402-25.1595 87.3571-28.4755Q89.9741-31.7914 92.5936-35.7565Q95.2132-39.7216 96.969-44.7635Q98.7249-49.8055 98.7249-56.5194Q98.7249-68.3927 93.649-77.3618Q88.5731-86.3309 79.4877-91.3528Q70.4023-96.3747 58.3813-96.3747Q46.3606-96.3747 37.2637-91.3528Q28.1668-86.3309 23.0881-77.3618Q18.0094-68.3927 18.0094-56.5194Q18.0094-49.8055 19.768-44.7635Q21.5267-39.7216 24.1435-35.7565Q26.7603-31.7914 29.3772-28.4755Q31.9942-25.1595 33.7669-21.997Q35.5397-18.8346 35.5397-15.2845L35.5397-8.32694Q35.5397-6.48006 36.7024-5.31475Q37.8651-4.14943 39.7522-4.14943ZM45.9899-6.96976Q45.9899-9.57689 45.9899-11.4389Q45.9899-13.3008 45.9899-15.7941Q45.9899-20.4697 44.2199-24.2996Q42.4499-28.1296 39.8756-31.6409Q37.3013-35.1522 34.6959-38.8097Q32.0904-42.4672 30.3346-46.7587Q28.5787-51.0501 28.5787-56.5138Q28.5787-65.3304 32.3046-71.9128Q36.0306-78.4953 42.7268-82.1361Q49.423-85.7769 58.3813-85.7769Q67.3399-85.7769 74.0387-82.1361Q80.7375-78.4953 84.4466-71.9128Q88.1557-65.3304 88.1557-56.5138Q88.1557-51.0501 86.3998-46.7587Q84.6439-42.4672 82.0555-38.8097Q79.4671-35.1522 76.8758-31.6409Q74.2845-28.1296 72.5286-24.2996Q70.7727-20.4697 70.7727-15.7941Q70.7727-13.2152 70.7727-11.2105Q70.7727-9.20576 70.7727-6.96976L77.4601-14.319L39.2742-14.319ZM58.3758 23.1548Q64.251 23.1548 68.0903 20.6453Q71.9297 18.1359 72.3266 14.0697L44.436 14.0697Q44.8277 18.1359 48.6385 20.6453Q52.4493 23.1548 58.3758 23.1548ZM40.5252 10.1902L76.2037 10.1902Q78.3991 10.1902 79.928 8.61582Q81.4568 7.04142 81.4568 4.96013Q81.4568 2.82206 79.928 1.26193Q78.3991-0.298206 76.2037-0.298206L40.5252-0.298206Q38.3865-0.298206 36.8461 1.26193Q35.3058 2.82206 35.3058 4.96013Q35.3058 7.04142 36.8461 8.61582Q38.3865 10.1902 40.5252 10.1902Z"/>
  </g>
  <g id="Semibold-M" transform="matrix(1 0 0 1 1985.77 1126)">
   <path d="M39.2278-4.90547L75.7644-4.90547Q77.4278-4.90547 78.427-5.91768Q79.4262-6.92988 79.4262-8.55387L79.4262-15.8176Q79.4262-19.3724 81.186-22.5517Q82.9457-25.7311 85.5358-29.0523Q88.1259-32.3736 90.729-36.3139Q93.3321-40.2541 95.0736-45.2298Q96.8151-50.2055 96.8151-56.7847Q96.8151-68.377 91.8859-77.1213Q86.9567-85.8656 78.0993-90.7439Q69.2418-95.6223 57.5144-95.6223Q45.7685-95.6223 36.9058-90.7439Q28.0431-85.8656 23.1101-77.1213Q18.1772-68.377 18.1772-56.7847Q18.1772-50.2055 19.9224-45.2298Q21.6677-40.2541 24.267-36.3139Q26.8663-32.3736 29.4564-29.0523Q32.0465-25.7311 33.8101-22.5517Q35.5736-19.3724 35.5736-15.8176L35.5736-8.55387Q35.5736-6.92988 36.5728-5.91768Q37.572-4.90547 39.2278-4.90547ZM44.8687-7.94214Q44.8687-10.2373 44.8687-12.0658Q44.8687-13.8942 44.8687-16.0984Q44.8687-20.6411 43.109-24.414Q41.3493-28.1869 38.7955-31.6973Q36.2418-35.2078 33.657-38.9009Q31.0721-42.5941 29.3307-46.9347Q27.5892-51.2754 27.5892-56.777Q27.5892-65.6296 31.3331-72.2489Q35.077-78.8683 41.7965-82.5302Q48.516-86.1921 57.5144-86.1921Q66.4944-86.1921 73.2269-82.5302Q79.9594-78.8683 83.6812-72.2489Q87.403-65.6296 87.403-56.777Q87.403-51.2754 85.6616-46.9347Q83.9201-42.5941 81.3481-38.9009Q78.7762-35.2078 76.2096-31.6973Q73.643-28.1869 71.9015-24.414Q70.16-20.6411 70.16-16.0984Q70.16-13.8398 70.16-11.9205Q70.16-10.0013 70.16-7.94214L75.8376-14.0633L39.1546-14.0633ZM57.5067 21.529Q63.0782 21.529 66.7169 19.1496Q70.3555 16.7702 70.7399 12.912L44.2889 12.912Q44.6472 16.7702 48.2677 19.1496Q51.8882 21.529 57.5067 21.529ZM40.375 8.9912L74.6096 8.9912Q76.6903 8.9912 78.1492 7.5013Q79.608 6.0114 79.608 4.00327Q79.608 1.94048 78.1492 0.459659Q76.6903-1.02116 74.6096-1.02116L40.375-1.02116Q38.3489-1.02116 36.8848 0.459659Q35.4207 1.94048 35.4207 4.00327Q35.4207 6.0114 36.8848 7.5013Q38.3489 8.9912 40.375 8.9912Z"/>
  </g>
  <g id="Medium-M" transform="matrix(1 0 0 1 1689.72 1126)">
   <path d="M38.8301-5.47874L74.8412-5.47874Q76.3307-5.47874 77.2059-6.37484Q78.0812-7.27095 78.0812-8.72594L78.0812-16.2219Q78.0812-19.7802 79.8331-22.9723Q81.585-26.1644 84.1548-29.4897Q86.7246-32.815 89.3152-36.7365Q91.9059-40.6579 93.6364-45.5833Q95.3669-50.5087 95.3669-56.9858Q95.3669-68.3651 90.549-76.939Q85.7311-85.5128 77.0465-90.2823Q68.362-95.0518 56.857-95.0518Q45.3196-95.0518 36.6345-90.2823Q27.9494-85.5128 23.1269-76.939Q18.3044-68.3651 18.3044-56.9858Q18.3044-50.5087 20.0395-45.5833Q21.7747-40.6579 24.3607-36.7365Q26.9467-32.815 29.5165-29.4897Q32.0863-26.1644 33.8428-22.9723Q35.5993-19.7802 35.5993-16.2219L35.5993-8.72594Q35.5993-7.27095 36.4746-6.37484Q37.3498-5.47874 38.8301-5.47874ZM44.0186-8.67944Q44.0186-10.7381 44.0186-12.5411Q44.0186-14.3442 44.0186-16.3292Q44.0186-20.7711 42.2666-24.5007Q40.5147-28.2303 37.9766-31.7401Q35.4385-35.2499 32.8692-38.9701Q30.3-42.6902 28.5695-47.0682Q26.8389-51.4461 26.8389-56.9766Q26.8389-65.8565 30.5964-72.5038Q34.3539-79.1511 41.0911-82.829Q47.8283-86.5069 56.857-86.5069Q65.8533-86.5069 72.6113-82.829Q79.3694-79.1511 83.1009-72.5038Q86.8323-65.8565 86.8323-56.9766Q86.8323-51.4461 85.1018-47.0682Q83.3713-42.6902 80.8118-38.9701Q78.2523-35.2499 75.7044-31.7401Q73.1565-28.2303 71.426-24.5007Q69.6955-20.7711 69.6955-16.3292Q69.6955-14.3133 69.6955-12.4589Q69.6955-10.6045 69.6955-8.67944L74.6074-13.8694L39.0639-13.8694ZM56.8478 20.2964Q62.189 20.2964 65.6755 18.0155Q69.1619 15.7346 69.5368 12.0342L44.1773 12.0342Q44.5104 15.7346 47.9865 18.0155Q51.4627 20.2964 56.8478 20.2964ZM40.2612 8.08204L73.4008 8.08204Q75.3946 8.08204 76.8004 6.65622Q78.2062 5.23039 78.2062 3.27774Q78.2062 1.27203 76.8004-0.148655Q75.3946-1.56934 73.4008-1.56934L40.2612-1.56934Q38.3205-1.56934 36.9142-0.148655Q35.5079 1.27203 35.5079 3.27774Q35.5079 5.23039 36.9142 6.65622Q38.3205 8.08204 40.2612 8.08204Z"/>
  </g>
  <g id="Regular-M" transform="matrix(1 0 0 1 1393.87 1126)">
   <path d="M38.3114-6.22647L73.6369-6.22647Q74.8997-6.22647 75.6132-6.97115Q76.3267-7.71583 76.3267-8.95039L76.3267-16.7493Q76.3267-20.3122 78.0685-23.5209Q79.8102-26.7297 82.3535-30.0602Q84.8967-33.3907 87.4711-37.2877Q90.0455-41.1846 91.7618-46.0445Q93.478-50.9043 93.478-57.2482Q93.478-68.3496 88.8053-76.7012Q84.1325-85.0527 75.6734-89.6802Q67.2143-94.3076 55.9996-94.3076Q44.734-94.3076 36.2806-89.6802Q27.8271-85.0527 23.1487-76.7012Q18.4703-68.3496 18.4703-57.2482Q18.4703-50.9043 20.1922-46.0445Q21.9141-41.1846 24.4829-37.2877Q27.0516-33.3907 29.5948-30.0602Q32.1381-26.7297 33.8855-23.5209Q35.6329-20.3122 35.6329-16.7493L35.6329-8.95039Q35.6329-7.71583 36.3464-6.97115Q37.0599-6.22647 38.3114-6.22647ZM42.9097-9.64113Q42.9097-11.3912 42.9097-13.1612Q42.9097-14.9311 42.9097-16.6302Q42.9097-20.9406 41.1679-24.6138Q39.4262-28.287 36.9084-31.7959Q34.3907-35.3049 31.8418-39.0603Q29.2928-42.8157 27.5766-47.2423Q25.8603-51.6689 25.8603-57.2369Q25.8603-66.1524 29.6355-72.8362Q33.4107-79.52 40.171-83.2188Q46.9312-86.9176 55.9996-86.9176Q65.0171-86.9176 71.8085-83.2188Q78.5999-79.52 82.3439-72.8362Q86.088-66.1524 86.088-57.2369Q86.088-51.6689 84.3717-47.2423Q82.6554-42.8157 80.1122-39.0603Q77.569-35.3049 75.0455-31.7959Q72.5221-28.287 70.8058-24.6138Q69.0896-20.9406 69.0896-16.6302Q69.0896-14.9311 69.0896-13.1612Q69.0896-11.3912 69.0896-9.64113L73.0027-13.6165L38.9456-13.6165ZM55.9883 18.6885Q61.0292 18.6885 64.3171 16.5362Q67.605 14.3839 67.9675 10.8893L44.0317 10.8893Q44.3319 14.3839 47.6198 16.5362Q50.9078 18.6885 55.9883 18.6885ZM40.1127 6.89618L71.8243 6.89618Q73.7046 6.89618 75.0411 5.55394Q76.3777 4.21169 76.3777 2.33139Q76.3777 0.400138 75.0411-0.942107Q73.7046-2.28435 71.8243-2.28435L40.1127-2.28435Q38.2833-2.28435 36.9524-0.942107Q35.6215 0.400138 35.6215 2.33139Q35.6215 4.21169 36.9524 5.55394Q38.2833 6.89618 40.1127 6.89618Z"/>
  </g>
  <g id="Light-M" transform="matrix(1 0 0 1 1098.18 1126)">
   <path d="M37.9986-6.02408L71.9074-6.02408Q72.8942-6.02408 73.4513-6.61237Q74.0085-7.20066 74.0085-8.21443L74.0085-15.4245Q74.0085-19.2082 75.7962-22.5182Q77.5839-25.8282 80.21-29.2047Q82.836-32.5812 85.4932-36.5333Q88.1504-40.4854 89.9219-45.4465Q91.6933-50.4075 91.6933-56.9355Q91.6933-67.8529 87.1218-76.0572Q82.5502-84.2615 74.2659-88.8154Q65.9815-93.3693 54.9693-93.3693Q43.9245-93.3693 35.655-88.8154Q27.3856-84.2615 22.7991-76.0572Q18.2127-67.8529 18.2127-56.9355Q18.2127-50.4075 19.999-45.4465Q21.7853-40.4854 24.4277-36.5333Q27.07-32.5812 29.696-29.2047Q32.3221-25.8282 34.1247-22.5182Q35.9273-19.2082 35.9273-15.4245L35.9273-8.21443Q35.9273-7.20066 36.4844-6.61237Q37.0415-6.02408 37.9986-6.02408ZM41.5666-8.61078Q41.5666-10.2689 41.5666-11.9284Q41.5666-13.5879 41.5666-15.2135Q41.5666-19.5423 39.7788-23.2615Q37.9911-26.9806 35.3813-30.5724Q32.7716-34.1642 30.1307-38.0483Q27.4897-41.9325 25.7183-46.5155Q23.9468-51.0985 23.9468-56.9057Q23.9468-66.134 27.8324-73.0478Q31.718-79.9616 38.6807-83.7984Q45.6433-87.6351 54.9693-87.6351Q64.2627-87.6351 71.2565-83.7984Q78.2503-79.9616 82.1047-73.0478Q85.9592-66.134 85.9592-56.9057Q85.9592-51.0985 84.1877-46.5155Q82.4163-41.9325 79.7902-38.0483Q77.1642-34.1642 74.5396-30.5724Q71.9149-26.9806 70.1435-23.2615Q68.372-19.5423 68.372-15.2135Q68.372-13.5879 68.372-11.9284Q68.372-10.2689 68.372-8.61078L71.4571-11.7582L38.4489-11.7582ZM54.9395 17.5662Q59.8701 17.5662 63.0844 15.4599Q66.2987 13.3536 66.6428 9.95091L43.2958 9.95091Q43.5776 13.3536 46.7919 15.4599Q50.0062 17.5662 54.9395 17.5662ZM39.8919 6.04983L69.9844 6.04983Q71.6807 6.04983 72.8608 4.85478Q74.041 3.65972 74.041 1.96341Q74.041 0.234547 72.8608-0.960506Q71.6807-2.15556 69.9844-2.15556L39.8919-2.15556Q38.2281-2.15556 37.0628-0.960506Q35.8975 0.234547 35.8975 1.96341Q35.8975 3.65972 37.0628 4.85478Q38.2281 6.04983 39.8919 6.04983Z"/>
  </g>
  <g id="Thin-M" transform="matrix(1 0 0 1 802.811 1126)">
   <path d="M37.585-5.75641L69.6199-5.75641Q70.2418-5.75641 70.5921-6.13785Q70.9424-6.5193 70.9424-7.24106L70.9424-13.6725Q70.9424-17.7482 72.7909-21.192Q74.6395-24.6358 77.3751-28.0731Q80.1106-31.5105 82.8773-35.5356Q85.644-39.5607 87.4884-44.6556Q89.3329-49.7505 89.3329-56.5218Q89.3329-67.1958 84.8952-75.2055Q80.4575-83.2152 72.4043-87.6717Q64.3512-92.1282 53.6066-92.1282Q42.8538-92.1282 34.8276-87.6717Q26.8015-83.2152 22.3368-75.2055Q17.872-67.1958 17.872-56.5218Q17.872-49.7505 19.7435-44.6556Q21.615-39.5607 24.3547-35.5356Q27.0943-31.5105 29.8299-28.0731Q32.5654-24.6358 34.441-21.192Q36.3166-17.7482 36.3166-13.6725L36.3166-7.24106Q36.3166-6.5193 36.6669-6.13785Q37.0172-5.75641 37.585-5.75641ZM39.7902-7.24807Q39.7902-8.78451 39.7902-10.298Q39.7902-11.8115 39.7902-13.3398Q39.7902-17.6929 37.9416-21.4729Q36.093-25.2529 33.3616-28.9542Q30.6302-32.6554 27.8676-36.71Q25.105-40.7645 23.2605-45.5543Q21.4161-50.3442 21.4161-56.4677Q21.4161-66.1097 25.4477-73.3277Q29.4793-80.5456 36.7096-84.5649Q43.9399-88.5842 53.6066-88.5842Q63.265-88.5842 70.5265-84.5649Q77.7879-80.5456 81.7884-73.3277Q85.7888-66.1097 85.7888-56.4677Q85.7888-50.3442 83.9444-45.5543Q82.0999-40.7645 79.3644-36.71Q76.6288-32.6554 73.8704-28.9542Q71.1119-25.2529 69.2674-21.4729Q67.423-17.6929 67.423-13.3398Q67.423-11.8115 67.423-10.298Q67.423-8.78451 67.423-7.24807L69.4131-9.30048L37.7918-9.30048ZM53.5525 16.0818Q58.337 16.0818 61.454 14.0363Q64.571 11.9908 64.8907 8.70987L42.3224 8.70987Q42.5799 11.9908 45.6968 14.0363Q48.8138 16.0818 53.5525 16.0818ZM39.5999 4.93046L67.5509 4.93046Q69.0039 4.93046 69.9772 3.93008Q70.9506 2.9297 70.9506 1.47673Q70.9506 0.0155399 69.9772-0.98484Q69.0039-1.98522 67.5509-1.98522L39.5999-1.98522Q38.1551-1.98522 37.2088-0.98484Q36.2625 0.0155399 36.2625 1.47673Q36.2625 2.9297 37.2088 3.93008Q38.1551 4.93046 39.5999 4.93046Z"/>
  </g>
  <g id="Ultralight-M" transform="matrix(1 0 0 1 506.789 1126)">
   <path d="M37.3731-5.6193L68.4483-5.6193Q68.8832-5.6193 69.1276-5.89481Q69.3719-6.17031 69.3719-6.74251L69.3719-12.7751Q69.3719-17.0003 71.2517-20.5127Q73.1314-24.0251 75.923-27.4936Q78.7146-30.9621 81.5374-35.0246Q84.3602-39.0871 86.2421-44.2506Q88.1239-49.414 88.1239-56.3099Q88.1239-66.8593 83.7547-74.7693Q79.3856-82.6792 71.4508-87.0859Q63.5161-91.4926 52.9086-91.4926Q42.3053-91.4926 34.4039-87.0859Q26.5024-82.6792 22.1-74.7693Q17.6975-66.8593 17.6975-56.3099Q17.6975-49.414 19.6126-44.2506Q21.5278-39.0871 24.3173-35.0246Q27.1068-30.9621 29.8984-27.4936Q32.69-24.0251 34.603-20.5127Q36.516-17.0003 36.516-12.7751L36.516-6.74251Q36.516-6.17031 36.7604-5.89481Q37.0047-5.6193 37.3731-5.6193ZM38.8803-6.5501Q38.8803-8.02422 38.8803-9.46295Q38.8803-10.9017 38.8803-12.3801Q38.8803-16.7456 37.0006-20.5568Q35.1208-24.368 32.3271-28.1253Q29.5333-31.8827 26.7084-36.0245Q23.8835-40.1662 22.0017-45.062Q20.1198-49.9578 20.1198-56.2434Q20.1198-66.0972 24.2262-73.471Q28.3326-80.8448 35.7-84.9575Q43.0674-89.0702 52.9086-89.0702Q62.754-89.0702 70.1526-84.9575Q77.5511-80.8448 81.6264-73.471Q85.7016-66.0972 85.7016-56.2434Q85.7016-49.9578 83.8197-45.062Q81.9379-40.1662 79.1463-36.0245Q76.3546-31.8827 73.5276-28.1253Q70.7006-24.368 68.8187-20.5568Q66.9369-16.7456 66.9369-12.3801Q66.9369-10.9017 66.9369-9.46295Q66.9369-8.02422 66.9369-6.5501L68.3661-8.04163L37.4553-8.04163ZM52.842 15.3215Q57.5518 15.3215 60.6189 13.3072Q63.686 11.2929 63.9933 8.07421L41.8239 8.07421Q42.0688 11.2929 45.136 13.3072Q48.2031 15.3215 52.842 15.3215ZM39.4503 4.35712L66.3046 4.35712Q67.6329 4.35712 68.5003 3.45645Q69.3677 2.55578 69.3677 1.22745Q69.3677-0.0966346 68.5003-0.997304Q67.6329-1.89797 66.3046-1.89797L39.4503-1.89797Q38.1178-1.89797 37.2836-0.997304Q36.4495-0.0966346 36.4495 1.22745Q36.4495 2.55578 37.2836 3.45645Q38.1178 4.35712 39.4503 4.35712Z"/>
  </g>
  <g id="Black-S" transform="matrix(1 0 0 1 2885.5 696)">
   <path d="M32.4707-8.93555L63.3301-8.93555Q65.3809-8.93555 66.6992-10.2295Q68.0176-11.5234 68.0176-13.5254L68.0176-18.1641Q68.0176-20.9473 69.4336-23.3887Q70.8496-25.8301 72.9736-28.418Q75.0977-31.0059 77.1973-34.1797Q79.2969-37.3535 80.7129-41.4795Q82.1289-45.6055 82.1289-51.2207Q82.1289-61.2305 77.7832-68.8232Q73.4375-76.416 65.7471-80.7129Q58.0566-85.0098 47.9004-85.0098Q37.793-85.0098 30.0781-80.7129Q22.3633-76.416 18.0176-68.8232Q13.6719-61.2305 13.6719-51.2207Q13.6719-45.6055 15.0879-41.4795Q16.5039-37.3535 18.6035-34.1797Q20.7031-31.0059 22.8271-28.418Q24.9512-25.8301 26.3672-23.3887Q27.7832-20.9473 27.7832-18.1641L27.7832-13.5254Q27.7832-11.5234 29.1016-10.2295Q30.4199-8.93555 32.4707-8.93555ZM38.8184-10.5469Q38.8184-13.3789 38.8184-14.917Q38.8184-16.4551 38.8184-19.1406Q38.8184-23.1445 37.4023-26.2939Q35.9863-29.4434 33.9111-32.2021Q31.8359-34.9609 29.7363-37.7441Q27.6367-40.5273 26.2207-43.7744Q24.8047-47.0215 24.8047-51.2207Q24.8047-58.0566 27.6855-63.1348Q30.5664-68.2129 35.7666-71.0205Q40.9668-73.8281 47.9004-73.8281Q54.8828-73.8281 60.0586-71.0205Q65.2344-68.2129 68.1152-63.1348Q70.9961-58.0566 70.9961-51.2207Q70.9961-47.0215 69.5801-43.7744Q68.1641-40.5273 66.0889-37.7441Q64.0137-34.9609 61.9141-32.2021Q59.8145-29.4434 58.3984-26.2939Q56.9824-23.1445 56.9824-19.1406Q56.9824-16.3086 56.9824-14.5264Q56.9824-12.7441 56.9824-10.5469L64.7461-19.3848L31.0547-19.3848ZM47.9004 14.5996Q53.2715 14.5996 56.7871 12.3047Q60.3027 10.0098 60.6445 6.29883L35.1562 6.29883Q35.5469 10.0098 39.0137 12.3047Q42.4805 14.5996 47.9004 14.5996ZM32.1289 3.36914L63.6719 3.36914Q65.6738 3.36914 67.041 1.92871Q68.4082 0.488281 68.4082-1.31836Q68.4082-3.17383 67.041-4.58984Q65.6738-6.00586 63.6719-6.00586L32.1289-6.00586Q30.1758-6.00586 28.7842-4.58984Q27.3926-3.17383 27.3926-1.31836Q27.3926 0.488281 28.7842 1.92871Q30.1758 3.36914 32.1289 3.36914Z"/>
  </g>
  <g id="Heavy-S" transform="matrix(1 0 0 1 2589.62 696)">
   <path d="M31.9291-9.79988L62.2007-9.79988Q64.0325-9.79988 65.1895-10.944Q66.3465-12.0881 66.3465-13.8711L66.3465-18.9247Q66.3465-21.6848 67.7453-24.132Q69.144-26.5792 71.2277-29.1671Q73.3114-31.7549 75.3822-34.8942Q77.453-38.0335 78.8459-42.073Q80.2389-46.1125 80.2389-51.5549Q80.2389-61.2766 76.043-68.6389Q71.8471-76.0011 64.3872-80.1482Q56.9272-84.2952 47.0706-84.2952Q37.2398-84.2952 29.7612-80.1482Q22.2826-76.0011 18.0867-68.6389Q13.8908-61.2766 13.8908-51.5549Q13.8908-46.1125 15.2838-42.073Q16.6768-38.0335 18.7476-34.8942Q20.8184-31.7549 22.9021-29.1671Q24.9857-26.5792 26.3845-24.132Q27.7832-21.6848 27.7832-18.9247L27.7832-13.8711Q27.7832-12.0881 28.9402-10.944Q30.0972-9.79988 31.9291-9.79988ZM37.7466-11.7569Q37.7466-14.2548 37.7466-15.7698Q37.7466-17.2848 37.7466-19.6592Q37.7466-23.5133 36.3479-26.5936Q34.9491-29.6738 32.9085-32.4211Q30.8679-35.1684 28.8028-37.9746Q26.7378-40.7809 25.3448-44.0625Q23.9519-47.3442 23.9519-51.5549Q23.9519-58.3909 26.8385-63.4805Q29.7251-68.5701 34.9253-71.3835Q40.1255-74.1969 47.0706-74.1969Q54.0415-74.1969 59.2288-71.3835Q64.4161-68.5701 67.297-63.4805Q70.1779-58.3909 70.1779-51.5549Q70.1779-47.3442 68.7849-44.0625Q67.3919-40.7809 65.3455-37.9746Q63.2992-35.1684 61.2399-32.4211Q59.1806-29.6738 57.7876-26.5936Q56.3947-23.5133 56.3947-19.6592Q56.3947-17.1729 56.3947-15.4714Q56.3947-13.7698 56.3947-11.7569L63.1442-19.3387L30.9855-19.3387ZM47.0706 12.9401Q52.119 12.9401 55.4215 10.7835Q58.7239 8.62683 59.0542 5.13486L35.0871 5.13486Q35.4432 8.62683 38.7083 10.7835Q41.9734 12.9401 47.0706 12.9401ZM31.9906 2.14755L62.1391 2.14755Q64.0374 2.14755 65.3469 0.782027Q66.6565-0.583494 66.6565-2.33251Q66.6565-4.13036 65.3469-5.47723Q64.0374-6.8241 62.1391-6.8241L31.9906-6.8241Q30.1412-6.8241 28.813-5.47723Q27.4848-4.13036 27.4848-2.33251Q27.4848-0.583494 28.813 0.782027Q30.1412 2.14755 31.9906 2.14755Z"/>
  </g>
  <g id="Bold-S" transform="matrix(1 0 0 1 2293.85 696)">
   <path d="M31.3232-10.7666L60.9375-10.7666Q62.5244-10.7666 63.501-11.7432Q64.4775-12.7197 64.4775-14.2578L64.4775-19.7754Q64.4775-22.5098 65.8569-24.9634Q67.2363-27.417 69.2749-30.0049Q71.3135-32.5928 73.3521-35.6934Q75.3906-38.7939 76.7578-42.7368Q78.125-46.6797 78.125-51.9287Q78.125-61.3281 74.0967-68.4326Q70.0684-75.5371 62.8662-79.5166Q55.6641-83.4961 46.1426-83.4961Q36.6211-83.4961 29.4067-79.5166Q22.1924-75.5371 18.1641-68.4326Q14.1357-61.3281 14.1357-51.9287Q14.1357-46.6797 15.5029-42.7368Q16.8701-38.7939 18.9087-35.6934Q20.9473-32.5928 22.9858-30.0049Q25.0244-27.417 26.4038-24.9634Q27.7832-22.5098 27.7832-19.7754L27.7832-14.2578Q27.7832-12.7197 28.7598-11.7432Q29.7363-10.7666 31.3232-10.7666ZM36.5479-13.1104Q36.5479-15.2344 36.5479-16.7236Q36.5479-18.2129 36.5479-20.2393Q36.5479-23.9258 35.1685-26.9287Q33.7891-29.9316 31.7871-32.666Q29.7852-35.4004 27.7588-38.2324Q25.7324-41.0645 24.3652-44.3848Q22.998-47.7051 22.998-51.9287Q22.998-58.7646 25.8911-63.8672Q28.7842-68.9697 33.9844-71.7896Q39.1846-74.6094 46.1426-74.6094Q53.1006-74.6094 58.3008-71.7896Q63.501-68.9697 66.3818-63.8672Q69.2627-58.7646 69.2627-51.9287Q69.2627-47.7051 67.8955-44.3848Q66.5283-41.0645 64.5142-38.2324Q62.5-35.4004 60.4858-32.666Q58.4717-29.9316 57.1045-26.9287Q55.7373-23.9258 55.7373-20.2393Q55.7373-18.1396 55.7373-16.5283Q55.7373-14.917 55.7373-13.1104L61.3525-19.2871L30.9082-19.2871ZM46.1426 11.084Q50.8301 11.084 53.894 9.08203Q56.958 7.08008 57.2754 3.83301L35.0098 3.83301Q35.3271 7.08008 38.3667 9.08203Q41.4062 11.084 46.1426 11.084ZM31.8359 0.78125L60.4248 0.78125Q62.207 0.78125 63.4521-0.500488Q64.6973-1.78223 64.6973-3.4668Q64.6973-5.2002 63.4521-6.46973Q62.207-7.73926 60.4248-7.73926L31.8359-7.73926Q30.1025-7.73926 28.8452-6.46973Q27.5879-5.2002 27.5879-3.4668Q27.5879-1.78223 28.8452-0.500488Q30.1025 0.78125 31.8359 0.78125Z"/>
  </g>
  <g id="Semibold-S" transform="matrix(1 0 0 1 1997.78 696)">
   <path d="M30.9056-11.4331L60.0666-11.4331Q61.4847-11.4331 62.3368-12.2941Q63.189-13.1552 63.189-14.5244L63.189-20.3619Q63.189-23.0785 64.555-25.5366Q65.9211-27.9946 67.9286-30.5825Q69.936-33.1704 71.9524-36.2443Q73.9688-39.3183 75.3182-43.1945Q76.6676-47.0707 76.6676-52.1864Q76.6676-61.3637 72.7548-68.2904Q68.842-75.2172 61.8176-79.0812Q54.7932-82.9451 45.5027-82.9451Q36.1945-82.9451 29.1624-79.0812Q22.1302-75.2172 18.2174-68.2904Q14.3046-61.3637 14.3046-52.1864Q14.3046-47.0707 15.654-43.1945Q17.0034-39.3183 19.0198-36.2443Q21.0361-33.1704 23.0436-30.5825Q25.0511-27.9946 26.4171-25.5366Q27.7832-23.0785 27.7832-20.3619L27.7832-14.5244Q27.7832-13.1552 28.6354-12.2941Q29.4875-11.4331 30.9056-11.4331ZM35.7214-14.0435Q35.7214-15.9098 35.7214-17.3813Q35.7214-18.8527 35.7214-20.6392Q35.7214-24.2102 34.3553-27.1598Q32.9893-30.1094 31.014-32.8349Q29.0387-35.5604 27.039-38.4102Q25.0393-41.26 23.6898-44.6069Q22.3404-47.9539 22.3404-52.1864Q22.3404-59.0224 25.2379-64.1338Q28.1354-69.2452 33.3356-72.0695Q38.5358-74.8937 45.5027-74.8937Q52.4519-74.8937 57.6609-72.0695Q62.87-69.2452 65.7509-64.1338Q68.6317-59.0224 68.6317-52.1864Q68.6317-47.9539 67.2823-44.6069Q65.9329-41.26 63.941-38.4102Q61.949-35.5604 59.966-32.8349Q57.9829-30.1094 56.6335-27.1598Q55.2841-24.2102 55.2841-20.6392Q55.2841-18.8062 55.2841-17.257Q55.2841-15.7079 55.2841-14.0435L60.1173-19.2516L30.8549-19.2516ZM45.5027 9.8043Q49.9414 9.8043 52.841 7.90898Q55.7405 6.01367 56.049 2.93545L34.9564 2.93545Q35.2472 6.01367 38.1312 7.90898Q41.0152 9.8043 45.5027 9.8043ZM31.7293-0.160742L59.2429-0.160742Q60.9451-0.160742 62.1458-1.38472Q63.3465-2.60869 63.3465-4.24883Q63.3465-5.93779 62.1458-7.154Q60.9451-8.37021 59.2429-8.37021L31.7293-8.37021Q30.0759-8.37021 28.8674-7.154Q27.659-5.93779 27.659-4.24883Q27.659-2.60869 28.8674-1.38472Q30.0759-0.160742 31.7293-0.160742Z"/>
  </g>
  <g id="Medium-S" transform="matrix(1 0 0 1 1701.56 696)">
   <path d="M30.5889-11.9385L59.4062-11.9385Q60.6963-11.9385 61.4541-12.7119Q62.2119-13.4854 62.2119-14.7266L62.2119-20.8066Q62.2119-23.5098 63.5679-25.9712Q64.9238-28.4326 66.9077-31.0205Q68.8916-33.6084 70.8911-36.6621Q72.8906-39.7158 74.2266-43.5415Q75.5625-47.3672 75.5625-52.3818Q75.5625-61.3906 71.7373-68.1826Q67.9121-74.9746 61.0225-78.751Q54.1328-82.5273 45.0176-82.5273Q35.8711-82.5273 28.9771-78.751Q22.083-74.9746 18.2578-68.1826Q14.4326-61.3906 14.4326-52.3818Q14.4326-47.3672 15.7686-43.5415Q17.1045-39.7158 19.104-36.6621Q21.1035-33.6084 23.0874-31.0205Q25.0713-28.4326 26.4272-25.9712Q27.7832-23.5098 27.7832-20.8066L27.7832-14.7266Q27.7832-13.4854 28.541-12.7119Q29.2988-11.9385 30.5889-11.9385ZM35.0947-14.751Q35.0947-16.4219 35.0947-17.8799Q35.0947-19.3379 35.0947-20.9424Q35.0947-24.4258 33.7388-27.335Q32.3828-30.2441 30.4277-32.9629Q28.4727-35.6816 26.4932-38.5449Q24.5137-41.4082 23.1777-44.7754Q21.8418-48.1426 21.8418-52.3818Q21.8418-59.2178 24.7427-64.3359Q27.6436-69.4541 32.8438-72.2817Q38.0439-75.1094 45.0176-75.1094Q51.96-75.1094 57.1758-72.2817Q62.3916-69.4541 65.2725-64.3359Q68.1533-59.2178 68.1533-52.3818Q68.1533-48.1426 66.8174-44.7754Q65.4814-41.4082 63.5063-38.5449Q61.5312-35.6816 59.5718-32.9629Q57.6123-30.2441 56.2764-27.335Q54.9404-24.4258 54.9404-20.9424Q54.9404-19.3115 54.9404-17.8096Q54.9404-16.3076 54.9404-14.751L59.1807-19.2246L30.8145-19.2246ZM45.0176 8.83398Q49.2676 8.83398 52.0425 7.01953Q54.8174 5.20508 55.1191 2.25488L34.916 2.25488Q35.1865 5.20508 37.9526 7.01953Q40.7188 8.83398 45.0176 8.83398ZM31.6484-0.875L58.3467-0.875Q59.9883-0.875 61.1553-2.05518Q62.3223-3.23535 62.3223-4.8418Q62.3223-6.49707 61.1553-7.67285Q59.9883-8.84863 58.3467-8.84863L31.6484-8.84863Q30.0557-8.84863 28.8843-7.67285Q27.7129-6.49707 27.7129-4.8418Q27.7129-3.23535 28.8843-2.05518Q30.0557-0.875 31.6484-0.875Z"/>
  </g>
  <g id="Regular-S" transform="matrix(1 0 0 1 1405.48 696)">
   <path d="M30.1758-12.5977L58.5449-12.5977Q59.668-12.5977 60.3027-13.2568Q60.9375-13.916 60.9375-14.9902L60.9375-21.3867Q60.9375-24.0723 62.2803-26.5381Q63.623-29.0039 65.5762-31.5918Q67.5293-34.1797 69.5068-37.207Q71.4844-40.2344 72.8027-43.9941Q74.1211-47.7539 74.1211-52.6367Q74.1211-61.4258 70.4102-68.042Q66.6992-74.6582 59.9854-78.3203Q53.2715-81.9824 44.3848-81.9824Q35.4492-81.9824 28.7354-78.3203Q22.0215-74.6582 18.3105-68.042Q14.5996-61.4258 14.5996-52.6367Q14.5996-47.7539 15.918-43.9941Q17.2363-40.2344 19.2139-37.207Q21.1914-34.1797 23.1445-31.5918Q25.0977-29.0039 26.4404-26.5381Q27.7832-24.0723 27.7832-21.3867L27.7832-14.9902Q27.7832-13.916 28.418-13.2568Q29.0527-12.5977 30.1758-12.5977ZM34.2773-15.6738Q34.2773-17.0898 34.2773-18.5303Q34.2773-19.9707 34.2773-21.3379Q34.2773-24.707 32.9346-27.5635Q31.5918-30.4199 29.6631-33.1299Q27.7344-35.8398 25.7812-38.7207Q23.8281-41.6016 22.5098-44.9951Q21.1914-48.3887 21.1914-52.6367Q21.1914-59.4727 24.0967-64.5996Q27.002-69.7266 32.2021-72.5586Q37.4023-75.3906 44.3848-75.3906Q51.3184-75.3906 56.543-72.5586Q61.7676-69.7266 64.6484-64.5996Q67.5293-59.4727 67.5293-52.6367Q67.5293-48.3887 66.2109-44.9951Q64.8926-41.6016 62.9395-38.7207Q60.9863-35.8398 59.0576-33.1299Q57.1289-30.4199 55.8105-27.5635Q54.4922-24.707 54.4922-21.3379Q54.4922-19.9707 54.4922-18.5303Q54.4922-17.0898 54.4922-15.6738L57.959-19.1895L30.7617-19.1895ZM44.3848 7.56836Q48.3887 7.56836 51.001 5.85938Q53.6133 4.15039 53.9062 1.36719L34.8633 1.36719Q35.1074 4.15039 37.7197 5.85938Q40.332 7.56836 44.3848 7.56836ZM31.543-1.80664L57.1777-1.80664Q58.7402-1.80664 59.8633-2.92969Q60.9863-4.05273 60.9863-5.61523Q60.9863-7.22656 59.8633-8.34961Q58.7402-9.47266 57.1777-9.47266L31.543-9.47266Q30.0293-9.47266 28.9062-8.34961Q27.7832-7.22656 27.7832-5.61523Q27.7832-4.05273 28.9062-2.92969Q30.0293-1.80664 31.543-1.80664Z"/>
  </g>
  <g id="Light-S" transform="matrix(1 0 0 1 1109.67 696)">
   <path d="M29.8991-12.4186L57.015-12.4186Q57.8939-12.4186 58.3903-12.9395Q58.8867-13.4603 58.8867-14.3392L58.8867-20.2148Q58.8867-23.0957 60.2702-25.651Q61.6536-28.2064 63.68-30.835Q65.7064-33.4635 67.7572-36.5397Q69.8079-39.6159 71.1751-43.4652Q72.5423-47.3145 72.5423-52.36Q72.5423-60.9863 68.9209-67.4723Q65.2995-73.9583 58.7402-77.5553Q52.181-81.1523 43.4733-81.1523Q34.7331-81.1523 28.182-77.5553Q21.6309-73.9583 18.0013-67.4723Q14.3717-60.9863 14.3717-52.36Q14.3717-47.3145 15.7471-43.4652Q17.1224-39.6159 19.165-36.5397Q21.2077-33.4635 23.234-30.835Q25.2604-28.2064 26.652-25.651Q28.0436-23.0957 28.0436-20.2148L28.0436-14.3392Q28.0436-13.4603 28.54-12.9395Q29.0365-12.4186 29.8991-12.4186ZM33.0892-14.7624Q33.0892-16.097 33.0892-17.4398Q33.0892-18.7826 33.0892-20.0846Q33.0892-23.4701 31.7057-26.3672Q30.3223-29.2643 28.3122-32.0475Q26.3021-34.8307 24.2676-37.8255Q22.2331-40.8203 20.8659-44.3522Q19.4987-47.8841 19.4987-52.3438Q19.4987-59.4564 22.5016-64.7868Q25.5046-70.1172 30.8838-73.0713Q36.263-76.0254 43.4733-76.0254Q50.651-76.0254 56.0547-73.0713Q61.4583-70.1172 64.4368-64.7868Q67.4154-59.4564 67.4154-52.3438Q67.4154-47.8841 66.0482-44.3522Q64.681-40.8203 62.6546-37.8255Q60.6283-34.8307 58.61-32.0475Q56.5918-29.2643 55.2246-26.3672Q53.8574-23.4701 53.8574-20.0846Q53.8574-18.7826 53.8574-17.4398Q53.8574-16.097 53.8574-14.7624L56.5918-17.5456L30.3223-17.5456ZM43.457 6.57552Q47.3633 6.57552 49.9105 4.90723Q52.4577 3.23893 52.7344 0.537109L34.2122 0.537109Q34.4401 3.23893 36.9873 4.90723Q39.5345 6.57552 43.457 6.57552ZM31.3477-2.55534L55.5501-2.55534Q56.9499-2.55534 57.9346-3.54818Q58.9193-4.54102 58.9193-5.94076Q58.9193-7.37305 57.9346-8.36589Q56.9499-9.35872 55.5501-9.35872L31.3477-9.35872Q29.9805-9.35872 29.0039-8.36589Q28.0273-7.37305 28.0273-5.94076Q28.0273-4.54102 29.0039-3.54818Q29.9805-2.55534 31.3477-2.55534Z"/>
  </g>
  <g id="Thin-S" transform="matrix(1 0 0 1 814.154 696)">
   <path d="M29.5331-12.1818L54.9915-12.1818Q55.5475-12.1818 55.861-12.5197Q56.1744-12.8575 56.1744-13.4781L56.1744-18.6649Q56.1744-21.8041 57.6117-24.4779Q59.049-27.1516 61.1722-29.834Q63.2954-32.5164 65.4431-35.6571Q67.5907-38.7979 69.0225-42.7656Q70.4543-46.7332 70.4543-51.9941Q70.4543-60.4051 66.9512-66.7189Q63.4482-73.0327 57.0935-76.5436Q50.7387-80.0545 42.2678-80.0545Q33.7859-80.0545 27.4501-76.5436Q21.1142-73.0327 17.5923-66.7189Q14.0704-60.4051 14.0704-51.9941Q14.0704-46.7332 15.521-42.7656Q16.9717-38.7979 19.1005-35.6571Q21.2292-32.5164 23.3524-29.834Q25.4757-27.1516 26.9319-24.4779Q28.388-21.8041 28.388-18.6649L28.388-13.4781Q28.388-12.8575 28.7015-12.5197Q29.0149-12.1818 29.5331-12.1818ZM31.5178-13.5569Q31.5178-14.7839 31.5178-15.9975Q31.5178-17.2111 31.5178-18.4271Q31.5178-21.834 30.0805-24.785Q28.6432-27.736 26.5255-30.616Q24.4078-33.4961 22.2656-36.6416Q20.1235-39.787 18.6917-43.5019Q17.26-47.2168 17.26-51.9563Q17.26-59.4349 20.392-65.0343Q23.5241-70.6338 29.1402-73.7494Q34.7562-76.8649 42.2678-76.8649Q49.7685-76.8649 55.4089-73.7494Q61.0493-70.6338 64.157-65.0343Q67.2647-59.4349 67.2647-51.9563Q67.2647-47.2168 65.8329-43.5019Q64.4011-39.787 62.2779-36.6416Q60.1547-33.4961 58.0181-30.616Q55.8814-27.736 54.4497-24.785Q53.0179-21.834 53.0179-18.4271Q53.0179-17.2111 53.0179-15.9975Q53.0179-14.7839 53.0179-13.5569L54.7836-15.3714L29.7411-15.3714ZM42.23 5.26241Q46.0071 5.26241 48.4682 3.64793Q50.9293 2.03346 51.1845-0.560736L33.3512-0.560736Q33.5575 2.03346 36.0186 3.64793Q38.4797 5.26241 42.23 5.26241ZM31.0893-3.54555L53.3975-3.54555Q54.582-3.54555 55.3837-4.36618Q56.1854-5.18681 56.1854-6.37128Q56.1854-7.56678 55.3837-8.38741Q54.582-9.20804 53.3975-9.20804L31.0893-9.20804Q29.9159-9.20804 29.1331-8.38741Q28.3502-7.56678 28.3502-6.37128Q28.3502-5.18681 29.1331-4.36618Q29.9159-3.54555 31.0893-3.54555Z"/>
  </g>
  <g id="Ultralight-S" transform="matrix(1 0 0 1 518.053 696)">
   <path d="M29.3457-12.0605L53.9551-12.0605Q54.3457-12.0605 54.5654-12.3047Q54.7852-12.5488 54.7852-13.0371L54.7852-17.8711Q54.7852-21.1426 56.25-23.877Q57.7148-26.6113 59.8877-29.3213Q62.0605-32.0312 64.2578-35.2051Q66.4551-38.3789 67.9199-42.4072Q69.3848-46.4355 69.3848-51.8066Q69.3848-60.1074 65.9424-66.333Q62.5-72.5586 56.25-76.0254Q50-79.4922 41.6504-79.4922Q33.3008-79.4922 27.0752-76.0254Q20.8496-72.5586 17.3828-66.333Q13.916-60.1074 13.916-51.8066Q13.916-46.4355 15.4053-42.4072Q16.8945-38.3789 19.0674-35.2051Q21.2402-32.0312 23.4131-29.3213Q25.5859-26.6113 27.0752-23.877Q28.5645-21.1426 28.5645-17.8711L28.5645-13.0371Q28.5645-12.5488 28.7842-12.3047Q29.0039-12.0605 29.3457-12.0605ZM30.7129-12.9395Q30.7129-14.1113 30.7129-15.2588Q30.7129-16.4062 30.7129-17.5781Q30.7129-20.9961 29.248-23.9746Q27.7832-26.9531 25.6104-29.8828Q23.4375-32.8125 21.2402-36.0352Q19.043-39.2578 17.5781-43.0664Q16.1133-46.875 16.1133-51.7578Q16.1133-59.4238 19.3115-65.1611Q22.5098-70.8984 28.2471-74.0967Q33.9844-77.2949 41.6504-77.2949Q49.3164-77.2949 55.0781-74.0967Q60.8398-70.8984 64.0137-65.1611Q67.1875-59.4238 67.1875-51.7578Q67.1875-46.875 65.7227-43.0664Q64.2578-39.2578 62.085-36.0352Q59.9121-32.8125 57.7148-29.8828Q55.5176-26.9531 54.0527-23.9746Q52.5879-20.9961 52.5879-17.5781Q52.5879-16.4062 52.5879-15.2588Q52.5879-14.1113 52.5879-12.9395L53.8574-14.2578L29.4434-14.2578ZM41.6016 4.58984Q45.3125 4.58984 47.7295 3.00293Q50.1465 1.41602 50.3906-1.12305L32.9102-1.12305Q33.1055 1.41602 35.5225 3.00293Q37.9395 4.58984 41.6016 4.58984ZM30.957-4.05273L52.2949-4.05273Q53.3691-4.05273 54.0771-4.78516Q54.7852-5.51758 54.7852-6.5918Q54.7852-7.66602 54.0771-8.39844Q53.3691-9.13086 52.2949-9.13086L30.957-9.13086Q29.8828-9.13086 29.1992-8.39844Q28.5156-7.66602 28.5156-6.5918Q28.5156-5.51758 29.1992-4.78516Q29.8828-4.05273 30.957-4.05273Z"/>
  </g>
 </g>
</svg>
