<?xml version="1.0" encoding="UTF-8"?>
<!--Generator: Apple Native CoreSVG 175.5-->
<!DOCTYPE svg
PUBLIC "-//W3C//DTD SVG 1.1//EN"
       "http://www.w3.org/Graphics/SVG/1.1/DTD/svg11.dtd">
<svg version="1.1" xmlns="http://www.w3.org/2000/svg" xmlns:xlink="http://www.w3.org/1999/xlink" width="3300" height="2200">
 <!--glyph: "uni10063D.medium", point size: 100.0, font version: "18.0d9e1", template writer version: "84"-->
 <g id="Notes">
  <rect height="2200" id="artboard" style="fill:white;opacity:1" width="3300" x="0" y="0"/>
  <line style="fill:none;stroke:black;opacity:1;stroke-width:0.5;" x1="263" x2="3036" y1="292" y2="292"/>
  <text style="stroke:none;fill:black;font-family:sans-serif;font-size:13;font-weight:bold;" transform="matrix(1 0 0 1 263 322)">Weight/Scale Variations</text>
  <text style="stroke:none;fill:black;font-family:sans-serif;font-size:13;text-anchor:middle;" transform="matrix(1 0 0 1 559.711 322)">Ultralight</text>
  <text style="stroke:none;fill:black;font-family:sans-serif;font-size:13;text-anchor:middle;" transform="matrix(1 0 0 1 856.422 322)">Thin</text>
  <text style="stroke:none;fill:black;font-family:sans-serif;font-size:13;text-anchor:middle;" transform="matrix(1 0 0 1 1153.13 322)">Light</text>
  <text style="stroke:none;fill:black;font-family:sans-serif;font-size:13;text-anchor:middle;" transform="matrix(1 0 0 1 1449.84 322)">Regular</text>
  <text style="stroke:none;fill:black;font-family:sans-serif;font-size:13;text-anchor:middle;" transform="matrix(1 0 0 1 1746.56 322)">Medium</text>
  <text style="stroke:none;fill:black;font-family:sans-serif;font-size:13;text-anchor:middle;" transform="matrix(1 0 0 1 2043.27 322)">Semibold</text>
  <text style="stroke:none;fill:black;font-family:sans-serif;font-size:13;text-anchor:middle;" transform="matrix(1 0 0 1 2339.98 322)">Bold</text>
  <text style="stroke:none;fill:black;font-family:sans-serif;font-size:13;text-anchor:middle;" transform="matrix(1 0 0 1 2636.69 322)">Heavy</text>
  <text style="stroke:none;fill:black;font-family:sans-serif;font-size:13;text-anchor:middle;" transform="matrix(1 0 0 1 2933.4 322)">Black</text>
  <line style="fill:none;stroke:black;opacity:1;stroke-width:0.5;" x1="263" x2="3036" y1="1903" y2="1903"/>
  <g transform="matrix(1 0 0 1 263 1933)">
   <path d="M9.24805 0.830078Q10.8691 0.830078 12.2949 0.214844Q13.7207-0.400391 14.8096-1.49414Q15.8984-2.58789 16.5186-4.01367Q17.1387-5.43945 17.1387-7.05078Q17.1387-8.66211 16.5186-10.0879Q15.8984-11.5137 14.8047-12.6074Q13.7109-13.7012 12.2852-14.3164Q10.8594-14.9316 9.23828-14.9316Q7.62695-14.9316 6.20117-14.3164Q4.77539-13.7012 3.69141-12.6074Q2.60742-11.5137 1.9873-10.0879Q1.36719-8.66211 1.36719-7.05078Q1.36719-5.43945 1.9873-4.01367Q2.60742-2.58789 3.69629-1.49414Q4.78516-0.400391 6.21094 0.214844Q7.63672 0.830078 9.24805 0.830078ZM9.24805-0.654297Q7.91992-0.654297 6.7627-1.14746Q5.60547-1.64062 4.73145-2.51953Q3.85742-3.39844 3.36426-4.56055Q2.87109-5.72266 2.87109-7.05078Q2.87109-8.37891 3.35938-9.54102Q3.84766-10.7031 4.72168-11.582Q5.5957-12.4609 6.75293-12.9541Q7.91016-13.4473 9.23828-13.4473Q10.5762-13.4473 11.7383-12.9541Q12.9004-12.4609 13.7793-11.582Q14.6582-10.7031 15.1514-9.54102Q15.6445-8.37891 15.6445-7.05078Q15.6445-5.72266 15.1514-4.56055Q14.6582-3.39844 13.7793-2.51953Q12.9004-1.64062 11.7432-1.14746Q10.5859-0.654297 9.24805-0.654297ZM5.6543-7.05078Q5.6543-6.72852 5.85938-6.52832Q6.06445-6.32812 6.40625-6.32812L8.51562-6.32812L8.51562-4.20898Q8.51562-3.88672 8.71094-3.67676Q8.90625-3.4668 9.23828-3.4668Q9.56055-3.4668 9.77051-3.67676Q9.98047-3.88672 9.98047-4.20898L9.98047-6.32812L12.0898-6.32812Q12.4219-6.32812 12.627-6.52832Q12.832-6.72852 12.832-7.05078Q12.832-7.38281 12.627-7.58789Q12.4219-7.79297 12.0898-7.79297L9.98047-7.79297L9.98047-9.90234Q9.98047-10.2344 9.77051-10.4443Q9.56055-10.6543 9.23828-10.6543Q8.90625-10.6543 8.71094-10.4443Q8.51562-10.2344 8.51562-9.90234L8.51562-7.79297L6.40625-7.79297Q6.06445-7.79297 5.85938-7.58789Q5.6543-7.38281 5.6543-7.05078Z"/>
  </g>
  <g transform="matrix(1 0 0 1 281.867 1933)">
   <path d="M11.709 2.91016Q13.75 2.91016 15.5518 2.12891Q17.3535 1.34766 18.7305-0.0292969Q20.1074-1.40625 20.8887-3.20801Q21.6699-5.00977 21.6699-7.05078Q21.6699-9.0918 20.8887-10.8936Q20.1074-12.6953 18.7305-14.0723Q17.3535-15.4492 15.5469-16.2305Q13.7402-17.0117 11.6992-17.0117Q9.6582-17.0117 7.85645-16.2305Q6.05469-15.4492 4.68262-14.0723Q3.31055-12.6953 2.5293-10.8936Q1.74805-9.0918 1.74805-7.05078Q1.74805-5.00977 2.5293-3.20801Q3.31055-1.40625 4.6875-0.0292969Q6.06445 1.34766 7.86621 2.12891Q9.66797 2.91016 11.709 2.91016ZM11.709 1.25Q9.98047 1.25 8.47656 0.605469Q6.97266-0.0390625 5.83496-1.17676Q4.69727-2.31445 4.05762-3.81836Q3.41797-5.32227 3.41797-7.05078Q3.41797-8.7793 4.05762-10.2832Q4.69727-11.7871 5.83008-12.9297Q6.96289-14.0723 8.4668-14.7119Q9.9707-15.3516 11.6992-15.3516Q13.4277-15.3516 14.9365-14.7119Q16.4453-14.0723 17.583-12.9297Q18.7207-11.7871 19.3652-10.2832Q20.0098-8.7793 20.0098-7.05078Q20.0098-5.32227 19.3701-3.81836Q18.7305-2.31445 17.5879-1.17676Q16.4453-0.0390625 14.9414 0.605469Q13.4375 1.25 11.709 1.25ZM7.17773-7.05078Q7.17773-6.69922 7.41211-6.47461Q7.64648-6.25 8.01758-6.25L10.8887-6.25L10.8887-3.36914Q10.8887-2.99805 11.1133-2.76855Q11.3379-2.53906 11.6895-2.53906Q12.0605-2.53906 12.29-2.76855Q12.5195-2.99805 12.5195-3.36914L12.5195-6.25L15.4004-6.25Q15.7715-6.25 16.001-6.47461Q16.2305-6.69922 16.2305-7.05078Q16.2305-7.42188 16.001-7.65137Q15.7715-7.88086 15.4004-7.88086L12.5195-7.88086L12.5195-10.752Q12.5195-11.1328 12.29-11.3623Q12.0605-11.5918 11.6895-11.5918Q11.3379-11.5918 11.1133-11.3574Q10.8887-11.123 10.8887-10.752L10.8887-7.88086L8.01758-7.88086Q7.63672-7.88086 7.40723-7.65137Q7.17773-7.42188 7.17773-7.05078Z"/>
  </g>
  <g transform="matrix(1 0 0 1 305.646 1933)">
   <path d="M14.9707 5.66406Q17.0605 5.66406 18.96 5.01465Q20.8594 4.36523 22.4512 3.19336Q24.043 2.02148 25.2197 0.429688Q26.3965-1.16211 27.0459-3.06641Q27.6953-4.9707 27.6953-7.05078Q27.6953-9.14062 27.0459-11.04Q26.3965-12.9395 25.2197-14.5312Q24.043-16.123 22.4512-17.2998Q20.8594-18.4766 18.9551-19.126Q17.0508-19.7754 14.9609-19.7754Q12.8711-19.7754 10.9717-19.126Q9.07227-18.4766 7.48535-17.2998Q5.89844-16.123 4.72168-14.5312Q3.54492-12.9395 2.90039-11.04Q2.25586-9.14062 2.25586-7.05078Q2.25586-4.9707 2.90527-3.06641Q3.55469-1.16211 4.72656 0.429688Q5.89844 2.02148 7.49023 3.19336Q9.08203 4.36523 10.9814 5.01465Q12.8809 5.66406 14.9707 5.66406ZM14.9707 3.84766Q13.1641 3.84766 11.5283 3.2959Q9.89258 2.74414 8.53516 1.74805Q7.17773 0.751953 6.17676-0.610352Q5.17578-1.97266 4.62891-3.6084Q4.08203-5.24414 4.08203-7.05078Q4.08203-8.86719 4.62891-10.5029Q5.17578-12.1387 6.17188-13.501Q7.16797-14.8633 8.52539-15.8594Q9.88281-16.8555 11.5186-17.4023Q13.1543-17.9492 14.9609-17.9492Q16.7773-17.9492 18.4131-17.4023Q20.0488-16.8555 21.4111-15.8594Q22.7734-14.8633 23.7744-13.501Q24.7754-12.1387 25.3223-10.5029Q25.8691-8.86719 25.8691-7.05078Q25.8691-5.24414 25.3223-3.6084Q24.7754-1.97266 23.7793-0.610352Q22.7832 0.751953 21.4209 1.74805Q20.0586 2.74414 18.4229 3.2959Q16.7871 3.84766 14.9707 3.84766ZM9.19922-7.05078Q9.19922-6.66992 9.45801-6.4209Q9.7168-6.17188 10.1172-6.17188L14.0625-6.17188L14.0625-2.2168Q14.0625-1.81641 14.3115-1.55762Q14.5605-1.29883 14.9512-1.29883Q15.3516-1.29883 15.6104-1.55273Q15.8691-1.80664 15.8691-2.2168L15.8691-6.17188L19.8242-6.17188Q20.2246-6.17188 20.4785-6.4209Q20.7324-6.66992 20.7324-7.05078Q20.7324-7.46094 20.4785-7.71484Q20.2246-7.96875 19.8242-7.96875L15.8691-7.96875L15.8691-11.9141Q15.8691-12.3242 15.6104-12.583Q15.3516-12.8418 14.9512-12.8418Q14.5605-12.8418 14.3115-12.583Q14.0625-12.3242 14.0625-11.9141L14.0625-7.96875L10.1172-7.96875Q9.70703-7.96875 9.45312-7.71484Q9.19922-7.46094 9.19922-7.05078Z"/>
  </g>
  <text style="stroke:none;fill:black;font-family:sans-serif;font-size:13;font-weight:bold;" transform="matrix(1 0 0 1 263 1953)">Design Variations</text>
  <text style="stroke:none;fill:black;font-family:sans-serif;font-size:13;" transform="matrix(1 0 0 1 263 1971)">Symbols are supported in up to nine weights and three scales.</text>
  <text style="stroke:none;fill:black;font-family:sans-serif;font-size:13;" transform="matrix(1 0 0 1 263 1989)">For optimal layout with text and other symbols, vertically align</text>
  <text style="stroke:none;fill:black;font-family:sans-serif;font-size:13;" transform="matrix(1 0 0 1 263 2007)">symbols with the adjacent text.</text>
  <line style="fill:none;stroke:#00AEEF;stroke-width:0.5;opacity:1.0;" x1="776" x2="776" y1="1919" y2="1933"/>
  <g transform="matrix(1 0 0 1 776 1933)">
   <path d="M3.31055 0.15625Q3.70117 0.15625 3.91602-0.00976562Q4.13086-0.175781 4.26758-0.585938L5.52734-4.0332L11.2891-4.0332L12.5488-0.585938Q12.6855-0.175781 12.9004-0.00976562Q13.1152 0.15625 13.4961 0.15625Q13.8867 0.15625 14.1162-0.0585938Q14.3457-0.273438 14.3457-0.644531Q14.3457-0.869141 14.2383-1.17188L9.6582-13.3691Q9.48242-13.8184 9.17969-14.043Q8.87695-14.2676 8.4082-14.2676Q7.5-14.2676 7.17773-13.3789L2.59766-1.16211Q2.49023-0.859375 2.49023-0.634766Q2.49023-0.263672 2.70996-0.0537109Q2.92969 0.15625 3.31055 0.15625ZM6.00586-5.51758L8.37891-12.0898L8.42773-12.0898L10.8008-5.51758Z"/>
  </g>
  <line style="fill:none;stroke:#00AEEF;stroke-width:0.5;opacity:1.0;" x1="793.197" x2="793.197" y1="1919" y2="1933"/>
  <text style="stroke:none;fill:black;font-family:sans-serif;font-size:13;font-weight:bold;" transform="matrix(1 0 0 1 776 1953)">Margins</text>
  <text style="stroke:none;fill:black;font-family:sans-serif;font-size:13;" transform="matrix(1 0 0 1 776 1971)">Leading and trailing margins on the left and right side of each symbol</text>
  <text style="stroke:none;fill:black;font-family:sans-serif;font-size:13;" transform="matrix(1 0 0 1 776 1989)">can be adjusted by modifying the x-location of the margin guidelines.</text>
  <text style="stroke:none;fill:black;font-family:sans-serif;font-size:13;" transform="matrix(1 0 0 1 776 2007)">Modifications are automatically applied proportionally to all</text>
  <text style="stroke:none;fill:black;font-family:sans-serif;font-size:13;" transform="matrix(1 0 0 1 776 2025)">scales and weights.</text>
  <g transform="matrix(1 0 0 1 1289 1933)">
   <path d="M2.8418 1.86523L4.54102 3.57422Q5.18555 4.22852 5.90332 4.17969Q6.62109 4.13086 7.31445 3.35938L18.0078-8.42773L17.041-9.4043L6.42578 2.27539Q6.16211 2.57812 5.89355 2.61719Q5.625 2.65625 5.27344 2.30469L4.10156 1.14258Q3.75 0.791016 3.79395 0.522461Q3.83789 0.253906 4.14062-0.0195312L15.6152-10.8203L14.6387-11.7871L3.04688-0.898438Q2.30469-0.214844 2.25098 0.498047Q2.19727 1.21094 2.8418 1.86523ZM9.25781-16.3281Q8.94531-16.0254 8.90625-15.6348Q8.86719-15.2441 9.04297-14.9512Q9.21875-14.6777 9.55566-14.541Q9.89258-14.4043 10.3809-14.5215Q11.4746-14.7754 12.5977-14.7314Q13.7207-14.6875 14.7949-13.9844L14.209-12.5293Q13.9551-11.9043 14.0674-11.4404Q14.1797-10.9766 14.5801-10.5664L16.875-8.25195Q17.2363-7.88086 17.5781-7.82227Q17.9199-7.76367 18.3398-7.8418L19.4043-8.03711L20.0684-7.36328L20.0293-6.80664Q20-6.43555 20.1221-6.12305Q20.2441-5.81055 20.6055-5.44922L21.3672-4.70703Q21.7285-4.3457 22.1533-4.33105Q22.5781-4.31641 22.9297-4.66797L25.8398-7.58789Q26.1914-7.93945 26.1816-8.35449Q26.1719-8.76953 25.8105-9.13086L25.0391-9.89258Q24.6875-10.2539 24.3799-10.3857Q24.0723-10.5176 23.7109-10.4883L23.1348-10.4395L22.4902-11.0742L22.7344-12.1973Q22.832-12.6172 22.6953-12.9834Q22.5586-13.3496 22.1191-13.7891L19.9219-15.9766Q18.6719-17.2168 17.2607-17.8369Q15.8496-18.457 14.4189-18.4814Q12.9883-18.5059 11.665-17.959Q10.3418-17.4121 9.25781-16.3281ZM10.752-15.957Q11.6602-16.6211 12.7002-16.9043Q13.7402-17.1875 14.8047-17.085Q15.8691-16.9824 16.8701-16.5137Q17.8711-16.0449 18.7012-15.2051L21.1328-12.793Q21.3086-12.6172 21.3525-12.4512Q21.3965-12.2852 21.3379-12.0312L21.0156-10.5469L22.5195-9.0625L23.5059-9.12109Q23.6914-9.13086 23.7891-9.09668Q23.8867-9.0625 24.0332-8.91602L24.6094-8.33984L22.168-5.89844L21.5918-6.47461Q21.4453-6.62109 21.4062-6.71875Q21.3672-6.81641 21.377-7.01172L21.4453-7.98828L19.9512-9.47266L18.4277-9.21875Q18.1836-9.16992 18.042-9.2041Q17.9004-9.23828 17.7148-9.41406L15.7129-11.416Q15.5176-11.5918 15.4932-11.7529Q15.4688-11.9141 15.5859-12.1875L16.4648-14.2773Q15.293-15.3711 13.8281-15.791Q12.3633-16.2109 10.8398-15.7617Q10.7227-15.7324 10.6885-15.8057Q10.6543-15.8789 10.752-15.957Z"/>
  </g>
  <text style="stroke:none;fill:black;font-family:sans-serif;font-size:13;font-weight:bold;" transform="matrix(1 0 0 1 1289 1953)">Exporting</text>
  <text style="stroke:none;fill:black;font-family:sans-serif;font-size:13;" transform="matrix(1 0 0 1 1289 1971)">Symbols should be outlined when exporting to ensure the</text>
  <text style="stroke:none;fill:black;font-family:sans-serif;font-size:13;" transform="matrix(1 0 0 1 1289 1989)">design is preserved when submitting to Xcode.</text>
  <text id="template-version" style="stroke:none;fill:black;font-family:sans-serif;font-size:13;text-anchor:end;" transform="matrix(1 0 0 1 3036 1933)">Template v.2.0</text>
  <text style="stroke:none;fill:black;font-family:sans-serif;font-size:13;text-anchor:end;" transform="matrix(1 0 0 1 3036 1951)">Requires Xcode 12 or greater</text>
  <text id="descriptive-name" style="stroke:none;fill:black;font-family:sans-serif;font-size:13;text-anchor:end;" transform="matrix(1 0 0 1 3036 1969)">Generated from sum</text>
  <text style="stroke:none;fill:black;font-family:sans-serif;font-size:13;text-anchor:end;" transform="matrix(1 0 0 1 3036 1987)">Typeset at 100 points</text>
  <text style="stroke:none;fill:black;font-family:sans-serif;font-size:13;" transform="matrix(1 0 0 1 263 726)">Small</text>
  <text style="stroke:none;fill:black;font-family:sans-serif;font-size:13;" transform="matrix(1 0 0 1 263 1156)">Medium</text>
  <text style="stroke:none;fill:black;font-family:sans-serif;font-size:13;" transform="matrix(1 0 0 1 263 1586)">Large</text>
 </g>
 <g id="Guides">
  <g id="H-reference" style="fill:#27AAE1;stroke:none;" transform="matrix(1 0 0 1 339 696)">
   <path d="M0.993347 0L3.6377 0L29.3282-67.1326L30.0301-67.1326L30.0301-70.459L28.1227-70.459ZM11.6882-24.4797L46.9818-24.4797L46.2311-26.7288L12.4382-26.7288ZM55.1193 0L57.7637 0L30.6381-70.459L29.4327-70.459L29.4327-67.1326Z"/>
  </g>
  <line id="Baseline-S" style="fill:none;stroke:#27AAE1;opacity:1;stroke-width:0.5;" x1="263" x2="3036" y1="696" y2="696"/>
  <line id="Capline-S" style="fill:none;stroke:#27AAE1;opacity:1;stroke-width:0.5;" x1="263" x2="3036" y1="625.541" y2="625.541"/>
  <g id="H-reference" style="fill:#27AAE1;stroke:none;" transform="matrix(1 0 0 1 339 1126)">
   <path d="M0.993347 0L3.6377 0L29.3282-67.1326L30.0301-67.1326L30.0301-70.459L28.1227-70.459ZM11.6882-24.4797L46.9818-24.4797L46.2311-26.7288L12.4382-26.7288ZM55.1193 0L57.7637 0L30.6381-70.459L29.4327-70.459L29.4327-67.1326Z"/>
  </g>
  <line id="Baseline-M" style="fill:none;stroke:#27AAE1;opacity:1;stroke-width:0.5;" x1="263" x2="3036" y1="1126" y2="1126"/>
  <line id="Capline-M" style="fill:none;stroke:#27AAE1;opacity:1;stroke-width:0.5;" x1="263" x2="3036" y1="1055.54" y2="1055.54"/>
  <g id="H-reference" style="fill:#27AAE1;stroke:none;" transform="matrix(1 0 0 1 339 1556)">
   <path d="M0.993347 0L3.6377 0L29.3282-67.1326L30.0301-67.1326L30.0301-70.459L28.1227-70.459ZM11.6882-24.4797L46.9818-24.4797L46.2311-26.7288L12.4382-26.7288ZM55.1193 0L57.7637 0L30.6381-70.459L29.4327-70.459L29.4327-67.1326Z"/>
  </g>
  <line id="Baseline-L" style="fill:none;stroke:#27AAE1;opacity:1;stroke-width:0.5;" x1="263" x2="3036" y1="1556" y2="1556"/>
  <line id="Capline-L" style="fill:none;stroke:#27AAE1;opacity:1;stroke-width:0.5;" x1="263" x2="3036" y1="1485.54" y2="1485.54"/>
  <line id="left-margin" style="fill:none;stroke:#00AEEF;stroke-width:0.5;opacity:1.0;" x1="1409.17" x2="1409.17" y1="1030.79" y2="1150.12"/>
  <line id="right-margin" style="fill:none;stroke:#00AEEF;stroke-width:0.5;opacity:1.0;" x1="1490.52" x2="1490.52" y1="1030.79" y2="1150.12"/>
 </g>
 <g id="Symbols">
  <g id="Black-L" transform="matrix(1 0 0 1 2876.69 1556)">
   <path d="M32.1098 22.7935L85.2686 22.7935Q91.0297 22.7935 94.183 19.7331Q97.3363 16.6726 97.3363 11.6696Q97.3363 6.63016 94.183 3.57811Q91.0297 0.526061 85.2686 0.526061L47.0173 0.526061L47.0173-0.28295L72.4057-22.949Q75.5095-25.4364 77.1406-28.6058Q78.7717-31.7753 78.7717-35.1012Q78.7717-42.2798 72.3825-47.3725L47.0209-70.176L47.0209-70.985L85.2722-70.985Q91.0333-70.985 94.1866-74.0663Q97.3399-77.1475 97.3399-82.1286Q97.3399-87.19 94.1866-90.2212Q91.0333-93.2525 85.2722-93.2525L32.1158-93.2525Q24.3513-93.2525 20.2201-88.5629Q16.0888-83.8733 16.0888-77.7812Q16.0888-73.9088 17.8853-70.0645Q19.6818-66.2201 23.4293-63.2267L54.3708-35.8113L54.3708-34.8231L23.4221-7.23226Q19.655-4.29726 17.8695-0.423711Q16.084 3.44984 16.084 7.34421Q16.084 13.4143 20.2147 18.1039Q24.3454 22.7935 32.1098 22.7935Z"/>
  </g>
  <g id="Heavy-L" transform="matrix(1 0 0 1 2580.98 1556)">
   <path d="M30.1823 22.7935L84.8294 22.7935Q89.7683 22.7935 92.5389 20.1414Q95.3094 17.4894 95.3094 13.1249Q95.3094 8.75174 92.5389 6.09178Q89.7683 3.43182 84.8294 3.43182L42.637 3.43182L42.637 2.69948L70.2557-24.7228Q72.8887-26.9465 74.2799-29.6985Q75.6711-32.4505 75.6711-35.3291Q75.6711-41.4936 70.2144-46.0358L42.6539-73.1585L42.6539-73.8908L84.8463-73.8908Q89.7852-73.8908 92.5557-76.5731Q95.3262-79.2553 95.3262-83.5839Q95.3262-87.993 92.5557-90.6227Q89.7852-93.2525 84.8463-93.2525L30.2104-93.2525Q23.389-93.2525 19.7477-89.1442Q16.1064-85.0359 16.1064-79.6778Q16.1064-76.3673 17.6192-73.0736Q19.132-69.7799 22.2614-67.1791L54.5989-35.962L54.5989-35.0499L22.2277-3.27986Q19.0738-0.723696 17.5789 2.59232Q16.084 5.90833 16.084 9.25458Q16.084 14.5768 19.7225 18.6851Q23.361 22.7935 30.1823 22.7935Z"/>
  </g>
  <g id="Bold-L" transform="matrix(1 0 0 1 2285.42 1556)">
   <path d="M27.7852 22.7935L84.4478 22.7935Q88.3946 22.7935 90.6889 20.6411Q92.9832 18.4888 92.9832 14.9082Q92.9832 11.3499 90.6889 9.17402Q88.3946 6.99815 84.4478 6.99815L37.3462 6.99815L37.3462 6.37299L67.7758-26.98Q69.8472-28.866 70.95-31.1069Q72.0527-33.3477 72.0527-35.6805Q72.0527-40.6222 67.7114-44.4656L37.386-76.832L37.386-77.4571L84.4876-77.4571Q88.4344-77.4571 90.7286-79.6476Q93.0228-81.8381 93.0228-85.3672Q93.0228-88.9769 90.7286-91.1147Q88.4344-93.2525 84.4876-93.2525L27.8514-93.2525Q22.2054-93.2525 19.1711-89.8627Q16.1369-86.4729 16.1369-82.0215Q16.1369-79.3878 17.3149-76.7556Q18.4929-74.1234 20.8987-71.9993L55.0173-36.2135L55.0173-35.4161L20.8193 1.54027Q18.3888 3.63519 17.2364 6.28201Q16.084 8.92883 16.084 11.6138Q16.084 16.0137 19.1117 19.4036Q22.1393 22.7935 27.7852 22.7935Z"/>
  </g>
  <g id="Semibold-L" transform="matrix(1 0 0 1 1989.51 1556)">
   <path d="M26.1326 22.7935L84.1847 22.7935Q87.4476 22.7935 89.4136 20.9856Q91.3795 19.1777 91.3795 16.1376Q91.3795 13.141 89.4136 11.2989Q87.4476 9.45676 84.1847 9.45676L33.6988 9.45676L33.6988 8.90549L66.0661-28.5361Q67.7504-30.1893 68.6543-32.0778Q69.5583-33.9662 69.5583-35.9227Q69.5583-40.0214 65.9859-43.3831L33.7544-79.3645L33.7544-79.9157L84.2403-79.9157Q87.5032-79.9157 89.469-81.7672Q91.4348-83.6186 91.4348-86.5966Q91.4348-89.6553 89.469-91.4539Q87.5032-93.2525 84.2403-93.2525L26.2251-93.2525Q21.3894-93.2525 18.7736-90.3581Q16.1579-87.4636 16.1579-83.6373Q16.1579-81.4701 17.1051-79.2939Q18.0523-77.1177 19.9593-75.3222L55.3058-36.387L55.3058-35.6686L19.8484 4.86324Q17.9166 6.64017 17.0003 8.82566Q16.084 11.0111 16.084 13.2402Q16.084 17.0043 18.6906 19.8989Q21.2972 22.7935 26.1326 22.7935Z"/>
  </g>
  <g id="Medium-L" transform="matrix(1 0 0 1 1693.4 1556)">
   <path d="M24.8796 22.7935L83.9852 22.7935Q86.7296 22.7935 88.4466 21.2468Q90.1635 19.7001 90.1635 17.0697Q90.1635 14.4992 88.4466 12.9101Q86.7296 11.321 83.9852 11.321L30.9332 11.321L30.9332 10.8257L64.7697-29.716Q66.1605-31.1927 66.9137-32.8139Q67.6669-34.4352 67.6669-36.1063Q67.6669-39.5659 64.6775-42.5623L31.0007-81.2847L31.0007-81.78L84.0528-81.78Q86.7972-81.78 88.5139-83.3743Q90.2307-84.9687 90.2307-87.5287Q90.2307-90.1696 88.5139-91.711Q86.7972-93.2525 84.0528-93.2525L24.992-93.2525Q20.7707-93.2525 18.4722-90.7336Q16.1738-88.2148 16.1738-84.8624Q16.1738-83.049 16.946-81.2186Q17.7182-79.3882 19.247-77.8418L55.5245-36.5184L55.5245-35.86L19.1122 7.38286Q17.5585 8.91868 16.8212 10.7544Q16.084 12.59 16.084 14.4734Q16.084 17.7555 18.3713 20.2745Q20.6586 22.7935 24.8796 22.7935Z"/>
  </g>
  <g id="Regular-L" transform="matrix(1 0 0 1 1397.47 1556)">
   <path d="M23.2452 22.7935L83.725 22.7935Q85.793 22.7935 87.1852 21.5875Q88.5774 20.3815 88.5774 18.2856Q88.5774 16.2706 87.1852 15.0116Q85.793 13.7526 83.725 13.7526L27.3258 13.7526L27.3258 13.3304L63.0788-31.255Q64.0868-32.5014 64.6433-33.7742Q65.1998-35.0469 65.1998-36.3459Q65.1998-38.9718 62.971-41.4916L27.409-83.7894L27.409-84.2116L83.8082-84.2116Q85.8762-84.2116 87.2682-85.4706Q88.6602-86.7296 88.6602-88.7446Q88.6602-90.8404 87.2682-92.0465Q85.8762-93.2525 83.8082-93.2525L23.3836-93.2525Q19.9637-93.2525 18.0791-91.2236Q16.1946-89.1946 16.1946-86.4605Q16.1946-85.1085 16.7385-83.729Q17.2825-82.3496 18.3178-81.1283L55.8098-36.6899L55.8098-36.1097L18.152 10.6693Q17.0915 11.8906 16.5877 13.2701Q16.084 14.6495 16.084 16.0819Q16.084 18.7352 17.9548 20.7643Q19.8256 22.7935 23.2452 22.7935Z"/>
  </g>
  <g id="Light-L" transform="matrix(1 0 0 1 1100.94 1556)">
   <path d="M21.5274 22.7935L84.5074 22.7935Q86.0601 22.7935 87.1089 21.8929Q88.1577 20.9923 88.1577 19.3925Q88.1577 17.8739 87.1089 16.9392Q86.0601 16.0045 84.5074 16.0045L24.5393 16.0045L24.5393 15.735L62.5443-33.2017Q63.3044-34.1429 63.7177-35.1007Q64.1311-36.0586 64.1311-37.0331Q64.1311-39.0292 62.4175-40.9571L24.6799-86.194L24.6799-86.4635L84.648-86.4635Q86.2007-86.4635 87.2491-87.3982Q88.2975-88.3329 88.2975-89.8515Q88.2975-91.4513 87.2491-92.3519Q86.2007-93.2525 84.648-93.2525L21.7614-93.2525Q19.2002-93.2525 17.7355-91.7103Q16.2709-90.1681 16.2709-88.0445Q16.2709-87.0359 16.6908-85.981Q17.1106-84.9261 17.917-83.9719L56.9741-37.2816L56.9741-36.9113L17.6367 13.5129Q16.8433 14.4671 16.4636 15.522Q16.084 16.5769 16.084 17.6659Q16.084 19.7084 17.5255 21.2509Q18.9669 22.7935 21.5274 22.7935Z"/>
  </g>
  <g id="Thin-L" transform="matrix(1 0 0 1 804.471 1556)">
   <path d="M19.2555 22.7935L85.5422 22.7935Q86.4134 22.7935 87.008 22.2968Q87.6026 21.8002 87.6026 20.8565Q87.6026 19.9944 87.008 19.4887Q86.4134 18.9829 85.5422 18.9829L20.854 18.9829L20.854 18.9153L61.8373-35.7764Q62.2696-36.3138 62.4936-36.8552Q62.7176-37.3966 62.7176-37.9419Q62.7176-39.1051 61.6855-40.2501L21.0704-89.3743L21.0704-89.4419L85.7587-89.4419Q86.6299-89.4419 87.2239-89.9476Q87.8178-90.4533 87.8178-91.3154Q87.8178-92.2592 87.2239-92.7558Q86.6299-93.2525 85.7587-93.2525L19.6159-93.2525Q18.1904-93.2525 17.2811-92.3541Q16.3718-91.4557 16.3718-90.1395Q16.3718-89.5851 16.6276-88.9594Q16.8833-88.3337 17.3869-87.7327L58.514-38.064L58.514-37.9716L16.9552 17.2737Q16.515 17.8747 16.2995 18.5004Q16.084 19.1262 16.084 19.761Q16.084 20.9955 16.9576 21.8945Q17.8312 22.7935 19.2555 22.7935Z"/>
  </g>
  <g id="Ultralight-L" transform="matrix(1 0 0 1 507.883 1556)">
   <path d="M18.0919 22.7935L86.0722 22.7935Q86.5943 22.7935 86.9563 22.5037Q87.3182 22.214 87.3182 21.6063Q87.3182 21.0805 86.9563 20.7945Q86.5943 20.5085 86.0722 20.5085L18.9663 20.5085L18.9663 20.5442L61.4752-37.0951Q61.7396-37.4258 61.8666-37.7538Q61.9936-38.0819 61.9936-38.4074Q61.9936-39.144 61.3106-39.888L19.2217-91.0032L19.2217-90.9675L86.3276-90.9675Q86.8497-90.9675 87.2109-91.2534Q87.5722-91.5394 87.5722-92.0653Q87.5722-92.673 87.2109-92.9627Q86.8497-93.2525 86.3276-93.2525L18.517-93.2525Q17.6732-93.2525 17.0484-92.6838Q16.4235-92.1152 16.4235-91.2126Q16.4235-90.8908 16.5952-90.4849Q16.7669-90.079 17.1154-89.659L59.3027-38.4648L59.3027-38.5146L16.6061 19.2Q16.3469 19.62 16.2154 20.026Q16.084 20.4319 16.084 20.834Q16.084 21.6548 16.6667 22.2241Q17.2495 22.7935 18.0919 22.7935Z"/>
  </g>
  <g id="Black-M" transform="matrix(1 0 0 1 2888.62 1126)">
   <path d="M26.3007 9.72334L66.5446 9.72334Q71.6449 9.72334 74.3702 7.0427Q77.0956 4.36207 77.0956 0.00438397Q77.0956-4.40519 74.3702-7.06277Q71.6449-9.72035 66.5446-9.72035L39.8133-9.72035L39.8133-10.3923L57.871-24.4546Q60.6468-26.5669 62.0972-29.3385Q63.5477-32.1102 63.5477-35.0273Q63.5477-41.3751 57.8661-45.7136L39.8124-60.0666L39.8124-60.7386L66.5438-60.7386Q71.644-60.7386 74.3694-63.4248Q77.0948-66.1109 77.0948-70.4634Q77.0948-74.8781 74.3694-77.5302Q71.644-80.1823 66.5438-80.1823L26.2993-80.1823Q19.5896-80.1823 16.0247-76.1155Q12.4598-72.0486 12.4598-66.7807Q12.4598-63.3442 14.0787-59.9366Q15.6975-56.5289 19.1011-53.9086L42.0851-35.6309L42.0851-34.8282L19.1028-16.5504Q15.6935-13.9871 14.0772-10.5509Q12.4609-7.11475 12.4609-3.67307Q12.4609 1.58964 16.026 5.65649Q19.5911 9.72334 26.3007 9.72334Z"/>
  </g>
  <g id="Heavy-M" transform="matrix(1 0 0 1 2592.88 1126)">
   <path d="M24.5748 9.72334L66.0431 9.72334Q70.3871 9.72334 72.77 7.41375Q75.1529 5.10416 75.1529 1.32498Q75.1529-2.47911 72.77-4.78332Q70.3871-7.08752 66.0431-7.08752L35.7883-7.08752L35.7883-7.69864L55.8186-26.009Q58.1569-27.8917 59.3861-30.2843Q60.6152-32.6769 60.6152-35.1867Q60.6152-40.6012 55.7977-44.4562L35.7951-62.7603L35.7951-63.3715L66.0499-63.3715Q70.3939-63.3715 72.7768-65.6975Q75.1597-68.0235 75.1597-71.784Q75.1597-75.6068 72.7768-77.8945Q70.3939-80.1823 66.0499-80.1823L24.5862-80.1823Q18.7193-80.1823 15.5947-76.6388Q12.47-73.0953 12.47-68.4886Q12.47-65.5698 13.823-62.6705Q15.1759-59.7712 17.9963-57.51L42.2006-35.7236L42.2006-34.9761L17.9827-12.949Q15.1482-10.7314 13.8046-7.81032Q12.4609-4.88922 12.4609-1.95169Q12.4609 2.6363 15.5844 6.17982Q18.708 9.72334 24.5748 9.72334Z"/>
  </g>
  <g id="Bold-M" transform="matrix(1 0 0 1 2297.25 1126)">
   <path d="M22.6443 9.72334L65.482 9.72334Q68.9801 9.72334 70.9799 7.82882Q72.9797 5.93431 72.9797 2.80225Q72.9797-0.324508 70.9799-2.23342Q68.9801-4.14233 65.482-4.14233L31.2858-4.14233L31.2858-4.68535L53.5227-27.7478Q55.3717-29.3737 56.3533-31.3423Q57.3349-33.3108 57.3349-35.3651Q57.3349-39.7356 53.4839-43.0496L31.3012-65.7736L31.3012-66.3167L65.4975-66.3167Q68.9955-66.3167 70.9953-68.2398Q72.9951-70.163 72.9951-73.2612Q72.9951-76.4218 70.9953-78.3021Q68.9955-80.1823 65.4975-80.1823L22.67-80.1823Q17.7457-80.1823 15.1136-77.2243Q12.4815-74.2662 12.4815-70.3992Q12.4815-68.0593 13.537-65.7287Q14.5925-63.3981 16.7605-61.5387L42.3299-35.8274L42.3299-35.1414L16.7297-8.92029Q14.5382-7.08944 13.4996-4.74454Q12.4609-2.39964 12.4609-0.0260703Q12.4609 3.80714 15.0905 6.76524Q17.7201 9.72334 22.6443 9.72334Z"/>
  </g>
  <g id="Semibold-M" transform="matrix(1 0 0 1 2001.28 1126)">
   <path d="M21.3133 9.72334L65.0953 9.72334Q68.0101 9.72334 69.7458 8.11497Q71.4816 6.5066 71.4816 3.82068Q71.4816 1.16086 69.7458-0.475534Q68.0101-2.11193 65.0953-2.11193L28.1818-2.11193L28.1818-2.60801L51.9399-28.9465Q53.4515-30.3954 54.2625-32.0717Q55.0734-33.7479 55.0734-35.488Q55.0734-39.1388 51.8887-42.0799L28.2032-67.851L28.2032-68.3471L65.1166-68.3471Q68.0314-68.3471 69.7671-69.9925Q71.5028-71.638 71.5028-74.2797Q71.5028-76.9837 69.7671-78.583Q68.0314-80.1823 65.1166-80.1823L21.3489-80.1823Q17.0745-80.1823 14.7819-77.6279Q12.4894-75.0734 12.4894-71.7163Q12.4894-69.7756 13.3398-67.8371Q14.1902-65.8985 15.9086-64.3161L42.419-35.8989L42.419-35.2554L15.866-6.14293Q14.1177-4.57868 13.2893-2.63101Q12.4609-0.683338 12.4609 1.30144Q12.4609 4.61431 14.75 7.16882Q17.039 9.72334 21.3133 9.72334Z"/>
  </g>
  <g id="Medium-M" transform="matrix(1 0 0 1 1705.14 1126)">
   <path d="M20.3042 9.72334L64.802 9.72334Q67.2746 9.72334 68.8101 8.33194Q70.3456 6.94054 70.3456 4.59289Q70.3456 2.28713 68.8101 0.857367Q67.2746-0.572396 64.802-0.572396L25.8282-0.572396L25.8282-1.03288L50.7398-29.8554Q51.9956-31.1701 52.6771-32.6247Q53.3587-34.0793 53.3587-35.5812Q53.3587-38.6863 50.6792-41.3447L25.8541-69.4261L25.8541-69.8866L64.8279-69.8866Q67.3004-69.8866 68.8359-71.3215Q70.3713-72.7564 70.3713-75.0519Q70.3713-77.4098 68.8359-78.7961Q67.3004-80.1823 64.8279-80.1823L20.3472-80.1823Q16.5656-80.1823 14.5304-77.9339Q12.4953-75.6855 12.4953-72.715Q12.4953-71.077 13.1903-69.4357Q13.8852-67.7943 15.2626-66.422L42.4866-35.9531L42.4866-35.3419L15.211-4.03702Q13.7988-2.67492 13.1299-1.02844Q12.4609 0.618033 12.4609 2.30801Q12.4609 5.22634 14.4918 7.47484Q16.5227 9.72334 20.3042 9.72334Z"/>
  </g>
  <g id="Regular-M" transform="matrix(1 0 0 1 1409.17 1126)">
   <path d="M18.9879 9.72334L64.4195 9.72334Q66.3152 9.72334 67.5895 8.61494Q68.8639 7.50655 68.8639 5.60012Q68.8639 3.75618 67.5895 2.59593Q66.3152 1.43569 64.4195 1.43569L22.7584 1.43569L22.7584 1.02163L49.1744-31.041Q50.0966-32.1806 50.6093-33.3461Q51.122-34.5115 51.122-35.7028Q51.122-38.0961 49.1016-40.3856L22.7901-71.4806L22.7901-71.8947L64.4512-71.8947Q66.347-71.8947 67.6212-73.0549Q68.8954-74.2152 68.8954-76.0591Q68.8954-77.9655 67.6212-79.0739Q66.347-80.1823 64.4512-80.1823L19.0407-80.1823Q15.9017-80.1823 14.2024-78.3331Q12.5031-76.4838 12.5031-74.0176Q12.5031-72.7745 12.9953-71.5208Q13.4874-70.2672 14.42-69.1688L42.5747-36.0238L42.5747-35.4546L14.3567-1.29018Q13.3829-0.191747 12.9219 1.06186Q12.4609 2.31547 12.4609 3.62093Q12.4609 6.02464 14.155 7.87399Q15.8491 9.72334 18.9879 9.72334Z"/>
  </g>
  <g id="Light-M" transform="matrix(1 0 0 1 1112.62 1126)">
   <path d="M17.4478 9.72334L65.1209 9.72334Q66.5547 9.72334 67.5211 8.88877Q68.4875 8.05421 68.4875 6.59252Q68.4875 5.1936 67.5211 4.32415Q66.5547 3.45469 65.1209 3.45469L20.2601 3.45469L20.2601 3.17748L48.6952-32.7863Q49.3951-33.6522 49.7795-34.5354Q50.1639-35.4185 50.1639-36.3189Q50.1639-38.1475 48.6055-39.9064L20.3433-73.6365L20.3433-73.9137L65.2041-73.9137Q66.6379-73.9137 67.6041-74.7831Q68.5703-75.6526 68.5703-77.0515Q68.5703-78.5132 67.6041-79.3478Q66.6379-80.1823 65.2041-80.1823L17.5863-80.1823Q15.2172-80.1823 13.8944-78.7695Q12.5715-77.3566 12.5715-75.4378Q12.5715-74.5025 12.9524-73.5399Q13.3333-72.5772 14.0607-71.7182L43.6186-36.5542L43.6186-36.1733L13.8947 1.25924Q13.1604 2.11819 12.8107 3.08087Q12.4609 4.04354 12.4609 5.0411Q12.4609 6.89715 13.7701 8.31025Q15.0792 9.72334 17.4478 9.72334Z"/>
  </g>
  <g id="Thin-M" transform="matrix(1 0 0 1 816.122 1126)">
   <path d="M15.411 9.72334L66.0487 9.72334Q66.8714 9.72334 67.4306 9.25093Q67.9898 8.77853 67.9898 7.90504Q67.9898 7.0947 67.4306 6.60985Q66.8714 6.12499 66.0487 6.12499L16.956 6.12499L16.956 6.02876L48.0613-35.0946Q48.4674-35.5986 48.682-36.1084Q48.8966-36.6181 48.8966-37.1337Q48.8966-38.2156 47.9492-39.2726L17.1072-76.4877L17.1072-76.584L66.1999-76.584Q67.0227-76.584 67.5815-77.0688Q68.1402-77.5537 68.1402-78.364Q68.1402-79.2375 67.5815-79.7099Q67.0227-80.1823 66.1999-80.1823L15.6628-80.1823Q14.3119-80.1823 13.487-79.3466Q12.662-78.511 12.662-77.3161Q12.662-76.788 12.8958-76.2101Q13.1295-75.6323 13.5854-75.09L44.9992-37.2558L44.9992-37.1239L13.2837 4.63104Q12.8661 5.17327 12.6635 5.75116Q12.4609 6.32905 12.4609 6.9194Q12.4609 8.05112 13.261 8.88723Q14.061 9.72334 15.411 9.72334Z"/>
  </g>
  <g id="Ultralight-M" transform="matrix(1 0 0 1 519.521 1126)">
   <path d="M14.3677 9.72334L66.5238 9.72334Q67.0337 9.72334 67.3843 9.43643Q67.7349 9.14952 67.7349 8.57731Q67.7349 8.06844 67.3843 7.78057Q67.0337 7.4927 66.5238 7.4927L15.2636 7.4927L15.2636 7.48917L47.7367-36.2769Q47.9922-36.5955 48.1198-36.914Q48.2475-37.2326 48.2475-37.5511Q48.2475-38.2505 47.6131-38.9479L15.4497-77.9482L15.4497-77.9517L66.7099-77.9517Q67.2198-77.9517 67.5699-78.2396Q67.92-78.5274 67.92-79.0363Q67.92-79.6085 67.5699-79.8954Q67.2198-80.1823 66.7099-80.1823L14.6775-80.1823Q13.8482-80.1823 13.2783-79.6423Q12.7084-79.1022 12.7084-78.2781Q12.7084-77.9587 12.8668-77.5779Q13.0251-77.197 13.3419-76.817L45.7063-37.6151L45.7063-37.6107L12.9708 6.35806Q12.7154 6.73806 12.5882 7.11887Q12.4609 7.49968 12.4609 7.88145Q12.4609 8.64218 13.0002 9.18276Q13.5394 9.72334 14.3677 9.72334Z"/>
  </g>
  <g id="Black-S" transform="matrix(1 0 0 1 2898.02 696)">
   <path d="M21.0449 0L52.3438 0Q56.543 0 58.7646-2.19727Q60.9863-4.39453 60.9863-7.95898Q60.9863-11.5723 58.7646-13.7451Q56.543-15.918 52.3438-15.918L32.2754-15.918L32.2754-16.4551L45.9473-26.416Q48.2422-28.125 49.4385-30.3955Q50.6348-32.666 50.6348-35.0586Q50.6348-40.2832 45.9473-43.7988L32.2754-54.0039L32.2754-54.541L52.3438-54.541Q56.543-54.541 58.7646-56.7383Q60.9863-58.9355 60.9863-62.5Q60.9863-66.1133 58.7646-68.2861Q56.543-70.459 52.3438-70.459L21.0449-70.459Q15.5762-70.459 12.6709-67.1387Q9.76562-63.8184 9.76562-59.5215Q9.76562-56.6895 11.1084-53.8818Q12.4512-51.0742 15.2832-48.9258L33.0078-35.5469L33.0078-34.9121L15.2832-21.5332Q12.4512-19.4336 11.1084-16.6016Q9.76562-13.7695 9.76562-10.9375Q9.76562-6.64062 12.6709-3.32031Q15.5762 0 21.0449 0Z"/>
  </g>
  <g id="Heavy-S" transform="matrix(1 0 0 1 2602.12 696)">
   <path d="M19.7657 0L51.8251 0Q55.4366 0 57.4048-1.91492Q59.3729-3.82983 59.3729-6.95636Q59.3729-10.1087 57.4048-12.0164Q55.4366-13.9242 51.8251-13.9242L29.1523-13.9242L29.1523-14.4268L44.2532-27.5224Q46.2024-29.07 47.2258-31.0524Q48.2492-33.0348 48.2492-35.1162Q48.2492-39.6148 44.2416-42.7847L29.1523-56.0322L29.1523-56.5347L51.8251-56.5347Q55.4366-56.5347 57.4048-58.4612Q59.3729-60.3876 59.3729-63.5026Q59.3729-66.6665 57.4048-68.5627Q55.4366-70.459 51.8251-70.459L19.7657-70.459Q14.9193-70.459 12.3425-67.5305Q9.76562-64.602 9.76562-60.8007Q9.76562-58.372 10.8952-55.962Q12.0248-53.552 14.3843-51.6801L32.9732-35.5584L32.9732-34.9467L14.3843-18.7789Q12.0132-16.9443 10.8894-14.5156Q9.76562-12.087 9.76562-9.64676Q9.76562-5.85696 12.3425-2.92848Q14.9193 0 19.7657 0Z"/>
  </g>
  <g id="Bold-S" transform="matrix(1 0 0 1 2306.31 696)">
   <path d="M18.335 0L51.2451 0Q54.1992 0 55.8838-1.59912Q57.5684-3.19824 57.5684-5.83496Q57.5684-8.47168 55.8838-10.083Q54.1992-11.6943 51.2451-11.6943L25.6592-11.6943L25.6592-12.1582L42.3584-28.7598Q43.9209-30.127 44.751-31.7871Q45.5811-33.4473 45.5811-35.1807Q45.5811-38.8672 42.334-41.6504L25.6592-58.3008L25.6592-58.7646L51.2451-58.7646Q54.1992-58.7646 55.8838-60.3882Q57.5684-62.0117 57.5684-64.624Q57.5684-67.2852 55.8838-68.8721Q54.1992-70.459 51.2451-70.459L18.335-70.459Q14.1846-70.459 11.9751-67.9688Q9.76562-65.4785 9.76562-62.2314Q9.76562-60.2539 10.6567-58.2886Q11.5479-56.3232 13.3789-54.7607L32.9346-35.5713L32.9346-34.9854L13.3789-15.6982Q11.5234-14.1602 10.6445-12.1826Q9.76562-10.2051 9.76562-8.20312Q9.76562-4.98047 11.9751-2.49023Q14.1846 0 18.335 0Z"/>
  </g>
  <g id="Semibold-S" transform="matrix(1 0 0 1 2010.22 696)">
   <path d="M17.3485 0L50.8452 0Q53.3461 0 54.8352-1.3814Q56.3242-2.76279 56.3242-5.06182Q56.3242-7.34307 54.8352-8.75Q53.3461-10.1569 50.8452-10.1569L23.2509-10.1569L23.2509-10.5941L41.0521-29.6129Q42.3479-30.8557 43.0447-32.2937Q43.7415-33.7316 43.7415-35.2251Q43.7415-38.3518 41.0187-40.8684L23.2509-59.8648L23.2509-60.3021L50.8452-60.3021Q53.3461-60.3021 54.8352-61.7167Q56.3242-63.1314 56.3242-65.3972Q56.3242-67.7117 54.8352-69.0854Q53.3461-70.459 50.8452-70.459L17.3485-70.459Q13.678-70.459 11.7218-68.2709Q9.76562-66.0828 9.76562-63.2179Q9.76562-61.5514 10.4923-59.8926Q11.219-58.2339 12.6857-56.8847L32.9079-35.5802L32.9079-35.012L12.6857-13.5743Q11.1857-12.2406 10.4757-10.5741Q9.76562-8.90762 9.76562-7.20781Q9.76562-4.37617 11.7218-2.18809Q13.678 0 17.3485 0Z"/>
  </g>
  <g id="Medium-S" transform="matrix(1 0 0 1 1713.98 696)">
   <path d="M16.6006 0L50.542 0Q52.6992 0 54.04-1.21631Q55.3809-2.43262 55.3809-4.47559Q55.3809-6.4873 54.04-7.73926Q52.6992-8.99121 50.542-8.99121L21.4248-8.99121L21.4248-9.4082L40.0615-30.2598Q41.1553-31.4082 41.751-32.6777Q42.3467-33.9473 42.3467-35.2588Q42.3467-37.9609 40.0215-40.2754L21.4248-61.0508L21.4248-61.4678L50.542-61.4678Q52.6992-61.4678 54.04-62.7241Q55.3809-63.9805 55.3809-65.9834Q55.3809-68.0352 54.04-69.2471Q52.6992-70.459 50.542-70.459L16.6006-70.459Q13.2939-70.459 11.5298-68.5Q9.76562-66.541 9.76562-63.9658Q9.76562-62.5352 10.3677-61.1089Q10.9697-59.6826 12.1602-58.4951L32.8877-35.5869L32.8877-35.0322L12.1602-11.9639Q10.9297-10.7852 10.3477-9.35449Q9.76562-7.92383 9.76562-6.45312Q9.76562-3.91797 11.5298-1.95898Q13.2939 0 16.6006 0Z"/>
  </g>
  <g id="Regular-S" transform="matrix(1 0 0 1 1417.89 696)">
   <path d="M15.625 0L50.1465 0Q51.8555 0 53.0029-1.00098Q54.1504-2.00195 54.1504-3.71094Q54.1504-5.37109 53.0029-6.4209Q51.8555-7.4707 50.1465-7.4707L19.043-7.4707L19.043-7.86133L38.7695-31.1035Q39.5996-32.1289 40.0635-33.1787Q40.5273-34.2285 40.5273-35.3027Q40.5273-37.4512 38.7207-39.502L19.043-62.5977L19.043-62.9883L50.1465-62.9883Q51.8555-62.9883 53.0029-64.0381Q54.1504-65.0879 54.1504-66.748Q54.1504-68.457 53.0029-69.458Q51.8555-70.459 50.1465-70.459L15.625-70.459Q12.793-70.459 11.2793-68.7988Q9.76562-67.1387 9.76562-64.9414Q9.76562-63.8184 10.2051-62.6953Q10.6445-61.5723 11.4746-60.5957L32.8613-35.5957L32.8613-35.0586L11.4746-9.86328Q10.5957-8.88672 10.1807-7.76367Q9.76562-6.64062 9.76562-5.46875Q9.76562-3.32031 11.2793-1.66016Q12.793 0 15.625 0Z"/>
  </g>
  <g id="Light-S" transform="matrix(1 0 0 1 1121.32 696)">
   <path d="M14.2626 0L50.767 0Q52.0673 0 52.9424-0.758743Q53.8175-1.51749 53.8175-2.83305Q53.8175-4.09953 52.9424-4.89209Q52.0673-5.68466 50.767-5.68466L16.833-5.68466L16.833-5.95423L38.3456-32.6475Q38.9791-33.4307 39.3294-34.2308Q39.6797-35.0309 39.6797-35.8477Q39.6797-37.4967 38.2818-39.078L16.8785-64.5048L16.8785-64.7743L50.8125-64.7743Q52.1128-64.7743 52.9878-65.5669Q53.8628-66.3595 53.8628-67.6259Q53.8628-68.9415 52.9878-69.7002Q52.1128-70.459 50.8125-70.459L14.3384-70.459Q12.1874-70.459 11.0068-69.1849Q9.82615-67.9108 9.82615-66.1977Q9.82615-65.347 10.1672-64.4814Q10.5082-63.6157 11.1567-62.851L33.7847-36.0649L33.7847-35.6944L11.0659-7.60803Q10.3989-6.84331 10.0822-5.97763Q9.76562-5.11195 9.76562-4.21244Q9.76562-2.54847 10.9388-1.27424Q12.1119 0 14.2626 0Z"/>
  </g>
  <g id="Thin-S" transform="matrix(1 0 0 1 824.798 696)">
   <path d="M12.4608 0L51.5877 0Q52.3475 0 52.8624-0.43837Q53.3772-0.87674 53.3772-1.67197Q53.3772-2.41778 52.8624-2.87013Q52.3475-3.32248 51.5877-3.32248L13.9101-3.32248L13.9101-3.43195L37.7849-34.6894Q38.1584-35.1525 38.3585-35.6223Q38.5587-36.0921 38.5587-36.5685Q38.5587-37.5569 37.7012-38.5173L14.0158-67.027L14.0158-67.1365L51.6934-67.1365Q52.4532-67.1365 52.9678-67.5889Q53.4824-68.0412 53.4824-68.787Q53.4824-69.5822 52.9678-70.0206Q52.4532-70.459 51.6934-70.459L12.6368-70.459Q11.3866-70.459 10.6464-69.6955Q9.9062-68.9319 9.9062-67.8593Q9.9062-67.3688 10.1171-66.8435Q10.3279-66.3182 10.7363-65.8337L35.006-36.6855L35.006-36.5353L10.5254-4.62528Q10.1385-4.14074 9.95208-3.61545Q9.76562-3.09015 9.76562-2.55088Q9.76562-1.52765 10.4884-0.763825Q11.2112 0 12.4608 0Z"/>
  </g>
  <g id="Ultralight-S" transform="matrix(1 0 0 1 528.184 696)">
   <path d="M11.5379 0L52.0081 0Q52.491 0 52.8214-0.274277Q53.1517-0.548553 53.1517-1.07727Q53.1517-1.5564 52.8214-1.83449Q52.491-2.11258 52.0081-2.11258L12.413-2.11258L12.413-2.14005L37.4977-35.7353Q37.738-36.0344 37.8613-36.335Q37.9845-36.6356 37.9845-36.9377Q37.9845-37.5877 37.4039-38.2301L12.5496-68.3189L12.5496-68.3464L52.1446-68.3464Q52.6276-68.3464 52.9575-68.6245Q53.2875-68.9026 53.2875-69.3817Q53.2875-69.9104 52.9575-70.1847Q52.6276-70.459 52.1446-70.459L11.7653-70.459Q10.9764-70.459 10.4618-69.957Q9.9472-69.455 9.9472-68.7103Q9.9472-68.4044 10.0914-68.0534Q10.2356-67.7025 10.5209-67.3615L35.6316-37.0033L35.6316-36.9659L10.2486-3.09753Q10.0052-2.7565 9.88541-2.40555Q9.76562-2.0546 9.76562-1.69983Q9.76562-1.00479 10.2577-0.502396Q10.7498 0 11.5379 0Z"/>
  </g>
 </g>
</svg>
