<?xml version="1.0" encoding="UTF-8"?>
<!--Generator: Apple Native CoreSVG 175-->
<!DOCTYPE svg
PUBLIC "-//W3C//DTD SVG 1.1//EN"
       "http://www.w3.org/Graphics/SVG/1.1/DTD/svg11.dtd">
<svg version="1.1" xmlns="http://www.w3.org/2000/svg" xmlns:xlink="http://www.w3.org/1999/xlink" width="3300" height="2200">
 <!--glyph: "uni100EE2.medium", point size: 100.0, font version: "17.0d11e1", template writer version: "65.1"-->
 <g id="Notes">
  <rect height="2200" id="artboard" style="fill:white;opacity:1" width="3300" x="0" y="0"/>
  <line style="fill:none;stroke:black;opacity:1;stroke-width:0.5;" x1="263" x2="3036" y1="292" y2="292"/>
  <text style="stroke:none;fill:black;font-family:sans-serif;font-size:13;font-weight:bold;" transform="matrix(1 0 0 1 263 322)">Weight/Scale Variations</text>
  <text style="stroke:none;fill:black;font-family:sans-serif;font-size:13;text-anchor:middle;" transform="matrix(1 0 0 1 559.711 322)">Ultralight</text>
  <text style="stroke:none;fill:black;font-family:sans-serif;font-size:13;text-anchor:middle;" transform="matrix(1 0 0 1 856.422 322)">Thin</text>
  <text style="stroke:none;fill:black;font-family:sans-serif;font-size:13;text-anchor:middle;" transform="matrix(1 0 0 1 1153.13 322)">Light</text>
  <text style="stroke:none;fill:black;font-family:sans-serif;font-size:13;text-anchor:middle;" transform="matrix(1 0 0 1 1449.84 322)">Regular</text>
  <text style="stroke:none;fill:black;font-family:sans-serif;font-size:13;text-anchor:middle;" transform="matrix(1 0 0 1 1746.56 322)">Medium</text>
  <text style="stroke:none;fill:black;font-family:sans-serif;font-size:13;text-anchor:middle;" transform="matrix(1 0 0 1 2043.27 322)">Semibold</text>
  <text style="stroke:none;fill:black;font-family:sans-serif;font-size:13;text-anchor:middle;" transform="matrix(1 0 0 1 2339.98 322)">Bold</text>
  <text style="stroke:none;fill:black;font-family:sans-serif;font-size:13;text-anchor:middle;" transform="matrix(1 0 0 1 2636.69 322)">Heavy</text>
  <text style="stroke:none;fill:black;font-family:sans-serif;font-size:13;text-anchor:middle;" transform="matrix(1 0 0 1 2933.4 322)">Black</text>
  <line style="fill:none;stroke:black;opacity:1;stroke-width:0.5;" x1="263" x2="3036" y1="1903" y2="1903"/>
  <g transform="matrix(1 0 0 1 263 1933)">
   <path d="M9.24805 0.830078Q10.8691 0.830078 12.2949 0.214844Q13.7207-0.400391 14.8096-1.49414Q15.8984-2.58789 16.5186-4.01367Q17.1387-5.43945 17.1387-7.05078Q17.1387-8.66211 16.5186-10.0879Q15.8984-11.5137 14.8047-12.6074Q13.7109-13.7012 12.2852-14.3164Q10.8594-14.9316 9.23828-14.9316Q7.62695-14.9316 6.20117-14.3164Q4.77539-13.7012 3.69141-12.6074Q2.60742-11.5137 1.9873-10.0879Q1.36719-8.66211 1.36719-7.05078Q1.36719-5.43945 1.9873-4.01367Q2.60742-2.58789 3.69629-1.49414Q4.78516-0.400391 6.21094 0.214844Q7.63672 0.830078 9.24805 0.830078ZM9.24805-0.654297Q7.91992-0.654297 6.7627-1.14746Q5.60547-1.64062 4.73145-2.51953Q3.85742-3.39844 3.36426-4.56055Q2.87109-5.72266 2.87109-7.05078Q2.87109-8.37891 3.35938-9.54102Q3.84766-10.7031 4.72168-11.582Q5.5957-12.4609 6.75293-12.9541Q7.91016-13.4473 9.23828-13.4473Q10.5762-13.4473 11.7334-12.9541Q12.8906-12.4609 13.7695-11.582Q14.6484-10.7031 15.1465-9.54102Q15.6445-8.37891 15.6445-7.05078Q15.6445-5.72266 15.1514-4.56055Q14.6582-3.39844 13.7842-2.51953Q12.9102-1.64062 11.748-1.14746Q10.5859-0.654297 9.24805-0.654297ZM5.6543-7.05078Q5.6543-6.72852 5.85938-6.52832Q6.06445-6.32812 6.40625-6.32812L8.51562-6.32812L8.51562-4.20898Q8.51562-3.88672 8.71094-3.67676Q8.90625-3.4668 9.23828-3.4668Q9.56055-3.4668 9.77051-3.67676Q9.98047-3.88672 9.98047-4.20898L9.98047-6.32812L12.0898-6.32812Q12.4219-6.32812 12.627-6.52832Q12.832-6.72852 12.832-7.05078Q12.832-7.38281 12.627-7.58789Q12.4219-7.79297 12.0898-7.79297L9.98047-7.79297L9.98047-9.90234Q9.98047-10.2344 9.77051-10.4443Q9.56055-10.6543 9.23828-10.6543Q8.90625-10.6543 8.71094-10.4443Q8.51562-10.2344 8.51562-9.90234L8.51562-7.79297L6.40625-7.79297Q6.06445-7.79297 5.85938-7.58789Q5.6543-7.38281 5.6543-7.05078Z"/>
  </g>
  <g transform="matrix(1 0 0 1 281.867 1933)">
   <path d="M11.709 2.91016Q13.75 2.91016 15.5518 2.12891Q17.3535 1.34766 18.7305-0.0292969Q20.1074-1.40625 20.8887-3.20801Q21.6699-5.00977 21.6699-7.05078Q21.6699-9.0918 20.8887-10.8936Q20.1074-12.6953 18.7305-14.0723Q17.3535-15.4492 15.5469-16.2305Q13.7402-17.0117 11.6992-17.0117Q9.6582-17.0117 7.85645-16.2305Q6.05469-15.4492 4.68262-14.0723Q3.31055-12.6953 2.5293-10.8936Q1.74805-9.0918 1.74805-7.05078Q1.74805-5.00977 2.5293-3.20801Q3.31055-1.40625 4.6875-0.0292969Q6.06445 1.34766 7.86621 2.12891Q9.66797 2.91016 11.709 2.91016ZM11.709 1.25Q9.98047 1.25 8.47656 0.605469Q6.97266-0.0390625 5.83496-1.17676Q4.69727-2.31445 4.05762-3.81836Q3.41797-5.32227 3.41797-7.05078Q3.41797-8.7793 4.05762-10.2832Q4.69727-11.7871 5.83008-12.9297Q6.96289-14.0723 8.4668-14.7119Q9.9707-15.3516 11.6992-15.3516Q13.4277-15.3516 14.9316-14.7119Q16.4355-14.0723 17.5781-12.9297Q18.7207-11.7871 19.3652-10.2832Q20.0098-8.7793 20.0098-7.05078Q20.0098-5.32227 19.3701-3.81836Q18.7305-2.31445 17.5928-1.17676Q16.4551-0.0390625 14.9463 0.605469Q13.4375 1.25 11.709 1.25ZM7.17773-7.05078Q7.17773-6.69922 7.41211-6.47461Q7.64648-6.25 8.01758-6.25L10.8887-6.25L10.8887-3.36914Q10.8887-2.99805 11.1133-2.76855Q11.3379-2.53906 11.6895-2.53906Q12.0605-2.53906 12.29-2.76855Q12.5195-2.99805 12.5195-3.36914L12.5195-6.25L15.4004-6.25Q15.7715-6.25 16.001-6.47461Q16.2305-6.69922 16.2305-7.05078Q16.2305-7.42188 16.001-7.65137Q15.7715-7.88086 15.4004-7.88086L12.5195-7.88086L12.5195-10.752Q12.5195-11.1328 12.29-11.3623Q12.0605-11.5918 11.6895-11.5918Q11.3379-11.5918 11.1133-11.3574Q10.8887-11.123 10.8887-10.752L10.8887-7.88086L8.01758-7.88086Q7.63672-7.88086 7.40723-7.65137Q7.17773-7.42188 7.17773-7.05078Z"/>
  </g>
  <g transform="matrix(1 0 0 1 305.646 1933)">
   <path d="M14.9707 5.66406Q17.0605 5.66406 18.96 5.01465Q20.8594 4.36523 22.4512 3.19336Q24.043 2.02148 25.2197 0.429688Q26.3965-1.16211 27.0459-3.06641Q27.6953-4.9707 27.6953-7.05078Q27.6953-9.14062 27.0459-11.04Q26.3965-12.9395 25.2197-14.5312Q24.043-16.123 22.4512-17.2998Q20.8594-18.4766 18.9551-19.126Q17.0508-19.7754 14.9609-19.7754Q12.8711-19.7754 10.9717-19.126Q9.07227-18.4766 7.48535-17.2998Q5.89844-16.123 4.72168-14.5312Q3.54492-12.9395 2.90039-11.04Q2.25586-9.14062 2.25586-7.05078Q2.25586-4.9707 2.90527-3.06641Q3.55469-1.16211 4.72656 0.429688Q5.89844 2.02148 7.49023 3.19336Q9.08203 4.36523 10.9814 5.01465Q12.8809 5.66406 14.9707 5.66406ZM14.9707 3.84766Q13.1641 3.84766 11.5283 3.2959Q9.89258 2.74414 8.53516 1.74805Q7.17773 0.751953 6.17676-0.610352Q5.17578-1.97266 4.62891-3.6084Q4.08203-5.24414 4.08203-7.05078Q4.08203-8.86719 4.62891-10.5029Q5.17578-12.1387 6.17188-13.501Q7.16797-14.8633 8.52539-15.8594Q9.88281-16.8555 11.5186-17.4023Q13.1543-17.9492 14.9609-17.9492Q16.7773-17.9492 18.4131-17.4023Q20.0488-16.8555 21.4111-15.8594Q22.7734-14.8633 23.7695-13.501Q24.7656-12.1387 25.3174-10.5029Q25.8691-8.86719 25.8691-7.05078Q25.8789-5.24414 25.332-3.6084Q24.7852-1.97266 23.7842-0.610352Q22.7832 0.751953 21.4209 1.74805Q20.0586 2.74414 18.4229 3.2959Q16.7871 3.84766 14.9707 3.84766ZM9.19922-7.05078Q9.19922-6.66992 9.45801-6.4209Q9.7168-6.17188 10.1172-6.17188L14.0625-6.17188L14.0625-2.2168Q14.0625-1.81641 14.3115-1.55762Q14.5605-1.29883 14.9512-1.29883Q15.3516-1.29883 15.6104-1.55273Q15.8691-1.80664 15.8691-2.2168L15.8691-6.17188L19.8242-6.17188Q20.2246-6.17188 20.4785-6.4209Q20.7324-6.66992 20.7324-7.05078Q20.7324-7.46094 20.4785-7.71484Q20.2246-7.96875 19.8242-7.96875L15.8691-7.96875L15.8691-11.9141Q15.8691-12.3242 15.6104-12.583Q15.3516-12.8418 14.9512-12.8418Q14.5605-12.8418 14.3115-12.583Q14.0625-12.3242 14.0625-11.9141L14.0625-7.96875L10.1172-7.96875Q9.70703-7.96875 9.45312-7.71484Q9.19922-7.46094 9.19922-7.05078Z"/>
  </g>
  <text style="stroke:none;fill:black;font-family:sans-serif;font-size:13;font-weight:bold;" transform="matrix(1 0 0 1 263 1953)">Design Variations</text>
  <text style="stroke:none;fill:black;font-family:sans-serif;font-size:13;" transform="matrix(1 0 0 1 263 1971)">Symbols are supported in up to nine weights and three scales.</text>
  <text style="stroke:none;fill:black;font-family:sans-serif;font-size:13;" transform="matrix(1 0 0 1 263 1989)">For optimal layout with text and other symbols, vertically align</text>
  <text style="stroke:none;fill:black;font-family:sans-serif;font-size:13;" transform="matrix(1 0 0 1 263 2007)">symbols with the adjacent text.</text>
  <line style="fill:none;stroke:#00AEEF;stroke-width:0.5;opacity:1.0;" x1="776" x2="776" y1="1919" y2="1933"/>
  <g transform="matrix(1 0 0 1 776 1933)">
   <path d="M3.31055 0.15625Q3.70117 0.15625 3.91602-0.00976562Q4.13086-0.175781 4.26758-0.585938L5.52734-4.0332L11.2891-4.0332L12.5488-0.585938Q12.6855-0.175781 12.9004-0.00976562Q13.1152 0.15625 13.4961 0.15625Q13.8867 0.15625 14.1162-0.0585938Q14.3457-0.273438 14.3457-0.644531Q14.3457-0.869141 14.2383-1.17188L9.6582-13.3691Q9.48242-13.8184 9.17969-14.043Q8.87695-14.2676 8.4082-14.2676Q7.5-14.2676 7.17773-13.3789L2.59766-1.16211Q2.49023-0.859375 2.49023-0.634766Q2.49023-0.263672 2.70996-0.0537109Q2.92969 0.15625 3.31055 0.15625ZM6.00586-5.51758L8.37891-12.0898L8.42773-12.0898L10.8008-5.51758Z"/>
  </g>
  <line style="fill:none;stroke:#00AEEF;stroke-width:0.5;opacity:1.0;" x1="793.197" x2="793.197" y1="1919" y2="1933"/>
  <text style="stroke:none;fill:black;font-family:sans-serif;font-size:13;font-weight:bold;" transform="matrix(1 0 0 1 776 1953)">Margins</text>
  <text style="stroke:none;fill:black;font-family:sans-serif;font-size:13;" transform="matrix(1 0 0 1 776 1971)">Leading and trailing margins on the left and right side of each symbol</text>
  <text style="stroke:none;fill:black;font-family:sans-serif;font-size:13;" transform="matrix(1 0 0 1 776 1989)">can be adjusted by modifying the x-location of the margin guidelines.</text>
  <text style="stroke:none;fill:black;font-family:sans-serif;font-size:13;" transform="matrix(1 0 0 1 776 2007)">Modifications are automatically applied proportionally to all</text>
  <text style="stroke:none;fill:black;font-family:sans-serif;font-size:13;" transform="matrix(1 0 0 1 776 2025)">scales and weights.</text>
  <g transform="matrix(1 0 0 1 1289 1933)">
   <path d="M2.8418 1.86523L4.54102 3.57422Q5.18555 4.22852 5.90332 4.17969Q6.62109 4.13086 7.31445 3.35938L18.0078-8.42773L17.041-9.4043L6.42578 2.27539Q6.16211 2.57812 5.89355 2.61719Q5.625 2.65625 5.27344 2.30469L4.10156 1.14258Q3.75 0.791016 3.79395 0.522461Q3.83789 0.253906 4.14062-0.0195312L15.6152-10.8203L14.6387-11.7871L3.04688-0.898438Q2.30469-0.214844 2.25098 0.498047Q2.19727 1.21094 2.8418 1.86523ZM9.25781-16.3281Q8.94531-16.0254 8.90625-15.6348Q8.86719-15.2441 9.04297-14.9512Q9.21875-14.6777 9.55566-14.541Q9.89258-14.4043 10.3809-14.5215Q11.4746-14.7754 12.5977-14.7314Q13.7207-14.6875 14.7949-13.9844L14.209-12.5293Q13.9551-11.9043 14.0674-11.4404Q14.1797-10.9766 14.5801-10.5664L16.875-8.25195Q17.2363-7.88086 17.5781-7.82227Q17.9199-7.76367 18.3398-7.8418L19.4043-8.03711L20.0684-7.36328L20.0293-6.80664Q20-6.43555 20.1221-6.12305Q20.2441-5.81055 20.6055-5.44922L21.3672-4.70703Q21.7285-4.3457 22.1533-4.33105Q22.5781-4.31641 22.9297-4.66797L25.8398-7.58789Q26.1914-7.93945 26.1816-8.35449Q26.1719-8.76953 25.8105-9.13086L25.0391-9.89258Q24.6875-10.2539 24.3799-10.3857Q24.0723-10.5176 23.7109-10.4883L23.1348-10.4395L22.4902-11.0742L22.7344-12.1973Q22.832-12.6172 22.6953-12.9834Q22.5586-13.3496 22.1191-13.7891L19.9219-15.9766Q18.6719-17.2168 17.2607-17.8369Q15.8496-18.457 14.4189-18.4814Q12.9883-18.5059 11.665-17.959Q10.3418-17.4121 9.25781-16.3281ZM10.752-15.957Q11.6602-16.6211 12.7002-16.9043Q13.7402-17.1875 14.8047-17.085Q15.8691-16.9824 16.8701-16.5137Q17.8711-16.0449 18.7012-15.2051L21.1328-12.793Q21.3086-12.6172 21.3525-12.4512Q21.3965-12.2852 21.3379-12.0312L21.0156-10.5469L22.5195-9.0625L23.5059-9.12109Q23.6914-9.13086 23.7891-9.09668Q23.8867-9.0625 24.0332-8.91602L24.6094-8.33984L22.168-5.89844L21.5918-6.47461Q21.4453-6.62109 21.4062-6.71875Q21.3672-6.81641 21.377-7.01172L21.4453-7.98828L19.9512-9.47266L18.4277-9.21875Q18.1836-9.16992 18.042-9.2041Q17.9004-9.23828 17.7148-9.41406L15.7129-11.416Q15.5176-11.5918 15.4932-11.7529Q15.4688-11.9141 15.5859-12.1875L16.4648-14.2773Q15.293-15.3711 13.8281-15.791Q12.3633-16.2109 10.8398-15.7617Q10.7227-15.7324 10.6885-15.8057Q10.6543-15.8789 10.752-15.957Z"/>
  </g>
  <text style="stroke:none;fill:black;font-family:sans-serif;font-size:13;font-weight:bold;" transform="matrix(1 0 0 1 1289 1953)">Exporting</text>
  <text style="stroke:none;fill:black;font-family:sans-serif;font-size:13;" transform="matrix(1 0 0 1 1289 1971)">Symbols should be outlined when exporting to ensure the</text>
  <text style="stroke:none;fill:black;font-family:sans-serif;font-size:13;" transform="matrix(1 0 0 1 1289 1989)">design is preserved when submitting to Xcode.</text>
  <text id="template-version" style="stroke:none;fill:black;font-family:sans-serif;font-size:13;text-anchor:end;" transform="matrix(1 0 0 1 3036 1933)">Template v.2.0</text>
  <text style="stroke:none;fill:black;font-family:sans-serif;font-size:13;text-anchor:end;" transform="matrix(1 0 0 1 3036 1951)">Requires Xcode 13 or greater</text>
  <text id="descriptive-name" style="stroke:none;fill:black;font-family:sans-serif;font-size:13;text-anchor:end;" transform="matrix(1 0 0 1 3036 1969)">Generated from square.text.square.fill</text>
  <text style="stroke:none;fill:black;font-family:sans-serif;font-size:13;text-anchor:end;" transform="matrix(1 0 0 1 3036 1987)">Typeset at 100 points</text>
  <text style="stroke:none;fill:black;font-family:sans-serif;font-size:13;" transform="matrix(1 0 0 1 263 726)">Small</text>
  <text style="stroke:none;fill:black;font-family:sans-serif;font-size:13;" transform="matrix(1 0 0 1 263 1156)">Medium</text>
  <text style="stroke:none;fill:black;font-family:sans-serif;font-size:13;" transform="matrix(1 0 0 1 263 1586)">Large</text>
 </g>
 <g id="Guides">
  <g id="H-reference" style="fill:#27AAE1;stroke:none;" transform="matrix(1 0 0 1 339 696)">
   <path d="M0.976562 0L3.66211 0L29.3457-67.1387L30.0293-67.1387L30.0293-70.459L28.125-70.459ZM11.6699-24.4629L46.9727-24.4629L46.2402-26.709L12.4512-26.709ZM55.127 0L57.7637 0L30.6152-70.459L29.4434-70.459L29.4434-67.1387Z"/>
  </g>
  <line id="Baseline-S" style="fill:none;stroke:#27AAE1;opacity:1;stroke-width:0.5;" x1="263" x2="3036" y1="696" y2="696"/>
  <line id="Capline-S" style="fill:none;stroke:#27AAE1;opacity:1;stroke-width:0.5;" x1="263" x2="3036" y1="625.541" y2="625.541"/>
  <g id="H-reference" style="fill:#27AAE1;stroke:none;" transform="matrix(1 0 0 1 339 1126)">
   <path d="M0.976562 0L3.66211 0L29.3457-67.1387L30.0293-67.1387L30.0293-70.459L28.125-70.459ZM11.6699-24.4629L46.9727-24.4629L46.2402-26.709L12.4512-26.709ZM55.127 0L57.7637 0L30.6152-70.459L29.4434-70.459L29.4434-67.1387Z"/>
  </g>
  <line id="Baseline-M" style="fill:none;stroke:#27AAE1;opacity:1;stroke-width:0.5;" x1="263" x2="3036" y1="1126" y2="1126"/>
  <line id="Capline-M" style="fill:none;stroke:#27AAE1;opacity:1;stroke-width:0.5;" x1="263" x2="3036" y1="1055.54" y2="1055.54"/>
  <g id="H-reference" style="fill:#27AAE1;stroke:none;" transform="matrix(1 0 0 1 339 1556)">
   <path d="M0.976562 0L3.66211 0L29.3457-67.1387L30.0293-67.1387L30.0293-70.459L28.125-70.459ZM11.6699-24.4629L46.9727-24.4629L46.2402-26.709L12.4512-26.709ZM55.127 0L57.7637 0L30.6152-70.459L29.4434-70.459L29.4434-67.1387Z"/>
  </g>
  <line id="Baseline-L" style="fill:none;stroke:#27AAE1;opacity:1;stroke-width:0.5;" x1="263" x2="3036" y1="1556" y2="1556"/>
  <line id="Capline-L" style="fill:none;stroke:#27AAE1;opacity:1;stroke-width:0.5;" x1="263" x2="3036" y1="1485.54" y2="1485.54"/>
  <line id="left-margin" style="fill:none;stroke:#00AEEF;stroke-width:0.5;opacity:1.0;" x1="1392.45" x2="1392.45" y1="1030.79" y2="1150.12"/>
  <line id="right-margin" style="fill:none;stroke:#00AEEF;stroke-width:0.5;opacity:1.0;" x1="1507.24" x2="1507.24" y1="1030.79" y2="1150.12"/>
 </g>
 <g id="Symbols">
  <g id="Black-L" transform="matrix(1 0 0 1 2855.62 1556)">
   <path d="M39.9902 26.5137L115.576 26.5137Q127.002 26.5137 133.252 20.3125Q139.502 14.1113 139.502 2.68555L139.502-73.0957Q139.502-84.4727 133.252-90.6738Q127.002-96.875 115.576-96.875L39.9902-96.875Q28.5645-96.875 22.3145-90.6738Q16.0645-84.4727 16.0645-73.0957L16.0645 2.68555Q16.0645 14.1113 22.3145 20.3125Q28.5645 26.5137 39.9902 26.5137ZM45.8984-19.0918Q43.7988-19.0918 42.3828-20.5078Q40.9668-21.9238 40.9668-24.0234Q40.9668-26.0254 42.3828-27.3926Q43.7988-28.7598 45.8984-28.7598L104.98-28.7598Q107.031-28.7598 108.423-27.3926Q109.814-26.0254 109.814-24.0234Q109.814-21.9238 108.423-20.5078Q107.031-19.0918 104.98-19.0918ZM45.8984 2.7832Q43.7988 2.7832 42.3828 1.3916Q40.9668 0 40.9668-2.00195Q40.9668-4.05273 42.3828-5.49316Q43.7988-6.93359 45.8984-6.93359L91.4062-6.93359Q93.5059-6.93359 94.873-5.49316Q96.2402-4.05273 96.2402-2.00195Q96.2402 0 94.873 1.3916Q93.5059 2.7832 91.4062 2.7832ZM41.1133-68.5059Q41.1133-72.3633 43.1641-74.4141Q45.2148-76.4648 49.0234-76.4648L62.0117-76.4648Q65.8691-76.4648 67.8955-74.4141Q69.9219-72.3633 69.9219-68.5059L69.9219-55.5664Q69.9219-51.709 67.8955-49.6826Q65.8691-47.6562 62.0117-47.6562L49.0234-47.6562Q45.2148-47.6562 43.1641-49.6826Q41.1133-51.709 41.1133-55.5664Z"/>
  </g>
  <g id="Heavy-L" transform="matrix(1 0 0 1 2559.93 1556)">
   <path d="M38.8184 25.4883L114.697 25.4883Q125.684 25.4883 131.567 19.6289Q137.451 13.7695 137.451 2.88086L137.451-73.2422Q137.451-84.1309 131.567-89.9902Q125.684-95.8496 114.697-95.8496L38.8184-95.8496Q27.8809-95.8496 21.9727-89.9902Q16.0645-84.1309 16.0645-73.2422L16.0645 2.88086Q16.0645 13.8184 21.9727 19.6533Q27.8809 25.4883 38.8184 25.4883ZM44.2383-18.8965Q42.2852-18.8965 40.9668-20.2148Q39.6484-21.5332 39.6484-23.4863Q39.6484-25.3418 40.9668-26.6113Q42.2852-27.8809 44.2383-27.8809L104.395-27.8809Q106.348-27.8809 107.617-26.6113Q108.887-25.3418 108.887-23.4863Q108.887-21.5332 107.617-20.2148Q106.348-18.8965 104.395-18.8965ZM44.2383 2.83203Q42.2852 2.83203 40.9668 1.53809Q39.6484 0.244141 39.6484-1.61133Q39.6484-3.51562 40.9668-4.8584Q42.2852-6.20117 44.2383-6.20117L89.9902-6.20117Q91.9434-6.20117 93.2129-4.8584Q94.4824-3.51562 94.4824-1.61133Q94.4824 0.244141 93.2129 1.53809Q91.9434 2.83203 89.9902 2.83203ZM39.8926-68.7012Q39.8926-72.3145 41.8701-74.2676Q43.8477-76.2207 47.4121-76.2207L61.2793-76.2207Q64.8926-76.2207 66.8213-74.2676Q68.75-72.3145 68.75-68.7012L68.75-54.8828Q68.75-51.2695 66.8213-49.3164Q64.8926-47.3633 61.2793-47.3633L47.4121-47.3633Q43.8477-47.3633 41.8701-49.3164Q39.8926-51.2695 39.8926-54.8828Z"/>
  </g>
  <g id="Bold-L" transform="matrix(1 0 0 1 2264.34 1556)">
   <path d="M37.5488 24.3652L113.721 24.3652Q124.17 24.3652 129.688 18.8965Q135.205 13.4277 135.205 3.07617L135.205-73.4375Q135.205-83.7891 129.688-89.2578Q124.17-94.7266 113.721-94.7266L37.5488-94.7266Q27.0996-94.7266 21.582-89.2578Q16.0645-83.7891 16.0645-73.4375L16.0645 3.07617Q16.0645 13.4766 21.582 18.9209Q27.0996 24.3652 37.5488 24.3652ZM42.3828-18.7012Q40.5762-18.7012 39.3799-19.8975Q38.1836-21.0938 38.1836-22.9004Q38.1836-24.6094 39.3799-25.7568Q40.5762-26.9043 42.3828-26.9043L103.809-26.9043Q105.566-26.9043 106.738-25.7568Q107.91-24.6094 107.91-22.9004Q107.91-21.0938 106.738-19.8975Q105.566-18.7012 103.809-18.7012ZM42.3828 2.88086Q40.5762 2.88086 39.3799 1.68457Q38.1836 0.488281 38.1836-1.2207Q38.1836-2.97852 39.3799-4.19922Q40.5762-5.41992 42.3828-5.41992L88.4277-5.41992Q90.2344-5.41992 91.4062-4.19922Q92.5781-2.97852 92.5781-1.2207Q92.5781 0.488281 91.4062 1.68457Q90.2344 2.88086 88.4277 2.88086ZM38.5742-68.9453Q38.5742-72.2656 40.4297-74.1211Q42.2852-75.9766 45.6543-75.9766L60.4492-75.9766Q63.8184-75.9766 65.6494-74.1211Q67.4805-72.2656 67.4805-68.9453L67.4805-54.1016Q67.4805-50.7812 65.6494-48.9258Q63.8184-47.0703 60.4492-47.0703L45.6543-47.0703Q42.2852-47.0703 40.4297-48.9258Q38.5742-50.7812 38.5742-54.1016Z"/>
  </g>
  <g id="Semibold-L" transform="matrix(1 0 0 1 1968.44 1556)">
   <path d="M36.6211 23.584L112.988 23.584Q123.145 23.584 128.369 18.3838Q133.594 13.1836 133.594 3.17383L133.594-73.5352Q133.594-83.4961 128.369-88.6963Q123.145-93.8965 112.988-93.8965L36.6211-93.8965Q26.5625-93.8965 21.3135-88.7207Q16.0645-83.5449 16.0645-73.5352L16.0645 3.17383Q16.0645 13.2324 21.3135 18.4082Q26.5625 23.584 36.6211 23.584ZM41.1133-18.5547Q39.4043-18.5547 38.2812-19.6777Q37.1582-20.8008 37.1582-22.4609Q37.1582-24.0723 38.2812-25.1465Q39.4043-26.2207 41.1133-26.2207L103.32-26.2207Q104.98-26.2207 106.104-25.1465Q107.227-24.0723 107.227-22.4609Q107.227-20.8008 106.104-19.6777Q104.98-18.5547 103.32-18.5547ZM41.1133 2.88086Q39.4043 2.88086 38.2812 1.78223Q37.1582 0.683594 37.1582-0.878906Q37.1582-2.53906 38.2812-3.68652Q39.4043-4.83398 41.1133-4.83398L87.3535-4.83398Q89.0137-4.83398 90.1123-3.68652Q91.2109-2.53906 91.2109-0.878906Q91.2109 0.683594 90.1123 1.78223Q89.0137 2.88086 87.3535 2.88086ZM37.6465-69.0918Q37.6465-72.2168 39.4287-73.999Q41.2109-75.7812 44.3848-75.7812L59.8145-75.7812Q63.0371-75.7812 64.8193-73.999Q66.6016-72.2168 66.6016-69.0918L66.6016-53.5645Q66.6016-50.3906 64.8193-48.6328Q63.0371-46.875 59.8145-46.875L44.3848-46.875Q41.2109-46.875 39.4287-48.6328Q37.6465-50.3906 37.6465-53.5645Z"/>
  </g>
  <g id="Medium-L" transform="matrix(1 0 0 1 1672.31 1556)">
   <path d="M35.9375 22.998L112.5 22.998Q122.363 22.998 127.393 17.9932Q132.422 12.9883 132.422 3.27148L132.422-73.6328Q132.422-83.3008 127.393-88.3057Q122.363-93.3105 112.5-93.3105L35.9375-93.3105Q26.1719-93.3105 21.1182-88.3301Q16.0645-83.3496 16.0645-73.6328L16.0645 3.27148Q16.0645 13.0371 21.1182 18.0176Q26.1719 22.998 35.9375 22.998ZM40.1367-18.457Q38.5254-18.457 37.4756-19.5068Q36.4258-20.5566 36.4258-22.1191Q36.4258-23.6816 37.4756-24.707Q38.5254-25.7324 40.1367-25.7324L103.027-25.7324Q104.59-25.7324 105.664-24.707Q106.738-23.6816 106.738-22.1191Q106.738-20.5566 105.664-19.5068Q104.59-18.457 103.027-18.457ZM40.1367 2.88086Q38.5254 2.88086 37.4756 1.83105Q36.4258 0.78125 36.4258-0.683594Q36.4258-2.24609 37.4756-3.32031Q38.5254-4.39453 40.1367-4.39453L86.5234-4.39453Q88.1348-4.39453 89.1846-3.32031Q90.2344-2.24609 90.2344-0.683594Q90.2344 0.78125 89.1846 1.83105Q88.1348 2.88086 86.5234 2.88086ZM36.9629-69.1895Q36.9629-72.2168 38.6963-73.9258Q40.4297-75.6348 43.457-75.6348L59.4238-75.6348Q62.5-75.6348 64.209-73.9258Q65.918-72.2168 65.918-69.1895L65.918-53.1738Q65.918-50.1465 64.209-48.4131Q62.5-46.6797 59.4238-46.6797L43.457-46.6797Q40.4297-46.6797 38.6963-48.4131Q36.9629-50.1465 36.9629-53.1738Z"/>
  </g>
  <g id="Regular-L" transform="matrix(1 0 0 1 1376.38 1556)">
   <path d="M35.0586 22.2168L111.816 22.2168Q121.338 22.2168 126.099 17.4805Q130.859 12.7441 130.859 3.41797L130.859-73.7305Q130.859-83.0566 126.099-87.793Q121.338-92.5293 111.816-92.5293L35.0586-92.5293Q25.6348-92.5293 20.8496-87.8174Q16.0645-83.1055 16.0645-73.7305L16.0645 3.41797Q16.0645 12.793 20.8496 17.5049Q25.6348 22.2168 35.0586 22.2168ZM38.8672-18.3105Q37.3535-18.3105 36.377-19.2871Q35.4004-20.2637 35.4004-21.7285Q35.4004-23.1445 36.377-24.0967Q37.3535-25.0488 38.8672-25.0488L102.588-25.0488Q104.053-25.0488 105.029-24.0967Q106.006-23.1445 106.006-21.7285Q106.006-20.2637 105.029-19.2871Q104.053-18.3105 102.588-18.3105ZM38.8672 2.92969Q37.3535 2.92969 36.377 1.95312Q35.4004 0.976562 35.4004-0.390625Q35.4004-1.85547 36.377-2.85645Q37.3535-3.85742 38.8672-3.85742L85.4492-3.85742Q86.9141-3.85742 87.8906-2.85645Q88.8672-1.85547 88.8672-0.390625Q88.8672 0.976562 87.8906 1.95312Q86.9141 2.92969 85.4492 2.92969ZM36.0352-69.3359Q36.0352-72.168 37.6953-73.8037Q39.3555-75.4395 42.2363-75.4395L58.8379-75.4395Q61.7188-75.4395 63.3789-73.8037Q65.0391-72.168 65.0391-69.3359L65.0391-52.6367Q65.0391-49.8047 63.3789-48.1445Q61.7188-46.4844 58.8379-46.4844L42.2363-46.4844Q39.3555-46.4844 37.6953-48.1445Q36.0352-49.8047 36.0352-52.6367Z"/>
  </g>
  <g id="Light-L" transform="matrix(1 0 0 1 1080.5 1556)">
   <path d="M34.0332 21.4355L111.182 21.4355Q120.117 21.4355 124.658 16.8945Q129.199 12.3535 129.199 3.56445L129.199-73.8281Q129.199-82.6172 124.658-87.1582Q120.117-91.6992 111.182-91.6992L34.0332-91.6992Q25.1465-91.6992 20.6055-87.207Q16.0645-82.7148 16.0645-73.8281L16.0645 3.56445Q16.0645 12.4023 20.6055 16.9189Q25.1465 21.4355 34.0332 21.4355ZM38.1836-18.75Q37.0117-18.75 36.2061-19.5312Q35.4004-20.3125 35.4004-21.4844Q35.4004-22.6074 36.2061-23.3643Q37.0117-24.1211 38.1836-24.1211L102.441-24.1211Q103.662-24.1211 104.443-23.3643Q105.225-22.6074 105.225-21.4844Q105.225-20.3125 104.443-19.5312Q103.662-18.75 102.441-18.75ZM38.1836 2.09961Q37.0117 2.09961 36.2061 1.31836Q35.4004 0.537109 35.4004-0.537109Q35.4004-1.75781 36.2061-2.53906Q37.0117-3.32031 38.1836-3.32031L84.6191-3.32031Q85.791-3.32031 86.5967-2.53906Q87.4023-1.75781 87.4023-0.537109Q87.4023 0.537109 86.5967 1.31836Q85.791 2.09961 84.6191 2.09961ZM36.084-68.9941Q36.084-71.582 37.6465-73.1201Q39.209-74.6582 41.8457-74.6582L59.6191-74.6582Q62.2559-74.6582 63.8184-73.1201Q65.3809-71.582 65.3809-68.9941L65.3809-51.123Q65.3809-48.5352 63.8184-46.9727Q62.2559-45.4102 59.6191-45.4102L41.8457-45.4102Q39.209-45.4102 37.6465-46.9727Q36.084-48.5352 36.084-51.123Z"/>
  </g>
  <g id="Thin-L" transform="matrix(1 0 0 1 784.889 1556)">
   <path d="M32.666 20.3613L110.352 20.3613Q118.506 20.3613 122.754 16.0889Q127.002 11.8164 127.002 3.75977L127.002-73.9746Q127.002-82.0312 122.754-86.3037Q118.506-90.5762 110.352-90.5762L32.666-90.5762Q24.5117-90.5762 20.2881-86.377Q16.0645-82.1777 16.0645-73.9746L16.0645 3.75977Q16.0645 11.9141 20.2881 16.1377Q24.5117 20.3613 32.666 20.3613ZM37.3047-19.2871Q36.5234-19.2871 35.9619-19.8242Q35.4004-20.3613 35.4004-21.1426Q35.4004-21.875 35.9619-22.4121Q36.5234-22.9492 37.3047-22.9492L102.295-22.9492Q103.125-22.9492 103.662-22.4121Q104.199-21.875 104.199-21.1426Q104.199-20.3613 103.662-19.8242Q103.125-19.2871 102.295-19.2871ZM37.3047 1.02539Q36.5234 1.02539 35.9619 0.488281Q35.4004-0.0488281 35.4004-0.78125Q35.4004-1.5625 35.9619-2.09961Q36.5234-2.63672 37.3047-2.63672L83.5449-2.63672Q84.3262-2.63672 84.8877-2.09961Q85.4492-1.5625 85.4492-0.78125Q85.4492-0.0488281 84.8877 0.488281Q84.3262 1.02539 83.5449 1.02539ZM36.1816-68.5059Q36.1816-70.8496 37.5977-72.2412Q39.0137-73.6328 41.3086-73.6328L60.6934-73.6328Q63.0371-73.6328 64.4531-72.2412Q65.8691-70.8496 65.8691-68.5059L65.8691-49.1699Q65.8691-46.875 64.4531-45.4346Q63.0371-43.9941 60.6934-43.9941L41.3086-43.9941Q39.0137-43.9941 37.5977-45.4346Q36.1816-46.875 36.1816-49.1699Z"/>
  </g>
  <g id="Ultralight-L" transform="matrix(1 0 0 1 488.739 1556)">
   <path d="M31.9824 19.8242L109.961 19.8242Q117.725 19.8242 121.802 15.6738Q125.879 11.5234 125.879 3.85742L125.879-74.0723Q125.879-81.7383 121.802-85.8643Q117.725-89.9902 109.961-89.9902L31.9824-89.9902Q24.1699-89.9902 20.1172-85.9375Q16.0645-81.8848 16.0645-74.0723L16.0645 3.85742Q16.0645 11.6699 20.1172 15.7471Q24.1699 19.8242 31.9824 19.8242ZM36.8652-19.5801Q36.2793-19.5801 35.8398-19.9951Q35.4004-20.4102 35.4004-20.9473Q35.4004-21.5332 35.8398-21.9238Q36.2793-22.3145 36.8652-22.3145L102.197-22.3145Q102.832-22.3145 103.247-21.9238Q103.662-21.5332 103.662-20.9473Q103.662-20.4102 103.247-19.9951Q102.832-19.5801 102.197-19.5801ZM36.8652 0.488281Q36.2793 0.488281 35.8398 0.0732422Q35.4004-0.341797 35.4004-0.878906Q35.4004-1.51367 35.8398-1.87988Q36.2793-2.24609 36.8652-2.24609L83.0078-2.24609Q83.5938-2.24609 84.0332-1.87988Q84.4727-1.51367 84.4727-0.878906Q84.4727-0.341797 84.0332 0.0732422Q83.5938 0.488281 83.0078 0.488281ZM36.2305-68.3105Q36.2305-70.459 37.5732-71.8018Q38.916-73.1445 41.0645-73.1445L61.2305-73.1445Q63.3789-73.1445 64.7217-71.8018Q66.0645-70.459 66.0645-68.3105L66.0645-48.1445Q66.0645-45.9961 64.7217-44.6289Q63.3789-43.2617 61.2305-43.2617L41.0645-43.2617Q38.916-43.2617 37.5732-44.6289Q36.2305-45.9961 36.2305-48.1445Z"/>
  </g>
  <g id="Black-M" transform="matrix(1 0 0 1 2872.54 1126)">
   <path d="M31.5918 13.2324L90.1367 13.2324Q99.1699 13.2324 104.224 8.17871Q109.277 3.125 109.277-5.9082L109.277-64.4531Q109.277-73.5352 104.224-78.5645Q99.1699-83.5938 90.1367-83.5938L31.5918-83.5938Q22.5586-83.5938 17.5049-78.5645Q12.4512-73.5352 12.4512-64.4531L12.4512-5.9082Q12.4512 3.125 17.5049 8.17871Q22.5586 13.2324 31.5918 13.2324ZM36.7676-23.0469Q35.1074-23.0469 33.9844-24.1455Q32.8613-25.2441 32.8613-26.9043Q32.8613-28.5156 33.9844-29.5898Q35.1074-30.6641 36.7676-30.6641L81.7871-30.6641Q83.3984-30.6641 84.4971-29.5898Q85.5957-28.5156 85.5957-26.9043Q85.5957-25.2441 84.4971-24.1455Q83.3984-23.0469 81.7871-23.0469ZM36.7676-6.10352Q35.1074-6.10352 33.9844-7.17773Q32.8613-8.25195 32.8613-9.86328Q32.8613-11.4746 33.9844-12.6221Q35.1074-13.7695 36.7676-13.7695L71.7285-13.7695Q73.3887-13.7695 74.4629-12.6221Q75.5371-11.4746 75.5371-9.86328Q75.5371-8.25195 74.4629-7.17773Q73.3887-6.10352 71.7285-6.10352ZM32.9102-60.7422Q32.9102-63.8672 34.5215-65.5029Q36.1328-67.1387 39.209-67.1387L48.9746-67.1387Q52.0508-67.1387 53.6865-65.5029Q55.3223-63.8672 55.3223-60.7422L55.3223-51.0742Q55.3223-47.998 53.6865-46.3623Q52.0508-44.7266 48.9746-44.7266L39.209-44.7266Q36.1328-44.7266 34.5215-46.3623Q32.9102-47.998 32.9102-51.0742Z"/>
  </g>
  <g id="Heavy-M" transform="matrix(1 0 0 1 2576.65 1126)">
   <path d="M30.7129 12.4023L89.4043 12.4023Q98.0957 12.4023 102.856 7.66602Q107.617 2.92969 107.617-5.76172L107.617-64.5996Q107.617-73.291 102.856-78.0273Q98.0957-82.7637 89.4043-82.7637L30.7129-82.7637Q21.9727-82.7637 17.2119-78.0273Q12.4512-73.291 12.4512-64.5996L12.4512-5.76172Q12.4512 2.92969 17.2119 7.66602Q21.9727 12.4023 30.7129 12.4023ZM35.3027-22.7539Q33.7402-22.7539 32.666-23.8037Q31.5918-24.8535 31.5918-26.416Q31.5918-27.9785 32.666-29.0039Q33.7402-30.0293 35.3027-30.0293L81.2988-30.0293Q82.8125-30.0293 83.8623-29.0039Q84.9121-27.9785 84.9121-26.416Q84.9121-24.8535 83.8623-23.8037Q82.8125-22.7539 81.2988-22.7539ZM35.3027-5.9082Q33.7402-5.9082 32.666-6.90918Q31.5918-7.91016 31.5918-9.47266Q31.5918-10.9863 32.666-12.0605Q33.7402-13.1348 35.3027-13.1348L70.5566-13.1348Q72.1191-13.1348 73.1445-12.0605Q74.1699-10.9863 74.1699-9.47266Q74.1699-7.91016 73.1445-6.90918Q72.1191-5.9082 70.5566-5.9082ZM31.7383-60.9863Q31.7383-63.916 33.3008-65.5029Q34.8633-67.0898 37.7441-67.0898L48.0957-67.0898Q50.9766-67.0898 52.5391-65.5029Q54.1016-63.916 54.1016-60.9863L54.1016-50.7324Q54.1016-47.8027 52.5391-46.2402Q50.9766-44.6777 48.0957-44.6777L37.7441-44.6777Q34.8633-44.6777 33.3008-46.2402Q31.7383-47.8027 31.7383-50.7324Z"/>
  </g>
  <g id="Bold-M" transform="matrix(1 0 0 1 2280.85 1126)">
   <path d="M29.6875 11.5234L88.5742 11.5234Q96.9238 11.5234 101.367 7.10449Q105.811 2.68555 105.811-5.66406L105.811-64.7461Q105.811-73.0469 101.367-77.4658Q96.9238-81.8848 88.5742-81.8848L29.6875-81.8848Q21.3379-81.8848 16.8945-77.4658Q12.4512-73.0469 12.4512-64.7461L12.4512-5.66406Q12.4512 2.68555 16.8945 7.10449Q21.3379 11.5234 29.6875 11.5234ZM33.6914-22.4609Q32.1777-22.4609 31.1768-23.4619Q30.1758-24.4629 30.1758-25.9277Q30.1758-27.3438 31.1768-28.3203Q32.1777-29.2969 33.6914-29.2969L80.7129-29.2969Q82.1777-29.2969 83.1543-28.3203Q84.1309-27.3438 84.1309-25.9277Q84.1309-24.4629 83.1543-23.4619Q82.1777-22.4609 80.7129-22.4609ZM33.6914-5.66406Q32.1777-5.66406 31.1768-6.61621Q30.1758-7.56836 30.1758-9.0332Q30.1758-10.4492 31.1768-11.4746Q32.1777-12.5 33.6914-12.5L69.2383-12.5Q70.752-12.5 71.7041-11.4746Q72.6562-10.4492 72.6562-9.0332Q72.6562-7.56836 71.7041-6.61621Q70.752-5.66406 69.2383-5.66406ZM30.4688-61.3281Q30.4688-64.0137 31.9336-65.5029Q33.3984-66.9922 36.1328-66.9922L47.1191-66.9922Q49.8047-66.9922 51.2939-65.5029Q52.7832-64.0137 52.7832-61.3281L52.7832-50.3418Q52.7832-47.6562 51.2939-46.167Q49.8047-44.6777 47.1191-44.6777L36.1328-44.6777Q33.3984-44.6777 31.9336-46.167Q30.4688-47.6562 30.4688-50.3418Z"/>
  </g>
  <g id="Semibold-M" transform="matrix(1 0 0 1 1984.77 1126)">
   <path d="M29.0039 10.8887L87.9883 10.8887Q96.0938 10.8887 100.317 6.68945Q104.541 2.49023 104.541-5.51758L104.541-64.8438Q104.541-72.8516 100.317-77.0508Q96.0938-81.25 87.9883-81.25L29.0039-81.25Q20.8984-81.25 16.6748-77.0508Q12.4512-72.8516 12.4512-64.8438L12.4512-5.51758Q12.4512 2.49023 16.6748 6.68945Q20.8984 10.8887 29.0039 10.8887ZM32.4707-22.2656Q31.0547-22.2656 30.1025-23.1934Q29.1504-24.1211 29.1504-25.5371Q29.1504-26.9043 30.1025-27.832Q31.0547-28.7598 32.4707-28.7598L80.2734-28.7598Q81.6406-28.7598 82.5684-27.832Q83.4961-26.9043 83.4961-25.5371Q83.4961-24.1211 82.5684-23.1934Q81.6406-22.2656 80.2734-22.2656ZM32.4707-5.46875Q31.0547-5.46875 30.1025-6.39648Q29.1504-7.32422 29.1504-8.69141Q29.1504-10.0586 30.1025-11.0352Q31.0547-12.0117 32.4707-12.0117L68.2617-12.0117Q69.7266-12.0117 70.6543-11.0352Q71.582-10.0586 71.582-8.69141Q71.582-7.32422 70.6543-6.39648Q69.7266-5.46875 68.2617-5.46875ZM29.4922-61.5234Q29.4922-64.0625 30.9326-65.5029Q32.373-66.9434 34.9121-66.9434L46.3867-66.9434Q48.9258-66.9434 50.3662-65.5029Q51.8066-64.0625 51.8066-61.5234L51.8066-50.0488Q51.8066-47.5098 50.3662-46.0693Q48.9258-44.6289 46.3867-44.6289L34.9121-44.6289Q32.373-44.6289 30.9326-46.0693Q29.4922-47.5098 29.4922-50.0488Z"/>
  </g>
  <g id="Medium-M" transform="matrix(1 0 0 1 1688.52 1126)">
   <path d="M28.4668 10.4004L87.5977 10.4004Q95.5078 10.4004 99.5605 6.37207Q103.613 2.34375 103.613-5.46875L103.613-64.8926Q103.613-72.7539 99.5605-76.7578Q95.5078-80.7617 87.5977-80.7617L28.4668-80.7617Q20.5566-80.7617 16.5039-76.7578Q12.4512-72.7539 12.4512-64.8926L12.4512-5.46875Q12.4512 2.34375 16.5039 6.37207Q20.5566 10.4004 28.4668 10.4004ZM31.6406-22.0703Q30.2734-22.0703 29.3457-22.998Q28.418-23.9258 28.418-25.2441Q28.418-26.6113 29.3457-27.4902Q30.2734-28.3691 31.6406-28.3691L79.9805-28.3691Q81.2988-28.3691 82.2021-27.4902Q83.1055-26.6113 83.1055-25.2441Q83.1055-23.9258 82.2021-22.998Q81.2988-22.0703 79.9805-22.0703ZM31.6406-5.32227Q30.2734-5.32227 29.3457-6.22559Q28.418-7.12891 28.418-8.44727Q28.418-9.81445 29.3457-10.7422Q30.2734-11.6699 31.6406-11.6699L67.627-11.6699Q68.9941-11.6699 69.873-10.7422Q70.752-9.81445 70.752-8.44727Q70.752-7.12891 69.873-6.22559Q68.9941-5.32227 67.627-5.32227ZM28.8086-61.6699Q28.8086-64.1113 30.2002-65.5029Q31.5918-66.8945 34.082-66.8945L45.8496-66.8945Q48.3398-66.8945 49.7314-65.5029Q51.123-64.1113 51.123-61.6699L51.123-49.8535Q51.123-47.4121 49.7314-46.0205Q48.3398-44.6289 45.8496-44.6289L34.082-44.6289Q31.5918-44.6289 30.2002-46.0205Q28.8086-47.4121 28.8086-49.8535Z"/>
  </g>
  <g id="Regular-M" transform="matrix(1 0 0 1 1392.45 1126)">
   <path d="M27.7832 9.76562L87.0117 9.76562Q94.6777 9.76562 98.5107 5.98145Q102.344 2.19727 102.344-5.37109L102.344-64.9902Q102.344-72.5586 98.5107-76.3428Q94.6777-80.127 87.0117-80.127L27.7832-80.127Q20.1172-80.127 16.2842-76.3428Q12.4512-72.5586 12.4512-64.9902L12.4512-5.37109Q12.4512 2.19727 16.2842 5.98145Q20.1172 9.76562 27.7832 9.76562ZM30.5176-21.875Q29.1992-21.875 28.3203-22.7539Q27.4414-23.6328 27.4414-24.9023Q27.4414-26.1719 28.3203-27.0264Q29.1992-27.8809 30.5176-27.8809L79.5898-27.8809Q80.8594-27.8809 81.7139-27.0264Q82.5684-26.1719 82.5684-24.9023Q82.5684-23.6328 81.7139-22.7539Q80.8594-21.875 79.5898-21.875ZM30.5176-5.17578Q29.1992-5.17578 28.3203-6.03027Q27.4414-6.88477 27.4414-8.1543Q27.4414-9.42383 28.3203-10.3027Q29.1992-11.1816 30.5176-11.1816L66.6992-11.1816Q68.0176-11.1816 68.8721-10.3027Q69.7266-9.42383 69.7266-8.1543Q69.7266-6.88477 68.8721-6.03027Q68.0176-5.17578 66.6992-5.17578ZM27.9297-61.8652Q27.9297-64.1602 29.2725-65.5029Q30.6152-66.8457 32.959-66.8457L45.166-66.8457Q47.5098-66.8457 48.8525-65.5029Q50.1953-64.1602 50.1953-61.8652L50.1953-49.5605Q50.1953-47.2656 48.8525-45.9229Q47.5098-44.5801 45.166-44.5801L32.959-44.5801Q30.6152-44.5801 29.2725-45.9229Q27.9297-47.2656 27.9297-49.5605Z"/>
  </g>
  <g id="Light-M" transform="matrix(1 0 0 1 1096.47 1126)">
   <path d="M26.8555 9.0332L86.4746 9.0332Q93.6035 9.0332 97.2412 5.44434Q100.879 1.85547 100.879-5.22461L100.879-65.0879Q100.879-72.168 97.2412-75.7812Q93.6035-79.3945 86.4746-79.3945L26.8555-79.3945Q19.6777-79.3945 16.0645-75.8057Q12.4512-72.2168 12.4512-65.0879L12.4512-5.22461Q12.4512 1.85547 16.0645 5.44434Q19.6777 9.0332 26.8555 9.0332ZM29.9316-22.2656Q28.8574-22.2656 28.1494-22.9736Q27.4414-23.6816 27.4414-24.6582Q27.4414-25.6836 28.1494-26.3672Q28.8574-27.0508 29.9316-27.0508L79.4922-27.0508Q80.5176-27.0508 81.2012-26.3672Q81.8848-25.6836 81.8848-24.6582Q81.8848-23.6816 81.2012-22.9736Q80.5176-22.2656 79.4922-22.2656ZM29.9316-5.9082Q28.8574-5.9082 28.1494-6.5918Q27.4414-7.27539 27.4414-8.30078Q27.4414-9.32617 28.1494-10.0342Q28.8574-10.7422 29.9316-10.7422L65.9668-10.7422Q67.041-10.7422 67.7246-10.0342Q68.4082-9.32617 68.4082-8.30078Q68.4082-7.27539 67.7246-6.5918Q67.041-5.9082 65.9668-5.9082ZM27.9785-61.5234Q27.9785-63.623 29.2236-64.8926Q30.4688-66.1621 32.6172-66.1621L45.8984-66.1621Q47.998-66.1621 49.2676-64.8926Q50.5371-63.623 50.5371-61.5234L50.5371-48.1934Q50.5371-46.0938 49.2676-44.8486Q47.998-43.6035 45.8984-43.6035L32.6172-43.6035Q30.4688-43.6035 29.2236-44.8486Q27.9785-46.0938 27.9785-48.1934Z"/>
  </g>
  <g id="Thin-M" transform="matrix(1 0 0 1 800.758 1126)">
   <path d="M25.5859 8.05664L85.6934 8.05664Q92.2363 8.05664 95.5566 4.71191Q98.877 1.36719 98.877-5.07812L98.877-65.2344Q98.877-71.6309 95.5566-75Q92.2363-78.3691 85.6934-78.3691L25.5859-78.3691Q19.1406-78.3691 15.7959-75.0488Q12.4512-71.7285 12.4512-65.2344L12.4512-5.07812Q12.4512 1.41602 15.7959 4.73633Q19.1406 8.05664 25.5859 8.05664ZM29.1016-22.7539Q28.3691-22.7539 27.9053-23.2178Q27.4414-23.6816 27.4414-24.3652Q27.4414-25.0488 27.9053-25.5127Q28.3691-25.9766 29.1016-25.9766L79.2969-25.9766Q80.0293-25.9766 80.4932-25.5127Q80.957-25.0488 80.957-24.3652Q80.957-23.6816 80.4932-23.2178Q80.0293-22.7539 79.2969-22.7539ZM29.1016-6.88477Q28.3691-6.88477 27.9053-7.34863Q27.4414-7.8125 27.4414-8.49609Q27.4414-9.17969 27.9053-9.64355Q28.3691-10.1074 29.1016-10.1074L64.9902-10.1074Q65.6738-10.1074 66.1621-9.64355Q66.6504-9.17969 66.6504-8.49609Q66.6504-7.8125 66.1621-7.34863Q65.6738-6.88477 64.9902-6.88477ZM28.0273-61.1328Q28.0273-62.9883 29.1748-64.1113Q30.3223-65.2344 32.1289-65.2344L46.8262-65.2344Q48.6816-65.2344 49.8047-64.1113Q50.9277-62.9883 50.9277-61.1328L50.9277-46.4355Q50.9277-44.5801 49.8047-43.457Q48.6816-42.334 46.8262-42.334L32.1289-42.334Q30.3223-42.334 29.1748-43.457Q28.0273-44.5801 28.0273-46.4355Z"/>
  </g>
  <g id="Ultralight-M" transform="matrix(1 0 0 1 504.535 1126)">
   <path d="M24.9512 7.56836L85.3516 7.56836Q91.5039 7.56836 94.7021 4.3457Q97.9004 1.12305 97.9004-4.98047L97.9004-65.332Q97.9004-71.3867 94.7021-74.6338Q91.5039-77.8809 85.3516-77.8809L24.9512-77.8809Q18.8477-77.8809 15.6494-74.6826Q12.4512-71.4844 12.4512-65.332L12.4512-4.98047Q12.4512 1.2207 15.6494 4.39453Q18.8477 7.56836 24.9512 7.56836ZM28.7109-22.998Q28.1738-22.998 27.8076-23.3643Q27.4414-23.7305 27.4414-24.2188Q27.4414-24.707 27.8076-25.0732Q28.1738-25.4395 28.7109-25.4395L79.248-25.4395Q79.7852-25.4395 80.127-25.0732Q80.4688-24.707 80.4688-24.2188Q80.4688-23.7305 80.127-23.3643Q79.7852-22.998 79.248-22.998ZM28.7109-7.42188Q28.1738-7.42188 27.8076-7.76367Q27.4414-8.10547 27.4414-8.59375Q27.4414-9.08203 27.8076-9.44824Q28.1738-9.81445 28.7109-9.81445L64.4531-9.81445Q65.0391-9.81445 65.4053-9.44824Q65.7715-9.08203 65.7715-8.59375Q65.7715-8.10547 65.4053-7.76367Q65.0391-7.42188 64.4531-7.42188ZM28.0762-60.8887Q28.0762-62.5977 29.1504-63.6719Q30.2246-64.7461 31.9336-64.7461L47.3145-64.7461Q49.0234-64.7461 50.0977-63.6719Q51.1719-62.5977 51.1719-60.8887L51.1719-45.5078Q51.1719-43.7988 50.0977-42.7246Q49.0234-41.6504 47.3145-41.6504L31.9336-41.6504Q30.2246-41.6504 29.1504-42.7246Q28.0762-43.7988 28.0762-45.5078Z"/>
  </g>
  <g id="Black-S" transform="matrix(1 0 0 1 2885.5 696)">
   <path d="M25 2.92969L70.8008 2.92969Q77.9785 2.92969 82.0068-1.09863Q86.0352-5.12695 86.0352-12.3047L86.0352-58.1055Q86.0352-65.2832 82.0068-69.3115Q77.9785-73.3398 70.8008-73.3398L25-73.3398Q17.8223-73.3398 13.7939-69.3115Q9.76562-65.2832 9.76562-58.1055L9.76562-12.3047Q9.76562-5.12695 13.7939-1.09863Q17.8223 2.92969 25 2.92969ZM29.1992-25.7812Q27.8809-25.7812 27.002-26.6602Q26.123-27.5391 26.123-28.8574Q26.123-30.127 27.002-30.957Q27.8809-31.7871 29.1992-31.7871L64.209-31.7871Q65.4785-31.7871 66.3574-30.957Q67.2363-30.127 67.2363-28.8574Q67.2363-27.5391 66.3574-26.6602Q65.4785-25.7812 64.209-25.7812ZM29.1992-12.5Q27.8809-12.5 27.002-13.3789Q26.123-14.2578 26.123-15.4785Q26.123-16.748 27.002-17.6514Q27.8809-18.5547 29.1992-18.5547L56.4941-18.5547Q57.8125-18.5547 58.667-17.6514Q59.5215-16.748 59.5215-15.4785Q59.5215-14.2578 58.667-13.3789Q57.8125-12.5 56.4941-12.5ZM26.123-55.127Q26.123-57.6172 27.417-58.9111Q28.7109-60.2051 31.1523-60.2051L38.6719-60.2051Q41.1133-60.2051 42.4072-58.9111Q43.7012-57.6172 43.7012-55.127L43.7012-47.6562Q43.7012-45.2148 42.4072-43.9209Q41.1133-42.627 38.6719-42.627L31.1523-42.627Q28.7109-42.627 27.417-43.9209Q26.123-45.2148 26.123-47.6562Z"/>
  </g>
  <g id="Heavy-S" transform="matrix(1 0 0 1 2589.4 696)">
   <path d="M24.3652 2.34375L70.2637 2.34375Q77.1973 2.34375 81.0059-1.46484Q84.8145-5.27344 84.8145-12.207L84.8145-58.2031Q84.8145-65.1367 81.0059-68.9453Q77.1973-72.7539 70.2637-72.7539L24.3652-72.7539Q17.3828-72.7539 13.5742-68.9453Q9.76562-65.1367 9.76562-58.2031L9.76562-12.207Q9.76562-5.27344 13.5742-1.46484Q17.3828 2.34375 24.3652 2.34375ZM28.0273-25.4883Q26.7578-25.4883 25.9033-26.3428Q25.0488-27.1973 25.0488-28.4668Q25.0488-29.7363 25.9033-30.542Q26.7578-31.3477 28.0273-31.3477L63.8184-31.3477Q65.0391-31.3477 65.8936-30.542Q66.748-29.7363 66.748-28.4668Q66.748-27.1973 65.8936-26.3428Q65.0391-25.4883 63.8184-25.4883ZM28.0273-12.207Q26.7578-12.207 25.9033-13.0615Q25.0488-13.916 25.0488-15.0879Q25.0488-16.3574 25.9033-17.2363Q26.7578-18.1152 28.0273-18.1152L55.6152-18.1152Q56.8848-18.1152 57.7148-17.2363Q58.5449-16.3574 58.5449-15.0879Q58.5449-13.916 57.7148-13.0615Q56.8848-12.207 55.6152-12.207ZM25.1465-55.3711Q25.1465-57.7637 26.3916-59.0088Q27.6367-60.2539 29.9316-60.2539L37.8418-60.2539Q40.1367-60.2539 41.3818-59.0088Q42.627-57.7637 42.627-55.3711L42.627-47.5098Q42.627-45.2148 41.3818-43.9697Q40.1367-42.7246 37.8418-42.7246L29.9316-42.7246Q27.6367-42.7246 26.3916-43.9697Q25.1465-45.2148 25.1465-47.5098Z"/>
  </g>
  <g id="Bold-S" transform="matrix(1 0 0 1 2293.35 696)">
   <path d="M23.6328 1.66016L69.6289 1.66016Q76.3672 1.66016 79.9316-1.9043Q83.4961-5.46875 83.4961-12.1094L83.4961-58.3008Q83.4961-64.9902 79.9316-68.5303Q76.3672-72.0703 69.6289-72.0703L23.6328-72.0703Q16.9434-72.0703 13.3545-68.5303Q9.76562-64.9902 9.76562-58.3008L9.76562-12.1094Q9.76562-5.46875 13.3545-1.9043Q16.9434 1.66016 23.6328 1.66016ZM26.709-25.1953Q25.4883-25.1953 24.6582-26.0254Q23.8281-26.8555 23.8281-28.0762Q23.8281-29.248 24.6582-30.0293Q25.4883-30.8105 26.709-30.8105L63.3301-30.8105Q64.5508-30.8105 65.3564-30.0293Q66.1621-29.248 66.1621-28.0762Q66.1621-26.8555 65.3564-26.0254Q64.5508-25.1953 63.3301-25.1953ZM26.709-11.9141Q25.4883-11.9141 24.6582-12.7441Q23.8281-13.5742 23.8281-14.6973Q23.8281-15.918 24.6582-16.7725Q25.4883-17.627 26.709-17.627L54.5898-17.627Q55.8105-17.627 56.6162-16.7725Q57.4219-15.918 57.4219-14.6973Q57.4219-13.5742 56.6162-12.7441Q55.8105-11.9141 54.5898-11.9141ZM24.0234-55.7129Q24.0234-57.9102 25.2197-59.1064Q26.416-60.3027 28.6133-60.3027L36.8652-60.3027Q39.0625-60.3027 40.2588-59.1064Q41.4551-57.9102 41.4551-55.7129L41.4551-47.4121Q41.4551-45.2148 40.2588-44.0186Q39.0625-42.8223 36.8652-42.8223L28.6133-42.8223Q26.416-42.8223 25.2197-44.0186Q24.0234-45.2148 24.0234-47.4121Z"/>
  </g>
  <g id="Semibold-S" transform="matrix(1 0 0 1 1997.12 696)">
   <path d="M23.0957 1.2207L69.1895 1.2207Q75.7324 1.2207 79.126-2.17285Q82.5195-5.56641 82.5195-12.0605L82.5195-58.3496Q82.5195-64.8438 79.126-68.2373Q75.7324-71.6309 69.1895-71.6309L23.0957-71.6309Q16.6016-71.6309 13.1836-68.2373Q9.76562-64.8438 9.76562-58.3496L9.76562-12.0605Q9.76562-5.56641 13.1836-2.17285Q16.6016 1.2207 23.0957 1.2207ZM25.7812-24.9512Q24.5605-24.9512 23.7549-25.7568Q22.9492-26.5625 22.9492-27.7344Q22.9492-28.9062 23.7549-29.6875Q24.5605-30.4688 25.7812-30.4688L62.9883-30.4688Q64.1602-30.4688 64.9414-29.6875Q65.7227-28.9062 65.7227-27.7344Q65.7227-26.5625 64.9414-25.7568Q64.1602-24.9512 62.9883-24.9512ZM25.7812-11.7188Q24.5605-11.7188 23.7549-12.5Q22.9492-13.2812 22.9492-14.4043Q22.9492-15.625 23.7549-16.4307Q24.5605-17.2363 25.7812-17.2363L53.8574-17.2363Q55.0293-17.2363 55.8105-16.4307Q56.5918-15.625 56.5918-14.4043Q56.5918-13.2812 55.8105-12.5Q55.0293-11.7188 53.8574-11.7188ZM23.1934-55.9082Q23.1934-58.0078 24.3408-59.1553Q25.4883-60.3027 27.5879-60.3027L36.1816-60.3027Q38.2812-60.3027 39.4287-59.1553Q40.5762-58.0078 40.5762-55.9082L40.5762-47.2656Q40.5762-45.2148 39.4287-44.043Q38.2812-42.8711 36.1816-42.8711L27.5879-42.8711Q25.4883-42.8711 24.3408-44.043Q23.1934-45.2148 23.1934-47.2656Z"/>
  </g>
  <g id="Medium-S" transform="matrix(1 0 0 1 1700.75 696)">
   <path d="M22.7051 0.830078L68.8965 0.830078Q75.293 0.830078 78.5645-2.41699Q81.8359-5.66406 81.8359-11.9629L81.8359-58.4473Q81.8359-64.7461 78.5645-67.9932Q75.293-71.2402 68.8965-71.2402L22.7051-71.2402Q16.3574-71.2402 13.0615-67.9932Q9.76562-64.7461 9.76562-58.4473L9.76562-11.9629Q9.76562-5.66406 13.0615-2.41699Q16.3574 0.830078 22.7051 0.830078ZM25.0488-24.7559Q23.877-24.7559 23.0957-25.5615Q22.3145-26.3672 22.3145-27.5391Q22.3145-28.6621 23.0957-29.4189Q23.877-30.1758 25.0488-30.1758L62.7441-30.1758Q63.8672-30.1758 64.6484-29.4189Q65.4297-28.6621 65.4297-27.5391Q65.4297-26.3672 64.6484-25.5615Q63.8672-24.7559 62.7441-24.7559ZM25.0488-11.5234Q23.877-11.5234 23.0957-12.3047Q22.3145-13.0859 22.3145-14.209Q22.3145-15.3809 23.0957-16.1865Q23.877-16.9922 25.0488-16.9922L53.3203-16.9922Q54.4922-16.9922 55.2734-16.1865Q56.0547-15.3809 56.0547-14.209Q56.0547-13.0859 55.2734-12.3047Q54.4922-11.5234 53.3203-11.5234ZM22.6074-56.0547Q22.6074-58.0566 23.7305-59.1797Q24.8535-60.3027 26.9043-60.3027L35.6445-60.3027Q37.6953-60.3027 38.8428-59.1797Q39.9902-58.0566 39.9902-56.0547L39.9902-47.2168Q39.9902-45.2148 38.8428-44.0918Q37.6953-42.9688 35.6445-42.9688L26.9043-42.9688Q24.8535-42.9688 23.7305-44.0918Q22.6074-45.2148 22.6074-47.2168Z"/>
  </g>
  <g id="Regular-S" transform="matrix(1 0 0 1 1404.51 696)">
   <path d="M22.2168 0.390625L68.457 0.390625Q74.707 0.390625 77.8076-2.68555Q80.9082-5.76172 80.9082-11.9141L80.9082-58.4961Q80.9082-64.6484 77.8076-67.7246Q74.707-70.8008 68.457-70.8008L22.2168-70.8008Q16.0156-70.8008 12.8906-67.7246Q9.76562-64.6484 9.76562-58.4961L9.76562-11.9141Q9.76562-5.76172 12.8906-2.68555Q16.0156 0.390625 22.2168 0.390625ZM24.1699-24.5605Q22.998-24.5605 22.2412-25.3418Q21.4844-26.123 21.4844-27.2461Q21.4844-28.3691 22.2412-29.1016Q22.998-29.834 24.1699-29.834L62.4023-29.834Q63.5254-29.834 64.2822-29.1016Q65.0391-28.3691 65.0391-27.2461Q65.0391-26.123 64.2822-25.3418Q63.5254-24.5605 62.4023-24.5605ZM24.1699-11.3281Q22.998-11.3281 22.2412-12.085Q21.4844-12.8418 21.4844-13.916Q21.4844-15.0879 22.2412-15.8691Q22.998-16.6504 24.1699-16.6504L52.6367-16.6504Q53.7598-16.6504 54.5166-15.8691Q55.2734-15.0879 55.2734-13.916Q55.2734-12.8418 54.5166-12.085Q53.7598-11.3281 52.6367-11.3281ZM21.8262-56.25Q21.8262-58.1543 22.9248-59.2529Q24.0234-60.3516 25.9766-60.3516L35.0098-60.3516Q36.9629-60.3516 38.0615-59.2529Q39.1602-58.1543 39.1602-56.25L39.1602-47.1191Q39.1602-45.2148 38.0615-44.1162Q36.9629-43.0176 35.0098-43.0176L25.9766-43.0176Q24.0234-43.0176 22.9248-44.1162Q21.8262-45.2148 21.8262-47.1191Z"/>
  </g>
  <g id="Light-S" transform="matrix(1 0 0 1 1108.46 696)">
   <path d="M21.3867-0.244141L67.9688-0.244141Q73.7793-0.244141 76.6846-3.17383Q79.5898-6.10352 79.5898-11.8164L79.5898-58.5938Q79.5898-64.3066 76.6846-67.2119Q73.7793-70.1172 67.9688-70.1172L21.3867-70.1172Q15.625-70.1172 12.6953-67.2119Q9.76562-64.3066 9.76562-58.5938L9.76562-11.8164Q9.76562-6.05469 12.6953-3.14941Q15.625-0.244141 21.3867-0.244141ZM23.6328-24.9023Q22.7051-24.9023 22.0947-25.5371Q21.4844-26.1719 21.4844-27.0508Q21.4844-27.9297 22.0947-28.5156Q22.7051-29.1016 23.6328-29.1016L62.3047-29.1016Q63.1836-29.1016 63.7939-28.5156Q64.4043-27.9297 64.4043-27.0508Q64.4043-26.1719 63.7939-25.5371Q63.1836-24.9023 62.3047-24.9023ZM23.6328-11.9629Q22.7051-11.9629 22.0947-12.5732Q21.4844-13.1836 21.4844-14.0625Q21.4844-14.9902 22.0947-15.6006Q22.7051-16.2109 23.6328-16.2109L51.9531-16.2109Q52.8809-16.2109 53.4912-15.6006Q54.1016-14.9902 54.1016-14.0625Q54.1016-13.1836 53.4912-12.5732Q52.8809-11.9629 51.9531-11.9629ZM21.875-55.957Q21.875-57.7148 22.9004-58.7158Q23.9258-59.7168 25.6836-59.7168L35.6445-59.7168Q37.4023-59.7168 38.4277-58.7158Q39.4531-57.7148 39.4531-55.957L39.4531-45.9473Q39.4531-44.1895 38.4277-43.1885Q37.4023-42.1875 35.6445-42.1875L25.6836-42.1875Q23.9258-42.1875 22.9004-43.1885Q21.875-44.1895 21.875-45.9473Z"/>
  </g>
  <g id="Thin-S" transform="matrix(1 0 0 1 812.623 696)">
   <path d="M20.3125-1.12305L67.2852-1.12305Q72.5098-1.12305 75.1709-3.80859Q77.832-6.49414 77.832-11.6211L77.832-58.6914Q77.832-63.8184 75.1709-66.5283Q72.5098-69.2383 67.2852-69.2383L20.3125-69.2383Q15.0879-69.2383 12.4268-66.5771Q9.76562-63.916 9.76562-58.6914L9.76562-11.6211Q9.76562-6.44531 12.4268-3.78418Q15.0879-1.12305 20.3125-1.12305ZM22.9492-25.3418Q22.3145-25.3418 21.8994-25.7568Q21.4844-26.1719 21.4844-26.8066Q21.4844-27.3926 21.8994-27.7832Q22.3145-28.1738 22.9492-28.1738L62.1582-28.1738Q62.793-28.1738 63.1836-27.7832Q63.5742-27.3926 63.5742-26.8066Q63.5742-26.1719 63.1836-25.7568Q62.793-25.3418 62.1582-25.3418ZM22.9492-12.8418Q22.3145-12.8418 21.8994-13.2568Q21.4844-13.6719 21.4844-14.209Q21.4844-14.8438 21.8994-15.2588Q22.3145-15.6738 22.9492-15.6738L51.0742-15.6738Q51.709-15.6738 52.124-15.2588Q52.5391-14.8438 52.5391-14.209Q52.5391-13.6719 52.124-13.2568Q51.709-12.8418 51.0742-12.8418ZM21.9238-55.6152Q21.9238-57.0801 22.8271-57.9834Q23.7305-58.8867 25.293-58.8867L36.4746-58.8867Q37.9883-58.8867 38.8916-57.9834Q39.7949-57.0801 39.7949-55.6152L39.7949-44.3359Q39.7949-42.8711 38.8916-41.9678Q37.9883-41.0645 36.4746-41.0645L25.293-41.0645Q23.7305-41.0645 22.8271-41.9678Q21.9238-42.8711 21.9238-44.3359Z"/>
  </g>
  <g id="Ultralight-S" transform="matrix(1 0 0 1 516.352 696)">
   <path d="M19.7754-1.5625L66.9434-1.5625Q71.875-1.5625 74.4141-4.15039Q76.9531-6.73828 76.9531-11.5723L76.9531-58.7891Q76.9531-63.623 74.4141-66.1865Q71.875-68.75 66.9434-68.75L19.7754-68.75Q14.8438-68.75 12.3047-66.2109Q9.76562-63.6719 9.76562-58.7891L9.76562-11.5723Q9.76562-6.64062 12.3047-4.10156Q14.8438-1.5625 19.7754-1.5625ZM22.5586-25.5371Q22.1191-25.5371 21.8018-25.8789Q21.4844-26.2207 21.4844-26.6602Q21.4844-27.0996 21.8018-27.3926Q22.1191-27.6855 22.5586-27.6855L62.0605-27.6855Q62.5488-27.6855 62.8662-27.3926Q63.1836-27.0996 63.1836-26.6602Q63.1836-26.2207 62.8662-25.8789Q62.5488-25.5371 62.0605-25.5371ZM22.5586-13.2812Q22.1191-13.2812 21.8018-13.5742Q21.4844-13.8672 21.4844-14.3066Q21.4844-14.7461 21.8018-15.0635Q22.1191-15.3809 22.5586-15.3809L50.6348-15.3809Q51.123-15.3809 51.416-15.0635Q51.709-14.7461 51.709-14.3066Q51.709-13.8672 51.416-13.5742Q51.123-13.2812 50.6348-13.2812ZM21.9727-55.4199Q21.9727-56.7871 22.8271-57.6416Q23.6816-58.4961 25.0488-58.4961L36.9141-58.4961Q38.2812-58.4961 39.1357-57.6416Q39.9902-56.7871 39.9902-55.4199L39.9902-43.5547Q39.9902-42.1875 39.1357-41.333Q38.2812-40.4785 36.9141-40.4785L25.0488-40.4785Q23.6816-40.4785 22.8271-41.333Q21.9727-42.1875 21.9727-43.5547Z"/>
  </g>
 </g>
</svg>
