<?xml version="1.0" encoding="UTF-8"?>
<!--Generator: Apple Native CoreSVG 175.5-->
<!DOCTYPE svg
PUBLIC "-//W3C//DTD SVG 1.1//EN"
       "http://www.w3.org/Graphics/SVG/1.1/DTD/svg11.dtd">
<svg version="1.1" xmlns="http://www.w3.org/2000/svg" xmlns:xlink="http://www.w3.org/1999/xlink" width="3300" height="2200">
 <!--glyph: "uni100185.medium", point size: 100.0, font version: "18.0d9e1", template writer version: "84"-->
 <g id="Notes">
  <rect height="2200" id="artboard" style="fill:white;opacity:1" width="3300" x="0" y="0"/>
  <line style="fill:none;stroke:black;opacity:1;stroke-width:0.5;" x1="263" x2="3036" y1="292" y2="292"/>
  <text style="stroke:none;fill:black;font-family:sans-serif;font-size:13;font-weight:bold;" transform="matrix(1 0 0 1 263 322)">Weight/Scale Variations</text>
  <text style="stroke:none;fill:black;font-family:sans-serif;font-size:13;text-anchor:middle;" transform="matrix(1 0 0 1 559.711 322)">Ultralight</text>
  <text style="stroke:none;fill:black;font-family:sans-serif;font-size:13;text-anchor:middle;" transform="matrix(1 0 0 1 856.422 322)">Thin</text>
  <text style="stroke:none;fill:black;font-family:sans-serif;font-size:13;text-anchor:middle;" transform="matrix(1 0 0 1 1153.13 322)">Light</text>
  <text style="stroke:none;fill:black;font-family:sans-serif;font-size:13;text-anchor:middle;" transform="matrix(1 0 0 1 1449.84 322)">Regular</text>
  <text style="stroke:none;fill:black;font-family:sans-serif;font-size:13;text-anchor:middle;" transform="matrix(1 0 0 1 1746.56 322)">Medium</text>
  <text style="stroke:none;fill:black;font-family:sans-serif;font-size:13;text-anchor:middle;" transform="matrix(1 0 0 1 2043.27 322)">Semibold</text>
  <text style="stroke:none;fill:black;font-family:sans-serif;font-size:13;text-anchor:middle;" transform="matrix(1 0 0 1 2339.98 322)">Bold</text>
  <text style="stroke:none;fill:black;font-family:sans-serif;font-size:13;text-anchor:middle;" transform="matrix(1 0 0 1 2636.69 322)">Heavy</text>
  <text style="stroke:none;fill:black;font-family:sans-serif;font-size:13;text-anchor:middle;" transform="matrix(1 0 0 1 2933.4 322)">Black</text>
  <line style="fill:none;stroke:black;opacity:1;stroke-width:0.5;" x1="263" x2="3036" y1="1903" y2="1903"/>
  <g transform="matrix(1 0 0 1 263 1933)">
   <path d="M9.24805 0.830078Q10.8691 0.830078 12.2949 0.214844Q13.7207-0.400391 14.8096-1.49414Q15.8984-2.58789 16.5186-4.01367Q17.1387-5.43945 17.1387-7.05078Q17.1387-8.66211 16.5186-10.0879Q15.8984-11.5137 14.8047-12.6074Q13.7109-13.7012 12.2852-14.3164Q10.8594-14.9316 9.23828-14.9316Q7.62695-14.9316 6.20117-14.3164Q4.77539-13.7012 3.69141-12.6074Q2.60742-11.5137 1.9873-10.0879Q1.36719-8.66211 1.36719-7.05078Q1.36719-5.43945 1.9873-4.01367Q2.60742-2.58789 3.69629-1.49414Q4.78516-0.400391 6.21094 0.214844Q7.63672 0.830078 9.24805 0.830078ZM9.24805-0.654297Q7.91992-0.654297 6.7627-1.14746Q5.60547-1.64062 4.73145-2.51953Q3.85742-3.39844 3.36426-4.56055Q2.87109-5.72266 2.87109-7.05078Q2.87109-8.37891 3.35938-9.54102Q3.84766-10.7031 4.72168-11.582Q5.5957-12.4609 6.75293-12.9541Q7.91016-13.4473 9.23828-13.4473Q10.5762-13.4473 11.7383-12.9541Q12.9004-12.4609 13.7793-11.582Q14.6582-10.7031 15.1514-9.54102Q15.6445-8.37891 15.6445-7.05078Q15.6445-5.72266 15.1514-4.56055Q14.6582-3.39844 13.7793-2.51953Q12.9004-1.64062 11.7432-1.14746Q10.5859-0.654297 9.24805-0.654297ZM5.6543-7.05078Q5.6543-6.72852 5.85938-6.52832Q6.06445-6.32812 6.40625-6.32812L8.51562-6.32812L8.51562-4.20898Q8.51562-3.88672 8.71094-3.67676Q8.90625-3.4668 9.23828-3.4668Q9.56055-3.4668 9.77051-3.67676Q9.98047-3.88672 9.98047-4.20898L9.98047-6.32812L12.0898-6.32812Q12.4219-6.32812 12.627-6.52832Q12.832-6.72852 12.832-7.05078Q12.832-7.38281 12.627-7.58789Q12.4219-7.79297 12.0898-7.79297L9.98047-7.79297L9.98047-9.90234Q9.98047-10.2344 9.77051-10.4443Q9.56055-10.6543 9.23828-10.6543Q8.90625-10.6543 8.71094-10.4443Q8.51562-10.2344 8.51562-9.90234L8.51562-7.79297L6.40625-7.79297Q6.06445-7.79297 5.85938-7.58789Q5.6543-7.38281 5.6543-7.05078Z"/>
  </g>
  <g transform="matrix(1 0 0 1 281.867 1933)">
   <path d="M11.709 2.91016Q13.75 2.91016 15.5518 2.12891Q17.3535 1.34766 18.7305-0.0292969Q20.1074-1.40625 20.8887-3.20801Q21.6699-5.00977 21.6699-7.05078Q21.6699-9.0918 20.8887-10.8936Q20.1074-12.6953 18.7305-14.0723Q17.3535-15.4492 15.5469-16.2305Q13.7402-17.0117 11.6992-17.0117Q9.6582-17.0117 7.85645-16.2305Q6.05469-15.4492 4.68262-14.0723Q3.31055-12.6953 2.5293-10.8936Q1.74805-9.0918 1.74805-7.05078Q1.74805-5.00977 2.5293-3.20801Q3.31055-1.40625 4.6875-0.0292969Q6.06445 1.34766 7.86621 2.12891Q9.66797 2.91016 11.709 2.91016ZM11.709 1.25Q9.98047 1.25 8.47656 0.605469Q6.97266-0.0390625 5.83496-1.17676Q4.69727-2.31445 4.05762-3.81836Q3.41797-5.32227 3.41797-7.05078Q3.41797-8.7793 4.05762-10.2832Q4.69727-11.7871 5.83008-12.9297Q6.96289-14.0723 8.4668-14.7119Q9.9707-15.3516 11.6992-15.3516Q13.4277-15.3516 14.9365-14.7119Q16.4453-14.0723 17.583-12.9297Q18.7207-11.7871 19.3652-10.2832Q20.0098-8.7793 20.0098-7.05078Q20.0098-5.32227 19.3701-3.81836Q18.7305-2.31445 17.5879-1.17676Q16.4453-0.0390625 14.9414 0.605469Q13.4375 1.25 11.709 1.25ZM7.17773-7.05078Q7.17773-6.69922 7.41211-6.47461Q7.64648-6.25 8.01758-6.25L10.8887-6.25L10.8887-3.36914Q10.8887-2.99805 11.1133-2.76855Q11.3379-2.53906 11.6895-2.53906Q12.0605-2.53906 12.29-2.76855Q12.5195-2.99805 12.5195-3.36914L12.5195-6.25L15.4004-6.25Q15.7715-6.25 16.001-6.47461Q16.2305-6.69922 16.2305-7.05078Q16.2305-7.42188 16.001-7.65137Q15.7715-7.88086 15.4004-7.88086L12.5195-7.88086L12.5195-10.752Q12.5195-11.1328 12.29-11.3623Q12.0605-11.5918 11.6895-11.5918Q11.3379-11.5918 11.1133-11.3574Q10.8887-11.123 10.8887-10.752L10.8887-7.88086L8.01758-7.88086Q7.63672-7.88086 7.40723-7.65137Q7.17773-7.42188 7.17773-7.05078Z"/>
  </g>
  <g transform="matrix(1 0 0 1 305.646 1933)">
   <path d="M14.9707 5.66406Q17.0605 5.66406 18.96 5.01465Q20.8594 4.36523 22.4512 3.19336Q24.043 2.02148 25.2197 0.429688Q26.3965-1.16211 27.0459-3.06641Q27.6953-4.9707 27.6953-7.05078Q27.6953-9.14062 27.0459-11.04Q26.3965-12.9395 25.2197-14.5312Q24.043-16.123 22.4512-17.2998Q20.8594-18.4766 18.9551-19.126Q17.0508-19.7754 14.9609-19.7754Q12.8711-19.7754 10.9717-19.126Q9.07227-18.4766 7.48535-17.2998Q5.89844-16.123 4.72168-14.5312Q3.54492-12.9395 2.90039-11.04Q2.25586-9.14062 2.25586-7.05078Q2.25586-4.9707 2.90527-3.06641Q3.55469-1.16211 4.72656 0.429688Q5.89844 2.02148 7.49023 3.19336Q9.08203 4.36523 10.9814 5.01465Q12.8809 5.66406 14.9707 5.66406ZM14.9707 3.84766Q13.1641 3.84766 11.5283 3.2959Q9.89258 2.74414 8.53516 1.74805Q7.17773 0.751953 6.17676-0.610352Q5.17578-1.97266 4.62891-3.6084Q4.08203-5.24414 4.08203-7.05078Q4.08203-8.86719 4.62891-10.5029Q5.17578-12.1387 6.17188-13.501Q7.16797-14.8633 8.52539-15.8594Q9.88281-16.8555 11.5186-17.4023Q13.1543-17.9492 14.9609-17.9492Q16.7773-17.9492 18.4131-17.4023Q20.0488-16.8555 21.4111-15.8594Q22.7734-14.8633 23.7744-13.501Q24.7754-12.1387 25.3223-10.5029Q25.8691-8.86719 25.8691-7.05078Q25.8691-5.24414 25.3223-3.6084Q24.7754-1.97266 23.7793-0.610352Q22.7832 0.751953 21.4209 1.74805Q20.0586 2.74414 18.4229 3.2959Q16.7871 3.84766 14.9707 3.84766ZM9.19922-7.05078Q9.19922-6.66992 9.45801-6.4209Q9.7168-6.17188 10.1172-6.17188L14.0625-6.17188L14.0625-2.2168Q14.0625-1.81641 14.3115-1.55762Q14.5605-1.29883 14.9512-1.29883Q15.3516-1.29883 15.6104-1.55273Q15.8691-1.80664 15.8691-2.2168L15.8691-6.17188L19.8242-6.17188Q20.2246-6.17188 20.4785-6.4209Q20.7324-6.66992 20.7324-7.05078Q20.7324-7.46094 20.4785-7.71484Q20.2246-7.96875 19.8242-7.96875L15.8691-7.96875L15.8691-11.9141Q15.8691-12.3242 15.6104-12.583Q15.3516-12.8418 14.9512-12.8418Q14.5605-12.8418 14.3115-12.583Q14.0625-12.3242 14.0625-11.9141L14.0625-7.96875L10.1172-7.96875Q9.70703-7.96875 9.45312-7.71484Q9.19922-7.46094 9.19922-7.05078Z"/>
  </g>
  <text style="stroke:none;fill:black;font-family:sans-serif;font-size:13;font-weight:bold;" transform="matrix(1 0 0 1 263 1953)">Design Variations</text>
  <text style="stroke:none;fill:black;font-family:sans-serif;font-size:13;" transform="matrix(1 0 0 1 263 1971)">Symbols are supported in up to nine weights and three scales.</text>
  <text style="stroke:none;fill:black;font-family:sans-serif;font-size:13;" transform="matrix(1 0 0 1 263 1989)">For optimal layout with text and other symbols, vertically align</text>
  <text style="stroke:none;fill:black;font-family:sans-serif;font-size:13;" transform="matrix(1 0 0 1 263 2007)">symbols with the adjacent text.</text>
  <line style="fill:none;stroke:#00AEEF;stroke-width:0.5;opacity:1.0;" x1="776" x2="776" y1="1919" y2="1933"/>
  <g transform="matrix(1 0 0 1 776 1933)">
   <path d="M3.31055 0.15625Q3.70117 0.15625 3.91602-0.00976562Q4.13086-0.175781 4.26758-0.585938L5.52734-4.0332L11.2891-4.0332L12.5488-0.585938Q12.6855-0.175781 12.9004-0.00976562Q13.1152 0.15625 13.4961 0.15625Q13.8867 0.15625 14.1162-0.0585938Q14.3457-0.273438 14.3457-0.644531Q14.3457-0.869141 14.2383-1.17188L9.6582-13.3691Q9.48242-13.8184 9.17969-14.043Q8.87695-14.2676 8.4082-14.2676Q7.5-14.2676 7.17773-13.3789L2.59766-1.16211Q2.49023-0.859375 2.49023-0.634766Q2.49023-0.263672 2.70996-0.0537109Q2.92969 0.15625 3.31055 0.15625ZM6.00586-5.51758L8.37891-12.0898L8.42773-12.0898L10.8008-5.51758Z"/>
  </g>
  <line style="fill:none;stroke:#00AEEF;stroke-width:0.5;opacity:1.0;" x1="793.197" x2="793.197" y1="1919" y2="1933"/>
  <text style="stroke:none;fill:black;font-family:sans-serif;font-size:13;font-weight:bold;" transform="matrix(1 0 0 1 776 1953)">Margins</text>
  <text style="stroke:none;fill:black;font-family:sans-serif;font-size:13;" transform="matrix(1 0 0 1 776 1971)">Leading and trailing margins on the left and right side of each symbol</text>
  <text style="stroke:none;fill:black;font-family:sans-serif;font-size:13;" transform="matrix(1 0 0 1 776 1989)">can be adjusted by modifying the x-location of the margin guidelines.</text>
  <text style="stroke:none;fill:black;font-family:sans-serif;font-size:13;" transform="matrix(1 0 0 1 776 2007)">Modifications are automatically applied proportionally to all</text>
  <text style="stroke:none;fill:black;font-family:sans-serif;font-size:13;" transform="matrix(1 0 0 1 776 2025)">scales and weights.</text>
  <g transform="matrix(1 0 0 1 1289 1933)">
   <path d="M2.8418 1.86523L4.54102 3.57422Q5.18555 4.22852 5.90332 4.17969Q6.62109 4.13086 7.31445 3.35938L18.0078-8.42773L17.041-9.4043L6.42578 2.27539Q6.16211 2.57812 5.89355 2.61719Q5.625 2.65625 5.27344 2.30469L4.10156 1.14258Q3.75 0.791016 3.79395 0.522461Q3.83789 0.253906 4.14062-0.0195312L15.6152-10.8203L14.6387-11.7871L3.04688-0.898438Q2.30469-0.214844 2.25098 0.498047Q2.19727 1.21094 2.8418 1.86523ZM9.25781-16.3281Q8.94531-16.0254 8.90625-15.6348Q8.86719-15.2441 9.04297-14.9512Q9.21875-14.6777 9.55566-14.541Q9.89258-14.4043 10.3809-14.5215Q11.4746-14.7754 12.5977-14.7314Q13.7207-14.6875 14.7949-13.9844L14.209-12.5293Q13.9551-11.9043 14.0674-11.4404Q14.1797-10.9766 14.5801-10.5664L16.875-8.25195Q17.2363-7.88086 17.5781-7.82227Q17.9199-7.76367 18.3398-7.8418L19.4043-8.03711L20.0684-7.36328L20.0293-6.80664Q20-6.43555 20.1221-6.12305Q20.2441-5.81055 20.6055-5.44922L21.3672-4.70703Q21.7285-4.3457 22.1533-4.33105Q22.5781-4.31641 22.9297-4.66797L25.8398-7.58789Q26.1914-7.93945 26.1816-8.35449Q26.1719-8.76953 25.8105-9.13086L25.0391-9.89258Q24.6875-10.2539 24.3799-10.3857Q24.0723-10.5176 23.7109-10.4883L23.1348-10.4395L22.4902-11.0742L22.7344-12.1973Q22.832-12.6172 22.6953-12.9834Q22.5586-13.3496 22.1191-13.7891L19.9219-15.9766Q18.6719-17.2168 17.2607-17.8369Q15.8496-18.457 14.4189-18.4814Q12.9883-18.5059 11.665-17.959Q10.3418-17.4121 9.25781-16.3281ZM10.752-15.957Q11.6602-16.6211 12.7002-16.9043Q13.7402-17.1875 14.8047-17.085Q15.8691-16.9824 16.8701-16.5137Q17.8711-16.0449 18.7012-15.2051L21.1328-12.793Q21.3086-12.6172 21.3525-12.4512Q21.3965-12.2852 21.3379-12.0312L21.0156-10.5469L22.5195-9.0625L23.5059-9.12109Q23.6914-9.13086 23.7891-9.09668Q23.8867-9.0625 24.0332-8.91602L24.6094-8.33984L22.168-5.89844L21.5918-6.47461Q21.4453-6.62109 21.4062-6.71875Q21.3672-6.81641 21.377-7.01172L21.4453-7.98828L19.9512-9.47266L18.4277-9.21875Q18.1836-9.16992 18.042-9.2041Q17.9004-9.23828 17.7148-9.41406L15.7129-11.416Q15.5176-11.5918 15.4932-11.7529Q15.4688-11.9141 15.5859-12.1875L16.4648-14.2773Q15.293-15.3711 13.8281-15.791Q12.3633-16.2109 10.8398-15.7617Q10.7227-15.7324 10.6885-15.8057Q10.6543-15.8789 10.752-15.957Z"/>
  </g>
  <text style="stroke:none;fill:black;font-family:sans-serif;font-size:13;font-weight:bold;" transform="matrix(1 0 0 1 1289 1953)">Exporting</text>
  <text style="stroke:none;fill:black;font-family:sans-serif;font-size:13;" transform="matrix(1 0 0 1 1289 1971)">Symbols should be outlined when exporting to ensure the</text>
  <text style="stroke:none;fill:black;font-family:sans-serif;font-size:13;" transform="matrix(1 0 0 1 1289 1989)">design is preserved when submitting to Xcode.</text>
  <text id="template-version" style="stroke:none;fill:black;font-family:sans-serif;font-size:13;text-anchor:end;" transform="matrix(1 0 0 1 3036 1933)">Template v.2.0</text>
  <text style="stroke:none;fill:black;font-family:sans-serif;font-size:13;text-anchor:end;" transform="matrix(1 0 0 1 3036 1951)">Requires Xcode 12 or greater</text>
  <text id="descriptive-name" style="stroke:none;fill:black;font-family:sans-serif;font-size:13;text-anchor:end;" transform="matrix(1 0 0 1 3036 1969)">Generated from checkmark</text>
  <text style="stroke:none;fill:black;font-family:sans-serif;font-size:13;text-anchor:end;" transform="matrix(1 0 0 1 3036 1987)">Typeset at 100 points</text>
  <text style="stroke:none;fill:black;font-family:sans-serif;font-size:13;" transform="matrix(1 0 0 1 263 726)">Small</text>
  <text style="stroke:none;fill:black;font-family:sans-serif;font-size:13;" transform="matrix(1 0 0 1 263 1156)">Medium</text>
  <text style="stroke:none;fill:black;font-family:sans-serif;font-size:13;" transform="matrix(1 0 0 1 263 1586)">Large</text>
 </g>
 <g id="Guides">
  <g id="H-reference" style="fill:#27AAE1;stroke:none;" transform="matrix(1 0 0 1 339 696)">
   <path d="M0.993347 0L3.6377 0L29.3282-67.1326L30.0301-67.1326L30.0301-70.459L28.1227-70.459ZM11.6882-24.4797L46.9818-24.4797L46.2311-26.7288L12.4382-26.7288ZM55.1193 0L57.7637 0L30.6381-70.459L29.4327-70.459L29.4327-67.1326Z"/>
  </g>
  <line id="Baseline-S" style="fill:none;stroke:#27AAE1;opacity:1;stroke-width:0.5;" x1="263" x2="3036" y1="696" y2="696"/>
  <line id="Capline-S" style="fill:none;stroke:#27AAE1;opacity:1;stroke-width:0.5;" x1="263" x2="3036" y1="625.541" y2="625.541"/>
  <g id="H-reference" style="fill:#27AAE1;stroke:none;" transform="matrix(1 0 0 1 339 1126)">
   <path d="M0.993347 0L3.6377 0L29.3282-67.1326L30.0301-67.1326L30.0301-70.459L28.1227-70.459ZM11.6882-24.4797L46.9818-24.4797L46.2311-26.7288L12.4382-26.7288ZM55.1193 0L57.7637 0L30.6381-70.459L29.4327-70.459L29.4327-67.1326Z"/>
  </g>
  <line id="Baseline-M" style="fill:none;stroke:#27AAE1;opacity:1;stroke-width:0.5;" x1="263" x2="3036" y1="1126" y2="1126"/>
  <line id="Capline-M" style="fill:none;stroke:#27AAE1;opacity:1;stroke-width:0.5;" x1="263" x2="3036" y1="1055.54" y2="1055.54"/>
  <g id="H-reference" style="fill:#27AAE1;stroke:none;" transform="matrix(1 0 0 1 339 1556)">
   <path d="M0.993347 0L3.6377 0L29.3282-67.1326L30.0301-67.1326L30.0301-70.459L28.1227-70.459ZM11.6882-24.4797L46.9818-24.4797L46.2311-26.7288L12.4382-26.7288ZM55.1193 0L57.7637 0L30.6381-70.459L29.4327-70.459L29.4327-67.1326Z"/>
  </g>
  <line id="Baseline-L" style="fill:none;stroke:#27AAE1;opacity:1;stroke-width:0.5;" x1="263" x2="3036" y1="1556" y2="1556"/>
  <line id="Capline-L" style="fill:none;stroke:#27AAE1;opacity:1;stroke-width:0.5;" x1="263" x2="3036" y1="1485.54" y2="1485.54"/>
  <line id="left-margin" style="fill:none;stroke:#00AEEF;stroke-width:0.5;opacity:1.0;" x1="1395.33" x2="1395.33" y1="1030.79" y2="1150.12"/>
  <line id="right-margin" style="fill:none;stroke:#00AEEF;stroke-width:0.5;opacity:1.0;" x1="1504.36" x2="1504.36" y1="1030.79" y2="1150.12"/>
 </g>
 <g id="Symbols">
  <g id="Black-L" transform="matrix(1 0 0 1 2856.81 1556)">
   <path d="M64.0628 22.894Q72.1133 22.894 76.217 16.7998L134.278-70.5775Q135.779-72.8105 136.439-74.9869Q137.099-77.1634 137.099-79.1342Q137.099-84.645 133.295-88.3037Q129.491-91.9624 123.804-91.9624Q119.965-91.9624 117.3-90.4273Q114.634-88.8922 112.233-85.191L63.8031-9.19681L39.5173-38.2096Q35.454-42.9327 29.2875-42.9327Q23.5795-42.9327 19.8317-39.2538Q16.084-35.5749 16.084-29.9849Q16.084-27.486 16.922-25.2693Q17.76-23.0527 19.9044-20.5913L52.3681 17.5758Q56.9096 22.894 64.0628 22.894Z"/>
  </g>
  <g id="Heavy-L" transform="matrix(1 0 0 1 2561.67 1556)">
   <path d="M62.2724 22.1856Q69.2889 22.1856 72.9426 16.7637L131.443-72.209Q132.789-74.2241 133.369-76.1295Q133.95-78.0349 133.95-79.7785Q133.95-84.5547 130.696-87.6994Q127.443-90.8442 122.527-90.8442Q119.185-90.8442 116.887-89.512Q114.589-88.1799 112.503-84.9573L62.0122-5.47967L36.5028-36.6347Q32.9039-40.9138 27.4935-40.9138Q22.5477-40.9138 19.3158-37.7417Q16.084-34.5695 16.084-29.7186Q16.084-27.5621 16.8241-25.6165Q17.5642-23.6709 19.4069-21.5289L51.8965 17.3281Q55.9846 22.1856 62.2724 22.1856Z"/>
  </g>
  <g id="Bold-L" transform="matrix(1 0 0 1 2266.91 1556)">
   <path d="M59.9699 21.1978Q65.6958 21.1978 68.7737 16.6431L127.939-74.3043Q129.085-76.0357 129.566-77.603Q130.046-79.1703 130.046-80.6223Q130.046-84.4991 127.454-87.0248Q124.862-89.5505 120.885-89.5505Q118.158-89.5505 116.305-88.4681Q114.453-87.3857 112.759-84.7548L59.717-1.11541L32.7908-34.5116Q29.7755-38.2004 25.3101-38.2004Q21.2945-38.2004 18.6892-35.6433Q16.084-33.0862 16.084-29.1423Q16.084-27.401 16.7012-25.7934Q17.3184-24.1859 18.7996-22.4357L51.2753 16.976Q54.7651 21.1978 59.9699 21.1978Z"/>
  </g>
  <g id="Semibold-L" transform="matrix(1 0 0 1 1971.55 1556)">
   <path d="M58.3826 20.5168Q63.2187 20.5168 65.8997 16.5599L125.523-75.7488Q126.532-77.2846 126.944-78.6188Q127.355-79.9531 127.355-81.204Q127.355-84.4609 125.219-86.5597Q123.083-88.6586 119.752-88.6586Q117.449-88.6586 115.904-87.7484Q114.359-86.8383 112.935-84.6151L58.1347 1.89329L30.2318-33.048Q27.6188-36.3297 23.8049-36.3297Q20.4305-36.3297 18.2572-34.1966Q16.084-32.0636 16.084-28.7449Q16.084-27.2899 16.6165-25.9154Q17.149-24.5409 18.3809-23.0609L50.847 16.7332Q53.9244 20.5168 58.3826 20.5168Z"/>
  </g>
  <g id="Medium-L" transform="matrix(1 0 0 1 1675.86 1556)">
   <path d="M57.179 20.0005Q61.3405 20.0005 63.7206 16.4969L123.691-76.8441Q124.596-78.2315 124.955-79.3891Q125.315-80.5466 125.315-81.6451Q125.315-84.4318 123.525-86.2071Q121.735-87.9824 118.894-87.9824Q116.912-87.9824 115.6-87.2028Q114.288-86.4232 113.069-84.5093L56.935 4.17461L28.2914-31.9382Q25.9835-34.9113 22.6636-34.9113Q19.7754-34.9113 17.9297-33.0997Q16.084-31.2882 16.084-28.4437Q16.084-27.2057 16.5523-26.0079Q17.0205-24.8101 18.0634-23.535L50.5223 16.5491Q53.2869 20.0005 57.179 20.0005Z"/>
  </g>
  <g id="Regular-L" transform="matrix(1 0 0 1 1380.48 1556)">
   <path d="M55.6091 19.327Q58.8906 19.327 60.8782 16.4146L121.302-78.2728Q122.071-79.4667 122.362-80.3938Q122.654-81.3208 122.654-82.2205Q122.654-84.394 121.314-85.7471Q119.975-87.1003 117.774-87.1003Q116.211-87.1003 115.203-86.491Q114.196-85.8817 113.244-84.3712L55.3701 7.15024L25.7604-30.4907Q23.8506-33.0612 21.1749-33.0612Q18.9209-33.0612 17.5025-31.669Q16.084-30.2768 16.084-28.0507Q16.084-27.0958 16.4685-26.1285Q16.853-25.1612 17.6494-24.1533L50.0988 16.3091Q52.4555 19.327 55.6091 19.327Z"/>
  </g>
  <g id="Light-L" transform="matrix(1 0 0 1 1085.12 1556)">
   <path d="M53.4716 17.9337Q55.7988 17.9337 57.2711 15.8419L118.936-80.2002Q119.513-81.1081 119.728-81.787Q119.943-82.4659 119.943-83.0984Q119.943-84.7185 118.929-85.7568Q117.914-86.795 116.247-86.795Q115.104-86.795 114.345-86.348Q113.585-85.901 112.919-84.7909L53.2897 8.61981L23.3366-27.9142Q21.8846-29.8168 19.9154-29.8168Q18.2149-29.8168 17.1494-28.7681Q16.084-27.7193 16.084-26.0659Q16.084-25.3399 16.3731-24.6208Q16.6622-23.9017 17.2867-23.1416L49.4308 15.7745Q51.1386 17.9337 53.4716 17.9337Z"/>
  </g>
  <g id="Thin-L" transform="matrix(1 0 0 1 790.201 1556)">
   <path d="M50.6446 16.091Q51.7097 16.091 52.5005 15.0845L115.806-82.7495Q116.13-83.2791 116.245-83.6297Q116.359-83.9803 116.359-84.2596Q116.359-85.1477 115.773-85.7695Q115.188-86.3913 114.227-86.3913Q113.64-86.3913 113.209-86.1588Q112.777-85.9264 112.49-85.346L50.5382 10.5634L20.1309-24.5066Q19.2845-25.5259 18.2495-25.5259Q17.281-25.5259 16.6825-24.9313Q16.084-24.3367 16.084-23.4408Q16.084-23.0176 16.2469-22.6267Q16.4098-22.2359 16.8071-21.8036L48.5474 15.0676Q49.3968 16.091 50.6446 16.091Z"/>
  </g>
  <g id="Ultralight-L" transform="matrix(1 0 0 1 494.407 1556)">
   <path d="M49.1966 15.1472Q49.6153 15.1472 50.057 14.6965L114.203-84.0552Q114.398-84.391 114.46-84.5735Q114.523-84.756 114.523-84.8543Q114.523-85.3675 114.157-85.776Q113.792-86.1845 113.193-86.1845Q112.89-86.1845 112.627-86.062Q112.363-85.9394 112.27-85.6304L49.1289 11.5589L18.4889-22.7613Q17.9527-23.3281 17.3963-23.3281Q16.8027-23.3281 16.4433-22.9661Q16.084-22.6042 16.084-22.0962Q16.084-21.8281 16.1823-21.6054Q16.2806-21.3826 16.5614-21.1183L48.095 14.7055Q48.5047 15.1472 49.1966 15.1472Z"/>
  </g>
  <g id="Black-M" transform="matrix(1 0 0 1 2872.89 1126)">
   <path d="M50.8812 10.2212Q57.8777 10.2212 61.374 5.03314L106.148-61.4741Q107.417-63.3525 107.987-65.2381Q108.556-67.1236 108.556-68.8096Q108.556-73.6353 105.18-76.8689Q101.803-80.1025 96.8067-80.1025Q93.4624-80.1025 91.1149-78.7608Q88.7674-77.419 86.6762-74.1945L50.6882-18.0564L32.878-38.5427Q29.393-42.4931 24.0613-42.4931Q19.0591-42.4931 15.76-39.2538Q12.4609-36.0146 12.4609-31.1263Q12.4609-28.927 13.1814-27.0103Q13.9018-25.0936 15.7991-22.9459L40.8866 5.8215Q44.7068 10.2212 50.8812 10.2212Z"/>
  </g>
  <g id="Heavy-M" transform="matrix(1 0 0 1 2577.59 1126)">
   <path d="M49.3282 9.65727Q55.4019 9.65727 58.5057 5.05074L103.594-62.8912Q104.73-64.583 105.229-66.2265Q105.727-67.8699 105.727-69.3584Q105.727-73.5171 102.859-76.2773Q99.9912-79.0376 95.6993-79.0376Q92.8021-79.0376 90.791-77.8792Q88.7799-76.7209 86.9696-73.9273L49.1294-14.5582L30.1548-37.2409Q27.0814-40.8187 22.4238-40.8187Q18.1156-40.8187 15.2883-38.0432Q12.4609-35.2677 12.4609-31.049Q12.4609-29.1634 13.0945-27.4888Q13.728-25.8142 15.3463-23.9557L40.4872 5.62862Q43.924 9.65727 49.3282 9.65727Z"/>
  </g>
  <g id="Bold-M" transform="matrix(1 0 0 1 2282.47 1126)">
   <path d="M47.591 9.02642Q52.6323 9.02642 55.2972 5.07042L100.737-64.4763Q101.724-65.9595 102.143-67.3321Q102.563-68.7047 102.563-69.9723Q102.563-73.3849 100.263-75.6155Q97.9639-77.8462 94.4606-77.8462Q92.0634-77.8462 90.4286-76.8931Q88.7939-75.94 87.2978-73.6284L47.3856-10.645L27.1085-35.7845Q24.4956-38.9458 20.5921-38.9458Q17.0602-38.9458 14.7605-36.689Q12.4609-34.4322 12.4609-30.9626Q12.4609-29.4278 12.9973-28.024Q13.5336-26.6203 14.8397-25.0853L40.0404 5.41285Q43.0484 9.02642 47.591 9.02642Z"/>
  </g>
  <g id="Semibold-M" transform="matrix(1 0 0 1 1986.85 1126)">
   <path d="M46.3933 8.59151Q50.7229 8.59151 53.0852 5.084L98.7675-65.5691Q99.6516-66.9085 100.016-68.0944Q100.381-69.2803 100.381-70.3956Q100.381-73.2937 98.4738-75.1593Q96.5663-77.0249 93.6066-77.0249Q91.5542-77.0249 90.1788-76.2133Q88.8035-75.4016 87.5241-73.4224L46.1835-7.94723L25.0084-34.7805Q22.713-37.6546 19.3293-37.6546Q16.3325-37.6546 14.3967-35.7554Q12.4609-33.8562 12.4609-30.903Q12.4609-29.6101 12.9303-28.393Q13.3996-27.176 14.4905-25.8641L39.7324 5.2641Q42.4447 8.59151 46.3933 8.59151Z"/>
  </g>
  <g id="Medium-M" transform="matrix(1 0 0 1 1690.96 1126)">
   <path d="M45.4852 8.26174Q49.2752 8.26174 51.408 5.09429L97.2742-66.3978Q98.0802-67.628 98.4036-68.6723Q98.727-69.7167 98.727-70.7165Q98.727-73.2245 97.1168-74.8134Q95.5066-76.4022 92.959-76.4022Q91.1681-76.4022 89.9894-75.6978Q88.8108-74.9934 87.6957-73.2662L45.272-5.90168L23.416-34.0193Q21.3613-36.6755 18.3718-36.6755Q15.7808-36.6755 14.1209-35.0475Q12.4609-33.4195 12.4609-30.8578Q12.4609-29.7483 12.8795-28.6728Q13.298-27.5973 14.2257-26.4546L39.4989 5.15131Q41.987 8.26174 45.4852 8.26174Z"/>
  </g>
  <g id="Regular-M" transform="matrix(1 0 0 1 1395.33 1126)">
   <path d="M44.3007 7.83162Q47.3869 7.83162 49.2203 5.10771L95.3263-67.4786Q96.0306-68.5665 96.3-69.4262Q96.5693-70.2859 96.5693-71.1351Q96.5693-73.1344 95.3468-74.3622Q94.1244-75.5899 92.1144-75.5899Q90.6644-75.5899 89.7424-75.0254Q88.8203-74.4609 87.9194-73.0624L44.0831-3.23357L21.3389-33.0263Q19.5983-35.3985 17.1228-35.3985Q15.0612-35.3985 13.7611-34.1242Q12.4609-32.8499 12.4609-30.7989Q12.4609-29.9286 12.8132-29.0378Q13.1654-28.1469 13.8804-27.2248L39.1942 5.0042Q41.3899 7.83162 44.3007 7.83162Z"/>
  </g>
  <g id="Light-M" transform="matrix(1 0 0 1 1099.83 1126)">
   <path d="M42.3844 6.5825Q44.6149 6.5825 45.9864 4.59426L93.2047-69.2066Q93.7376-70.0382 93.9386-70.6753Q94.1395-71.3125 94.1395-71.9222Q94.1395-73.4253 93.2079-74.3708Q92.2764-75.3162 90.7454-75.3162Q89.672-75.3162 88.9723-74.8972Q88.2727-74.4782 87.6285-73.4387L42.2179-1.91603L19.1658-30.7164Q17.8357-32.4897 15.9936-32.4897Q14.4282-32.4897 13.4446-31.5233Q12.4609-30.5569 12.4609-29.0194Q12.4609-28.3543 12.7277-27.686Q12.9944-27.0177 13.5552-26.3178L38.5954 4.52496Q40.2092 6.5825 42.3844 6.5825Z"/>
  </g>
  <g id="Thin-M" transform="matrix(1 0 0 1 804.729 1126)">
   <path d="M39.8498 4.93043Q40.9488 4.93043 41.7093 3.91519L90.3986-71.4921Q90.705-71.9845 90.8154-72.3274Q90.9258-72.6702 90.9258-72.9633Q90.9258-73.8101 90.3791-74.3822Q89.8324-74.9543 88.9348-74.9543Q88.3595-74.9543 87.9539-74.7276Q87.5483-74.501 87.2437-73.9364L39.751-0.173471L16.2917-27.6613Q15.5046-28.6426 14.5001-28.6426Q13.5909-28.6426 13.0259-28.0834Q12.4609-27.5242 12.4609-26.6658Q12.4609-26.2722 12.6145-25.8982Q12.7681-25.5242 13.1252-25.1182L37.8034 3.89113Q38.6477 4.93043 39.8498 4.93043Z"/>
  </g>
  <g id="Ultralight-M" transform="matrix(1 0 0 1 508.841 1126)">
   <path d="M38.5516 4.08426Q39.0711 4.08426 39.5186 3.56737L88.9614-72.6628Q89.1517-72.9814 89.2158-73.1736Q89.2798-73.3657 89.2798-73.4965Q89.2798-74.0072 88.9302-74.388Q88.5805-74.7689 88.0074-74.7689Q87.6872-74.7689 87.4323-74.6408Q87.1773-74.5127 87.0466-74.1914L38.4875 0.719057L14.8196-26.0965Q14.3106-26.6722 13.7351-26.6722Q13.1621-26.6722 12.8115-26.3216Q12.4609-25.9709 12.4609-25.4603Q12.4609-25.2058 12.5566-24.9825Q12.6523-24.7592 12.9049-24.5038L37.3977 3.56649Q37.8478 4.08426 38.5516 4.08426Z"/>
  </g>
  <g id="Black-S" transform="matrix(1 0 0 1 2885.62 696)">
   <path d="M40.2344 0.488281Q45.9473 0.488281 48.7793-3.71094L83.8379-55.4688Q84.8633-56.9824 85.3271-58.5205Q85.791-60.0586 85.791-61.4258Q85.791-65.3809 83.0078-68.042Q80.2246-70.7031 76.123-70.7031Q73.3887-70.7031 71.46-69.6045Q69.5312-68.5059 67.8223-65.8691L40.0879-22.7539L26.4648-38.0859Q23.6328-41.2598 19.2871-41.2598Q15.1855-41.2598 12.4756-38.5986Q9.76562-35.9375 9.76562-31.9336Q9.76562-30.127 10.3516-28.5645Q10.9375-27.002 12.5-25.2441L32.1289-3.02734Q35.2051 0.488281 40.2344 0.488281Z"/>
  </g>
  <g id="Heavy-S" transform="matrix(1 0 0 1 2589.97 696)">
   <path d="M39.1511 0.165596Q44.184 0.165596 46.7395-3.63027L81.9248-56.4599Q82.858-57.8468 83.27-59.2062Q83.682-60.5657 83.682-61.7946Q83.682-65.2426 81.2964-67.5349Q78.9108-69.8273 75.3509-69.8273Q72.9507-69.8273 71.2813-68.8669Q69.6119-67.9066 68.1104-65.5926L38.9931-19.9304L24.4135-37.2677Q21.8811-40.1995 18.0309-40.1995Q14.4595-40.1995 12.1126-37.8956Q9.76562-35.5918 9.76562-32.0949Q9.76562-30.5303 10.2882-29.1464Q10.8107-27.7626 12.1543-26.2237L31.8638-3.13106Q34.6865 0.165596 39.1511 0.165596Z"/>
  </g>
  <g id="Bold-S" transform="matrix(1 0 0 1 2294.43 696)">
   <path d="M37.9395-0.195312Q42.2119-0.195312 44.458-3.54004L79.7852-57.5684Q80.6152-58.8135 80.9692-59.9731Q81.3232-61.1328 81.3232-62.207Q81.3232-65.0879 79.3823-66.9678Q77.4414-68.8477 74.4873-68.8477Q72.4609-68.8477 71.0815-68.042Q69.7021-67.2363 68.4326-65.2832L37.7686-16.7725L22.1191-36.3525Q19.9219-39.0137 16.626-39.0137Q13.6475-39.0137 11.7065-37.1094Q9.76562-35.2051 9.76562-32.2754Q9.76562-30.9814 10.2173-29.7974Q10.6689-28.6133 11.7676-27.3193L31.5674-3.24707Q34.1064-0.195312 37.9395-0.195312Z"/>
  </g>
  <g id="Semibold-S" transform="matrix(1 0 0 1 1998.54 696)">
   <path d="M37.1041-0.444141Q40.8522-0.444141 42.8851-3.47783L78.31-58.3326Q79.0689-59.48 79.383-60.5019Q79.697-61.5238 79.697-62.4914Q79.697-64.9813 78.0626-66.5768Q76.4283-68.1723 73.8919-68.1723Q72.1232-68.1723 70.9438-67.4732Q69.7644-66.7742 68.6548-65.0699L36.9243-14.5952L20.5373-35.7216Q18.5711-38.1961 15.6573-38.1961Q13.0876-38.1961 11.4266-36.5673Q9.76562-34.9385 9.76562-32.3998Q9.76562-31.2925 10.1684-30.2461Q10.5712-29.1998 11.501-28.0747L31.363-3.32705Q33.7065-0.444141 37.1041-0.444141Z"/>
  </g>
  <g id="Medium-S" transform="matrix(1 0 0 1 1702.44 696)">
   <path d="M36.4707-0.632812Q39.8213-0.632812 41.6924-3.43066L77.1914-58.9121Q77.8965-59.9854 78.1802-60.9028Q78.4639-61.8203 78.4639-62.707Q78.4639-64.9004 77.062-66.2803Q75.6602-67.6602 73.4404-67.6602Q71.8672-67.6602 70.8394-67.042Q69.8115-66.4238 68.8232-64.9082L36.2842-12.9443L19.3379-35.2432Q17.5469-37.5762 14.9229-37.5762Q12.6631-37.5762 11.2144-36.1562Q9.76562-34.7363 9.76562-32.4941Q9.76562-31.5283 10.1313-30.5864Q10.4971-29.6445 11.2988-28.6475L31.208-3.3877Q33.4033-0.632812 36.4707-0.632812Z"/>
  </g>
  <g id="Regular-S" transform="matrix(1 0 0 1 1406.53 696)">
   <path d="M35.6445-0.878906Q38.4766-0.878906 40.1367-3.36914L75.7324-59.668Q76.3672-60.6445 76.6113-61.4258Q76.8555-62.207 76.8555-62.9883Q76.8555-64.7949 75.7568-65.8936Q74.6582-66.9922 72.8516-66.9922Q71.5332-66.9922 70.7031-66.4795Q69.873-65.9668 69.043-64.6973L35.4492-10.791L17.7734-34.6191Q16.2109-36.7676 13.9648-36.7676Q12.1094-36.7676 10.9375-35.6201Q9.76562-34.4727 9.76562-32.6172Q9.76562-31.8359 10.083-31.0303Q10.4004-30.2246 11.0352-29.3945L31.0059-3.4668Q33.0078-0.878906 35.6445-0.878906Z"/>
  </g>
  <g id="Light-S" transform="matrix(1 0 0 1 1110.9 696)">
   <path d="M33.9493-1.9839Q36.0245-1.9839 37.276-3.82334L73.8556-61.1966Q74.3388-61.9464 74.5224-62.5308Q74.706-63.1152 74.706-63.6846Q74.706-65.0523 73.8647-65.9012Q73.0235-66.7501 71.6405-66.7501Q70.6553-66.7501 70.0219-66.3661Q69.3886-65.9821 68.7856-65.0302L33.7992-9.6255L15.8511-32.5757Q14.6517-34.1944 12.9659-34.1944Q11.5494-34.1944 10.6575-33.3193Q9.76562-32.4443 9.76562-31.043Q9.76562-30.4433 10.0073-29.8345Q10.2491-29.2257 10.7475-28.5922L30.4761-3.89074Q31.9633-1.9839 33.9493-1.9839Z"/>
  </g>
  <g id="Thin-S" transform="matrix(1 0 0 1 815.608 696)">
   <path d="M31.7072-3.44534Q32.7814-3.44534 33.4924-4.42406L71.3733-63.2184Q71.6561-63.6681 71.7596-63.9922Q71.8632-64.3163 71.8632-64.6055Q71.8632-65.3927 71.3623-65.9113Q70.8614-66.4299 70.0388-66.4299Q69.4942-66.4299 69.121-66.2161Q68.7478-66.0022 68.4452-65.4704L31.617-8.08401L13.3086-29.8732Q12.5896-30.7913 11.6447-30.7913Q10.8087-30.7913 10.2872-30.2764Q9.76562-29.7615 9.76562-28.961Q9.76562-28.6015 9.90729-28.253Q10.0489-27.9045 10.3671-27.531L29.7755-4.45143Q30.582-3.44534 31.7072-3.44534Z"/>
  </g>
  <g id="Ultralight-S" transform="matrix(1 0 0 1 519.625 696)">
   <path d="M30.5588-4.19388Q31.1203-4.19388 31.5544-4.73175L70.1019-64.254Q70.282-64.55 70.3445-64.7408Q70.4071-64.9315 70.4071-65.0772Q70.4071-65.567 70.0806-65.9164Q69.754-66.2659 69.2184-66.2659Q68.8995-66.2659 68.6596-66.1392Q68.4196-66.0126 68.2709-65.696L30.4993-7.29446L12.0064-28.4889Q11.5334-29.0482 10.968-29.0482Q10.4294-29.0482 10.0975-28.7178Q9.76562-28.3875 9.76562-27.8946Q9.76562-27.6581 9.85603-27.4429Q9.94644-27.2278 10.1723-26.9875L29.4167-4.73862Q29.8744-4.19388 30.5588-4.19388Z"/>
  </g>
 </g>
</svg>
