<?xml version="1.0" encoding="UTF-8"?>
<!--Generator: Apple Native CoreSVG 175.5-->
<!DOCTYPE svg
PUBLIC "-//W3C//DTD SVG 1.1//EN"
       "http://www.w3.org/Graphics/SVG/1.1/DTD/svg11.dtd">
<svg version="1.1" xmlns="http://www.w3.org/2000/svg" xmlns:xlink="http://www.w3.org/1999/xlink" width="3300" height="2200">
 <!--glyph: "uni1008C9.medium", point size: 100.0, font version: "18.0d9e1", template writer version: "84"-->
 <g id="Notes">
  <rect height="2200" id="artboard" style="fill:white;opacity:1" width="3300" x="0" y="0"/>
  <line style="fill:none;stroke:black;opacity:1;stroke-width:0.5;" x1="263" x2="3036" y1="292" y2="292"/>
  <text style="stroke:none;fill:black;font-family:sans-serif;font-size:13;font-weight:bold;" transform="matrix(1 0 0 1 263 322)">Weight/Scale Variations</text>
  <text style="stroke:none;fill:black;font-family:sans-serif;font-size:13;text-anchor:middle;" transform="matrix(1 0 0 1 559.711 322)">Ultralight</text>
  <text style="stroke:none;fill:black;font-family:sans-serif;font-size:13;text-anchor:middle;" transform="matrix(1 0 0 1 856.422 322)">Thin</text>
  <text style="stroke:none;fill:black;font-family:sans-serif;font-size:13;text-anchor:middle;" transform="matrix(1 0 0 1 1153.13 322)">Light</text>
  <text style="stroke:none;fill:black;font-family:sans-serif;font-size:13;text-anchor:middle;" transform="matrix(1 0 0 1 1449.84 322)">Regular</text>
  <text style="stroke:none;fill:black;font-family:sans-serif;font-size:13;text-anchor:middle;" transform="matrix(1 0 0 1 1746.56 322)">Medium</text>
  <text style="stroke:none;fill:black;font-family:sans-serif;font-size:13;text-anchor:middle;" transform="matrix(1 0 0 1 2043.27 322)">Semibold</text>
  <text style="stroke:none;fill:black;font-family:sans-serif;font-size:13;text-anchor:middle;" transform="matrix(1 0 0 1 2339.98 322)">Bold</text>
  <text style="stroke:none;fill:black;font-family:sans-serif;font-size:13;text-anchor:middle;" transform="matrix(1 0 0 1 2636.69 322)">Heavy</text>
  <text style="stroke:none;fill:black;font-family:sans-serif;font-size:13;text-anchor:middle;" transform="matrix(1 0 0 1 2933.4 322)">Black</text>
  <line style="fill:none;stroke:black;opacity:1;stroke-width:0.5;" x1="263" x2="3036" y1="1903" y2="1903"/>
  <g transform="matrix(1 0 0 1 263 1933)">
   <path d="M9.24805 0.830078Q10.8691 0.830078 12.2949 0.214844Q13.7207-0.400391 14.8096-1.49414Q15.8984-2.58789 16.5186-4.01367Q17.1387-5.43945 17.1387-7.05078Q17.1387-8.66211 16.5186-10.0879Q15.8984-11.5137 14.8047-12.6074Q13.7109-13.7012 12.2852-14.3164Q10.8594-14.9316 9.23828-14.9316Q7.62695-14.9316 6.20117-14.3164Q4.77539-13.7012 3.69141-12.6074Q2.60742-11.5137 1.9873-10.0879Q1.36719-8.66211 1.36719-7.05078Q1.36719-5.43945 1.9873-4.01367Q2.60742-2.58789 3.69629-1.49414Q4.78516-0.400391 6.21094 0.214844Q7.63672 0.830078 9.24805 0.830078ZM9.24805-0.654297Q7.91992-0.654297 6.7627-1.14746Q5.60547-1.64062 4.73145-2.51953Q3.85742-3.39844 3.36426-4.56055Q2.87109-5.72266 2.87109-7.05078Q2.87109-8.37891 3.35938-9.54102Q3.84766-10.7031 4.72168-11.582Q5.5957-12.4609 6.75293-12.9541Q7.91016-13.4473 9.23828-13.4473Q10.5762-13.4473 11.7383-12.9541Q12.9004-12.4609 13.7793-11.582Q14.6582-10.7031 15.1514-9.54102Q15.6445-8.37891 15.6445-7.05078Q15.6445-5.72266 15.1514-4.56055Q14.6582-3.39844 13.7793-2.51953Q12.9004-1.64062 11.7432-1.14746Q10.5859-0.654297 9.24805-0.654297ZM5.6543-7.05078Q5.6543-6.72852 5.85938-6.52832Q6.06445-6.32812 6.40625-6.32812L8.51562-6.32812L8.51562-4.20898Q8.51562-3.88672 8.71094-3.67676Q8.90625-3.4668 9.23828-3.4668Q9.56055-3.4668 9.77051-3.67676Q9.98047-3.88672 9.98047-4.20898L9.98047-6.32812L12.0898-6.32812Q12.4219-6.32812 12.627-6.52832Q12.832-6.72852 12.832-7.05078Q12.832-7.38281 12.627-7.58789Q12.4219-7.79297 12.0898-7.79297L9.98047-7.79297L9.98047-9.90234Q9.98047-10.2344 9.77051-10.4443Q9.56055-10.6543 9.23828-10.6543Q8.90625-10.6543 8.71094-10.4443Q8.51562-10.2344 8.51562-9.90234L8.51562-7.79297L6.40625-7.79297Q6.06445-7.79297 5.85938-7.58789Q5.6543-7.38281 5.6543-7.05078Z"/>
  </g>
  <g transform="matrix(1 0 0 1 281.867 1933)">
   <path d="M11.709 2.91016Q13.75 2.91016 15.5518 2.12891Q17.3535 1.34766 18.7305-0.0292969Q20.1074-1.40625 20.8887-3.20801Q21.6699-5.00977 21.6699-7.05078Q21.6699-9.0918 20.8887-10.8936Q20.1074-12.6953 18.7305-14.0723Q17.3535-15.4492 15.5469-16.2305Q13.7402-17.0117 11.6992-17.0117Q9.6582-17.0117 7.85645-16.2305Q6.05469-15.4492 4.68262-14.0723Q3.31055-12.6953 2.5293-10.8936Q1.74805-9.0918 1.74805-7.05078Q1.74805-5.00977 2.5293-3.20801Q3.31055-1.40625 4.6875-0.0292969Q6.06445 1.34766 7.86621 2.12891Q9.66797 2.91016 11.709 2.91016ZM11.709 1.25Q9.98047 1.25 8.47656 0.605469Q6.97266-0.0390625 5.83496-1.17676Q4.69727-2.31445 4.05762-3.81836Q3.41797-5.32227 3.41797-7.05078Q3.41797-8.7793 4.05762-10.2832Q4.69727-11.7871 5.83008-12.9297Q6.96289-14.0723 8.4668-14.7119Q9.9707-15.3516 11.6992-15.3516Q13.4277-15.3516 14.9365-14.7119Q16.4453-14.0723 17.583-12.9297Q18.7207-11.7871 19.3652-10.2832Q20.0098-8.7793 20.0098-7.05078Q20.0098-5.32227 19.3701-3.81836Q18.7305-2.31445 17.5879-1.17676Q16.4453-0.0390625 14.9414 0.605469Q13.4375 1.25 11.709 1.25ZM7.17773-7.05078Q7.17773-6.69922 7.41211-6.47461Q7.64648-6.25 8.01758-6.25L10.8887-6.25L10.8887-3.36914Q10.8887-2.99805 11.1133-2.76855Q11.3379-2.53906 11.6895-2.53906Q12.0605-2.53906 12.29-2.76855Q12.5195-2.99805 12.5195-3.36914L12.5195-6.25L15.4004-6.25Q15.7715-6.25 16.001-6.47461Q16.2305-6.69922 16.2305-7.05078Q16.2305-7.42188 16.001-7.65137Q15.7715-7.88086 15.4004-7.88086L12.5195-7.88086L12.5195-10.752Q12.5195-11.1328 12.29-11.3623Q12.0605-11.5918 11.6895-11.5918Q11.3379-11.5918 11.1133-11.3574Q10.8887-11.123 10.8887-10.752L10.8887-7.88086L8.01758-7.88086Q7.63672-7.88086 7.40723-7.65137Q7.17773-7.42188 7.17773-7.05078Z"/>
  </g>
  <g transform="matrix(1 0 0 1 305.646 1933)">
   <path d="M14.9707 5.66406Q17.0605 5.66406 18.96 5.01465Q20.8594 4.36523 22.4512 3.19336Q24.043 2.02148 25.2197 0.429688Q26.3965-1.16211 27.0459-3.06641Q27.6953-4.9707 27.6953-7.05078Q27.6953-9.14062 27.0459-11.04Q26.3965-12.9395 25.2197-14.5312Q24.043-16.123 22.4512-17.2998Q20.8594-18.4766 18.9551-19.126Q17.0508-19.7754 14.9609-19.7754Q12.8711-19.7754 10.9717-19.126Q9.07227-18.4766 7.48535-17.2998Q5.89844-16.123 4.72168-14.5312Q3.54492-12.9395 2.90039-11.04Q2.25586-9.14062 2.25586-7.05078Q2.25586-4.9707 2.90527-3.06641Q3.55469-1.16211 4.72656 0.429688Q5.89844 2.02148 7.49023 3.19336Q9.08203 4.36523 10.9814 5.01465Q12.8809 5.66406 14.9707 5.66406ZM14.9707 3.84766Q13.1641 3.84766 11.5283 3.2959Q9.89258 2.74414 8.53516 1.74805Q7.17773 0.751953 6.17676-0.610352Q5.17578-1.97266 4.62891-3.6084Q4.08203-5.24414 4.08203-7.05078Q4.08203-8.86719 4.62891-10.5029Q5.17578-12.1387 6.17188-13.501Q7.16797-14.8633 8.52539-15.8594Q9.88281-16.8555 11.5186-17.4023Q13.1543-17.9492 14.9609-17.9492Q16.7773-17.9492 18.4131-17.4023Q20.0488-16.8555 21.4111-15.8594Q22.7734-14.8633 23.7744-13.501Q24.7754-12.1387 25.3223-10.5029Q25.8691-8.86719 25.8691-7.05078Q25.8691-5.24414 25.3223-3.6084Q24.7754-1.97266 23.7793-0.610352Q22.7832 0.751953 21.4209 1.74805Q20.0586 2.74414 18.4229 3.2959Q16.7871 3.84766 14.9707 3.84766ZM9.19922-7.05078Q9.19922-6.66992 9.45801-6.4209Q9.7168-6.17188 10.1172-6.17188L14.0625-6.17188L14.0625-2.2168Q14.0625-1.81641 14.3115-1.55762Q14.5605-1.29883 14.9512-1.29883Q15.3516-1.29883 15.6104-1.55273Q15.8691-1.80664 15.8691-2.2168L15.8691-6.17188L19.8242-6.17188Q20.2246-6.17188 20.4785-6.4209Q20.7324-6.66992 20.7324-7.05078Q20.7324-7.46094 20.4785-7.71484Q20.2246-7.96875 19.8242-7.96875L15.8691-7.96875L15.8691-11.9141Q15.8691-12.3242 15.6104-12.583Q15.3516-12.8418 14.9512-12.8418Q14.5605-12.8418 14.3115-12.583Q14.0625-12.3242 14.0625-11.9141L14.0625-7.96875L10.1172-7.96875Q9.70703-7.96875 9.45312-7.71484Q9.19922-7.46094 9.19922-7.05078Z"/>
  </g>
  <text style="stroke:none;fill:black;font-family:sans-serif;font-size:13;font-weight:bold;" transform="matrix(1 0 0 1 263 1953)">Design Variations</text>
  <text style="stroke:none;fill:black;font-family:sans-serif;font-size:13;" transform="matrix(1 0 0 1 263 1971)">Symbols are supported in up to nine weights and three scales.</text>
  <text style="stroke:none;fill:black;font-family:sans-serif;font-size:13;" transform="matrix(1 0 0 1 263 1989)">For optimal layout with text and other symbols, vertically align</text>
  <text style="stroke:none;fill:black;font-family:sans-serif;font-size:13;" transform="matrix(1 0 0 1 263 2007)">symbols with the adjacent text.</text>
  <line style="fill:none;stroke:#00AEEF;stroke-width:0.5;opacity:1.0;" x1="776" x2="776" y1="1919" y2="1933"/>
  <g transform="matrix(1 0 0 1 776 1933)">
   <path d="M3.31055 0.15625Q3.70117 0.15625 3.91602-0.00976562Q4.13086-0.175781 4.26758-0.585938L5.52734-4.0332L11.2891-4.0332L12.5488-0.585938Q12.6855-0.175781 12.9004-0.00976562Q13.1152 0.15625 13.4961 0.15625Q13.8867 0.15625 14.1162-0.0585938Q14.3457-0.273438 14.3457-0.644531Q14.3457-0.869141 14.2383-1.17188L9.6582-13.3691Q9.48242-13.8184 9.17969-14.043Q8.87695-14.2676 8.4082-14.2676Q7.5-14.2676 7.17773-13.3789L2.59766-1.16211Q2.49023-0.859375 2.49023-0.634766Q2.49023-0.263672 2.70996-0.0537109Q2.92969 0.15625 3.31055 0.15625ZM6.00586-5.51758L8.37891-12.0898L8.42773-12.0898L10.8008-5.51758Z"/>
  </g>
  <line style="fill:none;stroke:#00AEEF;stroke-width:0.5;opacity:1.0;" x1="793.197" x2="793.197" y1="1919" y2="1933"/>
  <text style="stroke:none;fill:black;font-family:sans-serif;font-size:13;font-weight:bold;" transform="matrix(1 0 0 1 776 1953)">Margins</text>
  <text style="stroke:none;fill:black;font-family:sans-serif;font-size:13;" transform="matrix(1 0 0 1 776 1971)">Leading and trailing margins on the left and right side of each symbol</text>
  <text style="stroke:none;fill:black;font-family:sans-serif;font-size:13;" transform="matrix(1 0 0 1 776 1989)">can be adjusted by modifying the x-location of the margin guidelines.</text>
  <text style="stroke:none;fill:black;font-family:sans-serif;font-size:13;" transform="matrix(1 0 0 1 776 2007)">Modifications are automatically applied proportionally to all</text>
  <text style="stroke:none;fill:black;font-family:sans-serif;font-size:13;" transform="matrix(1 0 0 1 776 2025)">scales and weights.</text>
  <g transform="matrix(1 0 0 1 1289 1933)">
   <path d="M2.8418 1.86523L4.54102 3.57422Q5.18555 4.22852 5.90332 4.17969Q6.62109 4.13086 7.31445 3.35938L18.0078-8.42773L17.041-9.4043L6.42578 2.27539Q6.16211 2.57812 5.89355 2.61719Q5.625 2.65625 5.27344 2.30469L4.10156 1.14258Q3.75 0.791016 3.79395 0.522461Q3.83789 0.253906 4.14062-0.0195312L15.6152-10.8203L14.6387-11.7871L3.04688-0.898438Q2.30469-0.214844 2.25098 0.498047Q2.19727 1.21094 2.8418 1.86523ZM9.25781-16.3281Q8.94531-16.0254 8.90625-15.6348Q8.86719-15.2441 9.04297-14.9512Q9.21875-14.6777 9.55566-14.541Q9.89258-14.4043 10.3809-14.5215Q11.4746-14.7754 12.5977-14.7314Q13.7207-14.6875 14.7949-13.9844L14.209-12.5293Q13.9551-11.9043 14.0674-11.4404Q14.1797-10.9766 14.5801-10.5664L16.875-8.25195Q17.2363-7.88086 17.5781-7.82227Q17.9199-7.76367 18.3398-7.8418L19.4043-8.03711L20.0684-7.36328L20.0293-6.80664Q20-6.43555 20.1221-6.12305Q20.2441-5.81055 20.6055-5.44922L21.3672-4.70703Q21.7285-4.3457 22.1533-4.33105Q22.5781-4.31641 22.9297-4.66797L25.8398-7.58789Q26.1914-7.93945 26.1816-8.35449Q26.1719-8.76953 25.8105-9.13086L25.0391-9.89258Q24.6875-10.2539 24.3799-10.3857Q24.0723-10.5176 23.7109-10.4883L23.1348-10.4395L22.4902-11.0742L22.7344-12.1973Q22.832-12.6172 22.6953-12.9834Q22.5586-13.3496 22.1191-13.7891L19.9219-15.9766Q18.6719-17.2168 17.2607-17.8369Q15.8496-18.457 14.4189-18.4814Q12.9883-18.5059 11.665-17.959Q10.3418-17.4121 9.25781-16.3281ZM10.752-15.957Q11.6602-16.6211 12.7002-16.9043Q13.7402-17.1875 14.8047-17.085Q15.8691-16.9824 16.8701-16.5137Q17.8711-16.0449 18.7012-15.2051L21.1328-12.793Q21.3086-12.6172 21.3525-12.4512Q21.3965-12.2852 21.3379-12.0312L21.0156-10.5469L22.5195-9.0625L23.5059-9.12109Q23.6914-9.13086 23.7891-9.09668Q23.8867-9.0625 24.0332-8.91602L24.6094-8.33984L22.168-5.89844L21.5918-6.47461Q21.4453-6.62109 21.4062-6.71875Q21.3672-6.81641 21.377-7.01172L21.4453-7.98828L19.9512-9.47266L18.4277-9.21875Q18.1836-9.16992 18.042-9.2041Q17.9004-9.23828 17.7148-9.41406L15.7129-11.416Q15.5176-11.5918 15.4932-11.7529Q15.4688-11.9141 15.5859-12.1875L16.4648-14.2773Q15.293-15.3711 13.8281-15.791Q12.3633-16.2109 10.8398-15.7617Q10.7227-15.7324 10.6885-15.8057Q10.6543-15.8789 10.752-15.957Z"/>
  </g>
  <text style="stroke:none;fill:black;font-family:sans-serif;font-size:13;font-weight:bold;" transform="matrix(1 0 0 1 1289 1953)">Exporting</text>
  <text style="stroke:none;fill:black;font-family:sans-serif;font-size:13;" transform="matrix(1 0 0 1 1289 1971)">Symbols should be outlined when exporting to ensure the</text>
  <text style="stroke:none;fill:black;font-family:sans-serif;font-size:13;" transform="matrix(1 0 0 1 1289 1989)">design is preserved when submitting to Xcode.</text>
  <text id="template-version" style="stroke:none;fill:black;font-family:sans-serif;font-size:13;text-anchor:end;" transform="matrix(1 0 0 1 3036 1933)">Template v.2.0</text>
  <text style="stroke:none;fill:black;font-family:sans-serif;font-size:13;text-anchor:end;" transform="matrix(1 0 0 1 3036 1951)">Requires Xcode 12 or greater</text>
  <text id="descriptive-name" style="stroke:none;fill:black;font-family:sans-serif;font-size:13;text-anchor:end;" transform="matrix(1 0 0 1 3036 1969)">Generated from chart.bar.xaxis</text>
  <text style="stroke:none;fill:black;font-family:sans-serif;font-size:13;text-anchor:end;" transform="matrix(1 0 0 1 3036 1987)">Typeset at 100 points</text>
  <text style="stroke:none;fill:black;font-family:sans-serif;font-size:13;" transform="matrix(1 0 0 1 263 726)">Small</text>
  <text style="stroke:none;fill:black;font-family:sans-serif;font-size:13;" transform="matrix(1 0 0 1 263 1156)">Medium</text>
  <text style="stroke:none;fill:black;font-family:sans-serif;font-size:13;" transform="matrix(1 0 0 1 263 1586)">Large</text>
 </g>
 <g id="Guides">
  <g id="H-reference" style="fill:#27AAE1;stroke:none;" transform="matrix(1 0 0 1 339 696)">
   <path d="M0.993347 0L3.6377 0L29.3282-67.1326L30.0301-67.1326L30.0301-70.459L28.1227-70.459ZM11.6882-24.4797L46.9818-24.4797L46.2311-26.7288L12.4382-26.7288ZM55.1193 0L57.7637 0L30.6381-70.459L29.4327-70.459L29.4327-67.1326Z"/>
  </g>
  <line id="Baseline-S" style="fill:none;stroke:#27AAE1;opacity:1;stroke-width:0.5;" x1="263" x2="3036" y1="696" y2="696"/>
  <line id="Capline-S" style="fill:none;stroke:#27AAE1;opacity:1;stroke-width:0.5;" x1="263" x2="3036" y1="625.541" y2="625.541"/>
  <g id="H-reference" style="fill:#27AAE1;stroke:none;" transform="matrix(1 0 0 1 339 1126)">
   <path d="M0.993347 0L3.6377 0L29.3282-67.1326L30.0301-67.1326L30.0301-70.459L28.1227-70.459ZM11.6882-24.4797L46.9818-24.4797L46.2311-26.7288L12.4382-26.7288ZM55.1193 0L57.7637 0L30.6381-70.459L29.4327-70.459L29.4327-67.1326Z"/>
  </g>
  <line id="Baseline-M" style="fill:none;stroke:#27AAE1;opacity:1;stroke-width:0.5;" x1="263" x2="3036" y1="1126" y2="1126"/>
  <line id="Capline-M" style="fill:none;stroke:#27AAE1;opacity:1;stroke-width:0.5;" x1="263" x2="3036" y1="1055.54" y2="1055.54"/>
  <g id="H-reference" style="fill:#27AAE1;stroke:none;" transform="matrix(1 0 0 1 339 1556)">
   <path d="M0.993347 0L3.6377 0L29.3282-67.1326L30.0301-67.1326L30.0301-70.459L28.1227-70.459ZM11.6882-24.4797L46.9818-24.4797L46.2311-26.7288L12.4382-26.7288ZM55.1193 0L57.7637 0L30.6381-70.459L29.4327-70.459L29.4327-67.1326Z"/>
  </g>
  <line id="Baseline-L" style="fill:none;stroke:#27AAE1;opacity:1;stroke-width:0.5;" x1="263" x2="3036" y1="1556" y2="1556"/>
  <line id="Capline-L" style="fill:none;stroke:#27AAE1;opacity:1;stroke-width:0.5;" x1="263" x2="3036" y1="1485.54" y2="1485.54"/>
  <line id="left-margin" style="fill:none;stroke:#00AEEF;stroke-width:0.5;opacity:1.0;" x1="1386.48" x2="1386.48" y1="1030.79" y2="1150.12"/>
  <line id="right-margin" style="fill:none;stroke:#00AEEF;stroke-width:0.5;opacity:1.0;" x1="1513.2" x2="1513.2" y1="1030.79" y2="1150.12"/>
 </g>
 <g id="Symbols">
  <g id="Black-L" transform="matrix(1 0 0 1 2840.89 1556)">
   <path d="M16.084 18.8322Q16.084 23.2639 19.021 26.0427Q21.958 28.8215 26.3081 28.8215L158.715 28.8215Q163.065 28.8215 166.002 26.0427Q168.938 23.2639 168.938 18.8322Q168.938 14.4213 166.002 11.6321Q163.065 8.84286 158.715 8.84286L26.3081 8.84286Q21.958 8.84286 19.021 11.6321Q16.084 14.4213 16.084 18.8322ZM26.3057-9.43295Q26.3057-5.77898 28.531-3.54593Q30.7563-1.31287 34.3178-1.31287L46.3627-1.31287Q49.9803-1.31287 52.1776-3.54593Q54.3748-5.77898 54.3748-9.43295L54.3748-55.2258Q54.3748-58.959 52.1776-61.1915Q49.9803-63.4239 46.3627-63.4239L34.3178-63.4239Q30.7563-63.4239 28.531-61.1915Q26.3057-58.959 26.3057-55.2258ZM61.085-9.43295Q61.085-5.77898 63.3005-3.54593Q65.5159-1.31287 69.1555-1.31287L81.1212-1.31287Q84.7608-1.31287 86.9575-3.54593Q89.1541-5.77898 89.1541-9.43295L89.1541-82.2871Q89.1541-86.0007 86.9575-88.2228Q84.7608-90.4448 81.1212-90.4448L69.1555-90.4448Q65.5159-90.4448 63.3005-88.2228Q61.085-86.0007 61.085-82.2871ZM95.8459-9.43295Q95.8459-5.77898 98.0134-3.54593Q100.181-1.31287 103.819-1.31287L115.903-1.31287Q119.542-1.31287 121.729-3.54593Q123.915-5.77898 123.915-9.43295L123.915-66.4008Q123.915-70.134 121.729-72.3671Q119.542-74.6001 115.903-74.6001L103.819-74.6001Q100.181-74.6001 98.0134-72.3671Q95.8459-70.134 95.8459-66.4008ZM130.628-9.43295Q130.628-5.77898 132.853-3.54593Q135.078-1.31287 138.64-1.31287L150.685-1.31287Q154.302-1.31287 156.499-3.54593Q158.697-5.77898 158.697-9.43295L158.697-44.0649Q158.697-47.7773 156.499-50.0207Q154.302-52.2642 150.685-52.2642L138.64-52.2642Q135.078-52.2642 132.853-50.0207Q130.628-47.7773 130.628-44.0649Z"/>
  </g>
  <g id="Heavy-L" transform="matrix(1 0 0 1 2546.7 1556)">
   <path d="M16.084 18.7828Q16.084 22.6393 18.6631 25.0833Q21.2422 27.5274 25.0126 27.5274L154.976 27.5274Q158.747 27.5274 161.323 25.0833Q163.899 22.6393 163.899 18.7828Q163.899 14.9565 161.323 12.4973Q158.747 10.0382 154.976 10.0382L25.0126 10.0382Q21.2422 10.0382 18.6631 12.4973Q16.084 14.9565 16.084 18.7828ZM25.0014-7.24769Q25.0014-3.89589 27.048-1.85998Q29.0946 0.175936 32.4042 0.175936L44.949 0.175936Q48.292 0.175936 50.3219-1.85998Q52.3518-3.89589 52.3518-7.24769L52.3518-54.7711Q52.3518-58.1977 50.3219-60.2308Q48.292-62.2639 44.949-62.2639L32.4042-62.2639Q29.0946-62.2639 27.048-60.2308Q25.0014-58.1977 25.0014-54.7711ZM59.2058-7.24769Q59.2058-3.89589 61.2401-1.85998Q63.2745 0.175936 66.6532 0.175936L79.1232 0.175936Q82.5019 0.175936 84.5291-1.85998Q86.5562-3.89589 86.5562-7.24769L86.5562-81.954Q86.5562-85.356 84.5291-87.374Q82.5019-89.3921 79.1232-89.3921L66.6532-89.3921Q63.2745-89.3921 61.2401-87.374Q59.2058-85.356 59.2058-81.954ZM93.3913-7.24769Q93.3913-3.89589 95.3961-1.85998Q97.4009 0.175936 100.774 0.175936L113.339 0.175936Q116.718 0.175936 118.73-1.85998Q120.742-3.89589 120.742-7.24769L120.742-66.5676Q120.742-69.9942 118.73-72.0301Q116.718-74.0661 113.339-74.0661L100.774-74.0661Q97.4009-74.0661 95.3961-72.0301Q93.3913-69.9942 93.3913-66.5676ZM127.607-7.24769Q127.607-3.89589 129.654-1.85998Q131.7 0.175936 135.01 0.175936L147.554 0.175936Q150.897 0.175936 152.927-1.85998Q154.957-3.89589 154.957-7.24769L154.957-43.0946Q154.957-46.4909 152.927-48.5419Q150.897-50.593 147.554-50.593L135.01-50.593Q131.7-50.593 129.654-48.5419Q127.607-46.4909 127.607-43.0946Z"/>
  </g>
  <g id="Bold-L" transform="matrix(1 0 0 1 2252.78 1556)">
   <path d="M16.084 18.848Q16.084 22.0048 18.2212 24.0302Q20.3585 26.0556 23.4216 26.0556L150.984 26.0556Q154.047 26.0556 156.178 24.0302Q158.308 22.0048 158.308 18.848Q158.308 15.7292 156.178 13.6848Q154.047 11.6403 150.984 11.6403L23.4216 11.6403Q20.3585 11.6403 18.2212 13.6848Q16.084 15.7292 16.084 18.848ZM23.3951-4.43113Q23.3951-1.4334 25.2339 0.375286Q27.0726 2.18397 30.0896 2.18397L43.3462 2.18397Q46.3659 2.18397 48.2033 0.375286Q50.0406-1.4334 50.0406-4.43113L50.0406-54.3293Q50.0406-57.3941 48.2033-59.1963Q46.3659-60.9984 43.3462-60.9984L30.0896-60.9984Q27.0726-60.9984 25.2339-59.1963Q23.3951-57.3941 23.3951-54.3293ZM57.034-4.43113Q57.034-1.4334 58.8604 0.375286Q60.6867 2.18397 63.7577 2.18397L76.947 2.18397Q80.0179 2.18397 81.8487 0.375286Q83.6795-1.4334 83.6795-4.43113L83.6795-81.7552Q83.6795-84.7953 81.8487-86.5785Q80.0179-88.3617 76.947-88.3617L63.7577-88.3617Q60.6867-88.3617 58.8604-86.5785Q57.034-84.7953 57.034-81.7552ZM90.6615-4.43113Q90.6615-1.4334 92.4777 0.375286Q94.2939 2.18397 97.3515 2.18397L110.613 2.18397Q113.683 2.18397 115.495 0.375286Q117.307-1.4334 117.307-4.43113L117.307-66.8719Q117.307-69.9367 115.495-71.7455Q113.683-73.5543 110.613-73.5543L97.3515-73.5543Q94.2939-73.5543 92.4777-71.7455Q90.6615-69.9367 90.6615-66.8719ZM124.327-4.43113Q124.327-1.4334 126.166 0.375286Q128.004 2.18397 131.021 2.18397L144.278 2.18397Q147.298 2.18397 149.135 0.375286Q150.972-1.4334 150.972-4.43113L150.972-42.0225Q150.972-45.0492 149.135-46.877Q147.298-48.7047 144.278-48.7047L131.021-48.7047Q128.004-48.7047 126.166-46.877Q124.327-45.0492 124.327-42.0225Z"/>
  </g>
  <g id="Semibold-L" transform="matrix(1 0 0 1 1958 1556)">
   <path d="M16.084 18.8929Q16.084 21.5674 17.9166 23.3042Q19.7492 25.041 22.3247 25.041L148.231 25.041Q150.807 25.041 152.63 23.3042Q154.454 21.5674 154.454 18.8929Q154.454 16.2619 152.63 14.5033Q150.807 12.7448 148.231 12.7448L22.3247 12.7448Q19.7492 12.7448 17.9166 14.5033Q16.084 16.2619 16.084 18.8929ZM22.2878-2.4894Q22.2878 0.264231 23.9832 1.91626Q25.6786 3.5683 28.4939 3.5683L42.2412 3.5683Q45.0381 3.5683 46.7427 1.91626Q48.4473 0.264231 48.4473-2.4894L48.4473-54.0248Q48.4473-56.8402 46.7427-58.4831Q45.0381-60.126 42.2412-60.126L28.4939-60.126Q25.6786-60.126 23.9832-58.4831Q22.2878-56.8402 22.2878-54.0248ZM55.5368-2.4894Q55.5368 0.264231 57.2198 1.91626Q58.9028 3.5683 61.7615 3.5683L75.4467 3.5683Q78.3054 3.5683 80.0009 1.91626Q81.6964 0.264231 81.6964-2.4894L81.6964-81.6182Q81.6964-84.4088 80.0009-86.03Q78.3054-87.6513 75.4467-87.6513L61.7615-87.6513Q58.9028-87.6513 57.2198-86.03Q55.5368-84.4088 55.5368-81.6182ZM88.7796-2.4894Q88.7796 0.264231 90.4658 1.91626Q92.1519 3.5683 94.9921 3.5683L108.733 3.5683Q111.591 3.5683 113.265 1.91626Q114.939 0.264231 114.939-2.4894L114.939-67.0817Q114.939-69.8972 113.265-71.5494Q111.591-73.2015 108.733-73.2015L94.9921-73.2015Q92.1519-73.2015 90.4658-71.5494Q88.7796-69.8972 88.7796-67.0817ZM122.066-2.4894Q122.066 0.264231 123.761 1.91626Q125.456 3.5683 128.272 3.5683L142.019 3.5683Q144.816 3.5683 146.52 1.91626Q148.225 0.264231 148.225-2.4894L148.225-41.2834Q148.225-44.0553 146.52-45.7291Q144.816-47.4029 142.019-47.4029L128.272-47.4029Q125.456-47.4029 123.761-45.7291Q122.066-44.0553 122.066-41.2834Z"/>
  </g>
  <g id="Medium-L" transform="matrix(1 0 0 1 1662.75 1556)">
   <path d="M16.084 18.927Q16.084 21.2358 17.6856 22.7537Q19.2873 24.2717 21.493 24.2717L146.144 24.2717Q148.35 24.2717 149.941 22.7537Q151.531 21.2358 151.531 18.927Q151.531 16.6658 149.941 15.124Q148.35 13.5823 146.144 13.5823L21.493 13.5823Q19.2873 13.5823 17.6856 15.124Q16.084 16.6658 16.084 18.927ZM21.4481-1.0171Q21.4481 1.55144 23.0349 3.0847Q24.6216 4.61795 27.284 4.61795L41.4033 4.61795Q44.0313 4.61795 45.6352 3.0847Q47.2392 1.55144 47.2392-1.0171L47.2392-53.7939Q47.2392-56.4202 45.6352-57.9423Q44.0313-59.4644 41.4033-59.4644L27.284-59.4644Q24.6216-59.4644 23.0349-57.9423Q21.4481-56.4202 21.4481-53.7939ZM54.4015-1.0171Q54.4015 1.55144 55.9758 3.0847Q57.5501 4.61795 60.2479 4.61795L74.3091 4.61795Q77.007 4.61795 78.5998 3.0847Q80.1926 1.55144 80.1926-1.0171L80.1926-81.5144Q80.1926-84.1157 78.5998-85.6142Q77.007-87.1127 74.3091-87.1127L60.2479-87.1127Q57.5501-87.1127 55.9758-85.6142Q54.4015-84.1157 54.4015-81.5144ZM87.3526-1.0171Q87.3526 1.55144 88.9402 3.0847Q90.5278 4.61795 93.203 4.61795L107.308 4.61795Q110.005 4.61795 111.574 3.0847Q113.143 1.55144 113.143-1.0171L113.143-67.2408Q113.143-69.8672 111.574-71.4006Q110.005-72.934 107.308-72.934L93.203-72.934Q90.5278-72.934 88.9402-71.4006Q87.3526-69.8672 87.3526-67.2408ZM120.351-1.0171Q120.351 1.55144 121.938 3.0847Q123.525 4.61795 126.187 4.61795L140.306 4.61795Q142.934 4.61795 144.538 3.0847Q146.142 1.55144 146.142-1.0171L146.142-40.7231Q146.142-43.3017 144.538-44.8588Q142.934-46.4159 140.306-46.4159L126.187-46.4159Q123.525-46.4159 121.938-44.8588Q120.351-43.3017 120.351-40.7231Z"/>
  </g>
  <g id="Regular-L" transform="matrix(1 0 0 1 1367.94 1556)">
   <path d="M16.084 18.9714Q16.084 20.8032 17.3844 22.0357Q18.6847 23.2682 20.4082 23.2682L143.422 23.2682Q145.146 23.2682 146.432 22.0357Q147.719 20.8032 147.719 18.9714Q147.719 17.1926 146.432 15.9336Q145.146 14.6746 143.422 14.6746L20.4082 14.6746Q18.6847 14.6746 17.3844 15.9336Q16.084 17.1926 16.084 18.9714ZM20.3529 0.903284Q20.3529 3.23042 21.7979 4.60874Q23.243 5.98706 25.7058 5.98706L40.3105 5.98706Q42.718 5.98706 44.1907 4.60874Q45.6634 3.23042 45.6634 0.903284L45.6634-53.4927Q45.6634-55.8723 44.1907-57.237Q42.718-58.6016 40.3105-58.6016L25.7058-58.6016Q23.243-58.6016 21.7979-57.237Q20.3529-55.8723 20.3529-53.4927ZM52.9208 0.903284Q52.9208 3.23042 54.3533 4.60874Q55.7857 5.98706 58.2737 5.98706L72.8253 5.98706Q75.3133 5.98706 76.7723 4.60874Q78.2313 3.23042 78.2313 0.903284L78.2313-81.3789Q78.2313-83.7334 76.7723-85.0718Q75.3133-86.4101 72.8253-86.4101L58.2737-86.4101Q55.7857-86.4101 54.3533-85.0718Q52.9208-83.7334 52.9208-81.3789ZM85.4914 0.903284Q85.4914 3.23042 86.9504 4.60874Q88.4094 5.98706 90.8695 5.98706L105.449 5.98706Q107.936 5.98706 109.369 4.60874Q110.801 3.23042 110.801 0.903284L110.801-67.4483Q110.801-69.828 109.369-71.2066Q107.936-72.5851 105.449-72.5851L90.8695-72.5851Q88.4094-72.5851 86.9504-71.2066Q85.4914-69.828 85.4914-67.4483ZM118.115 0.903284Q118.115 3.23042 119.56 4.60874Q121.005 5.98706 123.468 5.98706L138.072 5.98706Q140.48 5.98706 141.952 4.60874Q143.425 3.23042 143.425 0.903284L143.425-39.9921Q143.425-42.3188 141.952-43.7236Q140.48-45.1284 138.072-45.1284L123.468-45.1284Q121.005-45.1284 119.56-43.7236Q118.115-42.3188 118.115-39.9921Z"/>
  </g>
  <g id="Light-L" transform="matrix(1 0 0 1 1071.07 1556)">
   <path d="M16.084 19.8301Q16.084 21.2611 17.0886 22.1787Q18.0931 23.0963 19.3965 23.0963L144.777 23.0963Q146.081 23.0963 147.062 22.1787Q148.044 21.2611 148.044 19.8301Q148.044 18.4333 147.062 17.4986Q146.081 16.5639 144.777 16.5639L19.3965 16.5639Q18.0931 16.5639 17.0886 17.4986Q16.084 18.4333 16.084 19.8301ZM19.3031 3.55607Q19.3031 5.76873 20.6909 7.09927Q22.0787 8.42982 24.4652 8.42982L40.1578 8.42982Q42.4509 8.42982 43.8854 7.09927Q45.32 5.76873 45.32 3.55607L45.32-53.9698Q45.32-56.2158 43.8854-57.5231Q42.4509-58.8305 40.1578-58.8305L24.4652-58.8305Q22.0787-58.8305 20.6909-57.5231Q19.3031-56.2158 19.3031-53.9698ZM52.4244 3.55607Q52.4244 5.76873 53.8187 7.09927Q55.213 8.42982 57.5865 8.42982L73.2451 8.42982Q75.6186 8.42982 77.0299 7.09927Q78.4413 5.76873 78.4413 3.55607L78.4413-82.6195Q78.4413-84.8785 77.0299-86.1692Q75.6186-87.4599 73.2451-87.4599L57.5865-87.4599Q55.213-87.4599 53.8187-86.1692Q52.4244-84.8785 52.4244-82.6195ZM85.6059 3.55607Q85.6059 5.76873 87.0173 7.09927Q88.4286 8.42982 90.755 8.42982L106.461 8.42982Q108.833 8.42982 110.228 7.09927Q111.622 5.76873 111.622 3.55607L111.622-68.2881Q111.622-70.5341 110.228-71.865Q108.833-73.196 106.461-73.196L90.755-73.196Q88.4286-73.196 87.0173-71.865Q85.6059-70.5341 85.6059-68.2881ZM118.821 3.55607Q118.821 5.76873 120.208 7.09927Q121.596 8.42982 123.983 8.42982L139.675 8.42982Q141.969 8.42982 143.403 7.09927Q144.837 5.76873 144.837 3.55607L144.837-40.0877Q144.837-42.2995 143.403-43.6471Q141.969-44.9947 139.675-44.9947L123.983-44.9947Q121.596-44.9947 120.208-43.6471Q118.821-42.2995 118.821-40.0877Z"/>
  </g>
  <g id="Thin-L" transform="matrix(1 0 0 1 774.144 1556)">
   <path d="M16.084 20.9658Q16.084 21.8667 16.6973 22.3678Q17.3107 22.869 18.0585 22.869L146.57 22.869Q147.317 22.869 147.895 22.3678Q148.473 21.8667 148.473 20.9658Q148.473 20.0741 147.895 19.5684Q147.317 19.0627 146.57 19.0627L18.0585 19.0627Q17.3107 19.0627 16.6973 19.5684Q16.084 20.0741 16.084 20.9658ZM17.9146 7.06459Q17.9146 9.12585 19.2267 10.3932Q20.5388 11.6606 22.8244 11.6606L39.956 11.6606Q42.0976 11.6606 43.4817 10.3932Q44.8658 9.12585 44.8658 7.06459L44.8658-54.6009Q44.8658-56.67 43.4817-57.9016Q42.0976-59.1333 39.956-59.1333L22.8244-59.1333Q20.5388-59.1333 19.2267-57.9016Q17.9146-56.67 17.9146-54.6009ZM51.7679 7.06459Q51.7679 9.12585 53.1118 10.3932Q54.4556 11.6606 56.6777 11.6606L73.8002 11.6606Q76.0223 11.6606 77.3707 10.3932Q78.7191 9.12585 78.7191 7.06459L78.7191-84.2603Q78.7191-86.3929 77.3707-87.6207Q76.0223-88.8484 73.8002-88.8484L56.6777-88.8484Q54.4556-88.8484 53.1118-87.6207Q51.7679-86.3929 51.7679-84.2603ZM85.7573 7.06459Q85.7573 9.12585 87.1057 10.3932Q88.4541 11.6606 90.6036 11.6606L107.799 11.6606Q110.02 11.6606 111.363 10.3932Q112.707 9.12585 112.707 7.06459L112.707-69.3988Q112.707-71.4679 111.363-72.7359Q110.02-74.0039 107.799-74.0039L90.6036-74.0039Q88.4541-74.0039 87.1057-72.7359Q85.7573-71.4679 85.7573-69.3988ZM119.755 7.06459Q119.755 9.12585 121.067 10.3932Q122.379 11.6606 124.664 11.6606L141.796 11.6606Q143.938 11.6606 145.321 10.3932Q146.704 9.12585 146.704 7.06459L146.704-40.214Q146.704-42.2741 145.321-43.546Q143.938-44.8179 141.796-44.8179L124.664-44.8179Q122.379-44.8179 121.067-43.546Q119.755-42.2741 119.755-40.214Z"/>
  </g>
  <g id="Ultralight-L" transform="matrix(1 0 0 1 477.323 1556)">
   <path d="M16.084 21.5475Q16.084 22.1769 16.4969 22.4647Q16.9099 22.7526 17.3732 22.7526L147.488 22.7526Q147.951 22.7526 148.322 22.4647Q148.693 22.1769 148.693 21.5475Q148.693 20.9145 148.322 20.6285Q147.951 20.3425 147.488 20.3425L17.3732 20.3425Q16.9099 20.3425 16.4969 20.6285Q16.084 20.9145 16.084 21.5475ZM17.2034 8.86164Q17.2034 10.8453 18.4767 12.0803Q19.7501 13.3153 21.984 13.3153L39.8526 13.3153Q41.9167 13.3153 43.2749 12.0803Q44.6331 10.8453 44.6331 8.86164L44.6331-54.9241Q44.6331-56.9026 43.2749-58.0955Q41.9167-59.2884 39.8526-59.2884L21.984-59.2884Q19.7501-59.2884 18.4767-58.0955Q17.2034-56.9026 17.2034-54.9241ZM51.4317 8.86164Q51.4317 10.8453 52.7497 12.0803Q54.0677 13.3153 56.2122 13.3153L74.0846 13.3153Q76.2291 13.3153 77.5452 12.0803Q78.8613 10.8453 78.8613 8.86164L78.8613-85.1007Q78.8613-87.1686 77.5452-88.3641Q76.2291-89.5596 74.0846-89.5596L56.2122-89.5596Q54.0677-89.5596 52.7497-88.3641Q51.4317-87.1686 51.4317-85.1007ZM85.8348 8.86164Q85.8348 10.8453 87.151 12.0803Q88.4671 13.3153 90.526 13.3153L108.484 13.3153Q110.627 13.3153 111.945 12.0803Q113.263 10.8453 113.263 8.86164L113.263-69.9677Q113.263-71.9463 111.945-73.182Q110.627-74.4177 108.484-74.4177L90.526-74.4177Q88.4671-74.4177 87.151-73.182Q85.8348-71.9463 85.8348-69.9677ZM120.233 8.86164Q120.233 10.8453 121.506 12.0803Q122.78 13.3153 125.013 13.3153L142.882 13.3153Q144.946 13.3153 146.304 12.0803Q147.661 10.8453 147.661 8.86164L147.661-40.2788Q147.661-42.2611 146.304-43.4942Q144.946-44.7273 142.882-44.7273L125.013-44.7273Q122.78-44.7273 121.506-43.4942Q120.233-42.2611 120.233-40.2788Z"/>
  </g>
  <g id="Black-M" transform="matrix(1 0 0 1 2859.54 1126)">
   <path d="M12.4609 6.81314Q12.4609 10.6866 15.0039 13.0845Q17.5469 15.4824 21.3583 15.4824L126.36 15.4824Q130.172 15.4824 132.715 13.0845Q135.258 10.6866 135.258 6.81314Q135.258 2.94517 132.715 0.544531Q130.172-1.85611 126.36-1.85611L21.3583-1.85611Q17.5469-1.85611 15.0039 0.544531Q12.4609 2.94517 12.4609 6.81314ZM21.3589-16.7625Q21.3589-13.6874 23.2287-11.7944Q25.0985-9.90143 28.064-9.90143L37.1135-9.90143Q40.1366-9.90143 41.9776-11.7944Q43.8186-13.6874 43.8186-16.7625L43.8186-51.1769Q43.8186-54.3146 41.9776-56.2077Q40.1366-58.1009 37.1135-58.1009L28.064-58.1009Q25.0985-58.1009 23.2287-56.2077Q21.3589-54.3146 21.3589-51.1769ZM48.8729-16.7625Q48.8729-13.6874 50.7398-11.7944Q52.6067-9.90143 55.6351-9.90143L64.622-9.90143Q67.6504-9.90143 69.4915-11.7944Q71.3326-13.6874 71.3326-16.7625L71.3326-72.1415Q71.3326-75.2733 69.4915-77.1637Q67.6504-79.0541 64.622-79.0541L55.6351-79.0541Q52.6067-79.0541 50.7398-77.1637Q48.8729-75.2733 48.8729-72.1415ZM76.3809-16.7625Q76.3809-13.6874 78.1935-11.7944Q80.006-9.90143 83.0347-9.90143L92.1355-9.90143Q95.1639-9.90143 97.0023-11.7944Q98.8406-13.6874 98.8406-16.7625L98.8406-59.3497Q98.8406-62.4873 97.0023-64.3803Q95.1639-66.2733 92.1355-66.2733L83.0347-66.2733Q80.006-66.2733 78.1935-64.3803Q76.3809-62.4873 76.3809-59.3497ZM103.894-16.7625Q103.894-13.6874 105.764-11.7944Q107.634-9.90143 110.6-9.90143L119.649-9.90143Q122.672-9.90143 124.513-11.7944Q126.354-13.6874 126.354-16.7625L126.354-42.9215Q126.354-46.0537 124.513-47.9494Q122.672-49.8452 119.649-49.8452L110.6-49.8452Q107.634-49.8452 105.764-47.9494Q103.894-46.0537 103.894-42.9215Z"/>
  </g>
  <g id="Heavy-M" transform="matrix(1 0 0 1 2565.31 1126)">
   <path d="M12.4609 6.68564Q12.4609 10.0338 14.6813 12.1335Q16.9017 14.2332 20.1852 14.2332L122.58 14.2332Q125.864 14.2332 128.083 12.1335Q130.302 10.0338 130.302 6.68564Q130.302 3.35392 128.083 1.24602Q125.864-0.861893 122.58-0.861893L20.1852-0.861893Q16.9017-0.861893 14.6813 1.24602Q12.4609 3.35392 12.4609 6.68564ZM20.1807-14.871Q20.1807-12.0807 21.8811-10.3761Q23.5815-8.67137 26.3077-8.67137L35.7455-8.67137Q38.5108-8.67137 40.1917-10.3761Q41.8726-12.0807 41.8726-14.871L41.8726-50.6884Q41.8726-53.5386 40.1917-55.2422Q38.5108-56.9458 35.7455-56.9458L26.3077-56.9458Q23.5815-56.9458 21.8811-55.2422Q20.1807-53.5386 20.1807-50.6884ZM47.0817-14.871Q47.0817-12.0807 48.775-10.3761Q50.4684-8.67137 53.2524-8.67137L62.6301-8.67137Q65.4141-8.67137 67.0939-10.3761Q68.7736-12.0807 68.7736-14.871L68.7736-71.7013Q68.7736-74.5374 67.0939-76.2328Q65.4141-77.9281 62.6301-77.9281L53.2524-77.9281Q50.4684-77.9281 48.775-76.2328Q47.0817-74.5374 47.0817-71.7013ZM73.9708-14.871Q73.9708-12.0807 75.6288-10.3761Q77.2867-8.67137 80.0684-8.67137L89.5357-8.67137Q92.3196-8.67137 93.9912-10.3761Q95.6627-12.0807 95.6627-14.871L95.6627-59.4352Q95.6627-62.2855 93.9912-63.9902Q92.3196-65.6949 89.5357-65.6949L80.0684-65.6949Q77.2867-65.6949 75.6288-63.9902Q73.9708-62.2855 73.9708-59.4352ZM100.876-14.871Q100.876-12.0807 102.577-10.3761Q104.277-8.67137 107.003-8.67137L116.441-8.67137Q119.207-8.67137 120.887-10.3761Q122.568-12.0807 122.568-14.871L122.568-41.9642Q122.568-44.798 120.887-46.5109Q119.207-48.2238 116.441-48.2238L107.003-48.2238Q104.277-48.2238 102.577-46.5109Q100.876-44.798 100.876-41.9642Z"/>
  </g>
  <g id="Bold-M" transform="matrix(1 0 0 1 2271.37 1126)">
   <path d="M12.4609 6.54301Q12.4609 9.30351 14.3204 11.0696Q16.1799 12.8357 18.8729 12.8357L118.352 12.8357Q121.045 12.8357 122.902 11.0696Q124.759 9.30351 124.759 6.54301Q124.759 3.81117 122.902 2.03073Q121.045 0.250285 118.352 0.250285L18.8729 0.250285Q16.1799 0.250285 14.3204 2.03073Q12.4609 3.81117 12.4609 6.54301ZM18.8627-12.755Q18.8627-10.2834 20.3736-8.7894Q21.8846-7.29537 24.3432-7.29537L34.2153-7.29537Q36.6921-7.29537 38.194-8.7894Q39.6958-10.2834 39.6958-12.755L39.6958-50.1419Q39.6958-52.6706 38.194-54.1621Q36.6921-55.6536 34.2153-55.6536L24.3432-55.6536Q21.8846-55.6536 20.3736-54.1621Q18.8627-52.6706 18.8627-50.1419ZM45.0779-12.755Q45.0779-10.2834 46.5771-8.7894Q48.0763-7.29537 50.5869-7.29537L60.4018-7.29537Q62.9124-7.29537 64.4117-8.7894Q65.911-10.2834 65.911-12.755L65.911-71.2089Q65.911-73.7142 64.4117-75.1914Q62.9124-76.6686 60.4018-76.6686L50.5869-76.6686Q48.0763-76.6686 46.5771-75.1914Q45.0779-73.7142 45.0779-71.2089ZM71.2747-12.755Q71.2747-10.2834 72.7597-8.7894Q74.2448-7.29537 76.7502-7.29537L86.6274-7.29537Q89.1379-7.29537 90.6228-8.7894Q92.1078-10.2834 92.1078-12.755L92.1078-59.531Q92.1078-62.0597 90.6228-63.5538Q89.1379-65.0478 86.6274-65.0478L76.7502-65.0478Q74.2448-65.0478 72.7597-63.5538Q71.2747-62.0597 71.2747-59.531ZM97.5002-12.755Q97.5002-10.2834 99.0112-8.7894Q100.522-7.29537 102.981-7.29537L112.853-7.29537Q115.33-7.29537 116.831-8.7894Q118.333-10.2834 118.333-12.755L118.333-40.8932Q118.333-43.3933 116.831-44.9016Q115.33-46.41 112.853-46.41L102.981-46.41Q100.522-46.41 99.0112-44.9016Q97.5002-43.3933 97.5002-40.8932Z"/>
  </g>
  <g id="Semibold-M" transform="matrix(1 0 0 1 1976.57 1126)">
   <path d="M12.4609 6.44468Q12.4609 8.80007 14.0716 10.3362Q15.6824 11.8723 17.9683 11.8723L115.437 11.8723Q117.722 11.8723 119.33 10.3362Q120.937 8.80007 120.937 6.44468Q120.937 4.12639 119.33 2.5717Q117.722 1.01701 115.437 1.01701L17.9683 1.01701Q15.6824 1.01701 14.0716 2.5717Q12.4609 4.12639 12.4609 6.44468ZM17.9541-11.2963Q17.9541-9.04438 19.3344-7.69557Q20.7148-6.34676 22.9888-6.34676L33.1604-6.34676Q35.4383-6.34676 36.8167-7.69557Q38.1951-9.04438 38.1951-11.2963L38.1951-49.7651Q38.1951-52.0722 36.8167-53.4175Q35.4383-54.7628 33.1604-54.7628L22.9888-54.7628Q20.7148-54.7628 19.3344-53.4175Q17.9541-52.0722 17.9541-49.7651ZM43.6965-11.2963Q43.6965-9.04438 45.0619-7.69557Q46.4272-6.34676 48.7493-6.34676L58.8657-6.34676Q61.1878-6.34676 62.5627-7.69557Q63.9375-9.04438 63.9375-11.2963L63.9375-70.8695Q63.9375-73.1466 62.5627-74.4734Q61.1878-75.8002 58.8657-75.8002L48.7493-75.8002Q46.4272-75.8002 45.0619-74.4734Q43.6965-73.1466 43.6965-70.8695ZM69.4161-11.2963Q69.4161-9.04438 70.7819-7.69557Q72.1477-6.34676 74.4626-6.34676L84.6224-6.34676Q86.9444-6.34676 88.3007-7.69557Q89.657-9.04438 89.657-11.2963L89.657-59.5969Q89.657-61.904 88.3007-63.2529Q86.9444-64.6018 84.6224-64.6018L74.4626-64.6018Q72.1477-64.6018 70.7819-63.2529Q69.4161-61.904 69.4161-59.5969ZM95.1727-11.2963Q95.1727-9.04438 96.5531-7.69557Q97.9334-6.34676 100.207-6.34676L110.379-6.34676Q112.657-6.34676 114.035-7.69557Q115.414-9.04438 115.414-11.2963L115.414-40.1549Q115.414-42.4249 114.035-43.7922Q112.657-45.1596 110.379-45.1596L100.207-45.1596Q97.9334-45.1596 96.5531-43.7922Q95.1727-42.4249 95.1727-40.1549Z"/>
  </g>
  <g id="Medium-M" transform="matrix(1 0 0 1 1681.31 1126)">
   <path d="M12.4609 6.37012Q12.4609 8.41834 13.883 9.7801Q15.3051 11.1419 17.2823 11.1419L113.226 11.1419Q115.203 11.1419 116.621 9.7801Q118.039 8.41834 118.039 6.37012Q118.039 4.36541 116.621 2.98189Q115.203 1.59838 113.226 1.59838L17.2823 1.59838Q15.3051 1.59838 13.883 2.98189Q12.4609 4.36541 12.4609 6.37012ZM17.2651-10.1903Q17.2651-8.10488 18.5464-6.86618Q19.8278-5.62749 21.9618-5.62749L32.3605-5.62749Q34.4877-5.62749 35.7724-6.86618Q37.0572-8.10488 37.0572-10.1903L37.0572-49.4795Q37.0572-51.6185 35.7724-52.8529Q34.4877-54.0874 32.3605-54.0874L21.9618-54.0874Q19.8278-54.0874 18.5464-52.8529Q17.2651-51.6185 17.2651-49.4795ZM42.649-10.1903Q42.649-8.10488 43.9129-6.86618Q45.1768-5.62749 47.356-5.62749L57.7009-5.62749Q59.8801-5.62749 61.1606-6.86618Q62.4411-8.10488 62.4411-10.1903L62.4411-70.6121Q62.4411-72.7163 61.1606-73.9291Q59.8801-75.1418 57.7009-75.1418L47.356-75.1418Q45.1768-75.1418 43.9129-73.9291Q42.649-72.7163 42.649-70.6121ZM68.0068-10.1903Q68.0068-8.10488 69.2822-6.86618Q70.5575-5.62749 72.7281-5.62749L83.1022-5.62749Q85.2812-5.62749 86.54-6.86618Q87.7988-8.10488 87.7988-10.1903L87.7988-59.647Q87.7988-61.786 86.54-63.0248Q85.2812-64.2635 83.1022-64.2635L72.7281-64.2635Q70.5575-64.2635 69.2822-63.0248Q68.0068-61.786 68.0068-59.647ZM93.4079-10.1903Q93.4079-8.10488 94.6892-6.86618Q95.9705-5.62749 98.1046-5.62749L108.503-5.62749Q110.63-5.62749 111.915-6.86618Q113.2-8.10488 113.2-10.1903L113.2-39.595Q113.2-41.6906 111.915-42.951Q110.63-44.2115 108.503-44.2115L98.1046-44.2115Q95.9705-44.2115 94.6892-42.951Q93.4079-41.6906 93.4079-39.595Z"/>
  </g>
  <g id="Regular-M" transform="matrix(1 0 0 1 1386.48 1126)">
   <path d="M12.4609 6.27287Q12.4609 7.92043 13.637 9.05475Q14.813 10.1891 16.3876 10.1891L110.343 10.1891Q111.918 10.1891 113.088 9.05475Q114.259 7.92043 114.259 6.27287Q114.259 4.67717 113.088 3.51692Q111.918 2.35668 110.343 2.35668L16.3876 2.35668Q14.813 2.35668 13.637 3.51692Q12.4609 4.67717 12.4609 6.27287ZM16.3665-8.7476Q16.3665-6.87944 17.5186-5.78437Q18.6708-4.6893 20.6223-4.6893L31.3172-4.6893Q33.2476-4.6893 34.4103-5.78437Q35.573-6.87944 35.573-8.7476L35.573-49.1068Q35.573-51.0267 34.4103-52.1165Q33.2476-53.2064 31.3172-53.2064L20.6223-53.2064Q18.6708-53.2064 17.5186-52.1165Q16.3665-51.0267 16.3665-49.1068ZM41.2828-8.7476Q41.2828-6.87944 42.4144-5.78437Q43.5459-4.6893 45.5387-4.6893L56.1817-4.6893Q58.1744-4.6893 59.3319-5.78437Q60.4894-6.87944 60.4894-8.7476L60.4894-70.2764Q60.4894-72.155 59.3319-73.219Q58.1744-74.283 56.1817-74.283L45.5387-74.283Q43.5459-74.283 42.4144-73.219Q41.2828-72.155 41.2828-70.2764ZM66.1686-8.7476Q66.1686-6.87944 67.326-5.78437Q68.4835-4.6893 70.4656-4.6893L81.1192-4.6893Q83.1118-4.6893 84.2434-5.78437Q85.3749-6.87944 85.3749-8.7476L85.3749-59.7122Q85.3749-61.632 84.2434-62.7272Q83.1118-63.8224 81.1192-63.8224L70.4656-63.8224Q68.4835-63.8224 67.326-62.7272Q66.1686-61.632 66.1686-59.7122ZM91.106-8.7476Q91.106-6.87944 92.2581-5.78437Q93.4103-4.6893 95.3618-4.6893L106.057-4.6893Q107.987-4.6893 109.15-5.78437Q110.312-6.87944 110.312-8.7476L110.312-38.8648Q110.312-40.7328 109.15-41.8538Q107.987-42.9748 106.057-42.9748L95.3618-42.9748Q93.4103-42.9748 92.2581-41.8538Q91.106-40.7328 91.106-38.8648Z"/>
  </g>
  <g id="Light-M" transform="matrix(1 0 0 1 1089.63 1126)">
   <path d="M12.4609 7.04276Q12.4609 8.33095 13.3718 9.18296Q14.2826 10.035 15.4806 10.035L111.558 10.035Q112.756 10.035 113.653 9.18296Q114.55 8.33095 114.55 7.04276Q114.55 5.78944 113.653 4.91999Q112.756 4.05054 111.558 4.05054L15.4806 4.05054Q14.2826 4.05054 13.3718 4.91999Q12.4609 5.78944 12.4609 7.04276ZM15.4253-6.36925Q15.4253-4.60372 16.5261-3.55148Q17.6269-2.49925 19.5101-2.49925L31.1803-2.49925Q33.0082-2.49925 34.1367-3.55148Q35.2651-4.60372 35.2651-6.36925L35.2651-49.5346Q35.2651-51.3346 34.1367-52.3731Q33.0082-53.4116 31.1803-53.4116L19.5101-53.4116Q17.6269-53.4116 16.5261-52.3731Q15.4253-51.3346 15.4253-49.5346ZM40.8378-6.36925Q40.8378-4.60372 41.9351-3.55148Q43.0324-2.49925 44.9226-2.49925L56.558-2.49925Q58.4481-2.49925 59.5629-3.55148Q60.6777-4.60372 60.6777-6.36925L60.6777-71.3887Q60.6777-73.1816 59.5629-74.2029Q58.4481-75.2242 56.558-75.2242L44.9226-75.2242Q43.0324-75.2242 41.9351-74.2029Q40.8378-73.1816 40.8378-71.3887ZM66.2712-6.36925Q66.2712-4.60372 67.386-3.55148Q68.5007-2.49925 70.363-2.49925L82.0263-2.49925Q83.9159-2.49925 85.0133-3.55148Q86.1106-4.60372 86.1106-6.36925L86.1106-60.4651Q86.1106-62.2651 85.0133-63.3176Q83.9159-64.37 82.0263-64.37L70.363-64.37Q68.5007-64.37 67.386-63.3176Q66.2712-62.2651 66.2712-60.4651ZM91.739-6.36925Q91.739-4.60372 92.8398-3.55148Q93.9407-2.49925 95.8238-2.49925L107.494-2.49925Q109.322-2.49925 110.45-3.55148Q111.578-4.60372 111.578-6.36925L111.578-38.9505Q111.578-40.7156 110.45-41.7852Q109.322-42.8549 107.494-42.8549L95.8238-42.8549Q93.9407-42.8549 92.8398-41.7852Q91.739-40.7156 91.739-38.9505Z"/>
  </g>
  <g id="Thin-M" transform="matrix(1 0 0 1 792.724 1126)">
   <path d="M12.4609 8.06099Q12.4609 8.87391 13.021 9.35254Q13.5811 9.83117 14.281 9.83117L113.165 9.83117Q113.865 9.83117 114.4 9.35254Q114.935 8.87391 114.935 8.06099Q114.935 7.26052 114.4 6.77566Q113.865 6.29081 113.165 6.29081L14.281 6.29081Q13.5811 6.29081 13.021 6.77566Q12.4609 7.26052 12.4609 8.06099ZM14.1804-3.22367Q14.1804-1.59389 15.2134-0.598302Q16.2463 0.397281 18.039 0.397281L30.9994 0.397281Q32.6914 0.397281 33.7747-0.598302Q34.8579-1.59389 34.8579-3.22367L34.8579-50.1004Q34.8579-51.7418 33.7747-52.7124Q32.6914-53.6831 30.9994-53.6831L18.039-53.6831Q16.2463-53.6831 15.2134-52.7124Q14.1804-51.7418 14.1804-50.1004ZM40.2492-3.22367Q40.2492-1.59389 41.3013-0.598302Q42.3534 0.397281 44.1078 0.397281L57.0557 0.397281Q58.8101 0.397281 59.8684-0.598302Q60.9267-1.59389 60.9267-3.22367L60.9267-72.8597Q60.9267-74.5394 59.8684-75.5042Q58.8101-76.4691 57.0557-76.4691L44.1078-76.4691Q42.3534-76.4691 41.3013-75.5042Q40.2492-74.5394 40.2492-72.8597ZM66.4069-3.22367Q66.4069-1.59389 67.4652-0.598302Q68.5236 0.397281 70.2272 0.397281L83.2259 0.397281Q84.9794 0.397281 86.0315-0.598302Q87.0836-1.59389 87.0836-3.22367L87.0836-61.4609Q87.0836-63.1023 86.0315-64.0983Q84.9794-65.0943 83.2259-65.0943L70.2272-65.0943Q68.5236-65.0943 67.4652-64.0983Q66.4069-63.1023 66.4069-61.4609ZM92.5763-3.22367Q92.5763-1.59389 93.6092-0.598302Q94.6422 0.397281 96.4348 0.397281L109.395 0.397281Q111.087 0.397281 112.17-0.598302Q113.253-1.59389 113.253-3.22367L113.253-39.0638Q113.253-40.6928 112.17-41.6946Q111.087-42.6964 109.395-42.6964L96.4348-42.6964Q94.6422-42.6964 93.6092-41.6946Q92.5763-40.6928 92.5763-39.0638Z"/>
  </g>
  <g id="Ultralight-M" transform="matrix(1 0 0 1 495.915 1126)">
   <path d="M12.4609 8.58252Q12.4609 9.15201 12.8413 9.4394Q13.2217 9.72679 13.6665 9.72679L113.988 9.72679Q114.433 9.72679 114.782 9.4394Q115.132 9.15201 115.132 8.58252Q115.132 8.014 114.782 7.72613Q114.433 7.43826 113.988 7.43826L13.6665 7.43826Q13.2217 7.43826 12.8413 7.72613Q12.4609 8.014 12.4609 8.58252ZM13.5428-1.61253Q13.5428-0.0522639 14.541 0.914302Q15.5392 1.88087 17.2855 1.88087L30.9067 1.88087Q32.5292 1.88087 33.5893 0.914302Q34.6493-0.0522639 34.6493-1.61253L34.6493-50.3902Q34.6493-51.9504 33.5893-52.8863Q32.5292-53.8221 30.9067-53.8221L17.2855-53.8221Q15.5392-53.8221 14.541-52.8863Q13.5428-51.9504 13.5428-50.3902ZM39.9477-1.61253Q39.9477-0.0522639 40.9766 0.914302Q42.0056 1.88087 43.6904 1.88087L57.3106 1.88087Q58.9955 1.88087 60.0249 0.914302Q61.0543-0.0522639 61.0543-1.61253L61.0543-73.6132Q61.0543-75.2348 60.0249-76.1708Q58.9955-77.1067 57.3106-77.1067L43.6904-77.1067Q42.0056-77.1067 40.9766-76.1708Q39.9477-75.2348 39.9477-73.6132ZM66.4765-1.61253Q66.4765-0.0522639 67.5058 0.914302Q68.5352 1.88087 70.1577 1.88087L83.8403 1.88087Q85.5241 1.88087 86.553 0.914302Q87.5819-0.0522639 87.5819-1.61253L87.5819-61.971Q87.5819-63.5312 86.553-64.4983Q85.5241-65.4653 83.8403-65.4653L70.1577-65.4653Q68.5352-65.4653 67.5058-64.4983Q66.4765-63.5312 66.4765-61.971ZM93.0051-1.61253Q93.0051-0.0522639 94.0033 0.914302Q95.0015 1.88087 96.7478 1.88087L110.369 1.88087Q111.991 1.88087 113.051 0.914302Q114.111-0.0522639 114.111-1.61253L114.111-39.1218Q114.111-40.6811 113.051-41.6481Q111.991-42.6152 110.369-42.6152L96.7478-42.6152Q95.0015-42.6152 94.0033-41.6481Q93.0051-40.6811 93.0051-39.1218Z"/>
  </g>
  <g id="Black-S" transform="matrix(1 0 0 1 2874.76 696)">
   <path d="M9.76562-2.19727Q9.76562 0.976562 11.8408 2.92969Q13.916 4.88281 17.041 4.88281L100.244 4.88281Q103.369 4.88281 105.444 2.92969Q107.52 0.976562 107.52-2.19727Q107.52-5.37109 105.444-7.32422Q103.369-9.27734 100.244-9.27734L17.041-9.27734Q13.916-9.27734 11.8408-7.32422Q9.76562-5.37109 9.76562-2.19727ZM17.041-21.1914Q17.041-18.7012 18.5547-17.1631Q20.0684-15.625 22.4609-15.625L29.4922-15.625Q31.9336-15.625 33.4229-17.1631Q34.9121-18.7012 34.9121-21.1914L34.9121-47.9004Q34.9121-50.4395 33.4229-51.9775Q31.9336-53.5156 29.4922-53.5156L22.4609-53.5156Q20.0684-53.5156 18.5547-51.9775Q17.041-50.4395 17.041-47.9004ZM38.8184-21.1914Q38.8184-18.7012 40.332-17.1631Q41.8457-15.625 44.2871-15.625L51.2695-15.625Q53.7109-15.625 55.2002-17.1631Q56.6895-18.7012 56.6895-21.1914L56.6895-64.3555Q56.6895-66.8945 55.2002-68.4326Q53.7109-69.9707 51.2695-69.9707L44.2871-69.9707Q41.8457-69.9707 40.332-68.4326Q38.8184-66.8945 38.8184-64.3555ZM60.5957-21.1914Q60.5957-18.7012 62.0605-17.1631Q63.5254-15.625 65.9668-15.625L73.0469-15.625Q75.4883-15.625 76.9775-17.1631Q78.4668-18.7012 78.4668-21.1914L78.4668-54.1504Q78.4668-56.6895 76.9775-58.2275Q75.4883-59.7656 73.0469-59.7656L65.9668-59.7656Q63.5254-59.7656 62.0605-58.2275Q60.5957-56.6895 60.5957-54.1504ZM82.373-21.1914Q82.373-18.7012 83.8867-17.1631Q85.4004-15.625 87.793-15.625L94.8242-15.625Q97.2656-15.625 98.7549-17.1631Q100.244-18.7012 100.244-21.1914L100.244-41.5527Q100.244-44.0918 98.7549-45.6299Q97.2656-47.168 94.8242-47.168L87.793-47.168Q85.4004-47.168 83.8867-45.6299Q82.373-44.0918 82.373-41.5527Z"/>
  </g>
  <g id="Heavy-S" transform="matrix(1 0 0 1 2580.18 696)">
   <path d="M9.76562-2.40471Q9.76562 0.365766 11.5988 2.09993Q13.432 3.83409 16.1536 3.83409L96.8559 3.83409Q99.5776 3.83409 101.411 2.09993Q103.244 0.365766 103.244-2.40471Q103.244-5.16365 101.411-6.90358Q99.5776-8.6435 96.8559-8.6435L16.1536-8.6435Q13.432-8.6435 11.5988-6.90358Q9.76562-5.16365 9.76562-2.40471ZM16.1536-19.8776Q16.1536-17.6179 17.529-16.2354Q18.9044-14.8529 21.1011-14.8529L28.3397-14.8529Q30.5737-14.8529 31.9304-16.2354Q33.2872-17.6179 33.2872-19.8776L33.2872-47.4279Q33.2872-49.7365 31.9304-51.119Q30.5737-52.5015 28.3397-52.5015L21.1011-52.5015Q18.9044-52.5015 17.529-51.119Q16.1536-49.7365 16.1536-47.4279ZM37.3432-19.8776Q37.3432-17.6179 38.7128-16.2354Q40.0825-14.8529 42.328-14.8529L49.5178-14.8529Q51.7633-14.8529 53.12-16.2354Q54.4768-17.6179 54.4768-19.8776L54.4768-63.8369Q54.4768-66.1339 53.12-67.5107Q51.7633-68.8874 49.5178-68.8874L42.328-68.8874Q40.0825-68.8874 38.7128-67.5107Q37.3432-66.1339 37.3432-63.8369ZM58.5213-19.8776Q58.5213-17.6179 59.8594-16.2354Q61.1974-14.8529 63.4429-14.8529L70.7074-14.8529Q72.9529-14.8529 74.3039-16.2354Q75.6548-17.6179 75.6548-19.8776L75.6548-54.1273Q75.6548-56.4359 74.3039-57.8184Q72.9529-59.2009 70.7074-59.2009L63.4429-59.2009Q61.1974-59.2009 59.8594-57.8184Q58.5213-56.4359 58.5213-54.1273ZM79.7109-19.8776Q79.7109-17.6179 81.0863-16.2354Q82.4617-14.8529 84.6583-14.8529L91.897-14.8529Q94.131-14.8529 95.4877-16.2354Q96.8444-17.6179 96.8444-19.8776L96.8444-40.723Q96.8444-43.02 95.4877-44.4083Q94.131-45.7966 91.897-45.7966L84.6583-45.7966Q82.4617-45.7966 81.0863-44.4083Q79.7109-43.02 79.7109-40.723Z"/>
  </g>
  <g id="Bold-S" transform="matrix(1 0 0 1 2285.86 696)">
   <path d="M9.76562-2.63672Q9.76562-0.317383 11.3281 1.17188Q12.8906 2.66113 15.1611 2.66113L93.0664 2.66113Q95.3369 2.66113 96.8994 1.17188Q98.4619-0.317383 98.4619-2.63672Q98.4619-4.93164 96.8994-6.43311Q95.3369-7.93457 93.0664-7.93457L15.1611-7.93457Q12.8906-7.93457 11.3281-6.43311Q9.76562-4.93164 9.76562-2.63672ZM15.1611-18.4082Q15.1611-16.4062 16.3818-15.1978Q17.6025-13.9893 19.5801-13.9893L27.0508-13.9893Q29.0527-13.9893 30.2612-15.1978Q31.4697-16.4062 31.4697-18.4082L31.4697-46.8994Q31.4697-48.9502 30.2612-50.1587Q29.0527-51.3672 27.0508-51.3672L19.5801-51.3672Q17.6025-51.3672 16.3818-50.1587Q15.1611-48.9502 15.1611-46.8994ZM35.6934-18.4082Q35.6934-16.4062 36.9019-15.1978Q38.1104-13.9893 40.1367-13.9893L47.5586-13.9893Q49.585-13.9893 50.7935-15.1978Q52.002-16.4062 52.002-18.4082L52.002-63.2568Q52.002-65.2832 50.7935-66.4795Q49.585-67.6758 47.5586-67.6758L40.1367-67.6758Q38.1104-67.6758 36.9019-66.4795Q35.6934-65.2832 35.6934-63.2568ZM56.2012-18.4082Q56.2012-16.4062 57.3975-15.1978Q58.5938-13.9893 60.6201-13.9893L68.0908-13.9893Q70.1172-13.9893 71.3135-15.1978Q72.5098-16.4062 72.5098-18.4082L72.5098-54.1016Q72.5098-56.1523 71.3135-57.3608Q70.1172-58.5693 68.0908-58.5693L60.6201-58.5693Q58.5938-58.5693 57.3975-57.3608Q56.2012-56.1523 56.2012-54.1016ZM76.7334-18.4082Q76.7334-16.4062 77.9541-15.1978Q79.1748-13.9893 81.1523-13.9893L88.623-13.9893Q90.625-13.9893 91.8335-15.1978Q93.042-16.4062 93.042-18.4082L93.042-39.7949Q93.042-41.8213 91.8335-43.042Q90.625-44.2627 88.623-44.2627L81.1523-44.2627Q79.1748-44.2627 77.9541-43.042Q76.7334-41.8213 76.7334-39.7949Z"/>
  </g>
  <g id="Semibold-S" transform="matrix(1 0 0 1 1990.8 696)">
   <path d="M9.76562-2.79668Q9.76562-0.788379 11.1415 0.532031Q12.5174 1.85244 14.4769 1.85244L90.4537 1.85244Q92.4132 1.85244 93.7891 0.532031Q95.1649-0.788379 95.1649-2.79668Q95.1649-4.77168 93.7891-6.10874Q92.4132-7.4458 90.4537-7.4458L14.4769-7.4458Q12.5174-7.4458 11.1415-6.10874Q9.76562-4.77168 9.76562-2.79668ZM14.4769-17.3951Q14.4769-15.5709 15.5909-14.4824Q16.705-13.3938 18.5314-13.3938L26.1621-13.3938Q28.0041-13.3938 29.1104-14.4824Q30.2167-15.5709 30.2167-17.3951L30.2167-46.5351Q30.2167-48.4081 29.1104-49.4966Q28.0041-50.5852 26.1621-50.5852L18.5314-50.5852Q16.705-50.5852 15.5909-49.4966Q14.4769-48.4081 14.4769-46.5351ZM34.5559-17.3951Q34.5559-15.5709 35.6533-14.4824Q36.7507-13.3938 38.626-13.3938L46.2078-13.3938Q48.0831-13.3938 49.1894-14.4824Q50.2957-15.5709 50.2957-17.3951L50.2957-62.8569Q50.2957-64.6967 49.1894-65.7686Q48.0831-66.8404 46.2078-66.8404L38.626-66.8404Q36.7507-66.8404 35.6533-65.7686Q34.5559-64.6967 34.5559-62.8569ZM54.6016-17.3951Q54.6016-15.5709 55.7001-14.4824Q56.7986-13.3938 58.6739-13.3938L66.2868-13.3938Q68.1621-13.3938 69.2518-14.4824Q70.3414-15.5709 70.3414-17.3951L70.3414-54.0838Q70.3414-55.9568 69.2518-57.0454Q68.1621-58.1339 66.2868-58.1339L58.6739-58.1339Q56.7986-58.1339 55.7001-57.0454Q54.6016-55.9568 54.6016-54.0838ZM74.6806-17.3951Q74.6806-15.5709 75.7946-14.4824Q76.9087-13.3938 78.7352-13.3938L86.3658-13.3938Q88.2078-13.3938 89.3141-14.4824Q90.4204-15.5709 90.4204-17.3951L90.4204-39.1551Q90.4204-40.9948 89.3141-42.1Q88.2078-43.2052 86.3658-43.2052L78.7352-43.2052Q76.9087-43.2052 75.7946-42.1Q74.6806-40.9948 74.6806-39.1551Z"/>
  </g>
  <g id="Medium-S" transform="matrix(1 0 0 1 1695.34 696)">
   <path d="M9.76562-2.91797Q9.76562-1.14551 11 0.046875Q12.2344 1.23926 13.958 1.23926L88.4727 1.23926Q90.1963 1.23926 91.4307 0.046875Q92.665-1.14551 92.665-2.91797Q92.665-4.65039 91.4307-5.86279Q90.1963-7.0752 88.4727-7.0752L13.958-7.0752Q12.2344-7.0752 11-5.86279Q9.76562-4.65039 9.76562-2.91797ZM13.958-16.627Q13.958-14.9375 14.9912-13.9399Q16.0244-12.9424 17.7363-12.9424L25.4883-12.9424Q27.209-12.9424 28.2378-13.9399Q29.2666-14.9375 29.2666-16.627L29.2666-46.2588Q29.2666-47.9971 28.2378-48.9946Q27.209-49.9922 25.4883-49.9922L17.7363-49.9922Q16.0244-49.9922 14.9912-48.9946Q13.958-47.9971 13.958-46.2588ZM33.6934-16.627Q33.6934-14.9375 34.7065-13.9399Q35.7197-12.9424 37.4805-12.9424L45.1836-12.9424Q46.9443-12.9424 47.9731-13.9399Q49.002-14.9375 49.002-16.627L49.002-62.5537Q49.002-64.252 47.9731-65.2295Q46.9443-66.207 45.1836-66.207L37.4805-66.207Q35.7197-66.207 34.7065-65.2295Q33.6934-64.252 33.6934-62.5537ZM53.3887-16.627Q53.3887-14.9375 54.4131-13.9399Q55.4375-12.9424 57.1982-12.9424L64.9189-12.9424Q66.6797-12.9424 67.6885-13.9399Q68.6973-14.9375 68.6973-16.627L68.6973-54.0703Q68.6973-55.8086 67.6885-56.8062Q66.6797-57.8037 64.9189-57.8037L57.1982-57.8037Q55.4375-57.8037 54.4131-56.8062Q53.3887-55.8086 53.3887-54.0703ZM73.124-16.627Q73.124-14.9375 74.1572-13.9399Q75.1904-12.9424 76.9023-12.9424L84.6543-12.9424Q86.375-12.9424 87.4038-13.9399Q88.4326-14.9375 88.4326-16.627L88.4326-38.6699Q88.4326-40.3682 87.4038-41.3857Q86.375-42.4033 84.6543-42.4033L76.9023-42.4033Q75.1904-42.4033 74.1572-41.3857Q73.124-40.3682 73.124-38.6699Z"/>
  </g>
  <g id="Regular-S" transform="matrix(1 0 0 1 1400.26 696)">
   <path d="M9.76562-3.07617Q9.76562-1.61133 10.8154-0.585938Q11.8652 0.439453 13.2812 0.439453L85.8887 0.439453Q87.3047 0.439453 88.3545-0.585938Q89.4043-1.61133 89.4043-3.07617Q89.4043-4.49219 88.3545-5.54199Q87.3047-6.5918 85.8887-6.5918L13.2812-6.5918Q11.8652-6.5918 10.8154-5.54199Q9.76562-4.49219 9.76562-3.07617ZM13.2812-15.625Q13.2812-14.1113 14.209-13.2324Q15.1367-12.3535 16.6992-12.3535L24.6094-12.3535Q26.1719-12.3535 27.0996-13.2324Q28.0273-14.1113 28.0273-15.625L28.0273-45.8984Q28.0273-47.4609 27.0996-48.3398Q26.1719-49.2188 24.6094-49.2188L16.6992-49.2188Q15.1367-49.2188 14.209-48.3398Q13.2812-47.4609 13.2812-45.8984ZM32.5684-15.625Q32.5684-14.1113 33.4717-13.2324Q34.375-12.3535 35.9863-12.3535L43.8477-12.3535Q45.459-12.3535 46.3867-13.2324Q47.3145-14.1113 47.3145-15.625L47.3145-62.1582Q47.3145-63.6719 46.3867-64.5264Q45.459-65.3809 43.8477-65.3809L35.9863-65.3809Q34.375-65.3809 33.4717-64.5264Q32.5684-63.6719 32.5684-62.1582ZM51.8066-15.625Q51.8066-14.1113 52.7344-13.2324Q53.6621-12.3535 55.2734-12.3535L63.1348-12.3535Q64.7461-12.3535 65.6494-13.2324Q66.5527-14.1113 66.5527-15.625L66.5527-54.0527Q66.5527-55.6152 65.6494-56.4941Q64.7461-57.373 63.1348-57.373L55.2734-57.373Q53.6621-57.373 52.7344-56.4941Q51.8066-55.6152 51.8066-54.0527ZM71.0938-15.625Q71.0938-14.1113 72.0215-13.2324Q72.9492-12.3535 74.5117-12.3535L82.4219-12.3535Q83.9844-12.3535 84.9121-13.2324Q85.8398-14.1113 85.8398-15.625L85.8398-38.0371Q85.8398-39.5508 84.9121-40.4541Q83.9844-41.3574 82.4219-41.3574L74.5117-41.3574Q72.9492-41.3574 72.0215-40.4541Q71.0938-39.5508 71.0938-38.0371Z"/>
  </g>
  <g id="Light-S" transform="matrix(1 0 0 1 1103.42 696)">
   <path d="M9.76562-2.39512Q9.76562-1.24817 10.5808-0.472514Q11.396 0.303141 12.4789 0.303141L86.9634 0.303141Q88.0463 0.303141 88.854-0.472514Q89.6617-1.24817 89.6617-2.39512Q89.6617-3.50825 88.854-4.30082Q88.0463-5.09338 86.9634-5.09338L12.4789-5.09338Q11.396-5.09338 10.5808-4.30082Q9.76562-3.50825 9.76562-2.39512ZM12.4486-13.5211Q12.4486-12.0982 13.331-11.2572Q14.2133-10.4162 15.7153-10.4162L24.4883-10.4162Q25.96-10.4162 26.8575-11.2572Q27.755-12.0982 27.755-13.5211L27.755-46.2769Q27.755-47.7333 26.8575-48.5668Q25.96-49.4003 24.4883-49.4003L15.7153-49.4003Q14.2133-49.4003 13.331-48.5668Q12.4486-47.7333 12.4486-46.2769ZM32.1747-13.5211Q32.1747-12.0982 33.0477-11.2572Q33.9208-10.4162 35.4413-10.4162L44.1806-10.4162Q45.7011-10.4162 46.5911-11.2572Q47.481-12.0982 47.481-13.5211L47.481-63.1421Q47.481-64.58 46.5911-65.3968Q45.7011-66.2135 44.1806-66.2135L35.4413-66.2135Q33.9208-66.2135 33.0477-65.3968Q32.1747-64.58 32.1747-63.1421ZM51.8974-13.5211Q51.8974-12.0982 52.7874-11.2572Q53.6774-10.4162 55.1826-10.4162L63.9371-10.4162Q65.4574-10.4162 66.3305-11.2572Q67.2035-12.0982 67.2035-13.5211L67.2035-54.7188Q67.2035-56.1752 66.3305-57.0164Q65.4574-57.8575 63.9371-57.8575L55.1826-57.8575Q53.6774-57.8575 52.7874-57.0164Q51.8974-56.1752 51.8974-54.7188ZM71.6537-13.5211Q71.6537-12.0982 72.5361-11.2572Q73.4184-10.4162 74.9204-10.4162L83.6934-10.4162Q85.1652-10.4162 86.0625-11.2572Q86.9598-12.0982 86.9598-13.5211L86.9598-38.1129Q86.9598-39.5355 86.0625-40.3934Q85.1652-41.2514 83.6934-41.2514L74.9204-41.2514Q73.4184-41.2514 72.5361-40.3934Q71.6537-39.5355 71.6537-38.1129Z"/>
  </g>
  <g id="Thin-S" transform="matrix(1 0 0 1 806.538 696)">
   <path d="M9.76562-1.49438Q9.76562-0.767862 10.2705-0.322502Q10.7755 0.122858 11.4177 0.122858L88.3848 0.122858Q89.0271 0.122858 89.5146-0.322502Q90.002-0.767862 90.002-1.49438Q90.002-2.20691 89.5146-2.65926Q89.0271-3.11161 88.3848-3.11161L11.4177-3.11161Q10.7755-3.11161 10.2705-2.65926Q9.76562-2.20691 9.76562-1.49438ZM11.3474-10.7384Q11.3474-9.43564 12.1697-8.64474Q12.992-7.85385 14.4139-7.85385L24.3282-7.85385Q25.6799-7.85385 26.5373-8.64474Q27.3947-9.43564 27.3947-10.7384L27.3947-46.7773Q27.3947-48.0935 26.5373-48.867Q25.6799-49.6405 24.3282-49.6405L14.4139-49.6405Q12.992-49.6405 12.1697-48.867Q11.3474-48.0935 11.3474-46.7773ZM31.654-10.7384Q31.654-9.43564 32.487-8.64474Q33.3201-7.85385 34.7205-7.85385L44.6208-7.85385Q46.0213-7.85385 46.8613-8.64474Q47.7013-9.43564 47.7013-10.7384L47.7013-64.4435Q47.7013-65.7811 46.8613-66.5479Q46.0213-67.3147 44.6208-67.3147L34.7205-67.3147Q33.3201-67.3147 32.487-66.5479Q31.654-65.7811 31.654-64.4435ZM52.0175-10.7384Q52.0175-9.43564 52.8575-8.64474Q53.6975-7.85385 55.0626-7.85385L64.9983-7.85385Q66.3982-7.85385 67.2312-8.64474Q68.0642-9.43564 68.0642-10.7384L68.0642-55.5997Q68.0642-56.9159 67.2312-57.7071Q66.3982-58.4983 64.9983-58.4983L55.0626-58.4983Q53.6975-58.4983 52.8575-57.7071Q52.0175-56.9159 52.0175-55.5997ZM72.3944-10.7384Q72.3944-9.43564 73.2167-8.64474Q74.039-7.85385 75.4609-7.85385L85.3752-7.85385Q86.7268-7.85385 87.584-8.64474Q88.4411-9.43564 88.4411-10.7384L88.4411-38.2131Q88.4411-39.5153 87.584-40.3132Q86.7268-41.1111 85.3752-41.1111L75.4609-41.1111Q74.039-41.1111 73.2167-40.3132Q72.3944-39.5153 72.3944-38.2131Z"/>
  </g>
  <g id="Ultralight-S" transform="matrix(1 0 0 1 509.74 696)">
   <path d="M9.76562-1.03302Q9.76562-0.521851 10.1116-0.245667Q10.4576 0.0305176 10.8742 0.0305176L89.1129 0.0305176Q89.5294 0.0305176 89.8529-0.245667Q90.1764-0.521851 90.1764-1.03302Q90.1764-1.54037 89.8529-1.81847Q89.5294-2.09656 89.1129-2.09656L10.8742-2.09656Q10.4576-2.09656 10.1116-1.81847Q9.76562-1.54037 9.76562-1.03302ZM10.7834-9.3132Q10.7834-8.0719 11.5749-7.30667Q12.3665-6.54144 13.7474-6.54144L24.2462-6.54144Q25.5363-6.54144 26.3733-7.30667Q27.2102-8.0719 27.2102-9.3132L27.2102-47.0337Q27.2102-48.278 26.3733-49.0208Q25.5363-49.7635 24.2462-49.7635L13.7474-49.7635Q12.3665-49.7635 11.5749-49.0208Q10.7834-48.278 10.7834-47.0337ZM31.3873-9.3132Q31.3873-8.0719 32.1999-7.30667Q33.0124-6.54144 34.3513-6.54144L44.8463-6.54144Q46.1853-6.54144 46.9997-7.30667Q47.8142-8.0719 47.8142-9.3132L47.8142-65.11Q47.8142-66.3963 46.9997-67.1375Q46.1853-67.8787 44.8463-67.8787L34.3513-67.8787Q33.0124-67.8787 32.1999-67.1375Q31.3873-66.3963 31.3873-65.11ZM52.079-9.3132Q52.079-8.0719 52.8934-7.30667Q53.7079-6.54144 55.0011-6.54144L65.5418-6.54144Q66.88-6.54144 67.6926-7.30667Q68.5051-8.0719 68.5051-9.3132L68.5051-56.0509Q68.5051-57.2952 67.6926-58.0608Q66.88-58.8264 65.5418-58.8264L55.0011-58.8264Q53.7079-58.8264 52.8934-58.0608Q52.079-57.2952 52.079-56.0509ZM72.7737-9.3132Q72.7737-8.0719 73.5653-7.30667Q74.3568-6.54144 75.7378-6.54144L86.2366-6.54144Q87.5267-6.54144 88.3633-7.30667Q89.1998-8.0719 89.1998-9.3132L89.1998-38.2645Q89.1998-39.505 88.3633-40.2721Q87.5267-41.0393 86.2366-41.0393L75.7378-41.0393Q74.3568-41.0393 73.5653-40.2721Q72.7737-39.505 72.7737-38.2645Z"/>
  </g>
 </g>
</svg>
